<?xml version="1.0" standalone="no"?>
<!DOCTYPE svg PUBLIC "-//W3C//DTD SVG 1.1//EN" "http://www.w3.org/Graphics/SVG/1.1/DTD/svg11.dtd" >
<svg xmlns="http://www.w3.org/2000/svg" xmlns:xlink="http://www.w3.org/1999/xlink" version="1.1">
<metadata>
Created by FontForge 20201107 at Wed Nov 20 20:06:57 2024
 By 
Copyright 2022 The Noto Project Authors (https://github.com/notofonts/latin-greek-cyrillic)
</metadata>
<defs>
<font id="NotoSerifCondensed-Bold" horiz-adv-x="0" >
  <font-face 
    font-family="Noto Serif Condensed"
    font-weight="700"
    font-stretch="condensed"
    units-per-em="1000"
    panose-1="2 2 5 2 6 5 5 2 2 4"
    ascent="800"
    descent="-200"
    x-height="536"
    cap-height="714"
    bbox="-633 -389 2436 1060"
    underline-thickness="50"
    underline-position="-125"
    unicode-range="U+000D-1DF1E"
  />
<missing-glyph horiz-adv-x="571" 
d="M82 0v714h411v-714h-411zM133 51h309v612h-309v-612z" />
    <glyph glyph-name="f_f" unicode="ff" horiz-adv-x="667" 
d="M16 0v51h20q12 0 26.5 4.5t24.5 18.5t10 43v354h-77v65h77v17q0 105 44 155.5t135 50.5q55 0 82.5 -11.5t37.5 -28.5t10 -34q0 -32 -23.5 -46.5t-68.5 -14.5q0 17 -3.5 35.5t-11 32t-22.5 13.5q-12 0 -22 -12.5t-15.5 -44.5t-5.5 -91v-21h214v-65h-214v-354q0 -29 10 -43
t24.5 -18.5t26.5 -4.5h24v-51h-303zM336 0v51h10q12 0 26.5 4.5t24.5 18.5t10 43v354h-40v65h40v-2q0 66 19 119.5t60.5 84.5t110.5 31q52 0 82 -9t42.5 -25.5t12.5 -37.5t-12 -35t-36.5 -21t-61.5 -7q0 17 -3.5 36t-11.5 32t-20 13q-28 0 -36.5 -50t-8.5 -114v-15h119v-65
h-119v-354q0 -29 10 -43t24.5 -18.5t26.5 -4.5h41v-51h-310z" />
    <glyph glyph-name="fi" unicode="fi" horiz-adv-x="631" 
d="M16 0v51h20q12 0 26.5 4.5t24.5 18.5t10 43v354h-77v65h77v10q0 69 25 119.5t77.5 77t134.5 26.5q56 0 94 -6t60.5 -17t32 -27t9.5 -36q0 -37 -30 -59t-103 -22q0 19 -6 45.5t-23.5 47t-49.5 20.5q-27 0 -46 -16t-28.5 -46.5t-9.5 -74.5v-42h311v-419q0 -29 10 -43
t24.5 -18.5t25.5 -4.5h11v-51h-280v51h12q13 0 27 4.5t23.5 18.5t9.5 42v355h-174v-354q0 -29 10 -43t24.5 -18.5t26.5 -4.5h24v-51h-303z" />
    <glyph glyph-name="fl" unicode="fl" horiz-adv-x="632" 
d="M16 0v51h20q12 0 26.5 4.5t24.5 18.5t10 43v354h-77v65h77v8q0 107 57 166t180 59q28 0 51 -2t45 -7h115v-643q0 -29 10 -43t24.5 -18.5t26.5 -4.5h10v-51h-271v51h2q12 0 26.5 4.5t24.5 18.5t10 43v478q-1 21 -11 49.5t-29 49.5t-50 21q-26 0 -45 -15.5t-29 -45.5
t-10 -74v-44h103v-65h-103v-354q0 -29 10 -43t25 -18.5t26 -4.5h14v-51h-293z" />
    <glyph glyph-name="f_f_i" unicode="ffi" horiz-adv-x="941" 
d="M16 0v51h20q12 0 26.5 4.5t24.5 18.5t10 43v354h-77v65h77v17q0 105 44 155.5t135 50.5q55 0 82.5 -11.5t37.5 -28.5t10 -34q0 -32 -23.5 -46.5t-68.5 -14.5q0 17 -3.5 35.5t-11 32t-22.5 13.5q-12 0 -22 -12.5t-15.5 -44.5t-5.5 -91v-21h173v12q0 108 58 165.5t180 57.5
q74 0 116.5 -11t60.5 -30t18 -47q0 -24 -13 -42t-42 -28t-78 -10q0 19 -6 45.5t-23.5 47t-50.5 20.5q-25 0 -43.5 -13.5t-29 -42t-10.5 -71.5v-53h310v-419q0 -29 10.5 -43t24.5 -18.5t27 -4.5h10v-51h-280v51h11q13 0 27 4.5t24 18.5t10 42v355h-174v-354q0 -29 10.5 -43
t24.5 -18.5t26 -4.5h24v-51h-293v51h11q12 0 26 4.5t24 18.5t10 43v354h-173v-354q0 -29 10 -43t24.5 -18.5t26.5 -4.5h24v-51h-303z" />
    <glyph glyph-name="f_f_l" unicode="ffl" horiz-adv-x="962" 
d="M16 0v51h20q12 0 26.5 4.5t24.5 18.5t10 43v354h-77v65h77v35q0 94 43 145.5t139 51.5q52 0 80 -11t39 -27.5t11 -35.5q0 -27 -19.5 -46t-67.5 -19q0 20 -3.5 39.5t-12 32.5t-24.5 13q-25 0 -36.5 -30t-11.5 -96v-52h183v25q0 99 56.5 153.5t175.5 54.5q26 0 48.5 -3
t39.5 -6h139v-638q0 -28 7.5 -44t21.5 -21.5t31 -5.5h11v-51h-277v51h8q18 0 31.5 5.5t21 21t7.5 45.5v475q0 37 -10.5 63t-30.5 39.5t-50 13.5q-32 0 -53 -17t-30.5 -48.5t-9.5 -74.5v-38h117v-65h-117v-352q0 -29 9 -44t23 -19.5t28 -4.5h17v-51h-286v51h11q15 0 29 4.5
t23 19.5t9 44v352h-183v-353q0 -29 9 -43.5t23 -19t28 -4.5h16v-51h-294z" />
    <glyph glyph-name=".notdef" horiz-adv-x="571" 
d="M82 0v714h411v-714h-411zM133 51h309v612h-309v-612z" />
    <glyph glyph-name=".null" 
 />
    <glyph glyph-name="nonmarkingreturn" horiz-adv-x="333" 
 />
    <glyph glyph-name="NULL" 
 />
    <glyph glyph-name="CR" unicode="&#xd;" horiz-adv-x="226" 
 />
    <glyph glyph-name="space" unicode=" " horiz-adv-x="226" 
 />
    <glyph glyph-name="exclam" unicode="!" horiz-adv-x="353" 
d="M147 229l-49 485h156l-48 -485h-59zM177 -8q-30 0 -51 16.5t-21 58.5t21 58t52 16q29 0 51 -16t22 -58t-22 -58.5t-52 -16.5z" />
    <glyph glyph-name="quotedbl" unicode="&#x22;" horiz-adv-x="451" 
d="M100 448l-41 266h140l-40 -266h-59zM292 448l-41 266h140l-40 -266h-59z" />
    <glyph glyph-name="numbersign" unicode="#" horiz-adv-x="489" 
d="M60 0l38 202h-81v66h94l35 182h-97v69h110l35 195h71l-36 -195h91l37 195h69l-37 -195h83v-69h-95l-35 -182h98v-66h-111l-38 -202h-69l37 202h-91l-38 -202h-70zM181 268h92l35 182h-92z" />
    <glyph glyph-name="dollar" unicode="$" horiz-adv-x="489" 
d="M225 41q-51 2 -85.5 15t-55.5 33.5t-30.5 44t-9.5 48.5q0 27 12 43.5t31 24.5t40 8q2 -46 11.5 -81t30 -56t56.5 -28v224q-63 31 -98.5 60t-50 63.5t-14.5 75.5q0 48 21 83t58 57t84 27v77h48v-76q51 -1 84 -15t49.5 -36t16.5 -49q0 -30 -21 -50.5t-70 -20.5
q0 30 -6.5 55.5t-19 43t-33.5 22.5v-209q49 -23 88 -50t62 -62.5t23 -85.5q0 -75 -46 -124t-127 -60v-122h-48v120zM273 95q33 8 51 33.5t18 60.5q0 34 -16 59.5t-53 47.5v-201zM225 635q-26 -5 -43.5 -27.5t-17.5 -56.5q0 -23 6.5 -40t20 -31.5t34.5 -27.5v183z" />
    <glyph glyph-name="percent" unicode="%" horiz-adv-x="790" 
d="M210 0l299 714h68l-298 -714h-69zM187 280q-84 0 -121.5 61.5t-37.5 161.5q0 101 38 161t122 60q79 0 118 -60t39 -161q0 -67 -17 -117t-52.5 -78t-88.5 -28zM187 327q23 0 35.5 20.5t18 60t5.5 95.5q0 83 -12.5 128t-46.5 45q-22 0 -35.5 -20t-19 -59t-5.5 -94
q0 -84 13.5 -130t46.5 -46zM603 -10q-83 0 -120.5 61.5t-37.5 161.5q0 101 37.5 161t121.5 60q79 0 118.5 -60t39.5 -161q0 -67 -17.5 -117t-52.5 -78t-89 -28zM603 37q23 0 35.5 20.5t18 60t5.5 95.5q0 83 -12.5 128t-45.5 45q-22 0 -35.5 -20t-19.5 -59t-6 -94
q0 -84 13.5 -130t46.5 -46z" />
    <glyph glyph-name="ampersand" unicode="&#x26;" horiz-adv-x="703" 
d="M260 -10q-70 0 -120 25t-76.5 71.5t-26.5 112.5q0 59 22.5 96.5t58 62t75.5 42.5q-24 30 -38.5 56t-21.5 53t-7 58q0 48 19.5 83.5t58.5 54.5t98 19t95.5 -20t54 -52t17.5 -70q0 -41 -14 -72.5t-43 -56.5t-73 -48l127 -165q7 31 10 69.5t3 72.5v43h188v-50h-15
q-19 0 -37.5 -3t-32.5 -16t-21 -44q-7 -30 -16.5 -63t-22.5 -67l88 -103q14 -18 33 -23t40 -5h8v-51h-176l-65 80q-19 -24 -47 -44.5t-63.5 -33t-79.5 -12.5zM289 57q40 0 71.5 20.5t51.5 49.5l-182 228q-20 -15 -32.5 -37t-18.5 -50.5t-6 -65.5q0 -70 32 -107.5t84 -37.5z
M301 448q37 24 53 55t16 78q0 39 -16 63t-46 24q-31 0 -47.5 -23.5t-16.5 -64.5q0 -23 7 -44t19.5 -42.5t30.5 -45.5z" />
    <glyph glyph-name="quotesingle" unicode="'" horiz-adv-x="259" 
d="M100 448l-41 266h140l-40 -266h-59z" />
    <glyph glyph-name="parenleft" unicode="(" horiz-adv-x="353" 
d="M325 -137q-98 44 -159 107.5t-89 150t-28 197.5q0 110 28 196t89 149.5t159 105.5v-58q-40 -31 -65.5 -74t-39.5 -94.5t-19.5 -108.5t-5.5 -116q0 -60 5.5 -117t19.5 -109t39.5 -95t65.5 -74v-60z" />
    <glyph glyph-name="parenright" unicode=")" horiz-adv-x="353" 
d="M28 -77q40 31 65.5 74t39.5 94.5t19.5 109t5.5 117.5q0 59 -5.5 116t-19.5 108.5t-39.5 94.5t-65.5 74v58q99 -42 159.5 -105.5t88.5 -149.5t28 -196q0 -111 -28 -197.5t-88.5 -150t-159.5 -107.5v60z" />
    <glyph glyph-name="asterisk" unicode="*" horiz-adv-x="431" 
d="M168 366l29 165l-127 -106l-40 94l135 44l-135 44l40 94l128 -106l-30 165h99l-32 -163l128 102l40 -93l-134 -43l134 -43l-40 -93l-128 103l31 -164h-98z" />
    <glyph glyph-name="plus" unicode="+" horiz-adv-x="467" 
d="M198 142v182h-153v67h153v182h70v-182h154v-67h-154v-182h-70z" />
    <glyph glyph-name="comma" unicode="," horiz-adv-x="260" 
d="M42 -105q25 10 41 21.5t24.5 26t8.5 32.5q0 14 -9 22t-21.5 16t-22 23t-9.5 43q0 31 19.5 47.5t46.5 16.5q37 0 56.5 -28.5t19.5 -78.5q0 -62 -35 -113.5t-119 -76.5v49z" />
    <glyph glyph-name="hyphen" unicode="-" horiz-adv-x="270" 
d="M22 223v99h227v-99h-227z" />
    <glyph glyph-name="period" unicode="." horiz-adv-x="260" 
d="M130 -8q-30 0 -51.5 16.5t-21.5 59.5t21.5 59t51.5 16q29 0 50.5 -16t21.5 -59t-21.5 -59.5t-50.5 -16.5z" />
    <glyph glyph-name="slash" unicode="/" horiz-adv-x="251" 
d="M0 -121l189 881h62l-187 -881h-64z" />
    <glyph glyph-name="zero" unicode="0" horiz-adv-x="489" 
d="M244 -10q-80 0 -127 44.5t-67.5 127.5t-20.5 197q0 113 20 194.5t67.5 126t128.5 44.5q78 0 124.5 -44t68 -126t21.5 -196q0 -113 -22 -195.5t-68.5 -127.5t-124.5 -45zM244 51q32 0 48.5 36.5t22 105t5.5 165.5t-5.5 165t-21.5 104t-48 36q-31 0 -48 -36t-23 -104
t-6 -165t6 -165.5t22.5 -105t47.5 -36.5z" />
    <glyph glyph-name="one" unicode="1" horiz-adv-x="489" 
d="M76 0v51h65q17 0 30 5t20.5 19.5t7.5 41.5v503q-32 -44 -59 -70.5t-54 -26.5q-21 0 -36 18.5t-15 50.5q27 8 59 24t76 52l61 50h100v-601q0 -23 7 -38t20 -21.5t31 -6.5h51v-51h-364z" />
    <glyph glyph-name="two" unicode="2" horiz-adv-x="489" 
d="M33 0v91l128 158q53 64 82.5 112.5t41.5 93t12 93.5q0 40 -8.5 66t-23.5 38.5t-36 12.5q-29 0 -47 -18.5t-26 -54.5t-8 -90q-29 0 -54.5 7.5t-41 25.5t-15.5 51q0 36 21 67t64 51t107 20q67 0 112 -21.5t68 -60.5t23 -90q0 -39 -11 -75.5t-32.5 -73t-53.5 -74.5t-74 -82
l-133 -143h192q26 0 45.5 17.5t26.5 51.5l8 29h53l-4 -202h-416z" />
    <glyph glyph-name="three" unicode="3" horiz-adv-x="489" 
d="M217 -10q-68 0 -110 16.5t-61 45t-19 62.5q0 37 24 56t56 19q0 -62 29.5 -97.5t77.5 -35.5q27 0 50.5 13.5t38 45.5t14.5 88q0 62 -33 100t-98 38h-53v58h57q38 0 61 18.5t34 52t11 78.5q0 55 -18.5 86t-52.5 31q-30 0 -47.5 -21.5t-25 -56t-7.5 -74.5q-46 0 -75.5 17
t-29.5 60q0 35 21 65.5t63.5 49.5t106.5 19q93 0 147 -42.5t54 -122.5q0 -45 -17 -80.5t-46.5 -60t-67.5 -38.5q28 -5 55 -17.5t49 -33.5t35.5 -52t13.5 -75q0 -59 -19.5 -100t-53 -65.5t-76 -35.5t-88.5 -11z" />
    <glyph glyph-name="four" unicode="4" horiz-adv-x="489" 
d="M155 0v51h25q20 0 36 5t25.5 20.5t9.5 46.5v65h-239v57l242 469h128v-462h88v-64h-88v-65q0 -31 9.5 -46.5t26 -20.5t35.5 -5h12v-51h-310zM81 252h170v182q0 29 0.5 60.5t2 63t3.5 62.5q-5 -14 -13.5 -34t-18.5 -41.5t-19.5 -42t-16.5 -35.5z" />
    <glyph glyph-name="five" unicode="5" horiz-adv-x="489" 
d="M214 -10q-65 0 -104.5 17.5t-57.5 45t-18 56.5q0 33 20 50.5t51 17.5q0 -29 9 -57.5t30 -46.5t56 -18q29 0 53 15t38.5 51t14.5 98q0 76 -30.5 114t-85.5 38q-31 0 -54 -7t-44 -14l-32 17l30 347h323l4 -175h-52l-8 29q-3 15 -6.5 24.5t-11 14t-21.5 4.5h-180l-16 -194
q10 5 26 8.5t34.5 5.5t34.5 2q69 0 120 -23.5t78.5 -71t27.5 -119.5q0 -49 -13.5 -87t-37 -65t-53 -44t-62 -25t-63.5 -8z" />
    <glyph glyph-name="six" unicode="6" horiz-adv-x="489" 
d="M256 -10q-65 0 -114 37t-76.5 113.5t-27.5 196.5q0 90 15 161.5t45 122t75 77t105 26.5q57 0 92.5 -15.5t52.5 -40.5t17 -53q0 -32 -22.5 -53t-75.5 -21q0 36 -7 64t-22 45t-39 17q-33 0 -55.5 -31.5t-35 -92.5t-16.5 -148q14 10 30 20t37.5 16t49.5 6q79 0 127 -55
t48 -152q0 -70 -23 -124.5t-68 -85t-112 -30.5zM257 52q23 0 39.5 17.5t25 54.5t8.5 96q0 83 -21 120t-57 37q-18 0 -34 -7t-28.5 -16.5t-22.5 -19.5q1 -145 23.5 -213.5t66.5 -68.5z" />
    <glyph glyph-name="seven" unicode="7" horiz-adv-x="489" 
d="M102 0l232 611h-182q-23 0 -35 -13t-15 -39l-6 -49h-55l5 204h405v-45l-229 -669h-120z" />
    <glyph glyph-name="eight" unicode="8" horiz-adv-x="489" 
d="M239 -10q-73 0 -120.5 25.5t-70 67t-22.5 91.5q0 52 18 87.5t48 60t67 41.5q-34 21 -59.5 46t-39.5 57.5t-14 77.5q0 49 20.5 90t65.5 65.5t118 24.5q62 0 104.5 -22t63.5 -59t21 -84q0 -67 -30.5 -106t-84.5 -66q47 -26 77.5 -54t46 -63.5t15.5 -85.5q0 -88 -59 -141
t-165 -53zM243 47q41 0 65.5 31.5t24.5 88.5q0 33 -13.5 61t-41 53t-69.5 49q-30 -24 -46.5 -61t-16.5 -89q0 -65 27 -99t70 -34zM268 416q19 14 31 33t18.5 45.5t6.5 61.5q0 30 -8.5 55.5t-25.5 40.5t-43 15q-37 0 -55.5 -29t-18.5 -78q0 -36 11 -62t33 -45.5t51 -36.5z
" />
    <glyph glyph-name="nine" unicode="9" horiz-adv-x="489" 
d="M199 -10q-52 0 -84 14.5t-46.5 38t-14.5 49.5q0 22 11.5 40t37.5 24q9 -29 21 -53t32 -38t50 -14q56 0 84 72t33 216q-13 -17 -30 -31t-39.5 -22t-52.5 -8q-50 0 -88.5 23.5t-60.5 69.5t-22 113q0 71 24 125t68.5 84.5t107.5 30.5q64 0 113.5 -34t78.5 -108t29 -195
q0 -86 -14.5 -158.5t-44.5 -126t-78 -83t-115 -29.5zM238 343q31 1 51 18.5t34 41.5q0 94 -10.5 150.5t-29.5 82t-46 25.5q-25 0 -43 -19t-27 -57.5t-9 -96.5q0 -70 20 -107t60 -38z" />
    <glyph glyph-name="colon" unicode=":" horiz-adv-x="263" 
d="M132 390q-31 0 -52 16.5t-21 58.5q0 43 21 59t52 16q28 0 50 -16t22 -59q0 -42 -22 -58.5t-50 -16.5zM132 -8q-31 0 -52 16.5t-21 59.5t21 59t52 16q28 0 50 -16t22 -59t-22 -59.5t-50 -16.5z" />
    <glyph glyph-name="semicolon" unicode=";" horiz-adv-x="263" 
d="M47 -105q25 10 42 21.5t25 25.5t8 33q0 14 -9 22t-21.5 16t-22 23t-9.5 43q0 31 19 47.5t46 16.5q38 0 57.5 -28.5t19.5 -78.5q0 -62 -35 -113.5t-120 -76.5v49zM132 390q-31 0 -52 16.5t-21 58.5q0 43 21 59t51 16t51.5 -16t21.5 -59q0 -42 -21.5 -58.5t-50.5 -16.5z
" />
    <glyph glyph-name="less" unicode="&#x3c;" horiz-adv-x="467" 
d="M422 104l-377 234v39l377 235v-76l-283 -179l283 -176v-77z" />
    <glyph glyph-name="equal" unicode="=" horiz-adv-x="467" 
d="M43 417v68h381v-68h-381zM43 229v68h381v-68h-381z" />
    <glyph glyph-name="greater" unicode="&#x3e;" horiz-adv-x="467" 
d="M45 104v77l282 176l-282 179v76l377 -235v-39z" />
    <glyph glyph-name="question" unicode="?" horiz-adv-x="501" 
d="M175 349q49 21 75.5 53.5t36 71.5t9.5 78q0 47 -16 80.5t-49 33.5q-25 0 -39.5 -17t-20.5 -43.5t-6 -57.5q-55 0 -91.5 16t-36.5 50q0 23 11 43.5t34.5 35t59.5 23t84 8.5q63 0 111.5 -21.5t76.5 -62t28 -98.5q0 -53 -19 -92.5t-57.5 -70t-98.5 -57.5l-15 -94h-62z
M220 -8q-31 0 -52 16.5t-21 58.5t21 58t52 16q29 0 51 -16t22 -58t-22 -58.5t-51 -16.5z" />
    <glyph glyph-name="at" unicode="@" horiz-adv-x="802" 
d="M399 -142q-71 0 -134 22t-111.5 68.5t-76 116.5t-27.5 166q0 113 33.5 202t91 152t132 96t155.5 33q92 0 159.5 -40t104.5 -113.5t37 -174.5q0 -71 -15 -128.5t-39.5 -97.5t-56 -61.5t-64.5 -21.5q-38 0 -65.5 21.5t-41.5 72.5h-5q-12 -26 -29 -47.5t-40 -34t-55 -12.5
q-37 0 -67.5 19t-48 57t-17.5 95q0 47 14 96t42 91t71 68t102 26q27 0 52.5 -9.5t37.5 -20.5l35 21h28l-38 -246q-2 -13 -3.5 -27t-2 -26t-0.5 -20q0 -42 13.5 -57t26.5 -15q17 0 35 16.5t33.5 48t25 79t9.5 110.5q0 92 -31.5 154.5t-86.5 95t-126 32.5q-63 0 -122 -30.5
t-105 -87.5t-73.5 -137t-27.5 -181q0 -110 35.5 -180.5t99 -104t145.5 -33.5q51 0 94 12t78.5 31t62.5 40l21 -40q-32 -25 -70.5 -47t-86 -35.5t-108.5 -13.5zM382 131q18 0 31.5 10t22.5 27t15.5 37.5t9.5 41.5l36 212q-5 13 -19.5 21t-29.5 8q-32 0 -55.5 -25.5t-38 -65.5
t-21.5 -83.5t-7 -78.5q0 -55 15.5 -79.5t40.5 -24.5z" />
    <glyph glyph-name="A" unicode="A" horiz-adv-x="660" 
d="M4 0v51h10q16 0 28 5.5t22.5 21.5t19.5 46l188 590h125l185 -606q7 -21 16.5 -34t22.5 -18t29 -5h10v-51h-292v51h29q19 0 30.5 8.5t11.5 27.5q0 8 -1.5 17t-3.5 18t-5 16l-28 98h-210l-24 -85q-2 -8 -4.5 -19t-4.5 -22t-2 -20q0 -18 9.5 -28.5t32.5 -10.5h34v-51h-228z
M210 295h173l-51 189q-6 24 -12.5 46.5t-11.5 44.5t-9 42q-4 -20 -9.5 -41.5l-11 -43t-12.5 -43.5z" />
    <glyph glyph-name="B" unicode="B" horiz-adv-x="587" 
d="M23 0v51h39q13 0 22 4.5t14.5 18.5t5.5 43v481q0 29 -5 42.5t-15 18t-22 4.5h-39v51h257q125 0 188 -44t63 -136q0 -44 -14 -73.5t-38.5 -48.5t-57.5 -31v-5q40 -10 71 -34t48 -60.5t17 -85.5q0 -98 -63.5 -147t-187.5 -49h-283zM301 59q58 0 81.5 31t23.5 108
q0 50 -9.5 82.5t-32 48.5t-61.5 16h-57v-286h55zM277 403q40 0 62 14t31.5 42.5t9.5 72.5q0 70 -23.5 96.5t-80.5 26.5h-30v-252h31z" />
    <glyph glyph-name="C" unicode="C" horiz-adv-x="587" 
d="M345 -10q-98 0 -164.5 46t-99.5 128.5t-33 193.5q0 109 34 191.5t101.5 128.5t166.5 46q67 0 111.5 -16t67 -42t22.5 -58q0 -36 -28 -59t-83 -23q0 33 -9 64t-30.5 51.5t-58.5 20.5q-53 0 -84.5 -36t-45 -104t-13.5 -164q0 -98 17 -164t54.5 -98.5t98.5 -32.5
q46 0 77.5 14.5t53.5 37t37 45.5q6 -6 10 -18t4 -23q0 -20 -10 -42.5t-33 -42t-63 -32t-100 -12.5z" />
    <glyph glyph-name="D" unicode="D" horiz-adv-x="671" 
d="M24 0v51h34q14 0 24.5 6t16.5 20t6 37v488q0 25 -7 38t-18 18t-27 5h-29v51h289q97 0 166.5 -39.5t107 -116.5t37.5 -191q0 -109 -35 -192t-104 -129t-172 -46h-289zM293 60q59 0 98.5 36.5t60 105.5t20.5 165q0 97 -20.5 161t-60 95.5t-97.5 31.5h-47v-595h46z" />
    <glyph glyph-name="E" unicode="E" horiz-adv-x="571" 
d="M24 0v51h33q15 0 25.5 5.5t16.5 18.5t6 34v491q0 28 -7 41.5t-18 17.5t-25 4h-31v51h488l3 -182h-63l-4 46q-1 24 -8 41.5t-21 26.5t-37 9h-135v-253h207v-57h-207v-286h159q23 0 37 10t22 27.5t11 39.5l6 46h63l-6 -182h-515z" />
    <glyph glyph-name="F" unicode="F" horiz-adv-x="544" 
d="M24 0v51h23q20 0 32.5 5t19 17t6.5 35v496q0 24 -6.5 36.5t-17.5 17.5t-25 5h-32v51h486l5 -182h-62l-5 47q-4 38 -20.5 57t-42.5 19h-138v-276h207v-57h-207v-211q0 -23 6.5 -36t19 -18.5t31.5 -5.5h42v-51h-322z" />
    <glyph glyph-name="G" unicode="G" horiz-adv-x="674" 
d="M371 -10q-109 0 -180.5 46t-107 128.5t-35.5 193.5q0 108 37 190.5t109.5 129t180.5 46.5q72 0 121 -15t74 -41t25 -59q0 -34 -28.5 -58t-85.5 -24q0 39 -11.5 69.5t-36 48t-61.5 17.5q-61 0 -99.5 -34.5t-56 -102t-17.5 -167.5q0 -98 18 -165.5t58.5 -103t108.5 -35.5
q14 0 30 2t30 7v151q0 27 -6 42.5t-19.5 21.5t-33.5 6h-13v50h271v-50h-7q-18 0 -28.5 -6.5t-15.5 -22.5t-5 -45v-168q-51 -26 -103.5 -39t-112.5 -13z" />
    <glyph glyph-name="H" unicode="H" horiz-adv-x="715" 
d="M24 0v51h34q14 0 24.5 6t16.5 19.5t6 34.5v491q0 24 -7 37.5t-19 18.5t-27 5h-28v51h293v-51h-25q-13 0 -23.5 -5t-15.5 -18t-5 -36v-202h221v200q0 24 -5.5 37.5t-16.5 18.5t-27 5h-21v51h293v-51h-34q-14 0 -24.5 -5t-16.5 -18.5t-6 -37.5v-491q0 -22 6 -35.5t17 -19
t24 -5.5h34v-51h-293v51h22q15 0 26 6t16.5 20t5.5 38v229h-221v-233q0 -21 5 -34.5t15.5 -19.5t23.5 -6h25v-51h-293z" />
    <glyph glyph-name="I" unicode="I" horiz-adv-x="352" 
d="M24 0v51h34q12 0 23 5t17.5 18t6.5 36v491q0 25 -6.5 38t-17.5 18.5t-23 5.5h-34v51h305v-51h-35q-14 0 -24.5 -5.5t-16.5 -18.5t-6 -39v-489q0 -22 6.5 -35.5t17 -19t23.5 -5.5h35v-51h-305z" />
    <glyph glyph-name="J" unicode="J" horiz-adv-x="351" 
d="M-17 -240v56h16q28 0 53 16.5t41 56t16 106.5v609q0 23 -7 36t-17.5 18t-22.5 5h-34v51h305v-51h-34q-12 0 -23 -5.5t-17.5 -18.5t-6.5 -38v-605q0 -67 -20 -112.5t-53.5 -73t-75.5 -39t-86 -11.5h-34z" />
    <glyph glyph-name="K" unicode="K" horiz-adv-x="643" 
d="M24 0v51h39q12 0 21 4t14.5 17t5.5 40v489q0 28 -5.5 41t-14.5 17t-21 4h-39v51h304v-51h-39q-12 0 -21.5 -4.5t-15 -18.5t-5.5 -43v-243l132 183q18 24 28.5 41.5t16 31.5t5.5 27q0 16 -11 21.5t-39 5.5v50h239v-50q-24 0 -45 -10.5t-41 -30.5t-40 -47l-115 -150
l163 -295q16 -30 31 -47.5t31 -25t36 -7.5h4v-51h-54q-48 0 -79.5 5.5t-52 17t-33 29t-23.5 42.5l-117 232l-36 -43v-166q0 -29 5.5 -43t15 -18.5t21.5 -4.5h39v-51h-304z" />
    <glyph glyph-name="L" unicode="L" horiz-adv-x="572" 
d="M24 0v51h34q12 0 23 5t17.5 18t6.5 36v492q0 24 -7 37.5t-18.5 18.5t-26.5 5h-29v51h305v-51h-32q-17 0 -28 -5t-16 -17.5t-5 -35.5v-546h161q20 0 34 9.5t23.5 29t14.5 48.5l15 75h49l-6 -221h-515z" />
    <glyph glyph-name="M" unicode="M" horiz-adv-x="830" 
d="M24 0v51h22q18 0 31 5t20.5 18.5t7.5 37.5v490q0 24 -7 37.5t-18 18.5t-25 5h-31v51h255l137 -502l133 502h258v-51h-34q-12 0 -22.5 -5t-17 -18t-6.5 -36v-494q0 -23 6 -36t18 -18t28 -5h28v-51h-286v51h11q20 0 32 5.5t17.5 20t6.5 39.5v504l-168 -620h-75l-174 620
v-503q0 -29 8 -43t22.5 -18.5t34.5 -4.5h7v-51h-219z" />
    <glyph glyph-name="N" unicode="N" horiz-adv-x="688" 
d="M24 0v51h22q18 0 31 4.5t20.5 18.5t7.5 43v484q0 28 -7.5 41t-19.5 17t-26 4h-28v51h209l294 -513v400q0 25 -7 38.5t-18.5 18.5t-26.5 5h-28v51h228v-51h-28q-16 0 -28 -5.5t-18.5 -19.5t-6.5 -41v-597h-95l-328 563v-446q0 -29 6 -43t18 -18.5t28 -4.5h29v-51h-228z
" />
    <glyph glyph-name="O" unicode="O" horiz-adv-x="689" 
d="M345 -10q-100 0 -166 46t-98.5 129t-32.5 194t32.5 193t99 127.5t166.5 45.5q95 0 160.5 -45.5t100 -128t34.5 -193.5t-34 -193.5t-100 -128.5t-162 -46zM345 53q54 0 86 36t45.5 104.5t13.5 164.5q0 97 -13.5 164.5t-45.5 103.5t-85 36q-79 0 -113 -79.5t-34 -224.5
q0 -96 14.5 -164.5t47 -104.5t84.5 -36z" />
    <glyph glyph-name="P" unicode="P" horiz-adv-x="559" 
d="M24 0v51h26q15 0 27.5 4.5t20 18.5t7.5 43v484q0 28 -7.5 41t-19 17t-25.5 4h-29v51h276q126 0 186 -54t60 -158q0 -47 -14.5 -88t-46 -73t-82 -49.5t-123.5 -17.5h-32v-162q0 -27 7 -40t19 -17t26 -4h45v-51h-321zM272 329q33 0 56.5 9.5t38.5 30t22.5 52.5t7.5 77
q0 82 -27 120.5t-85 38.5h-38v-328h25z" />
    <glyph glyph-name="Q" unicode="Q" horiz-adv-x="689" 
d="M504 -234q-39 0 -77.5 12.5t-70 38.5t-52 70.5t-24.5 107.5q-78 13 -129.5 61.5t-77 126t-25.5 176.5q0 111 32.5 193t99 127.5t166.5 45.5q95 0 160.5 -45.5t100 -128t34.5 -193.5q0 -94 -24 -168.5t-71 -123t-116 -67.5q3 -54 15 -89t29.5 -54t38.5 -26.5t43 -7.5h13
v-56h-65zM345 53q81 0 113 80.5t32 224.5q0 96 -13.5 164t-45.5 104t-85 36t-85.5 -36t-47 -104t-14.5 -164t14.5 -164.5t46.5 -104.5t85 -36z" />
    <glyph glyph-name="R" unicode="R" horiz-adv-x="625" 
d="M24 0v51h25q14 0 27 4t21 17t8 40v489q0 28 -8.5 41t-21.5 17t-26 4h-25v51h285q90 0 144.5 -21.5t79 -64t24.5 -103.5q0 -56 -17 -93.5t-46 -59.5t-62 -33l107 -205q22 -43 40.5 -63t42.5 -20h5v-51h-30q-50 0 -86.5 7t-62 26.5t-42.5 56.5l-102 221h-56v-199
q0 -27 6.5 -40t18.5 -17t27 -4h17v-51h-293zM292 366q61 0 87.5 38.5t26.5 112.5q0 49 -12 80t-37 45.5t-64 14.5h-45v-291h44z" />
    <glyph glyph-name="S" unicode="S" horiz-adv-x="506" 
d="M239 -10q-61 0 -101.5 12t-64.5 32t-34 44.5t-10 49.5q0 32 13.5 51.5t35.5 28.5t47 9q1 -56 19 -94t47 -57t63 -19q50 0 77 31.5t27 78.5q0 37 -17 62.5t-50 47t-81 43.5q-61 30 -96.5 62t-51.5 72t-16 89q0 59 29 101.5t78.5 66t110.5 23.5q64 0 105.5 -17.5t62 -45
t20.5 -56.5q0 -35 -24.5 -55t-80.5 -20q0 34 -11 65t-32.5 51t-55.5 20q-39 0 -62.5 -25t-23.5 -72q0 -29 11.5 -53t43.5 -47t91 -51q61 -27 97.5 -58.5t53 -70.5t16.5 -89q0 -65 -29 -112t-82 -72.5t-125 -25.5z" />
    <glyph glyph-name="T" unicode="T" horiz-adv-x="572" 
d="M128 0v51h24q18 0 32 4.5t22 18.5t8 43v538h-68q-38 0 -53 -20t-19 -53l-7 -58h-59l4 190h548l4 -190h-59l-6 58q-4 33 -19 53t-54 20h-68v-538q0 -29 8 -43t22 -18.5t32 -4.5h24v-51h-316z" />
    <glyph glyph-name="U" unicode="U" horiz-adv-x="653" 
d="M333 -10q-70 0 -124 23t-83.5 73t-29.5 132v383q0 28 -8.5 41t-22 17t-31.5 4h-20v51h305v-51h-19q-17 0 -31 -4.5t-22.5 -18t-8.5 -43.5v-387q0 -85 34.5 -118t94.5 -33q38 0 65.5 17.5t43 52t15.5 84.5v388q0 28 -8 41t-21.5 17t-31.5 4h-19v51h228v-51h-20
q-17 0 -31 -4.5t-22.5 -18t-8.5 -43.5v-386q0 -67 -23.5 -116.5t-73 -77t-127.5 -27.5z" />
    <glyph glyph-name="V" unicode="V" horiz-adv-x="610" 
d="M74 615q-5 19 -13 29.5t-18 14.5t-22 4h-21v51h286v-51h-33q-17 0 -26.5 -7.5t-9.5 -22.5q0 -7 2 -16t4.5 -17.5t4.5 -17.5l82 -309q5 -19 10 -41.5t9.5 -44t7.5 -41.5q4 19 8.5 39.5t10 42t11.5 43.5l85 303q4 11 6.5 22t4.5 20.5t2 16.5q0 15 -9 22.5t-28 7.5h-38v51
h220v-51h-24q-15 0 -25 -5.5t-18 -21t-17 -46.5l-173 -590h-99z" />
    <glyph glyph-name="W" unicode="W" horiz-adv-x="931" 
d="M73 610q-5 22 -13 33.5t-20 15.5t-29 4h-11v51h295v-51h-21q-26 0 -38.5 -10.5t-12.5 -32.5q0 -8 2.5 -24.5t5.5 -30.5l53 -234q7 -26 14.5 -60t13.5 -66.5t8 -55.5q5 34 13.5 64.5t16.5 62.5l114 431h69l118 -393q14 -48 26.5 -93.5t16.5 -72.5q4 24 9 52.5t10 59
t12 62.5l50 250q1 10 2.5 26t1.5 23q0 24 -13.5 33t-42.5 9h-20v51h229v-51h-17q-17 0 -29 -5.5t-21 -22.5t-16 -50l-130 -585h-113l-138 476l-124 -476h-121z" />
    <glyph glyph-name="X" unicode="X" horiz-adv-x="644" 
d="M8 0v51h6q21 0 36 7.5t27.5 23.5t27.5 38l152 233l-144 257q-9 19 -18.5 30.5t-22.5 17t-33 5.5h-12v51h294v-51h-5q-29 0 -39 -9t-10 -21q0 -10 6.5 -26t16.5 -32l72 -131l74 129q9 15 17 32t8 30q0 17 -14 22.5t-34 5.5h-4v51h204v-51h-8q-16 0 -29.5 -6.5t-26.5 -22
t-29 -43.5l-126 -203l159 -284q12 -20 24 -32t23.5 -16.5t22.5 -4.5h11v-51h-292v51h4q26 0 39.5 8.5t13.5 24.5q0 11 -5 23.5t-24 45.5l-80 145l-92 -148q-6 -10 -12 -21t-9 -22.5t-3 -22.5q0 -16 11.5 -24.5t40.5 -8.5h3v-51h-221z" />
    <glyph glyph-name="Y" unicode="Y" horiz-adv-x="609" 
d="M143 0v51h26q20 0 34.5 5t22.5 20t8 43v149l-160 342q-9 20 -16.5 31.5t-18 16.5t-27.5 5h-12v51h296v-51h-13q-26 0 -39.5 -11.5t-13.5 -30.5q0 -11 3.5 -26t9.5 -28l65 -139q13 -29 21.5 -52.5t15.5 -46.5q9 24 21.5 53t25.5 61l50 113q9 21 12.5 37t3.5 24
q0 26 -14.5 36t-43.5 10h-19v51h229v-51h-10q-15 0 -26 -6.5t-21.5 -23t-25.5 -47.5l-148 -318v-148q0 -29 8 -44t21 -20t29 -5h33v-51h-327z" />
    <glyph glyph-name="Z" unicode="Z" horiz-adv-x="586" 
d="M36 0v48l329 607h-171q-42 0 -55.5 -24.5t-16.5 -63.5l-4 -52h-65l5 199h470v-49l-329 -606h186q37 0 56.5 14t27.5 36t10 46l4 44h64l-4 -199h-507z" />
    <glyph glyph-name="bracketleft" unicode="[" horiz-adv-x="365" 
d="M87 -128v888h246v-51h-37q-19 0 -35.5 -5t-26.5 -20t-10 -47v-642q0 -31 9.5 -46.5t26.5 -20.5t36 -5h37v-51h-246z" />
    <glyph glyph-name="backslash" unicode="\" horiz-adv-x="251" 
d="M187 -121l-187 881h63l188 -881h-64z" />
    <glyph glyph-name="bracketright" unicode="]" horiz-adv-x="365" 
d="M33 -128v51h37q20 0 36 5t25.5 20.5t9.5 46.5v642q0 32 -9.5 47t-25.5 20t-36 5h-37v51h245v-888h-245z" />
    <glyph glyph-name="asciicircum" unicode="^" horiz-adv-x="461" 
d="M31 271l180 443h38l181 -443h-69l-132 338l-130 -338h-68z" />
    <glyph glyph-name="underscore" unicode="_" horiz-adv-x="399" 
d="M-5 -142v59h409v-59h-409z" />
    <glyph glyph-name="grave" unicode="`" horiz-adv-x="308" 
d="M206 606q-21 14 -46 33.5t-49.5 41.5t-43.5 42t-27 33v10h141q9 -22 24.5 -49t32.5 -53t30 -45v-13h-62z" />
    <glyph glyph-name="a" unicode="a" horiz-adv-x="526" 
d="M175 -10q-38 0 -69 17.5t-49.5 54t-18.5 91.5q0 81 48.5 119t146.5 42l71 3v57q0 37 -5 62.5t-17.5 39.5t-35.5 14q-21 0 -34 -13t-18.5 -37t-5.5 -58q-57 0 -85 15.5t-28 49.5q0 35 24.5 57.5t65.5 33t92 10.5q92 0 138.5 -38t46.5 -132v-256q0 -28 5 -43t16.5 -21.5
t31.5 -6.5h3v-51h-167l-18 72h-8q-19 -26 -36 -44.5t-39 -28t-55 -9.5zM226 57q25 0 42.5 17t27 47.5t9.5 69.5v77l-37 -3q-33 -3 -53 -16.5t-28 -38.5t-8 -62q0 -29 5 -49.5t15.5 -31t26.5 -10.5z" />
    <glyph glyph-name="b" unicode="b" horiz-adv-x="568" 
d="M350 -10q-51 0 -83 24.5t-52 63.5h-6l-27 -78h-168v51h6q17 0 32 5t24.5 20t9.5 46v520q0 29 -8.5 43.5t-24 19t-34.5 4.5h-5v51h210v-173q0 -18 -0.5 -41.5t-2 -45.5t-3.5 -37h4q19 37 50.5 60.5t82.5 23.5q83 0 128 -66.5t45 -210.5q0 -97 -21 -159t-60.5 -91.5
t-96.5 -29.5zM311 60q42 0 60 54.5t18 157.5q0 105 -18.5 156t-60.5 51q-50 0 -68 -52t-18 -156q0 -68 7.5 -115t26.5 -71.5t53 -24.5z" />
    <glyph glyph-name="c" unicode="c" horiz-adv-x="462" 
d="M258 -10q-64 0 -113.5 26.5t-77 87.5t-27.5 162q0 108 28.5 169.5t77.5 87t109 25.5q61 0 99.5 -13.5t57 -37t18.5 -53.5q0 -22 -9 -40t-34 -29t-73 -11q0 34 -5 62.5t-17 46t-33 17.5q-24 0 -42 -20t-28 -68t-10 -135q0 -68 10.5 -114.5t34 -70t60.5 -23.5q30 0 53.5 11
t41 30t26.5 41q12 -7 18 -17.5t6 -25.5q0 -24 -16 -49t-53 -42t-102 -17z" />
    <glyph glyph-name="d" unicode="d" horiz-adv-x="568" 
d="M216 -10q-57 0 -96.5 29t-60 90.5t-20.5 157.5q0 97 20.5 159t60 91.5t95.5 29.5q49 0 78.5 -22t47.5 -56h5q-2 24 -2 53v58v66q0 28 -10 41.5t-26 17.5t-34 4h-8v51h215v-634q0 -30 8 -46.5t22.5 -22.5t34.5 -6h8v-51h-176l-22 81h-4q-20 -42 -52.5 -66.5t-83.5 -24.5z
M256 60q49 0 68.5 53.5t19.5 154.5q0 102 -18.5 156.5t-69.5 54.5q-27 0 -44.5 -24.5t-25.5 -71.5t-8 -116q0 -104 18 -155.5t60 -51.5z" />
    <glyph glyph-name="e" unicode="e" horiz-adv-x="501" 
d="M268 -10q-113 0 -170.5 72.5t-57.5 202.5q0 141 57.5 212t160.5 71q96 0 151 -61t55 -180v-48h-285q2 -103 32.5 -151t89.5 -48q45 0 73 24.5t43 59.5q12 -4 21 -14.5t9 -27.5q0 -24 -18 -50.5t-57.5 -44t-103.5 -17.5zM328 319q0 78 -15.5 123t-51.5 45t-57.5 -43.5
t-22.5 -124.5h147z" />
    <glyph glyph-name="f" unicode="f" horiz-adv-x="357" 
d="M16 0v51h20q12 0 26.5 4.5t24.5 18.5t10 43v354h-77v65h77v39q0 93 43 143.5t138 50.5q56 0 86.5 -10t42 -26.5t11.5 -35.5q0 -18 -8.5 -33.5t-30 -24.5t-58.5 -9q0 18 -3.5 37.5t-11.5 33.5t-24 14q-25 0 -36.5 -29t-11.5 -94v-56h120v-65h-120v-354q0 -29 9.5 -43
t24 -18.5t27.5 -4.5h41v-51h-320z" />
    <glyph glyph-name="g" unicode="g" horiz-adv-x="489" 
d="M206 -236q-104 0 -155 36t-51 102q0 36 15 62t42 42t61 20q-24 10 -45 29t-21 53q0 33 22 57t58 44q-41 17 -68.5 56.5t-27.5 97.5q0 88 46.5 136.5t143.5 48.5q34 0 60 -7.5t47 -21.5q13 14 26.5 27t30.5 22t39 9q29 0 43.5 -17t14.5 -40q0 -24 -13 -41.5t-46 -17.5
q0 21 -10 32t-21 11q-10 0 -17.5 -4t-14.5 -8q19 -20 33 -49.5t14 -74.5q0 -79 -45 -128.5t-141 -49.5q-10 0 -26 1t-24 4q-11 -7 -21 -21.5t-10 -33.5t12.5 -27.5t33.5 -8.5h100q59 0 96 -18.5t55.5 -52t18.5 -79.5q0 -88 -62.5 -139t-192.5 -51zM208 -179q50 0 82 13
t47.5 36.5t15.5 53.5q0 33 -17 49t-52 16h-102q-17 0 -34.5 -7t-29.5 -25.5t-12 -51.5q0 -26 12.5 -45t35.5 -29t54 -10zM224 246q27 0 41 14t19.5 41t5.5 64q0 39 -5.5 67.5t-20 43.5t-40.5 15q-25 0 -39.5 -15.5t-20.5 -44t-6 -67.5q0 -54 14 -86t52 -32z" />
    <glyph glyph-name="h" unicode="h" horiz-adv-x="584" 
d="M17 0v51h5q19 0 33 4.5t22.5 19.5t8.5 45v527q0 28 -10.5 41t-24.5 17t-26 4h-11v51h210v-184q0 -22 -1 -43.5t-2 -39t-1 -27.5h6q10 22 27 40.5t42.5 30t61.5 11.5q72 0 108 -46t36 -148v-232q0 -31 6 -46t19 -20t32 -5h3v-51h-198v332q0 65 -14.5 100.5t-51.5 35.5
q-28 0 -44 -21.5t-22.5 -57t-6.5 -77.5v-196q0 -28 7 -42t20.5 -18.5t32.5 -4.5h3v-51h-270z" />
    <glyph glyph-name="i" unicode="i" horiz-adv-x="309" 
d="M14 0v51h10q19 0 32.5 5.5t21.5 21t8 44.5v296q0 27 -8 41.5t-21.5 20t-30.5 5.5h-13v51h209v-414q0 -28 8 -44t22 -21.5t32 -5.5h10v-51h-280zM150 630q-32 0 -54 16.5t-22 51.5q0 36 22 52t54 16q31 0 54 -15.5t23 -52.5q0 -35 -23 -51.5t-54 -16.5z" />
    <glyph glyph-name="j" unicode="j" horiz-adv-x="307" 
d="M-16 -240v59h6q32 0 54 16t33.5 55.5t11.5 107.5v421q0 29 -9 43t-24.5 18.5t-34.5 4.5h-4v51h209v-544q0 -89 -29 -140t-79 -71.5t-116 -20.5h-18zM154 630q-32 0 -54.5 16.5t-22.5 51.5q0 36 22.5 52t54.5 16q31 0 54.5 -15.5t23.5 -52.5q0 -35 -23.5 -51.5
t-54.5 -16.5z" />
    <glyph glyph-name="k" unicode="k" horiz-adv-x="559" 
d="M14 0v51h12q12 0 26 4.5t24 18.5t10 43v530q0 28 -10 41t-24.5 17t-25.5 4h-12v51h210v-383q0 -13 -0.5 -30.5t-1.5 -34.5t-1.5 -30t-0.5 -17l107 142q11 14 16 24t6.5 17.5t1.5 11.5q0 13 -11.5 20.5t-33.5 7.5v48h221v-48q-15 0 -30 -5.5t-29.5 -16t-30.5 -27
t-32 -38.5l-50 -66l116 -200q24 -41 43.5 -62.5t40.5 -21.5h3v-51h-12q-49 0 -81.5 4t-55 15t-39.5 31.5t-35 54.5l-72 139l-39 -48v-80q0 -28 10.5 -42t24.5 -18.5t25 -4.5h12v-51h-282z" />
    <glyph glyph-name="l" unicode="l" horiz-adv-x="310" 
d="M15 0v51h11q17 0 31 5.5t21.5 21t7.5 45.5v524q0 28 -10.5 41t-24.5 17t-26 4h-10v51h209v-638q0 -28 7.5 -44t21.5 -21.5t32 -5.5h9v-51h-279z" />
    <glyph glyph-name="m" unicode="m" horiz-adv-x="862" 
d="M16 0v51h8q20 0 33.5 4.5t21 19.5t7.5 45v302q0 28 -7.5 42.5t-21.5 19t-33 4.5h-3v48h186l12 -73h5q20 42 51.5 63.5t87.5 21.5q31 0 56 -8.5t42.5 -28t27.5 -51.5h5q18 45 52 66.5t86 21.5q70 0 109 -46t39 -148v-232q0 -31 6 -46t19 -20t32 -5h3v-51h-198v332
q0 65 -14.5 100.5t-51.5 35.5q-27 0 -43.5 -20t-24 -53t-7.5 -71v-202q0 -31 6 -46t19 -20t32 -5h3v-51h-197v332q0 65 -14 100.5t-51 35.5q-28 0 -44.5 -22t-24 -57.5t-7.5 -77.5v-195q0 -28 7.5 -42t21 -18.5t32.5 -4.5h3v-51h-271z" />
    <glyph glyph-name="n" unicode="n" horiz-adv-x="583" 
d="M16 0v51h5q20 0 34.5 4.5t22.5 19.5t8 46v299q0 28 -7.5 42t-21 18.5t-32.5 4.5h-4v51h187l12 -73h4q20 42 50.5 63.5t82.5 21.5q70 0 106.5 -46t36.5 -148v-232q0 -31 6 -46t18.5 -20t32.5 -5h4v-51h-198v333q0 64 -13.5 100t-50.5 36q-28 0 -45 -22.5t-24 -58.5t-7 -77
v-195q0 -28 7 -42t20.5 -18.5t32.5 -4.5h4v-51h-271z" />
    <glyph glyph-name="o" unicode="o" horiz-adv-x="537" 
d="M267 -10q-106 0 -166.5 69.5t-60.5 210.5q0 140 58.5 209t171.5 69q105 0 165.5 -69t60.5 -209q0 -141 -57.5 -210.5t-171.5 -69.5zM269 51q32 0 51.5 25t28 73.5t8.5 120.5q0 108 -20 162.5t-69 54.5q-48 0 -68 -54.5t-20 -162.5t20.5 -163.5t68.5 -55.5z" />
    <glyph glyph-name="p" unicode="p" horiz-adv-x="565" 
d="M11 -229v50h10q12 0 26.5 5t24.5 19t10 42v528q0 31 -7.5 46t-19.5 19.5t-28 4.5h-7v51h172l17 -78h3q19 39 51 63.5t82 24.5q87 0 133 -67t46 -212t-45.5 -212t-134.5 -67q-46 0 -75 20t-48 55h-4q2 -24 2.5 -52.5t0.5 -59.5v-64q0 -29 10.5 -43t24.5 -18.5t25 -4.5h24
v-50h-293zM306 57q43 0 61 53t18 157q0 101 -18 155.5t-60 54.5q-34 0 -53 -25t-26.5 -71.5t-7.5 -112.5q0 -70 7.5 -117t26 -70.5t52.5 -23.5z" />
    <glyph glyph-name="q" unicode="q" horiz-adv-x="567" 
d="M250 -229v50h23q20 0 35.5 4.5t25.5 18.5t10 42v68q0 19 0.5 41.5t1.5 43t2 34.5h-5q-19 -37 -49 -60t-80 -23q-83 0 -129 67t-46 211q0 97 21 158.5t62 90.5t101 29q47 0 79.5 -24t51.5 -64h5l17 78h180v-51h-6q-18 0 -34 -5t-25.5 -19.5t-9.5 -45.5v-530
q0 -28 9.5 -41.5t25.5 -18t35 -4.5h4v-50h-305zM256 58q24 0 41 13.5t27 40t15 65.5t5 90q0 70 -8 116.5t-27 69.5t-53 23q-28 0 -45 -22.5t-25 -68.5t-8 -118q0 -102 18 -155.5t60 -53.5z" />
    <glyph glyph-name="r" unicode="r" horiz-adv-x="460" 
d="M16 0v51h4q19 0 33.5 5t23 20.5t8.5 46.5v294q0 30 -7.5 44.5t-21 19t-32.5 4.5h-3v51h178l17 -100h4q14 36 31.5 60.5t42.5 37.5t59 13q49 0 71 -24t22 -62q0 -42 -29 -63.5t-82 -21.5q0 28 -3.5 46t-12 27.5t-25.5 9.5q-18 0 -31 -16.5t-22 -43.5t-13.5 -59.5
t-4.5 -64.5v-157q0 -29 7.5 -43.5t21 -19t30.5 -4.5h28v-51h-294z" />
    <glyph glyph-name="s" unicode="s" horiz-adv-x="420" 
d="M202 -10q-62 0 -101 14t-56.5 39t-17.5 58q0 27 11 42.5t29 22.5t39 7q0 -61 26 -93.5t73 -32.5q44 0 63.5 21t19.5 54q0 22 -10.5 37.5t-33 29t-59.5 28.5q-51 22 -84 44.5t-49.5 53.5t-16.5 77q0 78 51.5 116.5t135.5 38.5q54 0 87.5 -13.5t49.5 -35t16 -45.5
q0 -31 -20 -48t-61 -17q0 51 -23.5 77t-60.5 26q-32 0 -50.5 -17t-18.5 -47q0 -34 23 -53.5t82 -43.5q47 -19 79.5 -41t50 -53t17.5 -78q0 -77 -49 -122.5t-142 -45.5z" />
    <glyph glyph-name="t" unicode="t" horiz-adv-x="358" 
d="M221 -10q-66 0 -102 35t-36 122v327h-65v46q31 2 53 14.5t35 28.5q12 14 22.5 37.5t16.5 59.5h76v-124h111v-62h-111v-318q0 -47 12.5 -68t43.5 -21q17 0 33 2t30 6v-62q-14 -7 -45 -15t-74 -8z" />
    <glyph glyph-name="u" unicode="u" horiz-adv-x="584" 
d="M229 -10q-76 0 -111.5 48t-35.5 149v229q0 29 -5.5 43.5t-17 20t-33.5 5.5h-3v51h197v-326q0 -46 5.5 -77t19 -47t38.5 -16q28 0 44.5 19.5t24.5 54t8 81.5v194q0 30 -7 44t-19.5 18t-29.5 4h-3v51h196v-421q0 -29 7 -43t20.5 -17.5t29.5 -3.5h8v-51h-177l-20 73h-5
q-21 -44 -53 -63.5t-78 -19.5z" />
    <glyph glyph-name="v" unicode="v" horiz-adv-x="530" 
d="M71 437q-6 20 -14 30t-20 14t-31 4v51h267v-51h-22q-22 0 -31.5 -8.5t-9.5 -24.5q0 -12 2.5 -23.5t6.5 -22.5l56 -187q7 -22 12.5 -44t10 -42.5t6.5 -36.5q4 20 11 47.5t15 56.5l56 193q6 18 8.5 31.5t2.5 27.5q0 15 -10.5 24t-32.5 9h-13v51h189v-51h-18q-13 0 -22 -6
t-16.5 -22t-16.5 -45l-125 -412h-123z" />
    <glyph glyph-name="w" unicode="w" horiz-adv-x="745" 
d="M62 432q-5 22 -13.5 33t-20 15.5t-28.5 4.5h-3v51h259v-51h-10q-26 0 -39 -8.5t-13 -33.5q0 -8 2.5 -20t4.5 -23l29 -138q5 -24 10.5 -50t9.5 -49t6 -39h4q2 17 6 37.5t10 42t11 39.5l89 289h56l83 -296q4 -12 7.5 -27.5t6.5 -31t5 -29.5t4 -24h3q3 23 8.5 51.5
t13.5 61.5l38 149q3 13 5.5 27.5t2.5 22.5q0 26 -14 37.5t-42 11.5h-6v51h199v-51h-11q-17 0 -28 -5.5t-19.5 -22.5t-17.5 -50l-113 -407h-96l-93 350l-98 -350h-96z" />
    <glyph glyph-name="x" unicode="x" horiz-adv-x="568" 
d="M10 0v51h7q21 0 35.5 5.5t28.5 19.5t31 38l110 156l-110 162q-12 18 -24 30t-24 17.5t-27 5.5h-11v51h275v-51h-3q-27 0 -36.5 -8.5t-9.5 -20.5q0 -10 5 -20t15 -26l48 -74l39 64q10 16 17 29.5t7 26.5q0 18 -11.5 23.5t-29.5 5.5h-4v51h200v-51h-8q-16 0 -29 -5
t-25.5 -19t-31.5 -40l-91 -129l128 -189q13 -18 24.5 -30t22.5 -17t22 -5h11v-51h-281v51h4q27 0 39.5 8.5t12.5 24.5q0 11 -6 25t-27 44l-49 74l-57 -90q-8 -14 -14.5 -27t-6.5 -27q0 -16 12 -24t41 -8h3v-51h-222z" />
    <glyph glyph-name="y" unicode="y" horiz-adv-x="505" 
d="M23 -174q45 0 76.5 12t53.5 34t36.5 53t24.5 68l-155 444q-7 20 -14.5 30.5t-16.5 14t-24 3.5h-4v51h254v-51h-4q-28 0 -39.5 -9t-11.5 -26q0 -10 2.5 -23t7.5 -29l50 -161q8 -25 14 -48.5t10 -43t5 -34.5q4 25 9.5 48.5t12.5 46.5l53 190q4 11 6.5 26.5t2.5 27.5
q0 20 -12 27t-38 8h-4v51h187v-51h-3q-16 0 -27.5 -6t-21 -22t-18.5 -43l-131 -411q-22 -70 -42.5 -115t-47 -71t-68.5 -36t-108 -10h-15v55z" />
    <glyph glyph-name="z" unicode="z" horiz-adv-x="462" 
d="M14 0v41l259 433h-106q-32 0 -46 -15.5t-24 -55.5l-6 -24h-54l11 157h380v-42l-260 -432h137q36 0 51.5 18.5t23.5 63.5l6 33h52l-5 -177h-419z" />
    <glyph glyph-name="braceleft" unicode="{" horiz-adv-x="385" 
d="M276 -126q-74 0 -112.5 40t-38.5 108v171q0 39 -13 59.5t-36 28.5t-52 9v57q29 1 52 9t36 28t13 58v173q0 69 38.5 107t112.5 38h85v-51h-34q-36 0 -48.5 -25t-12.5 -73v-171q0 -46 -22.5 -75.5t-73.5 -42.5v-6q50 -14 73 -44t23 -76v-172q0 -47 12.5 -72.5t48.5 -25.5
h34v-52h-85z" />
    <glyph glyph-name="bar" unicode="|" horiz-adv-x="489" 
d="M212 -240v1000h64v-1000h-64z" />
    <glyph glyph-name="braceright" unicode="}" horiz-adv-x="385" 
d="M24 -126v52h35q37 0 49 25.5t12 72.5v172q0 46 23 76t73 44v6q-50 13 -73 42.5t-23 75.5v171q0 48 -12 73t-49 25h-35v51h85q76 0 113.5 -38t37.5 -107v-173q0 -37 14 -57.5t37 -28.5t50 -9v-57q-27 -1 -50 -9t-37 -28.5t-14 -59.5v-171q0 -68 -37.5 -108t-113.5 -40h-85
z" />
    <glyph glyph-name="asciitilde" unicode="~" horiz-adv-x="467" 
d="M26 264q1 37 7 70.5t19 59.5t35 41t56 15q20 0 36.5 -7t35 -21.5t42.5 -38.5t38 -37t31 -13q16 0 26 12t15.5 38t6.5 67h68q-1 -38 -7 -71.5t-19 -59t-34.5 -40.5t-54.5 -15q-18 0 -34.5 5.5t-35 19.5t-43.5 39q-16 19 -28 30.5t-21.5 16.5t-20.5 5q-24 0 -36.5 -27
t-14.5 -89h-67z" />
    <glyph glyph-name="uni00A0" unicode="&#xa0;" horiz-adv-x="226" 
 />
    <glyph glyph-name="exclamdown" unicode="&#xa1;" horiz-adv-x="353" 
d="M205 305l49 -485h-156l48 485h59zM174 542q32 0 53 -16.5t21 -57.5q0 -43 -21 -59t-52 -16q-30 0 -51.5 16t-21.5 59q0 42 21.5 58t50.5 16z" />
    <glyph glyph-name="cent" unicode="&#xa2;" horiz-adv-x="489" 
d="M247 84q-62 5 -107 34t-69 87.5t-24 153.5q0 99 25 159t70.5 88.5t104.5 33.5v74h55v-74q53 -3 87 -17t51 -36.5t17 -49.5q0 -15 -4 -29.5t-15.5 -26t-33.5 -18t-57 -6.5q0 42 -9 76.5t-36 45.5v-425q29 1 53.5 12t42.5 30t28 41q12 -7 17.5 -19t5.5 -26q0 -23 -16.5 -46
t-49 -40.5t-81.5 -21.5v-84h-55v84zM247 577q-21 -9 -35 -33.5t-20.5 -69t-6.5 -114.5q0 -53 6 -93t20 -65.5t36 -37.5v413z" />
    <glyph glyph-name="sterling" unicode="&#xa3;" horiz-adv-x="483" 
d="M363 -10q-29 0 -59 7t-50 15q-21 9 -45 15.5t-41 6.5q-29 0 -51.5 -7.5t-44.5 -20.5l-42 -23v84l29 21q18 12 35.5 31.5t29.5 50t12 70.5q0 29 -5 54t-14 50h-100v58h81q-9 27 -18 64.5t-9 76.5q0 87 50 134t144 47q63 0 101.5 -15.5t56 -41t17.5 -58.5
q0 -34 -28.5 -55.5t-84.5 -21.5q0 31 -5.5 61.5t-20 51t-42.5 20.5q-30 0 -49 -29.5t-19 -88.5q0 -28 4 -55t11 -49.5t13 -40.5h154v-58l-137 1q6 -22 9.5 -39t3.5 -44q0 -26 -9 -51t-26.5 -48t-44.5 -43l3 -4q4 3 19.5 7t30.5 4q12 0 22.5 -3t23 -7.5t31.5 -10.5
q18 -7 34.5 -11.5t37.5 -4.5q18 0 34 8.5t30 24.5t25 37v-104q-11 -22 -26 -36.5t-32.5 -22t-38.5 -7.5z" />
    <glyph glyph-name="currency" unicode="&#xa4;" horiz-adv-x="489" 
d="M104 145l-45 49l50 60q-13 22 -19 48t-6 55t7 55.5t20 48.5l-52 61l45 49l52 -62q18 16 40.5 24t46.5 8t46.5 -8.5t40.5 -24.5l54 64l44 -50l-52 -62q13 -22 20 -48t7 -55t-6.5 -55t-19.5 -48l51 -60l-44 -49l-51 61q-19 -15 -42 -23.5t-48 -8.5t-47.5 8t-41.5 23z
M243 238q29 0 51.5 16t35 43t12.5 60t-12.5 60.5t-35 43.5t-51.5 16q-28 0 -50.5 -16t-35.5 -43.5t-13 -60.5t13 -60t35.5 -43t50.5 -16z" />
    <glyph glyph-name="yen" unicode="&#xa5;" horiz-adv-x="489" 
d="M102 0v51h20q20 0 32.5 7t19.5 22t7 38v46h-121v57h121v64h-121v56h106l-106 269q-12 30 -22.5 41.5t-28.5 11.5h-5v51h247v-51h-6q-24 0 -36 -8.5t-12 -28.5q0 -12 4.5 -27.5t10.5 -33.5l35 -97q11 -32 19 -60t12 -49q3 11 7 22.5t9 24.5t10 27l40 109q9 23 15 44.5
t6 38.5q0 20 -13 29t-36 9h-3v51h169v-51h-4q-19 0 -30 -15t-29 -62l-97 -245h116v-56h-122v-64h122v-57h-122v-44q0 -25 6.5 -40.5t20 -22t32.5 -6.5h20v-51h-293z" />
    <glyph glyph-name="brokenbar" unicode="&#xa6;" horiz-adv-x="489" 
d="M212 360v400h64v-400h-64zM212 -240v400h64v-400h-64z" />
    <glyph glyph-name="section" unicode="&#xa7;" horiz-adv-x="474" 
d="M242 -113q-52 0 -85.5 10.5t-53 29t-27 41t-7.5 45.5q0 26 10 43t27.5 25t41.5 8q0 -42 11.5 -76.5t35.5 -54.5t59 -20q27 0 46 13t29 36t10 52q0 20 -5 36.5t-20.5 34t-44.5 37.5t-76 48q-50 29 -80.5 56.5t-44 58.5t-13.5 70q0 34 16 61t41 43q-14 19 -26 47.5
t-12 68.5q0 51 22.5 86.5t62 54.5t89.5 19q51 0 86 -14.5t52.5 -38.5t17.5 -54q0 -29 -21 -49.5t-62 -20.5q0 29 -6.5 57.5t-23.5 47.5t-47 19q-37 0 -59.5 -25t-22.5 -70q0 -33 11.5 -54t33.5 -36.5t53 -32.5q64 -35 103.5 -64t58.5 -60t19 -73q0 -38 -16.5 -70t-39.5 -50
q10 -14 17 -31t11 -36t4 -41q0 -50 -20.5 -90.5t-59.5 -63.5t-95 -23zM344 207q4 9 7 23t3 30q0 23 -8.5 43.5t-31.5 41.5t-65 45q-29 16 -54.5 31.5t-46.5 31.5q-6 -8 -9.5 -21t-3.5 -29q0 -27 11.5 -47.5t38 -40.5t72.5 -48q31 -19 52 -34t35 -26z" />
    <glyph glyph-name="dieresis" unicode="&#xa8;" horiz-adv-x="503" 
d="M340 627q-23 0 -40 14t-17 49t17 49t40 14q22 0 39.5 -14t17.5 -49t-17.5 -49t-39.5 -14zM162 627q-23 0 -40 14t-17 49t17 49t40 14q21 0 39 -14t18 -49t-18 -49t-39 -14z" />
    <glyph glyph-name="copyright" unicode="&#xa9;" horiz-adv-x="736" 
d="M368 -10q-73 0 -131.5 28t-100 78t-63.5 117t-22 145q0 79 22 145.5t63.5 116.5t100.5 77.5t132 27.5t131.5 -27.5t100 -77t63 -116.5t21.5 -146q0 -80 -22 -147t-63.5 -116.5t-100 -77t-131.5 -27.5zM374 111q-58 0 -99.5 29.5t-63 85.5t-21.5 137q0 74 21 128t63.5 83
t105.5 29q48 0 78 -14.5t44 -36.5t14 -45q0 -24 -14.5 -36.5t-34.5 -12.5q0 26 -7.5 48.5t-26.5 36.5t-53 14q-65 0 -94 -51t-29 -142q0 -67 14.5 -113.5t42 -70t66.5 -23.5q45 0 70.5 23.5t38.5 57.5q11 -4 17 -11t6 -20q0 -20 -15.5 -42.5t-46 -38t-76.5 -15.5zM371 41
q61 0 109 23t81.5 65.5t51 101t17.5 127.5q0 70 -18 128t-51.5 100t-82 65t-109.5 23q-81 0 -140 -40.5t-91.5 -112t-32.5 -163.5q0 -70 19 -128t53.5 -100.5t84 -65.5t109.5 -23z" />
    <glyph glyph-name="ordfeminine" unicode="&#xaa;" horiz-adv-x="369" 
d="M120 380q-44 0 -69.5 25.5t-25.5 71.5q0 51 36 76t110 29l42 2v29q0 29 -7.5 47.5t-31.5 18.5q-26 0 -33 -20t-7 -47q-45 0 -65.5 7t-20.5 28q0 23 15.5 39t45 24.5t70.5 8.5q67 0 100 -24.5t33 -81.5v-147q0 -22 8.5 -30t28.5 -8v-42h-105l-18 51h-5q-10 -15 -24.5 -28
t-33.5 -21t-43 -8zM159 434q18 0 30 9t18 25.5t6 36.5v43l-21 -1q-25 -1 -39.5 -8.5t-21 -21.5t-6.5 -35q0 -25 9.5 -36.5t24.5 -11.5z" />
    <glyph glyph-name="guillemotleft" unicode="&#xab;" horiz-adv-x="485" 
d="M363 72l-133 174v48l133 174h61l-89 -198l89 -198h-61zM195 72l-133 174v48l133 174h61l-89 -198l89 -198h-61z" />
    <glyph glyph-name="logicalnot" unicode="&#xac;" horiz-adv-x="467" 
d="M355 137v188h-310v68h375v-256h-65z" />
    <glyph glyph-name="uni00AD" unicode="&#xad;" horiz-adv-x="270" 
d="M22 223v99h227v-99h-227z" />
    <glyph glyph-name="registered" unicode="&#xae;" horiz-adv-x="736" 
d="M368 -10q-73 0 -131.5 28t-100 78t-63.5 117t-22 145q0 79 22 145.5t63.5 116.5t100.5 77.5t132 27.5t131.5 -27.5t100 -77t63 -116.5t21.5 -146q0 -80 -22 -147t-63.5 -116.5t-100 -77t-131.5 -27.5zM371 40q61 0 109 23.5t82 66t51.5 100.5t17.5 128t-18 128t-52 100
t-82.5 65.5t-109.5 23.5q-81 0 -140.5 -41t-92 -112t-32.5 -164q0 -70 19 -128.5t54 -101t84 -65.5t110 -23zM203 141v33h11q17 0 29 6t12 29v295q0 23 -12 29t-29 6h-11v35h155q75 0 112.5 -30t37.5 -90q0 -32 -11.5 -54t-29.5 -35.5t-39 -21.5l77 -142q9 -16 18 -21.5
t30 -5.5v-33h-89l-97 187h-47v-119q0 -23 13 -29t30 -6h12v-33h-172zM357 369q48 0 65.5 20.5t17.5 63.5q0 45 -19.5 63t-66.5 18h-34v-165h37z" />
    <glyph glyph-name="overscore" unicode="&#xaf;" horiz-adv-x="399" 
d="M-5 760v59h409v-59h-409z" />
    <glyph glyph-name="degree" unicode="&#xb0;" horiz-adv-x="349" 
d="M173 424q-62 0 -98 43t-36 110q0 45 16.5 79.5t46.5 54.5t71 20q42 0 72 -19.5t46.5 -54.5t16.5 -80t-16.5 -79.5t-46.5 -54t-72 -19.5zM175 478q37 0 56 28.5t19 71.5q0 45 -19.5 72t-55.5 27q-37 0 -57 -27t-20 -72q0 -43 20 -71.5t57 -28.5z" />
    <glyph glyph-name="plusminus" unicode="&#xb1;" horiz-adv-x="467" 
d="M45 0v68h377v-68h-377zM198 142v182h-153v67h153v182h70v-182h154v-67h-154v-182h-70z" />
    <glyph glyph-name="uni00B2" unicode="&#xb2;" horiz-adv-x="347" 
d="M32 387v66l95 97q29 30 46 55.5t24 51t7 55.5q0 35 -9.5 53.5t-32.5 18.5q-20 0 -29.5 -14.5t-13 -37.5t-3.5 -49q-27 0 -52 14.5t-25 43.5q0 24 14.5 42.5t42 30t67.5 11.5q47 0 76 -13t42.5 -37.5t13.5 -58.5q0 -29 -14 -55t-43.5 -56.5t-75.5 -73.5l-66 -72h144
q12 0 19.5 5t11.5 13t6 17l5 25h30l-3 -132h-277z" />
    <glyph glyph-name="uni00B3" unicode="&#xb3;" horiz-adv-x="347" 
d="M144 380q-39 0 -65 10.5t-39.5 28.5t-13.5 42q0 20 11 33.5t39 13.5q0 -34 17.5 -57.5t51.5 -23.5q33 0 55.5 20t22.5 65q0 36 -19 56t-68 20h-29v44h29q35 0 52.5 23t17.5 61q0 33 -10 49.5t-33 16.5q-29 0 -39 -26.5t-10 -62.5q-34 0 -54 8.5t-20 33.5q0 24 14.5 44
t42.5 32.5t68 12.5q61 0 96.5 -26t35.5 -73q0 -44 -18.5 -70.5t-60.5 -38.5v-4q32 -5 52.5 -18t31 -34t10.5 -50q0 -36 -16 -60.5t-40.5 -40t-54 -22.5t-57.5 -7z" />
    <glyph glyph-name="acute" unicode="&#xb4;" horiz-adv-x="308" 
d="M40 619q14 22 30.5 47.5t32 51.5t23.5 48h142v-10q-8 -13 -27 -32.5t-43.5 -41t-50 -41.5t-46.5 -35h-61v13z" />
    <glyph glyph-name="uni00B5" unicode="&#xb5;" horiz-adv-x="584" 
d="M153 -240q-32 0 -57.5 28t-25.5 100q0 30 1.5 63t3.5 72.5t3.5 89t1.5 112.5v311h138v-337q0 -36 6 -65.5t20 -46.5t38 -17q18 0 32.5 11t24 32t15 50t5.5 63v310h137v-404q0 -45 13.5 -63t46.5 -18h7v-51h-76q-46 0 -77.5 25.5t-41.5 66.5h-5q-20 -45 -47 -73.5
t-74 -28.5q-35 0 -61.5 16t-43.5 46q0 -49 3.5 -87t14 -65t30 -42t50.5 -20q0 -33 -22 -55.5t-60 -22.5z" />
    <glyph glyph-name="paragraph" unicode="&#xb6;" horiz-adv-x="546" 
d="M147 -111v51h12q19 0 35 4.5t26 20t10 46.5v375h-62q-51 0 -80 27.5t-41 72t-12 96.5q0 54 13 94t43 62t79 22h342v-51h-11q-20 0 -36 -5t-25.5 -20t-9.5 -47v-626q0 -31 9.5 -46.5t25.5 -20t36 -4.5h11v-51h-146v811h-73v-811h-146z" />
    <glyph glyph-name="periodcentered" unicode="&#xb7;" horiz-adv-x="260" 
d="M130 279q-30 0 -51.5 17t-21.5 60t21.5 59t51.5 16q29 0 50.5 -16t21.5 -59t-21.5 -60t-50.5 -17z" />
    <glyph glyph-name="cedilla" unicode="&#xb8;" horiz-adv-x="290" 
d="M118 -237q-13 0 -36.5 3t-39.5 8v56q16 -4 32 -6t27 -2q26 0 40.5 10t14.5 38q0 29 -19 39t-47 13l18 87h49l-9 -44q28 -3 49.5 -14.5t33.5 -31t12 -46.5q0 -52 -35 -81t-90 -29z" />
    <glyph glyph-name="uni00B9" unicode="&#xb9;" horiz-adv-x="347" 
d="M56 387v41h45q17 0 28.5 6.5t11.5 31.5v291q-11 -16 -23.5 -31t-24 -23.5t-21.5 -8.5q-11 0 -20 13t-9 32q12 3 24.5 9.5t25 16.5t23.5 20l44 34h64v-352q0 -25 12 -32t29 -7h36v-41h-245z" />
    <glyph glyph-name="ordmasculine" unicode="&#xba;" horiz-adv-x="383" 
d="M191 380q-75 0 -117 42.5t-42 127.5q0 86 40.5 127.5t120.5 41.5q74 0 116.5 -41.5t42.5 -127.5q0 -85 -41 -127.5t-120 -42.5zM192 426q32 0 45.5 31.5t13.5 92.5q0 60 -14 90.5t-46 30.5t-45 -30t-13 -91t13 -92.5t46 -31.5z" />
    <glyph glyph-name="guillemotright" unicode="&#xbb;" horiz-adv-x="485" 
d="M234 72l89 198l-89 198h62l133 -174v-48l-133 -174h-62zM57 72l89 198l-89 198h61l133 -174v-48l-133 -174h-61z" />
    <glyph glyph-name="onequarter" unicode="&#xbc;" horiz-adv-x="731" 
d="M19 287v41h45q17 0 28.5 6.5t11.5 31.5v291q-11 -16 -23.5 -31t-24 -23.5t-21.5 -8.5q-11 0 -20 13t-9 32q12 3 24.5 9.5t25 16.5t23.5 20l44 34h64v-352q0 -25 12 -32t29 -7h36v-41h-245zM178 0l309 714h68l-308 -714h-69zM504 0v42h26q15 0 25.5 6.5t10.5 31.5v40h-169
v37l176 275h76v-262h64v-50h-64v-40q0 -25 11 -31.5t25 -6.5h18v-42h-199zM454 170h112v126q0 16 1 32t3 35q-3 -8 -8 -17.5t-7 -13.5z" />
    <glyph glyph-name="onehalf" unicode="&#xbd;" horiz-adv-x="731" 
d="M24 287v41h45q17 0 28.5 6.5t11.5 31.5v291q-11 -16 -23.5 -31t-24 -23.5t-21.5 -8.5q-11 0 -20 13t-9 32q12 3 24.5 9.5t25 16.5t23.5 20l44 34h64v-352q0 -25 12 -32t29 -7h36v-41h-245zM165 0l309 714h68l-308 -714h-69zM433 0v66l95 97q29 30 46 55.5t24 51t7 55.5
q0 35 -9.5 53.5t-32.5 18.5q-20 0 -29.5 -14.5t-13 -37.5t-3.5 -49q-27 0 -52 14.5t-25 43.5q0 24 14.5 42.5t42 30t67.5 11.5q47 0 76 -13t42.5 -37.5t13.5 -58.5q0 -29 -14 -55t-43.5 -56.5t-75.5 -73.5l-66 -72h144q12 0 19.5 5t11.5 13t6 17l5 25h30l-3 -132h-277z" />
    <glyph glyph-name="threequarters" unicode="&#xbe;" horiz-adv-x="731" 
d="M144 280q-39 0 -65 10.5t-39.5 28.5t-13.5 42q0 20 11 33.5t39 13.5q0 -34 17.5 -57.5t51.5 -23.5q33 0 55.5 20t22.5 65q0 36 -19 56t-68 20h-29v44h29q35 0 52.5 23t17.5 61q0 33 -10 49.5t-33 16.5q-29 0 -39 -26.5t-10 -62.5q-34 0 -54 8.5t-20 33.5q0 24 14.5 44
t42.5 32.5t68 12.5q61 0 96.5 -26t35.5 -73q0 -44 -18.5 -70.5t-60.5 -38.5v-4q32 -5 52.5 -18t31 -34t10.5 -50q0 -36 -16 -60.5t-40.5 -40t-54 -22.5t-57.5 -7zM195 0l309 714h68l-308 -714h-69zM504 0v42h26q15 0 25.5 6.5t10.5 31.5v40h-169v37l176 275h76v-262h64v-50
h-64v-40q0 -25 11 -31.5t25 -6.5h18v-42h-199zM454 170h112v126q0 16 1 32t3 35q-3 -8 -8 -17.5t-7 -13.5z" />
    <glyph glyph-name="questiondown" unicode="&#xbf;" horiz-adv-x="501" 
d="M325 184q-49 -22 -75 -54.5t-35.5 -71t-9.5 -78.5q0 -48 15.5 -81t49.5 -33q25 0 39 17t20.5 44t6.5 58q56 0 92 -17t36 -50q0 -23 -11.5 -43t-34.5 -35t-59 -23.5t-84 -8.5q-62 0 -111 21.5t-77 62.5t-28 98q0 55 18.5 94t57.5 69.5t98 57.5l15 94h63zM281 540
q31 0 51.5 -16.5t20.5 -57.5q0 -43 -20.5 -58.5t-51.5 -15.5t-52.5 16t-21.5 58t22 58t52 16z" />
    <glyph glyph-name="Agrave" unicode="&#xc0;" horiz-adv-x="660" 
d="M4 0v51h10q16 0 28 5.5t22.5 21.5t19.5 46l188 590h125l185 -606q7 -21 16.5 -34t22.5 -18t29 -5h10v-51h-292v51h29q19 0 30.5 8.5t11.5 27.5q0 8 -1.5 17t-3.5 18t-5 16l-28 98h-210l-24 -85q-2 -8 -4.5 -19t-4.5 -22t-2 -20q0 -18 9.5 -28.5t32.5 -10.5h34v-51h-228z
M210 295h173l-51 189q-6 24 -12.5 46.5t-11.5 44.5t-9 42q-4 -20 -9.5 -41.5l-11 -43t-12.5 -43.5zM326 771q-21 14 -46 33.5t-49.5 41.5t-43.5 42t-27 33v10h141q9 -22 24.5 -49t32.5 -53t30 -45v-13h-62z" />
    <glyph glyph-name="Aacute" unicode="&#xc1;" horiz-adv-x="660" 
d="M4 0v51h10q16 0 28 5.5t22.5 21.5t19.5 46l188 590h125l185 -606q7 -21 16.5 -34t22.5 -18t29 -5h10v-51h-292v51h29q19 0 30.5 8.5t11.5 27.5q0 8 -1.5 17t-3.5 18t-5 16l-28 98h-210l-24 -85q-2 -8 -4.5 -19t-4.5 -22t-2 -20q0 -18 9.5 -28.5t32.5 -10.5h34v-51h-228z
M210 295h173l-51 189q-6 24 -12.5 46.5t-11.5 44.5t-9 42q-4 -20 -9.5 -41.5l-11 -43t-12.5 -43.5zM272 784q14 22 30.5 47.5t32 51.5t23.5 48h142v-10q-8 -13 -27 -32.5t-43.5 -41t-50 -41.5t-46.5 -35h-61v13z" />
    <glyph glyph-name="Acircumflex" unicode="&#xc2;" horiz-adv-x="660" 
d="M4 0v51h10q16 0 28 5.5t22.5 21.5t19.5 46l188 590h125l185 -606q7 -21 16.5 -34t22.5 -18t29 -5h10v-51h-292v51h29q19 0 30.5 8.5t11.5 27.5q0 8 -1.5 17t-3.5 18t-5 16l-28 98h-210l-24 -85q-2 -8 -4.5 -19t-4.5 -22t-2 -20q0 -18 9.5 -28.5t32.5 -10.5h34v-51h-228z
M210 295h173l-51 189q-6 24 -12.5 46.5t-11.5 44.5t-9 42q-4 -20 -9.5 -41.5l-11 -43t-12.5 -43.5zM176 784q14 19 33 45t37 53t27 49h121q9 -22 26.5 -49t37 -53t32.5 -45v-13h-62q-11 12 -28.5 29t-35.5 35t-31 32q-14 -15 -31.5 -32t-34 -33.5t-29.5 -30.5h-62v13z" />
    <glyph glyph-name="Atilde" unicode="&#xc3;" horiz-adv-x="660" 
d="M4 0v51h10q16 0 28 5.5t22.5 21.5t19.5 46l188 590h125l185 -606q7 -21 16.5 -34t22.5 -18t29 -5h10v-51h-292v51h29q19 0 30.5 8.5t11.5 27.5q0 8 -1.5 17t-3.5 18t-5 16l-28 98h-210l-24 -85q-2 -8 -4.5 -19t-4.5 -22t-2 -20q0 -18 9.5 -28.5t32.5 -10.5h34v-51h-228z
M210 295h173l-51 189q-6 24 -12.5 46.5t-11.5 44.5t-9 42q-4 -20 -9.5 -41.5l-11 -43t-12.5 -43.5zM393 771q-23 0 -42 9.5t-35 22t-30.5 22t-29.5 9.5q-18 0 -29 -16.5t-13 -36.5h-59q2 38 17 70.5t39.5 52t55.5 19.5q23 0 42 -9.5t35 -22t30.5 -22t28.5 -9.5
q17 0 28.5 16.5t14.5 36.5h57q-1 -39 -16 -71t-38.5 -51.5t-55.5 -19.5z" />
    <glyph glyph-name="Adieresis" unicode="&#xc4;" horiz-adv-x="660" 
d="M4 0v51h10q16 0 28 5.5t22.5 21.5t19.5 46l188 590h125l185 -606q7 -21 16.5 -34t22.5 -18t29 -5h10v-51h-292v51h29q19 0 30.5 8.5t11.5 27.5q0 8 -1.5 17t-3.5 18t-5 16l-28 98h-210l-24 -85q-2 -8 -4.5 -19t-4.5 -22t-2 -20q0 -18 9.5 -28.5t32.5 -10.5h34v-51h-228z
M210 295h173l-51 189q-6 24 -12.5 46.5t-11.5 44.5t-9 42q-4 -20 -9.5 -41.5l-11 -43t-12.5 -43.5zM417 792q-23 0 -40 14t-17 49t17 49t40 14q22 0 39.5 -14t17.5 -49t-17.5 -49t-39.5 -14zM239 792q-23 0 -40 14t-17 49t17 49t40 14q21 0 39 -14t18 -49t-18 -49t-39 -14z
" />
    <glyph glyph-name="Aring" unicode="&#xc5;" horiz-adv-x="660" 
d="M4 0v51h10q16 0 28 5.5t22.5 21.5t19.5 46l178 558q-15 13 -24 34.5t-9 53.5q0 53 30.5 81t73.5 28q44 0 74.5 -28t30.5 -81q0 -31 -8.5 -53t-24.5 -35l173 -563q13 -40 29 -54t37 -14h16v-51h-292v51h36q11 0 23 9t12 28q0 12 -3 26t-6 24l-29 98h-210l-24 -85
q-2 -8 -4.5 -19t-4.5 -22t-2 -20q0 -18 12 -28.5t26 -10.5h38v-51h-228zM210 295h173l-44 169q-7 24 -13.5 51t-13 53t-11.5 47q-5 -19 -12 -44.5t-15 -52t-14 -48.5zM333 713q21 0 36.5 13t15.5 44t-15.5 43.5t-36.5 12.5t-36.5 -12.5t-15.5 -43.5q0 -30 14.5 -43.5
t37.5 -13.5z" />
    <glyph glyph-name="AE" unicode="&#xc6;" horiz-adv-x="868" 
d="M0 0v51h10q16 0 28.5 8.5t24.5 25.5t24 44l244 529l-57 5v51h535l2 -182h-62l-5 45q-1 25 -8 42.5t-20.5 26.5t-37.5 9h-135v-253h208v-57h-208v-286h159q23 0 37.5 10t22.5 27.5t11 39.5l6 46h62l-6 -182h-515v51h23q19 0 32 5.5t20 20t7 41.5v113h-201l-36 -88
q-6 -16 -9.5 -30t-3.5 -23q0 -20 13 -29.5t38 -9.5h15v-51h-218zM229 289h173v366h-8z" />
    <glyph glyph-name="Ccedilla" unicode="&#xc7;" horiz-adv-x="587" 
d="M345 -10q-98 0 -164.5 46t-99.5 128.5t-33 193.5q0 109 34 191.5t101.5 128.5t166.5 46q67 0 111.5 -16t67 -42t22.5 -58q0 -36 -28 -59t-83 -23q0 33 -9 64t-30.5 51.5t-58.5 20.5q-53 0 -84.5 -36t-45 -104t-13.5 -164q0 -98 17 -164t54.5 -98.5t98.5 -32.5
q46 0 77.5 14.5t53.5 37t37 45.5q6 -6 10 -18t4 -23q0 -20 -10 -42.5t-33 -42t-63 -32t-100 -12.5zM322 -240q-10 0 -24 1.5t-28.5 4t-24.5 5.5v59q15 -4 31 -6t28 -2q24 0 38.5 11.5t14.5 36.5q0 29 -18.5 40t-47.5 14l19 85h51l-9 -43q29 -2 50 -14t32.5 -31.5t11.5 -46.5
q0 -53 -34.5 -83.5t-89.5 -30.5z" />
    <glyph glyph-name="Egrave" unicode="&#xc8;" horiz-adv-x="571" 
d="M24 0v51h33q15 0 25.5 5.5t16.5 18.5t6 34v491q0 28 -7 41.5t-18 17.5t-25 4h-31v51h488l3 -182h-63l-4 46q-1 24 -8 41.5t-21 26.5t-37 9h-135v-253h207v-57h-207v-286h159q23 0 37 10t22 27.5t11 39.5l6 46h63l-6 -182h-515zM296 771q-21 14 -46 33.5t-49.5 41.5
t-43.5 42t-27 33v10h141q9 -22 24.5 -49t32.5 -53t30 -45v-13h-62z" />
    <glyph glyph-name="Eacute" unicode="&#xc9;" horiz-adv-x="571" 
d="M24 0v51h33q15 0 25.5 5.5t16.5 18.5t6 34v491q0 28 -7 41.5t-18 17.5t-25 4h-31v51h488l3 -182h-63l-4 46q-1 24 -8 41.5t-21 26.5t-37 9h-135v-253h207v-57h-207v-286h159q23 0 37 10t22 27.5t11 39.5l6 46h63l-6 -182h-515zM219 784q14 22 30.5 47.5t32 51.5t23.5 48
h142v-10q-8 -13 -27 -32.5t-43.5 -41t-50 -41.5t-46.5 -35h-61v13z" />
    <glyph glyph-name="Ecircumflex" unicode="&#xca;" horiz-adv-x="571" 
d="M24 0v51h33q15 0 25.5 5.5t16.5 18.5t6 34v491q0 28 -7 41.5t-18 17.5t-25 4h-31v51h488l3 -182h-63l-4 46q-1 24 -8 41.5t-21 26.5t-37 9h-135v-253h207v-57h-207v-286h159q23 0 37 10t22 27.5t11 39.5l6 46h63l-6 -182h-515zM120 784q14 19 33 45t37 53t27 49h121
q9 -22 26.5 -49t37 -53t32.5 -45v-13h-62q-11 12 -28.5 29t-35.5 35t-31 32q-14 -15 -31.5 -32t-34 -33.5t-29.5 -30.5h-62v13z" />
    <glyph glyph-name="Edieresis" unicode="&#xcb;" horiz-adv-x="571" 
d="M24 0v51h33q15 0 25.5 5.5t16.5 18.5t6 34v491q0 28 -7 41.5t-18 17.5t-25 4h-31v51h488l3 -182h-63l-4 46q-1 24 -8 41.5t-21 26.5t-37 9h-135v-253h207v-57h-207v-286h159q23 0 37 10t22 27.5t11 39.5l6 46h63l-6 -182h-515zM384 792q-23 0 -40 14t-17 49t17 49t40 14
q22 0 39.5 -14t17.5 -49t-17.5 -49t-39.5 -14zM206 792q-23 0 -40 14t-17 49t17 49t40 14q21 0 39 -14t18 -49t-18 -49t-39 -14z" />
    <glyph glyph-name="Igrave" unicode="&#xcc;" horiz-adv-x="352" 
d="M24 0v51h34q12 0 23 5t17.5 18t6.5 36v491q0 25 -6.5 38t-17.5 18.5t-23 5.5h-34v51h305v-51h-35q-14 0 -24.5 -5.5t-16.5 -18.5t-6 -39v-489q0 -22 6.5 -35.5t17 -19t23.5 -5.5h35v-51h-305zM185 771q-21 14 -46 33.5t-49.5 41.5t-43.5 42t-27 33v10h141q9 -22 24.5 -49
t32.5 -53t30 -45v-13h-62z" />
    <glyph glyph-name="Iacute" unicode="&#xcd;" horiz-adv-x="352" 
d="M24 0v51h34q12 0 23 5t17.5 18t6.5 36v491q0 25 -6.5 38t-17.5 18.5t-23 5.5h-34v51h305v-51h-35q-14 0 -24.5 -5.5t-16.5 -18.5t-6 -39v-489q0 -22 6.5 -35.5t17 -19t23.5 -5.5h35v-51h-305zM105 784q14 22 30.5 47.5t32 51.5t23.5 48h142v-10q-8 -13 -27 -32.5
t-43.5 -41t-50 -41.5t-46.5 -35h-61v13z" />
    <glyph glyph-name="Icircumflex" unicode="&#xce;" horiz-adv-x="352" 
d="M24 0v51h34q12 0 23 5t17.5 18t6.5 36v491q0 25 -6.5 38t-17.5 18.5t-23 5.5h-34v51h305v-51h-35q-14 0 -24.5 -5.5t-16.5 -18.5t-6 -39v-489q0 -22 6.5 -35.5t17 -19t23.5 -5.5h35v-51h-305zM19 784q14 19 33 45t37 53t27 49h121q9 -22 26.5 -49t37 -53t32.5 -45v-13
h-62q-11 12 -28.5 29t-35.5 35t-31 32q-14 -15 -31.5 -32t-34 -33.5t-29.5 -30.5h-62v13z" />
    <glyph glyph-name="Idieresis" unicode="&#xcf;" horiz-adv-x="352" 
d="M24 0v51h34q12 0 23 5t17.5 18t6.5 36v491q0 25 -6.5 38t-17.5 18.5t-23 5.5h-34v51h305v-51h-35q-14 0 -24.5 -5.5t-16.5 -18.5t-6 -39v-489q0 -22 6.5 -35.5t17 -19t23.5 -5.5h35v-51h-305zM265 792q-23 0 -40 14t-17 49t17 49t40 14q22 0 39.5 -14t17.5 -49t-17.5 -49
t-39.5 -14zM87 792q-23 0 -40 14t-17 49t17 49t40 14q21 0 39 -14t18 -49t-18 -49t-39 -14z" />
    <glyph glyph-name="Eth" unicode="&#xd0;" horiz-adv-x="671" 
d="M24 0v51h34q14 0 24.5 6t16.5 20t6 37v231h-71v57h71v200q0 25 -6.5 38t-18 18t-27.5 5h-29v51h290q96 0 166 -39t107 -116.5t37 -191.5q0 -109 -35 -192t-104 -129t-172 -46h-289zM293 60q59 0 98.5 36.5t60 105.5t20.5 165q0 97 -20.5 161t-60 95.5t-97.5 31.5h-47
v-253h105v-57h-105v-285h46z" />
    <glyph glyph-name="Ntilde" unicode="&#xd1;" horiz-adv-x="688" 
d="M24 0v51h22q18 0 31 4.5t20.5 18.5t7.5 43v484q0 28 -7.5 41t-19.5 17t-26 4h-28v51h209l294 -513v400q0 25 -7 38.5t-18.5 18.5t-26.5 5h-28v51h228v-51h-28q-16 0 -28 -5.5t-18.5 -19.5t-6.5 -41v-597h-95l-328 563v-446q0 -29 6 -43t18 -18.5t28 -4.5h29v-51h-228z
M415 771q-23 0 -42 9.5t-35 22t-30.5 22t-29.5 9.5q-18 0 -29 -16.5t-13 -36.5h-59q2 38 17 70.5t39.5 52t55.5 19.5q23 0 42 -9.5t35 -22t30.5 -22t28.5 -9.5q17 0 28.5 16.5t14.5 36.5h57q-1 -39 -16 -71t-38.5 -51.5t-55.5 -19.5z" />
    <glyph glyph-name="Ograve" unicode="&#xd2;" horiz-adv-x="689" 
d="M345 -10q-100 0 -166 46t-98.5 129t-32.5 194t32.5 193t99 127.5t166.5 45.5q95 0 160.5 -45.5t100 -128t34.5 -193.5t-34 -193.5t-100 -128.5t-162 -46zM345 53q54 0 86 36t45.5 104.5t13.5 164.5q0 97 -13.5 164.5t-45.5 103.5t-85 36q-79 0 -113 -79.5t-34 -224.5
q0 -96 14.5 -164.5t47 -104.5t84.5 -36zM349 771q-21 14 -46 33.5t-49.5 41.5t-43.5 42t-27 33v10h141q9 -22 24.5 -49t32.5 -53t30 -45v-13h-62z" />
    <glyph glyph-name="Oacute" unicode="&#xd3;" horiz-adv-x="689" 
d="M345 -10q-100 0 -166 46t-98.5 129t-32.5 194t32.5 193t99 127.5t166.5 45.5q95 0 160.5 -45.5t100 -128t34.5 -193.5t-34 -193.5t-100 -128.5t-162 -46zM345 53q54 0 86 36t45.5 104.5t13.5 164.5q0 97 -13.5 164.5t-45.5 103.5t-85 36q-79 0 -113 -79.5t-34 -224.5
q0 -96 14.5 -164.5t47 -104.5t84.5 -36zM283 784q14 22 30.5 47.5t32 51.5t23.5 48h142v-10q-8 -13 -27 -32.5t-43.5 -41t-50 -41.5t-46.5 -35h-61v13z" />
    <glyph glyph-name="Ocircumflex" unicode="&#xd4;" horiz-adv-x="689" 
d="M345 -10q-100 0 -166 46t-98.5 129t-32.5 194t32.5 193t99 127.5t166.5 45.5q95 0 160.5 -45.5t100 -128t34.5 -193.5t-34 -193.5t-100 -128.5t-162 -46zM345 53q54 0 86 36t45.5 104.5t13.5 164.5q0 97 -13.5 164.5t-45.5 103.5t-85 36q-79 0 -113 -79.5t-34 -224.5
q0 -96 14.5 -164.5t47 -104.5t84.5 -36zM186 784q14 19 33 45t37 53t27 49h121q9 -22 26.5 -49t37 -53t32.5 -45v-13h-62q-11 12 -28.5 29t-35.5 35t-31 32q-14 -15 -31.5 -32t-34 -33.5t-29.5 -30.5h-62v13z" />
    <glyph glyph-name="Otilde" unicode="&#xd5;" horiz-adv-x="689" 
d="M345 -10q-100 0 -166 46t-98.5 129t-32.5 194t32.5 193t99 127.5t166.5 45.5q95 0 160.5 -45.5t100 -128t34.5 -193.5t-34 -193.5t-100 -128.5t-162 -46zM345 53q54 0 86 36t45.5 104.5t13.5 164.5q0 97 -13.5 164.5t-45.5 103.5t-85 36q-79 0 -113 -79.5t-34 -224.5
q0 -96 14.5 -164.5t47 -104.5t84.5 -36zM408 771q-23 0 -42 9.5t-35 22t-30.5 22t-29.5 9.5q-18 0 -29 -16.5t-13 -36.5h-59q2 38 17 70.5t39.5 52t55.5 19.5q23 0 42 -9.5t35 -22t30.5 -22t28.5 -9.5q17 0 28.5 16.5t14.5 36.5h57q-1 -39 -16 -71t-38.5 -51.5t-55.5 -19.5z
" />
    <glyph glyph-name="Odieresis" unicode="&#xd6;" horiz-adv-x="689" 
d="M345 -10q-100 0 -166 46t-98.5 129t-32.5 194t32.5 193t99 127.5t166.5 45.5q95 0 160.5 -45.5t100 -128t34.5 -193.5t-34 -193.5t-100 -128.5t-162 -46zM345 53q54 0 86 36t45.5 104.5t13.5 164.5q0 97 -13.5 164.5t-45.5 103.5t-85 36q-79 0 -113 -79.5t-34 -224.5
q0 -96 14.5 -164.5t47 -104.5t84.5 -36zM429 792q-23 0 -40 14t-17 49t17 49t40 14q22 0 39.5 -14t17.5 -49t-17.5 -49t-39.5 -14zM251 792q-23 0 -40 14t-17 49t17 49t40 14q21 0 39 -14t18 -49t-18 -49t-39 -14z" />
    <glyph glyph-name="multiply" unicode="&#xd7;" horiz-adv-x="467" 
d="M101 157l-50 44l138 158l-138 157l51 44l131 -150l131 149l51 -44l-137 -156l137 -157l-50 -44l-132 150z" />
    <glyph glyph-name="Oslash" unicode="&#xd8;" horiz-adv-x="689" 
d="M168 45q-60 47 -90 127.5t-30 186.5q0 111 32.5 193t99 127.5t166.5 45.5q36 0 68 -7t59 -20l27 57h62l-40 -87q58 -47 88.5 -126.5t30.5 -183.5q0 -111 -34.5 -193.5t-100.5 -128.5t-161 -46q-37 0 -68.5 6.5t-59.5 19.5l-26 -56h-63zM345 53q54 0 86 36t45.5 104.5
t13.5 164.5q0 60 -5 108.5t-18 84.5l-212 -455q34 -43 90 -43zM436 619q-16 21 -38.5 32t-51.5 11q-79 0 -113 -79.5t-34 -224.5q0 -59 6 -108.5t19 -86.5z" />
    <glyph glyph-name="Ugrave" unicode="&#xd9;" horiz-adv-x="653" 
d="M333 -10q-70 0 -124 23t-83.5 73t-29.5 132v383q0 28 -8.5 41t-22 17t-31.5 4h-20v51h305v-51h-19q-17 0 -31 -4.5t-22.5 -18t-8.5 -43.5v-387q0 -85 34.5 -118t94.5 -33q38 0 65.5 17.5t43 52t15.5 84.5v388q0 28 -8 41t-21.5 17t-31.5 4h-19v51h228v-51h-20
q-17 0 -31 -4.5t-22.5 -18t-8.5 -43.5v-386q0 -67 -23.5 -116.5t-73 -77t-127.5 -27.5zM349 771q-21 14 -46 33.5t-49.5 41.5t-43.5 42t-27 33v10h141q9 -22 24.5 -49t32.5 -53t30 -45v-13h-62z" />
    <glyph glyph-name="Uacute" unicode="&#xda;" horiz-adv-x="653" 
d="M333 -10q-70 0 -124 23t-83.5 73t-29.5 132v383q0 28 -8.5 41t-22 17t-31.5 4h-20v51h305v-51h-19q-17 0 -31 -4.5t-22.5 -18t-8.5 -43.5v-387q0 -85 34.5 -118t94.5 -33q38 0 65.5 17.5t43 52t15.5 84.5v388q0 28 -8 41t-21.5 17t-31.5 4h-19v51h228v-51h-20
q-17 0 -31 -4.5t-22.5 -18t-8.5 -43.5v-386q0 -67 -23.5 -116.5t-73 -77t-127.5 -27.5zM272 784q14 22 30.5 47.5t32 51.5t23.5 48h142v-10q-8 -13 -27 -32.5t-43.5 -41t-50 -41.5t-46.5 -35h-61v13z" />
    <glyph glyph-name="Ucircumflex" unicode="&#xdb;" horiz-adv-x="653" 
d="M333 -10q-70 0 -124 23t-83.5 73t-29.5 132v383q0 28 -8.5 41t-22 17t-31.5 4h-20v51h305v-51h-19q-17 0 -31 -4.5t-22.5 -18t-8.5 -43.5v-387q0 -85 34.5 -118t94.5 -33q38 0 65.5 17.5t43 52t15.5 84.5v388q0 28 -8 41t-21.5 17t-31.5 4h-19v51h228v-51h-20
q-17 0 -31 -4.5t-22.5 -18t-8.5 -43.5v-386q0 -67 -23.5 -116.5t-73 -77t-127.5 -27.5zM193 784q14 19 33 45t37 53t27 49h121q9 -22 26.5 -49t37 -53t32.5 -45v-13h-62q-11 12 -28.5 29t-35.5 35t-31 32q-14 -15 -31.5 -32t-34 -33.5t-29.5 -30.5h-62v13z" />
    <glyph glyph-name="Udieresis" unicode="&#xdc;" horiz-adv-x="653" 
d="M333 -10q-70 0 -124 23t-83.5 73t-29.5 132v383q0 28 -8.5 41t-22 17t-31.5 4h-20v51h305v-51h-19q-17 0 -31 -4.5t-22.5 -18t-8.5 -43.5v-387q0 -85 34.5 -118t94.5 -33q38 0 65.5 17.5t43 52t15.5 84.5v388q0 28 -8 41t-21.5 17t-31.5 4h-19v51h228v-51h-20
q-17 0 -31 -4.5t-22.5 -18t-8.5 -43.5v-386q0 -67 -23.5 -116.5t-73 -77t-127.5 -27.5zM442 792q-23 0 -40 14t-17 49t17 49t40 14q22 0 39.5 -14t17.5 -49t-17.5 -49t-39.5 -14zM264 792q-23 0 -40 14t-17 49t17 49t40 14q21 0 39 -14t18 -49t-18 -49t-39 -14z" />
    <glyph glyph-name="Yacute" unicode="&#xdd;" horiz-adv-x="609" 
d="M143 0v51h26q20 0 34.5 5t22.5 20t8 43v149l-160 342q-9 20 -16.5 31.5t-18 16.5t-27.5 5h-12v51h296v-51h-13q-26 0 -39.5 -11.5t-13.5 -30.5q0 -11 3.5 -26t9.5 -28l65 -139q13 -29 21.5 -52.5t15.5 -46.5q9 24 21.5 53t25.5 61l50 113q9 21 12.5 37t3.5 24
q0 26 -14.5 36t-43.5 10h-19v51h229v-51h-10q-15 0 -26 -6.5t-21.5 -23t-25.5 -47.5l-148 -318v-148q0 -29 8 -44t21 -20t29 -5h33v-51h-327zM256 784q14 22 30.5 47.5t32 51.5t23.5 48h142v-10q-8 -13 -27 -32.5t-43.5 -41t-50 -41.5t-46.5 -35h-61v13z" />
    <glyph glyph-name="Thorn" unicode="&#xde;" horiz-adv-x="559" 
d="M24 0v51h34q12 0 23 5t17.5 18t6.5 36v491q0 25 -6.5 38t-17.5 18.5t-23 5.5h-34v51h309v-51h-38q-13 0 -24 -5.5t-17 -18.5t-6 -37v-21h45q123 0 182 -56t59 -154q0 -59 -25.5 -111t-82.5 -83.5t-152 -31.5h-26v-33q0 -22 6.5 -36t17 -19.5t23.5 -5.5h38v-51h-309z
M273 200q38 0 62 16.5t35.5 53.5t11.5 97q0 81 -23.5 118.5t-80.5 37.5h-30v-323h25z" />
    <glyph glyph-name="germandbls" unicode="&#xdf;" horiz-adv-x="620" 
d="M412 -10q-51 0 -84.5 14.5t-50.5 41t-17 59.5q0 25 8.5 39t22.5 20.5t30 6.5q5 -37 16.5 -66t30.5 -44.5t46 -15.5q26 0 41.5 19.5t15.5 57.5q0 22 -8.5 40.5t-27.5 36t-53 36.5q-36 22 -60.5 43.5t-36.5 49.5t-12 67q0 48 19 79.5t50.5 48t71.5 19.5q0 62 -10.5 100
t-32 55.5t-54.5 17.5q-29 0 -50.5 -15.5t-33 -47t-11.5 -77.5v-575h-218v51h41q12 0 21.5 4.5t14.5 18.5t5 43v353h-71v66h71v15q0 81 30.5 128.5t82.5 68t117 20.5q84 0 133 -30.5t71 -92t22 -152.5h-57q-29 0 -50 -8t-32.5 -25t-11.5 -43q0 -22 8 -38t26 -30t47 -32
q34 -20 59.5 -44t40 -53.5t14.5 -67.5q0 -79 -46 -120.5t-128 -41.5z" />
    <glyph glyph-name="agrave" unicode="&#xe0;" horiz-adv-x="526" 
d="M175 -10q-38 0 -69 17.5t-49.5 54t-18.5 91.5q0 81 48.5 119t146.5 42l71 3v57q0 37 -5 62.5t-17.5 39.5t-35.5 14q-21 0 -34 -13t-18.5 -37t-5.5 -58q-57 0 -85 15.5t-28 49.5q0 35 24.5 57.5t65.5 33t92 10.5q92 0 138.5 -38t46.5 -132v-256q0 -28 5 -43t16.5 -21.5
t31.5 -6.5h3v-51h-167l-18 72h-8q-19 -26 -36 -44.5t-39 -28t-55 -9.5zM226 57q25 0 42.5 17t27 47.5t9.5 69.5v77l-37 -3q-33 -3 -53 -16.5t-28 -38.5t-8 -62q0 -29 5 -49.5t15.5 -31t26.5 -10.5zM265 606q-21 14 -46 33.5t-49.5 41.5t-43.5 42t-27 33v10h141
q9 -22 24.5 -49t32.5 -53t30 -45v-13h-62z" />
    <glyph glyph-name="aacute" unicode="&#xe1;" horiz-adv-x="526" 
d="M175 -10q-38 0 -69 17.5t-49.5 54t-18.5 91.5q0 81 48.5 119t146.5 42l71 3v57q0 37 -5 62.5t-17.5 39.5t-35.5 14q-21 0 -34 -13t-18.5 -37t-5.5 -58q-57 0 -85 15.5t-28 49.5q0 35 24.5 57.5t65.5 33t92 10.5q92 0 138.5 -38t46.5 -132v-256q0 -28 5 -43t16.5 -21.5
t31.5 -6.5h3v-51h-167l-18 72h-8q-19 -26 -36 -44.5t-39 -28t-55 -9.5zM226 57q25 0 42.5 17t27 47.5t9.5 69.5v77l-37 -3q-33 -3 -53 -16.5t-28 -38.5t-8 -62q0 -29 5 -49.5t15.5 -31t26.5 -10.5zM197 619q14 22 30.5 47.5t32 51.5t23.5 48h142v-10q-8 -13 -27 -32.5
t-43.5 -41t-50 -41.5t-46.5 -35h-61v13z" />
    <glyph glyph-name="acircumflex" unicode="&#xe2;" horiz-adv-x="526" 
d="M175 -10q-38 0 -69 17.5t-49.5 54t-18.5 91.5q0 81 48.5 119t146.5 42l71 3v57q0 37 -5 62.5t-17.5 39.5t-35.5 14q-21 0 -34 -13t-18.5 -37t-5.5 -58q-57 0 -85 15.5t-28 49.5q0 35 24.5 57.5t65.5 33t92 10.5q92 0 138.5 -38t46.5 -132v-256q0 -28 5 -43t16.5 -21.5
t31.5 -6.5h3v-51h-167l-18 72h-8q-19 -26 -36 -44.5t-39 -28t-55 -9.5zM226 57q25 0 42.5 17t27 47.5t9.5 69.5v77l-37 -3q-33 -3 -53 -16.5t-28 -38.5t-8 -62q0 -29 5 -49.5t15.5 -31t26.5 -10.5zM109 619q14 19 33 45t37 53t27 49h121q9 -22 26.5 -49t37 -53t32.5 -45v-13
h-62q-11 12 -28.5 29t-35.5 35t-31 32q-14 -15 -31.5 -32t-34 -33.5t-29.5 -30.5h-62v13z" />
    <glyph glyph-name="atilde" unicode="&#xe3;" horiz-adv-x="526" 
d="M175 -10q-38 0 -69 17.5t-49.5 54t-18.5 91.5q0 81 48.5 119t146.5 42l71 3v57q0 37 -5 62.5t-17.5 39.5t-35.5 14q-21 0 -34 -13t-18.5 -37t-5.5 -58q-57 0 -85 15.5t-28 49.5q0 35 24.5 57.5t65.5 33t92 10.5q92 0 138.5 -38t46.5 -132v-256q0 -28 5 -43t16.5 -21.5
t31.5 -6.5h3v-51h-167l-18 72h-8q-19 -26 -36 -44.5t-39 -28t-55 -9.5zM226 57q25 0 42.5 17t27 47.5t9.5 69.5v77l-37 -3q-33 -3 -53 -16.5t-28 -38.5t-8 -62q0 -29 5 -49.5t15.5 -31t26.5 -10.5zM327 606q-23 0 -42 9.5t-35 22t-30.5 22t-29.5 9.5q-18 0 -29 -16.5
t-13 -36.5h-59q2 38 17 70.5t39.5 52t55.5 19.5q23 0 42 -9.5t35 -22t30.5 -22t28.5 -9.5q17 0 28.5 16.5t14.5 36.5h57q-1 -39 -16 -71t-38.5 -51.5t-55.5 -19.5z" />
    <glyph glyph-name="adieresis" unicode="&#xe4;" horiz-adv-x="526" 
d="M175 -10q-38 0 -69 17.5t-49.5 54t-18.5 91.5q0 81 48.5 119t146.5 42l71 3v57q0 37 -5 62.5t-17.5 39.5t-35.5 14q-21 0 -34 -13t-18.5 -37t-5.5 -58q-57 0 -85 15.5t-28 49.5q0 35 24.5 57.5t65.5 33t92 10.5q92 0 138.5 -38t46.5 -132v-256q0 -28 5 -43t16.5 -21.5
t31.5 -6.5h3v-51h-167l-18 72h-8q-19 -26 -36 -44.5t-39 -28t-55 -9.5zM226 57q25 0 42.5 17t27 47.5t9.5 69.5v77l-37 -3q-33 -3 -53 -16.5t-28 -38.5t-8 -62q0 -29 5 -49.5t15.5 -31t26.5 -10.5zM351 627q-23 0 -40 14t-17 49t17 49t40 14q22 0 39.5 -14t17.5 -49
t-17.5 -49t-39.5 -14zM173 627q-23 0 -40 14t-17 49t17 49t40 14q21 0 39 -14t18 -49t-18 -49t-39 -14z" />
    <glyph glyph-name="aring" unicode="&#xe5;" horiz-adv-x="526" 
d="M175 -10q-38 0 -69 17.5t-49.5 54t-18.5 91.5q0 81 48.5 119t146.5 42l71 3v57q0 37 -5 62.5t-17.5 39.5t-35.5 14q-21 0 -34 -13t-18.5 -37t-5.5 -58q-57 0 -85 15.5t-28 49.5q0 35 24.5 57.5t65.5 33t92 10.5q92 0 138.5 -38t46.5 -132v-256q0 -28 5 -43t16.5 -21.5
t31.5 -6.5h3v-51h-167l-18 72h-8q-19 -26 -36 -44.5t-39 -28t-55 -9.5zM226 57q25 0 42.5 17t27 47.5t9.5 69.5v77l-37 -3q-33 -3 -53 -16.5t-28 -38.5t-8 -62q0 -29 5 -49.5t15.5 -31t26.5 -10.5zM264 596q-43 0 -73.5 28t-30.5 81t30.5 81t73.5 28q44 0 74.5 -28t30.5 -81
t-30.5 -81t-74.5 -28zM264 647q22 0 37 13.5t15 44.5t-15 44.5t-36 13.5q-22 0 -37.5 -13.5t-15.5 -44.5t15.5 -44.5t36.5 -13.5z" />
    <glyph glyph-name="ae" unicode="&#xe6;" horiz-adv-x="765" 
d="M184 -10q-41 0 -74 17t-52.5 53.5t-19.5 91.5q0 82 48.5 120t146.5 42l71 3v57q0 34 -4.5 60t-17 41t-34.5 15q-24 0 -37.5 -14t-18.5 -38.5t-5 -55.5q-60 0 -86 15.5t-26 50.5t24 57.5t64 32.5t86 10q34 0 60.5 -6.5t47.5 -19.5t36 -35q25 28 60 44.5t82 16.5
q58 0 101.5 -27.5t68 -81t24.5 -131.5v-49h-286q2 -68 15.5 -112.5t40.5 -65.5t67 -21q43 0 71.5 23.5t43.5 60.5q13 -4 22 -15t9 -27q0 -25 -18.5 -51t-57.5 -43.5t-103 -17.5t-110 26.5t-74 76.5q-16 -29 -39 -52.5t-54.5 -37t-71.5 -13.5zM226 57q24 0 41.5 16.5t27.5 47
t10 70.5v77l-37 -3q-33 -3 -53 -16.5t-28 -38.5t-8 -62q0 -30 5 -50t16 -30.5t26 -10.5zM592 319q0 78 -15 123t-52 45q-35 0 -57 -42.5t-23 -125.5h147z" />
    <glyph glyph-name="ccedilla" unicode="&#xe7;" horiz-adv-x="462" 
d="M258 -10q-64 0 -113.5 26.5t-77 87.5t-27.5 162q0 108 28.5 169.5t77.5 87t109 25.5q61 0 99.5 -13.5t57 -37t18.5 -53.5q0 -22 -9 -40t-34 -29t-73 -11q0 34 -5 62.5t-17 46t-33 17.5q-24 0 -42 -20t-28 -68t-10 -135q0 -68 10.5 -114.5t34 -70t60.5 -23.5q30 0 53.5 11
t41 30t26.5 41q12 -7 18 -17.5t6 -25.5q0 -24 -16 -49t-53 -42t-102 -17zM232 -237q-13 0 -36.5 3t-39.5 8v56q16 -4 32 -6t27 -2q26 0 40.5 10t14.5 38q0 29 -19 39t-47 13l18 87h49l-9 -44q28 -3 49.5 -14.5t33.5 -31t12 -46.5q0 -52 -35 -81t-90 -29z" />
    <glyph glyph-name="egrave" unicode="&#xe8;" horiz-adv-x="501" 
d="M268 -10q-113 0 -170.5 72.5t-57.5 202.5q0 141 57.5 212t160.5 71q96 0 151 -61t55 -180v-48h-285q2 -103 32.5 -151t89.5 -48q45 0 73 24.5t43 59.5q12 -4 21 -14.5t9 -27.5q0 -24 -18 -50.5t-57.5 -44t-103.5 -17.5zM328 319q0 78 -15.5 123t-51.5 45t-57.5 -43.5
t-22.5 -124.5h147zM276 606q-21 14 -46 33.5t-49.5 41.5t-43.5 42t-27 33v10h141q9 -22 24.5 -49t32.5 -53t30 -45v-13h-62z" />
    <glyph glyph-name="eacute" unicode="&#xe9;" horiz-adv-x="501" 
d="M268 -10q-113 0 -170.5 72.5t-57.5 202.5q0 141 57.5 212t160.5 71q96 0 151 -61t55 -180v-48h-285q2 -103 32.5 -151t89.5 -48q45 0 73 24.5t43 59.5q12 -4 21 -14.5t9 -27.5q0 -24 -18 -50.5t-57.5 -44t-103.5 -17.5zM328 319q0 78 -15.5 123t-51.5 45t-57.5 -43.5
t-22.5 -124.5h147zM200 619q14 22 30.5 47.5t32 51.5t23.5 48h142v-10q-8 -13 -27 -32.5t-43.5 -41t-50 -41.5t-46.5 -35h-61v13z" />
    <glyph glyph-name="ecircumflex" unicode="&#xea;" horiz-adv-x="501" 
d="M268 -10q-113 0 -170.5 72.5t-57.5 202.5q0 141 57.5 212t160.5 71q96 0 151 -61t55 -180v-48h-285q2 -103 32.5 -151t89.5 -48q45 0 73 24.5t43 59.5q12 -4 21 -14.5t9 -27.5q0 -24 -18 -50.5t-57.5 -44t-103.5 -17.5zM328 319q0 78 -15.5 123t-51.5 45t-57.5 -43.5
t-22.5 -124.5h147zM108 619q14 19 33 45t37 53t27 49h121q9 -22 26.5 -49t37 -53t32.5 -45v-13h-62q-11 12 -28.5 29t-35.5 35t-31 32q-14 -15 -31.5 -32t-34 -33.5t-29.5 -30.5h-62v13z" />
    <glyph glyph-name="edieresis" unicode="&#xeb;" horiz-adv-x="501" 
d="M268 -10q-113 0 -170.5 72.5t-57.5 202.5q0 141 57.5 212t160.5 71q96 0 151 -61t55 -180v-48h-285q2 -103 32.5 -151t89.5 -48q45 0 73 24.5t43 59.5q12 -4 21 -14.5t9 -27.5q0 -24 -18 -50.5t-57.5 -44t-103.5 -17.5zM328 319q0 78 -15.5 123t-51.5 45t-57.5 -43.5
t-22.5 -124.5h147zM348 627q-23 0 -40 14t-17 49t17 49t40 14q22 0 39.5 -14t17.5 -49t-17.5 -49t-39.5 -14zM170 627q-23 0 -40 14t-17 49t17 49t40 14q21 0 39 -14t18 -49t-18 -49t-39 -14z" />
    <glyph glyph-name="igrave" unicode="&#xec;" horiz-adv-x="309" 
d="M14 0v51h10q19 0 32.5 5.5t21.5 21.5t8 44v295q0 28 -8 42.5t-21.5 20t-30.5 5.5h-13v51h209v-413q0 -29 8 -45t22 -21.5t32 -5.5h10v-51h-280zM159 606q-21 14 -46 33.5t-49.5 41.5t-43.5 42t-27 33v10h141q9 -22 24.5 -49t32.5 -53t30 -45v-13h-62z" />
    <glyph glyph-name="iacute" unicode="&#xed;" horiz-adv-x="309" 
d="M14 0v51h10q19 0 32.5 5.5t21.5 21.5t8 44v295q0 28 -8 42.5t-21.5 20t-30.5 5.5h-13v51h209v-413q0 -29 8 -45t22 -21.5t32 -5.5h10v-51h-280zM82 619q14 22 30.5 47.5t32 51.5t23.5 48h142v-10q-8 -13 -27 -32.5t-43.5 -41t-50 -41.5t-46.5 -35h-61v13z" />
    <glyph glyph-name="icircumflex" unicode="&#xee;" horiz-adv-x="309" 
d="M14 0v51h10q19 0 32.5 5.5t21.5 21.5t8 44v295q0 28 -8 42.5t-21.5 20t-30.5 5.5h-13v51h209v-413q0 -29 8 -45t22 -21.5t32 -5.5h10v-51h-280zM-15 619q14 19 33 45t37 53t27 49h121q9 -22 26.5 -49t37 -53t32.5 -45v-13h-62q-11 12 -28.5 29t-35.5 35t-31 32
q-14 -15 -31.5 -32t-34 -33.5t-29.5 -30.5h-62v13z" />
    <glyph glyph-name="idieresis" unicode="&#xef;" horiz-adv-x="309" 
d="M14 0v51h10q19 0 32.5 5.5t21.5 21.5t8 44v295q0 28 -8 42.5t-21.5 20t-30.5 5.5h-13v51h209v-413q0 -29 8 -45t22 -21.5t32 -5.5h10v-51h-280zM230 627q-23 0 -40 14t-17 49t17 49t40 14q22 0 39.5 -14t17.5 -49t-17.5 -49t-39.5 -14zM52 627q-23 0 -40 14t-17 49t17 49
t40 14q21 0 39 -14t18 -49t-18 -49t-39 -14z" />
    <glyph glyph-name="eth" unicode="&#xf0;" horiz-adv-x="537" 
d="M266 -10q-71 0 -121.5 30t-77.5 88.5t-27 144.5q0 133 53.5 198.5t149.5 65.5q22 0 41.5 -4.5t35 -12t25.5 -17.5q-10 37 -29.5 71.5t-48.5 61.5l-119 -68v62l72 44q-21 16 -47 27t-49 17v63q39 -8 83.5 -22.5t87.5 -42.5l110 66v-64l-56 -38q69 -59 108 -151.5
t39 -220.5q0 -101 -26 -167t-77 -98.5t-127 -32.5zM269 51q48 0 68.5 51.5t20.5 150.5q0 68 -9 113t-28.5 66.5t-52.5 21.5q-32 0 -51.5 -21.5t-28 -65.5t-8.5 -114q0 -99 20.5 -150.5t68.5 -51.5z" />
    <glyph glyph-name="ntilde" unicode="&#xf1;" horiz-adv-x="583" 
d="M16 0v51h5q20 0 34.5 4.5t22.5 19.5t8 46v299q0 28 -7.5 42t-21 18.5t-32.5 4.5h-4v51h187l12 -73h4q20 42 50.5 63.5t82.5 21.5q70 0 106.5 -46t36.5 -148v-232q0 -31 6 -46t18.5 -20t32.5 -5h4v-51h-198v333q0 64 -13.5 100t-50.5 36q-28 0 -45 -22.5t-24 -58.5t-7 -77
v-195q0 -28 7 -42t20.5 -18.5t32.5 -4.5h4v-51h-271zM348 606q-23 0 -42 9.5t-35 22t-30.5 22t-29.5 9.5q-18 0 -29 -16.5t-13 -36.5h-59q2 38 17 70.5t39.5 52t55.5 19.5q23 0 42 -9.5t35 -22t30.5 -22t28.5 -9.5q17 0 28.5 16.5t14.5 36.5h57q-1 -39 -16 -71t-38.5 -51.5
t-55.5 -19.5z" />
    <glyph glyph-name="ograve" unicode="&#xf2;" horiz-adv-x="537" 
d="M267 -10q-106 0 -166.5 69.5t-60.5 210.5q0 140 58.5 209t171.5 69q105 0 165.5 -69t60.5 -209q0 -141 -57.5 -210.5t-171.5 -69.5zM269 51q32 0 51.5 25t28 73.5t8.5 120.5q0 108 -20 162.5t-69 54.5q-48 0 -68 -54.5t-20 -162.5t20.5 -163.5t68.5 -55.5zM264 606
q-21 14 -46 33.5t-49.5 41.5t-43.5 42t-27 33v10h141q9 -22 24.5 -49t32.5 -53t30 -45v-13h-62z" />
    <glyph glyph-name="oacute" unicode="&#xf3;" horiz-adv-x="537" 
d="M267 -10q-106 0 -166.5 69.5t-60.5 210.5q0 140 58.5 209t171.5 69q105 0 165.5 -69t60.5 -209q0 -141 -57.5 -210.5t-171.5 -69.5zM269 51q32 0 51.5 25t28 73.5t8.5 120.5q0 108 -20 162.5t-69 54.5q-48 0 -68 -54.5t-20 -162.5t20.5 -163.5t68.5 -55.5zM213 619
q14 22 30.5 47.5t32 51.5t23.5 48h142v-10q-8 -13 -27 -32.5t-43.5 -41t-50 -41.5t-46.5 -35h-61v13z" />
    <glyph glyph-name="ocircumflex" unicode="&#xf4;" horiz-adv-x="537" 
d="M267 -10q-106 0 -166.5 69.5t-60.5 210.5q0 140 58.5 209t171.5 69q105 0 165.5 -69t60.5 -209q0 -141 -57.5 -210.5t-171.5 -69.5zM269 51q32 0 51.5 25t28 73.5t8.5 120.5q0 108 -20 162.5t-69 54.5q-48 0 -68 -54.5t-20 -162.5t20.5 -163.5t68.5 -55.5zM111 619
q14 19 33 45t37 53t27 49h121q9 -22 26.5 -49t37 -53t32.5 -45v-13h-62q-11 12 -28.5 29t-35.5 35t-31 32q-14 -15 -31.5 -32t-34 -33.5t-29.5 -30.5h-62v13z" />
    <glyph glyph-name="otilde" unicode="&#xf5;" horiz-adv-x="537" 
d="M267 -10q-106 0 -166.5 69.5t-60.5 210.5q0 140 58.5 209t171.5 69q105 0 165.5 -69t60.5 -209q0 -141 -57.5 -210.5t-171.5 -69.5zM269 51q32 0 51.5 25t28 73.5t8.5 120.5q0 108 -20 162.5t-69 54.5q-48 0 -68 -54.5t-20 -162.5t20.5 -163.5t68.5 -55.5zM330 606
q-23 0 -42 9.5t-35 22t-30.5 22t-29.5 9.5q-18 0 -29 -16.5t-13 -36.5h-59q2 38 17 70.5t39.5 52t55.5 19.5q23 0 42 -9.5t35 -22t30.5 -22t28.5 -9.5q17 0 28.5 16.5t14.5 36.5h57q-1 -39 -16 -71t-38.5 -51.5t-55.5 -19.5z" />
    <glyph glyph-name="odieresis" unicode="&#xf6;" horiz-adv-x="537" 
d="M267 -10q-106 0 -166.5 69.5t-60.5 210.5q0 140 58.5 209t171.5 69q105 0 165.5 -69t60.5 -209q0 -141 -57.5 -210.5t-171.5 -69.5zM269 51q32 0 51.5 25t28 73.5t8.5 120.5q0 108 -20 162.5t-69 54.5q-48 0 -68 -54.5t-20 -162.5t20.5 -163.5t68.5 -55.5zM356 627
q-23 0 -40 14t-17 49t17 49t40 14q22 0 39.5 -14t17.5 -49t-17.5 -49t-39.5 -14zM178 627q-23 0 -40 14t-17 49t17 49t40 14q21 0 39 -14t18 -49t-18 -49t-39 -14z" />
    <glyph glyph-name="divide" unicode="&#xf7;" horiz-adv-x="467" 
d="M45 324v67h377v-67h-377zM234 107q-22 0 -36.5 13t-14.5 46q0 34 14.5 47t36.5 13q21 0 35.5 -13t14.5 -47q0 -33 -15 -46t-35 -13zM234 489q-22 0 -36.5 13.5t-14.5 46.5q0 34 14.5 46.5t36.5 12.5q21 0 35.5 -12.5t14.5 -46.5q0 -33 -15 -46.5t-35 -13.5z" />
    <glyph glyph-name="oslash" unicode="&#xf8;" horiz-adv-x="537" 
d="M118 44q-38 35 -58 91t-20 135q0 140 58.5 209t171.5 69q61 0 108 -26l27 54h62l-44 -86q35 -34 54 -89t19 -131q0 -141 -58 -210.5t-171 -69.5q-30 0 -55 6t-47 17l-28 -53h-62zM269 51q33 0 52 24.5t28 73t9 119.5q0 31 -2 57t-6 48l-144 -286q11 -18 26 -27t37 -9z
M333 446q-11 21 -26.5 31t-38.5 10q-48 0 -69 -54.5t-21 -162.5q0 -34 2.5 -63t6.5 -52z" />
    <glyph glyph-name="ugrave" unicode="&#xf9;" horiz-adv-x="584" 
d="M229 -10q-76 0 -111.5 48t-35.5 149v229q0 29 -5.5 43.5t-17 20t-33.5 5.5h-3v51h197v-326q0 -46 5.5 -77t19 -47t38.5 -16q28 0 44.5 19.5t24.5 54t8 81.5v194q0 30 -7 44t-19.5 18t-29.5 4h-3v51h196v-421q0 -29 7 -43t20.5 -17.5t29.5 -3.5h8v-51h-177l-20 73h-5
q-21 -44 -53 -63.5t-78 -19.5zM270 606q-21 14 -46 33.5t-49.5 41.5t-43.5 42t-27 33v10h141q9 -22 24.5 -49t32.5 -53t30 -45v-13h-62z" />
    <glyph glyph-name="uacute" unicode="&#xfa;" horiz-adv-x="584" 
d="M229 -10q-76 0 -111.5 48t-35.5 149v229q0 29 -5.5 43.5t-17 20t-33.5 5.5h-3v51h197v-326q0 -46 5.5 -77t19 -47t38.5 -16q28 0 44.5 19.5t24.5 54t8 81.5v194q0 30 -7 44t-19.5 18t-29.5 4h-3v51h196v-421q0 -29 7 -43t20.5 -17.5t29.5 -3.5h8v-51h-177l-20 73h-5
q-21 -44 -53 -63.5t-78 -19.5zM222 619q14 22 30.5 47.5t32 51.5t23.5 48h142v-10q-8 -13 -27 -32.5t-43.5 -41t-50 -41.5t-46.5 -35h-61v13z" />
    <glyph glyph-name="ucircumflex" unicode="&#xfb;" horiz-adv-x="584" 
d="M229 -10q-76 0 -111.5 48t-35.5 149v229q0 29 -5.5 43.5t-17 20t-33.5 5.5h-3v51h197v-326q0 -46 5.5 -77t19 -47t38.5 -16q28 0 44.5 19.5t24.5 54t8 81.5v194q0 30 -7 44t-19.5 18t-29.5 4h-3v51h196v-421q0 -29 7 -43t20.5 -17.5t29.5 -3.5h8v-51h-177l-20 73h-5
q-21 -44 -53 -63.5t-78 -19.5zM124 619q14 19 33 45t37 53t27 49h121q9 -22 26.5 -49t37 -53t32.5 -45v-13h-62q-11 12 -28.5 29t-35.5 35t-31 32q-14 -15 -31.5 -32t-34 -33.5t-29.5 -30.5h-62v13z" />
    <glyph glyph-name="udieresis" unicode="&#xfc;" horiz-adv-x="584" 
d="M229 -10q-76 0 -111.5 48t-35.5 149v229q0 29 -5.5 43.5t-17 20t-33.5 5.5h-3v51h197v-326q0 -46 5.5 -77t19 -47t38.5 -16q28 0 44.5 19.5t24.5 54t8 81.5v194q0 30 -7 44t-19.5 18t-29.5 4h-3v51h196v-421q0 -29 7 -43t20.5 -17.5t29.5 -3.5h8v-51h-177l-20 73h-5
q-21 -44 -53 -63.5t-78 -19.5zM372 627q-23 0 -40 14t-17 49t17 49t40 14q22 0 39.5 -14t17.5 -49t-17.5 -49t-39.5 -14zM194 627q-23 0 -40 14t-17 49t17 49t40 14q21 0 39 -14t18 -49t-18 -49t-39 -14z" />
    <glyph glyph-name="yacute" unicode="&#xfd;" horiz-adv-x="505" 
d="M23 -174q45 0 76.5 12t53.5 34t36.5 53t24.5 68l-155 444q-7 20 -14.5 30.5t-16.5 14t-24 3.5h-4v51h254v-51h-4q-28 0 -39.5 -9t-11.5 -26q0 -10 2.5 -23t7.5 -29l50 -161q8 -25 14 -48.5t10 -43t5 -34.5q4 25 9.5 48.5t12.5 46.5l53 190q4 11 6.5 26.5t2.5 27.5
q0 20 -12 27t-38 8h-4v51h187v-51h-3q-16 0 -27.5 -6t-21 -22t-18.5 -43l-131 -411q-22 -70 -42.5 -115t-47 -71t-68.5 -36t-108 -10h-15v55zM193 619q14 22 30.5 47.5t32 51.5t23.5 48h142v-10q-8 -13 -27 -32.5t-43.5 -41t-50 -41.5t-46.5 -35h-61v13z" />
    <glyph glyph-name="thorn" unicode="&#xfe;" horiz-adv-x="564" 
d="M10 -240v51h11q19 0 32.5 5t21 20t7.5 43v760q0 31 -7 46t-19.5 19.5t-28.5 4.5h-7v51h200v-187q0 -19 -1 -43t-2 -44.5t-3 -29.5h3q19 42 48.5 66t79.5 24q87 0 133 -67t46 -212t-45 -212t-130 -67q-50 0 -80 22t-49 60h-4q1 -7 1.5 -20t1 -29.5t1 -34.5t0.5 -35v-72
q0 -29 8 -44t21.5 -19.5t30.5 -4.5h18v-51h-288zM305 57q43 0 61.5 53t18.5 157q0 101 -18 155.5t-60 54.5q-34 0 -53 -25t-26.5 -71.5t-7.5 -112.5q0 -70 7.5 -117t26.5 -70.5t51 -23.5z" />
    <glyph glyph-name="ydieresis" unicode="&#xff;" horiz-adv-x="505" 
d="M23 -174q45 0 76.5 12t53.5 34t36.5 53t24.5 68l-155 444q-7 20 -14.5 30.5t-16.5 14t-24 3.5h-4v51h254v-51h-4q-28 0 -39.5 -9t-11.5 -26q0 -10 2.5 -23t7.5 -29l50 -161q8 -25 14 -48.5t10 -43t5 -34.5q4 25 9.5 48.5t12.5 46.5l53 190q4 11 6.5 26.5t2.5 27.5
q0 20 -12 27t-38 8h-4v51h187v-51h-3q-16 0 -27.5 -6t-21 -22t-18.5 -43l-131 -411q-22 -70 -42.5 -115t-47 -71t-68.5 -36t-108 -10h-15v55zM360 627q-23 0 -40 14t-17 49t17 49t40 14q22 0 39.5 -14t17.5 -49t-17.5 -49t-39.5 -14zM182 627q-23 0 -40 14t-17 49t17 49
t40 14q21 0 39 -14t18 -49t-18 -49t-39 -14z" />
    <glyph glyph-name="Amacron" unicode="&#x100;" horiz-adv-x="660" 
d="M4 0v51h10q16 0 28 5.5t22.5 21.5t19.5 46l188 590h125l185 -606q7 -21 16.5 -34t22.5 -18t29 -5h10v-51h-292v51h29q19 0 30.5 8.5t11.5 27.5q0 8 -1.5 17t-3.5 18t-5 16l-28 98h-210l-24 -85q-2 -8 -4.5 -19t-4.5 -22t-2 -20q0 -18 9.5 -28.5t32.5 -10.5h34v-51h-228z
M210 295h173l-51 189q-6 24 -12.5 46.5t-11.5 44.5t-9 42q-4 -20 -9.5 -41.5l-11 -43t-12.5 -43.5zM202 773v75h253v-75h-253z" />
    <glyph glyph-name="amacron" unicode="&#x101;" horiz-adv-x="526" 
d="M175 -10q-38 0 -69 17.5t-49.5 54t-18.5 91.5q0 81 48.5 119t146.5 42l71 3v57q0 37 -5 62.5t-17.5 39.5t-35.5 14q-21 0 -34 -13t-18.5 -37t-5.5 -58q-57 0 -85 15.5t-28 49.5q0 35 24.5 57.5t65.5 33t92 10.5q92 0 138.5 -38t46.5 -132v-256q0 -28 5 -43t16.5 -21.5
t31.5 -6.5h3v-51h-167l-18 72h-8q-19 -26 -36 -44.5t-39 -28t-55 -9.5zM226 57q25 0 42.5 17t27 47.5t9.5 69.5v77l-37 -3q-33 -3 -53 -16.5t-28 -38.5t-8 -62q0 -29 5 -49.5t15.5 -31t26.5 -10.5zM138 608v75h253v-75h-253z" />
    <glyph glyph-name="Abreve" unicode="&#x102;" horiz-adv-x="660" 
d="M4 0v51h10q16 0 28 5.5t22.5 21.5t19.5 46l188 590h125l185 -606q7 -21 16.5 -34t22.5 -18t29 -5h10v-51h-292v51h29q19 0 30.5 8.5t11.5 27.5q0 8 -1.5 17t-3.5 18t-5 16l-28 98h-210l-24 -85q-2 -8 -4.5 -19t-4.5 -22t-2 -20q0 -18 9.5 -28.5t32.5 -10.5h34v-51h-228z
M210 295h173l-51 189q-6 24 -12.5 46.5t-11.5 44.5t-9 42q-4 -20 -9.5 -41.5l-11 -43t-12.5 -43.5zM333 771q-46 0 -77 22.5t-47 57.5t-17 72h60q7 -36 28.5 -52t53.5 -16q31 0 52.5 16t28.5 52h59q-1 -37 -16.5 -72t-46.5 -57.5t-78 -22.5z" />
    <glyph glyph-name="abreve" unicode="&#x103;" horiz-adv-x="526" 
d="M175 -10q-38 0 -69 17.5t-49.5 54t-18.5 91.5q0 81 48.5 119t146.5 42l71 3v57q0 37 -5 62.5t-17.5 39.5t-35.5 14q-21 0 -34 -13t-18.5 -37t-5.5 -58q-57 0 -85 15.5t-28 49.5q0 35 24.5 57.5t65.5 33t92 10.5q92 0 138.5 -38t46.5 -132v-256q0 -28 5 -43t16.5 -21.5
t31.5 -6.5h3v-51h-167l-18 72h-8q-19 -26 -36 -44.5t-39 -28t-55 -9.5zM226 57q25 0 42.5 17t27 47.5t9.5 69.5v77l-37 -3q-33 -3 -53 -16.5t-28 -38.5t-8 -62q0 -29 5 -49.5t15.5 -31t26.5 -10.5zM248 606q-46 0 -77 22.5t-47 57.5t-17 72h60q7 -36 28.5 -52t53.5 -16
q31 0 52.5 16t28.5 52h59q-1 -37 -16.5 -72t-46.5 -57.5t-78 -22.5z" />
    <glyph glyph-name="Aogonek" unicode="&#x104;" horiz-adv-x="660" 
d="M4 0v51h10q16 0 28 5.5t22.5 21.5t19.5 46l188 590h125l185 -606q7 -21 16.5 -34t22.5 -18t29 -5h10v-51h-292v51h29q19 0 30.5 8.5t11.5 27.5q0 8 -1.5 17t-3.5 18t-5 16l-28 98h-210l-24 -85q-2 -8 -4.5 -19t-4.5 -22t-2 -20q0 -18 9.5 -28.5t32.5 -10.5h34v-51h-228z
M210 295h173l-51 189q-6 24 -12.5 46.5t-11.5 44.5t-9 42q-4 -20 -9.5 -41.5l-11 -43t-12.5 -43.5zM554 -237q-63 0 -96 25.5t-33 81.5q0 32 14.5 59t37.5 45.5t48 25.5h70q-19 -6 -37.5 -22.5t-31 -40t-12.5 -55.5q0 -28 16.5 -41.5t42.5 -13.5q12 0 25.5 2.5t29.5 7.5v-59
q-9 -4 -23 -7.5t-27.5 -5.5t-23.5 -2z" />
    <glyph glyph-name="aogonek" unicode="&#x105;" horiz-adv-x="526" 
d="M175 -10q-38 0 -69 17.5t-49.5 54t-18.5 91.5q0 81 48.5 119t146.5 42l71 3v57q0 37 -5 62.5t-17.5 39.5t-35.5 14q-21 0 -34 -13t-18.5 -37t-5.5 -58q-57 0 -85 15.5t-28 49.5q0 35 24.5 57.5t65.5 33t92 10.5q92 0 138.5 -38t46.5 -132v-256q0 -28 5 -43t16.5 -21.5
t31.5 -6.5h3v-51h-167l-18 72h-8q-19 -26 -36 -44.5t-39 -28t-55 -9.5zM226 57q25 0 42.5 17t27 47.5t9.5 69.5v77l-37 -3q-33 -3 -53 -16.5t-28 -38.5t-8 -62q0 -29 5 -49.5t15.5 -31t26.5 -10.5zM360 -237q-63 0 -96 25.5t-33 81.5q0 32 14.5 59t37.5 45.5t48 25.5h70
q-19 -6 -37.5 -22.5t-31 -40t-12.5 -55.5q0 -28 16.5 -41.5t42.5 -13.5q12 0 25.5 2.5t29.5 7.5v-59q-9 -4 -23 -7.5t-27.5 -5.5t-23.5 -2z" />
    <glyph glyph-name="Cacute" unicode="&#x106;" horiz-adv-x="587" 
d="M345 -10q-98 0 -164.5 46t-99.5 128.5t-33 193.5q0 109 34 191.5t101.5 128.5t166.5 46q67 0 111.5 -16t67 -42t22.5 -58q0 -36 -28 -59t-83 -23q0 33 -9 64t-30.5 51.5t-58.5 20.5q-53 0 -84.5 -36t-45 -104t-13.5 -164q0 -98 17 -164t54.5 -98.5t98.5 -32.5
q46 0 77.5 14.5t53.5 37t37 45.5q6 -6 10 -18t4 -23q0 -20 -10 -42.5t-33 -42t-63 -32t-100 -12.5zM284 784q14 22 30.5 47.5t32 51.5t23.5 48h142v-10q-8 -13 -27 -32.5t-43.5 -41t-50 -41.5t-46.5 -35h-61v13z" />
    <glyph glyph-name="cacute" unicode="&#x107;" horiz-adv-x="462" 
d="M258 -10q-64 0 -113.5 26.5t-77 87.5t-27.5 162q0 108 28.5 169.5t77.5 87t109 25.5q61 0 99.5 -13.5t57 -37t18.5 -53.5q0 -22 -9 -40t-34 -29t-73 -11q0 34 -5 62.5t-17 46t-33 17.5q-24 0 -42 -20t-28 -68t-10 -135q0 -68 10.5 -114.5t34 -70t60.5 -23.5q30 0 53.5 11
t41 30t26.5 41q12 -7 18 -17.5t6 -25.5q0 -24 -16 -49t-53 -42t-102 -17zM188 619q14 22 30.5 47.5t32 51.5t23.5 48h142v-10q-8 -13 -27 -32.5t-43.5 -41t-50 -41.5t-46.5 -35h-61v13z" />
    <glyph glyph-name="Ccircumflex" unicode="&#x108;" horiz-adv-x="587" 
d="M345 -10q-98 0 -164.5 46t-99.5 128.5t-33 193.5q0 109 34 191.5t101.5 128.5t166.5 46q67 0 111.5 -16t67 -42t22.5 -58q0 -36 -28 -59t-83 -23q0 33 -9 64t-30.5 51.5t-58.5 20.5q-53 0 -84.5 -36t-45 -104t-13.5 -164q0 -98 17 -164t54.5 -98.5t98.5 -32.5
q46 0 77.5 14.5t53.5 37t37 45.5q6 -6 10 -18t4 -23q0 -20 -10 -42.5t-33 -42t-63 -32t-100 -12.5zM174 784q14 19 33 45t37 53t27 49h121q9 -22 26.5 -49t37 -53t32.5 -45v-13h-62q-11 12 -28.5 29t-35.5 35t-31 32q-14 -15 -31.5 -32t-34 -33.5t-29.5 -30.5h-62v13z" />
    <glyph glyph-name="ccircumflex" unicode="&#x109;" horiz-adv-x="462" 
d="M258 -10q-64 0 -113.5 26.5t-77 87.5t-27.5 162q0 108 28.5 169.5t77.5 87t109 25.5q61 0 99.5 -13.5t57 -37t18.5 -53.5q0 -22 -9 -40t-34 -29t-73 -11q0 34 -5 62.5t-17 46t-33 17.5q-24 0 -42 -20t-28 -68t-10 -135q0 -68 10.5 -114.5t34 -70t60.5 -23.5q30 0 53.5 11
t41 30t26.5 41q12 -7 18 -17.5t6 -25.5q0 -24 -16 -49t-53 -42t-102 -17zM94 619q14 19 33 45t37 53t27 49h121q9 -22 26.5 -49t37 -53t32.5 -45v-13h-62q-11 12 -28.5 29t-35.5 35t-31 32q-14 -15 -31.5 -32t-34 -33.5t-29.5 -30.5h-62v13z" />
    <glyph glyph-name="Cdotaccent" unicode="&#x10a;" horiz-adv-x="587" 
d="M345 -10q-98 0 -164.5 46t-99.5 128.5t-33 193.5q0 109 34 191.5t101.5 128.5t166.5 46q67 0 111.5 -16t67 -42t22.5 -58q0 -36 -28 -59t-83 -23q0 33 -9 64t-30.5 51.5t-58.5 20.5q-53 0 -84.5 -36t-45 -104t-13.5 -164q0 -98 17 -164t54.5 -98.5t98.5 -32.5
q46 0 77.5 14.5t53.5 37t37 45.5q6 -6 10 -18t4 -23q0 -20 -10 -42.5t-33 -42t-63 -32t-100 -12.5zM339 795q-32 0 -54 16.5t-22 51.5q0 36 22 52t54 16q31 0 54.5 -15.5t23.5 -52.5q0 -35 -23.5 -51.5t-54.5 -16.5z" />
    <glyph glyph-name="cdotaccent" unicode="&#x10b;" horiz-adv-x="462" 
d="M258 -10q-64 0 -113.5 26.5t-77 87.5t-27.5 162q0 108 28.5 169.5t77.5 87t109 25.5q61 0 99.5 -13.5t57 -37t18.5 -53.5q0 -22 -9 -40t-34 -29t-73 -11q0 34 -5 62.5t-17 46t-33 17.5q-24 0 -42 -20t-28 -68t-10 -135q0 -68 10.5 -114.5t34 -70t60.5 -23.5q30 0 53.5 11
t41 30t26.5 41q12 -7 18 -17.5t6 -25.5q0 -24 -16 -49t-53 -42t-102 -17zM252 630q-32 0 -54 16.5t-22 51.5q0 36 22 52t54 16q31 0 54.5 -15.5t23.5 -52.5q0 -35 -23.5 -51.5t-54.5 -16.5z" />
    <glyph glyph-name="Ccaron" unicode="&#x10c;" horiz-adv-x="587" 
d="M345 -10q-98 0 -164.5 46t-99.5 128.5t-33 193.5q0 109 34 191.5t101.5 128.5t166.5 46q67 0 111.5 -16t67 -42t22.5 -58q0 -36 -28 -59t-83 -23q0 33 -9 64t-30.5 51.5t-58.5 20.5q-53 0 -84.5 -36t-45 -104t-13.5 -164q0 -98 17 -164t54.5 -98.5t98.5 -32.5
q46 0 77.5 14.5t53.5 37t37 45.5q6 -6 10 -18t4 -23q0 -20 -10 -42.5t-33 -42t-63 -32t-100 -12.5zM272 771q-9 23 -27 49.5t-37 52.5t-33 45v13h62q13 -13 30 -29.5t34.5 -33.5t30.5 -33q13 16 30.5 33t35 33.5t29.5 29.5h62v-13q-13 -19 -32.5 -45t-37 -52.5t-26.5 -49.5
h-121z" />
    <glyph glyph-name="ccaron" unicode="&#x10d;" horiz-adv-x="462" 
d="M258 -10q-64 0 -113.5 26.5t-77 87.5t-27.5 162q0 108 28.5 169.5t77.5 87t109 25.5q61 0 99.5 -13.5t57 -37t18.5 -53.5q0 -22 -9 -40t-34 -29t-73 -11q0 34 -5 62.5t-17 46t-33 17.5q-24 0 -42 -20t-28 -68t-10 -135q0 -68 10.5 -114.5t34 -70t60.5 -23.5q30 0 53.5 11
t41 30t26.5 41q12 -7 18 -17.5t6 -25.5q0 -24 -16 -49t-53 -42t-102 -17zM193 606q-9 23 -27 49.5t-37 52.5t-33 45v13h62q13 -13 30 -29.5t34.5 -33.5t30.5 -33q13 16 30.5 33t35 33.5t29.5 29.5h62v-13q-13 -19 -32.5 -45t-37 -52.5t-26.5 -49.5h-121z" />
    <glyph glyph-name="Dcaron" unicode="&#x10e;" horiz-adv-x="671" 
d="M24 0v51h34q14 0 24.5 6t16.5 20t6 37v488q0 25 -7 38t-18 18t-27 5h-29v51h289q97 0 166.5 -39.5t107 -116.5t37.5 -191q0 -109 -35 -192t-104 -129t-172 -46h-289zM293 60q59 0 98.5 36.5t60 105.5t20.5 165q0 97 -20.5 161t-60 95.5t-97.5 31.5h-47v-595h46zM262 771
q-9 23 -27 49.5t-37 52.5t-33 45v13h62q13 -13 30 -29.5t34.5 -33.5t30.5 -33q13 16 30.5 33t35 33.5t29.5 29.5h62v-13q-13 -19 -32.5 -45t-37 -52.5t-26.5 -49.5h-121z" />
    <glyph glyph-name="dcaron" unicode="&#x10f;" horiz-adv-x="568" 
d="M528 613q6 21 13 46.5t13 52t10 48.5h102v-10q-7 -21 -21.5 -48t-30.5 -53.5t-31 -48.5h-55v13zM216 -10q-57 0 -96.5 29t-60 90.5t-20.5 157.5q0 97 20.5 159t60 91.5t95.5 29.5q49 0 78.5 -22t47.5 -56h5q-2 24 -2 53v58v66q0 28 -10 41.5t-26 17.5t-34 4h-8v51h215
v-634q0 -30 8 -46.5t22.5 -22.5t34.5 -6h8v-51h-176l-22 81h-4q-20 -42 -52.5 -66.5t-83.5 -24.5zM256 60q49 0 68.5 53.5t19.5 154.5q0 102 -18.5 156.5t-68.5 54.5q-29 0 -46 -24.5t-25 -71.5t-8 -116q0 -104 18 -155.5t60 -51.5z" />
    <glyph glyph-name="Dcroat" unicode="&#x110;" horiz-adv-x="671" 
d="M24 0v51h34q14 0 24.5 6t16.5 20t6 37v231h-71v57h71v200q0 25 -6.5 38t-18 18t-27.5 5h-29v51h290q96 0 166 -39t107 -116.5t37 -191.5q0 -109 -35 -192t-104 -129t-172 -46h-289zM293 60q59 0 98.5 36.5t60 105.5t20.5 165q0 97 -20.5 161t-60 95.5t-97.5 31.5h-47
v-253h105v-57h-105v-285h46z" />
    <glyph glyph-name="dcroat" unicode="&#x111;" horiz-adv-x="568" 
d="M217 -10q-57 0 -97 28.5t-60.5 87t-20.5 147.5t20.5 148t60 88t95.5 29q49 0 78.5 -21.5t47.5 -55.5h5q0 5 -1 17.5t-1 27.5v31v29v36h-134v49h134v15q0 28 -10 41.5t-26 17.5t-34 4h-8v51h215v-129h75v-49h-75v-456q0 -30 8 -46.5t22.5 -22.5t34.5 -6h8v-51h-176l-22 81
h-4q-20 -42 -52 -66.5t-83 -24.5zM256 60q34 0 53 23t27 66.5t8 104.5q0 91 -18.5 144t-68.5 53q-29 0 -46 -23.5t-25 -68t-8 -106.5q0 -95 18 -144t60 -49z" />
    <glyph glyph-name="Emacron" unicode="&#x112;" horiz-adv-x="571" 
d="M24 0v51h33q15 0 25.5 5.5t16.5 18.5t6 34v491q0 28 -7 41.5t-18 17.5t-25 4h-31v51h488l3 -182h-63l-4 46q-1 24 -8 41.5t-21 26.5t-37 9h-135v-253h207v-57h-207v-286h159q23 0 37 10t22 27.5t11 39.5l6 46h63l-6 -182h-515zM161 773v75h253v-75h-253z" />
    <glyph glyph-name="emacron" unicode="&#x113;" horiz-adv-x="501" 
d="M268 -10q-113 0 -170.5 72.5t-57.5 202.5q0 141 57.5 212t160.5 71q96 0 151 -61t55 -180v-48h-285q2 -103 32.5 -151t89.5 -48q45 0 73 24.5t43 59.5q12 -4 21 -14.5t9 -27.5q0 -24 -18 -50.5t-57.5 -44t-103.5 -17.5zM328 319q0 78 -15.5 123t-51.5 45t-57.5 -43.5
t-22.5 -124.5h147zM141 608v75h253v-75h-253z" />
    <glyph glyph-name="Ebreve" unicode="&#x114;" horiz-adv-x="571" 
d="M24 0v51h33q15 0 25.5 5.5t16.5 18.5t6 34v491q0 28 -7 41.5t-18 17.5t-25 4h-31v51h488l3 -182h-63l-4 46q-1 24 -8 41.5t-21 26.5t-37 9h-135v-253h207v-57h-207v-286h159q23 0 37 10t22 27.5t11 39.5l6 46h63l-6 -182h-515zM292 771q-46 0 -77 22.5t-47 57.5t-17 72
h60q7 -36 28.5 -52t53.5 -16q31 0 52.5 16t28.5 52h59q-1 -37 -16.5 -72t-46.5 -57.5t-78 -22.5z" />
    <glyph glyph-name="ebreve" unicode="&#x115;" horiz-adv-x="501" 
d="M268 -10q-113 0 -170.5 72.5t-57.5 202.5q0 141 57.5 212t160.5 71q96 0 151 -61t55 -180v-48h-285q2 -103 32.5 -151t89.5 -48q45 0 73 24.5t43 59.5q12 -4 21 -14.5t9 -27.5q0 -24 -18 -50.5t-57.5 -44t-103.5 -17.5zM328 319q0 78 -15.5 123t-51.5 45t-57.5 -43.5
t-22.5 -124.5h147zM258 606q-46 0 -77 22.5t-47 57.5t-17 72h60q7 -36 28.5 -52t53.5 -16q31 0 52.5 16t28.5 52h59q-1 -37 -16.5 -72t-46.5 -57.5t-78 -22.5z" />
    <glyph glyph-name="Edotaccent" unicode="&#x116;" horiz-adv-x="571" 
d="M24 0v51h33q15 0 25.5 5.5t16.5 18.5t6 34v491q0 28 -7 41.5t-18 17.5t-25 4h-31v51h488l3 -182h-63l-4 46q-1 24 -8 41.5t-21 26.5t-37 9h-135v-253h207v-57h-207v-286h159q23 0 37 10t22 27.5t11 39.5l6 46h63l-6 -182h-515zM289 781q-32 0 -54 16.5t-22 51.5
q0 36 22 52t54 16q31 0 54.5 -15.5t23.5 -52.5q0 -35 -23.5 -51.5t-54.5 -16.5z" />
    <glyph glyph-name="edotaccent" unicode="&#x117;" horiz-adv-x="501" 
d="M268 -10q-113 0 -170.5 72.5t-57.5 202.5q0 141 57.5 212t160.5 71q96 0 151 -61t55 -180v-48h-285q2 -103 32.5 -151t89.5 -48q45 0 73 24.5t43 59.5q12 -4 21 -14.5t9 -27.5q0 -24 -18 -50.5t-57.5 -44t-103.5 -17.5zM328 319q0 78 -15.5 123t-51.5 45t-57.5 -43.5
t-22.5 -124.5h147zM260 630q-32 0 -54 16.5t-22 51.5q0 36 22 52t54 16q31 0 54.5 -15.5t23.5 -52.5q0 -35 -23.5 -51.5t-54.5 -16.5z" />
    <glyph glyph-name="Eogonek" unicode="&#x118;" horiz-adv-x="571" 
d="M24 0v51h33q15 0 25.5 5.5t16.5 18.5t6 34v491q0 28 -7 41.5t-18 17.5t-25 4h-31v51h488l3 -182h-63l-4 46q-1 24 -8 41.5t-21 26.5t-37 9h-135v-253h207v-57h-207v-286h159q23 0 37 10t22 27.5t11 39.5l6 46h63l-6 -182h-515zM441 -240q-65 0 -98 26.5t-33 83.5
q0 31 14.5 58t38 46t50.5 26h69q-18 -6 -37 -21.5t-32 -38.5t-13 -55q0 -29 17.5 -42t43.5 -13q12 0 25.5 2t29.5 6v-62q-9 -5 -23 -8.5t-28 -5.5t-24 -2z" />
    <glyph glyph-name="eogonek" unicode="&#x119;" horiz-adv-x="500" 
d="M330 -241q-63 0 -96 25.5t-33 81.5q0 41 24.5 75t58.5 50q-4 -1 -8 -1h-8q-112 0 -170 72.5t-58 202.5q0 141 57.5 212.5t160.5 71.5q96 0 151 -61.5t55 -180.5v-48h-285q2 -103 32 -151t84 -48q45 0 76 24t46 58q13 -7 18.5 -18.5t5.5 -28.5q0 -14 -5 -29.5t-17 -29
t-37 -25.5q-30 -19 -51 -39t-31.5 -42.5t-10.5 -52.5q0 -28 17 -41t43 -13q12 0 25.5 2.5t28.5 7.5v-60q-8 -4 -22 -7.5t-28 -5t-23 -1.5zM328 319q0 79 -15.5 123.5t-51.5 44.5t-57.5 -43t-23.5 -125h148z" />
    <glyph glyph-name="Ecaron" unicode="&#x11a;" horiz-adv-x="571" 
d="M24 0v51h33q15 0 25.5 5.5t16.5 18.5t6 34v491q0 28 -7 41.5t-18 17.5t-25 4h-31v51h488l3 -182h-63l-4 46q-1 24 -8 41.5t-21 26.5t-37 9h-135v-253h207v-57h-207v-286h159q23 0 37 10t22 27.5t11 39.5l6 46h63l-6 -182h-515zM229 771q-9 23 -27 49.5t-37 52.5t-33 45
v13h62q13 -13 30 -29.5t34.5 -33.5t30.5 -33q13 16 30.5 33t35 33.5t29.5 29.5h62v-13q-13 -19 -32.5 -45t-37 -52.5t-26.5 -49.5h-121z" />
    <glyph glyph-name="ecaron" unicode="&#x11b;" horiz-adv-x="501" 
d="M268 -10q-113 0 -170.5 72.5t-57.5 202.5q0 141 57.5 212t160.5 71q96 0 151 -61t55 -180v-48h-285q2 -103 32.5 -151t89.5 -48q45 0 73 24.5t43 59.5q12 -4 21 -14.5t9 -27.5q0 -24 -18 -50.5t-57.5 -44t-103.5 -17.5zM328 319q0 78 -15.5 123t-51.5 45t-57.5 -43.5
t-22.5 -124.5h147zM195 606q-9 23 -27 49.5t-37 52.5t-33 45v13h62q13 -13 30 -29.5t34.5 -33.5t30.5 -33q13 16 30.5 33t35 33.5t29.5 29.5h62v-13q-13 -19 -32.5 -45t-37 -52.5t-26.5 -49.5h-121z" />
    <glyph glyph-name="Gcircumflex" unicode="&#x11c;" horiz-adv-x="674" 
d="M371 -10q-109 0 -180.5 46t-107 128.5t-35.5 193.5q0 108 37 190.5t109.5 129t180.5 46.5q72 0 121 -15t74 -41t25 -59q0 -34 -28.5 -58t-85.5 -24q0 39 -11.5 69.5t-36 48t-61.5 17.5q-61 0 -99.5 -34.5t-56 -102t-17.5 -167.5q0 -98 18 -165.5t58.5 -103t108.5 -35.5
q14 0 30 2t30 7v151q0 27 -6 42.5t-19.5 21.5t-33.5 6h-13v50h271v-50h-7q-18 0 -28.5 -6.5t-15.5 -22.5t-5 -45v-168q-51 -26 -103.5 -39t-112.5 -13zM201 784q14 19 33 45t37 53t27 49h121q9 -22 26.5 -49t37 -53t32.5 -45v-13h-62q-11 12 -28.5 29t-35.5 35t-31 32
q-14 -15 -31.5 -32t-34 -33.5t-29.5 -30.5h-62v13z" />
    <glyph glyph-name="gcircumflex" unicode="&#x11d;" horiz-adv-x="489" 
d="M206 -236q-104 0 -155 36t-51 102q0 36 15 62t42 42t61 20q-24 10 -45 29t-21 53q0 33 22 57t58 44q-41 17 -68.5 56.5t-27.5 97.5q0 88 46.5 136.5t143.5 48.5q34 0 60 -7.5t47 -21.5q13 14 26.5 27t30.5 22t39 9q29 0 43.5 -17t14.5 -40q0 -24 -13 -41.5t-46 -17.5
q0 21 -10 32t-21 11q-10 0 -17.5 -4t-14.5 -8q19 -20 33 -49.5t14 -74.5q0 -79 -45 -128.5t-141 -49.5q-10 0 -26 1t-24 4q-11 -7 -21 -21.5t-10 -33.5t12.5 -27.5t33.5 -8.5h100q59 0 96 -18.5t55.5 -52t18.5 -79.5q0 -88 -62.5 -139t-192.5 -51zM208 -179q50 0 82 13
t47.5 36.5t15.5 53.5q0 33 -17 49t-52 16h-102q-17 0 -34.5 -7t-29.5 -25.5t-12 -51.5q0 -26 12.5 -45t35.5 -29t54 -10zM224 246q27 0 41 14t19.5 41t5.5 64q0 39 -5.5 67.5t-20 43.5t-40.5 15q-25 0 -39.5 -15.5t-20.5 -44t-6 -67.5q0 -54 14 -86t52 -32zM69 619
q14 19 33 45t37 53t27 49h121q9 -22 26.5 -49t37 -53t32.5 -45v-13h-62q-11 12 -28.5 29t-35.5 35t-31 32q-14 -15 -31.5 -32t-34 -33.5t-29.5 -30.5h-62v13z" />
    <glyph glyph-name="Gbreve" unicode="&#x11e;" horiz-adv-x="674" 
d="M371 -10q-109 0 -180.5 46t-107 128.5t-35.5 193.5q0 108 37 190.5t109.5 129t180.5 46.5q72 0 121 -15t74 -41t25 -59q0 -34 -28.5 -58t-85.5 -24q0 39 -11.5 69.5t-36 48t-61.5 17.5q-61 0 -99.5 -34.5t-56 -102t-17.5 -167.5q0 -98 18 -165.5t58.5 -103t108.5 -35.5
q14 0 30 2t30 7v151q0 27 -6 42.5t-19.5 21.5t-33.5 6h-13v50h271v-50h-7q-18 0 -28.5 -6.5t-15.5 -22.5t-5 -45v-168q-51 -26 -103.5 -39t-112.5 -13zM357 771q-46 0 -77 22.5t-47 57.5t-17 72h60q7 -36 28.5 -52t53.5 -16q31 0 52.5 16t28.5 52h59q-1 -37 -16.5 -72
t-46.5 -57.5t-78 -22.5z" />
    <glyph glyph-name="gbreve" unicode="&#x11f;" horiz-adv-x="489" 
d="M206 -236q-104 0 -155 36t-51 102q0 36 15 62t42 42t61 20q-24 10 -45 29t-21 53q0 33 22 57t58 44q-41 17 -68.5 56.5t-27.5 97.5q0 88 46.5 136.5t143.5 48.5q34 0 60 -7.5t47 -21.5q13 14 26.5 27t30.5 22t39 9q29 0 43.5 -17t14.5 -40q0 -24 -13 -41.5t-46 -17.5
q0 21 -10 32t-21 11q-10 0 -17.5 -4t-14.5 -8q19 -20 33 -49.5t14 -74.5q0 -79 -45 -128.5t-141 -49.5q-10 0 -26 1t-24 4q-11 -7 -21 -21.5t-10 -33.5t12.5 -27.5t33.5 -8.5h100q59 0 96 -18.5t55.5 -52t18.5 -79.5q0 -88 -62.5 -139t-192.5 -51zM208 -179q50 0 82 13
t47.5 36.5t15.5 53.5q0 33 -17 49t-52 16h-102q-17 0 -34.5 -7t-29.5 -25.5t-12 -51.5q0 -26 12.5 -45t35.5 -29t54 -10zM224 246q27 0 41 14t19.5 41t5.5 64q0 39 -5.5 67.5t-20 43.5t-40.5 15q-25 0 -39.5 -15.5t-20.5 -44t-6 -67.5q0 -54 14 -86t52 -32zM222 606
q-46 0 -77 22.5t-47 57.5t-17 72h60q7 -36 28.5 -52t53.5 -16q31 0 52.5 16t28.5 52h59q-1 -37 -16.5 -72t-46.5 -57.5t-78 -22.5z" />
    <glyph glyph-name="Gdotaccent" unicode="&#x120;" horiz-adv-x="674" 
d="M371 -10q-109 0 -180.5 46t-107 128.5t-35.5 193.5q0 108 37 190.5t109.5 129t180.5 46.5q72 0 121 -15t74 -41t25 -59q0 -34 -28.5 -58t-85.5 -24q0 39 -11.5 69.5t-36 48t-61.5 17.5q-61 0 -99.5 -34.5t-56 -102t-17.5 -167.5q0 -98 18 -165.5t58.5 -103t108.5 -35.5
q14 0 30 2t30 7v151q0 27 -6 42.5t-19.5 21.5t-33.5 6h-13v50h271v-50h-7q-18 0 -28.5 -6.5t-15.5 -22.5t-5 -45v-168q-51 -26 -103.5 -39t-112.5 -13zM356 795q-32 0 -54 16.5t-22 51.5q0 36 22 52t54 16q31 0 54.5 -15.5t23.5 -52.5q0 -35 -23.5 -51.5t-54.5 -16.5z" />
    <glyph glyph-name="gdotaccent" unicode="&#x121;" horiz-adv-x="489" 
d="M206 -236q-104 0 -155 36t-51 102q0 36 15 62t42 42t61 20q-24 10 -45 29t-21 53q0 33 22 57t58 44q-41 17 -68.5 56.5t-27.5 97.5q0 88 46.5 136.5t143.5 48.5q34 0 60 -7.5t47 -21.5q13 14 26.5 27t30.5 22t39 9q29 0 43.5 -17t14.5 -40q0 -24 -13 -41.5t-46 -17.5
q0 21 -10 32t-21 11q-10 0 -17.5 -4t-14.5 -8q19 -20 33 -49.5t14 -74.5q0 -79 -45 -128.5t-141 -49.5q-10 0 -26 1t-24 4q-11 -7 -21 -21.5t-10 -33.5t12.5 -27.5t33.5 -8.5h100q59 0 96 -18.5t55.5 -52t18.5 -79.5q0 -88 -62.5 -139t-192.5 -51zM208 -179q50 0 82 13
t47.5 36.5t15.5 53.5q0 33 -17 49t-52 16h-102q-17 0 -34.5 -7t-29.5 -25.5t-12 -51.5q0 -26 12.5 -45t35.5 -29t54 -10zM224 246q27 0 41 14t19.5 41t5.5 64q0 39 -5.5 67.5t-20 43.5t-40.5 15q-25 0 -39.5 -15.5t-20.5 -44t-6 -67.5q0 -54 14 -86t52 -32zM223 630
q-32 0 -54 16.5t-22 51.5q0 36 22 52t54 16q31 0 54.5 -15.5t23.5 -52.5q0 -35 -23.5 -51.5t-54.5 -16.5z" />
    <glyph glyph-name="uni0122" unicode="&#x122;" horiz-adv-x="674" 
d="M371 -10q-109 0 -180.5 46t-107 128.5t-35.5 193.5q0 108 37 190.5t109.5 129t180.5 46.5q72 0 121 -15t74 -41t25 -59q0 -34 -28.5 -58t-85.5 -24q0 39 -11.5 69.5t-36 48t-61.5 17.5q-61 0 -99.5 -34.5t-56 -102t-17.5 -167.5q0 -98 18 -165.5t58.5 -103t108.5 -35.5
q14 0 30 2t30 7v151q0 27 -6 42.5t-19.5 21.5t-33.5 6h-13v50h271v-50h-7q-18 0 -28.5 -6.5t-15.5 -22.5t-5 -45v-168q-51 -26 -103.5 -39t-112.5 -13zM269 -208q5 21 12.5 46.5t13.5 52t9 48.5h101v-10q-8 -21 -22 -48t-30.5 -53.5t-31.5 -48.5h-52v13z" />
    <glyph glyph-name="uni0123" unicode="&#x123;" horiz-adv-x="489" 
d="M179 616q8 21 22.5 48t31 54t30.5 48h54v-13q-5 -20 -12 -46t-13 -52t-10 -49h-103v10zM206 -236q-104 0 -155 36t-51 102q0 36 15 62t42 42t61 20q-24 10 -45 29t-21 53q0 33 22 57t58 44q-41 17 -68.5 56.5t-27.5 97.5q0 88 46.5 136.5t143.5 48.5q34 0 60 -7.5
t47 -21.5q13 14 26.5 27t30.5 22t39 9q29 0 43.5 -17t14.5 -40q0 -24 -13 -41.5t-46 -17.5q0 21 -10 32t-21 11q-10 0 -17.5 -4t-14.5 -8q19 -20 33 -49.5t14 -74.5q0 -79 -45 -128.5t-141 -49.5q-10 0 -26 1t-24 4q-11 -7 -21 -21.5t-10 -33.5t12.5 -27.5t33.5 -8.5h100
q59 0 96 -18.5t55.5 -52t18.5 -79.5q0 -88 -62.5 -139t-192.5 -51zM208 -179q50 0 82 13t47.5 36.5t15.5 53.5q0 33 -17 49t-52 16h-102q-17 0 -34.5 -7t-29.5 -25.5t-12 -51.5q0 -26 12.5 -45t35.5 -29t54 -10zM224 246q27 0 41 14t19.5 41t5.5 64q0 39 -5.5 67.5t-20 43.5
t-40.5 15q-25 0 -39.5 -15.5t-20.5 -44t-6 -67.5q0 -54 14 -86t52 -32z" />
    <glyph glyph-name="Hcircumflex" unicode="&#x124;" horiz-adv-x="715" 
d="M24 0v51h34q14 0 24.5 6t16.5 19.5t6 34.5v491q0 24 -7 37.5t-19 18.5t-27 5h-28v51h293v-51h-25q-13 0 -23.5 -5t-15.5 -18t-5 -36v-202h221v200q0 24 -5.5 37.5t-16.5 18.5t-27 5h-21v51h293v-51h-34q-14 0 -24.5 -5t-16.5 -18.5t-6 -37.5v-491q0 -22 6 -35.5t17 -19
t24 -5.5h34v-51h-293v51h22q15 0 26 6t16.5 20t5.5 38v229h-221v-233q0 -21 5 -34.5t15.5 -19.5t23.5 -6h25v-51h-293zM201 784q14 19 33 45t37 53t27 49h121q9 -22 26.5 -49t37 -53t32.5 -45v-13h-62q-11 12 -28.5 29t-35.5 35t-31 32q-14 -15 -31.5 -32t-34 -33.5
t-29.5 -30.5h-62v13z" />
    <glyph glyph-name="hcircumflex" unicode="&#x125;" horiz-adv-x="584" 
d="M17 0v51h5q19 0 33 4.5t22.5 19.5t8.5 45v527q0 28 -10.5 41t-24.5 17t-26 4h-11v51h210v-184q0 -22 -1 -43.5t-2 -39t-1 -27.5h6q10 22 27 40.5t42.5 30t61.5 11.5q72 0 108 -46t36 -148v-232q0 -31 6 -46t19 -20t32 -5h3v-51h-198v332q0 65 -14.5 100.5t-51.5 35.5
q-28 0 -44 -21.5t-22.5 -57t-6.5 -77.5v-196q0 -28 7 -42t20.5 -18.5t32.5 -4.5h3v-51h-270zM27 811q14 19 33 45t37 53t27 49h121q9 -22 26.5 -49t37 -53t32.5 -45v-13h-62q-11 12 -28.5 29t-35.5 35t-31 32q-14 -15 -31.5 -32t-34 -33.5t-29.5 -30.5h-62v13z" />
    <glyph glyph-name="Hbar" unicode="&#x126;" horiz-adv-x="716" 
d="M24 0v51h34q14 0 24.5 6t16.5 19.5t6 34.5v390h-91v50h91v51q0 24 -7 37.5t-18.5 18.5t-27.5 5h-28v51h293v-51h-25q-13 0 -23 -5t-15.5 -18t-5.5 -36v-53h221v51q0 24 -5.5 37.5t-16.5 18.5t-27 5h-21v51h293v-51h-34q-14 0 -24.5 -5t-16.5 -18.5t-6 -37.5v-51h91v-50
h-91v-390q0 -22 6 -35.5t17 -19t24 -5.5h34v-51h-293v51h22q15 0 26 6t16.5 20t5.5 38v229h-221v-233q0 -21 5.5 -34.5t15.5 -19.5t23 -6h25v-51h-293zM248 402h221v99h-221v-99z" />
    <glyph glyph-name="hbar" unicode="&#x127;" horiz-adv-x="584" 
d="M17 0v51h5q19 0 33.5 4.5t22.5 19.5t8 45v462h-75v49h75v16q0 28 -9 41t-23 17t-29 4h-10v51h209v-129h133v-49h-133v-57q0 -16 -0.5 -33t-1.5 -31.5t-1 -24.5h5q11 22 27.5 41t42 30.5t60.5 11.5q73 0 109 -46t36 -148v-203q0 -31 6 -46t19 -20t32 -5h3v-51h-198v303
q0 65 -14.5 100.5t-51.5 35.5q-28 0 -44 -21.5t-22.5 -57t-6.5 -78.5v-166q0 -28 7.5 -42t21 -18.5t32.5 -4.5h3v-51h-271z" />
    <glyph glyph-name="Itilde" unicode="&#x128;" horiz-adv-x="352" 
d="M24 0v51h34q12 0 23 5t17.5 18t6.5 36v491q0 25 -6.5 38t-17.5 18.5t-23 5.5h-34v51h305v-51h-35q-14 0 -24.5 -5.5t-16.5 -18.5t-6 -39v-489q0 -22 6.5 -35.5t17 -19t23.5 -5.5h35v-51h-305zM238 771q-23 0 -42 9.5t-35 22t-30.5 22t-29.5 9.5q-18 0 -29 -16.5
t-13 -36.5h-59q2 38 17 70.5t39.5 52t55.5 19.5q23 0 42 -9.5t35 -22t30.5 -22t28.5 -9.5q17 0 28.5 16.5t14.5 36.5h57q-1 -39 -16 -71t-38.5 -51.5t-55.5 -19.5z" />
    <glyph glyph-name="itilde" unicode="&#x129;" horiz-adv-x="309" 
d="M14 0v51h10q19 0 32.5 5.5t21.5 21.5t8 44v295q0 28 -8 42.5t-21.5 20t-30.5 5.5h-13v51h209v-413q0 -29 8 -45t22 -21.5t32 -5.5h10v-51h-280zM214 606q-23 0 -42 9.5t-35 22t-30.5 22t-29.5 9.5q-18 0 -29 -16.5t-13 -36.5h-59q2 38 17 70.5t39.5 52t55.5 19.5
q23 0 42 -9.5t35 -22t30.5 -22t28.5 -9.5q17 0 28.5 16.5t14.5 36.5h57q-1 -39 -16 -71t-38.5 -51.5t-55.5 -19.5z" />
    <glyph glyph-name="Imacron" unicode="&#x12a;" horiz-adv-x="352" 
d="M24 0v51h34q12 0 23 5t17.5 18t6.5 36v491q0 25 -6.5 38t-17.5 18.5t-23 5.5h-34v51h305v-51h-35q-14 0 -24.5 -5.5t-16.5 -18.5t-6 -39v-489q0 -22 6.5 -35.5t17 -19t23.5 -5.5h35v-51h-305zM48 773v75h253v-75h-253z" />
    <glyph glyph-name="imacron" unicode="&#x12b;" horiz-adv-x="309" 
d="M14 0v51h10q19 0 32.5 5.5t21.5 21.5t8 44v295q0 28 -8 42.5t-21.5 20t-30.5 5.5h-13v51h209v-413q0 -29 8 -45t22 -21.5t32 -5.5h10v-51h-280zM13 608v75h253v-75h-253z" />
    <glyph glyph-name="Ibreve" unicode="&#x12c;" horiz-adv-x="352" 
d="M24 0v51h34q12 0 23 5t17.5 18t6.5 36v491q0 25 -6.5 38t-17.5 18.5t-23 5.5h-34v51h305v-51h-35q-14 0 -24.5 -5.5t-16.5 -18.5t-6 -39v-489q0 -22 6.5 -35.5t17 -19t23.5 -5.5h35v-51h-305zM175 771q-46 0 -77 22.5t-47 57.5t-17 72h60q7 -36 28.5 -52t53.5 -16
q31 0 52.5 16t28.5 52h59q-1 -37 -16.5 -72t-46.5 -57.5t-78 -22.5z" />
    <glyph glyph-name="ibreve" unicode="&#x12d;" horiz-adv-x="309" 
d="M14 0v51h10q19 0 32.5 5.5t21.5 21.5t8 44v295q0 28 -8 42.5t-21.5 20t-30.5 5.5h-13v51h209v-413q0 -29 8 -45t22 -21.5t32 -5.5h10v-51h-280zM147 606q-46 0 -77 22.5t-47 57.5t-17 72h60q7 -36 28.5 -52t53.5 -16q31 0 52.5 16t28.5 52h59q-1 -37 -16.5 -72
t-46.5 -57.5t-78 -22.5z" />
    <glyph glyph-name="Iogonek" unicode="&#x12e;" horiz-adv-x="352" 
d="M24 0v51h34q12 0 23 5t17.5 18t6.5 36v491q0 25 -6.5 38t-17.5 18.5t-23 5.5h-34v51h305v-51h-35q-14 0 -24.5 -5.5t-16.5 -18.5t-6 -39v-489q0 -22 6.5 -35.5t17 -19t23.5 -5.5h35v-51h-305zM222 -240q-65 0 -98 26.5t-33 83.5q0 31 14.5 58t38 46t50.5 26h69
q-18 -6 -37 -21.5t-32 -38.5t-13 -55q0 -29 17.5 -42t43.5 -13q12 0 25.5 2t29.5 6v-62q-9 -5 -23 -8.5t-28 -5.5t-24 -2z" />
    <glyph glyph-name="iogonek" unicode="&#x12f;" horiz-adv-x="309" 
d="M14 0v51h10q19 0 32.5 5.5t21.5 21t8 44.5v296q0 27 -8 41.5t-21.5 20t-30.5 5.5h-13v51h209v-414q0 -28 8 -44t22 -21.5t32 -5.5h10v-51h-280zM150 630q-32 0 -54 16.5t-22 51.5q0 36 22 52t54 16q31 0 54 -15.5t23 -52.5q0 -35 -23 -51.5t-54 -16.5zM194 -240
q-65 0 -98 26.5t-33 83.5q0 31 14.5 58t38 46t50.5 26h69q-18 -6 -37 -21.5t-32 -38.5t-13 -55q0 -29 17.5 -42t43.5 -13q12 0 25.5 2t29.5 6v-62q-9 -5 -23 -8.5t-28 -5.5t-24 -2z" />
    <glyph glyph-name="Idotaccent" unicode="&#x130;" horiz-adv-x="352" 
d="M24 0v51h34q12 0 23 5t17.5 18t6.5 36v491q0 25 -6.5 38t-17.5 18.5t-23 5.5h-34v51h305v-51h-35q-14 0 -24.5 -5.5t-16.5 -18.5t-6 -39v-489q0 -22 6.5 -35.5t17 -19t23.5 -5.5h35v-51h-305zM174 795q-32 0 -54 16.5t-22 51.5q0 36 22 52t54 16q31 0 54.5 -15.5
t23.5 -52.5q0 -35 -23.5 -51.5t-54.5 -16.5z" />
    <glyph glyph-name="dotlessi" unicode="&#x131;" horiz-adv-x="309" 
d="M14 0v51h10q19 0 32.5 5.5t21.5 21.5t8 44v295q0 28 -8 42.5t-21.5 20t-30.5 5.5h-13v51h209v-413q0 -29 8 -45t22 -21.5t32 -5.5h10v-51h-280z" />
    <glyph glyph-name="IJ" unicode="&#x132;" horiz-adv-x="712" 
d="M24 0v51h34q12 0 23 5t17.5 18t6.5 36v491q0 25 -6.5 38t-17.5 18.5t-23 5.5h-34v51h305v-51h-35q-14 0 -24.5 -5.5t-16.5 -18.5t-6 -39v-489q0 -22 6.5 -35.5t17 -19t23.5 -5.5h35v-51h-305zM344 -240v56h16q28 0 53 16.5t41 56t16 106.5v609q0 23 -7 36t-17.5 18
t-22.5 5h-34v51h305v-51h-34q-12 0 -23 -5.5t-17.5 -18.5t-6.5 -38v-605q0 -67 -20 -112.5t-53.5 -73t-75.5 -39t-86 -11.5h-34z" />
    <glyph glyph-name="ij" unicode="&#x133;" horiz-adv-x="617" 
d="M14 0v51h10q19 0 32.5 5.5t21.5 21t8 44.5v296q0 27 -8 41.5t-21.5 20t-30.5 5.5h-13v51h209v-414q0 -28 8 -44t22 -21.5t32 -5.5h10v-51h-280zM150 630q-32 0 -54 16.5t-22 51.5q0 36 22 52t54 16q31 0 54 -15.5t23 -52.5q0 -35 -23 -51.5t-54 -16.5zM294 -240v59h6
q32 0 54 16t33.5 55.5t11.5 107.5v421q0 29 -9 43t-24.5 18.5t-34.5 4.5h-4v51h209v-544q0 -89 -29 -140t-79 -71.5t-116 -20.5h-18zM464 630q-32 0 -54.5 16.5t-22.5 51.5q0 36 22.5 52t54.5 16q31 0 54.5 -15.5t23.5 -52.5q0 -35 -23.5 -51.5t-54.5 -16.5z" />
    <glyph glyph-name="Jcircumflex" unicode="&#x134;" horiz-adv-x="351" 
d="M-17 -240v56h16q28 0 53 16.5t41 56t16 106.5v609q0 23 -7 36t-17.5 18t-22.5 5h-34v51h305v-51h-34q-12 0 -23 -5.5t-17.5 -18.5t-6.5 -38v-605q0 -67 -20 -112.5t-53.5 -73t-75.5 -39t-86 -11.5h-34zM22 784q14 19 33 45t37 53t27 49h121q9 -22 26.5 -49t37 -53
t32.5 -45v-13h-62q-11 12 -28.5 29t-35.5 35t-31 32q-14 -15 -31.5 -32t-34 -33.5t-29.5 -30.5h-62v13z" />
    <glyph glyph-name="jcircumflex" unicode="&#x135;" horiz-adv-x="307" 
d="M-16 -240v59h6q32 0 54 16t33.5 55.5t11.5 107.5v421q0 29 -9 43t-24.5 18.5t-34.5 4.5h-4v51h209v-544q0 -89 -28.5 -140t-79 -71.5t-116.5 -20.5h-18zM-19 619q14 19 33 45t37 53t27 49h121q9 -22 26.5 -49t37 -53t32.5 -45v-13h-62q-11 12 -28.5 29t-35.5 35t-31 32
q-14 -15 -31.5 -32t-34 -33.5t-29.5 -30.5h-62v13z" />
    <glyph glyph-name="uni0136" unicode="&#x136;" horiz-adv-x="643" 
d="M24 0v51h39q12 0 21 4t14.5 17t5.5 40v489q0 28 -5.5 41t-14.5 17t-21 4h-39v51h304v-51h-39q-12 0 -21.5 -4.5t-15 -18.5t-5.5 -43v-243l132 183q18 24 28.5 41.5t16 31.5t5.5 27q0 16 -11 21.5t-39 5.5v50h239v-50q-24 0 -45 -10.5t-41 -30.5t-40 -47l-115 -150
l163 -295q16 -30 31 -47.5t31 -25t36 -7.5h4v-51h-54q-48 0 -79.5 5.5t-52 17t-33 29t-23.5 42.5l-117 232l-36 -43v-166q0 -29 5.5 -43t15 -18.5t21.5 -4.5h39v-51h-304zM274 -208q5 21 12.5 46.5t13.5 52t9 48.5h101v-10q-8 -21 -22 -48t-30.5 -53.5t-31.5 -48.5h-52v13z
" />
    <glyph glyph-name="uni0137" unicode="&#x137;" horiz-adv-x="559" 
d="M14 0v51h12q12 0 26 4.5t24 18.5t10 43v530q0 28 -10 41t-24.5 17t-25.5 4h-12v51h210v-383q0 -13 -0.5 -30.5t-1.5 -34.5t-1.5 -30t-0.5 -17l107 142q11 14 16 24t6.5 17.5t1.5 11.5q0 13 -11.5 20.5t-33.5 7.5v48h221v-48q-15 0 -30 -5.5t-29.5 -16t-30.5 -27
t-32 -38.5l-50 -66l116 -200q24 -41 43.5 -62.5t40.5 -21.5h3v-51h-12q-49 0 -81.5 4t-55 15t-39.5 31.5t-35 54.5l-72 139l-39 -48v-80q0 -28 10.5 -42t24.5 -18.5t25 -4.5h12v-51h-282zM225 -208q5 21 12.5 46.5t13.5 52t9 48.5h101v-10q-8 -21 -22 -48t-30.5 -53.5
t-31.5 -48.5h-52v13z" />
    <glyph glyph-name="kgreenlandic" unicode="&#x138;" horiz-adv-x="559" 
d="M14 0v51h12q12 0 26 4.5t24 18.5t10 43v306q0 28 -10 41t-24.5 17t-25.5 4h-12v51h210v-162q0 -13 -0.5 -31.5t-1.5 -36.5t-1.5 -29.5l-0.5 -11.5l107 142q11 14 16 24t6.5 17.5t1.5 11.5q0 13 -11.5 20.5t-33.5 7.5v48h221v-48q-20 0 -39.5 -9.5t-40 -28.5t-42.5 -49
l-55 -72l116 -199q23 -40 46 -59.5t44 -19.5h2v-51h-12q-48 0 -82 2.5t-57 11.5t-40.5 27t-34.5 50l-77 145l-31 -40v-80q0 -28 10.5 -42t24.5 -18.5t25 -4.5h12v-51h-282z" />
    <glyph glyph-name="Lacute" unicode="&#x139;" horiz-adv-x="572" 
d="M24 0v51h34q12 0 23 5t17.5 18t6.5 36v492q0 24 -7 37.5t-18.5 18.5t-26.5 5h-29v51h305v-51h-32q-17 0 -28 -5t-16 -17.5t-5 -35.5v-546h161q20 0 34 9.5t23.5 29t14.5 48.5l15 75h49l-6 -221h-515zM146 784q14 22 30.5 47.5t32 51.5t23.5 48h142v-10q-8 -13 -27 -32.5
t-43.5 -41t-50 -41.5t-46.5 -35h-61v13z" />
    <glyph glyph-name="lacute" unicode="&#x13a;" horiz-adv-x="310" 
d="M15 0v51h11q17 0 31 5.5t21.5 21t7.5 45.5v524q0 28 -10.5 41t-24.5 17t-26 4h-10v51h209v-638q0 -28 7.5 -44t21.5 -21.5t32 -5.5h9v-51h-279zM95 812q14 22 30.5 47.5t32 51.5t23.5 48h142v-10q-8 -13 -27 -32.5t-43.5 -41t-50 -41.5t-46.5 -35h-61v13z" />
    <glyph glyph-name="uni013B" unicode="&#x13b;" horiz-adv-x="572" 
d="M24 0v51h34q12 0 23 5t17.5 18t6.5 36v492q0 24 -7 37.5t-18.5 18.5t-26.5 5h-29v51h305v-51h-32q-17 0 -28 -5t-16 -17.5t-5 -35.5v-546h161q20 0 34 9.5t23.5 29t14.5 48.5l15 75h49l-6 -221h-515zM212 -208q5 21 12.5 46.5t13.5 52t9 48.5h101v-10q-8 -21 -22 -48
t-30.5 -53.5t-31.5 -48.5h-52v13z" />
    <glyph glyph-name="uni013C" unicode="&#x13c;" horiz-adv-x="310" 
d="M15 0v51h11q17 0 31 5.5t21.5 21t7.5 45.5v524q0 28 -10.5 41t-24.5 17t-26 4h-10v51h209v-638q0 -28 7.5 -44t21.5 -21.5t32 -5.5h9v-51h-279zM72 -208q5 21 12.5 46.5t13.5 52t9 48.5h101v-10q-8 -21 -22 -48t-30.5 -53.5t-31.5 -48.5h-52v13z" />
    <glyph glyph-name="Lcaron" unicode="&#x13d;" horiz-adv-x="572" 
d="M395 567q6 21 13 46.5t13 52t9 48.5h103v-10q-7 -21 -21.5 -48t-30.5 -53.5t-32 -48.5h-54v13zM24 0v51h34q12 0 23 5t17.5 18t6.5 36v492q0 24 -7 37.5t-18.5 18.5t-26.5 5h-29v51h305v-51h-32q-17 0 -28 -5t-16 -17.5t-5 -35.5v-546h161q20 0 34 9.5t23.5 29t14.5 48.5
l15 75h49l-6 -221h-515z" />
    <glyph glyph-name="lcaron" unicode="&#x13e;" horiz-adv-x="310" 
d="M271 613q6 21 13 46.5t13 52t9 48.5h103v-10q-8 -21 -22 -48t-30.5 -53.5t-31.5 -48.5h-54v13zM15 0v51h11q17 0 31 5.5t21.5 21t7.5 45.5v524q0 28 -10.5 41t-24.5 17t-26 4h-10v51h209v-638q0 -28 7.5 -44t21.5 -21.5t32 -5.5h9v-51h-279z" />
    <glyph glyph-name="Ldot" unicode="&#x13f;" horiz-adv-x="572" 
d="M24 0v51h34q12 0 23 5t17.5 18t6.5 36v492q0 24 -7 37.5t-18.5 18.5t-26.5 5h-29v51h305v-51h-32q-17 0 -28 -5t-16 -17.5t-5 -35.5v-546h161q20 0 34 9.5t23.5 29t14.5 48.5l15 75h49l-6 -221h-515zM455 306q-32 0 -54 16.5t-22 51.5q0 36 22 52t54 16q31 0 54.5 -15.5
t23.5 -52.5q0 -35 -23.5 -51.5t-54.5 -16.5z" />
    <glyph glyph-name="ldot" unicode="&#x140;" horiz-adv-x="360" 
d="M15 0v51h11q17 0 31 5.5t21.5 21t7.5 45.5v524q0 28 -10.5 41t-24.5 17t-26 4h-10v51h209v-638q0 -28 7.5 -44t21.5 -21.5t32 -5.5h9v-51h-279zM360 260q-32 0 -54 16.5t-22 51.5q0 36 22 52t54 16q31 0 54.5 -15.5t23.5 -52.5q0 -35 -23.5 -51.5t-54.5 -16.5z" />
    <glyph glyph-name="Lslash" unicode="&#x141;" horiz-adv-x="572" 
d="M24 0v51h34q13 0 23.5 5t17 18t6.5 36v170l-71 -49v63l71 51v257q0 24 -6.5 37.5t-18.5 18.5t-27 5h-29v51h305v-51h-32q-17 0 -28 -5t-16 -17.5t-5 -35.5v-176l125 86v-66l-125 -85v-305h161q20 0 34 9.5t23.5 29t14.5 48.5l15 75h49l-6 -221h-515z" />
    <glyph glyph-name="lslash" unicode="&#x142;" horiz-adv-x="309" 
d="M15 0v51h9q13 0 27 4.5t24.5 18.5t10.5 43v153l-63 -43v63l63 43v314q0 28 -11 41t-25 17t-26 4h-9v51h208v-347l68 46v-64l-68 -47v-231q0 -29 10 -43t24 -18.5t26 -4.5h10v-51h-278z" />
    <glyph glyph-name="Nacute" unicode="&#x143;" horiz-adv-x="688" 
d="M24 0v51h22q18 0 31 4.5t20.5 18.5t7.5 43v484q0 28 -7.5 41t-19.5 17t-26 4h-28v51h209l294 -513v400q0 25 -7 38.5t-18.5 18.5t-26.5 5h-28v51h228v-51h-28q-16 0 -28 -5.5t-18.5 -19.5t-6.5 -41v-597h-95l-328 563v-446q0 -29 6 -43t18 -18.5t28 -4.5h29v-51h-228z
M302 784q14 22 30.5 47.5t32 51.5t23.5 48h142v-10q-8 -13 -27 -32.5t-43.5 -41t-50 -41.5t-46.5 -35h-61v13z" />
    <glyph glyph-name="nacute" unicode="&#x144;" horiz-adv-x="583" 
d="M16 0v51h5q20 0 34.5 4.5t22.5 19.5t8 46v299q0 28 -7.5 42t-21 18.5t-32.5 4.5h-4v51h187l12 -73h4q20 42 50.5 63.5t82.5 21.5q70 0 106.5 -46t36.5 -148v-232q0 -31 6 -46t18.5 -20t32.5 -5h4v-51h-198v333q0 64 -13.5 100t-50.5 36q-28 0 -45 -22.5t-24 -58.5t-7 -77
v-195q0 -28 7 -42t20.5 -18.5t32.5 -4.5h4v-51h-271zM233 619q14 22 30.5 47.5t32 51.5t23.5 48h142v-10q-8 -13 -27 -32.5t-43.5 -41t-50 -41.5t-46.5 -35h-61v13z" />
    <glyph glyph-name="uni0145" unicode="&#x145;" horiz-adv-x="688" 
d="M24 0v51h22q18 0 31 4.5t20.5 18.5t7.5 43v484q0 28 -7.5 41t-19.5 17t-26 4h-28v51h209l294 -513v400q0 25 -7 38.5t-18.5 18.5t-26.5 5h-28v51h228v-51h-28q-16 0 -28 -5.5t-18.5 -19.5t-6.5 -41v-597h-95l-328 563v-446q0 -29 6 -43t18 -18.5t28 -4.5h29v-51h-228z
M276 -208q5 21 12.5 46.5t13.5 52t9 48.5h101v-10q-8 -21 -22 -48t-30.5 -53.5t-31.5 -48.5h-52v13z" />
    <glyph glyph-name="uni0146" unicode="&#x146;" horiz-adv-x="583" 
d="M16 0v51h5q20 0 34.5 4.5t22.5 19.5t8 46v299q0 28 -7.5 42t-21 18.5t-32.5 4.5h-4v51h187l12 -73h4q20 42 50.5 63.5t82.5 21.5q70 0 106.5 -46t36.5 -148v-232q0 -31 6 -46t18.5 -20t32.5 -5h4v-51h-198v333q0 64 -13.5 100t-50.5 36q-28 0 -45 -22.5t-24 -58.5t-7 -77
v-195q0 -28 7 -42t20.5 -18.5t32.5 -4.5h4v-51h-271zM217 -208q5 21 12.5 46.5t13.5 52t9 48.5h101v-10q-8 -21 -22 -48t-30.5 -53.5t-31.5 -48.5h-52v13z" />
    <glyph glyph-name="Ncaron" unicode="&#x147;" horiz-adv-x="688" 
d="M24 0v51h22q18 0 31 4.5t20.5 18.5t7.5 43v484q0 28 -7.5 41t-19.5 17t-26 4h-28v51h209l294 -513v400q0 25 -7 38.5t-18.5 18.5t-26.5 5h-28v51h228v-51h-28q-16 0 -28 -5.5t-18.5 -19.5t-6.5 -41v-597h-95l-328 563v-446q0 -29 6 -43t18 -18.5t28 -4.5h29v-51h-228z
M301 771q-9 23 -27 49.5t-37 52.5t-33 45v13h62q13 -13 30 -29.5t34.5 -33.5t30.5 -33q13 16 30.5 33t35 33.5t29.5 29.5h62v-13q-13 -19 -32.5 -45t-37 -52.5t-26.5 -49.5h-121z" />
    <glyph glyph-name="ncaron" unicode="&#x148;" horiz-adv-x="583" 
d="M16 0v51h5q20 0 34.5 4.5t22.5 19.5t8 46v299q0 28 -7.5 42t-21 18.5t-32.5 4.5h-4v51h187l12 -73h4q20 42 50.5 63.5t82.5 21.5q70 0 106.5 -46t36.5 -148v-232q0 -31 6 -46t18.5 -20t32.5 -5h4v-51h-198v333q0 64 -13.5 100t-50.5 36q-28 0 -45 -22.5t-24 -58.5t-7 -77
v-195q0 -28 7 -42t20.5 -18.5t32.5 -4.5h4v-51h-271zM233 606q-9 23 -27 49.5t-37 52.5t-33 45v13h62q13 -13 30 -29.5t34.5 -33.5t30.5 -33q13 16 30.5 33t35 33.5t29.5 29.5h62v-13q-13 -19 -32.5 -45t-37 -52.5t-26.5 -49.5h-121z" />
    <glyph glyph-name="napostrophe" unicode="&#x149;" horiz-adv-x="756" 
d="M189 0v51h5q20 0 34.5 4.5t22.5 19.5t8 46v299q0 28 -7.5 42t-21 18.5t-32.5 4.5h-4v51h187l12 -73h4q20 42 50.5 63.5t82.5 21.5q70 0 106.5 -46t36.5 -148v-232q0 -31 6 -46t18.5 -20t32.5 -5h4v-51h-198v333q0 64 -13.5 100t-50.5 36q-28 0 -45 -22.5t-24 -58.5
t-7 -77v-195q0 -28 7 -42t20.5 -18.5t32.5 -4.5h4v-51h-271zM16 463q25 10 41.5 21.5t25.5 26t9 33.5q0 14 -9.5 21.5t-22.5 15.5t-22.5 23t-9.5 44q0 32 18.5 49t44.5 17q38 0 60 -28t22 -77q0 -64 -36 -117t-121 -79v50z" />
    <glyph glyph-name="Eng" unicode="&#x14a;" horiz-adv-x="688" 
d="M412 -240v56h15q29 0 51.5 17.5t35.5 56t13 101.5v11l-356 561v-446q0 -29 6 -43t18 -18.5t28 -4.5h29v-51h-228v51h22q18 0 31 4.5t20.5 18.5t7.5 43v484q0 28 -7.5 41t-19.5 17t-26 4h-28v51h196l307 -511v398q0 25 -7 38.5t-18.5 18.5t-26.5 5h-28v51h228v-51h-28
q-16 0 -28 -5.5t-18.5 -19.5t-6.5 -41v-601q0 -89 -17 -140.5t-49 -73.5t-81 -22h-35z" />
    <glyph glyph-name="eng" unicode="&#x14b;" horiz-adv-x="584" 
d="M273 -240v59h5q27 0 46 16t29 55t10 108v334q0 65 -14 101t-50 36q-29 0 -45.5 -22t-23.5 -58t-7 -78v-195q0 -28 7.5 -42t21 -18.5t32.5 -4.5h3v-51h-271v51h5q20 0 34.5 4.5t22.5 19.5t8 46v299q0 28 -7.5 42t-21 18.5t-33.5 4.5h-3v51h187l12 -73h4q20 42 50.5 63.5
t82.5 21.5q70 0 106.5 -46t36.5 -147v-363q0 -89 -27 -140t-74.5 -71.5t-109.5 -20.5h-16z" />
    <glyph glyph-name="Omacron" unicode="&#x14c;" horiz-adv-x="689" 
d="M345 -10q-100 0 -166 46t-98.5 129t-32.5 194t32.5 193t99 127.5t166.5 45.5q95 0 160.5 -45.5t100 -128t34.5 -193.5t-34 -193.5t-100 -128.5t-162 -46zM345 53q54 0 86 36t45.5 104.5t13.5 164.5q0 97 -13.5 164.5t-45.5 103.5t-85 36q-79 0 -113 -79.5t-34 -224.5
q0 -96 14.5 -164.5t47 -104.5t84.5 -36zM218 773v75h253v-75h-253z" />
    <glyph glyph-name="omacron" unicode="&#x14d;" horiz-adv-x="537" 
d="M267 -10q-106 0 -166.5 69.5t-60.5 210.5q0 140 58.5 209t171.5 69q105 0 165.5 -69t60.5 -209q0 -141 -57.5 -210.5t-171.5 -69.5zM269 51q32 0 51.5 25t28 73.5t8.5 120.5q0 108 -20 162.5t-69 54.5q-48 0 -68 -54.5t-20 -162.5t20.5 -163.5t68.5 -55.5zM140 608v75
h253v-75h-253z" />
    <glyph glyph-name="Obreve" unicode="&#x14e;" horiz-adv-x="689" 
d="M345 -10q-100 0 -166 46t-98.5 129t-32.5 194t32.5 193t99 127.5t166.5 45.5q95 0 160.5 -45.5t100 -128t34.5 -193.5t-34 -193.5t-100 -128.5t-162 -46zM345 53q54 0 86 36t45.5 104.5t13.5 164.5q0 97 -13.5 164.5t-45.5 103.5t-85 36q-79 0 -113 -79.5t-34 -224.5
q0 -96 14.5 -164.5t47 -104.5t84.5 -36zM341 771q-46 0 -77 22.5t-47 57.5t-17 72h60q7 -36 28.5 -52t53.5 -16q31 0 52.5 16t28.5 52h59q-1 -37 -16.5 -72t-46.5 -57.5t-78 -22.5z" />
    <glyph glyph-name="obreve" unicode="&#x14f;" horiz-adv-x="537" 
d="M267 -10q-106 0 -166.5 69.5t-60.5 210.5q0 140 58.5 209t171.5 69q105 0 165.5 -69t60.5 -209q0 -141 -57.5 -210.5t-171.5 -69.5zM269 51q32 0 51.5 25t28 73.5t8.5 120.5q0 108 -20 162.5t-69 54.5q-48 0 -68 -54.5t-20 -162.5t20.5 -163.5t68.5 -55.5zM266 606
q-46 0 -77 22.5t-47 57.5t-17 72h60q7 -36 28.5 -52t53.5 -16q31 0 52.5 16t28.5 52h59q-1 -37 -16.5 -72t-46.5 -57.5t-78 -22.5z" />
    <glyph glyph-name="Ohungarumlaut" unicode="&#x150;" horiz-adv-x="689" 
d="M345 -10q-100 0 -166 46t-98.5 129t-32.5 194t32.5 193t99 127.5t166.5 45.5q95 0 160.5 -45.5t100 -128t34.5 -193.5t-34 -193.5t-100 -128.5t-162 -46zM345 53q54 0 86 36t45.5 104.5t13.5 164.5q0 97 -13.5 164.5t-45.5 103.5t-85 36q-79 0 -113 -79.5t-34 -224.5
q0 -96 14.5 -164.5t47 -104.5t84.5 -36zM370 784q19 35 39.5 74t34.5 73h109v-10q-9 -17 -31 -45.5t-47 -56.5t-46 -48h-59v13zM204 784q19 35 39.5 74t33.5 73h110v-10q-9 -17 -31 -45.5t-47.5 -56.5t-44.5 -48h-60v13z" />
    <glyph glyph-name="ohungarumlaut" unicode="&#x151;" horiz-adv-x="537" 
d="M267 -10q-106 0 -166.5 69.5t-60.5 210.5q0 140 58.5 209t171.5 69q105 0 165.5 -69t60.5 -209q0 -141 -57.5 -210.5t-171.5 -69.5zM269 51q32 0 51.5 25t28 73.5t8.5 120.5q0 108 -20 162.5t-69 54.5q-48 0 -68 -54.5t-20 -162.5t20.5 -163.5t68.5 -55.5zM294 619
q19 35 39.5 74t34.5 73h109v-10q-9 -17 -31 -45.5t-47 -56.5t-46 -48h-59v13zM128 619q19 35 39.5 74t33.5 73h110v-10q-9 -17 -31 -45.5t-47.5 -56.5t-44.5 -48h-60v13z" />
    <glyph glyph-name="OE" unicode="&#x152;" horiz-adv-x="893" 
d="M345 -10q-100 0 -166 46t-98.5 129t-32.5 194t32.5 193t99 127.5t166.5 45.5q22 0 48 -3t45 -8h393l4 -182h-63l-4 46q-1 24 -8.5 41.5t-21 26.5t-36.5 9h-136v-253h208v-57h-208v-286h159q23 0 37.5 10t22.5 27.5t11 39.5l6 46h62l-6 -182h-423q-19 -4 -44 -7t-47 -3z
M345 53q26 0 45.5 5.5t35.5 15.5v566q-14 10 -34 16t-46 6q-79 0 -113 -79.5t-34 -224.5q0 -96 14.5 -164.5t47 -104.5t84.5 -36z" />
    <glyph glyph-name="oe" unicode="&#x153;" horiz-adv-x="818" 
d="M265 -10q-104 0 -164.5 69.5t-60.5 210.5q0 140 58 209t170 69q51 0 90.5 -17t67.5 -52q26 35 64.5 52t87.5 17q94 0 149 -61t55 -180v-48h-286q1 -65 14 -109t39.5 -67t68.5 -23q45 0 73 24.5t44 59.5q12 -4 21 -14.5t9 -27.5q0 -25 -19 -51t-57.5 -43.5t-100.5 -17.5
q-54 0 -93.5 17.5t-66.5 52.5q-27 -35 -67.5 -52.5t-95.5 -17.5zM269 51q33 0 52 24.5t27.5 73t8.5 121.5q0 109 -20 163t-69 54q-48 0 -68 -54.5t-20 -162.5t20.5 -163.5t68.5 -55.5zM645 319q1 53 -6 90.5t-21.5 57.5t-38.5 20q-36 0 -57.5 -43.5t-23.5 -124.5h147z" />
    <glyph glyph-name="Racute" unicode="&#x154;" horiz-adv-x="625" 
d="M24 0v51h25q14 0 27 4t21 17t8 40v489q0 28 -8.5 41t-21.5 17t-26 4h-25v51h285q90 0 144.5 -21.5t79 -64t24.5 -103.5q0 -56 -17 -93.5t-46 -59.5t-62 -33l107 -205q22 -43 40.5 -63t42.5 -20h5v-51h-30q-50 0 -86.5 7t-62 26.5t-42.5 56.5l-102 221h-56v-199
q0 -27 6.5 -40t18.5 -17t27 -4h17v-51h-293zM292 366q61 0 87.5 38.5t26.5 112.5q0 49 -12 80t-37 45.5t-64 14.5h-45v-291h44zM233 784q14 22 30.5 47.5t32 51.5t23.5 48h142v-10q-8 -13 -27 -32.5t-43.5 -41t-50 -41.5t-46.5 -35h-61v13z" />
    <glyph glyph-name="racute" unicode="&#x155;" horiz-adv-x="460" 
d="M16 0v51h4q19 0 33.5 5t23 20.5t8.5 46.5v294q0 30 -7.5 44.5t-21 19t-32.5 4.5h-3v51h178l17 -100h4q14 36 31.5 60.5t42.5 37.5t59 13q49 0 71 -24t22 -62q0 -42 -29 -63.5t-82 -21.5q0 28 -3.5 46t-12 27.5t-25.5 9.5q-18 0 -31 -16.5t-22 -43.5t-13.5 -59.5
t-4.5 -64.5v-157q0 -29 7.5 -43.5t21 -19t30.5 -4.5h28v-51h-294zM155 619q14 22 30.5 47.5t32 51.5t23.5 48h142v-10q-8 -13 -27 -32.5t-43.5 -41t-50 -41.5t-46.5 -35h-61v13z" />
    <glyph glyph-name="uni0156" unicode="&#x156;" horiz-adv-x="625" 
d="M24 0v51h25q14 0 27 4t21 17t8 40v489q0 28 -8.5 41t-21.5 17t-26 4h-25v51h285q90 0 144.5 -21.5t79 -64t24.5 -103.5q0 -56 -17 -93.5t-46 -59.5t-62 -33l107 -205q22 -43 40.5 -63t42.5 -20h5v-51h-30q-50 0 -86.5 7t-62 26.5t-42.5 56.5l-102 221h-56v-199
q0 -27 6.5 -40t18.5 -17t27 -4h17v-51h-293zM292 366q61 0 87.5 38.5t26.5 112.5q0 49 -12 80t-37 45.5t-64 14.5h-45v-291h44zM236 -208q5 21 12.5 46.5t13.5 52t9 48.5h101v-10q-8 -21 -22 -48t-30.5 -53.5t-31.5 -48.5h-52v13z" />
    <glyph glyph-name="uni0157" unicode="&#x157;" horiz-adv-x="460" 
d="M16 0v51h4q19 0 33.5 5t23 20.5t8.5 46.5v294q0 30 -7.5 44.5t-21 19t-32.5 4.5h-3v51h178l17 -100h4q14 36 31.5 60.5t42.5 37.5t59 13q49 0 71 -24t22 -62q0 -42 -29 -63.5t-82 -21.5q0 28 -3.5 46t-12 27.5t-25.5 9.5q-18 0 -31 -16.5t-22 -43.5t-13.5 -59.5
t-4.5 -64.5v-157q0 -29 7.5 -43.5t21 -19t30.5 -4.5h28v-51h-294zM82 -208q5 21 12.5 46.5t13.5 52t9 48.5h101v-10q-8 -21 -22 -48t-30.5 -53.5t-31.5 -48.5h-52v13z" />
    <glyph glyph-name="Rcaron" unicode="&#x158;" horiz-adv-x="625" 
d="M24 0v51h25q14 0 27 4t21 17t8 40v489q0 28 -8.5 41t-21.5 17t-26 4h-25v51h285q90 0 144.5 -21.5t79 -64t24.5 -103.5q0 -56 -17 -93.5t-46 -59.5t-62 -33l107 -205q22 -43 40.5 -63t42.5 -20h5v-51h-30q-50 0 -86.5 7t-62 26.5t-42.5 56.5l-102 221h-56v-199
q0 -27 6.5 -40t18.5 -17t27 -4h17v-51h-293zM292 366q61 0 87.5 38.5t26.5 112.5q0 49 -12 80t-37 45.5t-64 14.5h-45v-291h44zM227 771q-9 23 -27 49.5t-37 52.5t-33 45v13h62q13 -13 30 -29.5t34.5 -33.5t30.5 -33q13 16 30.5 33t35 33.5t29.5 29.5h62v-13
q-13 -19 -32.5 -45t-37 -52.5t-26.5 -49.5h-121z" />
    <glyph glyph-name="rcaron" unicode="&#x159;" horiz-adv-x="460" 
d="M16 0v51h4q19 0 33.5 5t23 20.5t8.5 46.5v294q0 30 -7.5 44.5t-21 19t-32.5 4.5h-3v51h178l17 -100h4q14 36 31.5 60.5t42.5 37.5t59 13q49 0 71 -24t22 -62q0 -42 -29 -63.5t-82 -21.5q0 28 -3.5 46t-12 27.5t-25.5 9.5q-18 0 -31 -16.5t-22 -43.5t-13.5 -59.5
t-4.5 -64.5v-157q0 -29 7.5 -43.5t21 -19t30.5 -4.5h28v-51h-294zM177 606q-9 23 -27 49.5t-37 52.5t-33 45v13h62q13 -13 30 -29.5t34.5 -33.5t30.5 -33q13 16 30.5 33t35 33.5t29.5 29.5h62v-13q-13 -19 -32.5 -45t-37 -52.5t-26.5 -49.5h-121z" />
    <glyph glyph-name="Sacute" unicode="&#x15a;" horiz-adv-x="506" 
d="M239 -10q-61 0 -101.5 12t-64.5 32t-34 44.5t-10 49.5q0 32 13.5 51.5t35.5 28.5t47 9q1 -56 19 -94t47 -57t63 -19q50 0 77 31.5t27 78.5q0 37 -17 62.5t-50 47t-81 43.5q-61 30 -96.5 62t-51.5 72t-16 89q0 59 29 101.5t78.5 66t110.5 23.5q64 0 105.5 -17.5t62 -45
t20.5 -56.5q0 -35 -24.5 -55t-80.5 -20q0 34 -11 65t-32.5 51t-55.5 20q-39 0 -62.5 -25t-23.5 -72q0 -29 11.5 -53t43.5 -47t91 -51q61 -27 97.5 -58.5t53 -70.5t16.5 -89q0 -65 -29 -112t-82 -72.5t-125 -25.5zM214 784q14 22 30.5 47.5t32 51.5t23.5 48h142v-10
q-8 -13 -27 -32.5t-43.5 -41t-50 -41.5t-46.5 -35h-61v13z" />
    <glyph glyph-name="sacute" unicode="&#x15b;" horiz-adv-x="420" 
d="M202 -10q-62 0 -101 14t-56.5 39t-17.5 58q0 27 11 42.5t29 22.5t39 7q0 -61 26 -93.5t73 -32.5q44 0 63.5 21t19.5 54q0 22 -10.5 37.5t-33 29t-59.5 28.5q-51 22 -84 44.5t-49.5 53.5t-16.5 77q0 78 51.5 116.5t135.5 38.5q54 0 87.5 -13.5t49.5 -35t16 -45.5
q0 -31 -20 -48t-61 -17q0 51 -23.5 77t-60.5 26q-32 0 -50.5 -17t-18.5 -47q0 -34 23 -53.5t82 -43.5q47 -19 79.5 -41t50 -53t17.5 -78q0 -77 -49 -122.5t-142 -45.5zM163 619q14 22 30.5 47.5t32 51.5t23.5 48h142v-10q-8 -13 -27 -32.5t-43.5 -41t-50 -41.5t-46.5 -35
h-61v13z" />
    <glyph glyph-name="Scircumflex" unicode="&#x15c;" horiz-adv-x="506" 
d="M239 -10q-61 0 -101.5 12t-64.5 32t-34 44.5t-10 49.5q0 32 13.5 51.5t35.5 28.5t47 9q1 -56 19 -94t47 -57t63 -19q50 0 77 31.5t27 78.5q0 37 -17 62.5t-50 47t-81 43.5q-61 30 -96.5 62t-51.5 72t-16 89q0 59 29 101.5t78.5 66t110.5 23.5q64 0 105.5 -17.5t62 -45
t20.5 -56.5q0 -35 -24.5 -55t-80.5 -20q0 34 -11 65t-32.5 51t-55.5 20q-39 0 -62.5 -25t-23.5 -72q0 -29 11.5 -53t43.5 -47t91 -51q61 -27 97.5 -58.5t53 -70.5t16.5 -89q0 -65 -29 -112t-82 -72.5t-125 -25.5zM103 784q14 19 33 45t37 53t27 49h121q9 -22 26.5 -49
t37 -53t32.5 -45v-13h-62q-11 12 -28.5 29t-35.5 35t-31 32q-14 -15 -31.5 -32t-34 -33.5t-29.5 -30.5h-62v13z" />
    <glyph glyph-name="scircumflex" unicode="&#x15d;" horiz-adv-x="420" 
d="M202 -10q-62 0 -101 14t-56.5 39t-17.5 58q0 27 11 42.5t29 22.5t39 7q0 -61 26 -93.5t73 -32.5q44 0 63.5 21t19.5 54q0 22 -10.5 37.5t-33 29t-59.5 28.5q-51 22 -84 44.5t-49.5 53.5t-16.5 77q0 78 51.5 116.5t135.5 38.5q54 0 87.5 -13.5t49.5 -35t16 -45.5
q0 -31 -20 -48t-61 -17q0 51 -23.5 77t-60.5 26q-32 0 -50.5 -17t-18.5 -47q0 -34 23 -53.5t82 -43.5q47 -19 79.5 -41t50 -53t17.5 -78q0 -77 -49 -122.5t-142 -45.5zM56 619q14 19 33 45t37 53t27 49h121q9 -22 26.5 -49t37 -53t32.5 -45v-13h-62q-11 12 -28.5 29
t-35.5 35t-31 32q-14 -15 -31.5 -32t-34 -33.5t-29.5 -30.5h-62v13z" />
    <glyph glyph-name="Scedilla" unicode="&#x15e;" horiz-adv-x="506" 
d="M239 -10q-61 0 -101.5 12t-64.5 32t-34 44.5t-10 49.5q0 32 13.5 51.5t35.5 28.5t47 9q1 -56 19 -94t47 -57t63 -19q50 0 77 31.5t27 78.5q0 37 -17 62.5t-50 47t-81 43.5q-61 30 -96.5 62t-51.5 72t-16 89q0 59 29 101.5t78.5 66t110.5 23.5q64 0 105.5 -17.5t62 -45
t20.5 -56.5q0 -35 -24.5 -55t-80.5 -20q0 34 -11 65t-32.5 51t-55.5 20q-39 0 -62.5 -25t-23.5 -72q0 -29 11.5 -53t43.5 -47t91 -51q61 -27 97.5 -58.5t53 -70.5t16.5 -89q0 -65 -29 -112t-82 -72.5t-125 -25.5zM228 -237q-13 0 -36.5 3t-39.5 8v56q16 -4 32 -6t27 -2
q26 0 40.5 10t14.5 38q0 29 -19 39t-47 13l18 87h49l-9 -44q28 -3 49.5 -14.5t33.5 -31t12 -46.5q0 -52 -35 -81t-90 -29z" />
    <glyph glyph-name="scedilla" unicode="&#x15f;" horiz-adv-x="420" 
d="M202 -10q-62 0 -101 14t-56.5 39t-17.5 58q0 27 11 42.5t29 22.5t39 7q0 -61 26 -93.5t73 -32.5q44 0 63.5 21t19.5 54q0 22 -10.5 37.5t-33 29t-59.5 28.5q-51 22 -84 44.5t-49.5 53.5t-16.5 77q0 78 51.5 116.5t135.5 38.5q54 0 87.5 -13.5t49.5 -35t16 -45.5
q0 -31 -20 -48t-61 -17q0 51 -23.5 77t-60.5 26q-32 0 -50.5 -17t-18.5 -47q0 -34 23 -53.5t82 -43.5q47 -19 79.5 -41t50 -53t17.5 -78q0 -77 -49 -122.5t-142 -45.5zM181 -237q-13 0 -36.5 3t-39.5 8v56q16 -4 32 -6t27 -2q26 0 40.5 10t14.5 38q0 29 -19 39t-47 13l18 87
h49l-9 -44q28 -3 49.5 -14.5t33.5 -31t12 -46.5q0 -52 -35 -81t-90 -29z" />
    <glyph glyph-name="Scaron" unicode="&#x160;" horiz-adv-x="506" 
d="M239 -10q-61 0 -101.5 12t-64.5 32t-34 44.5t-10 49.5q0 32 13.5 51.5t35.5 28.5t47 9q1 -56 19 -94t47 -57t63 -19q50 0 77 31.5t27 78.5q0 37 -17 62.5t-50 47t-81 43.5q-61 30 -96.5 62t-51.5 72t-16 89q0 59 29 101.5t78.5 66t110.5 23.5q64 0 105.5 -17.5t62 -45
t20.5 -56.5q0 -35 -24.5 -55t-80.5 -20q0 34 -11 65t-32.5 51t-55.5 20q-39 0 -62.5 -25t-23.5 -72q0 -29 11.5 -53t43.5 -47t91 -51q61 -27 97.5 -58.5t53 -70.5t16.5 -89q0 -65 -29 -112t-82 -72.5t-125 -25.5zM201 771q-9 23 -27 49.5t-37 52.5t-33 45v13h62
q13 -13 30 -29.5t34.5 -33.5t30.5 -33q13 16 30.5 33t35 33.5t29.5 29.5h62v-13q-13 -19 -32.5 -45t-37 -52.5t-26.5 -49.5h-121z" />
    <glyph glyph-name="scaron" unicode="&#x161;" horiz-adv-x="420" 
d="M202 -10q-62 0 -101 14t-56.5 39t-17.5 58q0 27 11 42.5t29 22.5t39 7q0 -61 26 -93.5t73 -32.5q44 0 63.5 21t19.5 54q0 22 -10.5 37.5t-33 29t-59.5 28.5q-51 22 -84 44.5t-49.5 53.5t-16.5 77q0 78 51.5 116.5t135.5 38.5q54 0 87.5 -13.5t49.5 -35t16 -45.5
q0 -31 -20 -48t-61 -17q0 51 -23.5 77t-60.5 26q-32 0 -50.5 -17t-18.5 -47q0 -34 23 -53.5t82 -43.5q47 -19 79.5 -41t50 -53t17.5 -78q0 -77 -49 -122.5t-142 -45.5zM153 606q-9 23 -27 49.5t-37 52.5t-33 45v13h62q13 -13 30 -29.5t34.5 -33.5t30.5 -33q13 16 30.5 33
t35 33.5t29.5 29.5h62v-13q-13 -19 -32.5 -45t-37 -52.5t-26.5 -49.5h-121z" />
    <glyph glyph-name="uni0162" unicode="&#x162;" horiz-adv-x="572" 
d="M128 0v51h24q18 0 32 4.5t22 18.5t8 43v538h-68q-38 0 -53 -20t-19 -53l-7 -58h-59l4 190h548l4 -190h-59l-6 58q-4 33 -19 53t-54 20h-68v-538q0 -29 8 -43t22 -18.5t32 -4.5h24v-51h-316zM268 -240q-10 0 -24 1.5t-28.5 4t-24.5 5.5v59q15 -4 31 -6t28 -2
q24 0 38.5 11.5t14.5 36.5q0 29 -18.5 40t-47.5 14l19 85h51l-9 -43q29 -2 50 -14t32.5 -31.5t11.5 -46.5q0 -53 -34.5 -83.5t-89.5 -30.5z" />
    <glyph glyph-name="uni0163" unicode="&#x163;" horiz-adv-x="358" 
d="M221 -10q-66 0 -102 35t-36 122v327h-65v46q31 2 53 14.5t35 28.5q12 14 22.5 37.5t16.5 59.5h76v-124h111v-62h-111v-318q0 -47 12.5 -68t43.5 -21q17 0 33 2t30 6v-62q-14 -7 -45 -15t-74 -8zM190 -240q-10 0 -24 1.5t-28.5 4t-24.5 5.5v59q15 -4 31 -6t28 -2
q24 0 38.5 11.5t14.5 36.5q0 29 -18.5 40t-47.5 14l19 85h51l-9 -43q29 -2 50 -14t32.5 -31.5t11.5 -46.5q0 -53 -34.5 -83.5t-89.5 -30.5z" />
    <glyph glyph-name="Tcaron" unicode="&#x164;" horiz-adv-x="572" 
d="M128 0v51h24q18 0 32 4.5t22 18.5t8 43v538h-68q-38 0 -53 -20t-19 -53l-7 -58h-59l4 190h548l4 -190h-59l-6 58q-4 33 -19 53t-54 20h-68v-538q0 -29 8 -43t22 -18.5t32 -4.5h24v-51h-316zM226 771q-9 23 -27 49.5t-37 52.5t-33 45v13h62q13 -13 30 -29.5t34.5 -33.5
t30.5 -33q13 16 30.5 33t35 33.5t29.5 29.5h62v-13q-13 -19 -32.5 -45t-37 -52.5t-26.5 -49.5h-121z" />
    <glyph glyph-name="tcaron" unicode="&#x165;" horiz-adv-x="358" 
d="M271 613q6 21 13 46.5t13.5 52t9.5 48.5h103v-10q-8 -21 -22 -48t-30.5 -53.5t-31.5 -48.5h-55v13zM222 -10q-66 0 -102 35t-36 122v327h-65v46q31 2 53 14.5t34 28.5q13 14 23 37.5t17 59.5h76v-124h111v-62h-111v-318q0 -47 12 -68t43 -21q18 0 34 2t30 6v-62
q-15 -7 -45.5 -15t-73.5 -8z" />
    <glyph glyph-name="Tbar" unicode="&#x166;" horiz-adv-x="572" 
d="M134 0v51h39q12 0 21 4.5t14.5 18.5t5.5 42v216h-119v50h119v273h-68q-38 0 -53 -20t-19 -53l-7 -58h-59l4 190h548l4 -190h-59l-6 58q-2 22 -9.5 38.5t-22 25.5t-41.5 9h-68v-273h118v-50h-118v-215q0 -29 5.5 -43t15 -18.5t21.5 -4.5h37v-51h-303z" />
    <glyph glyph-name="tbar" unicode="&#x167;" horiz-adv-x="358" 
d="M23 283v50h297v-50h-297zM221 -10q-66 0 -102 35t-36 122v327h-65v46q31 2 53 14.5t35 28.5q12 14 22.5 37.5t16.5 59.5h76v-124h111v-62h-111v-318q0 -47 12.5 -68t43.5 -21q17 0 33 2t30 6v-62q-14 -7 -45 -15t-74 -8z" />
    <glyph glyph-name="Utilde" unicode="&#x168;" horiz-adv-x="653" 
d="M333 -10q-70 0 -124 23t-83.5 73t-29.5 132v383q0 28 -8.5 41t-22 17t-31.5 4h-20v51h305v-51h-19q-17 0 -31 -4.5t-22.5 -18t-8.5 -43.5v-387q0 -85 34.5 -118t94.5 -33q38 0 65.5 17.5t43 52t15.5 84.5v388q0 28 -8 41t-21.5 17t-31.5 4h-19v51h228v-51h-20
q-17 0 -31 -4.5t-22.5 -18t-8.5 -43.5v-386q0 -67 -23.5 -116.5t-73 -77t-127.5 -27.5zM414 771q-23 0 -42 9.5t-35 22t-30.5 22t-29.5 9.5q-18 0 -29 -16.5t-13 -36.5h-59q2 38 17 70.5t39.5 52t55.5 19.5q23 0 42 -9.5t35 -22t30.5 -22t28.5 -9.5q17 0 28.5 16.5
t14.5 36.5h57q-1 -39 -16 -71t-38.5 -51.5t-55.5 -19.5z" />
    <glyph glyph-name="utilde" unicode="&#x169;" horiz-adv-x="584" 
d="M229 -10q-76 0 -111.5 48t-35.5 149v229q0 29 -5.5 43.5t-17 20t-33.5 5.5h-3v51h197v-326q0 -46 5.5 -77t19 -47t38.5 -16q28 0 44.5 19.5t24.5 54t8 81.5v194q0 30 -7 44t-19.5 18t-29.5 4h-3v51h196v-421q0 -29 7 -43t20.5 -17.5t29.5 -3.5h8v-51h-177l-20 73h-5
q-21 -44 -53 -63.5t-78 -19.5zM352 606q-23 0 -42 9.5t-35 22t-30.5 22t-29.5 9.5q-18 0 -29 -16.5t-13 -36.5h-59q2 38 17 70.5t39.5 52t55.5 19.5q23 0 42 -9.5t35 -22t30.5 -22t28.5 -9.5q17 0 28.5 16.5t14.5 36.5h57q-1 -39 -16 -71t-38.5 -51.5t-55.5 -19.5z" />
    <glyph glyph-name="Umacron" unicode="&#x16a;" horiz-adv-x="653" 
d="M333 -10q-70 0 -124 23t-83.5 73t-29.5 132v383q0 28 -8.5 41t-22 17t-31.5 4h-20v51h305v-51h-19q-17 0 -31 -4.5t-22.5 -18t-8.5 -43.5v-387q0 -85 34.5 -118t94.5 -33q38 0 65.5 17.5t43 52t15.5 84.5v388q0 28 -8 41t-21.5 17t-31.5 4h-19v51h228v-51h-20
q-17 0 -31 -4.5t-22.5 -18t-8.5 -43.5v-386q0 -67 -23.5 -116.5t-73 -77t-127.5 -27.5zM226 773v75h253v-75h-253z" />
    <glyph glyph-name="umacron" unicode="&#x16b;" horiz-adv-x="584" 
d="M229 -10q-76 0 -111.5 48t-35.5 149v229q0 29 -5.5 43.5t-17 20t-33.5 5.5h-3v51h197v-326q0 -46 5.5 -77t19 -47t38.5 -16q28 0 44.5 19.5t24.5 54t8 81.5v194q0 30 -7 44t-19.5 18t-29.5 4h-3v51h196v-421q0 -29 7 -43t20.5 -17.5t29.5 -3.5h8v-51h-177l-20 73h-5
q-21 -44 -53 -63.5t-78 -19.5zM155 608v75h253v-75h-253z" />
    <glyph glyph-name="Ubreve" unicode="&#x16c;" horiz-adv-x="653" 
d="M333 -10q-70 0 -124 23t-83.5 73t-29.5 132v383q0 28 -8.5 41t-22 17t-31.5 4h-20v51h305v-51h-19q-17 0 -31 -4.5t-22.5 -18t-8.5 -43.5v-387q0 -85 34.5 -118t94.5 -33q38 0 65.5 17.5t43 52t15.5 84.5v388q0 28 -8 41t-21.5 17t-31.5 4h-19v51h228v-51h-20
q-17 0 -31 -4.5t-22.5 -18t-8.5 -43.5v-386q0 -67 -23.5 -116.5t-73 -77t-127.5 -27.5zM345 771q-46 0 -77 22.5t-47 57.5t-17 72h60q7 -36 28.5 -52t53.5 -16q31 0 52.5 16t28.5 52h59q-1 -37 -16.5 -72t-46.5 -57.5t-78 -22.5z" />
    <glyph glyph-name="ubreve" unicode="&#x16d;" horiz-adv-x="584" 
d="M229 -10q-76 0 -111.5 48t-35.5 149v229q0 29 -5.5 43.5t-17 20t-33.5 5.5h-3v51h197v-326q0 -46 5.5 -77t19 -47t38.5 -16q28 0 44.5 19.5t24.5 54t8 81.5v194q0 30 -7 44t-19.5 18t-29.5 4h-3v51h196v-421q0 -29 7 -43t20.5 -17.5t29.5 -3.5h8v-51h-177l-20 73h-5
q-21 -44 -53 -63.5t-78 -19.5zM286 606q-46 0 -77 22.5t-47 57.5t-17 72h60q7 -36 28.5 -52t53.5 -16q31 0 52.5 16t28.5 52h59q-1 -37 -16.5 -72t-46.5 -57.5t-78 -22.5z" />
    <glyph glyph-name="Uring" unicode="&#x16e;" horiz-adv-x="653" 
d="M333 -10q-70 0 -124 23t-83.5 73t-29.5 132v383q0 28 -8.5 41t-22 17t-31.5 4h-20v51h305v-51h-19q-17 0 -31 -4.5t-22.5 -18t-8.5 -43.5v-387q0 -85 34.5 -118t94.5 -33q38 0 65.5 17.5t43 52t15.5 84.5v388q0 28 -8 41t-21.5 17t-31.5 4h-19v51h228v-51h-20
q-17 0 -31 -4.5t-22.5 -18t-8.5 -43.5v-386q0 -67 -23.5 -116.5t-73 -77t-127.5 -27.5zM332 761q-43 0 -73.5 28t-30.5 81t30.5 81t73.5 28q44 0 74.5 -28t30.5 -81t-30.5 -81t-74.5 -28zM332 812q22 0 37 13.5t15 44.5t-15 44.5t-36 13.5q-22 0 -37.5 -13.5t-15.5 -44.5
t15.5 -44.5t36.5 -13.5z" />
    <glyph glyph-name="uring" unicode="&#x16f;" horiz-adv-x="584" 
d="M229 -10q-76 0 -111.5 48t-35.5 149v229q0 29 -5.5 43.5t-17 20t-33.5 5.5h-3v51h197v-326q0 -46 5.5 -77t19 -47t38.5 -16q28 0 44.5 19.5t24.5 54t8 81.5v194q0 30 -7 44t-19.5 18t-29.5 4h-3v51h196v-421q0 -29 7 -43t20.5 -17.5t29.5 -3.5h8v-51h-177l-20 73h-5
q-21 -44 -53 -63.5t-78 -19.5zM279 596q-43 0 -73.5 28t-30.5 81t30.5 81t73.5 28q44 0 74.5 -28t30.5 -81t-30.5 -81t-74.5 -28zM279 647q22 0 37 13.5t15 44.5t-15 44.5t-36 13.5q-22 0 -37.5 -13.5t-15.5 -44.5t15.5 -44.5t36.5 -13.5z" />
    <glyph glyph-name="Uhungarumlaut" unicode="&#x170;" horiz-adv-x="653" 
d="M333 -10q-70 0 -124 23t-83.5 73t-29.5 132v383q0 28 -8.5 41t-22 17t-31.5 4h-20v51h305v-51h-19q-17 0 -31 -4.5t-22.5 -18t-8.5 -43.5v-387q0 -85 34.5 -118t94.5 -33q38 0 65.5 17.5t43 52t15.5 84.5v388q0 28 -8 41t-21.5 17t-31.5 4h-19v51h228v-51h-20
q-17 0 -31 -4.5t-22.5 -18t-8.5 -43.5v-386q0 -67 -23.5 -116.5t-73 -77t-127.5 -27.5zM381 784q19 35 39.5 74t34.5 73h109v-10q-9 -17 -31 -45.5t-47 -56.5t-46 -48h-59v13zM215 784q19 35 39.5 74t33.5 73h110v-10q-9 -17 -31 -45.5t-47.5 -56.5t-44.5 -48h-60v13z" />
    <glyph glyph-name="uhungarumlaut" unicode="&#x171;" horiz-adv-x="584" 
d="M229 -10q-76 0 -111.5 48t-35.5 149v229q0 29 -5.5 43.5t-17 20t-33.5 5.5h-3v51h197v-326q0 -46 5.5 -77t19 -47t38.5 -16q28 0 44.5 19.5t24.5 54t8 81.5v194q0 30 -7 44t-19.5 18t-29.5 4h-3v51h196v-421q0 -29 7 -43t20.5 -17.5t29.5 -3.5h8v-51h-177l-20 73h-5
q-21 -44 -53 -63.5t-78 -19.5zM313 619q19 35 39.5 74t34.5 73h109v-10q-9 -17 -31 -45.5t-47 -56.5t-46 -48h-59v13zM147 619q19 35 39.5 74t33.5 73h110v-10q-9 -17 -31 -45.5t-47.5 -56.5t-44.5 -48h-60v13z" />
    <glyph glyph-name="Uogonek" unicode="&#x172;" horiz-adv-x="631" 
d="M341 -10q-70 0 -124 23t-83.5 73t-29.5 132v383q0 28 -8.5 41t-22 17t-31.5 4h-20v51h305v-51h-19q-17 0 -31 -4.5t-22.5 -18t-8.5 -43.5v-387q0 -85 34.5 -118t94.5 -33q38 0 65.5 17.5t43 52t15.5 84.5v388q0 28 -8 41t-21.5 17t-31.5 4h-19v51h228v-51h-20
q-17 0 -31 -4.5t-22.5 -18t-8.5 -43.5v-386q0 -67 -23.5 -116.5t-73 -77t-127.5 -27.5zM380 -240q-65 0 -98 26.5t-33 83.5q0 31 14.5 58t38 46t50.5 26h69q-18 -6 -37 -21.5t-32 -38.5t-13 -55q0 -29 17.5 -42t43.5 -13q12 0 25.5 2t29.5 6v-62q-9 -5 -23 -8.5t-28 -5.5
t-24 -2z" />
    <glyph glyph-name="uogonek" unicode="&#x173;" horiz-adv-x="584" 
d="M229 -10q-76 0 -111.5 48t-35.5 149v229q0 29 -5.5 43.5t-17 20t-33.5 5.5h-3v51h197v-326q0 -46 5.5 -77t19 -47t38.5 -16q28 0 44.5 19.5t24.5 54t8 81.5v194q0 30 -7 44t-19.5 18t-29.5 4h-3v51h196v-421q0 -29 7 -43t20.5 -17.5t29.5 -3.5h8v-51h-177l-20 73h-5
q-21 -44 -53 -63.5t-78 -19.5zM413 -237q-63 0 -96 25.5t-33 81.5q0 32 14.5 59t37.5 45.5t48 25.5h70q-19 -6 -37.5 -22.5t-31 -40t-12.5 -55.5q0 -28 16.5 -41.5t42.5 -13.5q12 0 25.5 2.5t29.5 7.5v-59q-9 -4 -23 -7.5t-27.5 -5.5t-23.5 -2z" />
    <glyph glyph-name="Wcircumflex" unicode="&#x174;" horiz-adv-x="931" 
d="M73 610q-5 22 -13 33.5t-20 15.5t-29 4h-11v51h295v-51h-21q-26 0 -38.5 -10.5t-12.5 -32.5q0 -8 2.5 -24.5t5.5 -30.5l53 -234q7 -26 14.5 -60t13.5 -66.5t8 -55.5q5 34 13.5 64.5t16.5 62.5l114 431h69l118 -393q14 -48 26.5 -93.5t16.5 -72.5q4 24 9 52.5t10 59
t12 62.5l50 250q1 10 2.5 26t1.5 23q0 24 -13.5 33t-42.5 9h-20v51h229v-51h-17q-17 0 -29 -5.5t-21 -22.5t-16 -50l-130 -585h-113l-138 476l-124 -476h-121zM337 784q14 19 33 45t37 53t27 49h121q9 -22 26.5 -49t37 -53t32.5 -45v-13h-62q-11 12 -28.5 29t-35.5 35
t-31 32q-14 -15 -31.5 -32t-34 -33.5t-29.5 -30.5h-62v13z" />
    <glyph glyph-name="wcircumflex" unicode="&#x175;" horiz-adv-x="745" 
d="M62 432q-5 22 -13.5 33t-20 15.5t-28.5 4.5h-3v51h259v-51h-10q-26 0 -39 -8.5t-13 -33.5q0 -8 2.5 -20t4.5 -23l29 -138q5 -24 10.5 -50t9.5 -49t6 -39h4q2 17 6 37.5t10 42t11 39.5l89 289h56l83 -296q4 -12 7.5 -27.5t6.5 -31t5 -29.5t4 -24h3q3 23 8.5 51.5
t13.5 61.5l38 149q3 13 5.5 27.5t2.5 22.5q0 26 -14 37.5t-42 11.5h-6v51h199v-51h-11q-17 0 -28 -5.5t-19.5 -22.5t-17.5 -50l-113 -407h-96l-93 350l-98 -350h-96zM243 619q14 19 33 45t37 53t27 49h121q9 -22 26.5 -49t37 -53t32.5 -45v-13h-62q-11 12 -28.5 29t-35.5 35
t-31 32q-14 -15 -31.5 -32t-34 -33.5t-29.5 -30.5h-62v13z" />
    <glyph glyph-name="Ycircumflex" unicode="&#x176;" horiz-adv-x="609" 
d="M143 0v51h26q20 0 34.5 5t22.5 20t8 43v149l-160 342q-9 20 -16.5 31.5t-18 16.5t-27.5 5h-12v51h296v-51h-13q-26 0 -39.5 -11.5t-13.5 -30.5q0 -11 3.5 -26t9.5 -28l65 -139q13 -29 21.5 -52.5t15.5 -46.5q9 24 21.5 53t25.5 61l50 113q9 21 12.5 37t3.5 24
q0 26 -14.5 36t-43.5 10h-19v51h229v-51h-10q-15 0 -26 -6.5t-21.5 -23t-25.5 -47.5l-148 -318v-148q0 -29 8 -44t21 -20t29 -5h33v-51h-327zM152 784q14 19 33 45t37 53t27 49h121q9 -22 26.5 -49t37 -53t32.5 -45v-13h-62q-11 12 -28.5 29t-35.5 35t-31 32
q-14 -15 -31.5 -32t-34 -33.5t-29.5 -30.5h-62v13z" />
    <glyph glyph-name="ycircumflex" unicode="&#x177;" horiz-adv-x="505" 
d="M23 -174q45 0 76.5 12t53.5 34t36.5 53t24.5 68l-155 444q-7 20 -14.5 30.5t-16.5 14t-24 3.5h-4v51h254v-51h-4q-28 0 -39.5 -9t-11.5 -26q0 -10 2.5 -23t7.5 -29l50 -161q8 -25 14 -48.5t10 -43t5 -34.5q4 25 9.5 48.5t12.5 46.5l53 190q4 11 6.5 26.5t2.5 27.5
q0 20 -12 27t-38 8h-4v51h187v-51h-3q-16 0 -27.5 -6t-21 -22t-18.5 -43l-131 -411q-22 -70 -42.5 -115t-47 -71t-68.5 -36t-108 -10h-15v55zM100 619q14 19 33 45t37 53t27 49h121q9 -22 26.5 -49t37 -53t32.5 -45v-13h-62q-11 12 -28.5 29t-35.5 35t-31 32
q-14 -15 -31.5 -32t-34 -33.5t-29.5 -30.5h-62v13z" />
    <glyph glyph-name="Ydieresis" unicode="&#x178;" horiz-adv-x="609" 
d="M143 0v51h26q20 0 34.5 5t22.5 20t8 43v149l-160 342q-9 20 -16.5 31.5t-18 16.5t-27.5 5h-12v51h296v-51h-13q-26 0 -39.5 -11.5t-13.5 -30.5q0 -11 3.5 -26t9.5 -28l65 -139q13 -29 21.5 -52.5t15.5 -46.5q9 24 21.5 53t25.5 61l50 113q9 21 12.5 37t3.5 24
q0 26 -14.5 36t-43.5 10h-19v51h229v-51h-10q-15 0 -26 -6.5t-21.5 -23t-25.5 -47.5l-148 -318v-148q0 -29 8 -44t21 -20t29 -5h33v-51h-327zM404 792q-23 0 -40 14t-17 49t17 49t40 14q22 0 39.5 -14t17.5 -49t-17.5 -49t-39.5 -14zM226 792q-23 0 -40 14t-17 49t17 49
t40 14q21 0 39 -14t18 -49t-18 -49t-39 -14z" />
    <glyph glyph-name="Zacute" unicode="&#x179;" horiz-adv-x="586" 
d="M36 0v48l329 607h-171q-42 0 -55.5 -24.5t-16.5 -63.5l-4 -52h-65l5 199h470v-49l-329 -606h186q37 0 56.5 14t27.5 36t10 46l4 44h64l-4 -199h-507zM229 784q14 22 30.5 47.5t32 51.5t23.5 48h142v-10q-8 -13 -27 -32.5t-43.5 -41t-50 -41.5t-46.5 -35h-61v13z" />
    <glyph glyph-name="zacute" unicode="&#x17a;" horiz-adv-x="462" 
d="M14 0v41l259 433h-106q-32 0 -46 -15.5t-24 -55.5l-6 -24h-54l11 157h380v-42l-260 -432h137q36 0 51.5 18.5t23.5 63.5l6 33h52l-5 -177h-419zM175 619q14 22 30.5 47.5t32 51.5t23.5 48h142v-10q-8 -13 -27 -32.5t-43.5 -41t-50 -41.5t-46.5 -35h-61v13z" />
    <glyph glyph-name="Zdotaccent" unicode="&#x17b;" horiz-adv-x="586" 
d="M36 0v48l329 607h-171q-42 0 -55.5 -24.5t-16.5 -63.5l-4 -52h-65l5 199h470v-49l-329 -606h186q37 0 56.5 14t27.5 36t10 46l4 44h64l-4 -199h-507zM308 795q-32 0 -54 16.5t-22 51.5q0 36 22 52t54 16q31 0 54.5 -15.5t23.5 -52.5q0 -35 -23.5 -51.5t-54.5 -16.5z" />
    <glyph glyph-name="zdotaccent" unicode="&#x17c;" horiz-adv-x="462" 
d="M14 0v41l259 433h-106q-32 0 -46 -15.5t-24 -55.5l-6 -24h-54l11 157h380v-42l-260 -432h137q36 0 51.5 18.5t23.5 63.5l6 33h52l-5 -177h-419zM249 630q-32 0 -54 16.5t-22 51.5q0 36 22 52t54 16q31 0 54.5 -15.5t23.5 -52.5q0 -35 -23.5 -51.5t-54.5 -16.5z" />
    <glyph glyph-name="Zcaron" unicode="&#x17d;" horiz-adv-x="586" 
d="M36 0v48l329 607h-171q-42 0 -55.5 -24.5t-16.5 -63.5l-4 -52h-65l5 199h470v-49l-329 -606h186q37 0 56.5 14t27.5 36t10 46l4 44h64l-4 -199h-507zM242 771q-9 23 -27 49.5t-37 52.5t-33 45v13h62q13 -13 30 -29.5t34.5 -33.5t30.5 -33q13 16 30.5 33t35 33.5
t29.5 29.5h62v-13q-13 -19 -32.5 -45t-37 -52.5t-26.5 -49.5h-121z" />
    <glyph glyph-name="zcaron" unicode="&#x17e;" horiz-adv-x="462" 
d="M14 0v41l259 433h-106q-32 0 -46 -15.5t-24 -55.5l-6 -24h-54l11 157h380v-42l-260 -432h137q36 0 51.5 18.5t23.5 63.5l6 33h52l-5 -177h-419zM183 606q-9 23 -27 49.5t-37 52.5t-33 45v13h62q13 -13 30 -29.5t34.5 -33.5t30.5 -33q13 16 30.5 33t35 33.5t29.5 29.5h62
v-13q-13 -19 -32.5 -45t-37 -52.5t-26.5 -49.5h-121z" />
    <glyph glyph-name="longs" unicode="&#x17f;" horiz-adv-x="344" 
d="M6 0v51h20q19 0 32 5.5t21 21t8 45.5v452q0 93 46 143.5t140 50.5q57 0 87.5 -11t42 -29t11.5 -38q0 -28 -23.5 -43t-71.5 -15q0 35 -9.5 58.5t-35.5 23.5q-28 0 -39 -30.5t-11 -95.5v-467q0 -28 8 -43.5t21.5 -21.5t31.5 -6h42v-51h-321z" />
    <glyph glyph-name="uni0180" unicode="&#x180;" horiz-adv-x="568" 
d="M349 -10q-50 0 -82.5 24.5t-51.5 63.5h-6l-27 -78h-168v51h6q17 0 32 5t24.5 20t9.5 45v464h-71v49h71v11q0 28 -8.5 41.5t-24 18t-34.5 4.5h-5v51h210v-126h134v-49h-134v-25q0 -20 -0.5 -46.5t-2 -47t-2.5 -23.5h3q18 34 50.5 57t82.5 23q83 0 128 -64.5t45 -198.5
q0 -92 -21 -152t-60.5 -89t-97.5 -29zM311 60q28 0 45 25t25 70.5t8 106.5q0 94 -18.5 143.5t-60.5 49.5q-50 0 -68 -50t-18 -144q0 -95 18 -148t69 -53z" />
    <glyph glyph-name="uni0181" unicode="&#x181;" horiz-adv-x="710" 
d="M146 0v51h39q13 0 22 4.5t14.5 18.5t5.5 43v459q0 47 -12.5 67t-48.5 20q-30 0 -47.5 -18.5t-17.5 -64.5q0 -22 5.5 -36.5t16.5 -29.5q-9 -9 -21 -14.5t-28 -5.5q-36 0 -50.5 27.5t-14.5 60.5q0 43 16.5 72t53.5 44.5t98 15.5h226q125 0 188 -43.5t63 -136.5
q0 -44 -14 -73.5t-38 -48.5t-58 -31v-5q40 -10 71 -34t48 -60.5t17 -85.5q0 -98 -63 -147t-188 -49h-283zM425 59q56 0 80 31t24 109q0 49 -9.5 81.5t-31.5 48.5t-61 16h-58v-286h56zM400 403q40 0 62 13.5t31.5 42.5t9.5 73q0 70 -23.5 96.5t-81.5 26.5h-29v-252h31z" />
    <glyph glyph-name="uni0182" unicode="&#x182;" horiz-adv-x="556" 
d="M22 0v51h42q12 0 21.5 4t15 17t5.5 38v495q0 26 -6 38t-15.5 16t-20.5 4h-42v51h466l5 -189h-60l-6 56q-2 20 -9 34.5t-21.5 23.5t-40.5 9h-107v-226h44q81 0 134.5 -24t80 -70.5t26.5 -112.5q0 -63 -27 -112t-80.5 -76t-133.5 -27h-271zM249 66h25q61 0 85.5 35.5
t24.5 113.5q0 73 -24.5 107t-85.5 34h-25v-290z" />
    <glyph glyph-name="uni0183" unicode="&#x183;" horiz-adv-x="568" 
d="M349 -10q-50 0 -82.5 24.5t-51.5 63.5h-6l-27 -78h-168v51h6q17 0 32 5t24.5 20t9.5 46v520q0 29 -9 43.5t-24.5 19t-34.5 4.5h-4v51h468v-160h-52l-7 33q-5 29 -13.5 43.5t-23.5 20t-39 5.5h-123v-115q0 -16 -0.5 -36t-1.5 -39.5t-1.5 -33t-1.5 -15.5h3q19 37 50.5 60.5
t81.5 23.5q84 0 129 -66.5t45 -210.5q0 -97 -21 -159t-60.5 -91.5t-97.5 -29.5zM311 60q42 0 60 54.5t18 156.5q0 106 -18.5 157t-60.5 51q-50 0 -68 -52t-18 -157q0 -67 7.5 -114t26.5 -71.5t53 -24.5z" />
    <glyph glyph-name="uni0184" unicode="&#x184;" horiz-adv-x="585" 
d="M318 -10q-74 0 -120.5 23t-68.5 66.5t-22 104.5v417q0 28 -5.5 41.5t-15 17t-21.5 3.5h-39v51h302v-51h-37q-12 0 -21.5 -4t-15 -18t-5.5 -43v-197h59q79 0 135 -22t86 -66t30 -110q0 -73 -29 -120.5t-83 -70t-129 -22.5zM328 38q30 0 47 17.5t25 53.5t8 90q0 78 -29 111
t-93 33h-37v-160q0 -74 17.5 -109.5t61.5 -35.5z" />
    <glyph glyph-name="uni0185" unicode="&#x185;" horiz-adv-x="568" 
d="M300 -10q-56 0 -97 17t-68 51t-40 85t-13 120v379q0 29 -9.5 43.5t-24.5 19t-34 4.5h-3v51h208v-173q0 -21 -1 -47t-2 -47.5t-2 -29.5h4q19 37 50.5 60.5t81.5 23.5q83 0 128 -65t45 -212q0 -91 -24.5 -153.5t-74 -94.5t-124.5 -32zM303 45q28 0 46 21.5t26.5 71
t8.5 133.5q0 105 -18.5 156.5t-61.5 51.5q-49 0 -67.5 -53.5t-18.5 -157.5q0 -82 9 -131t27.5 -70.5t48.5 -21.5z" />
    <glyph glyph-name="uni0186" unicode="&#x186;" horiz-adv-x="585" 
d="M232 -10q-64 0 -108.5 15t-66.5 40.5t-22 54.5q0 37 28.5 60.5t84.5 23.5q0 -30 8 -60.5t28.5 -51t54.5 -20.5q57 0 89 36.5t45.5 104.5t13.5 162q0 96 -12 156.5t-33 93.5t-48.5 45.5t-59.5 12.5t-55 -15t-35 -47.5t-12 -83.5q-37 0 -58.5 11.5t-30 30.5t-8.5 43
t12 46.5t36 39.5t61 26.5t90 9.5q100 0 167.5 -41t101.5 -123t34 -205q0 -107 -34 -189.5t-101.5 -129t-169.5 -46.5z" />
    <glyph glyph-name="uni0187" unicode="&#x187;" horiz-adv-x="587" 
d="M353 -10q-102 0 -170 46t-101.5 128.5t-33.5 193.5q0 109 34 191.5t101.5 128.5t166.5 46q49 0 81 -8t57 -23v38q0 37 11.5 69t35 51.5t60.5 19.5q35 0 56 -17t21 -47q0 -13 -4 -25.5t-10 -19.5q-12 7 -24.5 12t-26.5 5q-25 0 -40.5 -18.5t-15.5 -76.5v-63q0 -51 -28 -73
t-83 -22q0 33 -9 64t-30.5 51.5t-58.5 20.5q-53 0 -84.5 -36t-45 -104t-13.5 -164q0 -98 17 -164t56 -98.5t103 -32.5q43 0 73.5 14.5t52 37t36.5 45.5q6 -6 10 -18t4 -23q0 -20 -10 -42.5t-32.5 -42t-60.5 -32t-95 -12.5z" />
    <glyph glyph-name="uni0188" unicode="&#x188;" horiz-adv-x="463" 
d="M258 -10q-64 0 -113.5 26.5t-77 87.5t-27.5 162q0 108 28.5 169.5t77.5 87t109 25.5q37 0 65 -5.5t48 -16.5v78q0 45 12 80t36 55.5t62 20.5q36 0 54 -17t18 -46q0 -14 -4 -25t-10 -18q-10 7 -21.5 11.5t-26.5 4.5q-26 0 -42 -19.5t-16 -76.5v-130q0 -22 -9 -40t-34 -29
t-73 -11q0 34 -5 62.5t-17 46t-33 17.5q-24 0 -42 -20t-28 -68t-10 -135q0 -68 10.5 -114.5t32 -70t56.5 -23.5q31 0 57 11.5t44.5 31t27.5 42.5q12 -8 16.5 -19.5t4.5 -25.5q0 -24 -17.5 -49t-54.5 -42.5t-98 -17.5z" />
    <glyph glyph-name="uni0189" unicode="&#x189;" horiz-adv-x="671" 
d="M24 0v51h34q14 0 24.5 6t16.5 20t6 37v231h-71v57h71v200q0 25 -6.5 38t-18 18t-27.5 5h-29v51h290q96 0 166 -39t107 -116.5t37 -191.5q0 -109 -35 -192t-104 -129t-172 -46h-289zM293 60q59 0 98.5 36.5t60 105.5t20.5 165q0 97 -20.5 161t-60 95.5t-97.5 31.5h-47
v-253h105v-57h-105v-285h46z" />
    <glyph glyph-name="uni018A" unicode="&#x18a;" horiz-adv-x="793" 
d="M146 0v51h34q14 0 25 6t17 20t6 37v462q0 47 -12.5 67t-47.5 20q-30 0 -49.5 -19t-19.5 -64q0 -21 6.5 -36.5t17.5 -30.5q-10 -9 -21.5 -14.5t-27.5 -5.5q-32 0 -49 24t-17 61q0 40 18.5 70.5t57 48t99.5 17.5h253q97 0 166.5 -39.5t106.5 -116.5t37 -191
q0 -109 -35 -192t-104 -129t-171 -46h-290zM416 60q58 0 98 36.5t60 105.5t20 165q0 97 -20 161t-59.5 95.5t-98.5 31.5h-47v-595h47z" />
    <glyph glyph-name="uni018B" unicode="&#x18b;" horiz-adv-x="571" 
d="M254 0q-83 0 -134 24.5t-74 69.5t-23 104q0 61 22.5 106.5t72.5 71t133 25.5h67v254h-111q-41 0 -56 -18t-19 -54l-5 -59h-61l4 190h471v-51h-31q-15 0 -26 -4.5t-17.5 -18.5t-6.5 -43v-480q0 -26 6.5 -40.5t18 -20t28.5 -5.5h28v-51h-287zM277 57h42v288h-33
q-56 0 -83.5 -33.5t-27.5 -112.5q0 -50 11 -81.5t33.5 -46t57.5 -14.5z" />
    <glyph glyph-name="uni018C" unicode="&#x18c;" horiz-adv-x="568" 
d="M218 -10q-57 0 -97 29.5t-60.5 91.5t-20.5 159q0 145 45.5 211.5t129.5 66.5q50 0 81 -22.5t49 -59.5h6q1 0 0 11.5t-3 31t-2.5 39.5t-0.5 36v118h-100q-25 0 -42.5 -9.5t-28.5 -26.5t-19 -43l-5 -17h-53v154h385v-640q0 -30 9 -44.5t24.5 -19.5t31.5 -5h6v-51h-167
l-25 81h-8q-20 -40 -52 -65.5t-83 -25.5zM257 60q50 0 69 56.5t19 153.5q0 107 -18.5 158t-68.5 51q-42 0 -60.5 -51.5t-18.5 -157.5q0 -102 19 -156t59 -54z" />
    <glyph glyph-name="uni018D" unicode="&#x18d;" horiz-adv-x="537" 
d="M281 546q66 0 116 -26.5t77.5 -76.5t27.5 -123q0 -69 -23 -116t-63.5 -77t-93.5 -47q33 -24 58 -47t39.5 -49.5t14.5 -63.5q0 -47 -24.5 -80.5t-68 -51t-100.5 -17.5q-63 0 -101.5 16.5t-55.5 41t-17 47.5q0 35 24.5 52t63.5 17q0 -33 9 -60.5t28.5 -43.5t51.5 -16
q37 0 57.5 19t20.5 53q0 28 -12.5 47.5t-39 40t-69.5 50.5q-47 35 -82 71t-54 82.5t-19 111.5q0 80 30 135t83 83t122 28zM278 485q-27 1 -48.5 -18.5t-33 -56t-11.5 -88.5q0 -57 11 -95.5t31 -64t46 -46.5q22 10 42.5 33t34.5 64.5t14 105.5q0 56 -10.5 92.5t-29.5 55
t-46 18.5z" />
    <glyph glyph-name="uni018E" unicode="&#x18e;" horiz-adv-x="571" 
d="M546 0h-515l-6 182h62l6 -46q4 -22 12 -39.5t22 -27.5t37 -10h159v286h-207v57h207v253h-135q-23 0 -37 -9t-20.5 -26.5t-8.5 -42.5l-5 -45h-63l3 182h489v-51h-32q-13 0 -24.5 -4t-18 -17.5t-6.5 -41.5v-491q0 -21 5.5 -34t16.5 -18.5t26 -5.5h33v-51z" />
    <glyph glyph-name="uni018F" unicode="&#x18f;" horiz-adv-x="637" 
d="M307 -10q-71 0 -120.5 25t-80 73t-44.5 115t-14 151v27h392q-2 70 -15 121t-36 84t-56 49.5t-74 16.5q-53 0 -96.5 -22t-78.5 -55q-5 6 -8 14t-3 22q0 23 17 44t47.5 36.5t70 24.5t82.5 9q95 0 161.5 -43t102 -123t35.5 -193q0 -122 -36 -206t-99 -127t-147 -43zM314 53
q39 0 66 30.5t42 91t16 150.5h-239q1 -64 7 -114.5t19 -86t35 -53.5t54 -18z" />
    <glyph glyph-name="uni0190" unicode="&#x190;" horiz-adv-x="536" 
d="M284 -11q-52 0 -98 12t-81 37.5t-55 64.5t-20 93q0 45 14.5 77t38 52.5t52.5 32.5t57 16q-37 8 -70 28t-53 55t-20 86q0 58 26 98.5t77.5 61.5t127.5 21q52 0 91 -11t64.5 -30t38.5 -42t13 -48q0 -31 -15 -48t-41 -23.5t-59 -6.5q0 45 -9 79t-28.5 52.5t-55.5 18.5
q-33 0 -53.5 -15t-30 -42.5t-9.5 -66.5q0 -48 14.5 -79.5t44 -47t74.5 -15.5h79v-59h-80q-82 0 -117 -37.5t-35 -104.5q0 -47 17.5 -77t47.5 -44t67 -14q49 0 84 15.5t59 40t37 52.5q8 -7 15 -19t7 -30q0 -32 -23.5 -62.5t-71 -50.5t-121.5 -20z" />
    <glyph glyph-name="uni0191" unicode="&#x191;" horiz-adv-x="660" 
d="M160 -240q-62 0 -98.5 14.5t-52 38.5t-15.5 54t14.5 47t35.5 23t39 6q0 -71 20 -99.5t49 -28.5q33 0 51 27.5t18 73.5v685q0 27 -5.5 40.5t-14.5 17.5t-21 4h-40v51h486l4 -182h-62l-4 47q-3 26 -11 42.5t-21 25t-31 8.5h-138v-256h206v-57h-206v-379q0 -67 -26.5 -112
t-72 -68t-104.5 -23z" />
    <glyph glyph-name="fhook" unicode="&#x192;" horiz-adv-x="434" 
d="M129 -240q-53 0 -83 12t-42.5 31t-12.5 40t9.5 36t28 23t44.5 8q0 -23 4.5 -45t15.5 -35.5t32 -13.5q26 0 38 26.5t12 81.5v547h-78v65h78v40q0 92 42.5 143t138.5 51q55 0 85.5 -10.5t42.5 -27t12 -35.5t-9.5 -34t-31 -23t-59.5 -8q0 17 -3.5 36.5t-12.5 33t-25 13.5
q-23 0 -33.5 -28.5t-10.5 -94.5v-56h119v-65h-119v-514q0 -65 -22.5 -109t-63 -66t-96.5 -22z" />
    <glyph glyph-name="uni0193" unicode="&#x193;" horiz-adv-x="674" 
d="M371 -10q-109 0 -180.5 46t-107 128.5t-35.5 193.5q0 108 37 190.5t109.5 129t180.5 46.5q53 0 91 -9t66 -24v35q0 41 11.5 74t35 52t60.5 19q34 0 55 -17.5t21 -46.5q0 -15 -4 -26.5t-11 -18.5q-11 7 -23 12t-27 5q-26 0 -40.5 -20t-14.5 -72v-58q0 -29 -9 -52
t-33.5 -36.5t-71.5 -13.5q0 39 -11.5 69.5t-36 48t-61.5 17.5q-61 0 -99.5 -34.5t-56 -102t-17.5 -167.5q0 -98 18 -165.5t58.5 -103t108.5 -35.5q14 0 30 2t30 7v151q0 27 -6 42.5t-19.5 21.5t-33.5 6h-13v50h271v-50h-7q-18 0 -28.5 -6.5t-15.5 -22.5t-5 -45v-168
q-51 -26 -103.5 -39t-112.5 -13z" />
    <glyph glyph-name="uni0194" unicode="&#x194;" horiz-adv-x="610" 
d="M295 -240q-39 0 -64.5 16.5t-38.5 48t-13 75.5q0 30 6.5 64.5t22 77.5t42.5 100l-175 473q-7 18 -14 28.5t-16.5 15t-23.5 4.5h-19v51h285v-51h-30q-21 0 -30 -8.5t-9 -24.5q0 -11 2.5 -22.5t6.5 -24.5l108 -312l117 308q5 13 8.5 25.5t3.5 22.5q0 20 -10.5 28t-29.5 8
h-34v51h220v-51h-19q-17 0 -27 -6t-18 -21.5t-20 -45.5l-155 -399q28 -67 43 -115.5t21.5 -85.5t6.5 -69q0 -76 -37.5 -118.5t-109.5 -42.5zM284 -171q19 0 29.5 16t10.5 54q0 24 -3.5 48.5t-11.5 52.5t-22 63q-14 -35 -23 -64t-13 -53.5t-4 -47.5q0 -37 10 -53t27 -16z" />
    <glyph glyph-name="uni0195" unicode="&#x195;" horiz-adv-x="831" 
d="M555 -9q-107 0 -154.5 53.5t-47.5 170.5v118q0 65 -14 100t-47 35q-26 0 -41 -21t-21.5 -57t-6.5 -78v-196q0 -29 8 -43t22 -18t33 -4h2v-51h-270v51h1q20 0 35 5t23.5 19.5t8.5 44.5v527q0 28 -10 41t-24.5 17t-25.5 4h-11v51h209v-177q0 -24 -2 -54.5t-3.5 -50.5
t-0.5 -13h7q15 34 35 52t44 25t52 7q62 0 98 -47t36 -148v-158q0 -44 6.5 -71t20.5 -39t34 -12t35 12t23 38.5t8 69.5v221q0 30 -5.5 45t-18 20t-33.5 5h-2v51h196v-319q0 -78 -20.5 -127.5t-64 -74t-114.5 -24.5z" />
    <glyph glyph-name="uni0196" unicode="&#x196;" horiz-adv-x="353" 
d="M237 -10q-47 0 -77 17t-45 54.5t-15 98.5v437q0 30 -6.5 43.5t-18 18t-25.5 4.5h-30v51h303v-51h-28q-13 0 -25 -4.5t-19.5 -18t-7.5 -43.5v-467q0 -26 4.5 -43t14.5 -25.5t27 -8.5q10 0 18.5 1.5t15.5 4.5v-54q-10 -4 -32 -9.5t-54 -5.5z" />
    <glyph glyph-name="uni0197" unicode="&#x197;" horiz-adv-x="352" 
d="M24 0v51h34q12 0 23 5t17.5 18t6.5 36v232h-93v61h93v198q0 25 -6.5 38t-17.5 18.5t-23 5.5h-34v51h305v-51h-35q-14 0 -24.5 -5.5t-16.5 -18.5t-6 -39v-197h93v-61h-93v-231q0 -23 6.5 -36t17 -18.5t23.5 -5.5h35v-51h-305z" />
    <glyph glyph-name="uni0198" unicode="&#x198;" horiz-adv-x="642" 
d="M24 0v51h40q11 0 20 4t14.5 17t5.5 40v489q0 28 -5.5 41t-14.5 17t-21 4h-39v51h304v-51h-39q-12 0 -21.5 -4.5t-15 -18.5t-5.5 -43v-241l207 288q17 24 32.5 41t33 26.5t42.5 9.5q42 0 62 -21t20 -56q0 -20 -7 -36t-18 -25t-23 -9q-4 25 -15.5 41t-35.5 16
q-17 0 -32.5 -11.5t-32.5 -34.5l-104 -154l164 -299q16 -31 31 -48.5t31 -25t36 -7.5h4v-51h-54q-48 0 -80 5t-52 16.5t-32.5 28.5t-22.5 42l-117 236l-37 -45v-166q0 -29 5.5 -43t15 -18.5t21.5 -4.5h39v-51h-304z" />
    <glyph glyph-name="uni0199" unicode="&#x199;" horiz-adv-x="559" 
d="M14 0v51h12q12 0 26 4.5t24 18.5t10 43v453q0 65 17.5 109t56.5 66t101 22q55 0 84 -12.5t40 -31.5t11 -39q0 -17 -8 -31.5t-28.5 -23.5t-59.5 -9q0 25 -2.5 45.5t-10 32.5t-22.5 12q-21 0 -31 -26t-10 -94v-213q0 -13 -0.5 -30.5t-1.5 -34.5t-1.5 -30t-0.5 -17l107 142
q11 14 16 24t6.5 17.5t1.5 11.5q0 13 -11.5 20.5t-33.5 7.5v48h221v-48q-20 0 -40 -9.5t-40 -28.5t-42 -49l-50 -66l116 -200q24 -41 43 -62.5t41 -21.5h3v-51h-12q-49 0 -81.5 4t-55 15t-39.5 31.5t-35 54.5l-72 139l-39 -48v-80q0 -28 10.5 -42t24.5 -18.5t25 -4.5h12v-51
h-282z" />
    <glyph glyph-name="uni019A" unicode="&#x19a;" horiz-adv-x="310" 
d="M15 0v51h11q18 0 31.5 5.5t21 21t7.5 45.5v238h-88v55h88v231q0 28 -10 41t-24.5 17t-25.5 4h-11v51h209v-344h87v-55h-87v-238q0 -29 7.5 -45t21.5 -21.5t32 -5.5h10v-51h-280z" />
    <glyph glyph-name="uni019B" unicode="&#x19b;" horiz-adv-x="500" 
d="M246 534q-5 21 -9 38.5t-9 31.5l-112 -72v62l87 58q-9 17 -19 26t-20.5 13t-22.5 4q-27 0 -44.5 -13t-27.5 -28q-6 8 -11.5 20.5t-5.5 29.5q0 31 23 48.5t57 17.5q27 0 49 -9t40.5 -28t32.5 -49l119 77v-63l-94 -62q8 -20 15.5 -43t13.5 -48l75 -309q19 -75 38 -115
t37 -55t34 -15h5v-51h-21q-36 0 -61 10t-43 39t-34 85q-8 31 -15 62t-13 59.5t-9.5 52.5t-6 42t-4.5 28h-3q-3 -15 -11.5 -41t-19 -54t-19.5 -51l-94 -232h-144z" />
    <glyph glyph-name="uni019C" unicode="&#x19c;" horiz-adv-x="1016" 
d="M280 -10q-68 0 -108 23.5t-58 74.5t-18 131v382q0 28 -5.5 41t-14.5 17t-21 4h-41v51h298v-51h-35q-12 0 -20.5 -4.5t-14 -18t-5.5 -43.5v-386q0 -61 10 -95t28.5 -47t43.5 -13q38 0 63.5 23t37.5 63.5t12 93.5v365q0 28 -4.5 41t-13 17t-21.5 4h-36v51h290v-51h-35
q-12 0 -20.5 -4.5t-13.5 -18t-5 -43.5v-389q0 -59 8.5 -92t27 -46.5t46.5 -13.5q38 0 63 21.5t37.5 60.5t12.5 93v366q0 30 -5 43.5t-14 18t-22 4.5h-34v51h297v-51h-39q-12 0 -21.5 -4.5t-14.5 -18t-5 -43.5v-481q0 -28 5 -42.5t14.5 -18.5t21.5 -4h39v-51h-200l-16 79h-1
q-28 -39 -64 -64t-93 -25q-44 0 -75.5 12t-52.5 35.5t-35 58.5q-16 -30 -37.5 -54t-54 -38t-81.5 -14z" />
    <glyph glyph-name="uni019D" unicode="&#x19d;" horiz-adv-x="687" 
d="M20 -240v59h7q27 0 44 12.5t24.5 45.5t7.5 94v630q0 27 -5.5 40.5t-15 17.5t-21.5 4h-39v51h196l307 -513v400q0 28 -5.5 41t-14.5 17t-20 4h-40v51h228v-51h-40q-11 0 -20.5 -4.5t-15 -18t-5.5 -43.5v-597h-80l-343 563v-600q0 -83 -15 -127t-43.5 -60t-68.5 -16h-22z
" />
    <glyph glyph-name="uni019E" unicode="&#x19e;" horiz-adv-x="582" 
d="M298 -240v51h7q20 0 33 5t19 20.5t6 45.5v450q0 65 -13.5 101t-50.5 36q-28 0 -45 -22t-24 -57.5t-7 -78.5v-195q0 -28 7 -42t20 -18.5t32 -4.5h5v-51h-271v51h9q20 0 33.5 5.5t20.5 20.5t7 43v300q0 28 -7.5 42t-21 18.5t-33.5 4.5h-3v51h187l12 -73h4q22 47 56.5 66
t76.5 19q67 0 105 -45t38 -149v-474q0 -29 6 -44t19 -20t32 -5h4v-51h-263z" />
    <glyph glyph-name="uni019F" unicode="&#x19f;" horiz-adv-x="689" 
d="M345 -10q-100 0 -166 46t-98.5 129t-32.5 194t32.5 193t99 127.5t166.5 45.5q95 0 160.5 -45.5t100 -128t34.5 -193.5t-34 -193.5t-100 -128.5t-162 -46zM345 53q78 0 111 76.5t34 214.5h-290q1 -138 34.5 -214.5t110.5 -76.5zM489 402q-2 83 -17.5 141t-46 88.5
t-79.5 30.5q-73 0 -107 -68t-39 -192h289z" />
    <glyph glyph-name="Ohorn" unicode="&#x1a0;" horiz-adv-x="741" 
d="M345 -10q-100 0 -166 46t-98.5 129t-32.5 194t32.5 193t99 127.5t166.5 45.5q95 0 161.5 -45.5t100.5 -125.5q18 8 30 17.5t19 21t7 25.5q0 16 -7 25t-16 16.5t-16.5 19t-7.5 34.5q0 25 16 41t42 16q29 0 48.5 -25.5t19.5 -69.5q0 -36 -13.5 -66.5t-39.5 -55.5t-66 -41
q8 -34 12.5 -72.5t4.5 -81.5q0 -111 -34.5 -193.5t-100 -128.5t-161.5 -46zM345 53q54 0 86 36t46 105t14 164q0 97 -14 165t-46 103.5t-85 35.5q-80 0 -113.5 -80t-33.5 -224q0 -95 14.5 -164t46.5 -105t85 -36z" />
    <glyph glyph-name="ohorn" unicode="&#x1a1;" horiz-adv-x="590" 
d="M267 -10q-106 0 -166.5 69.5t-60.5 210.5t58.5 210t171.5 69q72 0 124 -31t78 -94q15 11 24.5 23.5t9.5 28.5t-7.5 25t-16.5 16.5t-16.5 19t-7.5 34.5q0 25 16 41t42 16q29 0 48.5 -25.5t19.5 -69.5q0 -33 -11.5 -62t-32.5 -52t-53 -40q4 -24 6.5 -51.5t2.5 -57.5
q0 -141 -58 -210.5t-171 -69.5zM269 51q33 0 52 24.5t27.5 73t8.5 121.5q0 107 -19.5 162t-69.5 55q-49 0 -68.5 -55t-19.5 -162t20 -163t69 -56z" />
    <glyph glyph-name="uni01A2" unicode="&#x1a2;" horiz-adv-x="1044" 
d="M714 -240v51h22q18 0 30.5 5t20 20t7.5 42v617q0 76 -21 119.5t-77 43.5q-55 0 -77.5 -49t-22.5 -143l1 -125q0 -82 -15.5 -147t-47.5 -110.5t-82 -69.5t-118 -24q-97 0 -160.5 46t-94.5 129t-31 194t31 193t93.5 127.5t156.5 45.5q59 0 101.5 -15.5t72.5 -43.5t49 -65
q21 52 64.5 87.5t111.5 35.5q72 0 118 -23t68.5 -77.5t22.5 -150.5v-593q0 -27 5.5 -42.5t17 -21t29.5 -5.5h28v-51h-303zM334 53q33 0 57 15.5t39 46.5t22.5 75t7.5 101v154q0 70 -13 118.5t-40.5 73.5t-71.5 25q-49 0 -79 -36t-43.5 -103.5t-13.5 -164.5q0 -153 31 -229
t104 -76z" />
    <glyph glyph-name="uni01A3" unicode="&#x1a3;" horiz-adv-x="830" 
d="M609 348q0 62 -12.5 91.5t-47.5 29.5q-27 0 -41 -18t-19.5 -48.5t-5.5 -70.5v-64q0 -141 -56.5 -209.5t-165.5 -68.5q-102 0 -161.5 69t-59.5 211t56.5 210t167.5 68q71 0 118 -27.5t71 -84.5h2q17 53 50.5 82.5t92.5 29.5q51 0 84 -19.5t48.5 -62.5t15.5 -114v-470
q0 -31 6.5 -46t19.5 -20t32 -5h2v-51h-197v588zM262 51q30 0 48 24t26 73.5t8 121.5q0 109 -18.5 163t-63.5 54t-63.5 -54t-18.5 -163t19 -164t63 -55z" />
    <glyph glyph-name="uni01A4" unicode="&#x1a4;" horiz-adv-x="681" 
d="M146 0v51h26q16 0 28.5 4.5t20 18.5t7.5 43v459q0 47 -12.5 67t-47.5 20q-30 0 -49.5 -19t-19.5 -64q0 -21 6.5 -36.5t17.5 -30.5q-10 -9 -21.5 -14.5t-27.5 -5.5q-32 0 -49 24t-17 61q0 40 18.5 70.5t57 48t99.5 17.5h246q123 0 181 -55t58 -156q0 -48 -14 -89.5
t-45.5 -73t-82.5 -49t-123 -17.5h-33v-162q0 -27 7 -40t19 -17t26 -4h45v-51h-321zM394 329q33 0 56.5 9.5t38.5 30t22.5 52.5t7.5 78q0 81 -27 119.5t-85 38.5h-38v-328h25z" />
    <glyph glyph-name="uni01A5" unicode="&#x1a5;" horiz-adv-x="564" 
d="M11 -240v51h11q13 0 27 4.5t24 18.5t10 43l-1 679q0 71 19 117t58 69t100 23q47 0 78.5 -10t48 -29t16.5 -46q0 -22 -12 -37t-34 -24t-55 -9q0 40 -5 64t-14 34.5t-24 10.5q-18 0 -28 -21t-10 -75v-47q0 -33 -1 -63t-4 -53h4q20 40 47.5 63t79.5 23q87 0 132.5 -66.5
t45.5 -211.5t-44.5 -212.5t-130.5 -67.5q-49 0 -80 23t-50 62h-7q1 0 2 -11.5t2.5 -30t2.5 -40t1 -41.5v-74q0 -28 10 -42.5t24.5 -18.5t26.5 -4h23v-51h-293zM306 57q42 0 61 52.5t19 157.5q0 102 -18.5 156t-60.5 54q-34 0 -53 -25t-26.5 -72t-7.5 -112q0 -71 7.5 -118
t26.5 -70t52 -23z" />
    <glyph glyph-name="uni01A6" unicode="&#x1a6;" horiz-adv-x="621" 
d="M597 -120q-50 0 -86.5 7t-62 26.5t-42.5 56.5l-102 221h-56v-79q0 -27 6.5 -40t18.5 -17t27 -4h17v-51h-293v51h25q14 0 27 4t21 17t8 40v490q0 24 -5.5 37.5t-15.5 18.5t-26 5h-34v51h305v-51h-32q-17 0 -28 -5.5t-16 -18.5t-5 -38v-15h61q90 0 144.5 -21.5t79 -63
t24.5 -100.5q0 -54 -17 -90.5t-46 -58.5t-62 -33l107 -205q22 -43 40.5 -63t42.5 -20h5v-51h-30zM292 246q61 0 87.5 38t26.5 109q0 47 -12 77t-37 45t-64 15h-45v-284h44z" />
    <glyph glyph-name="uni01A7" unicode="&#x1a7;" horiz-adv-x="513" 
d="M264 -10q-67 0 -117 23.5t-77 68t-27 106.5q0 52 18 93t55 74t96 62t89.5 52t42 48.5t11.5 59.5q0 47 -25.5 68t-59.5 21q-33 0 -53.5 -18t-30 -48.5t-9.5 -67.5q-55 0 -82.5 22t-27.5 57q0 32 21.5 57.5t66 40.5t111.5 15q62 0 107.5 -20t71 -62t25.5 -106
q0 -46 -15.5 -87t-51 -76t-96.5 -63q-49 -23 -82 -44t-49 -46.5t-16 -59.5q0 -50 26 -80.5t75 -30.5q51 0 89.5 14.5t66.5 41t49 62.5q8 -7 14 -21t6 -32q0 -22 -15 -44t-44 -40.5t-70 -29t-93 -10.5z" />
    <glyph glyph-name="uni01A8" unicode="&#x1a8;" horiz-adv-x="428" 
d="M217 -10q-93 0 -138 43t-45 117q0 41 16 72t45 54t69 41q49 22 75.5 38t37 32.5t10.5 41.5q0 31 -19 48t-49 17q-40 0 -63.5 -27.5t-23.5 -78.5q-40 0 -60 14t-20 45q0 24 18 47t54.5 38t91.5 15t94.5 -16t61 -49t21.5 -84q0 -43 -17 -74.5t-50 -54.5t-82 -46
q-40 -17 -63 -33t-32 -33t-9 -40q0 -29 20 -48t63 -19q39 0 68.5 13t51 35.5t35.5 51.5q7 -7 14 -18t7 -30q0 -28 -18.5 -53.5t-58.5 -42t-105 -16.5z" />
    <glyph glyph-name="uni01A9" unicode="&#x1a9;" horiz-adv-x="557" 
d="M36 0v49l188 302l-176 319v44h455l5 -186h-62l-7 54q-2 22 -11.5 38t-28 24.5t-48.5 8.5h-140l129 -252v-15l-161 -264h206q47 0 68 26.5t26 67.5l5 31h63l-8 -247h-503z" />
    <glyph glyph-name="uni01AA" unicode="&#x1aa;" horiz-adv-x="318" 
d="M271 -240q-63 0 -104 16t-60.5 57t-19.5 114v582q-10 -7 -23 -10.5t-28 -3.5q-45 0 -76 31.5t-31 87.5q0 63 37.5 96t102.5 33q83 0 119 -52.5t36 -165.5v-628q0 -54 18 -78.5t49 -24.5q15 0 28 2t27 5v-47q-11 -5 -32.5 -9.5t-42.5 -4.5zM35 573q22 0 36.5 16t14.5 48
t-14.5 48.5t-36.5 16.5q-25 0 -38 -18t-13 -47q0 -30 14 -47t37 -17z" />
    <glyph glyph-name="uni01AB" unicode="&#x1ab;" horiz-adv-x="358" 
d="M240 -204q-31 0 -49 16t-18 46q0 12 3 21.5t9 16.5q8 -7 18.5 -11.5t24.5 -4.5q26 0 40.5 18.5t14.5 60.5v90h57v-87q0 -53 -11 -90.5t-33 -56.5t-56 -19zM221 -10q-66 0 -102 35t-36 122v327h-65v46q31 2 53 14.5t35 28.5q12 14 22.5 37.5t16.5 59.5h76v-124h111v-62
h-111v-318q0 -47 12.5 -68t43.5 -21q17 0 33 2t30 6v-62q-14 -7 -45 -15t-74 -8z" />
    <glyph glyph-name="uni01AC" unicode="&#x1ac;" horiz-adv-x="571" 
d="M133 0v51h38q13 0 22.5 4.5t15 18.5t5.5 42v539h-50q-18 0 -37 -4.5t-32.5 -19t-13.5 -45.5q0 -21 6 -36.5t22 -32.5q-12 -11 -23 -15.5t-26 -4.5q-28 0 -47 20t-19 73q0 41 19.5 68.5t57 41.5t91.5 14h397l4 -190h-60l-6 58q-3 33 -17.5 53t-54.5 20h-68v-538
q0 -29 5 -43t15.5 -18.5t22.5 -4.5h37v-51h-304z" />
    <glyph glyph-name="uni01AD" unicode="&#x1ad;" horiz-adv-x="358" 
d="M210 -10q-38 0 -66.5 15t-44.5 49.5t-16 92.5v327h-65v46q40 3 65.5 22t40 48.5t21.5 64.5q6 33 20 58t36.5 38.5t54.5 13.5q43 0 60.5 -18t17.5 -44q0 -17 -10.5 -29t-23.5 -17q-7 14 -15.5 24t-25.5 10q-20 0 -29 -18t-9 -51v-86h111v-62h-111v-318q0 -47 12.5 -68
t43.5 -21q17 0 33 2t30 6v-62q-14 -7 -47 -15t-83 -8z" />
    <glyph glyph-name="uni01AE" unicode="&#x1ae;" horiz-adv-x="572" 
d="M394 -240q-92 0 -136 44.5t-44 145.5v705h-68q-38 0 -53.5 -20t-18.5 -53l-7 -58h-59l4 190h548l4 -190h-59l-6 58q-2 22 -9.5 38.5t-22.5 25.5t-41 9h-68v-740q0 -51 18 -72t50 -21q17 0 30.5 2.5t24.5 6.5v-55q-12 -6 -37.5 -11t-49.5 -5z" />
    <glyph glyph-name="Uhorn" unicode="&#x1af;" horiz-adv-x="748" 
d="M339 -10q-76 0 -130.5 23t-83.5 73t-29 132v383q0 28 -5.5 41t-14.5 17t-21 4h-41v51h304v-51h-40q-11 0 -20 -4.5t-14.5 -18t-5.5 -43.5v-387q0 -85 34.5 -118t93.5 -33q38 0 66 16t43.5 49.5t15.5 82.5v394q0 28 -5.5 41t-14.5 17t-21 4h-40v51h147v-168q28 3 52 11.5
t38.5 23t14.5 37.5q0 16 -7.5 25t-16 16.5t-16.5 19t-8 34.5q0 25 16.5 41t41.5 16q29 0 48.5 -25.5t19.5 -69.5q0 -36 -14 -67t-39 -53t-58.5 -35.5t-71.5 -17.5v-296q0 -67 -22.5 -115.5t-70 -74.5t-125.5 -26z" />
    <glyph glyph-name="uhorn" unicode="&#x1b0;" horiz-adv-x="686" 
d="M224 -10q-68 0 -105 48.5t-37 149.5v227q0 29 -5.5 44.5t-18 20.5t-33.5 5h-2v51h197v-326q0 -43 5.5 -74t19.5 -48.5t38 -17.5q27 0 44 19t25 54t8 82v194q0 30 -8.5 44t-22 18t-30.5 4h-3v51h201v-132q28 4 52 12t38.5 22.5t14.5 37.5q0 16 -7.5 25t-16.5 16.5
t-16.5 19t-7.5 34.5q0 25 16 41t42 16q29 0 48.5 -25.5t19.5 -69.5q0 -37 -14 -67.5t-39.5 -52.5t-58.5 -35.5t-71 -17.5v-245q0 -30 7 -43.5t20.5 -17t29.5 -3.5h8v-51h-177l-20 73h-4q-18 -35 -39 -52.5t-45.5 -24t-52.5 -6.5z" />
    <glyph glyph-name="uni01B1" unicode="&#x1b1;" horiz-adv-x="689" 
d="M345 -10q-96 0 -162 45t-100.5 124.5t-34.5 179.5q0 49 5.5 90t15.5 75t22 62q10 23 16 40.5t6 27.5q0 12 -9.5 20.5t-39.5 8.5h-20v51h232v-51q-27 -39 -44 -92.5t-25 -112.5t-8 -115q0 -88 14.5 -153t46.5 -101t85 -36t85.5 35.5t46 100.5t13.5 154q0 56 -8 115
t-25 112.5t-44 92.5v51h232v-51h-20q-30 0 -39.5 -8.5t-9.5 -20.5q0 -10 6 -27.5t15 -40.5q12 -28 22 -62t16 -75t6 -90q0 -100 -34.5 -179.5t-100.5 -124.5t-161 -45z" />
    <glyph glyph-name="uni01B2" unicode="&#x1b2;" horiz-adv-x="659" 
d="M332 -10q-84 0 -136.5 29t-76 84t-23.5 135v363q0 28 -5.5 41t-14.5 17t-21 4h-41v51h305v-51h-39q-12 0 -21.5 -4.5t-15 -18t-5.5 -43.5v-391q0 -76 26 -112.5t71 -36.5q37 0 68.5 19.5t56 56t41.5 90t25.5 122.5t8.5 152q0 55 -12 88t-37 48t-65 15q0 42 25 59.5
t56 17.5q29 0 52.5 -17.5t37.5 -61t14 -126.5q0 -98 -11.5 -181t-34 -148t-55.5 -110t-76.5 -68t-96.5 -23z" />
    <glyph glyph-name="uni01B3" unicode="&#x1b3;" horiz-adv-x="681" 
d="M143 0v51h43q13 0 24 3.5t17.5 17t6.5 41.5v150l-160 347q-9 21 -17 32.5t-18 16t-28 4.5h-11v51h295v-51h-12q-26 0 -39.5 -11.5t-13.5 -30.5q0 -12 3.5 -27t9.5 -27l64 -145q14 -31 23 -55.5t16 -47.5q10 25 21 55t27 67l53 129q19 46 35.5 80t41 52t63.5 18
q38 0 60 -18.5t22 -47.5q0 -27 -13.5 -43t-30.5 -20q-1 17 -11.5 28t-29.5 11q-18 0 -32.5 -14.5t-28.5 -43t-34 -71.5l-111 -239v-148q0 -29 6 -42.5t17 -17t24 -3.5h44v-51h-326z" />
    <glyph glyph-name="uni01B4" unicode="&#x1b4;" horiz-adv-x="562" 
d="M23 -184q45 0 76.5 12t53.5 35t36.5 56t24.5 74l-155 444q-6 18 -14.5 27t-18.5 12t-21 3h-5v57h254v-51h-6q-26 0 -37.5 -9t-11.5 -26q0 -10 3 -24t8 -30l49 -159q8 -25 14 -48.5t10 -43t5 -34.5q5 26 10 49.5t11 45.5l53 183q15 49 31.5 84t40 54t59.5 19
q35 0 53 -19.5t18 -49.5q0 -21 -9 -34.5t-19 -20.5q-5 13 -16.5 23.5t-31.5 10.5q-26 0 -41.5 -27t-29.5 -69l-113 -357q-24 -73 -44 -120.5t-47 -74.5t-68 -37.5t-107 -10.5h-15v56z" />
    <glyph glyph-name="uni01B5" unicode="&#x1b5;" horiz-adv-x="586" 
d="M36 0v48l159 296h-117v58h151l136 253h-171q-42 0 -55.5 -24.5t-16.5 -63.5l-4 -52h-65l5 199h470v-49l-142 -263h125v-58h-159l-153 -285h186q37 0 56.5 14t27.5 36t10 46l4 44h64l-4 -199h-507z" />
    <glyph glyph-name="uni01B6" unicode="&#x1b6;" horiz-adv-x="462" 
d="M14 0v41l123 206h-85v55h121l100 172h-106q-32 0 -46 -15.5t-24 -55.5l-6 -24h-54l11 157h380v-42l-115 -192h96v-55h-133l-108 -185h137q24 0 38.5 8t23 26t13.5 48l6 33h52l-5 -177h-419z" />
    <glyph glyph-name="uni01B7" unicode="&#x1b7;" horiz-adv-x="536" 
d="M247 -11q-64 0 -106.5 12.5t-67 33.5t-34.5 46t-10 49q0 32 13 51t35 27.5t48 8.5q0 -43 12 -81t39.5 -61.5t72.5 -23.5q38 0 65.5 15t42.5 49t15 89q0 49 -15.5 80.5t-44.5 47.5t-72 16h-51v49l175 218h-161q-38 0 -53 -14t-19 -54l-2 -29h-59l7 196h394v-67l-192 -238
q53 0 95.5 -13t72 -38.5t45 -63t15.5 -88.5q0 -74 -33.5 -122t-92 -71.5t-134.5 -23.5z" />
    <glyph glyph-name="uni01B8" unicode="&#x1b8;" horiz-adv-x="537" 
d="M280 -11q-75 0 -131 22t-88 69t-32 122q0 68 29 114t81.5 69.5t121.5 23.5l-196 244v61h395l7 -197h-64l-3 31q-2 27 -9 41t-21.5 20t-40.5 6h-157l176 -221v-45h-67q-55 0 -85.5 -36.5t-30.5 -110.5q0 -55 14 -89.5t42 -50t69 -15.5q44 0 77.5 15.5t59.5 41.5t49 60
q9 -6 16.5 -18.5t7.5 -36.5q0 -18 -13.5 -39t-41 -40t-69 -30t-96.5 -11z" />
    <glyph glyph-name="uni01B9" unicode="&#x1b9;" horiz-adv-x="516" 
d="M285 -240q-65 0 -112 16.5t-76.5 48t-44 75.5t-14.5 100q0 44 11.5 83.5t35 70t59.5 51.5t84 28l-157 232v71h359l7 -183h-60l-3 15q-3 42 -18.5 56t-56.5 14h-120l136 -219v-48h-9q-50 0 -79.5 -25t-42 -64.5t-12.5 -81.5q0 -43 9.5 -85t36.5 -69t79 -27q38 0 66 11.5
t50 34t45 58.5q11 -7 17 -18.5t6 -29.5q0 -30 -23.5 -56.5t-67.5 -42.5t-105 -16z" />
    <glyph glyph-name="uni01BA" unicode="&#x1ba;" horiz-adv-x="462" 
d="M197 -240q-41 0 -73 8.5t-53.5 24t-32 39t-10.5 52.5q0 36 15 61t45 42t79 27q53 12 79 27.5t35 36t9 46.5q0 23 -8.5 46t-37 38.5t-86.5 15.5h2v46l125 168h-117q-27 0 -42 -6.5t-22.5 -21t-10.5 -41.5l-3 -16h-59l6 183h360v-71l-143 -180q55 -1 93.5 -15.5t58 -46
t19.5 -83.5q0 -47 -16.5 -76.5t-43.5 -48.5t-64 -31t-78 -23q-39 -8 -60.5 -18.5t-29.5 -24.5t-8 -35q0 -26 17.5 -43t68.5 -17q48 0 84.5 20.5t63.5 61.5q9 -6 15 -17.5t6 -29.5q0 -31 -23.5 -53t-65 -33.5t-94.5 -11.5z" />
    <glyph glyph-name="uni01BB" unicode="&#x1bb;" horiz-adv-x="486" 
d="M29 0v102l123 168q21 26 38.5 49t31.5 43h-164v56h200q22 43 31 81.5t9 86.5q0 37 -8 62.5t-23.5 39.5t-38.5 14q-32 0 -49.5 -21t-25 -59t-7.5 -89q-34 0 -60 9.5t-40 30.5t-14 55q0 35 21.5 65.5t65.5 48.5t110 18q99 0 152 -47t53 -126q0 -29 -7.5 -55.5t-23 -54
t-40.5 -59.5h86v-56h-133q-20 -23 -49.5 -51t-58.5 -60t-51 -67l-45 -81h205q17 0 31.5 9t24.5 25t16 38l7 27h53l-4 -202h-416z" />
    <glyph glyph-name="uni01BC" unicode="&#x1bc;" horiz-adv-x="505" 
d="M224 -10q-42 0 -76.5 9.5t-60 27.5t-39.5 43.5t-14 57.5q0 44 23 61.5t62 18.5q0 -52 10.5 -86t34 -50.5t60.5 -16.5q53 0 78.5 44.5t25.5 122.5q0 48 -10.5 78t-30 47t-45.5 23.5t-56 6.5h-86v225q0 27 -7 40t-18.5 17t-27.5 4h-16v51h409l4 -182h-52l-8 47
q-4 26 -11 43t-20.5 25t-37.5 8h-76v-220h28q60 0 104 -22t68 -68.5t24 -119.5q0 -55 -15 -94.5t-40.5 -66.5t-56.5 -43.5t-64 -23.5t-63 -7z" />
    <glyph glyph-name="uni01BD" unicode="&#x1bd;" horiz-adv-x="444" 
d="M179 -10q-47 0 -80.5 14t-52 39t-18.5 61q0 21 8.5 35.5t24.5 23.5t38 9q0 -43 10.5 -70t28 -39.5t36.5 -12.5q50 0 72.5 31.5t22.5 81.5q0 42 -13.5 64.5t-35.5 30t-50 7.5h-92v168q0 23 -4.5 33.5t-15 13.5t-28.5 3v53h370l3 -139h-44l-4 23q-2 20 -8.5 34t-16.5 21.5
t-23 7.5h-92v-163h34q49 0 83.5 -16t53 -51t18.5 -93q0 -86 -59.5 -128t-165.5 -42z" />
    <glyph glyph-name="uni01BE" unicode="&#x1be;" horiz-adv-x="432" 
d="M208 -10q-62 0 -101.5 15.5t-57.5 41t-18 58.5q0 32 15.5 47.5t35.5 20.5t34 5q0 -40 12 -70t33 -45.5t47 -15.5q46 0 66 20.5t20 51.5t-15 50t-36.5 33t-41.5 28q-21 14 -42 33t-35.5 48t-14.5 74v89h-65v46q29 1 51.5 13.5t35.5 29.5q12 16 22.5 38.5t16.5 58.5h76
v-124h111v-62h-111v-63q0 -32 13 -51t32 -31t34 -25q19 -14 36 -30.5t27.5 -42t10.5 -69.5q0 -54 -22 -93t-64.5 -59t-104.5 -20z" />
    <glyph glyph-name="uni01BF" unicode="&#x1bf;" horiz-adv-x="564" 
d="M11 -240v51h11q12 0 26.5 4.5t24 18.5t9.5 43v539q0 30 -7.5 44.5t-20 19.5t-28.5 5h-6v51h172l16 -78h4q18 39 53.5 63.5t86.5 24.5q64 0 101 -26t54 -72t17 -103q0 -71 -18.5 -125.5t-50.5 -94t-71.5 -66.5t-81.5 -44t-82 -26v-113q0 -28 10 -42t24.5 -18.5t26.5 -4.5
h20v-51h-290zM220 48q42 13 73.5 37.5t51.5 60.5t30 85.5t10 111.5q0 42 -7.5 72t-24 46t-43.5 16q-32 0 -52 -27t-29 -74.5t-9 -109.5v-218z" />
    <glyph glyph-name="uni01C0" unicode="&#x1c0;" horiz-adv-x="429" 
d="M174 0v760h82v-760h-82z" />
    <glyph glyph-name="uni01C1" unicode="&#x1c1;" horiz-adv-x="524" 
d="M307 0v760h83v-760h-83zM134 0v760h82v-760h-82z" />
    <glyph glyph-name="uni01C2" unicode="&#x1c2;" horiz-adv-x="480" 
d="M199 0v253h-155v78h155v96h-155v78h155v255h82v-255h155v-78h-155v-96h155v-78h-155v-253h-82z" />
    <glyph glyph-name="uni01C3" unicode="&#x1c3;" horiz-adv-x="337" 
d="M147 229l-49 485h156l-48 -485h-59zM177 -8q-30 0 -51 16.5t-21 58.5t21 58t52 16q29 0 51 -16t22 -58t-22 -58.5t-52 -16.5z" />
    <glyph glyph-name="uni01C4" unicode="&#x1c4;" horiz-adv-x="1257" 
d="M24 0v51h34q14 0 24.5 6t16.5 20t6 37v488q0 25 -7 38t-18 18t-27 5h-29v51h289q97 0 166.5 -39.5t107 -116.5t37.5 -191q0 -109 -35 -192t-104 -129t-172 -46h-289zM293 60q59 0 98.5 36.5t60 105.5t20.5 165q0 97 -20.5 161t-60 95.5t-97.5 31.5h-47v-595h46zM707 0v48
l329 607h-171q-42 0 -55.5 -24.5t-16.5 -63.5l-4 -52h-65l5 199h470v-49l-329 -606h186q37 0 56.5 14t27.5 36t10 46l4 44h64l-4 -199h-507zM918 771q-9 23 -27 49.5t-37 52.5t-33 45v13h62q13 -13 30 -29.5t34.5 -33.5t30.5 -33q13 16 30.5 33t35 33.5t29.5 29.5h62v-13
q-13 -19 -32.5 -45t-37 -52.5t-26.5 -49.5h-121z" />
    <glyph glyph-name="uni01C5" unicode="&#x1c5;" horiz-adv-x="1134" 
d="M24 0v51h34q14 0 24.5 6t16.5 20t6 37v488q0 25 -7 38t-18 18t-27 5h-29v51h289q97 0 166.5 -39.5t107 -116.5t37.5 -191q0 -109 -35 -192t-104 -129t-172 -46h-289zM293 60q59 0 98.5 36.5t60 105.5t20.5 165q0 97 -20.5 161t-60 95.5t-97.5 31.5h-47v-595h46zM685 0v41
l259 433h-106q-32 0 -46 -15.5t-24 -55.5l-6 -24h-54l11 157h380v-42l-260 -432h137q36 0 51.5 18.5t23.5 63.5l6 33h52l-5 -177h-419zM852 606q-9 23 -27 49.5t-37 52.5t-33 45v13h62q13 -13 30 -29.5t34.5 -33.5t30.5 -33q13 16 30.5 33t35 33.5t29.5 29.5h62v-13
q-13 -19 -32.5 -45t-37 -52.5t-26.5 -49.5h-121z" />
    <glyph glyph-name="uni01C6" unicode="&#x1c6;" horiz-adv-x="1030" 
d="M216 -10q-57 0 -96.5 29t-60 90.5t-20.5 157.5q0 97 20.5 159t60 91.5t95.5 29.5q49 0 78.5 -22t47.5 -56h5q-2 24 -2 53v58v66q0 28 -10 41.5t-26 17.5t-34 4h-8v51h215v-634q0 -30 8 -46.5t22.5 -22.5t34.5 -6h8v-51h-176l-22 81h-4q-20 -42 -52.5 -66.5t-83.5 -24.5z
M256 60q49 0 68.5 53.5t19.5 154.5q0 102 -18.5 156.5t-69.5 54.5q-27 0 -44.5 -24.5t-25.5 -71.5t-8 -116q0 -104 18 -155.5t60 -51.5zM582 0v41l259 433h-106q-32 0 -46 -15.5t-24 -55.5l-6 -24h-54l11 157h380v-42l-260 -432h137q36 0 51.5 18.5t23.5 63.5l6 33h52
l-5 -177h-419zM743 606q-9 23 -27 49.5t-37 52.5t-33 45v13h62q13 -13 30 -29.5t34.5 -33.5t30.5 -33q13 16 30.5 33t35 33.5t29.5 29.5h62v-13q-13 -19 -32.5 -45t-37 -52.5t-26.5 -49.5h-121z" />
    <glyph glyph-name="uni01C7" unicode="&#x1c7;" horiz-adv-x="894" 
d="M555 -240v56h16q28 0 53 16.5t41 56t16 106.5v609q0 23 -7 36t-17.5 18t-22.5 5h-34v51h305v-51h-34q-12 0 -23 -5.5t-17.5 -18.5t-6.5 -38v-605q0 -67 -20 -112.5t-53.5 -73t-75.5 -39t-86 -11.5h-34zM24 0v51h34q12 0 23 5t17.5 18t6.5 36v492q0 24 -7 37.5t-18.5 18.5
t-26.5 5h-29v51h305v-51h-32q-17 0 -28 -5t-16 -17.5t-5 -35.5v-546h161q20 0 34 9.5t23.5 29t14.5 48.5l15 75h49l-6 -221h-515z" />
    <glyph glyph-name="uni01C8" unicode="&#x1c8;" horiz-adv-x="876" 
d="M24 0v51h34q12 0 23 5t17.5 18t6.5 36v492q0 24 -7 37.5t-18.5 18.5t-26.5 5h-29v51h305v-51h-32q-17 0 -28 -5t-16 -17.5t-5 -35.5v-546h161q20 0 34 9.5t23.5 29t14.5 48.5l15 75h49l-6 -221h-515zM556 -240v59h6q32 0 54 16t33.5 55.5t11.5 107.5v421q0 29 -9 43
t-24.5 18.5t-34.5 4.5h-4v51h209v-544q0 -89 -29 -140t-79 -71.5t-116 -20.5h-18zM726 630q-32 0 -54.5 16.5t-22.5 51.5q0 36 22.5 52t54.5 16q31 0 54.5 -15.5t23.5 -52.5q0 -35 -23.5 -51.5t-54.5 -16.5z" />
    <glyph glyph-name="uni01C9" unicode="&#x1c9;" horiz-adv-x="614" 
d="M294 -240v59h6q32 0 54 16t33.5 55.5t11.5 107.5v421q0 29 -9 43t-24.5 18.5t-34.5 4.5h-4v51h209v-544q0 -89 -29 -140t-79 -71.5t-116 -20.5h-18zM464 630q-32 0 -54.5 16.5t-22.5 51.5q0 36 22.5 52t54.5 16q31 0 54.5 -15.5t23.5 -52.5q0 -35 -23.5 -51.5
t-54.5 -16.5zM15 0v51h11q17 0 31 5.5t21.5 21t7.5 45.5v524q0 28 -10.5 41t-24.5 17t-26 4h-10v51h209v-638q0 -28 7.5 -44t21.5 -21.5t32 -5.5h9v-51h-279z" />
    <glyph glyph-name="uni01CA" unicode="&#x1ca;" horiz-adv-x="1011" 
d="M672 -240v56h16q28 0 53 16.5t41 56t16 106.5v609q0 23 -7 36t-17.5 18t-22.5 5h-34v51h305v-51h-34q-12 0 -23 -5.5t-17.5 -18.5t-6.5 -38v-605q0 -67 -20 -112.5t-53.5 -73t-75.5 -39t-86 -11.5h-34zM24 0v51h22q18 0 31 4.5t20.5 18.5t7.5 43v484q0 28 -7.5 41
t-19.5 17t-26 4h-28v51h209l294 -513v400q0 25 -7 38.5t-18.5 18.5t-26.5 5h-28v51h228v-51h-28q-16 0 -28 -5.5t-18.5 -19.5t-6.5 -41v-597h-95l-328 563v-446q0 -29 6 -43t18 -18.5t28 -4.5h29v-51h-228z" />
    <glyph glyph-name="uni01CB" unicode="&#x1cb;" horiz-adv-x="993" 
d="M24 0v51h22q18 0 31 4.5t20.5 18.5t7.5 43v484q0 28 -7.5 41t-19.5 17t-26 4h-28v51h209l294 -513v400q0 25 -7 38.5t-18.5 18.5t-26.5 5h-28v51h228v-51h-28q-16 0 -28 -5.5t-18.5 -19.5t-6.5 -41v-597h-95l-328 563v-446q0 -29 6 -43t18 -18.5t28 -4.5h29v-51h-228z
M672 -240v59h6q32 0 54 16t33.5 55.5t11.5 107.5v421q0 29 -9 43t-24.5 18.5t-34.5 4.5h-4v51h209v-544q0 -89 -29 -140t-79 -71.5t-116 -20.5h-18zM842 630q-32 0 -54.5 16.5t-22.5 51.5q0 36 22.5 52t54.5 16q31 0 54.5 -15.5t23.5 -52.5q0 -35 -23.5 -51.5t-54.5 -16.5z
" />
    <glyph glyph-name="uni01CC" unicode="&#x1cc;" horiz-adv-x="887" 
d="M567 -240v59h6q32 0 54 16t33.5 55.5t11.5 107.5v421q0 29 -9 43t-24.5 18.5t-34.5 4.5h-4v51h209v-544q0 -89 -29 -140t-79 -71.5t-116 -20.5h-18zM737 630q-32 0 -54.5 16.5t-22.5 51.5q0 36 22.5 52t54.5 16q31 0 54.5 -15.5t23.5 -52.5q0 -35 -23.5 -51.5
t-54.5 -16.5zM17 0v51h5q20 0 34.5 4.5t22.5 19.5t8 46v299q0 28 -7.5 42t-21 18.5t-32.5 4.5h-4v51h187l12 -73h4q20 42 50.5 63.5t82.5 21.5q70 0 106.5 -46t36.5 -148v-232q0 -31 6 -46t18.5 -20t32.5 -5h4v-51h-198v333q0 64 -13.5 100t-50.5 36q-28 0 -45 -22.5
t-24 -58.5t-7 -77v-195q0 -28 7 -42t20.5 -18.5t32.5 -4.5h4v-51h-271z" />
    <glyph glyph-name="uni01CD" unicode="&#x1cd;" horiz-adv-x="660" 
d="M4 0v51h10q16 0 28 5.5t22.5 21.5t19.5 46l188 590h125l185 -606q7 -21 16.5 -34t22.5 -18t29 -5h10v-51h-292v51h29q19 0 30.5 8.5t11.5 27.5q0 8 -1.5 17t-3.5 18t-5 16l-28 98h-210l-24 -85q-2 -8 -4.5 -19t-4.5 -22t-2 -20q0 -18 9.5 -28.5t32.5 -10.5h34v-51h-228z
M210 295h173l-51 189q-6 24 -12.5 46.5t-11.5 44.5t-9 42q-4 -20 -9.5 -41.5l-11 -43t-12.5 -43.5zM270 771q-9 23 -27 49.5t-37 52.5t-33 45v13h62q13 -13 30 -29.5t34.5 -33.5t30.5 -33q13 16 30.5 33t35 33.5t29.5 29.5h62v-13q-13 -19 -32.5 -45t-37 -52.5t-26.5 -49.5
h-121z" />
    <glyph glyph-name="uni01CE" unicode="&#x1ce;" horiz-adv-x="526" 
d="M175 -10q-38 0 -69 17.5t-49.5 54t-18.5 91.5q0 81 48.5 119t146.5 42l71 3v57q0 37 -5 62.5t-17.5 39.5t-35.5 14q-21 0 -34 -13t-18.5 -37t-5.5 -58q-57 0 -85 15.5t-28 49.5q0 35 24.5 57.5t65.5 33t92 10.5q92 0 138.5 -38t46.5 -132v-256q0 -28 5 -43t16.5 -21.5
t31.5 -6.5h3v-51h-167l-18 72h-8q-19 -26 -36 -44.5t-39 -28t-55 -9.5zM226 57q25 0 42.5 17t27 47.5t9.5 69.5v77l-37 -3q-33 -3 -53 -16.5t-28 -38.5t-8 -62q0 -29 5 -49.5t15.5 -31t26.5 -10.5zM200 606q-9 23 -27 49.5t-37 52.5t-33 45v13h62q13 -13 30 -29.5
t34.5 -33.5t30.5 -33q13 16 30.5 33t35 33.5t29.5 29.5h62v-13q-13 -19 -32.5 -45t-37 -52.5t-26.5 -49.5h-121z" />
    <glyph glyph-name="uni01CF" unicode="&#x1cf;" horiz-adv-x="352" 
d="M24 0v51h34q12 0 23 5t17.5 18t6.5 36v491q0 25 -6.5 38t-17.5 18.5t-23 5.5h-34v51h305v-51h-35q-14 0 -24.5 -5.5t-16.5 -18.5t-6 -39v-489q0 -22 6.5 -35.5t17 -19t23.5 -5.5h35v-51h-305zM116 771q-9 23 -27 49.5t-37 52.5t-33 45v13h62q13 -13 30 -29.5t34.5 -33.5
t30.5 -33q13 16 30.5 33t35 33.5t29.5 29.5h62v-13q-13 -19 -32.5 -45t-37 -52.5t-26.5 -49.5h-121z" />
    <glyph glyph-name="uni01D0" unicode="&#x1d0;" horiz-adv-x="309" 
d="M74 606q-9 23 -27 49.5t-37 52.5t-33 45v13h62q13 -13 30 -29.5t34.5 -33.5t30.5 -33q13 16 30.5 33t35 33.5t29.5 29.5h62v-13q-13 -19 -32.5 -45t-37 -52.5t-26.5 -49.5h-121zM14 0v51h10q19 0 32.5 5.5t21.5 21.5t8 44v295q0 28 -8 42.5t-21.5 20t-30.5 5.5h-13v51
h209v-413q0 -29 8 -45t22 -21.5t32 -5.5h10v-51h-280z" />
    <glyph glyph-name="uni01D1" unicode="&#x1d1;" horiz-adv-x="689" 
d="M345 -10q-100 0 -166 46t-98.5 129t-32.5 194t32.5 193t99 127.5t166.5 45.5q95 0 160.5 -45.5t100 -128t34.5 -193.5t-34 -193.5t-100 -128.5t-162 -46zM345 53q54 0 86 36t45.5 104.5t13.5 164.5q0 97 -13.5 164.5t-45.5 103.5t-85 36q-79 0 -113 -79.5t-34 -224.5
q0 -96 14.5 -164.5t47 -104.5t84.5 -36zM285 771q-9 23 -27 49.5t-37 52.5t-33 45v13h62q13 -13 30 -29.5t34.5 -33.5t30.5 -33q13 16 30.5 33t35 33.5t29.5 29.5h62v-13q-13 -19 -32.5 -45t-37 -52.5t-26.5 -49.5h-121z" />
    <glyph glyph-name="uni01D2" unicode="&#x1d2;" horiz-adv-x="537" 
d="M267 -10q-106 0 -166.5 69.5t-60.5 210.5q0 140 58.5 209t171.5 69q105 0 165.5 -69t60.5 -209q0 -141 -57.5 -210.5t-171.5 -69.5zM269 51q32 0 51.5 25t28 73.5t8.5 120.5q0 108 -20 162.5t-69 54.5q-48 0 -68 -54.5t-20 -162.5t20.5 -163.5t68.5 -55.5zM207 606
q-9 23 -27 49.5t-37 52.5t-33 45v13h62q13 -13 30 -29.5t34.5 -33.5t30.5 -33q13 16 30.5 33t35 33.5t29.5 29.5h62v-13q-13 -19 -32.5 -45t-37 -52.5t-26.5 -49.5h-121z" />
    <glyph glyph-name="uni01D3" unicode="&#x1d3;" horiz-adv-x="653" 
d="M333 -10q-70 0 -124 23t-83.5 73t-29.5 132v383q0 28 -8.5 41t-22 17t-31.5 4h-20v51h305v-51h-19q-17 0 -31 -4.5t-22.5 -18t-8.5 -43.5v-387q0 -85 34.5 -118t94.5 -33q38 0 65.5 17.5t43 52t15.5 84.5v388q0 28 -8 41t-21.5 17t-31.5 4h-19v51h228v-51h-20
q-17 0 -31 -4.5t-22.5 -18t-8.5 -43.5v-386q0 -67 -23.5 -116.5t-73 -77t-127.5 -27.5zM292 771q-9 23 -27 49.5t-37 52.5t-33 45v13h62q13 -13 30 -29.5t34.5 -33.5t30.5 -33q13 16 30.5 33t35 33.5t29.5 29.5h62v-13q-13 -19 -32.5 -45t-37 -52.5t-26.5 -49.5h-121z" />
    <glyph glyph-name="uni01D4" unicode="&#x1d4;" horiz-adv-x="584" 
d="M229 -10q-76 0 -111.5 48t-35.5 149v229q0 29 -5.5 43.5t-17 20t-33.5 5.5h-3v51h197v-326q0 -46 5.5 -77t19 -47t38.5 -16q28 0 44.5 19.5t24.5 54t8 81.5v194q0 30 -7 44t-19.5 18t-29.5 4h-3v51h196v-421q0 -29 7 -43t20.5 -17.5t29.5 -3.5h8v-51h-177l-20 73h-5
q-21 -44 -53 -63.5t-78 -19.5zM213 606q-9 23 -27 49.5t-37 52.5t-33 45v13h62q13 -13 30 -29.5t34.5 -33.5t30.5 -33q13 16 30.5 33t35 33.5t29.5 29.5h62v-13q-13 -19 -32.5 -45t-37 -52.5t-26.5 -49.5h-121z" />
    <glyph glyph-name="uni01D5" unicode="&#x1d5;" horiz-adv-x="653" 
d="M224 941v72h252v-72h-252zM258 780q-21 0 -36.5 13.5t-15.5 47.5q0 33 15.5 46.5t36.5 13.5q20 0 36.5 -13.5t16.5 -46.5q0 -34 -16.5 -47.5t-36.5 -13.5zM439 780q-21 0 -37 13.5t-16 47.5t16 47t37 13q20 0 36 -13t16 -48q0 -33 -16 -46.5t-36 -13.5zM333 -10
q-70 0 -124 23t-83.5 73t-29.5 132v383q0 28 -8.5 41t-22 17t-31.5 4h-20v51h305v-51h-19q-17 0 -31 -4.5t-22.5 -18t-8.5 -43.5v-387q0 -85 34.5 -118t94.5 -33q38 0 65.5 17.5t43 52t15.5 84.5v388q0 28 -8 41t-21.5 17t-31.5 4h-19v51h228v-51h-20q-17 0 -31 -4.5
t-22.5 -18t-8.5 -43.5v-386q0 -67 -23.5 -116.5t-73 -77t-127.5 -27.5z" />
    <glyph glyph-name="uni01D6" unicode="&#x1d6;" horiz-adv-x="584" 
d="M153 776v72h251v-72h-251zM187 615q-21 0 -36.5 13.5t-15.5 47.5q0 33 15.5 46.5t36.5 13.5q20 0 36.5 -13.5t16.5 -46.5q0 -34 -16.5 -47.5t-36.5 -13.5zM368 615q-21 0 -37 13.5t-16 47.5t16 47t37 13q20 0 36 -13.5t16 -47.5q0 -33 -16 -46.5t-36 -13.5zM229 -10
q-76 0 -111.5 48t-35.5 149v229q0 29 -5.5 43.5t-17 20t-33.5 5.5h-3v51h197v-326q0 -46 5.5 -77t19 -47t38.5 -16q28 0 44.5 19.5t24.5 54t8 81.5v194q0 30 -7 44t-19.5 18t-29.5 4h-3v51h196v-421q0 -29 7 -43t20.5 -17.5t29.5 -3.5h8v-51h-177l-20 73h-5
q-21 -44 -53 -63.5t-78 -19.5z" />
    <glyph glyph-name="uni01D7" unicode="&#x1d7;" horiz-adv-x="653" 
d="M315 919q12 18 25 42t25 48.5t20 43.5h124v-9q-7 -11 -23 -29.5t-36.5 -38.5t-42 -38t-39.5 -30h-53v11zM258 777q-21 0 -36.5 14.5t-15.5 46.5q0 35 15.5 48t36.5 13q20 0 36.5 -13t16.5 -48q0 -32 -16.5 -46.5t-36.5 -14.5zM439 777q-21 0 -37 14t-16 48t16 47t37 13
q20 0 36 -13t16 -48q0 -33 -16 -47t-36 -14zM333 -10q-70 0 -124 23t-83.5 73t-29.5 132v383q0 28 -8.5 41t-22 17t-31.5 4h-20v51h305v-51h-19q-17 0 -31 -4.5t-22.5 -18t-8.5 -43.5v-387q0 -85 34.5 -118t94.5 -33q38 0 65.5 17.5t43 52t15.5 84.5v388q0 28 -8 41
t-21.5 17t-31.5 4h-19v51h228v-51h-20q-17 0 -31 -4.5t-22.5 -18t-8.5 -43.5v-386q0 -67 -23.5 -116.5t-73 -77t-127.5 -27.5z" />
    <glyph glyph-name="uni01D8" unicode="&#x1d8;" horiz-adv-x="584" 
d="M245 754q11 18 24 42t25.5 48.5t19.5 43.5h125v-9q-7 -11 -23 -29.5t-37 -38.5t-42 -38t-40 -30h-52v11zM187 612q-21 0 -36.5 14.5t-15.5 46.5q0 35 15.5 48t36.5 13t37 -13t16 -48q0 -32 -16 -46.5t-37 -14.5zM369 612q-22 0 -38 14t-16 48t16 47t38 13q19 0 35.5 -13
t16.5 -48q0 -33 -16.5 -47t-35.5 -14zM229 -10q-76 0 -111.5 48t-35.5 149v229q0 29 -5.5 43.5t-17 20t-33.5 5.5h-3v51h197v-326q0 -46 5.5 -77t19 -47t38.5 -16q28 0 44.5 19.5t24.5 54t8 81.5v194q0 30 -7 44t-19.5 18t-29.5 4h-3v51h196v-421q0 -29 7 -43t20.5 -17.5
t29.5 -3.5h8v-51h-177l-20 73h-5q-21 -44 -53 -63.5t-78 -19.5z" />
    <glyph glyph-name="uni01D9" unicode="&#x1d9;" horiz-adv-x="653" 
d="M292 920q-8 20 -23 43.5t-31.5 46.5t-30.5 39v11h57q12 -10 27 -23.5t29.5 -28t25.5 -26.5q11 12 25.5 26.5t30 28t27.5 23.5h56v-11q-13 -15 -29.5 -38.5t-31 -47.5t-23.5 -43h-109zM257 779q-21 0 -36 13.5t-15 45.5q0 33 15 46t36 13q20 0 36 -13t16 -46t-16 -46
t-36 -13zM439 779q-20 0 -36 13.5t-16 45.5q0 33 16 46t36 13t36 -13t16 -46t-16 -46t-36 -13zM333 -10q-70 0 -124 23t-83.5 73t-29.5 132v383q0 28 -8.5 41t-22 17t-31.5 4h-20v51h305v-51h-19q-17 0 -31 -4.5t-22.5 -18t-8.5 -43.5v-387q0 -85 34.5 -118t94.5 -33
q38 0 65.5 17.5t43 52t15.5 84.5v388q0 28 -8 41t-21.5 17t-31.5 4h-19v51h228v-51h-20q-17 0 -31 -4.5t-22.5 -18t-8.5 -43.5v-386q0 -67 -23.5 -116.5t-73 -77t-127.5 -27.5z" />
    <glyph glyph-name="uni01DA" unicode="&#x1da;" horiz-adv-x="584" 
d="M222 755q-8 20 -23 43.5t-32 46.5t-30 39v11h57q12 -10 26.5 -23.5t29.5 -28t26 -26.5q10 12 25 26.5t30.5 28t27.5 23.5h56v-11q-13 -15 -29.5 -38.5t-31.5 -47.5t-23 -43h-109zM186 614q-20 0 -35 13.5t-15 45.5q0 33 15 46t36 13q20 0 36 -13t16 -46t-16 -46t-37 -13z
M369 614q-21 0 -36.5 13.5t-15.5 45.5q0 33 15.5 46t36.5 13q19 0 35 -13t16 -46t-16 -46t-35 -13zM229 -10q-76 0 -111.5 48t-35.5 149v229q0 29 -5.5 43.5t-17 20t-33.5 5.5h-3v51h197v-326q0 -46 5.5 -77t19 -47t38.5 -16q28 0 44.5 19.5t24.5 54t8 81.5v194q0 30 -7 44
t-19.5 18t-29.5 4h-3v51h196v-421q0 -29 7 -43t20.5 -17.5t29.5 -3.5h8v-51h-177l-20 73h-5q-21 -44 -53 -63.5t-78 -19.5z" />
    <glyph glyph-name="uni01DB" unicode="&#x1db;" horiz-adv-x="653" 
d="M327 908q-19 12 -40 30t-41.5 38t-37 38.5t-23.5 29.5v9h125q8 -19 20 -43.5t25 -48.5t24 -42v-11h-52zM258 777q-21 0 -36.5 14.5t-15.5 46.5q0 35 15.5 48t36.5 13t37 -13t16 -48q0 -32 -16 -46.5t-37 -14.5zM439 777q-22 0 -37.5 14t-15.5 48t15.5 47t37.5 13
q20 0 36 -13t16 -48q0 -33 -16 -47t-36 -14zM333 -10q-70 0 -124 23t-83.5 73t-29.5 132v383q0 28 -8.5 41t-22 17t-31.5 4h-20v51h305v-51h-19q-17 0 -31 -4.5t-22.5 -18t-8.5 -43.5v-387q0 -85 34.5 -118t94.5 -33q38 0 65.5 17.5t43 52t15.5 84.5v388q0 28 -8 41
t-21.5 17t-31.5 4h-19v51h228v-51h-20q-17 0 -31 -4.5t-22.5 -18t-8.5 -43.5v-386q0 -67 -23.5 -116.5t-73 -77t-127.5 -27.5z" />
    <glyph glyph-name="uni01DC" unicode="&#x1dc;" horiz-adv-x="584" 
d="M256 743q-18 12 -39.5 30t-42 38t-37 38.5t-23.5 29.5v9h125q8 -19 20 -43.5t25.5 -48.5t23.5 -42v-11h-52zM187 612q-20 0 -36 14.5t-16 46.5q0 35 16 48t36 13q21 0 37 -13t16 -48q0 -32 -16 -46.5t-37 -14.5zM368 612q-21 0 -37 14t-16 48t16 47t37 13q20 0 36.5 -13
t16.5 -48q0 -33 -16.5 -47t-36.5 -14zM229 -10q-76 0 -111.5 48t-35.5 149v229q0 29 -5.5 43.5t-17 20t-33.5 5.5h-3v51h197v-326q0 -46 5.5 -77t19 -47t38.5 -16q28 0 44.5 19.5t24.5 54t8 81.5v194q0 30 -7 44t-19.5 18t-29.5 4h-3v51h196v-421q0 -29 7 -43t20.5 -17.5
t29.5 -3.5h8v-51h-177l-20 73h-5q-21 -44 -53 -63.5t-78 -19.5z" />
    <glyph glyph-name="uni01DD" unicode="&#x1dd;" horiz-adv-x="501" 
d="M241 -10q-95 0 -150 61.5t-55 180.5v47h285q-2 103 -32 151.5t-83 48.5q-46 0 -77 -23.5t-46 -59.5q-13 8 -19 19.5t-6 27.5q0 28 19 52t57.5 38.5t97.5 14.5q114 0 171 -72t57 -203q0 -141 -57 -212t-162 -71zM239 51q36 0 57.5 43.5t22.5 124.5h-147q0 -77 15.5 -122.5
t51.5 -45.5z" />
    <glyph glyph-name="uni01DE" unicode="&#x1de;" horiz-adv-x="660" 
d="M213 941v72h252v-72h-252zM247 780q-21 0 -36.5 13.5t-15.5 47.5q0 33 15.5 46.5t36.5 13.5t37 -13.5t16 -46.5q0 -34 -16 -47.5t-37 -13.5zM428 780q-21 0 -37 13.5t-16 47.5t16 47t37 13q20 0 36 -13t16 -48q0 -33 -16 -46.5t-36 -13.5zM4 0v51h10q16 0 28 5.5
t22.5 21.5t19.5 46l188 590h125l185 -606q7 -21 16.5 -34t22 -18t29.5 -5h10v-51h-292v51h29q18 0 30 8.5t12 27.5q0 8 -1.5 17t-3.5 18t-5 16l-28 98h-210l-24 -85q-2 -8 -4.5 -19t-4.5 -22t-2 -20q0 -18 9.5 -28.5t32.5 -10.5h34v-51h-228zM210 295h173l-51 189
q-6 24 -12.5 46.5t-11.5 44.5t-9 42q-4 -20 -9.5 -41.5l-11 -43t-12.5 -43.5z" />
    <glyph glyph-name="uni01DF" unicode="&#x1df;" horiz-adv-x="526" 
d="M135 776v72h252v-72h-252zM169 615q-21 0 -36.5 13.5t-15.5 47.5q0 33 15.5 46.5t36.5 13.5t37 -13.5t16 -47.5q0 -33 -16 -46.5t-37 -13.5zM350 615q-21 0 -37 13.5t-16 47.5t16 47t37 13q20 0 36 -13.5t16 -47.5q0 -33 -16 -46.5t-36 -13.5zM175 -10q-38 0 -69 17.5
t-49.5 53.5t-18.5 91q0 82 48.5 120t146.5 42l71 3v57q0 37 -5 62.5t-17.5 39.5t-35.5 14q-21 0 -34 -13t-18.5 -37t-5.5 -58q-57 0 -85 15.5t-28 49.5q0 35 24.5 57.5t65.5 33t92 10.5q92 0 138.5 -38.5t46.5 -131.5v-256q0 -28 5 -43t16.5 -21.5t31.5 -6.5h3v-51h-167
l-18 72h-8q-19 -26 -36 -44.5t-39 -28t-55 -9.5zM226 57q25 0 42.5 17t27 47.5t9.5 69.5v77l-37 -3q-33 -3 -53 -16.5t-28 -38.5t-8 -62q0 -29 5 -49.5t15.5 -31t26.5 -10.5z" />
    <glyph glyph-name="uni01E0" unicode="&#x1e0;" horiz-adv-x="660" 
d="M207 940v73h252v-73h-252zM333 763q-26 0 -46.5 15.5t-20.5 49.5q0 36 20.5 51t46.5 15t47 -15t21 -51q0 -34 -21 -49.5t-47 -15.5zM4 0v51h10q16 0 28 5.5t22.5 21.5t19.5 46l188 590h125l185 -606q7 -21 16.5 -34t22 -18t29.5 -5h10v-51h-292v51h29q18 0 30 8.5
t12 27.5q0 8 -1.5 17t-3.5 18t-5 16l-28 98h-210l-24 -85q-2 -8 -4.5 -19t-4.5 -22t-2 -20q0 -18 9.5 -28.5t32.5 -10.5h34v-51h-228zM210 295h173l-51 189q-6 24 -12.5 46.5t-11.5 44.5t-9 42q-4 -20 -9.5 -41.5l-11 -43t-12.5 -43.5z" />
    <glyph glyph-name="uni01E1" unicode="&#x1e1;" horiz-adv-x="526" 
d="M132 778v73h253v-73h-253zM259 601q-27 0 -47.5 15.5t-20.5 49.5q0 36 20.5 51t47.5 15q25 0 46 -15t21 -51q0 -34 -21 -49.5t-46 -15.5zM175 -10q-38 0 -69 17.5t-49.5 54t-18.5 91.5q0 81 48.5 119t146.5 42l71 3v57q0 37 -5 62.5t-17.5 39.5t-35.5 14q-21 0 -34 -13
t-18.5 -37t-5.5 -58q-57 0 -85 15.5t-28 49.5q0 35 24.5 57.5t65.5 33t92 10.5q92 0 138.5 -38t46.5 -132v-256q0 -28 5 -43t16.5 -21.5t31.5 -6.5h3v-51h-167l-18 72h-8q-19 -26 -36 -44.5t-39 -28t-55 -9.5zM226 57q25 0 42.5 17t27 47.5t9.5 69.5v77l-37 -3
q-33 -3 -53 -16.5t-28 -38.5t-8 -62q0 -29 5 -49.5t15.5 -31t26.5 -10.5z" />
    <glyph glyph-name="uni01E2" unicode="&#x1e2;" horiz-adv-x="868" 
d="M0 0v51h10q16 0 28.5 8.5t24.5 25.5t24 44l244 529l-57 5v51h535l2 -182h-62l-5 45q-1 25 -8 42.5t-20.5 26.5t-37.5 9h-135v-253h208v-57h-208v-286h159q23 0 37.5 10t22.5 27.5t11 39.5l6 46h62l-6 -182h-515v51h23q19 0 32 5.5t20 20t7 41.5v113h-201l-36 -88
q-6 -16 -9.5 -30t-3.5 -23q0 -20 13 -29.5t38 -9.5h15v-51h-218zM229 289h173v366h-8zM437 775v75h253v-75h-253z" />
    <glyph glyph-name="uni01E3" unicode="&#x1e3;" horiz-adv-x="765" 
d="M184 -10q-41 0 -74 17t-52.5 53.5t-19.5 91.5q0 82 48.5 120t146.5 42l71 3v57q0 34 -4.5 60t-17 41t-34.5 15q-24 0 -37.5 -14t-18.5 -38.5t-5 -55.5q-60 0 -86 15.5t-26 50.5t24 57.5t64 32.5t86 10q34 0 60.5 -6.5t47.5 -19.5t36 -35q25 28 60 44.5t82 16.5
q58 0 101.5 -27.5t68 -81t24.5 -131.5v-49h-286q2 -68 15.5 -112.5t40.5 -65.5t67 -21q43 0 71.5 23.5t43.5 60.5q13 -4 22 -15t9 -27q0 -25 -18.5 -51t-57.5 -43.5t-103 -17.5t-110 26.5t-74 76.5q-16 -29 -39 -52.5t-54.5 -37t-71.5 -13.5zM226 57q24 0 41.5 16.5t27.5 47
t10 70.5v77l-37 -3q-33 -3 -53 -16.5t-28 -38.5t-8 -62q0 -30 5 -50t16 -30.5t26 -10.5zM592 319q0 78 -15 123t-52 45q-35 0 -57 -42.5t-23 -125.5h147zM286 610v75h253v-75h-253z" />
    <glyph glyph-name="uni01E4" unicode="&#x1e4;" horiz-adv-x="675" 
d="M371 -10q-109 0 -180.5 46t-107 128.5t-35.5 193.5q0 108 37 190.5t109.5 129t180.5 46.5q72 0 121 -15t74 -41t25 -59q0 -34 -28.5 -58t-85.5 -24q0 39 -11.5 69.5t-36 48t-61.5 17.5q-61 0 -99.5 -34.5t-56 -102t-17.5 -167.5q0 -98 18 -165.5t58.5 -103t108.5 -35.5
q14 0 30 2t30 7v89h-113v58h113v19q0 26 -6 40.5t-19.5 20.5t-33.5 6h-13v51h271v-51h-7q-18 0 -28.5 -6t-15.5 -21.5t-5 -43.5v-15h63v-58h-63v-110q-51 -26 -103.5 -39t-112.5 -13z" />
    <glyph glyph-name="uni01E5" unicode="&#x1e5;" horiz-adv-x="489" 
d="M206 -240q-104 0 -155 36.5t-51 104.5q0 36 15 62.5t42 42.5t61 20q-24 10 -45 29t-21 53q0 33 22 57t58 44q-41 17 -68.5 56.5t-27.5 97.5q0 88 46.5 136.5t143.5 48.5q34 0 60 -7.5t47 -21.5q13 14 26.5 27t30.5 22t39 9q29 0 43.5 -17t14.5 -40q0 -24 -13 -41.5
t-46 -17.5q0 21 -10 32t-21 11q-10 0 -17.5 -4t-14.5 -8q19 -20 33 -49.5t14 -74.5q0 -79 -45 -128.5t-141 -49.5q-10 0 -26 1t-24 3q-11 -6 -21 -20.5t-10 -33.5q0 -20 13 -28t33 -8h100q59 0 96 -18.5t55.5 -52t18.5 -79.5q0 -5 -0.5 -11t-1.5 -12h41v-54h-58
q-23 -55 -81.5 -86t-154.5 -31zM208 -182q53 0 84.5 16t45.5 43h-122v54h135q-3 32 -19.5 45t-47.5 13h-102q-17 0 -34.5 -7.5t-29.5 -25.5t-12 -53q0 -27 12.5 -46t35.5 -29t54 -10zM224 246q27 0 41 14t19.5 41t5.5 64q0 39 -5.5 67.5t-20 43.5t-40.5 15
q-25 0 -39.5 -15.5t-20.5 -44t-6 -67.5q0 -54 14 -86t52 -32z" />
    <glyph glyph-name="Gcaron" unicode="&#x1e6;" horiz-adv-x="674" 
d="M371 -10q-109 0 -180.5 46t-107 128.5t-35.5 193.5q0 108 37 190.5t109.5 129t180.5 46.5q72 0 121 -15t74 -41t25 -59q0 -34 -28.5 -58t-85.5 -24q0 39 -11.5 69.5t-36 48t-61.5 17.5q-61 0 -99.5 -34.5t-56 -102t-17.5 -167.5q0 -98 18 -165.5t58.5 -103t108.5 -35.5
q14 0 30 2t30 7v151q0 27 -6 42.5t-19.5 21.5t-33.5 6h-13v50h271v-50h-7q-18 0 -28.5 -6.5t-15.5 -22.5t-5 -45v-168q-51 -26 -103.5 -39t-112.5 -13zM309 771q-9 23 -27 49.5t-37 52.5t-33 45v13h62q13 -13 30 -29.5t34.5 -33.5t30.5 -33q13 16 30.5 33t35 33.5t29.5 29.5
h62v-13q-13 -19 -32.5 -45t-37 -52.5t-26.5 -49.5h-121z" />
    <glyph glyph-name="gcaron" unicode="&#x1e7;" horiz-adv-x="489" 
d="M206 -236q-104 0 -155 36t-51 102q0 36 15 62t42 42t61 20q-24 10 -45 29t-21 53q0 33 22 57t58 44q-41 17 -68.5 56.5t-27.5 97.5q0 88 46.5 136.5t143.5 48.5q34 0 60 -7.5t47 -21.5q13 14 26.5 27t30.5 22t39 9q29 0 43.5 -17t14.5 -40q0 -24 -13 -41.5t-46 -17.5
q0 21 -10 32t-21 11q-10 0 -17.5 -4t-14.5 -8q19 -20 33 -49.5t14 -74.5q0 -79 -45 -128.5t-141 -49.5q-10 0 -26 1t-24 4q-11 -7 -21 -21.5t-10 -33.5t12.5 -27.5t33.5 -8.5h100q59 0 96 -18.5t55.5 -52t18.5 -79.5q0 -88 -62.5 -139t-192.5 -51zM208 -179q50 0 82 13
t47.5 36.5t15.5 53.5q0 33 -17 49t-52 16h-102q-17 0 -34.5 -7t-29.5 -25.5t-12 -51.5q0 -26 12.5 -45t35.5 -29t54 -10zM224 246q27 0 41 14t19.5 41t5.5 64q0 39 -5.5 67.5t-20 43.5t-40.5 15q-25 0 -39.5 -15.5t-20.5 -44t-6 -67.5q0 -54 14 -86t52 -32zM165 606
q-9 23 -27 49.5t-37 52.5t-33 45v13h62q13 -13 30 -29.5t34.5 -33.5t30.5 -33q13 16 30.5 33t35 33.5t29.5 29.5h62v-13q-13 -19 -32.5 -45t-37 -52.5t-26.5 -49.5h-121z" />
    <glyph glyph-name="uni01E8" unicode="&#x1e8;" horiz-adv-x="642" 
d="M24 0v51h39q12 0 21 4t14.5 17t5.5 40v489q0 28 -5.5 41t-14.5 17t-21 4h-39v51h304v-51h-39q-12 0 -21.5 -4.5t-15 -18.5t-5.5 -43v-243l132 183q18 24 28.5 41.5t16 31.5t5.5 27q0 16 -11 21.5t-39 5.5v50h239v-50q-24 0 -45 -10.5t-41 -30.5t-40 -47l-115 -150
l163 -295q16 -30 31 -47.5t31 -25t36 -7.5h4v-51h-54q-48 0 -79.5 5.5t-52 17t-33 29t-23.5 42.5l-117 232l-36 -43v-166q0 -29 5.5 -43t15 -18.5t21.5 -4.5h39v-51h-304zM282 771q-9 23 -27 49.5t-37 52.5t-33 45v13h62q13 -13 30 -29.5t34.5 -33.5t30.5 -33q13 16 30.5 33
t35 33.5t29.5 29.5h62v-13q-13 -19 -32.5 -45t-37 -52.5t-26.5 -49.5h-121z" />
    <glyph glyph-name="uni01E9" unicode="&#x1e9;" horiz-adv-x="559" 
d="M14 0v51h12q12 0 26 4.5t24 18.5t10 43v530q0 28 -10 41t-24.5 17t-25.5 4h-12v51h210v-383q0 -13 -0.5 -30.5t-1.5 -34.5t-1.5 -30t-0.5 -17l107 142q11 14 16 24t6.5 17.5t1.5 11.5q0 13 -11.5 20.5t-33.5 7.5v48h221v-48q-15 0 -30 -5.5t-29.5 -16t-30.5 -27
t-32 -38.5l-50 -66l116 -200q24 -41 43.5 -62.5t40.5 -21.5h3v-51h-12q-49 0 -81.5 4t-55 15t-39.5 31.5t-35 54.5l-72 139l-39 -48v-80q0 -28 10.5 -42t24.5 -18.5t25 -4.5h12v-51h-282zM234 796q-9 23 -27 49.5t-37 52.5t-33 45v13h62q13 -13 30 -29.5t34.5 -33.5
t30.5 -33q13 16 30.5 33t35 33.5t29.5 29.5h62v-13q-13 -19 -32.5 -45t-37 -52.5t-26.5 -49.5h-121z" />
    <glyph glyph-name="uni01EA" unicode="&#x1ea;" horiz-adv-x="689" 
d="M345 -10q-100 0 -166 46t-98.5 129t-32.5 194t32.5 193t99 127.5t166.5 45.5q95 0 160.5 -45.5t100 -128t34.5 -193.5t-34 -193.5t-100 -128.5t-162 -46zM345 53q54 0 86 36t45.5 104.5t13.5 164.5q0 97 -13.5 164.5t-45.5 103.5t-85 36q-79 0 -113 -79.5t-34 -224.5
q0 -96 14.5 -164.5t47 -104.5t84.5 -36zM370 -240q-65 0 -98 26.5t-33 83.5q0 31 14.5 58t38 46t50.5 26h69q-18 -6 -37 -21.5t-32 -38.5t-13 -55q0 -29 17.5 -42t43.5 -13q12 0 25.5 2t29.5 6v-62q-9 -5 -23 -8.5t-28 -5.5t-24 -2z" />
    <glyph glyph-name="uni01EB" unicode="&#x1eb;" horiz-adv-x="537" 
d="M267 -10q-106 0 -166.5 69.5t-60.5 210.5q0 140 58.5 209t171.5 69q105 0 165.5 -69t60.5 -209q0 -141 -57.5 -210.5t-171.5 -69.5zM269 51q32 0 51.5 25t28 73.5t8.5 120.5q0 108 -20 162.5t-69 54.5q-48 0 -68 -54.5t-20 -162.5t20.5 -163.5t68.5 -55.5zM284 -240
q-65 0 -98 26.5t-33 83.5q0 31 14.5 58t38 46t50.5 26h69q-18 -6 -37 -21.5t-32 -38.5t-13 -55q0 -29 17.5 -42t43.5 -13q12 0 25.5 2t29.5 6v-62q-9 -5 -23 -8.5t-28 -5.5t-24 -2z" />
    <glyph glyph-name="uni01EC" unicode="&#x1ec;" horiz-adv-x="689" 
d="M345 -10q-100 0 -166 46t-98.5 129t-32.5 194t32.5 193t99 127.5t166.5 45.5q95 0 160.5 -45.5t100 -128t34.5 -193.5t-34 -193.5t-100 -128.5t-162 -46zM345 53q54 0 86 36t45.5 104.5t13.5 164.5q0 97 -13.5 164.5t-45.5 103.5t-85 36q-79 0 -113 -79.5t-34 -224.5
q0 -96 14.5 -164.5t47 -104.5t84.5 -36zM367 -240q-65 0 -98 26.5t-33 83.5q0 31 14.5 58t38 46t50.5 26h69q-18 -6 -37 -21.5t-32 -38.5t-13 -55q0 -29 17.5 -42t43.5 -13q12 0 25.5 2t29.5 6v-62q-9 -5 -23 -8.5t-28 -5.5t-24 -2zM220 784v75h253v-75h-253z" />
    <glyph glyph-name="uni01ED" unicode="&#x1ed;" horiz-adv-x="537" 
d="M267 -10q-106 0 -166.5 69.5t-60.5 210.5q0 140 58.5 209t171.5 69q105 0 165.5 -69t60.5 -209q0 -141 -57.5 -210.5t-171.5 -69.5zM269 51q32 0 51.5 25t28 73.5t8.5 120.5q0 108 -20 162.5t-69 54.5q-48 0 -68 -54.5t-20 -162.5t20.5 -163.5t68.5 -55.5zM141 608v75
h253v-75h-253zM285 -237q-63 0 -96 25.5t-33 81.5q0 32 14.5 59t37.5 45.5t48 25.5h70q-19 -6 -37.5 -22.5t-31 -40t-12.5 -55.5q0 -28 16.5 -41.5t42.5 -13.5q12 0 25.5 2.5t29.5 7.5v-59q-9 -4 -23 -7.5t-27.5 -5.5t-23.5 -2z" />
    <glyph glyph-name="uni01EE" unicode="&#x1ee;" horiz-adv-x="536" 
d="M211 771q-9 23 -27 49.5t-37 52.5t-33 45v13h62q13 -13 30 -29.5t34.5 -33.5t30.5 -33q13 16 30.5 33t35 33.5t29.5 29.5h62v-13q-13 -19 -32.5 -45t-37 -52.5t-26.5 -49.5h-121zM247 -11q-64 0 -106.5 12.5t-67 33.5t-34.5 46t-10 49q0 32 13 51t35 27.5t48 8.5
q0 -43 12 -81t39.5 -61.5t72.5 -23.5q38 0 65.5 15t42.5 49t15 89q0 49 -15.5 80.5t-44.5 47.5t-72 16h-51v49l175 218h-161q-38 0 -53 -14t-19 -54l-2 -29h-59l7 196h394v-67l-192 -238q53 0 95.5 -13t72 -38.5t45 -63t15.5 -88.5q0 -74 -33.5 -122t-92 -71.5t-134.5 -23.5
z" />
    <glyph glyph-name="uni01EF" unicode="&#x1ef;" horiz-adv-x="483" 
d="M180 606q-9 23 -27 49.5t-37 52.5t-33 45v13h62q13 -13 30 -29.5t34.5 -33.5t30.5 -33q13 16 30.5 33t35 33.5t29.5 29.5h62v-13q-13 -19 -32.5 -45t-37 -52.5t-26.5 -49.5h-121zM208 -240q-74 0 -115 19t-58 46.5t-17 53.5q0 34 20.5 52.5t68.5 18.5q0 -34 8.5 -65
t30 -50t58.5 -19q33 0 57.5 17t38 56t13.5 105q0 85 -35.5 126t-101.5 41h-26v41l181 236h-169q-31 0 -41.5 -13.5t-18.5 -49.5l-8 -27h-47l13 188h375v-70l-189 -246q43 -3 80.5 -16.5t65.5 -39.5t44 -67t16 -97q0 -65 -20.5 -111t-55 -74.5t-78 -41.5t-90.5 -13z" />
    <glyph glyph-name="uni01F0" unicode="&#x1f0;" horiz-adv-x="307" 
d="M-16 -240v59h6q32 0 54 16t33.5 55.5t11.5 107.5v421q0 29 -9 43t-24.5 18.5t-34.5 4.5h-4v51h209v-544q0 -89 -28.5 -140t-79 -71.5t-116.5 -20.5h-18zM78 606q-9 23 -27 49.5t-37 52.5t-33 45v13h62q13 -13 30 -29.5t34.5 -33.5t30.5 -33q13 16 30.5 33t35 33.5
t29.5 29.5h62v-13q-13 -19 -32.5 -45t-37 -52.5t-26.5 -49.5h-121z" />
    <glyph glyph-name="uni01F1" unicode="&#x1f1;" horiz-adv-x="1258" 
d="M24 0v51h34q14 0 24.5 6t16.5 20t6 37v488q0 25 -7 38t-18 18t-27 5h-29v51h289q97 0 166.5 -39.5t107 -116.5t37.5 -191q0 -109 -35 -192t-104 -129t-172 -46h-289zM293 60q59 0 98.5 36.5t60 105.5t20.5 165q0 97 -20.5 161t-60 95.5t-97.5 31.5h-47v-595h46zM707 0v48
l329 607h-171q-42 0 -55.5 -24.5t-16.5 -63.5l-4 -52h-65l5 199h470v-49l-329 -606h186q37 0 56.5 14t27.5 36t10 46l4 44h64l-4 -199h-507z" />
    <glyph glyph-name="uni01F2" unicode="&#x1f2;" horiz-adv-x="1134" 
d="M24 0v51h34q14 0 24.5 6t16.5 20t6 37v488q0 25 -7 38t-18 18t-27 5h-29v51h289q97 0 166.5 -39.5t107 -116.5t37.5 -191q0 -109 -35 -192t-104 -129t-172 -46h-289zM293 60q59 0 98.5 36.5t60 105.5t20.5 165q0 97 -20.5 161t-60 95.5t-97.5 31.5h-47v-595h46zM685 0v41
l259 433h-106q-32 0 -46 -15.5t-24 -55.5l-6 -24h-54l11 157h380v-42l-260 -432h137q36 0 51.5 18.5t23.5 63.5l6 33h52l-5 -177h-419z" />
    <glyph glyph-name="uni01F3" unicode="&#x1f3;" horiz-adv-x="1030" 
d="M216 -10q-57 0 -96.5 29t-60 90.5t-20.5 157.5q0 97 20.5 159t60 91.5t95.5 29.5q49 0 78.5 -22t47.5 -56h5q-2 24 -2 53v58v66q0 28 -10 41.5t-26 17.5t-34 4h-8v51h215v-634q0 -30 8 -46.5t22.5 -22.5t34.5 -6h8v-51h-176l-22 81h-4q-20 -42 -52.5 -66.5t-83.5 -24.5z
M256 60q49 0 68.5 53.5t19.5 154.5q0 102 -18.5 156.5t-69.5 54.5q-27 0 -44.5 -24.5t-25.5 -71.5t-8 -116q0 -104 18 -155.5t60 -51.5zM582 0v41l259 433h-106q-32 0 -46 -15.5t-24 -55.5l-6 -24h-54l11 157h380v-42l-260 -432h137q36 0 51.5 18.5t23.5 63.5l6 33h52
l-5 -177h-419z" />
    <glyph glyph-name="uni01F4" unicode="&#x1f4;" horiz-adv-x="674" 
d="M371 -10q-109 0 -180.5 46t-107 128.5t-35.5 193.5q0 108 37 190.5t109.5 129t180.5 46.5q72 0 121 -15t74 -41t25 -59q0 -34 -28.5 -58t-85.5 -24q0 39 -11.5 69.5t-36 48t-61.5 17.5q-61 0 -99.5 -34.5t-56 -102t-17.5 -167.5q0 -98 18 -165.5t58.5 -103t108.5 -35.5
q14 0 30 2t30 7v151q0 27 -6 42.5t-19.5 21.5t-33.5 6h-13v50h271v-50h-7q-18 0 -28.5 -6.5t-15.5 -22.5t-5 -45v-168q-51 -26 -103.5 -39t-112.5 -13zM273 786q14 22 30.5 47.5t32 51.5t23.5 48h142v-10q-8 -13 -27 -32.5t-43.5 -41t-50 -41.5t-46.5 -35h-61v13z" />
    </font>
</defs>
</svg>
