<?xml version="1.0" standalone="no"?>
<!DOCTYPE svg PUBLIC "-//W3C//DTD SVG 1.1//EN" "http://www.w3.org/Graphics/SVG/1.1/DTD/svg11.dtd" >
<svg xmlns="http://www.w3.org/2000/svg" xmlns:xlink="http://www.w3.org/1999/xlink" version="1.1">
<metadata>
Created by FontForge 20201107 at Wed Nov 20 20:06:57 2024
 By 
Copyright 2022 The Noto Project Authors (https://github.com/notofonts/latin-greek-cyrillic)
</metadata>
<defs>
<font id="NotoSerifCondensed-Regular" horiz-adv-x="0" >
  <font-face 
    font-family="Noto Serif Condensed"
    font-weight="400"
    font-stretch="condensed"
    units-per-em="1000"
    panose-1="2 2 5 2 6 5 5 2 2 4"
    ascent="800"
    descent="-200"
    x-height="536"
    cap-height="714"
    bbox="-595 -389 2387 1047"
    underline-thickness="50"
    underline-position="-125"
    unicode-range="U+000D-1DF1E"
  />
<missing-glyph horiz-adv-x="590" 
d="M88 0v714h411v-714h-411zM139 51h309v612h-309v-612z" />
    <glyph glyph-name="f_f" unicode="ff" horiz-adv-x="611" 
d="M22 0v41h12q18 0 34 5t25.5 20.5t9.5 46.5v375h-78v48h78v32q0 98 42 146t119 48q38 0 62.5 -9t36 -25t11.5 -37q0 -26 -18 -41t-48 -15q0 24 -4.5 42t-16 29t-32.5 11q-25 0 -39 -18t-19.5 -49t-5.5 -72v-42h225v-48h-225v-373q0 -32 9 -48t24 -21t34 -5h12v-41h-248z
M316 0v41h10q18 0 34 5t25 20.5t9 46.5v375h-65v48h65v37q0 60 19 104t55 68.5t89 24.5q41 0 66 -9t36 -24.5t11 -35.5q0 -17 -8 -30t-24 -20t-39 -7q0 21 -4.5 39.5t-15 30t-30.5 11.5q-37 0 -51.5 -40.5t-14.5 -102.5v-46h120v-48h-120v-375q0 -31 9 -46.5t25 -20.5t35 -5
h33v-41h-269z" />
    <glyph glyph-name="fi" unicode="fi" horiz-adv-x="579" 
d="M22 0v41h12q18 0 34 5t25.5 20.5t9.5 46.5v375h-78v48h78v36q0 58 21.5 103.5t67.5 72t119 26.5q46 0 78 -6.5t52 -18.5t29.5 -27t9.5 -32q0 -28 -21 -44.5t-60 -16.5q0 23 -8.5 46t-29.5 38.5t-59 15.5q-45 0 -69 -25.5t-33 -64.5t-9 -80v-23h297v-421q0 -31 9 -47
t24.5 -21.5t34.5 -5.5h11v-41h-239v41h7q20 0 34 5t22 20t8 44v378h-208v-375q0 -31 9.5 -46.5t25.5 -20.5t34 -5h15v-41h-253z" />
    <glyph glyph-name="fl" unicode="fl" horiz-adv-x="579" 
d="M22 0v41h12q18 0 34 5t25.5 20.5t9.5 46.5v375h-78v48h78v32q0 92 49.5 147t157.5 55q22 0 43.5 -3.5t34.5 -6.5h99v-645q0 -31 9 -47t24.5 -21.5t35.5 -5.5h11v-41h-241v41h4q21 0 36 5.5t23.5 21t8.5 47.5v509q0 33 -9.5 55.5t-30.5 34t-55 11.5q-44 0 -68 -23
t-34 -60.5t-10 -79.5v-26h124v-48h-124v-375q0 -31 9.5 -46.5t25.5 -20.5t34 -5h16v-41h-254z" />
    <glyph glyph-name="f_f_i" unicode="ffi" horiz-adv-x="865" 
d="M22 0v41h12q18 0 34 5t25.5 20.5t9.5 46.5v375h-78v48h78v32q0 98 42 146t119 48q38 0 62.5 -9t36 -25t11.5 -37q0 -26 -18 -41t-48 -15q0 24 -4.5 42t-16 29t-32.5 11q-25 0 -39 -18t-19.5 -49t-5.5 -72v-42h203v19q0 111 52.5 166t157.5 55q57 0 93.5 -11.5t54.5 -31
t18 -44.5q0 -19 -9.5 -33t-29 -21.5t-46.5 -7.5q0 23 -8.5 47t-29 40t-58.5 16q-39 0 -62.5 -22t-33 -59.5t-9.5 -85.5v-27h290v-423q0 -31 9.5 -46.5t25.5 -20.5t34 -5h12v-41h-238v41h2q18 0 33 4.5t24.5 19t9.5 43.5v380h-202v-373q0 -31 8 -47t23 -21.5t34 -5.5h13v-41
h-246v41h10q19 0 34 5t24.5 20.5t9.5 46.5v375h-203v-373q0 -32 9 -48t24 -21t34 -5h12v-41h-248z" />
    <glyph glyph-name="f_f_l" unicode="ffl" horiz-adv-x="874" 
d="M22 0v41h12q18 0 34 5t25.5 20.5t9.5 46.5v375h-78v48h78v39q0 94 41.5 143t119.5 49q41 0 66 -9t36 -24.5t11 -35.5q0 -26 -18.5 -41.5t-51.5 -15.5q0 21 -4.5 39.5t-15.5 30t-32 11.5q-35 0 -49.5 -36t-14.5 -100v-50h208v27q0 96 50 151.5t157 55.5q23 0 44.5 -3.5
t33.5 -6.5h100v-645q0 -31 9 -47t24.5 -21.5t34.5 -5.5h11v-41h-241v41h5q20 0 35.5 5.5t24 21t8.5 47.5v509q0 33 -10 55.5t-31 34t-56 11.5q-43 0 -67 -23.5t-33.5 -61.5t-9.5 -82v-22h123v-48h-123v-375q0 -31 9 -46.5t25 -20.5t34 -5h16v-41h-252v41h11q18 0 33 5
t25 20.5t10 46.5v375h-208v-375q0 -31 9.5 -46.5t25.5 -20.5t34 -5h22v-41h-260z" />
    <glyph glyph-name=".notdef" horiz-adv-x="590" 
d="M88 0v714h411v-714h-411zM139 51h309v612h-309v-612z" />
    <glyph glyph-name=".null" 
 />
    <glyph glyph-name="nonmarkingreturn" horiz-adv-x="333" 
 />
    <glyph glyph-name="NULL" 
 />
    <glyph glyph-name="CR" unicode="&#xd;" horiz-adv-x="221" 
 />
    <glyph glyph-name="space" unicode=" " horiz-adv-x="221" 
 />
    <glyph glyph-name="exclam" unicode="!" horiz-adv-x="291" 
d="M121 206l-29 508h107l-29 -508h-49zM146 -7q-24 0 -39.5 14t-15.5 50t15.5 50t39.5 14q21 0 37.5 -14t16.5 -50t-16.5 -50t-37.5 -14z" />
    <glyph glyph-name="quotedbl" unicode="&#x22;" horiz-adv-x="363" 
d="M79 482l-28 232h97l-28 -232h-41zM242 482l-28 232h97l-28 -232h-41z" />
    <glyph glyph-name="numbersign" unicode="#" horiz-adv-x="478" 
d="M54 0l39 207h-81v53h91l38 199h-97v55h108l36 200h58l-38 -200h115l37 200h57l-38 -200h86v-55h-96l-38 -199h102v-53h-112l-39 -207h-57l39 207h-114l-39 -207h-57zM160 260h115l37 199h-114z" />
    <glyph glyph-name="dollar" unicode="$" horiz-adv-x="477" 
d="M218 40q-41 1 -72 11.5t-53 28t-33 42t-11 54.5q0 19 8 33.5t22 23t34 8.5q4 -45 15.5 -79.5t33 -54.5t56.5 -24v252q-54 27 -86.5 54t-47 60.5t-14.5 76.5q0 45 19 78t52.5 53.5t76.5 25.5v77h42v-76q49 0 80.5 -15t46.5 -39.5t15 -53.5q0 -30 -18 -47t-51 -17
q0 31 -6.5 60t-22 49t-44.5 21v-237q53 -27 88.5 -55.5t53.5 -62t18 -77.5q0 -72 -43 -115t-117 -53v-121h-42v119zM260 85q40 7 61 35.5t21 71.5q0 42 -19 70.5t-63 52.5v-230zM218 642q-34 -7 -52.5 -34t-18.5 -66q0 -30 7.5 -50t23.5 -35.5t40 -29.5v215z" />
    <glyph glyph-name="percent" unicode="%" horiz-adv-x="766" 
d="M201 0l303 714h58l-302 -714h-59zM179 280q-75 0 -108.5 61.5t-33.5 161.5q0 101 33.5 161t109.5 60q71 0 106.5 -60t35.5 -161q0 -67 -15.5 -117t-47.5 -78t-80 -28zM179 317q26 0 40 22t20.5 63.5t6.5 100.5q0 88 -14.5 135.5t-51.5 47.5q-25 0 -40 -21.5t-21.5 -62.5
t-6.5 -99q0 -89 15 -137.5t52 -48.5zM587 -10q-75 0 -108.5 61.5t-33.5 161.5q0 101 34 161t109 60q71 0 106.5 -60t35.5 -161q0 -67 -15.5 -117t-47.5 -78t-80 -28zM587 27q26 0 40 21.5t20.5 63.5t6.5 101q0 88 -14.5 135.5t-52.5 47.5q-25 0 -39.5 -21.5t-21 -62.5
t-6.5 -99q0 -89 15 -137.5t52 -48.5z" />
    <glyph glyph-name="ampersand" unicode="&#x26;" horiz-adv-x="643" 
d="M234 -10q-65 0 -111 26t-69 73t-23 110q0 57 18.5 95t50.5 64t72 46q-21 28 -36 54t-22.5 53.5t-7.5 61.5q0 44 17 78t53 53.5t92 19.5t89 -20t48.5 -52.5t15.5 -69.5q0 -43 -14.5 -75.5t-45.5 -58t-81 -48.5l149 -193q12 44 16.5 90.5t4.5 84.5v39h157v-41h-9
q-18 0 -36 -3.5t-31.5 -17t-20.5 -44.5q-8 -35 -18 -73.5t-25 -76.5l82 -98q13 -16 30 -21t47 -5h8v-41h-143l-70 90q-19 -27 -46 -50t-61.5 -36.5t-79.5 -13.5zM249 45q47 0 82.5 23.5t58.5 58.5l-187 240q-24 -15 -42 -37t-28.5 -54t-10.5 -77q0 -76 35 -115t92 -39z
M250 435q50 26 73.5 59.5t23.5 86.5q0 41 -19 69t-59 28q-39 0 -59.5 -27t-20.5 -71q0 -25 6 -47.5t19.5 -46t35.5 -51.5z" />
    <glyph glyph-name="quotesingle" unicode="'" horiz-adv-x="199" 
d="M79 482l-28 232h97l-28 -232h-41z" />
    <glyph glyph-name="parenleft" unicode="(" horiz-adv-x="303" 
d="M276 -127q-81 36 -131.5 93t-73 143.5t-22.5 207.5t22.5 206.5t73 142.5t131.5 93v-43q-43 -31 -69 -75t-39 -96.5t-17.5 -110t-4.5 -117.5t4.5 -117.5t17.5 -110.5t39 -97t69 -75v-44z" />
    <glyph glyph-name="parenright" unicode=")" horiz-adv-x="303" 
d="M27 -83q43 31 69.5 75t39.5 97t17.5 110.5t4.5 117.5t-4.5 117.5t-17.5 110t-39.5 96.5t-69.5 75v43q82 -36 132 -93t73 -142.5t23 -206.5t-23 -207.5t-73 -143.5t-132 -93v44z" />
    <glyph glyph-name="asterisk" unicode="*" horiz-adv-x="413" 
d="M168 375l22 165l-125 -98l-31 74l136 52l-136 51l31 74l126 -98l-23 165h76l-24 -164l127 95l30 -73l-136 -50l136 -51l-30 -73l-127 96l24 -165h-76z" />
    <glyph glyph-name="plus" unicode="+" horiz-adv-x="465" 
d="M202 143v186h-152v57h152v186h59v-186h155v-57h-155v-186h-59z" />
    <glyph glyph-name="comma" unicode="," horiz-adv-x="220" 
d="M31 -115q26 10 42.5 24t25 31.5t8.5 34.5q0 14 -8.5 22.5t-20.5 16t-20.5 19.5t-8.5 33q0 26 15.5 40.5t37.5 14.5q28 0 46.5 -23.5t18.5 -66.5q0 -60 -30.5 -110t-105.5 -75v39z" />
    <glyph glyph-name="hyphen" unicode="-" horiz-adv-x="265" 
d="M21 236v73h223v-73h-223z" />
    <glyph glyph-name="period" unicode="." horiz-adv-x="220" 
d="M110 -7q-23 0 -39 14t-16 50t16 50t39 14q22 0 38.5 -14t16.5 -50t-16.5 -50t-38.5 -14z" />
    <glyph glyph-name="slash" unicode="/" horiz-adv-x="246" 
d="M0 -121l195 881h51l-193 -880z" />
    <glyph glyph-name="zero" unicode="0" horiz-adv-x="477" 
d="M239 -10q-73 0 -117.5 43.5t-64.5 126t-20 199.5q0 114 19.5 195.5t64.5 125.5t119 44q70 0 114 -43t65 -125t21 -198q0 -115 -21.5 -197.5t-65.5 -126.5t-114 -44zM239 41q40 0 63.5 37.5t33.5 108.5t10 171t-10 170.5t-33 107.5t-63 37q-41 0 -64.5 -37t-34 -107.5
t-10.5 -170.5t10.5 -171t33.5 -108.5t64 -37.5z" />
    <glyph glyph-name="one" unicode="1" horiz-adv-x="477" 
d="M84 0v41h51q21 0 37 5t25 20.5t9 46.5v527q-31 -44 -58 -72.5t-52 -28.5q-19 0 -31 14t-12 37q25 8 54 24t72 53l60 51h57v-605q0 -31 9.5 -46.5t25.5 -20.5t37 -5h38v-41h-322z" />
    <glyph glyph-name="two" unicode="2" horiz-adv-x="477" 
d="M44 0v69l147 193q47 60 73 107t37.5 89t11.5 88q0 39 -9 68t-28.5 45t-48.5 16q-39 0 -59.5 -21t-28.5 -54t-8 -71q-20 0 -38 5.5t-29 20t-11 39.5q0 36 19.5 65.5t58.5 47t96 17.5q56 0 96.5 -21t62 -59t21.5 -89q0 -39 -10.5 -74.5t-29.5 -70.5t-46.5 -71.5
t-60.5 -77.5l-146 -183h197q37 0 51 20.5t21 53.5l4 19h40l-3 -171h-380z" />
    <glyph glyph-name="three" unicode="3" horiz-adv-x="477" 
d="M218 -10q-62 0 -100.5 15.5t-56.5 41t-18 55.5q0 29 18.5 46t46.5 17q0 -52 28.5 -87t81.5 -35q32 0 59 15.5t43.5 49.5t16.5 91q0 69 -37 108.5t-109 39.5h-36v48h37q38 0 65.5 18.5t43 53.5t15.5 83q0 59 -21.5 92t-67.5 33q-36 0 -56.5 -20t-29 -52.5t-8.5 -72.5
q-31 0 -53.5 13t-22.5 48q0 37 19.5 67t59 48t96.5 18q79 0 128 -42t49 -121q0 -45 -17 -82.5t-46.5 -63t-68.5 -36.5q26 -4 53.5 -14.5t50 -31t36.5 -53.5t14 -82q0 -58 -19 -98t-50 -64t-68.5 -35t-75.5 -11z" />
    <glyph glyph-name="four" unicode="4" horiz-adv-x="477" 
d="M180 0v41h23q20 0 36 5t25.5 20.5t9.5 46.5v84h-260v39l259 478h88v-462h103v-55h-103v-84q0 -31 9.5 -46.5t26 -20.5t35.5 -5h11v-41h-263zM76 252h198v188q0 29 0.5 65t1.5 72.5t3 67.5q-4 -11 -13.5 -31t-21 -43.5t-23 -45.5t-19.5 -38z" />
    <glyph glyph-name="five" unicode="5" horiz-adv-x="477" 
d="M208 -10q-63 0 -99 16.5t-50.5 41t-14.5 45.5q0 27 15 44t41 17q0 -30 11.5 -55t34 -40.5t57.5 -15.5q34 0 61 16.5t42.5 55t15.5 103.5q0 79 -34 119t-91 40q-39 0 -64.5 -8.5t-42.5 -17.5l-20 9l28 354h291l3 -149h-40l-4 24q-4 17 -7.5 27.5t-12 15t-25.5 4.5h-166
l-18 -224q10 4 25 8t33.5 6.5t39.5 2.5q58 0 103.5 -23.5t71 -70.5t25.5 -117q0 -40 -9.5 -75t-27.5 -63t-43.5 -48t-58 -31t-70.5 -11z" />
    <glyph glyph-name="six" unicode="6" horiz-adv-x="477" 
d="M250 -10q-57 0 -102.5 37t-71.5 116t-26 203q0 85 13.5 154.5t40.5 119.5t69 77t99 27q49 0 81 -15t48.5 -39t16.5 -51q0 -28 -18 -43t-52 -15q0 35 -7.5 60.5t-25 40.5t-45.5 15q-40 0 -67.5 -33.5t-42 -99.5t-17.5 -164q13 13 31 25.5t41 20t51 7.5q77 0 123.5 -54.5
t46.5 -149.5q0 -70 -22 -124t-63.5 -84.5t-100.5 -30.5zM253 41q29 0 50 19t31 58.5t10 100.5q0 86 -24.5 125.5t-71.5 39.5q-25 0 -45 -9t-35 -22t-26 -27q2 -146 31 -215.5t80 -69.5z" />
    <glyph glyph-name="seven" unicode="7" horiz-adv-x="477" 
d="M130 0l214 636h-203q-24 0 -35.5 -12.5t-13.5 -40.5l-4 -48h-42l5 179h384v-28l-218 -686h-87z" />
    <glyph glyph-name="eight" unicode="8" horiz-adv-x="477" 
d="M234 -10q-65 0 -108.5 25t-65.5 66.5t-22 93.5q0 50 17.5 86t47 61t65.5 44q-33 21 -57.5 46t-39 58.5t-14.5 76.5q0 48 19.5 88.5t60.5 64.5t105 24q56 0 94 -21.5t58.5 -59t20.5 -87.5q0 -68 -31 -108t-83 -68q42 -22 73 -49t48.5 -63t17.5 -86q0 -90 -55 -141
t-151 -51zM237 38q53 0 84.5 34.5t31.5 95.5q0 34 -14.5 63t-46 55.5t-84.5 54.5q-39 -26 -61 -67.5t-22 -97.5q0 -64 29 -101t83 -37zM259 402q29 19 45 41t23 49.5t7 62.5q0 31 -9.5 58.5t-30.5 45t-55 17.5q-46 0 -70.5 -32.5t-24.5 -84.5q0 -38 13.5 -65.5t39 -49
t62.5 -42.5z" />
    <glyph glyph-name="nine" unicode="9" horiz-adv-x="477" 
d="M194 -11q-47 0 -75 12.5t-40 31t-12 38.5q0 19 8 32.5t22 18.5q8 -21 20.5 -39t32.5 -29t49 -11q68 0 100 75t36 228q-10 -16 -28 -31t-42.5 -25.5t-55.5 -10.5q-48 0 -86.5 23.5t-60 68.5t-21.5 111q0 71 21.5 125.5t62.5 85.5t99 31q59 0 105 -34.5t72.5 -108.5
t26.5 -193q0 -85 -13.5 -157.5t-41 -127t-72 -84.5t-107.5 -30zM231 331q44 2 69 25.5t37 47.5q-1 94 -15 153.5t-37.5 87.5t-57.5 28q-30 0 -51 -21.5t-31.5 -62.5t-10.5 -101q0 -79 24 -117t73 -40z" />
    <glyph glyph-name="colon" unicode=":" horiz-adv-x="240" 
d="M120 408q-23 0 -38.5 13.5t-15.5 49.5t15.5 49.5t38.5 13.5q22 0 38.5 -13.5t16.5 -49.5t-16.5 -49.5t-38.5 -13.5zM120 -7q-23 0 -38.5 14t-15.5 50t15.5 50t38.5 14q22 0 38.5 -14t16.5 -50t-16.5 -50t-38.5 -14z" />
    <glyph glyph-name="semicolon" unicode=";" horiz-adv-x="240" 
d="M42 -115q26 10 43 24t25 31t8 35q0 14 -8.5 22.5t-20 16t-20.5 19.5t-9 33q0 26 15.5 40.5t37.5 14.5q28 0 46.5 -23.5t18.5 -66.5q0 -60 -31 -110t-105 -75v39zM120 408q-23 0 -38.5 13.5t-15.5 49.5t15.5 49.5t38.5 13.5t39 -13.5t16 -49.5t-16 -49.5t-39 -13.5z" />
    <glyph glyph-name="less" unicode="&#x3c;" horiz-adv-x="465" 
d="M416 111l-366 229v35l366 230v-65l-285 -183l285 -180v-66z" />
    <glyph glyph-name="equal" unicode="=" horiz-adv-x="465" 
d="M50 424v58h366v-58h-366zM50 232v58h366v-58h-366z" />
    <glyph glyph-name="greater" unicode="&#x3e;" horiz-adv-x="465" 
d="M50 111v66l284 180l-284 183v65l366 -230v-35z" />
    <glyph glyph-name="question" unicode="?" horiz-adv-x="431" 
d="M164 348q50 24 78 55.5t40 68.5t12 80q0 53 -22.5 88.5t-69.5 35.5q-33 0 -53 -16.5t-29 -44.5t-9 -64q-35 0 -56 14t-21 46q0 23 10.5 44t31.5 36.5t52 24t72 8.5q56 0 98 -21t65 -60.5t23 -96.5q0 -55 -18 -96.5t-54 -72.5t-89 -57l-8 -113h-46zM193 -7q-22 0 -38 14
t-16 50t16 50t38 14q24 0 40 -14t16 -50t-16 -50t-40 -14z" />
    <glyph glyph-name="at" unicode="@" horiz-adv-x="786" 
d="M370 -142q-68 0 -125 21.5t-99.5 66t-66 111t-23.5 157.5q0 111 30.5 203t84.5 158.5t126 102.5t155 36q93 0 157.5 -42t98 -115t33.5 -166q0 -72 -15 -129.5t-39 -99t-54.5 -63.5t-61.5 -22q-37 0 -63 24.5t-37 70.5h-4q-12 -26 -28.5 -47.5t-38.5 -34.5t-52 -13
q-34 0 -63 19t-46 57t-17 95q0 45 13 94t40 91.5t68 69t97 26.5q26 0 47.5 -9.5t34.5 -20.5l34 21h20l-42 -247q-1 -11 -3 -24.5t-3 -26.5t-1 -24q0 -39 16 -56.5t34 -17.5q19 0 38.5 17.5t36.5 51.5t27.5 83.5t10.5 112.5q0 90 -31 152.5t-86 95.5t-126 33q-65 0 -124 -32
t-105 -92.5t-72.5 -144t-26.5 -185.5q0 -110 33 -178t92 -100t134 -32q48 0 88.5 12t73 31.5t57.5 40.5l20 -34q-29 -25 -65.5 -47.5t-81.5 -36.5t-100 -14zM367 124q21 0 36 11.5t26 30t18 40t11 42.5l36 214q-6 12 -21 21t-33 9q-38 0 -64.5 -26t-43 -67t-24.5 -85t-8 -81
q0 -57 18.5 -83t48.5 -26z" />
    <glyph glyph-name="A" unicode="A" horiz-adv-x="609" 
d="M1 0v41h15q17 0 27.5 6t19.5 23t19 49l188 595h75l193 -625q6 -19 13.5 -29t19.5 -14.5t29 -4.5h9v-41h-243v41h20q26 0 38.5 11t12.5 31q0 7 -1.5 15t-3.5 18t-5 19l-31 105h-221l-29 -98q-3 -8 -5 -18t-4 -19t-2 -18q0 -21 13 -33.5t42 -12.5h22v-41h-211zM192 289h188
l-53 186q-8 30 -16 56.5t-13.5 49.5t-10.5 42q-4 -19 -9.5 -41.5t-12 -46t-15.5 -50.5z" />
    <glyph glyph-name="B" unicode="B" horiz-adv-x="566" 
d="M31 0v41h16q20 0 34.5 5.5t22.5 21t8 45.5v492q0 30 -9 44.5t-23.5 19t-32.5 4.5h-16v41h236q112 0 168.5 -42t56.5 -133q0 -44 -15 -75t-40.5 -51.5t-56.5 -31.5v-5q41 -6 72 -28.5t48 -61.5t17 -93q0 -97 -55.5 -145t-168.5 -48h-262zM286 49q70 0 100.5 33t30.5 114
q0 52 -12.5 86t-40.5 51t-77 17h-81v-301h80zM263 399q49 0 77 14.5t40 44.5t12 77q0 74 -30.5 102t-99.5 28h-56v-266h57z" />
    <glyph glyph-name="C" unicode="C" horiz-adv-x="533" 
d="M312 -10q-86 0 -145 46t-89 128.5t-30 193.5q0 110 31 192t92.5 128t152.5 46q58 0 98 -15.5t60 -41t20 -56.5t-21.5 -49t-56.5 -18q0 32 -10 61t-33 48t-64 19q-59 0 -96 -37.5t-53.5 -108t-16.5 -168.5q0 -95 18.5 -164.5t57 -107t100.5 -37.5q43 0 72.5 12.5t49.5 33
t36 44.5q6 -4 10.5 -14t4.5 -22q0 -18 -11 -37.5t-33.5 -36.5t-58 -28t-85.5 -11z" />
    <glyph glyph-name="D" unicode="D" horiz-adv-x="627" 
d="M31 0v41h17q19 0 33.5 5.5t22.5 21t8 45.5v492q0 29 -8.5 43.5t-23.5 19.5t-34 5h-15v41h265q89 0 152 -42t96.5 -121.5t33.5 -193.5q0 -109 -31.5 -189.5t-94 -124t-156.5 -43.5h-265zM276 50q67 0 110.5 35.5t66 104t22.5 167.5t-22 168t-66 104.5t-110 35.5h-70v-615
h69z" />
    <glyph glyph-name="E" unicode="E" horiz-adv-x="536" 
d="M31 0v41h16q19 0 33.5 5t23 19.5t8.5 42.5v493q0 32 -8.5 47t-23 20t-33.5 5h-16v41h438l4 -174h-47l-5 42q-1 22 -9 41t-24 30.5t-42 11.5h-139v-267h204v-48h-204v-301h160q28 0 44.5 11.5t25.5 30.5t12 41l5 42h48l-6 -174h-465z" />
    <glyph glyph-name="F" unicode="F" horiz-adv-x="509" 
d="M31 0v41h13q21 0 36 5t23.5 19t8.5 43v497q0 29 -8.5 43.5t-23.5 19.5t-33 5h-16v41h437l5 -174h-47l-5 43q-3 32 -20 57t-56 25h-138v-290h205v-49h-205v-214q0 -30 8.5 -45t25 -20.5t36.5 -5.5h27v-41h-273z" />
    <glyph glyph-name="G" unicode="G" horiz-adv-x="617" 
d="M346 -10q-100 0 -166.5 46t-99 128.5t-32.5 193.5q0 108 34 190.5t101.5 129t166.5 46.5q63 0 105.5 -14.5t65 -39.5t22.5 -57t-22 -51t-58 -19q0 31 -11.5 60.5t-37 49t-67.5 19.5q-68 0 -111 -35t-63.5 -105t-20.5 -174q0 -101 20 -171t65.5 -106.5t121.5 -36.5
q23 0 45 3t39 10v164q0 30 -8 44.5t-23 18.5t-34 4h-7v41h227v-41h-6q-17 0 -29 -4.5t-18.5 -19.5t-6.5 -47v-182q-44 -22 -90 -33.5t-102 -11.5z" />
    <glyph glyph-name="H" unicode="H" horiz-adv-x="681" 
d="M31 0v41h17q19 0 33.5 5.5t22.5 20.5t8 45v493q0 29 -8.5 43.5t-23.5 19.5t-35 5h-14v41h252v-41h-13q-18 0 -32.5 -5t-22.5 -20t-8 -45v-205h267v204q0 31 -7.5 46t-22.5 20t-34 5h-13v41h253v-41h-17q-18 0 -33 -5t-23 -20t-8 -46v-494q0 -28 8.5 -42.5t23 -19.5
t32.5 -5h17v-41h-253v41h13q19 0 34 5.5t22.5 21t7.5 45.5v236h-267v-237q0 -30 8 -45t22.5 -20.5t32.5 -5.5h13v-41h-252z" />
    <glyph glyph-name="I" unicode="I" horiz-adv-x="318" 
d="M31 0v41h17q18 0 32.5 5t23 20.5t8.5 44.5v490q0 31 -8.5 46t-23 20.5t-32.5 5.5h-17v41h257v-41h-18q-18 0 -32.5 -5.5t-22.5 -20.5t-8 -46v-489q0 -30 8 -45t23 -20.5t32 -5.5h18v-41h-257z" />
    <glyph glyph-name="J" unicode="J" horiz-adv-x="314" 
d="M-8 -240v46h9q35 0 60.5 16.5t39.5 57t14 110.5v615q0 29 -9 43.5t-23.5 19.5t-32.5 5h-16v41h256v-41h-16q-18 0 -32.5 -5.5t-23.5 -20.5t-9 -46v-610q0 -67 -15.5 -111.5t-43 -71t-64 -37.5t-76.5 -11h-18z" />
    <glyph glyph-name="K" unicode="K" horiz-adv-x="608" 
d="M31 0v41h14q20 0 35 5t23.5 19t8.5 43v498q0 29 -8.5 43t-23.5 19t-33 5h-16v41h252v-41h-12q-18 0 -33 -5t-23 -20t-8 -45v-293l172 246q19 26 29.5 44t15.5 30.5t5 21.5q0 13 -10.5 17.5t-33.5 4.5v40h194v-40q-20 0 -38 -11t-37 -31.5t-41 -50.5l-124 -166l183 -293
q16 -26 31.5 -44t31 -27.5t30.5 -9.5h2v-41h-25q-38 0 -63.5 4.5t-43.5 15.5t-33 30.5t-32 50.5l-143 241l-70 -88v-143q0 -29 8.5 -44.5t23.5 -20.5t34 -5h10v-41h-252z" />
    <glyph glyph-name="L" unicode="L" horiz-adv-x="535" 
d="M31 0v41h17q18 0 32.5 5t23 20.5t8.5 44.5v491q0 31 -8.5 46t-23.5 20t-34 5h-15v41h257v-41h-16q-20 0 -34.5 -5t-22.5 -19.5t-8 -43.5v-556h167q25 0 40.5 12t24 32.5t11.5 45.5l9 75h43l-6 -214h-465z" />
    <glyph glyph-name="M" unicode="M" horiz-adv-x="803" 
d="M31 0v41h12q20 0 35.5 5t24.5 19.5t9 42.5v497q0 29 -8.5 43.5t-23.5 19.5t-33 5h-16v41h203l169 -578l168 578h201v-41h-17q-17 0 -31.5 -5t-23 -20t-8.5 -45v-492q0 -29 8 -44.5t23 -20.5t34 -5h15v-41h-242v41h9q21 0 34.5 5.5t20.5 20.5t7 44v530l-189 -641h-54
l-192 639v-526q0 -31 7.5 -46.5t21.5 -20.5t32 -5h8v-41h-204z" />
    <glyph glyph-name="N" unicode="N" horiz-adv-x="654" 
d="M31 0v41h12q21 0 36.5 5t24 20.5t8.5 46.5v492q0 30 -8.5 44.5t-23.5 19t-35 4.5h-14v41h165l302 -561v452q0 29 -9 43.5t-24 19.5t-34 5h-14v41h216v-41h-15q-19 0 -34 -5.5t-23.5 -20.5t-8.5 -46v-601h-66l-320 589v-476q0 -31 8 -46.5t23.5 -20.5t34.5 -5h15v-41h-216
z" />
    <glyph glyph-name="O" unicode="O" horiz-adv-x="640" 
d="M320 -10q-92 0 -152.5 46t-90 129t-29.5 194t29.5 193t90.5 127.5t153 45.5q87 0 147.5 -45.5t92 -128t31.5 -193.5t-31.5 -193.5t-92 -128.5t-148.5 -46zM320 43q62 0 99.5 37.5t53.5 108t16 169.5q0 100 -16.5 170t-53 107t-98.5 37q-91 0 -130.5 -82.5t-39.5 -231.5
q0 -99 17 -169.5t54.5 -108t97.5 -37.5z" />
    <glyph glyph-name="P" unicode="P" horiz-adv-x="521" 
d="M31 0v41h14q19 0 34.5 5t24 20.5t8.5 46.5v492q0 30 -9 44.5t-23.5 19t-33.5 4.5h-15v41h246q111 0 163.5 -55t52.5 -154q0 -45 -12.5 -85.5t-40 -73t-72.5 -50.5t-110 -18h-51v-170q0 -29 9.5 -43.5t25 -19t33.5 -4.5h26v-41h-270zM250 324q38 0 65 9.5t44 31t25.5 55
t8.5 81.5q0 84 -30 125t-100 41h-56v-343h43z" />
    <glyph glyph-name="Q" unicode="Q" horiz-adv-x="640" 
d="M480 -229q-35 0 -69 11t-62 35.5t-47 67.5t-23 106q-77 10 -129 57.5t-77 127.5t-25 183q0 111 29.5 193t90.5 127.5t153 45.5q87 0 147.5 -45.5t92 -128t31.5 -193.5q0 -97 -24.5 -174t-71 -125.5t-115.5 -63.5q4 -50 14.5 -84.5t27 -54.5t38 -29t47.5 -9h13v-47h-41z
M320 43q94 0 131.5 83.5t37.5 231.5q0 99 -16.5 169.5t-53 107.5t-98.5 37t-99 -37t-54 -107.5t-17 -169.5t17 -169.5t54 -108t98 -37.5z" />
    <glyph glyph-name="R" unicode="R" horiz-adv-x="569" 
d="M31 0v41h14q18 0 33.5 4.5t24.5 19t9 43.5v497q0 30 -9.5 44.5t-24.5 19t-33 4.5h-14v41h237q78 0 128 -20t73.5 -62t23.5 -107q0 -56 -17.5 -93.5t-46.5 -60t-62 -34.5l115 -216q22 -39 42 -59.5t46 -20.5h3v-41h-15q-48 0 -78 7t-50.5 26.5t-38.5 56.5l-113 225h-71
v-207q0 -29 9 -43.5t23.5 -19t33.5 -4.5h10v-41h-252zM257 361q73 0 104.5 41t31.5 119q0 50 -13 82.5t-41.5 48t-75.5 15.5h-56v-306h50z" />
    <glyph glyph-name="S" unicode="S" horiz-adv-x="468" 
d="M223 -10q-47 0 -81.5 10t-57 28.5t-33.5 43.5t-11 55q0 21 8.5 36.5t23 24t35.5 8.5q2 -45 16.5 -81.5t41.5 -57t65 -20.5q55 0 85 32.5t30 91.5q0 41 -14.5 68.5t-44.5 50t-79 46.5q-51 27 -85 57t-50.5 69.5t-16.5 94.5q0 54 25 93.5t67.5 61.5t96.5 22
q53 0 89.5 -16.5t55.5 -42t19 -54.5q0 -32 -18.5 -47t-53.5 -15q0 33 -10.5 62t-32.5 47t-57 18q-48 0 -73.5 -31.5t-25.5 -85.5q0 -37 12 -63.5t41 -48t79 -47.5q52 -25 87.5 -54t54 -66.5t18.5 -91.5q0 -64 -26 -107.5t-72.5 -67t-107.5 -23.5z" />
    <glyph glyph-name="T" unicode="T" horiz-adv-x="530" 
d="M126 0v41h18q19 0 35.5 4.5t26.5 19t10 43.5v557h-80q-36 0 -51 -25t-19 -58l-4 -42h-46l4 174h489l4 -174h-46l-5 42q-3 33 -18 58t-53 25h-80v-552q0 -31 9.5 -46.5t26 -20.5t36.5 -5h18v-41h-275z" />
    <glyph glyph-name="U" unicode="U" horiz-adv-x="616" 
d="M310 -10q-66 0 -115 22.5t-75 72.5t-26 131v389q0 30 -9.5 44.5t-25 19t-34.5 4.5h-12v41h256v-41h-11q-20 0 -35.5 -5t-24.5 -20t-9 -47v-391q0 -88 38.5 -124.5t100.5 -36.5q48 0 78.5 21t46 56.5t15.5 80.5v398q0 30 -9.5 44.5t-24.5 19t-35 4.5h-11v41h215v-41h-11
q-20 0 -36 -5t-25 -20t-9 -47v-396q0 -66 -23.5 -114t-71 -74.5t-117.5 -26.5z" />
    <glyph glyph-name="V" unicode="V" horiz-adv-x="579" 
d="M72 620q-6 21 -13.5 32.5t-18.5 16t-27 4.5h-13v41h241v-41h-20q-26 0 -38 -10t-12 -30q0 -6 1 -14t3.5 -16t4.5 -17l89 -327q9 -30 15.5 -57t12 -51t10.5 -48q5 24 10.5 48t12.5 50.5t16 58.5l91 319q3 9 5 18.5t3 18t1 15.5q0 22 -13 32t-41 10h-21v41h208v-41h-14
q-18 0 -29 -6t-19.5 -22.5t-18.5 -49.5l-173 -595h-73z" />
    <glyph glyph-name="W" unicode="W" horiz-adv-x="896" 
d="M78 620q-4 21 -12.5 32.5t-19.5 16t-28 4.5h-11v41h243v-41h-20q-26 0 -38.5 -10t-12.5 -29q0 -10 2.5 -21.5t4.5 -23.5l73 -327q7 -30 13 -58t11 -54.5t9 -50.5q6 40 16 86.5t22 98.5l103 423h72l99 -437q12 -49 21 -92t15 -80q4 24 8.5 47t10 49t12.5 57l75 321
q3 13 6.5 32t3.5 29q0 22 -14 31t-43 9h-19v41h211v-41h-17q-16 0 -28 -5.5t-20 -22.5t-17 -50l-141 -595h-89l-129 568l-134 -568h-90z" />
    <glyph glyph-name="X" unicode="X" horiz-adv-x="574" 
d="M7 0v41h5q21 0 35 6.5t26.5 22t27.5 41.5l142 244l-140 265q-10 19 -20.5 30.5t-23.5 17t-29 5.5h-10v41h239v-41h-3q-29 0 -39 -8.5t-10 -20.5q0 -10 6 -25t16 -34l77 -153l79 151q10 17 16 32.5t6 28.5q0 18 -13.5 23.5t-33.5 5.5h-2v41h188v-41h-8q-16 0 -29.5 -6.5
t-26 -22t-28.5 -43.5l-122 -216l155 -291q11 -19 23 -31t23.5 -17t21.5 -5h12v-41h-239v41h4q25 0 38 8.5t13 24.5q0 11 -5 23.5t-24 45.5l-85 165l-89 -163q-6 -11 -12 -24t-9.5 -25t-3.5 -24q0 -16 13 -23.5t41 -7.5h3v-41h-205z" />
    <glyph glyph-name="Y" unicode="Y" horiz-adv-x="543" 
d="M137 0v41h17q20 0 36 5t25.5 20t9.5 44v193l-157 317q-9 19 -17 30.5t-18.5 17t-25.5 5.5h-11v41h240v-41h-25q-24 0 -32 -9.5t-8 -21.5t5 -27t10 -26l63 -132q15 -30 26 -57.5t18 -50.5q8 20 21 48.5t27 59.5l54 112q9 19 13.5 35.5t4.5 28.5q0 22 -14.5 31t-39.5 9h-21
v41h208v-41h-9q-13 0 -23.5 -7t-22 -24t-26.5 -47l-144 -292v-188q0 -31 9.5 -47t25.5 -21.5t35 -5.5h19v-41h-273z" />
    <glyph glyph-name="Z" unicode="Z" horiz-adv-x="516" 
d="M31 0v39l324 626h-186q-38 0 -52.5 -24.5t-17.5 -56.5l-4 -43h-47l4 173h413v-40l-325 -625h214q27 0 42.5 11.5t23 30t9.5 40.5l3 42h47l-3 -173h-445z" />
    <glyph glyph-name="bracketleft" unicode="[" horiz-adv-x="315" 
d="M85 -128v888h199v-41h-37q-18 0 -34.5 -5t-26 -20t-9.5 -47v-662q0 -31 9.5 -46.5t26 -20.5t34.5 -5h37v-41h-199z" />
    <glyph glyph-name="backslash" unicode="\" horiz-adv-x="246" 
d="M194 -121l-194 881h52l194 -881h-52z" />
    <glyph glyph-name="bracketright" unicode="]" horiz-adv-x="315" 
d="M32 -128v41h36q20 0 35.5 5t25 20.5t9.5 46.5v662q0 32 -9.5 47t-25 20t-35.5 5h-36v41h198v-888h-198z" />
    <glyph glyph-name="asciicircum" unicode="^" horiz-adv-x="465" 
d="M36 267l180 447h31l181 -447h-59l-138 356l-136 -356h-59z" />
    <glyph glyph-name="underscore" unicode="_" horiz-adv-x="391" 
d="M-4 -142v59h399v-59h-399z" />
    <glyph glyph-name="grave" unicode="`" horiz-adv-x="258" 
d="M181 606q-18 14 -38.5 33.5t-41 41.5t-37 42t-24.5 33v10h99q8 -22 22 -49t29.5 -53t27.5 -45v-13h-37z" />
    <glyph glyph-name="a" unicode="a" horiz-adv-x="487" 
d="M173 -10q-37 0 -66.5 17.5t-47 53t-17.5 89.5q0 80 48 117.5t146 41.5l70 3v61q0 37 -5 64.5t-21.5 43.5t-49.5 16q-32 0 -48 -14t-21.5 -38.5t-5.5 -56.5q-39 0 -58.5 15t-19.5 47q0 31 20.5 52.5t56 32.5t82.5 11q79 0 119 -39.5t40 -134.5v-259q0 -28 5.5 -43.5
t17 -22t31.5 -6.5h2v-41h-123l-14 87h-6q-18 -28 -35.5 -50t-40.5 -34.5t-59 -12.5zM199 45q34 0 57.5 18.5t37 52t13.5 75.5v82l-51 -3q-46 -2 -73 -17t-38 -42t-11 -67q0 -31 6.5 -53t21.5 -34t37 -12z" />
    <glyph glyph-name="b" unicode="b" horiz-adv-x="529" 
d="M309 -10q-49 0 -80 24.5t-50 63.5h-6l-17 -78h-141v41h7q19 0 34.5 5t25 20.5t9.5 46.5v538q0 30 -9.5 44.5t-25 19t-34.5 4.5h-7v41h165v-185q0 -17 -0.5 -42.5t-1 -50t-1.5 -38.5h3q18 47 49.5 74.5t83.5 27.5q82 0 126 -66.5t44 -210.5q0 -96 -20.5 -158t-59.5 -91.5
t-94 -29.5zM292 48q54 0 77 57.5t23 165.5q0 111 -23 164.5t-78 53.5q-63 0 -87 -55.5t-24 -163.5q0 -71 10 -120.5t34.5 -75.5t67.5 -26z" />
    <glyph glyph-name="c" unicode="c" horiz-adv-x="425" 
d="M244 -10q-58 0 -103 28t-70 89t-25 158q0 107 25.5 168.5t69.5 87t98 25.5q45 0 79 -11.5t54 -34t20 -56.5q0 -23 -8.5 -36.5t-27 -19t-46.5 -5.5q0 31 -6 57t-21 41.5t-43 15.5q-31 0 -54.5 -20.5t-36 -70.5t-12.5 -140q0 -71 12.5 -120t39.5 -73.5t69 -24.5
q30 0 52.5 10.5t39 29t26.5 38.5q8 -6 12 -15t4 -23q0 -21 -15 -44t-47.5 -38.5t-85.5 -15.5z" />
    <glyph glyph-name="d" unicode="d" horiz-adv-x="529" 
d="M218 -10q-56 0 -94.5 29t-58.5 90.5t-20 157.5q0 97 20 158.5t59 91t96 29.5q49 0 79.5 -24.5t48.5 -63.5h5q-2 24 -2.5 52t-0.5 54v86q0 30 -10 45t-25.5 19.5t-34.5 4.5h-7v41h165v-649q0 -29 9 -44.5t24.5 -20.5t34.5 -5h8v-41h-150l-10 91h-3q-20 -46 -51 -73.5
t-82 -27.5zM238 48q61 0 86.5 58t25.5 161q0 107 -24.5 164t-88.5 57q-35 0 -57.5 -25.5t-32.5 -75t-10 -121.5q0 -110 23.5 -164t77.5 -54z" />
    <glyph glyph-name="e" unicode="e" horiz-adv-x="462" 
d="M248 -10q-97 0 -149.5 72t-52.5 202q0 141 50.5 211.5t142.5 70.5q85 0 133.5 -61t48.5 -180v-42h-284q1 -111 33.5 -163.5t94.5 -52.5q44 0 74 23t45 54q7 -4 13 -12t6 -22q0 -20 -16.5 -43.5t-51 -40t-87.5 -16.5zM330 314q-1 81 -21 131t-69 50q-48 0 -73.5 -47
t-28.5 -134h192z" />
    <glyph glyph-name="f" unicode="f" horiz-adv-x="320" 
d="M22 0v41h12q18 0 34 5t25.5 20.5t9.5 46.5v375h-78v48h78v51q0 88 41 135.5t118 47.5q43 0 68.5 -9t37 -24.5t11.5 -35.5q0 -17 -8 -30t-24 -20t-40 -7q0 21 -4.5 39.5t-15.5 30t-32 11.5q-35 0 -49.5 -33.5t-14.5 -95.5v-60h120v-48h-120v-375q0 -31 9.5 -46.5
t25.5 -20.5t34 -5h33v-41h-271z" />
    <glyph glyph-name="g" unicode="g" horiz-adv-x="462" 
d="M198 -239q-91 0 -136 38.5t-45 107.5q0 39 15 66.5t39.5 44t52.5 22.5q-18 9 -34.5 27t-16.5 50q0 30 16.5 52.5t43.5 40.5q-37 19 -58.5 60.5t-21.5 90.5q0 86 41 135.5t125 49.5q32 0 57.5 -9.5t41.5 -24.5q9 9 21 22.5t28 23.5t36 10q25 0 37.5 -15.5t12.5 -36.5
t-10.5 -37t-35.5 -16q0 15 -8 27t-21 12q-11 0 -19.5 -4t-16.5 -11q15 -20 26 -48t11 -74q0 -75 -39.5 -124t-120.5 -49q-11 0 -26 1.5t-24 4.5q-12 -10 -23.5 -25.5t-11.5 -38.5t13.5 -33t43.5 -10h92q52 0 84 -19.5t46.5 -52.5t14.5 -73q0 -85 -56 -135t-174 -50z
M200 -191q59 0 92.5 16t46.5 44t13 62q0 46 -21.5 63.5t-61.5 17.5h-87q-23 0 -43.5 -8t-34 -29.5t-13.5 -61.5q0 -29 11 -52.5t34.5 -37.5t63.5 -14zM217 238q28 0 45.5 13.5t25 41.5t7.5 72q0 46 -8 75.5t-25.5 44t-45.5 14.5t-45.5 -15t-25.5 -44.5t-8 -75.5
q0 -64 19 -95t61 -31z" />
    <glyph glyph-name="h" unicode="h" horiz-adv-x="547" 
d="M15 0v41h7q20 0 35 5t24 20.5t9 46.5v538q0 30 -9.5 44.5t-25 19t-33.5 4.5h-7v41h165v-226q0 -17 -1 -34t-2 -30t-1 -16h4q11 26 29 47t43 33t59 12q71 0 108 -47t37 -150v-236q0 -31 8.5 -46.5t22.5 -20.5t33 -5h3v-41h-156v346q0 65 -19.5 101t-69.5 36q-34 0 -56 -20
t-32 -56.5t-10 -85.5v-213q0 -29 9 -43.5t24.5 -19t33.5 -4.5h3v-41h-235z" />
    <glyph glyph-name="i" unicode="i" horiz-adv-x="278" 
d="M19 0v41h11q20 0 35 5t24 19.5t9 44.5v315q0 30 -8 45t-22.5 20t-34.5 5h-8v41h162v-421q0 -31 8.5 -47t24.5 -21.5t35 -5.5h11v-41h-247zM139 640q-23 0 -38 13t-15 45q0 33 15 45.5t38 12.5q22 0 37.5 -12.5t15.5 -45.5q0 -32 -15.5 -45t-37.5 -13z" />
    <glyph glyph-name="j" unicode="j" horiz-adv-x="270" 
d="M-6 -240v46h6q31 0 53 16.5t33 57t11 110.5v437q0 30 -9 44.5t-24 19t-34 4.5h-6v41h161v-544q0 -89 -22.5 -140t-62 -71.5t-92.5 -20.5h-14zM137 640q-22 0 -37.5 13t-15.5 45q0 33 15.5 45.5t37.5 12.5t37.5 -12.5t15.5 -45.5q0 -32 -15.5 -45t-37.5 -13z" />
    <glyph glyph-name="k" unicode="k" horiz-adv-x="507" 
d="M15 0v41h8q18 0 33.5 5t25 20.5t9.5 46.5v538q0 30 -9.5 44.5t-25 19t-33.5 4.5h-8v41h165v-385q0 -13 -0.5 -34t-1.5 -42.5t-1.5 -36.5t-0.5 -16l107 139q19 24 28.5 40t13.5 27.5t4 19.5q0 13 -10.5 18t-31.5 5v41h190v-41q-15 0 -29.5 -6.5t-29 -18.5t-29.5 -29.5
t-32 -39.5l-57 -75l113 -201q23 -40 43.5 -62t48.5 -22h3v-41h-12q-39 0 -64.5 3.5t-43 13t-32.5 30.5t-33 54l-84 161l-59 -68v-86q0 -29 10 -43.5t25.5 -19t32.5 -4.5h4v-41h-237z" />
    <glyph glyph-name="l" unicode="l" horiz-adv-x="270" 
d="M12 0v41h11q20 0 35 5.5t23.5 21t8.5 47.5v536q0 30 -9.5 44.5t-25 19t-33.5 4.5h-10v41h168v-645q0 -31 8.5 -47t24 -21.5t35.5 -5.5h10v-41h-246z" />
    <glyph glyph-name="m" unicode="m" horiz-adv-x="812" 
d="M22 0v41h13q19 0 33.5 5t22 20.5t7.5 46.5v313q0 30 -8 45t-23 19.5t-33 4.5h-3v41h141l11 -82h5q23 53 55 72.5t75 19.5q28 0 52.5 -9t43 -30t28.5 -57h5q23 56 57 76t78 20q66 0 103 -47t37 -150v-236q0 -31 8.5 -46.5t22.5 -20.5t33 -5h3v-41h-156v346q0 65 -18.5 101
t-64.5 36q-35 0 -55.5 -20.5t-29.5 -54.5t-9 -74v-220q0 -32 8 -47.5t23 -20.5t33 -5h3v-41h-155v346q0 65 -18.5 101t-64.5 36q-36 0 -57 -22.5t-31 -59.5t-10 -80v-213q0 -29 9.5 -43.5t25 -19t33.5 -4.5h3v-41h-236z" />
    <glyph glyph-name="n" unicode="n" horiz-adv-x="554" 
d="M22 0v41h8q19 0 34.5 5t24.5 20.5t9 47.5v313q0 30 -8.5 44.5t-24 19t-33.5 4.5h-5v41h146l11 -82h4q23 53 55.5 72.5t77.5 19.5q67 0 104.5 -47t37.5 -150v-236q0 -31 7.5 -46.5t22 -20.5t33.5 -5h4v-41h-156v346q0 65 -19 101.5t-67 36.5q-38 0 -60 -23t-31.5 -60.5
t-9.5 -79.5v-213q0 -29 8.5 -43.5t23.5 -19t34 -4.5h5v-41h-236z" />
    <glyph glyph-name="o" unicode="o" horiz-adv-x="498" 
d="M248 -10q-94 0 -148 69t-54 210q0 140 52 208.5t153 68.5q93 0 147 -68.5t54 -208.5q0 -141 -51.5 -210t-152.5 -69zM250 41q41 0 65 26t35 76.5t11 125.5q0 112 -25.5 168.5t-86.5 56.5t-86.5 -56.5t-25.5 -168.5t26 -170t87 -58z" />
    <glyph glyph-name="p" unicode="p" horiz-adv-x="529" 
d="M15 -237v41h7q18 0 33.5 5t25 20.5t9.5 46.5v551q0 30 -9.5 44.5t-24 19t-33.5 4.5h-11v41h153l10 -86h3q19 43 50 69.5t81 26.5q84 0 129 -66.5t45 -210.5q0 -145 -45 -212.5t-131 -67.5q-47 0 -77.5 25t-49.5 66h-3q1 -24 2 -53.5t1 -60.5v-95q0 -29 9.5 -43.5t25 -19
t32.5 -4.5h13v-41h-245zM291 47q54 0 77 58.5t23 166.5q0 107 -23 162t-78 55q-43 0 -66.5 -25.5t-33.5 -74t-10 -118.5q0 -71 10 -121t34 -76.5t67 -26.5z" />
    <glyph glyph-name="q" unicode="q" horiz-adv-x="529" 
d="M256 -237v41h24q19 0 34.5 5t25.5 20.5t10 47.5v85q0 20 0.5 45t1 48.5t1.5 35.5h-3q-20 -46 -50.5 -73.5t-82.5 -27.5q-83 0 -127.5 66.5t-44.5 210.5q0 97 20 158.5t59.5 91t97.5 29.5q48 0 79.5 -24.5t50.5 -63.5h4l16 78h142v-41h-7q-19 0 -34.5 -5t-25 -20t-9.5 -47
v-550q0 -30 10 -44.5t25.5 -19.5t34.5 -5h4v-41h-256zM238 48q29 0 50.5 13t35 40.5t20 68.5t6.5 97q0 71 -10.5 120.5t-35 75t-67.5 25.5q-35 0 -57.5 -24t-32.5 -73.5t-10 -124.5q0 -110 23.5 -164t77.5 -54z" />
    <glyph glyph-name="r" unicode="r" horiz-adv-x="409" 
d="M26 0v41h3q19 0 34.5 5t25 20.5t9.5 47.5v313q0 30 -9 44.5t-24.5 19t-35.5 4.5h-2v41h140l14 -105h4q12 31 27 57.5t38 42t59 15.5q45 0 66 -20t21 -54q0 -31 -19.5 -49.5t-63.5 -18.5q0 28 -4 45t-13.5 25t-26.5 8q-21 0 -36.5 -20t-25.5 -51.5t-15 -68t-5 -69.5v-165
q0 -29 9.5 -43.5t24.5 -19t34 -4.5h21v-41h-250z" />
    <glyph glyph-name="s" unicode="s" horiz-adv-x="388" 
d="M184 -10q-46 0 -79.5 11.5t-52 35t-18.5 58.5q0 24 9 38t23 20t27 6q0 -52 22 -88t72 -36q46 0 68.5 24.5t22.5 66.5q0 25 -8.5 42t-30 33t-59.5 35q-47 24 -76.5 46.5t-43.5 51t-14 71.5q0 68 43.5 104t114.5 36q45 0 74 -13t44 -34t15 -46q0 -26 -15.5 -42t-45.5 -16
q0 53 -20.5 80t-59.5 27t-58 -22t-19 -57q0 -40 24 -61.5t80 -49.5q45 -21 73.5 -43.5t42.5 -52t14 -71.5q0 -72 -45 -113t-124 -41z" />
    <glyph glyph-name="t" unicode="t" horiz-adv-x="309" 
d="M203 -10q-62 0 -91.5 34.5t-29.5 120.5v342h-66v33q22 4 39.5 12.5t30.5 24.5q14 16 23 38.5t15 63.5h46v-123h111v-49h-111v-344q0 -53 15.5 -76.5t45.5 -23.5q18 0 31.5 2t27.5 6v-46q-13 -5 -36.5 -10t-50.5 -5z" />
    <glyph glyph-name="u" unicode="u" horiz-adv-x="547" 
d="M232 -10q-70 0 -106.5 46.5t-36.5 149.5v241q0 30 -8.5 44.5t-23.5 19t-35 4.5h-3v41h159v-347q0 -45 7.5 -75.5t26.5 -46t52 -15.5q36 0 58.5 20.5t33 57.5t10.5 85v207q0 32 -8.5 47.5t-23.5 20.5t-34 5h-3v41h158v-427q0 -29 9.5 -44t25 -19.5t33.5 -4.5h4v-41h-143
l-12 82h-4q-25 -54 -58.5 -73t-77.5 -19z" />
    <glyph glyph-name="v" unicode="v" horiz-adv-x="498" 
d="M70 442q-7 21 -15.5 32.5t-20 16t-29.5 4.5v41h217v-41h-11q-25 0 -36.5 -10t-11.5 -30q0 -11 2.5 -23.5t6.5 -25.5l56 -186q8 -25 15.5 -53t13.5 -53.5l10 -42.5q5 20 16 57.5t24 79.5l56 181q7 22 9.5 37.5t2.5 29.5q0 19 -12.5 29t-36.5 10h-8v41h178v-41h-11
q-16 0 -26.5 -6.5t-18 -23.5t-17.5 -48l-133 -417h-84z" />
    <glyph glyph-name="w" unicode="w" horiz-adv-x="735" 
d="M64 442q-4 21 -12.5 32.5t-20 16t-27.5 4.5h-3v41h213v-41h-7q-26 0 -39 -8.5t-13 -33.5q0 -8 2.5 -20t5.5 -23l38 -171q5 -24 11 -53.5t11 -56.5t7 -43h3q2 16 8 41t13 53t14 50l89 303h53l83 -296q5 -17 10.5 -37.5t10.5 -42t9 -40.5t6 -32h2q4 25 12 63.5t19 84.5
l42 162q3 13 5 28t2 23q0 26 -13 37.5t-39 11.5h-6v41h182v-41h-11q-17 0 -28 -5.5t-19.5 -22.5t-16.5 -50l-111 -417h-72l-113 424l-117 -424h-70z" />
    <glyph glyph-name="x" unicode="x" horiz-adv-x="502" 
d="M5 0v41h8q20 0 34.5 5.5t28 19.5t29.5 39l107 166l-107 171q-11 17 -22.5 29t-24 18t-26.5 6h-12v41h225v-41h-2q-28 0 -37.5 -8.5t-9.5 -20.5q0 -10 5 -20t14 -26l55 -94l44 81q10 18 16 32t6 27q0 18 -13 23.5t-32 5.5h-4v41h188v-41h-7q-16 0 -29.5 -4.5t-26.5 -18.5
t-30 -41l-88 -140l125 -197q13 -19 24.5 -31t22.5 -17t21 -5h11v-41h-229v41h5q26 0 38.5 8.5t12.5 24.5q0 11 -6.5 24.5t-26.5 44.5l-56 93l-58 -100q-9 -16 -16 -31t-7 -32q0 -16 12.5 -24t40.5 -8h2v-41h-205z" />
    <glyph glyph-name="y" unicode="y" horiz-adv-x="484" 
d="M31 -191q43 0 73.5 13.5t52.5 38t37.5 59.5t27.5 79l-156 443q-8 21 -15.5 32.5t-17.5 16t-27 4.5h-3v41h211v-41h-3q-29 0 -40.5 -10t-11.5 -28q0 -11 3.5 -25.5t9.5 -33.5l56 -166q10 -30 18 -57.5t14 -51t8 -40.5q6 28 14 58t18 65l55 197q5 14 7.5 27t2.5 26
q0 21 -13.5 29.5t-40.5 9.5h-3v41h176v-41h-2q-16 0 -27.5 -5t-20 -21t-18.5 -49l-130 -418q-22 -73 -42 -119.5t-45 -72.5t-63 -36.5t-96 -10.5h-9v46z" />
    <glyph glyph-name="z" unicode="z" horiz-adv-x="439" 
d="M33 0v40l252 447h-126q-36 0 -49 -20.5t-22 -59.5l-3 -11h-40l10 140h334v-41l-253 -446h149q33 0 46.5 22.5t20.5 62.5l5 27h38l-5 -161h-357z" />
    <glyph glyph-name="braceleft" unicode="{" horiz-adv-x="367" 
d="M267 -128q-62 0 -94.5 38.5t-32.5 105.5v173q0 42 -13 64.5t-36 32.5t-52 11v40q29 1 52 10.5t36 32.5t13 63v174q0 68 32.5 105.5t94.5 37.5h61v-42h-27q-37 0 -53 -26.5t-16 -79.5v-171q0 -49 -23 -82t-71 -41v-1q48 -9 71 -42t23 -83v-173q0 -51 16 -78t53 -27h27v-42
h-61z" />
    <glyph glyph-name="bar" unicode="|" horiz-adv-x="477" 
d="M211 -240v1000h54v-1000h-54z" />
    <glyph glyph-name="braceright" unicode="}" horiz-adv-x="367" 
d="M39 -128v42h28q37 0 52.5 27t15.5 78v173q0 50 23 83t72 42v1q-48 8 -71.5 41t-23.5 82v171q0 53 -15.5 79.5t-52.5 26.5h-28v42h62q62 0 94 -37.5t32 -105.5v-174q0 -40 13.5 -63t36.5 -32.5t51 -10.5v-40q-28 -1 -51 -11t-36.5 -32.5t-13.5 -64.5v-173
q0 -67 -32 -105.5t-94 -38.5h-62z" />
    <glyph glyph-name="asciitilde" unicode="~" horiz-adv-x="465" 
d="M37 270q2 31 8 61.5t18 56t31.5 41t49.5 15.5q21 0 37.5 -8t33.5 -22.5t37 -35.5q22 -23 37.5 -37.5t32.5 -14.5q16 0 26 13t16.5 39.5t9.5 65.5h56q-3 -30 -9 -60t-17.5 -56t-31 -42t-48.5 -16q-18 0 -33.5 5.5t-33 19.5t-39.5 39q-14 17 -26 29t-22.5 18.5t-22.5 6.5
q-25 0 -37.5 -29t-17.5 -89h-55z" />
    <glyph glyph-name="uni00A0" unicode="&#xa0;" horiz-adv-x="221" 
 />
    <glyph glyph-name="exclamdown" unicode="&#xa1;" horiz-adv-x="291" 
d="M170 328l29 -508h-107l29 508h49zM145 541q23 0 39 -14t16 -50t-16 -50t-39 -14q-22 0 -38.5 14t-16.5 50t16.5 50t38.5 14z" />
    <glyph glyph-name="cent" unicode="&#xa2;" horiz-adv-x="477" 
d="M244 88q-54 7 -94.5 36.5t-63 87t-22.5 149.5q0 99 23.5 158.5t64.5 88t92 33.5v73h43v-73q40 -3 71.5 -15.5t50 -33.5t18.5 -51q0 -15 -4.5 -26.5t-14 -19.5t-24.5 -12t-37 -4q0 41 -13.5 72.5t-46.5 38.5v-447q29 0 52 11.5t40 30t27 38.5q8 -6 12 -15.5t4 -23.5
q0 -23 -14.5 -44t-44 -36t-76.5 -18v-86h-43v88zM244 590q-27 -5 -47 -28.5t-31 -71.5t-11 -128q0 -60 9.5 -104.5t29.5 -72t50 -37.5v442z" />
    <glyph glyph-name="sterling" unicode="&#xa3;" horiz-adv-x="477" 
d="M346 -10q-28 0 -51 8t-45 16q-21 9 -40.5 15t-44.5 6q-27 0 -50.5 -8.5t-46.5 -21.5l-15 -8v48l19 14q19 13 37.5 35.5t31 54t12.5 70.5q0 30 -5.5 58.5t-14.5 55.5h-95v46h78q-10 34 -20.5 77t-10.5 85q0 86 47.5 134.5t129.5 48.5q55 0 89.5 -14.5t50.5 -40t16 -57.5
t-19.5 -47.5t-55.5 -15.5q0 32 -6.5 60.5t-24.5 47t-53 18.5q-46 0 -68 -34t-22 -96q0 -31 5.5 -62t13 -57.5t13.5 -46.5h145v-46h-132q7 -24 11.5 -48t4.5 -53q0 -26 -10 -52.5t-27 -50t-40 -41.5l1 -4q18 12 34 16.5t29 4.5q12 0 26 -3.5t28 -8t26 -9.5q18 -5 37 -11.5
t36 -6.5q16 0 31.5 7t29 19t23.5 26v-59q-10 -14 -25.5 -30t-35.5 -27.5t-47 -11.5z" />
    <glyph glyph-name="currency" unicode="&#xa4;" horiz-adv-x="477" 
d="M92 143l-37 41l54 66q-14 23 -21 50.5t-7 57.5q0 31 7.5 58t21.5 49l-55 67l37 41l54 -66q20 17 43 26t49 9q24 0 47 -9t43 -26l56 67l36 -42l-54 -66q14 -22 21.5 -49.5t7.5 -58.5q0 -30 -7.5 -57.5t-21.5 -50.5l54 -66l-36 -41l-55 67q-20 -16 -43 -25.5t-48 -9.5
t-48.5 9t-42.5 25zM238 229q30 0 54.5 17.5t38.5 47t14 64.5q0 37 -14 66.5t-38.5 46.5t-54.5 17t-54 -17t-38.5 -46.5t-14.5 -66.5q0 -35 14.5 -64.5t38.5 -47t54 -17.5z" />
    <glyph glyph-name="yen" unicode="&#xa5;" horiz-adv-x="477" 
d="M111 0v41h19q19 0 33.5 6t23 21.5t8.5 42.5v66h-119v46h119v72h-119v46h104l-115 279q-12 29 -23.5 41t-34.5 12h-3v41h211v-41h-5q-25 0 -37.5 -8t-12.5 -28q0 -12 5 -28.5t11 -33.5l41 -108q12 -32 23 -66t15 -56q4 10 9 24.5t11.5 30t11.5 29.5l49 122q9 23 16 46.5
t7 38.5q0 19 -13 28t-38 9h-3v41h167v-41h-6q-21 0 -32 -15.5t-30 -61.5l-106 -255h109v-46h-120v-72h120v-46h-120v-62q0 -29 8.5 -45.5t23.5 -22.5t34 -6h19v-41h-261z" />
    <glyph glyph-name="brokenbar" unicode="&#xa6;" horiz-adv-x="477" 
d="M211 360v400h54v-400h-54zM211 -240v400h54v-400h-54z" />
    <glyph glyph-name="section" unicode="&#xa7;" horiz-adv-x="465" 
d="M236 -114q-39 0 -68.5 8t-48.5 23t-28.5 36.5t-9.5 47.5q0 27 9 42t22.5 21t25.5 6q0 -34 10.5 -66t34 -52.5t60.5 -20.5q32 0 54 14t33 38.5t11 54.5q0 20 -5 38t-19 36t-42.5 39.5t-75.5 48.5q-49 30 -79 57t-43 56.5t-13 68.5q0 38 15 65.5t36 45.5q-14 23 -23 48
t-9 60q0 51 20.5 86.5t57 54t82.5 18.5q47 0 78 -14t46.5 -37t15.5 -50q0 -29 -16 -44t-45 -15q0 29 -8.5 54.5t-26.5 42t-48 16.5q-42 0 -66.5 -26.5t-24.5 -73.5q0 -35 13.5 -58.5t40 -41.5t66.5 -41q53 -29 86.5 -56t49.5 -57t16 -68q0 -39 -15 -71.5t-35 -56.5
q9 -13 15.5 -27.5t10 -32.5t3.5 -42q0 -49 -18.5 -88.5t-54.5 -63t-90 -23.5zM341 192q6 12 10.5 30.5t4.5 38.5q0 23 -8 43.5t-31.5 42.5t-68.5 48q-31 18 -57.5 35t-48.5 36q-7 -10 -13.5 -25.5t-6.5 -38.5q0 -27 11 -47.5t38.5 -41.5t75.5 -51q31 -19 55.5 -37.5
t38.5 -32.5z" />
    <glyph glyph-name="dieresis" unicode="&#xa8;" horiz-adv-x="493" 
d="M325 638q-19 0 -32.5 11.5t-13.5 41.5t13.5 42t32.5 12q18 0 31.5 -11.5t13.5 -42.5q0 -30 -13.5 -41.5t-31.5 -11.5zM167 638q-18 0 -31 11.5t-13 41.5t13 42t31 12t31.5 -11.5t13.5 -42.5q0 -30 -13.5 -41.5t-31.5 -11.5z" />
    <glyph glyph-name="copyright" unicode="&#xa9;" horiz-adv-x="722" 
d="M361 -10q-73 0 -131 28t-99 78t-62.5 117t-21.5 145q0 79 22 145.5t63 116.5t99 77.5t131 27.5q72 0 130 -27.5t99 -77t62.5 -116.5t21.5 -146q0 -80 -21.5 -147t-63 -116.5t-99.5 -77t-130 -27.5zM367 114q-57 0 -97.5 29t-61.5 84.5t-21 134.5q0 74 20.5 127.5t62 82
t103.5 28.5q46 0 75.5 -13.5t43.5 -35t14 -44.5t-13.5 -35t-32.5 -12q0 26 -8 49t-26.5 37.5t-52.5 14.5q-68 0 -97.5 -52t-29.5 -145q0 -68 14.5 -115t43.5 -71t69 -24q44 0 70 24.5t39 58.5q10 -4 15 -11t5 -19q0 -19 -15 -41.5t-45 -37t-75 -14.5zM363 37
q62 0 110.5 23.5t82.5 66.5t52 102t18 129q0 71 -18.5 129.5t-52.5 101.5t-83 66t-110 23q-82 0 -142 -41t-92.5 -113t-32.5 -166q0 -70 19 -129.5t54 -102.5t85 -66t110 -23z" />
    <glyph glyph-name="ordfeminine" unicode="&#xaa;" horiz-adv-x="332" 
d="M117 380q-41 0 -64.5 25.5t-23.5 71.5q0 51 33.5 75t103.5 28l42 2v32q0 31 -10 51.5t-38 20.5q-30 0 -38 -21.5t-8 -49.5q-30 0 -46 8.5t-16 29.5q0 22 14 36.5t39.5 22t58.5 7.5q56 0 84 -24.5t28 -84.5v-152q0 -22 8.5 -30.5t29.5 -8.5v-33h-83l-14 51h-4
q-10 -16 -23.5 -29t-31.5 -20.5t-41 -7.5zM143 422q20 0 35 10t22.5 29t7.5 45v48l-30 -1q-30 -1 -47 -10t-23.5 -25t-6.5 -40q0 -32 11.5 -44t30.5 -12z" />
    <glyph glyph-name="guillemotleft" unicode="&#xab;" horiz-adv-x="444" 
d="M335 81l-132 174v30l132 174h41l-89 -189l89 -189h-41zM199 81l-130 174v30l130 174h42l-89 -189l89 -189h-42z" />
    <glyph glyph-name="logicalnot" unicode="&#xac;" horiz-adv-x="465" 
d="M358 121v208h-308v57h366v-265h-58z" />
    <glyph glyph-name="uni00AD" unicode="&#xad;" horiz-adv-x="265" 
d="M21 236v73h223v-73h-223z" />
    <glyph glyph-name="registered" unicode="&#xae;" horiz-adv-x="722" 
d="M361 -10q-73 0 -131 28t-99 78t-62.5 117t-21.5 145q0 79 22 145.5t63 116.5t99 77.5t131 27.5q72 0 130 -27.5t99 -77t62.5 -116.5t21.5 -146q0 -80 -21.5 -147t-63 -116.5t-99.5 -77t-130 -27.5zM363 37q62 0 110.5 23.5t82.5 66.5t52 102t18 129q0 71 -18.5 129.5
t-52.5 101.5t-83 66t-110 23q-82 0 -142 -41t-92.5 -113t-32.5 -166q0 -70 19 -129.5t54 -102.5t85 -66t110 -23zM204 141v31h11q16 0 28.5 6t12.5 29v299q0 23 -12.5 29t-28.5 6h-11v32h148q73 0 110 -30t37 -88q0 -33 -11 -54.5t-29 -35t-38 -21.5l76 -146q9 -16 18 -21
t29 -5v-31h-84l-94 189h-51v-123q0 -23 12.5 -29t29.5 -6h12v-31h-165zM351 367q50 0 68.5 21t18.5 64q0 47 -20 65.5t-69 18.5h-34v-169h36z" />
    <glyph glyph-name="overscore" unicode="&#xaf;" horiz-adv-x="391" 
d="M-4 760v59h399v-59h-399z" />
    <glyph glyph-name="degree" unicode="&#xb0;" horiz-adv-x="341" 
d="M170 431q-60 0 -94 41.5t-34 106.5q0 44 15.5 78t44 53t68.5 19t68.5 -19t44.5 -53t16 -78t-16 -77t-44.5 -52t-68.5 -19zM171 475q39 0 60 29.5t21 75.5q0 48 -21 76.5t-60 28.5t-60.5 -28.5t-21.5 -76.5q0 -46 21 -75.5t61 -29.5z" />
    <glyph glyph-name="plusminus" unicode="&#xb1;" horiz-adv-x="465" 
d="M50 0v58h366v-58h-366zM202 143v186h-152v57h152v186h59v-186h155v-57h-155v-186h-59z" />
    <glyph glyph-name="uni00B2" unicode="&#xb2;" horiz-adv-x="339" 
d="M33 387v44l106 116q25 28 41.5 53t24.5 52t8 58q0 36 -13.5 57.5t-41.5 21.5q-21 0 -34 -11t-19 -31t-6 -48q-29 0 -44 9.5t-15 31.5q0 23 13.5 42.5t40.5 30.5t68 11t69 -13t42.5 -38t14.5 -61q0 -30 -13 -59.5t-33.5 -55.5t-43.5 -48l-103 -103h137q13 0 20.5 5.5
t11.5 15.5t5 21l4 20h26l-3 -121h-263z" />
    <glyph glyph-name="uni00B3" unicode="&#xb3;" horiz-adv-x="339" 
d="M152 380q-41 0 -68.5 10.5t-41 29t-13.5 42.5q0 23 12.5 35t32.5 12q0 -33 16.5 -61t57.5 -28q34 0 55.5 21t21.5 69q0 38 -22.5 59.5t-70.5 21.5h-29v38h31q36 0 57 24t21 64q0 36 -13.5 53.5t-42.5 17.5q-37 0 -49 -26.5t-12 -64.5q-27 0 -42 9t-15 33q0 22 13.5 41
t41 31t68.5 12q61 0 94 -26t33 -73q0 -44 -25.5 -70.5t-60.5 -37.5v-4q23 -4 46 -14.5t38.5 -31t15.5 -57.5q0 -33 -12 -57t-32.5 -40.5t-47.5 -24t-58 -7.5z" />
    <glyph glyph-name="acute" unicode="&#xb4;" horiz-adv-x="258" 
d="M40 619q14 24 29 49.5t28.5 50.5t21.5 47h99v-10q-8 -13 -24 -32.5t-36.5 -40.5t-42 -41.5t-39.5 -35.5h-36v13z" />
    <glyph glyph-name="uni00B5" unicode="&#xb5;" horiz-adv-x="532" 
d="M144 -240q-28 0 -49.5 25.5t-21.5 92.5q0 30 1.5 64.5t3 76t3 92.5t2.5 114v311h89v-347q0 -42 8 -73t26.5 -47t47.5 -16q23 0 41 11.5t31 33t19.5 51.5t6.5 66v321h89v-414q0 -43 15.5 -62t41.5 -19h5v-41h-48q-36 0 -62 23.5t-33 67.5h-4q-19 -43 -47.5 -72t-73.5 -29
q-36 0 -63.5 16.5t-44.5 48.5q1 -55 4 -95.5t11 -67.5t24 -42t41 -20q0 -29 -16 -49.5t-47 -20.5z" />
    <glyph glyph-name="paragraph" unicode="&#xb6;" horiz-adv-x="528" 
d="M144 -111v41h12q19 0 35 5t25 20.5t9 46.5v384h-60q-50 0 -78.5 27.5t-40.5 72t-12 96.5q0 54 13 94t42.5 62t77.5 22h326v-41h-11q-19 0 -34.5 -5t-25.5 -20t-10 -47v-645q0 -31 10 -46.5t25.5 -20.5t34.5 -5h11v-41h-135v821h-79v-821h-135z" />
    <glyph glyph-name="periodcentered" unicode="&#xb7;" horiz-adv-x="220" 
d="M110 292q-23 0 -39 14.5t-16 49.5q0 36 16 50t39 14q22 0 38.5 -14t16.5 -50q0 -35 -16.5 -49.5t-38.5 -14.5z" />
    <glyph glyph-name="cedilla" unicode="&#xb8;" horiz-adv-x="284" 
d="M115 -234q-13 0 -31.5 2.5t-34.5 7.5v45q16 -4 31 -6t26 -2q26 0 41 14t15 43q0 30 -18.5 43t-47.5 17l17 79h40l-9 -45q26 -3 44.5 -14.5t29 -30.5t10.5 -46q0 -53 -30.5 -80t-82.5 -27z" />
    <glyph glyph-name="uni00B9" unicode="&#xb9;" horiz-adv-x="339" 
d="M54 387v35h48q15 0 26 7t11 32v293q-14 -15 -25.5 -27t-22 -18.5t-22.5 -6.5q-14 0 -23.5 10.5t-9.5 29.5q16 2 31.5 8.5t34.5 20t45 35.5l19 13h46v-358q0 -25 11 -32t26 -7h41v-35h-236z" />
    <glyph glyph-name="ordmasculine" unicode="&#xba;" horiz-adv-x="344" 
d="M171 380q-65 0 -101 42.5t-36 127.5q0 86 35 127.5t105 41.5q63 0 100.5 -41.5t37.5 -127.5q0 -85 -36 -127.5t-105 -42.5zM173 416q36 0 51.5 34t15.5 100q0 65 -16 98t-53 33q-36 0 -51 -33t-15 -98t15 -99.5t53 -34.5z" />
    <glyph glyph-name="guillemotright" unicode="&#xbb;" horiz-adv-x="444" 
d="M214 81l90 189l-90 189h43l130 -174v-30l-130 -174h-43zM57 81l89 189l-89 189h42l130 -174v-30l-130 -174h-42z" />
    <glyph glyph-name="onequarter" unicode="&#xbc;" horiz-adv-x="717" 
d="M25 287v35h48q15 0 26 7t11 32v293q-14 -15 -25.5 -27t-22 -18.5t-22.5 -6.5q-14 0 -23.5 10.5t-9.5 29.5q16 2 31.5 8.5t34.5 20t45 35.5l19 13h46v-358q0 -25 11 -32t26 -7h41v-35h-236zM181 0l301 714h56l-301 -714h-56zM485 0v34h28q15 0 25.5 6t10.5 31v60h-159v28
l164 273h64v-260h75v-41h-75v-60q0 -25 11 -31t26 -6h18v-34h-188zM439 172h110v124q0 16 1 36.5t2 39.5q-4 -10 -9.5 -21.5t-8.5 -16.5z" />
    <glyph glyph-name="onehalf" unicode="&#xbd;" horiz-adv-x="717" 
d="M26 287v35h48q15 0 26 7t11 32v293q-14 -15 -25.5 -27t-22 -18.5t-22.5 -6.5q-14 0 -23.5 10.5t-9.5 29.5q16 2 31.5 8.5t34.5 20t45 35.5l19 13h46v-358q0 -25 11 -32t26 -7h41v-35h-236zM165 0l301 714h56l-301 -714h-56zM422 0v44l106 116q25 28 41.5 53t24.5 52t8 58
q0 36 -13.5 57.5t-41.5 21.5q-21 0 -34 -11t-19 -31t-6 -48q-29 0 -44 9.5t-15 31.5q0 23 13.5 42.5t40.5 30.5t68 11t69 -13t42.5 -38t14.5 -61q0 -30 -13 -59.5t-33.5 -55.5t-43.5 -48l-103 -103h137q13 0 20.5 5.5t11.5 15.5t5 21l4 20h26l-3 -121h-263z" />
    <glyph glyph-name="threequarters" unicode="&#xbe;" horiz-adv-x="717" 
d="M152 280q-41 0 -68.5 10.5t-41 29t-13.5 42.5q0 23 12.5 35t32.5 12q0 -33 16.5 -61t57.5 -28q34 0 55.5 21t21.5 69q0 38 -22.5 59.5t-70.5 21.5h-29v38h31q36 0 57 24t21 64q0 36 -13.5 53.5t-42.5 17.5q-37 0 -49 -26.5t-12 -64.5q-27 0 -42 9t-15 33q0 22 13.5 41
t41 31t68.5 12q61 0 94 -26t33 -73q0 -44 -25.5 -70.5t-60.5 -37.5v-4q23 -4 46 -14.5t38.5 -31t15.5 -57.5q0 -33 -12 -57t-32.5 -40.5t-47.5 -24t-58 -7.5zM198 0l301 714h56l-301 -714h-56zM485 0v34h28q15 0 25.5 6t10.5 31v60h-159v28l164 273h64v-260h75v-41h-75v-60
q0 -25 11 -31t26 -6h18v-34h-188zM439 172h110v124q0 16 1 36.5t2 39.5q-4 -10 -9.5 -21.5t-8.5 -16.5z" />
    <glyph glyph-name="questiondown" unicode="&#xbf;" horiz-adv-x="431" 
d="M267 185q-49 -24 -78 -55.5t-41 -68.5t-12 -80q0 -53 23 -88.5t69 -35.5q35 0 54.5 16t28 44.5t8.5 64.5q35 0 56.5 -14.5t21.5 -45.5q0 -24 -11 -44.5t-32 -36t-52 -24t-72 -8.5q-56 0 -98 20.5t-65 61t-23 96.5t18 96.5t54 72t89 56.5l8 114h46zM237 540q23 0 38.5 -14
t15.5 -50t-15.5 -50t-38.5 -14t-39.5 14t-16.5 50t16.5 50t39.5 14z" />
    <glyph glyph-name="Agrave" unicode="&#xc0;" horiz-adv-x="609" 
d="M1 0v41h15q17 0 27.5 6t19.5 23t19 49l188 595h75l193 -625q6 -19 13.5 -29t19.5 -14.5t29 -4.5h9v-41h-243v41h20q26 0 38.5 11t12.5 31q0 7 -1.5 15t-3.5 18t-5 19l-31 105h-221l-29 -98q-3 -8 -5 -18t-4 -19t-2 -18q0 -21 13 -33.5t42 -12.5h22v-41h-211zM192 289h188
l-53 186q-8 30 -16 56.5t-13.5 49.5t-10.5 42q-4 -19 -9.5 -41.5t-12 -46t-15.5 -50.5zM309 771q-18 14 -38.5 33.5t-41 41.5t-37 42t-24.5 33v10h99q8 -22 22 -49t29.5 -53t27.5 -45v-13h-37z" />
    <glyph glyph-name="Aacute" unicode="&#xc1;" horiz-adv-x="609" 
d="M1 0v41h15q17 0 27.5 6t19.5 23t19 49l188 595h75l193 -625q6 -19 13.5 -29t19.5 -14.5t29 -4.5h9v-41h-243v41h20q26 0 38.5 11t12.5 31q0 7 -1.5 15t-3.5 18t-5 19l-31 105h-221l-29 -98q-3 -8 -5 -18t-4 -19t-2 -18q0 -21 13 -33.5t42 -12.5h22v-41h-211zM192 289h188
l-53 186q-8 30 -16 56.5t-13.5 49.5t-10.5 42q-4 -19 -9.5 -41.5t-12 -46t-15.5 -50.5zM263 784q14 24 29 49.5t28.5 50.5t21.5 47h99v-10q-8 -13 -24 -32.5t-36.5 -40.5t-42 -41.5t-39.5 -35.5h-36v13z" />
    <glyph glyph-name="Acircumflex" unicode="&#xc2;" horiz-adv-x="609" 
d="M1 0v41h15q17 0 27.5 6t19.5 23t19 49l188 595h75l193 -625q6 -19 13.5 -29t19.5 -14.5t29 -4.5h9v-41h-243v41h20q26 0 38.5 11t12.5 31q0 7 -1.5 15t-3.5 18t-5 19l-31 105h-221l-29 -98q-3 -8 -5 -18t-4 -19t-2 -18q0 -21 13 -33.5t42 -12.5h22v-41h-211zM192 289h188
l-53 186q-8 30 -16 56.5t-13.5 49.5t-10.5 42q-4 -19 -9.5 -41.5t-12 -46t-15.5 -50.5zM175 784q14 19 30.5 45t32.5 53t24 49h87q10 -22 25 -49t32 -53t30 -45v-13h-38q-15 15 -32 31.5t-32.5 34t-28.5 35.5q-13 -18 -28.5 -35.5t-32 -34l-31.5 -31.5h-38v13z" />
    <glyph glyph-name="Atilde" unicode="&#xc3;" horiz-adv-x="609" 
d="M1 0v41h15q17 0 27.5 6t19.5 23t19 49l188 595h75l193 -625q6 -19 13.5 -29t19.5 -14.5t29 -4.5h9v-41h-243v41h20q26 0 38.5 11t12.5 31q0 7 -1.5 15t-3.5 18t-5 19l-31 105h-221l-29 -98q-3 -8 -5 -18t-4 -19t-2 -18q0 -21 13 -33.5t42 -12.5h22v-41h-211zM192 289h188
l-53 186q-8 30 -16 56.5t-13.5 49.5t-10.5 42q-4 -19 -9.5 -41.5t-12 -46t-15.5 -50.5zM367 771q-23 0 -41.5 9.5t-34 22t-30 22t-29.5 9.5q-22 0 -30.5 -16.5t-10.5 -36.5h-42q2 30 12.5 56.5t31 43t50.5 16.5q22 0 40.5 -9.5t34 -22t30 -22t28.5 -9.5q23 0 31.5 16.5
t10.5 36.5h41q-2 -29 -12 -56t-30 -43.5t-50 -16.5z" />
    <glyph glyph-name="Adieresis" unicode="&#xc4;" horiz-adv-x="609" 
d="M1 0v41h15q17 0 27.5 6t19.5 23t19 49l188 595h75l193 -625q6 -19 13.5 -29t19.5 -14.5t29 -4.5h9v-41h-243v41h20q26 0 38.5 11t12.5 31q0 7 -1.5 15t-3.5 18t-5 19l-31 105h-221l-29 -98q-3 -8 -5 -18t-4 -19t-2 -18q0 -21 13 -33.5t42 -12.5h22v-41h-211zM192 289h188
l-53 186q-8 30 -16 56.5t-13.5 49.5t-10.5 42q-4 -19 -9.5 -41.5t-12 -46t-15.5 -50.5zM383 803q-19 0 -32.5 11.5t-13.5 41.5t13.5 42t32.5 12q18 0 31.5 -11.5t13.5 -42.5q0 -30 -13.5 -41.5t-31.5 -11.5zM225 803q-18 0 -31 11.5t-13 41.5t13 42t31 12t31.5 -11.5
t13.5 -42.5q0 -30 -13.5 -41.5t-31.5 -11.5z" />
    <glyph glyph-name="Aring" unicode="&#xc5;" horiz-adv-x="609" 
d="M1 0v41h15q17 0 27.5 6t19.5 23t19 49l177 557q-25 9 -40 34t-15 65q0 53 29.5 81t72.5 28t73 -28t30 -81q0 -38 -14 -63t-39 -36l180 -583q10 -31 23.5 -41.5t37.5 -10.5h12v-41h-243v41h23q23 0 35.5 11.5t12.5 31.5q0 8 -3 22.5t-7 28.5l-31 105h-221l-29 -98
q-3 -8 -5 -18t-4 -19t-2 -18q0 -21 14.5 -33.5t39.5 -12.5h23v-41h-211zM192 289h188l-50 181q-9 30 -16.5 57.5t-14 51.5t-12.5 44q-3 -20 -9.5 -43t-14 -48t-15.5 -52zM306 711q24 0 41 14.5t17 49.5t-17 49t-41 14q-23 0 -40 -14t-17 -49q0 -34 16 -49t41 -15z" />
    <glyph glyph-name="AE" unicode="&#xc6;" horiz-adv-x="817" 
d="M-1 0v41h14q15 0 27.5 8.5t24.5 25.5t23 44l244 549l-64 5v41h482l4 -174h-47l-5 42q-1 22 -9 41t-24 30t-43 12h-139v-267h206v-48h-206v-301h160q28 0 45 12t26 30.5t12 40.5l6 42h47l-6 -174h-465v41h13q19 0 34.5 5t24.5 19.5t9 44.5v130h-196l-46 -107
q-6 -16 -9.5 -30t-3.5 -23q0 -20 13 -29.5t38 -9.5h19v-41h-209zM220 289h173v376h-10z" />
    <glyph glyph-name="Ccedilla" unicode="&#xc7;" horiz-adv-x="533" 
d="M312 -10q-86 0 -145 46t-89 128.5t-30 193.5q0 110 31 192t92.5 128t152.5 46q58 0 98 -15.5t60 -41t20 -56.5t-21.5 -49t-56.5 -18q0 32 -10 61t-33 48t-64 19q-59 0 -96 -37.5t-53.5 -108t-16.5 -168.5q0 -95 18.5 -164.5t57 -107t100.5 -37.5q43 0 72.5 12.5t49.5 33
t36 44.5q6 -4 10.5 -14t4.5 -22q0 -18 -11 -37.5t-33.5 -36.5t-58 -28t-85.5 -11zM287 -240q-9 0 -21 1.5t-23.5 4t-22.5 5.5v50q15 -4 31 -6t27 -2q24 0 38 16t14 41q0 29 -18.5 44.5t-45.5 17.5l19 77h40l-8 -43q28 -2 46.5 -14t28 -31.5t9.5 -46.5q0 -53 -30 -83.5
t-84 -30.5z" />
    <glyph glyph-name="Egrave" unicode="&#xc8;" horiz-adv-x="536" 
d="M31 0v41h16q19 0 33.5 5t23 19.5t8.5 42.5v493q0 32 -8.5 47t-23 20t-33.5 5h-16v41h438l4 -174h-47l-5 42q-1 22 -9 41t-24 30.5t-42 11.5h-139v-267h204v-48h-204v-301h160q28 0 44.5 11.5t25.5 30.5t12 41l5 42h48l-6 -174h-465zM282 771q-18 14 -38.5 33.5t-41 41.5
t-37 42t-24.5 33v10h99q8 -22 22 -49t29.5 -53t27.5 -45v-13h-37z" />
    <glyph glyph-name="Eacute" unicode="&#xc9;" horiz-adv-x="536" 
d="M31 0v41h16q19 0 33.5 5t23 19.5t8.5 42.5v493q0 32 -8.5 47t-23 20t-33.5 5h-16v41h438l4 -174h-47l-5 42q-1 22 -9 41t-24 30.5t-42 11.5h-139v-267h204v-48h-204v-301h160q28 0 44.5 11.5t25.5 30.5t12 41l5 42h48l-6 -174h-465zM222 784q14 24 29 49.5t28.5 50.5
t21.5 47h99v-10q-8 -13 -24 -32.5t-36.5 -40.5t-42 -41.5t-39.5 -35.5h-36v13z" />
    <glyph glyph-name="Ecircumflex" unicode="&#xca;" horiz-adv-x="536" 
d="M31 0v41h16q19 0 33.5 5t23 19.5t8.5 42.5v493q0 32 -8.5 47t-23 20t-33.5 5h-16v41h438l4 -174h-47l-5 42q-1 22 -9 41t-24 30.5t-42 11.5h-139v-267h204v-48h-204v-301h160q28 0 44.5 11.5t25.5 30.5t12 41l5 42h48l-6 -174h-465zM142 784q14 19 30.5 45t32.5 53t24 49
h87q10 -22 25 -49t32 -53t30 -45v-13h-38q-15 15 -32 31.5t-32.5 34t-28.5 35.5q-13 -18 -28.5 -35.5t-32 -34l-31.5 -31.5h-38v13z" />
    <glyph glyph-name="Edieresis" unicode="&#xcb;" horiz-adv-x="536" 
d="M31 0v41h16q19 0 33.5 5t23 19.5t8.5 42.5v493q0 32 -8.5 47t-23 20t-33.5 5h-16v41h438l4 -174h-47l-5 42q-1 22 -9 41t-24 30.5t-42 11.5h-139v-267h204v-48h-204v-301h160q28 0 44.5 11.5t25.5 30.5t12 41l5 42h48l-6 -174h-465zM349 803q-19 0 -32.5 11.5t-13.5 41.5
t13.5 42t32.5 12q18 0 31.5 -11.5t13.5 -42.5q0 -30 -13.5 -41.5t-31.5 -11.5zM191 803q-18 0 -31 11.5t-13 41.5t13 42t31 12t31.5 -11.5t13.5 -42.5q0 -30 -13.5 -41.5t-31.5 -11.5z" />
    <glyph glyph-name="Igrave" unicode="&#xcc;" horiz-adv-x="318" 
d="M31 0v41h17q18 0 32.5 5t23 20.5t8.5 44.5v490q0 31 -8.5 46t-23 20.5t-32.5 5.5h-17v41h257v-41h-18q-18 0 -32.5 -5.5t-22.5 -20.5t-8 -46v-489q0 -30 8 -45t23 -20.5t32 -5.5h18v-41h-257zM170 771q-18 14 -38.5 33.5t-41 41.5t-37 42t-24.5 33v10h99q8 -22 22 -49
t29.5 -53t27.5 -45v-13h-37z" />
    <glyph glyph-name="Iacute" unicode="&#xcd;" horiz-adv-x="318" 
d="M31 0v41h17q18 0 32.5 5t23 20.5t8.5 44.5v490q0 31 -8.5 46t-23 20.5t-32.5 5.5h-17v41h257v-41h-18q-18 0 -32.5 -5.5t-22.5 -20.5t-8 -46v-489q0 -30 8 -45t23 -20.5t32 -5.5h18v-41h-257zM108 784q14 24 29 49.5t28.5 50.5t21.5 47h99v-10q-8 -13 -24 -32.5
t-36.5 -40.5t-42 -41.5t-39.5 -35.5h-36v13z" />
    <glyph glyph-name="Icircumflex" unicode="&#xce;" horiz-adv-x="318" 
d="M31 0v41h17q18 0 32.5 5t23 20.5t8.5 44.5v490q0 31 -8.5 46t-23 20.5t-32.5 5.5h-17v41h257v-41h-18q-18 0 -32.5 -5.5t-22.5 -20.5t-8 -46v-489q0 -30 8 -45t23 -20.5t32 -5.5h18v-41h-257zM28 784q14 19 30.5 45t32.5 53t24 49h87q10 -22 25 -49t32 -53t30 -45v-13
h-38q-15 15 -32 31.5t-32.5 34t-28.5 35.5q-13 -18 -28.5 -35.5t-32 -34l-31.5 -31.5h-38v13z" />
    <glyph glyph-name="Idieresis" unicode="&#xcf;" horiz-adv-x="318" 
d="M31 0v41h17q18 0 32.5 5t23 20.5t8.5 44.5v490q0 31 -8.5 46t-23 20.5t-32.5 5.5h-17v41h257v-41h-18q-18 0 -32.5 -5.5t-22.5 -20.5t-8 -46v-489q0 -30 8 -45t23 -20.5t32 -5.5h18v-41h-257zM236 803q-19 0 -32.5 11.5t-13.5 41.5t13.5 42t32.5 12q18 0 31.5 -11.5
t13.5 -42.5q0 -30 -13.5 -41.5t-31.5 -11.5zM78 803q-18 0 -31 11.5t-13 41.5t13 42t31 12t31.5 -11.5t13.5 -42.5q0 -30 -13.5 -41.5t-31.5 -11.5z" />
    <glyph glyph-name="Eth" unicode="&#xd0;" horiz-adv-x="627" 
d="M31 0v41h17q19 0 33.5 5.5t23 21t8.5 45.5v237h-80v47h80v208q0 29 -9 43.5t-24 19.5t-34 5h-15v41h265q89 0 152.5 -41.5t96.5 -121.5t33 -194q0 -109 -31.5 -189t-94 -124t-156.5 -44h-265zM277 50q66 0 110 35.5t66 104t22 167.5t-22 168t-66 104.5t-110 35.5h-70
v-268h137v-47h-137v-300h70z" />
    <glyph glyph-name="Ntilde" unicode="&#xd1;" horiz-adv-x="654" 
d="M31 0v41h12q21 0 36.5 5t24 20.5t8.5 46.5v492q0 30 -8.5 44.5t-23.5 19t-35 4.5h-14v41h165l302 -561v452q0 29 -9 43.5t-24 19.5t-34 5h-14v41h216v-41h-15q-19 0 -34 -5.5t-23.5 -20.5t-8.5 -46v-601h-66l-320 589v-476q0 -31 8 -46.5t23.5 -20.5t34.5 -5h15v-41h-216
zM400 771q-23 0 -41.5 9.5t-34 22t-30 22t-29.5 9.5q-22 0 -30.5 -16.5t-10.5 -36.5h-42q2 30 12.5 56.5t31 43t50.5 16.5q22 0 40.5 -9.5t34 -22t30 -22t28.5 -9.5q23 0 31.5 16.5t10.5 36.5h41q-2 -29 -12 -56t-30 -43.5t-50 -16.5z" />
    <glyph glyph-name="Ograve" unicode="&#xd2;" horiz-adv-x="640" 
d="M320 -10q-92 0 -152.5 46t-90 129t-29.5 194t29.5 193t90.5 127.5t153 45.5q87 0 147.5 -45.5t92 -128t31.5 -193.5t-31.5 -193.5t-92 -128.5t-148.5 -46zM320 43q62 0 99.5 37.5t53.5 108t16 169.5q0 100 -16.5 170t-53 107t-98.5 37q-91 0 -130.5 -82.5t-39.5 -231.5
q0 -99 17 -169.5t54.5 -108t97.5 -37.5zM332 771q-18 14 -38.5 33.5t-41 41.5t-37 42t-24.5 33v10h99q8 -22 22 -49t29.5 -53t27.5 -45v-13h-37z" />
    <glyph glyph-name="Oacute" unicode="&#xd3;" horiz-adv-x="640" 
d="M320 -10q-92 0 -152.5 46t-90 129t-29.5 194t29.5 193t90.5 127.5t153 45.5q87 0 147.5 -45.5t92 -128t31.5 -193.5t-31.5 -193.5t-92 -128.5t-148.5 -46zM320 43q62 0 99.5 37.5t53.5 108t16 169.5q0 100 -16.5 170t-53 107t-98.5 37q-91 0 -130.5 -82.5t-39.5 -231.5
q0 -99 17 -169.5t54.5 -108t97.5 -37.5zM269 784q14 24 29 49.5t28.5 50.5t21.5 47h99v-10q-8 -13 -24 -32.5t-36.5 -40.5t-42 -41.5t-39.5 -35.5h-36v13z" />
    <glyph glyph-name="Ocircumflex" unicode="&#xd4;" horiz-adv-x="640" 
d="M320 -10q-92 0 -152.5 46t-90 129t-29.5 194t29.5 193t90.5 127.5t153 45.5q87 0 147.5 -45.5t92 -128t31.5 -193.5t-31.5 -193.5t-92 -128.5t-148.5 -46zM320 43q62 0 99.5 37.5t53.5 108t16 169.5q0 100 -16.5 170t-53 107t-98.5 37q-91 0 -130.5 -82.5t-39.5 -231.5
q0 -99 17 -169.5t54.5 -108t97.5 -37.5zM190 784q14 19 30.5 45t32.5 53t24 49h87q10 -22 25 -49t32 -53t30 -45v-13h-38q-15 15 -32 31.5t-32.5 34t-28.5 35.5q-13 -18 -28.5 -35.5t-32 -34l-31.5 -31.5h-38v13z" />
    <glyph glyph-name="Otilde" unicode="&#xd5;" horiz-adv-x="640" 
d="M320 -10q-92 0 -152.5 46t-90 129t-29.5 194t29.5 193t90.5 127.5t153 45.5q87 0 147.5 -45.5t92 -128t31.5 -193.5t-31.5 -193.5t-92 -128.5t-148.5 -46zM320 43q62 0 99.5 37.5t53.5 108t16 169.5q0 100 -16.5 170t-53 107t-98.5 37q-91 0 -130.5 -82.5t-39.5 -231.5
q0 -99 17 -169.5t54.5 -108t97.5 -37.5zM377 771q-23 0 -41.5 9.5t-34 22t-30 22t-29.5 9.5q-22 0 -30.5 -16.5t-10.5 -36.5h-42q2 30 12.5 56.5t31 43t50.5 16.5q22 0 40.5 -9.5t34 -22t30 -22t28.5 -9.5q23 0 31.5 16.5t10.5 36.5h41q-2 -29 -12 -56t-30 -43.5t-50 -16.5z
" />
    <glyph glyph-name="Odieresis" unicode="&#xd6;" horiz-adv-x="640" 
d="M320 -10q-92 0 -152.5 46t-90 129t-29.5 194t29.5 193t90.5 127.5t153 45.5q87 0 147.5 -45.5t92 -128t31.5 -193.5t-31.5 -193.5t-92 -128.5t-148.5 -46zM320 43q62 0 99.5 37.5t53.5 108t16 169.5q0 100 -16.5 170t-53 107t-98.5 37q-91 0 -130.5 -82.5t-39.5 -231.5
q0 -99 17 -169.5t54.5 -108t97.5 -37.5zM397 803q-19 0 -32.5 11.5t-13.5 41.5t13.5 42t32.5 12q18 0 31.5 -11.5t13.5 -42.5q0 -30 -13.5 -41.5t-31.5 -11.5zM239 803q-18 0 -31 11.5t-13 41.5t13 42t31 12t31.5 -11.5t13.5 -42.5q0 -30 -13.5 -41.5t-31.5 -11.5z" />
    <glyph glyph-name="multiply" unicode="&#xd7;" horiz-adv-x="465" 
d="M95 151l-43 36l145 171l-145 170l43 37l139 -163l140 163l42 -37l-144 -170l144 -170l-42 -37l-140 164z" />
    <glyph glyph-name="Oslash" unicode="&#xd8;" horiz-adv-x="640" 
d="M151 51q-52 47 -77.5 126t-25.5 182q0 111 29.5 193t90.5 127.5t153 45.5q38 0 70.5 -9t59.5 -26l30 65h52l-43 -93q50 -47 76 -125t26 -179q0 -111 -31.5 -193.5t-92 -128.5t-148.5 -46q-38 0 -70.5 8.5t-60.5 24.5l-29 -63h-52zM320 43q62 0 99.5 37.5t53.5 108
t16 169.5q0 72 -9 128.5t-28 96.5l-233 -498q38 -42 101 -42zM423 630q-19 21 -44.5 31.5t-57.5 10.5q-91 0 -130.5 -82.5t-39.5 -231.5q0 -71 9 -128t29 -97z" />
    <glyph glyph-name="Ugrave" unicode="&#xd9;" horiz-adv-x="616" 
d="M310 -10q-66 0 -115 22.5t-75 72.5t-26 131v389q0 30 -9.5 44.5t-25 19t-34.5 4.5h-12v41h256v-41h-11q-20 0 -35.5 -5t-24.5 -20t-9 -47v-391q0 -88 38.5 -124.5t100.5 -36.5q48 0 78.5 21t46 56.5t15.5 80.5v398q0 30 -9.5 44.5t-24.5 19t-35 4.5h-11v41h215v-41h-11
q-20 0 -36 -5t-25 -20t-9 -47v-396q0 -66 -23.5 -114t-71 -74.5t-117.5 -26.5zM329 771q-18 14 -38.5 33.5t-41 41.5t-37 42t-24.5 33v10h99q8 -22 22 -49t29.5 -53t27.5 -45v-13h-37z" />
    <glyph glyph-name="Uacute" unicode="&#xda;" horiz-adv-x="616" 
d="M310 -10q-66 0 -115 22.5t-75 72.5t-26 131v389q0 30 -9.5 44.5t-25 19t-34.5 4.5h-12v41h256v-41h-11q-20 0 -35.5 -5t-24.5 -20t-9 -47v-391q0 -88 38.5 -124.5t100.5 -36.5q48 0 78.5 21t46 56.5t15.5 80.5v398q0 30 -9.5 44.5t-24.5 19t-35 4.5h-11v41h215v-41h-11
q-20 0 -36 -5t-25 -20t-9 -47v-396q0 -66 -23.5 -114t-71 -74.5t-117.5 -26.5zM267 784q14 24 29 49.5t28.5 50.5t21.5 47h99v-10q-8 -13 -24 -32.5t-36.5 -40.5t-42 -41.5t-39.5 -35.5h-36v13z" />
    <glyph glyph-name="Ucircumflex" unicode="&#xdb;" horiz-adv-x="616" 
d="M310 -10q-66 0 -115 22.5t-75 72.5t-26 131v389q0 30 -9.5 44.5t-25 19t-34.5 4.5h-12v41h256v-41h-11q-20 0 -35.5 -5t-24.5 -20t-9 -47v-391q0 -88 38.5 -124.5t100.5 -36.5q48 0 78.5 21t46 56.5t15.5 80.5v398q0 30 -9.5 44.5t-24.5 19t-35 4.5h-11v41h215v-41h-11
q-20 0 -36 -5t-25 -20t-9 -47v-396q0 -66 -23.5 -114t-71 -74.5t-117.5 -26.5zM195 784q14 19 30.5 45t32.5 53t24 49h87q10 -22 25 -49t32 -53t30 -45v-13h-38q-15 15 -32 31.5t-32.5 34t-28.5 35.5q-13 -18 -28.5 -35.5t-32 -34l-31.5 -31.5h-38v13z" />
    <glyph glyph-name="Udieresis" unicode="&#xdc;" horiz-adv-x="616" 
d="M310 -10q-66 0 -115 22.5t-75 72.5t-26 131v389q0 30 -9.5 44.5t-25 19t-34.5 4.5h-12v41h256v-41h-11q-20 0 -35.5 -5t-24.5 -20t-9 -47v-391q0 -88 38.5 -124.5t100.5 -36.5q48 0 78.5 21t46 56.5t15.5 80.5v398q0 30 -9.5 44.5t-24.5 19t-35 4.5h-11v41h215v-41h-11
q-20 0 -36 -5t-25 -20t-9 -47v-396q0 -66 -23.5 -114t-71 -74.5t-117.5 -26.5zM406 803q-19 0 -32.5 11.5t-13.5 41.5t13.5 42t32.5 12q18 0 31.5 -11.5t13.5 -42.5q0 -30 -13.5 -41.5t-31.5 -11.5zM248 803q-18 0 -31 11.5t-13 41.5t13 42t31 12t31.5 -11.5t13.5 -42.5
q0 -30 -13.5 -41.5t-31.5 -11.5z" />
    <glyph glyph-name="Yacute" unicode="&#xdd;" horiz-adv-x="543" 
d="M137 0v41h17q20 0 36 5t25.5 20t9.5 44v193l-157 317q-9 19 -17 30.5t-18.5 17t-25.5 5.5h-11v41h240v-41h-25q-24 0 -32 -9.5t-8 -21.5t5 -27t10 -26l63 -132q15 -30 26 -57.5t18 -50.5q8 20 21 48.5t27 59.5l54 112q9 19 13.5 35.5t4.5 28.5q0 22 -14.5 31t-39.5 9h-21
v41h208v-41h-9q-13 0 -23.5 -7t-22 -24t-26.5 -47l-144 -292v-188q0 -31 9.5 -47t25.5 -21.5t35 -5.5h19v-41h-273zM236 784q14 24 29 49.5t28.5 50.5t21.5 47h99v-10q-8 -13 -24 -32.5t-36.5 -40.5t-42 -41.5t-39.5 -35.5h-36v13z" />
    <glyph glyph-name="Thorn" unicode="&#xde;" horiz-adv-x="521" 
d="M31 0v41h17q18 0 32.5 5t23 20.5t8.5 44.5v490q0 31 -8.5 46t-23 20.5t-32.5 5.5h-17v41h265v-41h-22q-18 0 -34 -5.5t-24.5 -21t-8.5 -46.5v-31h67q110 0 162.5 -50t52.5 -148q0 -59 -22.5 -108t-73.5 -78.5t-137 -29.5h-49v-41q0 -30 9 -46t24 -21.5t34 -5.5h22v-41
h-265zM250 201q49 0 79.5 15t44.5 51.5t14 99.5q0 84 -29 119.5t-99 35.5h-53v-321h43z" />
    <glyph glyph-name="germandbls" unicode="&#xdf;" horiz-adv-x="562" 
d="M376 -10q-41 0 -71.5 13.5t-48 38.5t-17.5 59q0 26 8 39.5t20 18.5t23 5q2 -36 10.5 -66t27.5 -47t49 -17q31 0 49 24t18 70q0 24 -7 43t-25 37t-51 37q-34 20 -58.5 40t-37 47.5t-12.5 67.5q0 42 16 72t47.5 47t77.5 18q0 60 -10.5 100.5t-33.5 61t-62 20.5
q-34 0 -56 -17.5t-33.5 -48.5t-11.5 -72v-581h-170v41h19q19 0 33 5t21.5 20.5t7.5 46.5v375h-73v48h73v32q0 73 25.5 115.5t69 60.5t96.5 18q73 0 114.5 -31.5t59.5 -91t18 -145.5h-55q-34 0 -55 -10t-30.5 -28.5t-9.5 -44.5q0 -20 8 -36.5t26.5 -31.5t50.5 -35
q39 -22 62.5 -47.5t34.5 -54.5t11 -62q0 -75 -39.5 -114.5t-108.5 -39.5z" />
    <glyph glyph-name="agrave" unicode="&#xe0;" horiz-adv-x="487" 
d="M173 -10q-37 0 -66.5 17.5t-47 53t-17.5 89.5q0 80 48 117.5t146 41.5l70 3v61q0 37 -5 64.5t-21.5 43.5t-49.5 16q-32 0 -48 -14t-21.5 -38.5t-5.5 -56.5q-39 0 -58.5 15t-19.5 47q0 31 20.5 52.5t56 32.5t82.5 11q79 0 119 -39.5t40 -134.5v-259q0 -28 5.5 -43.5
t17 -22t31.5 -6.5h2v-41h-123l-14 87h-6q-18 -28 -35.5 -50t-40.5 -34.5t-59 -12.5zM199 45q34 0 57.5 18.5t37 52t13.5 75.5v82l-51 -3q-46 -2 -73 -17t-38 -42t-11 -67q0 -31 6.5 -53t21.5 -34t37 -12zM250 606q-18 14 -38.5 33.5t-41 41.5t-37 42t-24.5 33v10h99
q8 -22 22 -49t29.5 -53t27.5 -45v-13h-37z" />
    <glyph glyph-name="aacute" unicode="&#xe1;" horiz-adv-x="487" 
d="M173 -10q-37 0 -66.5 17.5t-47 53t-17.5 89.5q0 80 48 117.5t146 41.5l70 3v61q0 37 -5 64.5t-21.5 43.5t-49.5 16q-32 0 -48 -14t-21.5 -38.5t-5.5 -56.5q-39 0 -58.5 15t-19.5 47q0 31 20.5 52.5t56 32.5t82.5 11q79 0 119 -39.5t40 -134.5v-259q0 -28 5.5 -43.5
t17 -22t31.5 -6.5h2v-41h-123l-14 87h-6q-18 -28 -35.5 -50t-40.5 -34.5t-59 -12.5zM199 45q34 0 57.5 18.5t37 52t13.5 75.5v82l-51 -3q-46 -2 -73 -17t-38 -42t-11 -67q0 -31 6.5 -53t21.5 -34t37 -12zM193 619q14 24 29 49.5t28.5 50.5t21.5 47h99v-10q-8 -13 -24 -32.5
t-36.5 -40.5t-42 -41.5t-39.5 -35.5h-36v13z" />
    <glyph glyph-name="acircumflex" unicode="&#xe2;" horiz-adv-x="487" 
d="M173 -10q-37 0 -66.5 17.5t-47 53t-17.5 89.5q0 80 48 117.5t146 41.5l70 3v61q0 37 -5 64.5t-21.5 43.5t-49.5 16q-32 0 -48 -14t-21.5 -38.5t-5.5 -56.5q-39 0 -58.5 15t-19.5 47q0 31 20.5 52.5t56 32.5t82.5 11q79 0 119 -39.5t40 -134.5v-259q0 -28 5.5 -43.5
t17 -22t31.5 -6.5h2v-41h-123l-14 87h-6q-18 -28 -35.5 -50t-40.5 -34.5t-59 -12.5zM199 45q34 0 57.5 18.5t37 52t13.5 75.5v82l-51 -3q-46 -2 -73 -17t-38 -42t-11 -67q0 -31 6.5 -53t21.5 -34t37 -12zM108 619q14 19 30.5 45t32.5 53t24 49h87q10 -22 25 -49t32 -53
t30 -45v-13h-38q-15 15 -32 31.5t-32.5 34t-28.5 35.5q-13 -18 -28.5 -35.5t-32 -34l-31.5 -31.5h-38v13z" />
    <glyph glyph-name="atilde" unicode="&#xe3;" horiz-adv-x="487" 
d="M173 -10q-37 0 -66.5 17.5t-47 53t-17.5 89.5q0 80 48 117.5t146 41.5l70 3v61q0 37 -5 64.5t-21.5 43.5t-49.5 16q-32 0 -48 -14t-21.5 -38.5t-5.5 -56.5q-39 0 -58.5 15t-19.5 47q0 31 20.5 52.5t56 32.5t82.5 11q79 0 119 -39.5t40 -134.5v-259q0 -28 5.5 -43.5
t17 -22t31.5 -6.5h2v-41h-123l-14 87h-6q-18 -28 -35.5 -50t-40.5 -34.5t-59 -12.5zM199 45q34 0 57.5 18.5t37 52t13.5 75.5v82l-51 -3q-46 -2 -73 -17t-38 -42t-11 -67q0 -31 6.5 -53t21.5 -34t37 -12zM303 606q-23 0 -41.5 9.5t-34 22t-30 22t-29.5 9.5
q-22 0 -30.5 -16.5t-10.5 -36.5h-42q2 30 12.5 56.5t31 43t50.5 16.5q22 0 40.5 -9.5t34 -22t30 -22t28.5 -9.5q23 0 31.5 16.5t10.5 36.5h41q-2 -29 -12 -56t-30 -43.5t-50 -16.5z" />
    <glyph glyph-name="adieresis" unicode="&#xe4;" horiz-adv-x="487" 
d="M173 -10q-37 0 -66.5 17.5t-47 53t-17.5 89.5q0 80 48 117.5t146 41.5l70 3v61q0 37 -5 64.5t-21.5 43.5t-49.5 16q-32 0 -48 -14t-21.5 -38.5t-5.5 -56.5q-39 0 -58.5 15t-19.5 47q0 31 20.5 52.5t56 32.5t82.5 11q79 0 119 -39.5t40 -134.5v-259q0 -28 5.5 -43.5
t17 -22t31.5 -6.5h2v-41h-123l-14 87h-6q-18 -28 -35.5 -50t-40.5 -34.5t-59 -12.5zM199 45q34 0 57.5 18.5t37 52t13.5 75.5v82l-51 -3q-46 -2 -73 -17t-38 -42t-11 -67q0 -31 6.5 -53t21.5 -34t37 -12zM314 638q-19 0 -32.5 11.5t-13.5 41.5t13.5 42t32.5 12
q18 0 31.5 -11.5t13.5 -42.5q0 -30 -13.5 -41.5t-31.5 -11.5zM156 638q-18 0 -31 11.5t-13 41.5t13 42t31 12t31.5 -11.5t13.5 -42.5q0 -30 -13.5 -41.5t-31.5 -11.5z" />
    <glyph glyph-name="aring" unicode="&#xe5;" horiz-adv-x="487" 
d="M173 -10q-37 0 -66.5 17.5t-47 53t-17.5 89.5q0 80 48 117.5t146 41.5l70 3v61q0 37 -5 64.5t-21.5 43.5t-49.5 16q-32 0 -48 -14t-21.5 -38.5t-5.5 -56.5q-39 0 -58.5 15t-19.5 47q0 31 20.5 52.5t56 32.5t82.5 11q79 0 119 -39.5t40 -134.5v-259q0 -28 5.5 -43.5
t17 -22t31.5 -6.5h2v-41h-123l-14 87h-6q-18 -28 -35.5 -50t-40.5 -34.5t-59 -12.5zM199 45q34 0 57.5 18.5t37 52t13.5 75.5v82l-51 -3q-46 -2 -73 -17t-38 -42t-11 -67q0 -31 6.5 -53t21.5 -34t37 -12zM242 596q-42 0 -72 28t-30 81t30 81t72 28q43 0 73 -28t30 -81
t-30 -81t-73 -28zM242 641q24 0 41.5 14.5t17.5 49.5t-17.5 49.5t-40.5 14.5q-24 0 -41 -14.5t-17 -49.5t17 -49.5t40 -14.5z" />
    <glyph glyph-name="ae" unicode="&#xe6;" horiz-adv-x="722" 
d="M177 -10q-38 0 -69 17t-48.5 53t-17.5 90q0 80 48 117.5t146 41.5l70 3v61q0 37 -5 64.5t-21.5 43.5t-49.5 16q-31 0 -48 -14t-22 -38.5t-5 -56.5q-40 0 -59 15t-19 47q0 34 21.5 55t56.5 31t78 10q32 0 57.5 -7.5t44.5 -23t32 -40.5q23 34 57 52.5t79 18.5
q55 0 94.5 -27.5t61 -81t21.5 -130.5v-44h-284q1 -74 15.5 -121.5t43.5 -71t71 -23.5q40 0 70.5 21.5t47.5 55.5q7 -4 13 -12.5t6 -21.5q0 -20 -17 -43.5t-50.5 -40t-86.5 -16.5q-62 0 -106 31.5t-66 90.5q-11 -29 -32 -57.5t-53 -46.5t-75 -18zM200 45q32 0 56 18t37.5 51
t13.5 78v81l-51 -3q-46 -2 -73 -17t-38 -42t-11 -67q0 -32 7.5 -54t22.5 -33.5t36 -11.5zM589 314q0 81 -20 131t-70 50q-47 0 -72.5 -45.5t-28.5 -135.5h191z" />
    <glyph glyph-name="ccedilla" unicode="&#xe7;" horiz-adv-x="425" 
d="M244 -10q-58 0 -103 28t-70 89t-25 158q0 107 25.5 168.5t69.5 87t98 25.5q45 0 79 -11.5t54 -34t20 -56.5q0 -23 -8.5 -36.5t-27 -19t-46.5 -5.5q0 31 -6 57t-21 41.5t-43 15.5q-31 0 -54.5 -20.5t-36 -70.5t-12.5 -140q0 -71 12.5 -120t39.5 -73.5t69 -24.5
q30 0 52.5 10.5t39 29t26.5 38.5q8 -6 12 -15t4 -23q0 -21 -15 -44t-47.5 -38.5t-85.5 -15.5zM216 -234q-13 0 -31.5 2.5t-34.5 7.5v45q16 -4 31 -6t26 -2q26 0 41 14t15 43q0 30 -18.5 43t-47.5 17l17 79h40l-9 -45q26 -3 44.5 -14.5t29 -30.5t10.5 -46q0 -53 -30.5 -80
t-82.5 -27z" />
    <glyph glyph-name="egrave" unicode="&#xe8;" horiz-adv-x="462" 
d="M248 -10q-97 0 -149.5 72t-52.5 202q0 141 50.5 211.5t142.5 70.5q85 0 133.5 -61t48.5 -180v-42h-284q1 -111 33.5 -163.5t94.5 -52.5q44 0 74 23t45 54q7 -4 13 -12t6 -22q0 -20 -16.5 -43.5t-51 -40t-87.5 -16.5zM330 314q-1 81 -21 131t-69 50q-48 0 -73.5 -47
t-28.5 -134h192zM258 606q-18 14 -38.5 33.5t-41 41.5t-37 42t-24.5 33v10h99q8 -22 22 -49t29.5 -53t27.5 -45v-13h-37z" />
    <glyph glyph-name="eacute" unicode="&#xe9;" horiz-adv-x="462" 
d="M248 -10q-97 0 -149.5 72t-52.5 202q0 141 50.5 211.5t142.5 70.5q85 0 133.5 -61t48.5 -180v-42h-284q1 -111 33.5 -163.5t94.5 -52.5q44 0 74 23t45 54q7 -4 13 -12t6 -22q0 -20 -16.5 -43.5t-51 -40t-87.5 -16.5zM330 314q-1 81 -21 131t-69 50q-48 0 -73.5 -47
t-28.5 -134h192zM194 619q14 24 29 49.5t28.5 50.5t21.5 47h99v-10q-8 -13 -24 -32.5t-36.5 -40.5t-42 -41.5t-39.5 -35.5h-36v13z" />
    <glyph glyph-name="ecircumflex" unicode="&#xea;" horiz-adv-x="462" 
d="M248 -10q-97 0 -149.5 72t-52.5 202q0 141 50.5 211.5t142.5 70.5q85 0 133.5 -61t48.5 -180v-42h-284q1 -111 33.5 -163.5t94.5 -52.5q44 0 74 23t45 54q7 -4 13 -12t6 -22q0 -20 -16.5 -43.5t-51 -40t-87.5 -16.5zM330 314q-1 81 -21 131t-69 50q-48 0 -73.5 -47
t-28.5 -134h192zM106 619q14 19 30.5 45t32.5 53t24 49h87q10 -22 25 -49t32 -53t30 -45v-13h-38q-15 15 -32 31.5t-32.5 34t-28.5 35.5q-13 -18 -28.5 -35.5t-32 -34l-31.5 -31.5h-38v13z" />
    <glyph glyph-name="edieresis" unicode="&#xeb;" horiz-adv-x="462" 
d="M248 -10q-97 0 -149.5 72t-52.5 202q0 141 50.5 211.5t142.5 70.5q85 0 133.5 -61t48.5 -180v-42h-284q1 -111 33.5 -163.5t94.5 -52.5q44 0 74 23t45 54q7 -4 13 -12t6 -22q0 -20 -16.5 -43.5t-51 -40t-87.5 -16.5zM330 314q-1 81 -21 131t-69 50q-48 0 -73.5 -47
t-28.5 -134h192zM311 638q-19 0 -32.5 11.5t-13.5 41.5t13.5 42t32.5 12q18 0 31.5 -11.5t13.5 -42.5q0 -30 -13.5 -41.5t-31.5 -11.5zM153 638q-18 0 -31 11.5t-13 41.5t13 42t31 12t31.5 -11.5t13.5 -42.5q0 -30 -13.5 -41.5t-31.5 -11.5z" />
    <glyph glyph-name="igrave" unicode="&#xec;" horiz-adv-x="278" 
d="M19 0v41h11q20 0 35 5t24 20t9 44v315q0 30 -8 45t-22.5 20t-34.5 5h-8v41h162v-421q0 -31 8.5 -47t24.5 -21.5t35 -5.5h11v-41h-247zM153 606q-18 14 -38.5 33.5t-41 41.5t-37 42t-24.5 33v10h99q8 -22 22 -49t29.5 -53t27.5 -45v-13h-37z" />
    <glyph glyph-name="iacute" unicode="&#xed;" horiz-adv-x="278" 
d="M19 0v41h11q20 0 35 5t24 20t9 44v315q0 30 -8 45t-22.5 20t-34.5 5h-8v41h162v-421q0 -31 8.5 -47t24.5 -21.5t35 -5.5h11v-41h-247zM94 619q14 24 29 49.5t28.5 50.5t21.5 47h99v-10q-8 -13 -24 -32.5t-36.5 -40.5t-42 -41.5t-39.5 -35.5h-36v13z" />
    <glyph glyph-name="icircumflex" unicode="&#xee;" horiz-adv-x="278" 
d="M19 0v41h11q20 0 35 5t24 20t9 44v315q0 30 -8 45t-22.5 20t-34.5 5h-8v41h162v-421q0 -31 8.5 -47t24.5 -21.5t35 -5.5h11v-41h-247zM5 619q14 19 30.5 45t32.5 53t24 49h87q10 -22 25 -49t32 -53t30 -45v-13h-38q-15 15 -32 31.5t-32.5 34t-28.5 35.5
q-13 -18 -28.5 -35.5t-32 -34l-31.5 -31.5h-38v13z" />
    <glyph glyph-name="idieresis" unicode="&#xef;" horiz-adv-x="278" 
d="M19 0v41h11q20 0 35 5t24 20t9 44v315q0 30 -8 45t-22.5 20t-34.5 5h-8v41h162v-421q0 -31 8.5 -47t24.5 -21.5t35 -5.5h11v-41h-247zM211 638q-19 0 -32.5 11.5t-13.5 41.5t13.5 42t32.5 12q18 0 31.5 -11.5t13.5 -42.5q0 -30 -13.5 -41.5t-31.5 -11.5zM53 638
q-18 0 -31 11.5t-13 41.5t13 42t31 12t31.5 -11.5t13.5 -42.5q0 -30 -13.5 -41.5t-31.5 -11.5z" />
    <glyph glyph-name="eth" unicode="&#xf0;" horiz-adv-x="498" 
d="M248 -10q-65 0 -110 30.5t-68.5 88t-23.5 139.5q0 130 50.5 193.5t145.5 63.5q20 0 38.5 -4.5t35 -13t29.5 -20.5q-12 44 -33.5 83t-53.5 70l-106 -71v55l70 48q-20 17 -45 31.5t-49 24.5v53q39 -12 76 -30t73 -45l111 76v-56l-72 -51q61 -58 98.5 -152.5t37.5 -217.5
q0 -100 -23 -165.5t-68 -97.5t-113 -32zM250 41q59 0 85 52.5t26 155.5q0 68 -11 113.5t-35.5 68t-65.5 22.5t-66 -23t-35.5 -68t-10.5 -113q0 -103 26 -155.5t87 -52.5z" />
    <glyph glyph-name="ntilde" unicode="&#xf1;" horiz-adv-x="554" 
d="M22 0v41h8q19 0 34.5 5t24.5 20.5t9 47.5v313q0 30 -8.5 44.5t-24 19t-33.5 4.5h-5v41h146l11 -82h4q23 53 55.5 72.5t77.5 19.5q67 0 104.5 -47t37.5 -150v-236q0 -31 7.5 -46.5t22 -20.5t33.5 -5h4v-41h-156v346q0 65 -19 101.5t-67 36.5q-38 0 -60 -23t-31.5 -60.5
t-9.5 -79.5v-213q0 -29 8.5 -43.5t23.5 -19t34 -4.5h5v-41h-236zM340 606q-23 0 -41.5 9.5t-34 22t-30 22t-29.5 9.5q-22 0 -30.5 -16.5t-10.5 -36.5h-42q2 30 12.5 56.5t31 43t50.5 16.5q22 0 40.5 -9.5t34 -22t30 -22t28.5 -9.5q23 0 31.5 16.5t10.5 36.5h41
q-2 -29 -12 -56t-30 -43.5t-50 -16.5z" />
    <glyph glyph-name="ograve" unicode="&#xf2;" horiz-adv-x="498" 
d="M248 -10q-94 0 -148 69t-54 210q0 140 52 208.5t153 68.5q93 0 147 -68.5t54 -208.5q0 -141 -51.5 -210t-152.5 -69zM250 41q41 0 65 26t35 76.5t11 125.5q0 112 -25.5 168.5t-86.5 56.5t-86.5 -56.5t-25.5 -168.5t26 -170t87 -58zM261 606q-18 14 -38.5 33.5t-41 41.5
t-37 42t-24.5 33v10h99q8 -22 22 -49t29.5 -53t27.5 -45v-13h-37z" />
    <glyph glyph-name="oacute" unicode="&#xf3;" horiz-adv-x="498" 
d="M248 -10q-94 0 -148 69t-54 210q0 140 52 208.5t153 68.5q93 0 147 -68.5t54 -208.5q0 -141 -51.5 -210t-152.5 -69zM250 41q41 0 65 26t35 76.5t11 125.5q0 112 -25.5 168.5t-86.5 56.5t-86.5 -56.5t-25.5 -168.5t26 -170t87 -58zM210 619q14 24 29 49.5t28.5 50.5
t21.5 47h99v-10q-8 -13 -24 -32.5t-36.5 -40.5t-42 -41.5t-39.5 -35.5h-36v13z" />
    <glyph glyph-name="ocircumflex" unicode="&#xf4;" horiz-adv-x="498" 
d="M248 -10q-94 0 -148 69t-54 210q0 140 52 208.5t153 68.5q93 0 147 -68.5t54 -208.5q0 -141 -51.5 -210t-152.5 -69zM250 41q41 0 65 26t35 76.5t11 125.5q0 112 -25.5 168.5t-86.5 56.5t-86.5 -56.5t-25.5 -168.5t26 -170t87 -58zM116 619q14 19 30.5 45t32.5 53t24 49
h87q10 -22 25 -49t32 -53t30 -45v-13h-38q-15 15 -32 31.5t-32.5 34t-28.5 35.5q-13 -18 -28.5 -35.5t-32 -34l-31.5 -31.5h-38v13z" />
    <glyph glyph-name="otilde" unicode="&#xf5;" horiz-adv-x="498" 
d="M248 -10q-94 0 -148 69t-54 210q0 140 52 208.5t153 68.5q93 0 147 -68.5t54 -208.5q0 -141 -51.5 -210t-152.5 -69zM250 41q41 0 65 26t35 76.5t11 125.5q0 112 -25.5 168.5t-86.5 56.5t-86.5 -56.5t-25.5 -168.5t26 -170t87 -58zM309 606q-23 0 -41.5 9.5t-34 22
t-30 22t-29.5 9.5q-22 0 -30.5 -16.5t-10.5 -36.5h-42q2 30 12.5 56.5t31 43t50.5 16.5q22 0 40.5 -9.5t34 -22t30 -22t28.5 -9.5q23 0 31.5 16.5t10.5 36.5h41q-2 -29 -12 -56t-30 -43.5t-50 -16.5z" />
    <glyph glyph-name="odieresis" unicode="&#xf6;" horiz-adv-x="498" 
d="M248 -10q-94 0 -148 69t-54 210q0 140 52 208.5t153 68.5q93 0 147 -68.5t54 -208.5q0 -141 -51.5 -210t-152.5 -69zM250 41q41 0 65 26t35 76.5t11 125.5q0 112 -25.5 168.5t-86.5 56.5t-86.5 -56.5t-25.5 -168.5t26 -170t87 -58zM325 638q-19 0 -32.5 11.5t-13.5 41.5
t13.5 42t32.5 12q18 0 31.5 -11.5t13.5 -42.5q0 -30 -13.5 -41.5t-31.5 -11.5zM167 638q-18 0 -31 11.5t-13 41.5t13 42t31 12t31.5 -11.5t13.5 -42.5q0 -30 -13.5 -41.5t-31.5 -11.5z" />
    <glyph glyph-name="divide" unicode="&#xf7;" horiz-adv-x="465" 
d="M50 329v57h366v-57h-366zM233 114q-20 0 -33 11.5t-13 42.5q0 32 13 43t33 11q19 0 32 -11t13 -43q0 -31 -13 -42.5t-32 -11.5zM233 493q-20 0 -33 11.5t-13 42.5q0 32 13 43t33 11q19 0 32 -11t13 -43q0 -31 -13 -42.5t-32 -11.5z" />
    <glyph glyph-name="oslash" unicode="&#xf8;" horiz-adv-x="498" 
d="M109 49q-30 35 -46.5 89.5t-16.5 130.5q0 140 51.5 208.5t153.5 68.5q61 0 105 -32l32 62h51l-47 -93q28 -34 44 -87.5t16 -126.5q0 -141 -52 -210t-152 -69q-30 0 -55.5 7.5t-46.5 21.5l-30 -59h-52zM250 41q41 0 65 25.5t35 76.5t11 125q0 45 -4 80t-11 62l-170 -337
q13 -16 31 -24t43 -8zM324 458q-14 18 -32 27t-43 9q-61 0 -86.5 -56.5t-25.5 -168.5q0 -47 4.5 -84t12.5 -66z" />
    <glyph glyph-name="ugrave" unicode="&#xf9;" horiz-adv-x="547" 
d="M232 -10q-70 0 -106.5 46.5t-36.5 149.5v241q0 30 -8.5 44.5t-23.5 19t-35 4.5h-3v41h159v-347q0 -45 7.5 -75.5t26.5 -46t52 -15.5q36 0 58.5 20.5t33 57.5t10.5 85v207q0 32 -8.5 47.5t-23.5 20.5t-34 5h-3v41h158v-427q0 -29 9.5 -44t25 -19.5t33.5 -4.5h4v-41h-143
l-12 82h-4q-25 -54 -58.5 -73t-77.5 -19zM267 606q-18 14 -38.5 33.5t-41 41.5t-37 42t-24.5 33v10h99q8 -22 22 -49t29.5 -53t27.5 -45v-13h-37z" />
    <glyph glyph-name="uacute" unicode="&#xfa;" horiz-adv-x="547" 
d="M232 -10q-70 0 -106.5 46.5t-36.5 149.5v241q0 30 -8.5 44.5t-23.5 19t-35 4.5h-3v41h159v-347q0 -45 7.5 -75.5t26.5 -46t52 -15.5q36 0 58.5 20.5t33 57.5t10.5 85v207q0 32 -8.5 47.5t-23.5 20.5t-34 5h-3v41h158v-427q0 -29 9.5 -44t25 -19.5t33.5 -4.5h4v-41h-143
l-12 82h-4q-25 -54 -58.5 -73t-77.5 -19zM221 619q14 24 29 49.5t28.5 50.5t21.5 47h99v-10q-8 -13 -24 -32.5t-36.5 -40.5t-42 -41.5t-39.5 -35.5h-36v13z" />
    <glyph glyph-name="ucircumflex" unicode="&#xfb;" horiz-adv-x="547" 
d="M232 -10q-70 0 -106.5 46.5t-36.5 149.5v241q0 30 -8.5 44.5t-23.5 19t-35 4.5h-3v41h159v-347q0 -45 7.5 -75.5t26.5 -46t52 -15.5q36 0 58.5 20.5t33 57.5t10.5 85v207q0 32 -8.5 47.5t-23.5 20.5t-34 5h-3v41h158v-427q0 -29 9.5 -44t25 -19.5t33.5 -4.5h4v-41h-143
l-12 82h-4q-25 -54 -58.5 -73t-77.5 -19zM139 619q14 19 30.5 45t32.5 53t24 49h87q10 -22 25 -49t32 -53t30 -45v-13h-38q-15 15 -32 31.5t-32.5 34t-28.5 35.5q-13 -18 -28.5 -35.5t-32 -34l-31.5 -31.5h-38v13z" />
    <glyph glyph-name="udieresis" unicode="&#xfc;" horiz-adv-x="547" 
d="M232 -10q-70 0 -106.5 46.5t-36.5 149.5v241q0 30 -8.5 44.5t-23.5 19t-35 4.5h-3v41h159v-347q0 -45 7.5 -75.5t26.5 -46t52 -15.5q36 0 58.5 20.5t33 57.5t10.5 85v207q0 32 -8.5 47.5t-23.5 20.5t-34 5h-3v41h158v-427q0 -29 9.5 -44t25 -19.5t33.5 -4.5h4v-41h-143
l-12 82h-4q-25 -54 -58.5 -73t-77.5 -19zM349 638q-19 0 -32.5 11.5t-13.5 41.5t13.5 42t32.5 12q18 0 31.5 -11.5t13.5 -42.5q0 -30 -13.5 -41.5t-31.5 -11.5zM191 638q-18 0 -31 11.5t-13 41.5t13 42t31 12t31.5 -11.5t13.5 -42.5q0 -30 -13.5 -41.5t-31.5 -11.5z" />
    <glyph glyph-name="yacute" unicode="&#xfd;" horiz-adv-x="484" 
d="M31 -191q43 0 73.5 13.5t52.5 38t37.5 59.5t27.5 79l-156 443q-8 21 -15.5 32.5t-17.5 16t-27 4.5h-3v41h211v-41h-3q-29 0 -40.5 -10t-11.5 -28q0 -11 3.5 -25.5t9.5 -33.5l56 -166q10 -30 18 -57.5t14 -51t8 -40.5q6 28 14 58t18 65l55 197q5 14 7.5 27t2.5 26
q0 21 -13.5 29.5t-40.5 9.5h-3v41h176v-41h-2q-16 0 -27.5 -5t-20 -21t-18.5 -49l-130 -418q-22 -73 -42 -119.5t-45 -72.5t-63 -36.5t-96 -10.5h-9v46zM203 619q14 24 29 49.5t28.5 50.5t21.5 47h99v-10q-8 -13 -24 -32.5t-36.5 -40.5t-42 -41.5t-39.5 -35.5h-36v13z" />
    <glyph glyph-name="thorn" unicode="&#xfe;" horiz-adv-x="529" 
d="M14 -240v41h8q20 0 35.5 5t24 21t8.5 47v776q0 31 -9 45.5t-23.5 19t-32.5 4.5h-7v41h162v-188q0 -22 -1 -51.5t-2 -52.5t-2 -26h2q19 48 50.5 76t81.5 28q84 0 129 -66.5t45 -210.5q0 -145 -45 -212.5t-129 -67.5q-50 0 -80.5 25.5t-48.5 67.5h-4q0 -2 0.5 -14t1.5 -29
t1.5 -36t0.5 -37v-97q0 -30 8.5 -44.5t24 -19t35.5 -4.5h10v-41h-244zM291 47q54 0 77.5 58.5t23.5 166.5q0 107 -23.5 162t-78.5 55q-42 0 -66 -25.5t-34 -74t-10 -118.5q0 -71 10 -121t34 -76.5t67 -26.5z" />
    <glyph glyph-name="ydieresis" unicode="&#xff;" horiz-adv-x="484" 
d="M31 -191q43 0 73.5 13.5t52.5 38t37.5 59.5t27.5 79l-156 443q-8 21 -15.5 32.5t-17.5 16t-27 4.5h-3v41h211v-41h-3q-29 0 -40.5 -10t-11.5 -28q0 -11 3.5 -25.5t9.5 -33.5l56 -166q10 -30 18 -57.5t14 -51t8 -40.5q6 28 14 58t18 65l55 197q5 14 7.5 27t2.5 26
q0 21 -13.5 29.5t-40.5 9.5h-3v41h176v-41h-2q-16 0 -27.5 -5t-20 -21t-18.5 -49l-130 -418q-22 -73 -42 -119.5t-45 -72.5t-63 -36.5t-96 -10.5h-9v46zM340 638q-19 0 -32.5 11.5t-13.5 41.5t13.5 42t32.5 12q18 0 31.5 -11.5t13.5 -42.5q0 -30 -13.5 -41.5t-31.5 -11.5z
M182 638q-18 0 -31 11.5t-13 41.5t13 42t31 12t31.5 -11.5t13.5 -42.5q0 -30 -13.5 -41.5t-31.5 -11.5z" />
    <glyph glyph-name="Amacron" unicode="&#x100;" horiz-adv-x="609" 
d="M1 0v41h15q17 0 27.5 6t19.5 23t19 49l188 595h75l193 -625q6 -19 13.5 -29t19.5 -14.5t29 -4.5h9v-41h-243v41h20q26 0 38.5 11t12.5 31q0 7 -1.5 15t-3.5 18t-5 19l-31 105h-221l-29 -98q-3 -8 -5 -18t-4 -19t-2 -18q0 -21 13 -33.5t42 -12.5h22v-41h-211zM192 289h188
l-53 186q-8 30 -16 56.5t-13.5 49.5t-10.5 42q-4 -19 -9.5 -41.5t-12 -46t-15.5 -50.5zM179 782v57h247v-57h-247z" />
    <glyph glyph-name="amacron" unicode="&#x101;" horiz-adv-x="487" 
d="M173 -10q-37 0 -66.5 17.5t-47 53t-17.5 89.5q0 80 48 117.5t146 41.5l70 3v61q0 37 -5 64.5t-21.5 43.5t-49.5 16q-32 0 -48 -14t-21.5 -38.5t-5.5 -56.5q-39 0 -58.5 15t-19.5 47q0 31 20.5 52.5t56 32.5t82.5 11q79 0 119 -39.5t40 -134.5v-259q0 -28 5.5 -43.5
t17 -22t31.5 -6.5h2v-41h-123l-14 87h-6q-18 -28 -35.5 -50t-40.5 -34.5t-59 -12.5zM199 45q34 0 57.5 18.5t37 52t13.5 75.5v82l-51 -3q-46 -2 -73 -17t-38 -42t-11 -67q0 -31 6.5 -53t21.5 -34t37 -12zM115 617v57h247v-57h-247z" />
    <glyph glyph-name="Abreve" unicode="&#x102;" horiz-adv-x="609" 
d="M1 0v41h15q17 0 27.5 6t19.5 23t19 49l188 595h75l193 -625q6 -19 13.5 -29t19.5 -14.5t29 -4.5h9v-41h-243v41h20q26 0 38.5 11t12.5 31q0 7 -1.5 15t-3.5 18t-5 19l-31 105h-221l-29 -98q-3 -8 -5 -18t-4 -19t-2 -18q0 -21 13 -33.5t42 -12.5h22v-41h-211zM192 289h188
l-53 186q-8 30 -16 56.5t-13.5 49.5t-10.5 42q-4 -19 -9.5 -41.5t-12 -46t-15.5 -50.5zM303 771q-41 0 -68 18t-40 49t-14 68h42q7 -36 28.5 -52t52.5 -16t52 16t28 52h42q0 -37 -13.5 -68t-40.5 -49t-69 -18z" />
    <glyph glyph-name="abreve" unicode="&#x103;" horiz-adv-x="487" 
d="M173 -10q-37 0 -66.5 17.5t-47 53t-17.5 89.5q0 80 48 117.5t146 41.5l70 3v61q0 37 -5 64.5t-21.5 43.5t-49.5 16q-32 0 -48 -14t-21.5 -38.5t-5.5 -56.5q-39 0 -58.5 15t-19.5 47q0 31 20.5 52.5t56 32.5t82.5 11q79 0 119 -39.5t40 -134.5v-259q0 -28 5.5 -43.5
t17 -22t31.5 -6.5h2v-41h-123l-14 87h-6q-18 -28 -35.5 -50t-40.5 -34.5t-59 -12.5zM199 45q34 0 57.5 18.5t37 52t13.5 75.5v82l-51 -3q-46 -2 -73 -17t-38 -42t-11 -67q0 -31 6.5 -53t21.5 -34t37 -12zM235 606q-41 0 -68 18t-40 49t-14 68h42q7 -36 28.5 -52t52.5 -16
t52 16t28 52h42q0 -37 -13.5 -68t-40.5 -49t-69 -18z" />
    <glyph glyph-name="Aogonek" unicode="&#x104;" horiz-adv-x="609" 
d="M1 0v41h15q17 0 27.5 6t19.5 23t19 49l188 595h75l193 -625q6 -19 13.5 -29t19.5 -14.5t29 -4.5h9v-41h-243v41h20q26 0 38.5 11t12.5 31q0 7 -1.5 15t-3.5 18t-5 19l-31 105h-221l-29 -98q-3 -8 -5 -18t-4 -19t-2 -18q0 -21 13 -33.5t42 -12.5h22v-41h-211zM192 289h188
l-53 186q-8 30 -16 56.5t-13.5 49.5t-10.5 42q-4 -19 -9.5 -41.5t-12 -46t-15.5 -50.5zM521 -234q-52 0 -82.5 24.5t-30.5 79.5q0 33 14 59.5t35.5 45t44.5 25.5h54q-19 -7 -37.5 -23.5t-31 -41t-12.5 -56.5t16 -47t42 -15q12 0 25 2.5t28 8.5v-48q-8 -5 -19.5 -8
t-23.5 -4.5t-22 -1.5z" />
    <glyph glyph-name="aogonek" unicode="&#x105;" horiz-adv-x="487" 
d="M173 -10q-37 0 -66.5 17.5t-47 53t-17.5 89.5q0 80 48 117.5t146 41.5l70 3v61q0 37 -5 64.5t-21.5 43.5t-49.5 16q-32 0 -48 -14t-21.5 -38.5t-5.5 -56.5q-39 0 -58.5 15t-19.5 47q0 31 20.5 52.5t56 32.5t82.5 11q79 0 119 -39.5t40 -134.5v-259q0 -28 5.5 -43.5
t17 -22t31.5 -6.5h2v-41h-123l-14 87h-6q-18 -28 -35.5 -50t-40.5 -34.5t-59 -12.5zM199 45q34 0 57.5 18.5t37 52t13.5 75.5v82l-51 -3q-46 -2 -73 -17t-38 -42t-11 -67q0 -31 6.5 -53t21.5 -34t37 -12zM345 -234q-52 0 -82.5 24.5t-30.5 79.5q0 33 14 59.5t35.5 45
t44.5 25.5h54q-19 -7 -37.5 -23.5t-31 -41t-12.5 -56.5t16 -47t42 -15q12 0 25 2.5t28 8.5v-48q-8 -5 -19.5 -8t-23.5 -4.5t-22 -1.5z" />
    <glyph glyph-name="Cacute" unicode="&#x106;" horiz-adv-x="533" 
d="M312 -10q-86 0 -145 46t-89 128.5t-30 193.5q0 110 31 192t92.5 128t152.5 46q58 0 98 -15.5t60 -41t20 -56.5t-21.5 -49t-56.5 -18q0 32 -10 61t-33 48t-64 19q-59 0 -96 -37.5t-53.5 -108t-16.5 -168.5q0 -95 18.5 -164.5t57 -107t100.5 -37.5q43 0 72.5 12.5t49.5 33
t36 44.5q6 -4 10.5 -14t4.5 -22q0 -18 -11 -37.5t-33.5 -36.5t-58 -28t-85.5 -11zM272 784q14 24 29 49.5t28.5 50.5t21.5 47h99v-10q-8 -13 -24 -32.5t-36.5 -40.5t-42 -41.5t-39.5 -35.5h-36v13z" />
    <glyph glyph-name="cacute" unicode="&#x107;" horiz-adv-x="425" 
d="M244 -10q-58 0 -103 28t-70 89t-25 158q0 107 25.5 168.5t69.5 87t98 25.5q45 0 79 -11.5t54 -34t20 -56.5q0 -23 -8.5 -36.5t-27 -19t-46.5 -5.5q0 31 -6 57t-21 41.5t-43 15.5q-31 0 -54.5 -20.5t-36 -70.5t-12.5 -140q0 -71 12.5 -120t39.5 -73.5t69 -24.5
q30 0 52.5 10.5t39 29t26.5 38.5q8 -6 12 -15t4 -23q0 -21 -15 -44t-47.5 -38.5t-85.5 -15.5zM189 619q14 24 29 49.5t28.5 50.5t21.5 47h99v-10q-8 -13 -24 -32.5t-36.5 -40.5t-42 -41.5t-39.5 -35.5h-36v13z" />
    <glyph glyph-name="Ccircumflex" unicode="&#x108;" horiz-adv-x="533" 
d="M312 -10q-86 0 -145 46t-89 128.5t-30 193.5q0 110 31 192t92.5 128t152.5 46q58 0 98 -15.5t60 -41t20 -56.5t-21.5 -49t-56.5 -18q0 32 -10 61t-33 48t-64 19q-59 0 -96 -37.5t-53.5 -108t-16.5 -168.5q0 -95 18.5 -164.5t57 -107t100.5 -37.5q43 0 72.5 12.5t49.5 33
t36 44.5q6 -4 10.5 -14t4.5 -22q0 -18 -11 -37.5t-33.5 -36.5t-58 -28t-85.5 -11zM188 784q14 19 30.5 45t32.5 53t24 49h87q10 -22 25 -49t32 -53t30 -45v-13h-38q-15 15 -32 31.5t-32.5 34t-28.5 35.5q-13 -18 -28.5 -35.5t-32 -34l-31.5 -31.5h-38v13z" />
    <glyph glyph-name="ccircumflex" unicode="&#x109;" horiz-adv-x="425" 
d="M244 -10q-58 0 -103 28t-70 89t-25 158q0 107 25.5 168.5t69.5 87t98 25.5q45 0 79 -11.5t54 -34t20 -56.5q0 -23 -8.5 -36.5t-27 -19t-46.5 -5.5q0 31 -6 57t-21 41.5t-43 15.5q-31 0 -54.5 -20.5t-36 -70.5t-12.5 -140q0 -71 12.5 -120t39.5 -73.5t69 -24.5
q30 0 52.5 10.5t39 29t26.5 38.5q8 -6 12 -15t4 -23q0 -21 -15 -44t-47.5 -38.5t-85.5 -15.5zM111 619q14 19 30.5 45t32.5 53t24 49h87q10 -22 25 -49t32 -53t30 -45v-13h-38q-15 15 -32 31.5t-32.5 34t-28.5 35.5q-13 -18 -28.5 -35.5t-32 -34l-31.5 -31.5h-38v13z" />
    <glyph glyph-name="Cdotaccent" unicode="&#x10a;" horiz-adv-x="533" 
d="M312 -10q-86 0 -145 46t-89 128.5t-30 193.5q0 110 31 192t92.5 128t152.5 46q58 0 98 -15.5t60 -41t20 -56.5t-21.5 -49t-56.5 -18q0 32 -10 61t-33 48t-64 19q-59 0 -96 -37.5t-53.5 -108t-16.5 -168.5q0 -95 18.5 -164.5t57 -107t100.5 -37.5q43 0 72.5 12.5t49.5 33
t36 44.5q6 -4 10.5 -14t4.5 -22q0 -18 -11 -37.5t-33.5 -36.5t-58 -28t-85.5 -11zM322 805q-23 0 -38 13t-15 45q0 33 15 45.5t38 12.5q21 0 37 -12.5t16 -45.5q0 -32 -16 -45t-37 -13z" />
    <glyph glyph-name="cdotaccent" unicode="&#x10b;" horiz-adv-x="425" 
d="M244 -10q-58 0 -103 28t-70 89t-25 158q0 107 25.5 168.5t69.5 87t98 25.5q45 0 79 -11.5t54 -34t20 -56.5q0 -23 -8.5 -36.5t-27 -19t-46.5 -5.5q0 31 -6 57t-21 41.5t-43 15.5q-31 0 -54.5 -20.5t-36 -70.5t-12.5 -140q0 -71 12.5 -120t39.5 -73.5t69 -24.5
q30 0 52.5 10.5t39 29t26.5 38.5q8 -6 12 -15t4 -23q0 -21 -15 -44t-47.5 -38.5t-85.5 -15.5zM243 640q-23 0 -38 13t-15 45q0 33 15 45.5t38 12.5q21 0 37 -12.5t16 -45.5q0 -32 -16 -45t-37 -13z" />
    <glyph glyph-name="Ccaron" unicode="&#x10c;" horiz-adv-x="533" 
d="M312 -10q-86 0 -145 46t-89 128.5t-30 193.5q0 110 31 192t92.5 128t152.5 46q58 0 98 -15.5t60 -41t20 -56.5t-21.5 -49t-56.5 -18q0 32 -10 61t-33 48t-64 19q-59 0 -96 -37.5t-53.5 -108t-16.5 -168.5q0 -95 18.5 -164.5t57 -107t100.5 -37.5q43 0 72.5 12.5t49.5 33
t36 44.5q6 -4 10.5 -14t4.5 -22q0 -18 -11 -37.5t-33.5 -36.5t-58 -28t-85.5 -11zM267 771q-8 23 -24 49.5t-32.5 52.5t-30.5 45v13h38l31.5 -31.5t32 -34t28.5 -35.5q13 18 28.5 35.5t32.5 34t32 31.5h38v-13q-13 -19 -30 -45t-32 -52.5t-25 -49.5h-87z" />
    <glyph glyph-name="ccaron" unicode="&#x10d;" horiz-adv-x="425" 
d="M244 -10q-58 0 -103 28t-70 89t-25 158q0 107 25.5 168.5t69.5 87t98 25.5q45 0 79 -11.5t54 -34t20 -56.5q0 -23 -8.5 -36.5t-27 -19t-46.5 -5.5q0 31 -6 57t-21 41.5t-43 15.5q-31 0 -54.5 -20.5t-36 -70.5t-12.5 -140q0 -71 12.5 -120t39.5 -73.5t69 -24.5
q30 0 52.5 10.5t39 29t26.5 38.5q8 -6 12 -15t4 -23q0 -21 -15 -44t-47.5 -38.5t-85.5 -15.5zM197 606q-8 23 -24 49.5t-32.5 52.5t-30.5 45v13h38l31.5 -31.5t32 -34t28.5 -35.5q13 18 28.5 35.5t32.5 34t32 31.5h38v-13q-13 -19 -30 -45t-32 -52.5t-25 -49.5h-87z" />
    <glyph glyph-name="Dcaron" unicode="&#x10e;" horiz-adv-x="627" 
d="M31 0v41h17q19 0 33.5 5.5t22.5 21t8 45.5v492q0 29 -8.5 43.5t-23.5 19.5t-34 5h-15v41h265q89 0 152 -42t96.5 -121.5t33.5 -193.5q0 -109 -31.5 -189.5t-94 -124t-156.5 -43.5h-265zM276 50q67 0 110.5 35.5t66 104t22.5 167.5t-22 168t-66 104.5t-110 35.5h-70v-615
h69zM244 771q-8 23 -24 49.5t-32.5 52.5t-30.5 45v13h38l31.5 -31.5t32 -34t28.5 -35.5q13 18 28.5 35.5t32.5 34t32 31.5h38v-13q-13 -19 -30 -45t-32 -52.5t-25 -49.5h-87z" />
    <glyph glyph-name="dcaron" unicode="&#x10f;" horiz-adv-x="529" 
d="M485 613q5 23 10 47.5t9.5 50t8.5 49.5h77v-10q-7 -21 -19.5 -48t-26 -54t-26.5 -48h-33v13zM218 -10q-56 0 -94.5 29t-58.5 90.5t-20 157.5q0 97 20 158.5t59 91t96 29.5q49 0 79.5 -24.5t48.5 -63.5h5q-2 24 -2.5 52t-0.5 54v86q0 30 -10 45t-25.5 19.5t-34.5 4.5h-7
v41h165v-649q0 -29 9 -44.5t24.5 -20.5t34.5 -5h8v-41h-150l-10 91h-3q-20 -46 -51 -73.5t-82 -27.5zM238 48q61 0 86.5 58t25.5 161q0 107 -24.5 164t-88.5 57q-35 0 -57.5 -25.5t-32.5 -75t-10 -121.5q0 -110 23.5 -164t77.5 -54z" />
    <glyph glyph-name="Dcroat" unicode="&#x110;" horiz-adv-x="627" 
d="M31 0v41h17q19 0 33.5 5.5t23 21t8.5 45.5v237h-80v47h80v208q0 29 -9 43.5t-24 19.5t-34 5h-15v41h265q89 0 152.5 -41.5t96.5 -121.5t33 -194q0 -109 -31.5 -189t-94 -124t-156.5 -44h-265zM277 50q66 0 110 35.5t66 104t22 167.5t-22 168t-66 104.5t-110 35.5h-70
v-268h137v-47h-137v-300h70z" />
    <glyph glyph-name="dcroat" unicode="&#x111;" horiz-adv-x="529" 
d="M220 -10q-56 0 -95.5 28.5t-59.5 87.5t-20 151q0 93 20 152.5t59 88t96 28.5q49 0 79.5 -24t48.5 -63h5q0 1 -0.5 13.5t-1 30t-1 34.5t-0.5 28v51h-144v42h144v12q0 29 -10 44t-25.5 20t-34.5 5h-7v41h165v-122h76v-42h-76v-485q0 -29 9 -44.5t24.5 -20.5t34.5 -5h8v-41
h-150l-10 91h-3q-20 -46 -50.5 -73.5t-80.5 -27.5zM238 48q42 0 66.5 25.5t35 72.5t10.5 111q0 100 -24.5 156.5t-88.5 56.5q-35 0 -57.5 -24.5t-32.5 -72t-10 -117.5q0 -104 23.5 -156t77.5 -52z" />
    <glyph glyph-name="Emacron" unicode="&#x112;" horiz-adv-x="536" 
d="M31 0v41h16q19 0 33.5 5t23 19.5t8.5 42.5v493q0 32 -8.5 47t-23 20t-33.5 5h-16v41h438l4 -174h-47l-5 42q-1 22 -9 41t-24 30.5t-42 11.5h-139v-267h204v-48h-204v-301h160q28 0 44.5 11.5t25.5 30.5t12 41l5 42h48l-6 -174h-465zM150 782v57h247v-57h-247z" />
    <glyph glyph-name="emacron" unicode="&#x113;" horiz-adv-x="462" 
d="M248 -10q-97 0 -149.5 72t-52.5 202q0 141 50.5 211.5t142.5 70.5q85 0 133.5 -61t48.5 -180v-42h-284q1 -111 33.5 -163.5t94.5 -52.5q44 0 74 23t45 54q7 -4 13 -12t6 -22q0 -20 -16.5 -43.5t-51 -40t-87.5 -16.5zM330 314q-1 81 -21 131t-69 50q-48 0 -73.5 -47
t-28.5 -134h192zM116 617v57h247v-57h-247z" />
    <glyph glyph-name="Ebreve" unicode="&#x114;" horiz-adv-x="536" 
d="M31 0v41h16q19 0 33.5 5t23 19.5t8.5 42.5v493q0 32 -8.5 47t-23 20t-33.5 5h-16v41h438l4 -174h-47l-5 42q-1 22 -9 41t-24 30.5t-42 11.5h-139v-267h204v-48h-204v-301h160q28 0 44.5 11.5t25.5 30.5t12 41l5 42h48l-6 -174h-465zM269 771q-41 0 -68 18t-40 49t-14 68
h42q7 -36 28.5 -52t52.5 -16t52 16t28 52h42q0 -37 -13.5 -68t-40.5 -49t-69 -18z" />
    <glyph glyph-name="ebreve" unicode="&#x115;" horiz-adv-x="462" 
d="M248 -10q-97 0 -149.5 72t-52.5 202q0 141 50.5 211.5t142.5 70.5q85 0 133.5 -61t48.5 -180v-42h-284q1 -111 33.5 -163.5t94.5 -52.5q44 0 74 23t45 54q7 -4 13 -12t6 -22q0 -20 -16.5 -43.5t-51 -40t-87.5 -16.5zM330 314q-1 81 -21 131t-69 50q-48 0 -73.5 -47
t-28.5 -134h192zM239 606q-41 0 -68 18t-40 49t-14 68h42q7 -36 28.5 -52t52.5 -16t52 16t28 52h42q0 -37 -13.5 -68t-40.5 -49t-69 -18z" />
    <glyph glyph-name="Edotaccent" unicode="&#x116;" horiz-adv-x="536" 
d="M31 0v41h16q19 0 33.5 5t23 19.5t8.5 42.5v493q0 32 -8.5 47t-23 20t-33.5 5h-16v41h438l4 -174h-47l-5 42q-1 22 -9 41t-24 30.5t-42 11.5h-139v-267h204v-48h-204v-301h160q28 0 44.5 11.5t25.5 30.5t12 41l5 42h48l-6 -174h-465zM277 791q-23 0 -38 13t-15 45
q0 33 15 45.5t38 12.5q21 0 37 -12.5t16 -45.5q0 -32 -16 -45t-37 -13z" />
    <glyph glyph-name="edotaccent" unicode="&#x117;" horiz-adv-x="462" 
d="M248 -10q-97 0 -149.5 72t-52.5 202q0 141 50.5 211.5t142.5 70.5q85 0 133.5 -61t48.5 -180v-42h-284q1 -111 33.5 -163.5t94.5 -52.5q44 0 74 23t45 54q7 -4 13 -12t6 -22q0 -20 -16.5 -43.5t-51 -40t-87.5 -16.5zM330 314q-1 81 -21 131t-69 50q-48 0 -73.5 -47
t-28.5 -134h192zM238 640q-23 0 -38 13t-15 45q0 33 15 45.5t38 12.5q21 0 37 -12.5t16 -45.5q0 -32 -16 -45t-37 -13z" />
    <glyph glyph-name="Eogonek" unicode="&#x118;" horiz-adv-x="536" 
d="M31 0v41h16q19 0 33.5 5t23 19.5t8.5 42.5v493q0 32 -8.5 47t-23 20t-33.5 5h-16v41h438l4 -174h-47l-5 42q-1 22 -9 41t-24 30.5t-42 11.5h-139v-267h204v-48h-204v-301h160q28 0 44.5 11.5t25.5 30.5t12 41l5 42h48l-6 -174h-465zM406 -240q-56 0 -87 26.5t-31 83.5
q0 31 14 58t37 46t49 26h52q-18 -6 -36.5 -21.5t-31 -38.5t-12.5 -55q0 -33 17 -48.5t42 -15.5q12 0 25.5 2t28.5 6v-53q-9 -5 -21 -8.5t-24 -5.5t-22 -2z" />
    <glyph glyph-name="eogonek" unicode="&#x119;" horiz-adv-x="462" 
d="M319 -230q-53 0 -83.5 25t-30.5 79q0 38 20 68.5t45 48.5q-5 0 -10.5 -0.5t-11.5 -0.5q-97 0 -149.5 72t-52.5 202q0 141 50.5 211.5t142.5 70.5q85 0 133.5 -61t48.5 -180v-42h-284q1 -111 33.5 -163.5t94.5 -52.5q44 0 74 23t45 54q7 -4 13 -12t6 -22q0 -15 -8 -30.5
t-23 -28.5t-34 -22q-20 -16 -34.5 -34.5t-22.5 -40.5t-8 -50q0 -32 15.5 -47t41.5 -15q12 0 25.5 2t27.5 8v-48q-8 -4 -19.5 -7.5t-23.5 -5t-21 -1.5zM330 314q-1 81 -21 131t-69 50q-48 0 -73.5 -47t-28.5 -134h192z" />
    <glyph glyph-name="Ecaron" unicode="&#x11a;" horiz-adv-x="536" 
d="M31 0v41h16q19 0 33.5 5t23 19.5t8.5 42.5v493q0 32 -8.5 47t-23 20t-33.5 5h-16v41h438l4 -174h-47l-5 42q-1 22 -9 41t-24 30.5t-42 11.5h-139v-267h204v-48h-204v-301h160q28 0 44.5 11.5t25.5 30.5t12 41l5 42h48l-6 -174h-465zM225 771q-8 23 -24 49.5t-32.5 52.5
t-30.5 45v13h38l31.5 -31.5t32 -34t28.5 -35.5q13 18 28.5 35.5t32.5 34t32 31.5h38v-13q-13 -19 -30 -45t-32 -52.5t-25 -49.5h-87z" />
    <glyph glyph-name="ecaron" unicode="&#x11b;" horiz-adv-x="462" 
d="M248 -10q-97 0 -149.5 72t-52.5 202q0 141 50.5 211.5t142.5 70.5q85 0 133.5 -61t48.5 -180v-42h-284q1 -111 33.5 -163.5t94.5 -52.5q44 0 74 23t45 54q7 -4 13 -12t6 -22q0 -20 -16.5 -43.5t-51 -40t-87.5 -16.5zM330 314q-1 81 -21 131t-69 50q-48 0 -73.5 -47
t-28.5 -134h192zM194 606q-8 23 -24 49.5t-32.5 52.5t-30.5 45v13h38l31.5 -31.5t32 -34t28.5 -35.5q13 18 28.5 35.5t32.5 34t32 31.5h38v-13q-13 -19 -30 -45t-32 -52.5t-25 -49.5h-87z" />
    <glyph glyph-name="Gcircumflex" unicode="&#x11c;" horiz-adv-x="617" 
d="M346 -10q-100 0 -166.5 46t-99 128.5t-32.5 193.5q0 108 34 190.5t101.5 129t166.5 46.5q63 0 105.5 -14.5t65 -39.5t22.5 -57t-22 -51t-58 -19q0 31 -11.5 60.5t-37 49t-67.5 19.5q-68 0 -111 -35t-63.5 -105t-20.5 -174q0 -101 20 -171t65.5 -106.5t121.5 -36.5
q23 0 45 3t39 10v164q0 30 -8 44.5t-23 18.5t-34 4h-7v41h227v-41h-6q-17 0 -29 -4.5t-18.5 -19.5t-6.5 -47v-182q-44 -22 -90 -33.5t-102 -11.5zM207 784q14 19 30.5 45t32.5 53t24 49h87q10 -22 25 -49t32 -53t30 -45v-13h-38q-15 15 -32 31.5t-32.5 34t-28.5 35.5
q-13 -18 -28.5 -35.5t-32 -34l-31.5 -31.5h-38v13z" />
    <glyph glyph-name="gcircumflex" unicode="&#x11d;" horiz-adv-x="462" 
d="M198 -239q-91 0 -136 38.5t-45 107.5q0 39 15 66.5t39.5 44t52.5 22.5q-18 9 -34.5 27t-16.5 50q0 30 16.5 52.5t43.5 40.5q-37 19 -58.5 60.5t-21.5 90.5q0 86 41 135.5t125 49.5q32 0 57.5 -9.5t41.5 -24.5q9 9 21 22.5t28 23.5t36 10q25 0 37.5 -15.5t12.5 -36.5
t-10.5 -37t-35.5 -16q0 15 -8 27t-21 12q-11 0 -19.5 -4t-16.5 -11q15 -20 26 -48t11 -74q0 -75 -39.5 -124t-120.5 -49q-11 0 -26 1.5t-24 4.5q-12 -10 -23.5 -25.5t-11.5 -38.5t13.5 -33t43.5 -10h92q52 0 84 -19.5t46.5 -52.5t14.5 -73q0 -85 -56 -135t-174 -50z
M200 -191q59 0 92.5 16t46.5 44t13 62q0 46 -21.5 63.5t-61.5 17.5h-87q-23 0 -43.5 -8t-34 -29.5t-13.5 -61.5q0 -29 11 -52.5t34.5 -37.5t63.5 -14zM217 238q28 0 45.5 13.5t25 41.5t7.5 72q0 46 -8 75.5t-25.5 44t-45.5 14.5t-45.5 -15t-25.5 -44.5t-8 -75.5
q0 -64 19 -95t61 -31zM91 619q14 19 30.5 45t32.5 53t24 49h87q10 -22 25 -49t32 -53t30 -45v-13h-38q-15 15 -32 31.5t-32.5 34t-28.5 35.5q-13 -18 -28.5 -35.5t-32 -34l-31.5 -31.5h-38v13z" />
    <glyph glyph-name="Gbreve" unicode="&#x11e;" horiz-adv-x="617" 
d="M346 -10q-100 0 -166.5 46t-99 128.5t-32.5 193.5q0 108 34 190.5t101.5 129t166.5 46.5q63 0 105.5 -14.5t65 -39.5t22.5 -57t-22 -51t-58 -19q0 31 -11.5 60.5t-37 49t-67.5 19.5q-68 0 -111 -35t-63.5 -105t-20.5 -174q0 -101 20 -171t65.5 -106.5t121.5 -36.5
q23 0 45 3t39 10v164q0 30 -8 44.5t-23 18.5t-34 4h-7v41h227v-41h-6q-17 0 -29 -4.5t-18.5 -19.5t-6.5 -47v-182q-44 -22 -90 -33.5t-102 -11.5zM338 771q-41 0 -68 18t-40 49t-14 68h42q7 -36 28.5 -52t52.5 -16t52 16t28 52h42q0 -37 -13.5 -68t-40.5 -49t-69 -18z" />
    <glyph glyph-name="gbreve" unicode="&#x11f;" horiz-adv-x="462" 
d="M198 -239q-91 0 -136 38.5t-45 107.5q0 39 15 66.5t39.5 44t52.5 22.5q-18 9 -34.5 27t-16.5 50q0 30 16.5 52.5t43.5 40.5q-37 19 -58.5 60.5t-21.5 90.5q0 86 41 135.5t125 49.5q32 0 57.5 -9.5t41.5 -24.5q9 9 21 22.5t28 23.5t36 10q25 0 37.5 -15.5t12.5 -36.5
t-10.5 -37t-35.5 -16q0 15 -8 27t-21 12q-11 0 -19.5 -4t-16.5 -11q15 -20 26 -48t11 -74q0 -75 -39.5 -124t-120.5 -49q-11 0 -26 1.5t-24 4.5q-12 -10 -23.5 -25.5t-11.5 -38.5t13.5 -33t43.5 -10h92q52 0 84 -19.5t46.5 -52.5t14.5 -73q0 -85 -56 -135t-174 -50z
M200 -191q59 0 92.5 16t46.5 44t13 62q0 46 -21.5 63.5t-61.5 17.5h-87q-23 0 -43.5 -8t-34 -29.5t-13.5 -61.5q0 -29 11 -52.5t34.5 -37.5t63.5 -14zM217 238q28 0 45.5 13.5t25 41.5t7.5 72q0 46 -8 75.5t-25.5 44t-45.5 14.5t-45.5 -15t-25.5 -44.5t-8 -75.5
q0 -64 19 -95t61 -31zM218 606q-41 0 -68 18t-40 49t-14 68h42q7 -36 28.5 -52t52.5 -16t52 16t28 52h42q0 -37 -13.5 -68t-40.5 -49t-69 -18z" />
    <glyph glyph-name="Gdotaccent" unicode="&#x120;" horiz-adv-x="617" 
d="M346 -10q-100 0 -166.5 46t-99 128.5t-32.5 193.5q0 108 34 190.5t101.5 129t166.5 46.5q63 0 105.5 -14.5t65 -39.5t22.5 -57t-22 -51t-58 -19q0 31 -11.5 60.5t-37 49t-67.5 19.5q-68 0 -111 -35t-63.5 -105t-20.5 -174q0 -101 20 -171t65.5 -106.5t121.5 -36.5
q23 0 45 3t39 10v164q0 30 -8 44.5t-23 18.5t-34 4h-7v41h227v-41h-6q-17 0 -29 -4.5t-18.5 -19.5t-6.5 -47v-182q-44 -22 -90 -33.5t-102 -11.5zM345 805q-23 0 -38 13t-15 45q0 33 15 45.5t38 12.5q21 0 37 -12.5t16 -45.5q0 -32 -16 -45t-37 -13z" />
    <glyph glyph-name="gdotaccent" unicode="&#x121;" horiz-adv-x="462" 
d="M198 -239q-91 0 -136 38.5t-45 107.5q0 39 15 66.5t39.5 44t52.5 22.5q-18 9 -34.5 27t-16.5 50q0 30 16.5 52.5t43.5 40.5q-37 19 -58.5 60.5t-21.5 90.5q0 86 41 135.5t125 49.5q32 0 57.5 -9.5t41.5 -24.5q9 9 21 22.5t28 23.5t36 10q25 0 37.5 -15.5t12.5 -36.5
t-10.5 -37t-35.5 -16q0 15 -8 27t-21 12q-11 0 -19.5 -4t-16.5 -11q15 -20 26 -48t11 -74q0 -75 -39.5 -124t-120.5 -49q-11 0 -26 1.5t-24 4.5q-12 -10 -23.5 -25.5t-11.5 -38.5t13.5 -33t43.5 -10h92q52 0 84 -19.5t46.5 -52.5t14.5 -73q0 -85 -56 -135t-174 -50z
M200 -191q59 0 92.5 16t46.5 44t13 62q0 46 -21.5 63.5t-61.5 17.5h-87q-23 0 -43.5 -8t-34 -29.5t-13.5 -61.5q0 -29 11 -52.5t34.5 -37.5t63.5 -14zM217 238q28 0 45.5 13.5t25 41.5t7.5 72q0 46 -8 75.5t-25.5 44t-45.5 14.5t-45.5 -15t-25.5 -44.5t-8 -75.5
q0 -64 19 -95t61 -31zM218 640q-23 0 -38 13t-15 45q0 33 15 45.5t38 12.5q21 0 37 -12.5t16 -45.5q0 -32 -16 -45t-37 -13z" />
    <glyph glyph-name="uni0122" unicode="&#x122;" horiz-adv-x="617" 
d="M346 -10q-100 0 -166.5 46t-99 128.5t-32.5 193.5q0 108 34 190.5t101.5 129t166.5 46.5q63 0 105.5 -14.5t65 -39.5t22.5 -57t-22 -51t-58 -19q0 31 -11.5 60.5t-37 49t-67.5 19.5q-68 0 -111 -35t-63.5 -105t-20.5 -174q0 -101 20 -171t65.5 -106.5t121.5 -36.5
q23 0 45 3t39 10v164q0 30 -8 44.5t-23 18.5t-34 4h-7v41h227v-41h-6q-17 0 -29 -4.5t-18.5 -19.5t-6.5 -47v-182q-44 -22 -90 -33.5t-102 -11.5zM274 -208q5 23 10 47.5t9.5 50t7.5 49.5h82v-10q-7 -21 -19.5 -48t-26.5 -54t-27 -48h-36v13z" />
    <glyph glyph-name="uni0123" unicode="&#x123;" horiz-adv-x="462" 
d="M178 616q8 21 20.5 48t26.5 54t26 48h40v-13q-5 -22 -9.5 -47l-9 -50t-8.5 -50h-86v10zM198 -239q-91 0 -136 38.5t-45 107.5q0 39 15 66.5t39.5 44t52.5 22.5q-18 9 -34.5 27t-16.5 50q0 30 16.5 52.5t43.5 40.5q-37 19 -58.5 60.5t-21.5 90.5q0 86 41 135.5t125 49.5
q32 0 57.5 -9.5t41.5 -24.5q9 9 21 22.5t28 23.5t36 10q25 0 37.5 -15.5t12.5 -36.5t-10.5 -37t-35.5 -16q0 15 -8 27t-21 12q-11 0 -19.5 -4t-16.5 -11q15 -20 26 -48t11 -74q0 -75 -39.5 -124t-120.5 -49q-11 0 -26 1.5t-24 4.5q-12 -10 -23.5 -25.5t-11.5 -38.5t13.5 -33
t43.5 -10h92q52 0 84 -19.5t46.5 -52.5t14.5 -73q0 -85 -56 -135t-174 -50zM200 -191q59 0 92.5 16t46.5 44t13 62q0 46 -21.5 63.5t-61.5 17.5h-87q-23 0 -43.5 -8t-34 -29.5t-13.5 -61.5q0 -29 11 -52.5t34.5 -37.5t63.5 -14zM217 238q28 0 45.5 13.5t25 41.5t7.5 72
q0 46 -8 75.5t-25.5 44t-45.5 14.5t-45.5 -15t-25.5 -44.5t-8 -75.5q0 -64 19 -95t61 -31z" />
    <glyph glyph-name="Hcircumflex" unicode="&#x124;" horiz-adv-x="681" 
d="M31 0v41h17q19 0 33.5 5.5t22.5 20.5t8 45v493q0 29 -8.5 43.5t-23.5 19.5t-35 5h-14v41h252v-41h-13q-18 0 -32.5 -5t-22.5 -20t-8 -45v-205h267v204q0 31 -7.5 46t-22.5 20t-34 5h-13v41h253v-41h-17q-18 0 -33 -5t-23 -20t-8 -46v-494q0 -28 8.5 -42.5t23 -19.5
t32.5 -5h17v-41h-253v41h13q19 0 34 5.5t22.5 21t7.5 45.5v236h-267v-237q0 -30 8 -45t22.5 -20.5t32.5 -5.5h13v-41h-252zM210 784q14 19 30.5 45t32.5 53t24 49h87q10 -22 25 -49t32 -53t30 -45v-13h-38q-15 15 -32 31.5t-32.5 34t-28.5 35.5q-13 -18 -28.5 -35.5t-32 -34
l-31.5 -31.5h-38v13z" />
    <glyph glyph-name="hcircumflex" unicode="&#x125;" horiz-adv-x="547" 
d="M15 0v41h7q20 0 35 5t24 20.5t9 46.5v538q0 30 -9.5 44.5t-25 19t-33.5 4.5h-7v41h165v-226q0 -17 -1 -34t-2 -30t-1 -16h4q11 26 29 47t43 33t59 12q71 0 108 -47t37 -150v-236q0 -31 8.5 -46.5t22.5 -20.5t33 -5h3v-41h-156v346q0 65 -19.5 101t-69.5 36q-34 0 -56 -20
t-32 -56.5t-10 -85.5v-213q0 -29 9 -43.5t24.5 -19t33.5 -4.5h3v-41h-235zM100 811q14 19 30.5 45t32.5 53t24 49h87q10 -22 25 -49t32 -53t30 -45v-13h-38q-15 15 -32 31.5t-32.5 34t-28.5 35.5q-13 -18 -28.5 -35.5t-32 -34l-31.5 -31.5h-38v13z" />
    <glyph glyph-name="Hbar" unicode="&#x126;" horiz-adv-x="681" 
d="M31 0v41h17q19 0 33.5 5.5t22.5 20.5t8 45v390h-82v45h82v58q0 29 -8.5 43.5t-23.5 19.5t-35 5h-14v41h252v-41h-13q-18 0 -32.5 -5t-22.5 -20t-8 -45v-56h267v55q0 31 -7.5 46t-22.5 20t-34 5h-13v41h253v-41h-17q-18 0 -33 -5t-23 -20t-8 -46v-55h82v-45h-82v-394
q0 -28 8.5 -42.5t23 -19.5t32.5 -5h17v-41h-253v41h13q19 0 34 5.5t22.5 21t7.5 45.5v236h-267v-237q0 -30 8 -45t22.5 -20.5t32.5 -5.5h13v-41h-252zM207 398h267v104h-267v-104z" />
    <glyph glyph-name="hbar" unicode="&#x127;" horiz-adv-x="547" 
d="M15 0v41h7q20 0 35 5t24 20.5t9 46.5v483h-77v42h77v13q0 30 -9.5 44.5t-24.5 19t-34 4.5h-7v41h165v-122h143v-42h-143v-88q0 -15 -0.5 -31t-1 -28t-0.5 -15h3q11 26 29 46.5t43 33t57 12.5q71 0 108.5 -46.5t37.5 -149.5v-217q0 -31 8 -46.5t23 -20.5t33 -5h3v-41h-156
v326q0 65 -19.5 101t-69.5 36q-34 0 -56 -20t-32 -56t-10 -86v-193q0 -29 9 -43.5t25 -19t34 -4.5h3v-41h-236z" />
    <glyph glyph-name="Itilde" unicode="&#x128;" horiz-adv-x="318" 
d="M31 0v41h17q18 0 32.5 5t23 20.5t8.5 44.5v490q0 31 -8.5 46t-23 20.5t-32.5 5.5h-17v41h257v-41h-18q-18 0 -32.5 -5.5t-22.5 -20.5t-8 -46v-489q0 -30 8 -45t23 -20.5t32 -5.5h18v-41h-257zM222 771q-23 0 -41.5 9.5t-34 22t-30 22t-29.5 9.5q-22 0 -30.5 -16.5
t-10.5 -36.5h-42q2 30 12.5 56.5t31 43t50.5 16.5q22 0 40.5 -9.5t34 -22t30 -22t28.5 -9.5q23 0 31.5 16.5t10.5 36.5h41q-2 -29 -12 -56t-30 -43.5t-50 -16.5z" />
    <glyph glyph-name="itilde" unicode="&#x129;" horiz-adv-x="278" 
d="M19 0v41h11q20 0 35 5t24 20t9 44v315q0 30 -8 45t-22.5 20t-34.5 5h-8v41h162v-421q0 -31 8.5 -47t24.5 -21.5t35 -5.5h11v-41h-247zM197 606q-23 0 -41.5 9.5t-34 22t-30 22t-29.5 9.5q-22 0 -30.5 -16.5t-10.5 -36.5h-42q2 30 12.5 56.5t31 43t50.5 16.5
q22 0 40.5 -9.5t34 -22t30 -22t28.5 -9.5q23 0 31.5 16.5t10.5 36.5h41q-2 -29 -12 -56t-30 -43.5t-50 -16.5z" />
    <glyph glyph-name="Imacron" unicode="&#x12a;" horiz-adv-x="318" 
d="M31 0v41h17q18 0 32.5 5t23 20.5t8.5 44.5v490q0 31 -8.5 46t-23 20.5t-32.5 5.5h-17v41h257v-41h-18q-18 0 -32.5 -5.5t-22.5 -20.5t-8 -46v-489q0 -30 8 -45t23 -20.5t32 -5.5h18v-41h-257zM34 782v57h247v-57h-247z" />
    <glyph glyph-name="imacron" unicode="&#x12b;" horiz-adv-x="278" 
d="M19 0v41h11q20 0 35 5t24 20t9 44v315q0 30 -8 45t-22.5 20t-34.5 5h-8v41h162v-421q0 -31 8.5 -47t24.5 -21.5t35 -5.5h11v-41h-247zM3 617v57h247v-57h-247z" />
    <glyph glyph-name="Ibreve" unicode="&#x12c;" horiz-adv-x="318" 
d="M31 0v41h17q18 0 32.5 5t23 20.5t8.5 44.5v490q0 31 -8.5 46t-23 20.5t-32.5 5.5h-17v41h257v-41h-18q-18 0 -32.5 -5.5t-22.5 -20.5t-8 -46v-489q0 -30 8 -45t23 -20.5t32 -5.5h18v-41h-257zM158 771q-41 0 -68 18t-40 49t-14 68h42q7 -36 28.5 -52t52.5 -16t52 16
t28 52h42q0 -37 -13.5 -68t-40.5 -49t-69 -18z" />
    <glyph glyph-name="ibreve" unicode="&#x12d;" horiz-adv-x="278" 
d="M19 0v41h11q20 0 35 5t24 20t9 44v315q0 30 -8 45t-22.5 20t-34.5 5h-8v41h162v-421q0 -31 8.5 -47t24.5 -21.5t35 -5.5h11v-41h-247zM131 606q-41 0 -68 18t-40 49t-14 68h42q7 -36 28.5 -52t52.5 -16t52 16t28 52h42q0 -37 -13.5 -68t-40.5 -49t-69 -18z" />
    <glyph glyph-name="Iogonek" unicode="&#x12e;" horiz-adv-x="318" 
d="M31 0v41h17q18 0 32.5 5t23 20.5t8.5 44.5v490q0 31 -8.5 46t-23 20.5t-32.5 5.5h-17v41h257v-41h-18q-18 0 -32.5 -5.5t-22.5 -20.5t-8 -46v-489q0 -30 8 -45t23 -20.5t32 -5.5h18v-41h-257zM196 -240q-56 0 -87 26.5t-31 83.5q0 31 14 58t37 46t49 26h52
q-18 -6 -36.5 -21.5t-31 -38.5t-12.5 -55q0 -33 17 -48.5t42 -15.5q12 0 25.5 2t28.5 6v-53q-9 -5 -21 -8.5t-24 -5.5t-22 -2z" />
    <glyph glyph-name="iogonek" unicode="&#x12f;" horiz-adv-x="278" 
d="M19 0v41h11q20 0 35 5t24 19.5t9 44.5v315q0 30 -8 45t-22.5 20t-34.5 5h-8v41h162v-421q0 -31 8.5 -47t24.5 -21.5t35 -5.5h11v-41h-247zM139 640q-23 0 -38 13t-15 45q0 33 15 45.5t38 12.5q22 0 37.5 -12.5t15.5 -45.5q0 -32 -15.5 -45t-37.5 -13zM175 -240
q-56 0 -87 26.5t-31 83.5q0 31 14 58t37 46t49 26h52q-18 -6 -36.5 -21.5t-31 -38.5t-12.5 -55q0 -33 17 -48.5t42 -15.5q12 0 25.5 2t28.5 6v-53q-9 -5 -21 -8.5t-24 -5.5t-22 -2z" />
    <glyph glyph-name="Idotaccent" unicode="&#x130;" horiz-adv-x="318" 
d="M31 0v41h17q18 0 32.5 5t23 20.5t8.5 44.5v490q0 31 -8.5 46t-23 20.5t-32.5 5.5h-17v41h257v-41h-18q-18 0 -32.5 -5.5t-22.5 -20.5t-8 -46v-489q0 -30 8 -45t23 -20.5t32 -5.5h18v-41h-257zM159 805q-23 0 -38 13t-15 45q0 33 15 45.5t38 12.5q21 0 37 -12.5t16 -45.5
q0 -32 -16 -45t-37 -13z" />
    <glyph glyph-name="dotlessi" unicode="&#x131;" horiz-adv-x="278" 
d="M19 0v41h11q20 0 35 5t24 20t9 44v315q0 30 -8 45t-22.5 20t-34.5 5h-8v41h162v-421q0 -31 8.5 -47t24.5 -21.5t35 -5.5h11v-41h-247z" />
    <glyph glyph-name="IJ" unicode="&#x132;" horiz-adv-x="629" 
d="M31 0v41h17q18 0 32.5 5t23 20.5t8.5 44.5v490q0 31 -8.5 46t-23 20.5t-32.5 5.5h-17v41h257v-41h-18q-18 0 -32.5 -5.5t-22.5 -20.5t-8 -46v-489q0 -30 8 -45t23 -20.5t32 -5.5h18v-41h-257zM306 -240v46h9q35 0 60.5 16.5t39.5 57t14 110.5v615q0 29 -9 43.5
t-23.5 19.5t-32.5 5h-16v41h256v-41h-16q-18 0 -32.5 -5.5t-23.5 -20.5t-9 -46v-610q0 -67 -15.5 -111.5t-43 -71t-64 -37.5t-76.5 -11h-18z" />
    <glyph glyph-name="ij" unicode="&#x133;" horiz-adv-x="549" 
d="M19 0v41h11q20 0 35 5t24 19.5t9 44.5v315q0 30 -8 45t-22.5 20t-34.5 5h-8v41h162v-421q0 -31 8.5 -47t24.5 -21.5t35 -5.5h11v-41h-247zM139 640q-23 0 -38 13t-15 45q0 33 15 45.5t38 12.5q22 0 37.5 -12.5t15.5 -45.5q0 -32 -15.5 -45t-37.5 -13zM273 -240v46h6
q31 0 53 16.5t33 57t11 110.5v437q0 30 -9 44.5t-24 19t-34 4.5h-6v41h161v-544q0 -89 -22.5 -140t-62 -71.5t-92.5 -20.5h-14zM416 640q-22 0 -37.5 13t-15.5 45q0 33 15.5 45.5t37.5 12.5t37.5 -12.5t15.5 -45.5q0 -32 -15.5 -45t-37.5 -13z" />
    <glyph glyph-name="Jcircumflex" unicode="&#x134;" horiz-adv-x="314" 
d="M-8 -240v46h9q35 0 60.5 16.5t39.5 57t14 110.5v615q0 29 -9 43.5t-23.5 19.5t-32.5 5h-16v41h256v-41h-16q-18 0 -32.5 -5.5t-23.5 -20.5t-9 -46v-610q0 -67 -15.5 -111.5t-43 -71t-64 -37.5t-76.5 -11h-18zM31 784q14 19 30.5 45t32.5 53t24 49h87q10 -22 25 -49
t32 -53t30 -45v-13h-38q-15 15 -32 31.5t-32.5 34t-28.5 35.5q-13 -18 -28.5 -35.5t-32 -34l-31.5 -31.5h-38v13z" />
    <glyph glyph-name="jcircumflex" unicode="&#x135;" horiz-adv-x="270" 
d="M-6 -240v46h6q31 0 53 16.5t33 57t11 110.5v437q0 30 -8.5 44.5t-23.5 19t-34 4.5h-7v41h161v-544q0 -89 -22.5 -140t-62 -71.5t-92.5 -20.5h-14zM-12 619q14 19 30.5 45t32.5 53t24 49h87q10 -22 25 -49t32 -53t30 -45v-13h-38q-15 15 -32 31.5t-32.5 34t-28.5 35.5
q-13 -18 -28.5 -35.5t-32 -34l-31.5 -31.5h-38v13z" />
    <glyph glyph-name="uni0136" unicode="&#x136;" horiz-adv-x="608" 
d="M31 0v41h14q20 0 35 5t23.5 19t8.5 43v498q0 29 -8.5 43t-23.5 19t-33 5h-16v41h252v-41h-12q-18 0 -33 -5t-23 -20t-8 -45v-293l172 246q19 26 29.5 44t15.5 30.5t5 21.5q0 13 -10.5 17.5t-33.5 4.5v40h194v-40q-20 0 -38 -11t-37 -31.5t-41 -50.5l-124 -166l183 -293
q16 -26 31.5 -44t31 -27.5t30.5 -9.5h2v-41h-25q-38 0 -63.5 4.5t-43.5 15.5t-33 30.5t-32 50.5l-143 241l-70 -88v-143q0 -29 8.5 -44.5t23.5 -20.5t34 -5h10v-41h-252zM262 -208q5 23 10 47.5t9.5 50t7.5 49.5h82v-10q-7 -21 -19.5 -48t-26.5 -54t-27 -48h-36v13z" />
    <glyph glyph-name="uni0137" unicode="&#x137;" horiz-adv-x="507" 
d="M15 0v41h8q18 0 33.5 5t25 20.5t9.5 46.5v538q0 30 -9.5 44.5t-25 19t-33.5 4.5h-8v41h165v-385q0 -13 -0.5 -34t-1.5 -42.5t-1.5 -36.5t-0.5 -16l107 139q19 24 28.5 40t13.5 27.5t4 19.5q0 13 -10.5 18t-31.5 5v41h190v-41q-15 0 -29.5 -6.5t-29 -18.5t-29.5 -29.5
t-32 -39.5l-57 -75l113 -201q23 -40 43.5 -62t48.5 -22h3v-41h-12q-39 0 -64.5 3.5t-43 13t-32.5 30.5t-33 54l-84 161l-59 -68v-86q0 -29 10 -43.5t25.5 -19t32.5 -4.5h4v-41h-237zM210 -208q5 23 10 47.5t9.5 50t7.5 49.5h82v-10q-7 -21 -19.5 -48t-26.5 -54t-27 -48h-36
v13z" />
    <glyph glyph-name="kgreenlandic" unicode="&#x138;" horiz-adv-x="507" 
d="M15 0v41h8q18 0 33.5 5t25 20.5t9.5 47.5v313q0 30 -9.5 44.5t-25 19t-33.5 4.5h-8v41h165v-162q0 -13 -0.5 -34.5t-1.5 -43t-1.5 -36l-0.5 -14.5l107 139q19 24 28.5 40t13.5 27.5t4 19.5q0 13 -10.5 18t-31.5 5v41h190v-41q-20 0 -39 -11.5t-38.5 -32t-42.5 -50.5
l-59 -77l114 -200q22 -40 44 -61.5t49 -21.5h3v-41h-13q-38 0 -64 3t-43.5 12.5t-32.5 29t-33 53.5l-86 161l-56 -65v-86q0 -29 10 -43.5t25.5 -19t32.5 -4.5h4v-41h-237z" />
    <glyph glyph-name="Lacute" unicode="&#x139;" horiz-adv-x="535" 
d="M31 0v41h17q18 0 32.5 5t23 20.5t8.5 44.5v491q0 31 -8.5 46t-23.5 20t-34 5h-15v41h257v-41h-16q-20 0 -34.5 -5t-22.5 -19.5t-8 -43.5v-556h167q25 0 40.5 12t24 32.5t11.5 45.5l9 75h43l-6 -214h-465zM126 784q14 24 29 49.5t28.5 50.5t21.5 47h99v-10
q-8 -13 -24 -32.5t-36.5 -40.5t-42 -41.5t-39.5 -35.5h-36v13z" />
    <glyph glyph-name="lacute" unicode="&#x13a;" horiz-adv-x="270" 
d="M12 0v41h11q20 0 35 5.5t23.5 21t8.5 47.5v536q0 30 -9.5 44.5t-25 19t-33.5 4.5h-10v41h168v-645q0 -31 8.5 -47t24 -21.5t35.5 -5.5h10v-41h-246zM87 812q14 24 29 49.5t28.5 50.5t21.5 47h99v-10q-8 -13 -24 -32.5t-36.5 -40.5t-42 -41.5t-39.5 -35.5h-36v13z" />
    <glyph glyph-name="uni013B" unicode="&#x13b;" horiz-adv-x="535" 
d="M31 0v41h17q18 0 32.5 5t23 20.5t8.5 44.5v491q0 31 -8.5 46t-23.5 20t-34 5h-15v41h257v-41h-16q-20 0 -34.5 -5t-22.5 -19.5t-8 -43.5v-556h167q25 0 40.5 12t24 32.5t11.5 45.5l9 75h43l-6 -214h-465zM218 -208q5 23 10 47.5t9.5 50t7.5 49.5h82v-10q-7 -21 -19.5 -48
t-26.5 -54t-27 -48h-36v13z" />
    <glyph glyph-name="uni013C" unicode="&#x13c;" horiz-adv-x="270" 
d="M12 0v41h11q20 0 35 5.5t23.5 21t8.5 47.5v536q0 30 -9.5 44.5t-25 19t-33.5 4.5h-10v41h168v-645q0 -31 8.5 -47t24 -21.5t35.5 -5.5h10v-41h-246zM70 -208q5 23 10 47.5t9.5 50t7.5 49.5h82v-10q-7 -21 -19.5 -48t-26.5 -54t-27 -48h-36v13z" />
    <glyph glyph-name="Lcaron" unicode="&#x13d;" horiz-adv-x="535" 
d="M364 567q5 23 10 47.5t9.5 50t8.5 49.5h78v-10q-8 -21 -20 -48t-26 -54t-27 -48h-33v13zM31 0v41h17q18 0 32.5 5t23 20.5t8.5 44.5v491q0 31 -8.5 46t-23.5 20t-34 5h-15v41h257v-41h-16q-20 0 -34.5 -5t-22.5 -19.5t-8 -43.5v-556h167q25 0 40.5 12t24 32.5t11.5 45.5
l9 75h43l-6 -214h-465z" />
    <glyph glyph-name="lcaron" unicode="&#x13e;" horiz-adv-x="270" 
d="M226 613q5 23 10 47.5t9.5 50t8.5 49.5h78v-10q-8 -21 -20 -48t-26 -54t-27 -48h-33v13zM12 0v41h11q20 0 35 5.5t23.5 21t8.5 47.5v536q0 30 -9.5 44.5t-25 19t-33.5 4.5h-10v41h168v-645q0 -31 8.5 -47t24 -21.5t35.5 -5.5h10v-41h-246z" />
    <glyph glyph-name="Ldot" unicode="&#x13f;" horiz-adv-x="535" 
d="M31 0v41h17q18 0 32.5 5t23 20.5t8.5 44.5v491q0 31 -8.5 46t-23.5 20t-34 5h-15v41h257v-41h-16q-20 0 -34.5 -5t-22.5 -19.5t-8 -43.5v-556h167q25 0 40.5 12t24 32.5t11.5 45.5l9 75h43l-6 -214h-465zM421 326q-23 0 -38 13t-15 45q0 33 15 45.5t38 12.5
q21 0 37 -12.5t16 -45.5q0 -32 -16 -45t-37 -13z" />
    <glyph glyph-name="ldot" unicode="&#x140;" horiz-adv-x="274" 
d="M12 0v41h11q20 0 35 5.5t23.5 21t8.5 47.5v536q0 30 -9.5 44.5t-25 19t-33.5 4.5h-10v41h168v-645q0 -31 8.5 -47t24 -21.5t35.5 -5.5h10v-41h-246zM300 270q-23 0 -38 13t-15 45q0 33 15 45.5t38 12.5q21 0 37 -12.5t16 -45.5q0 -32 -16 -45t-37 -13z" />
    <glyph glyph-name="Lslash" unicode="&#x141;" horiz-adv-x="536" 
d="M31 0v41h17q18 0 33 5t23.5 20.5t8.5 44.5v176l-80 -55v52l80 56v262q0 31 -8.5 46t-23.5 20t-35 5h-15v41h257v-41h-16q-20 0 -34.5 -5t-22.5 -19.5t-8 -43.5v-209l132 91v-55l-132 -90v-293h167q25 0 40.5 12t24 32.5t11.5 45.5l9 75h43l-6 -214h-465z" />
    <glyph glyph-name="lslash" unicode="&#x142;" horiz-adv-x="281" 
d="M25 0v41h10q21 0 36.5 5.5t24 21.5t8.5 47v173l-74 -51v49l74 52v313q0 30 -10 44.5t-25.5 19t-33.5 4.5h-10v41h168v-368l80 56v-51l-80 -56v-226q0 -31 8.5 -47t24 -21.5t35.5 -5.5h11v-41h-247z" />
    <glyph glyph-name="Nacute" unicode="&#x143;" horiz-adv-x="654" 
d="M31 0v41h12q21 0 36.5 5t24 20.5t8.5 46.5v492q0 30 -8.5 44.5t-23.5 19t-35 4.5h-14v41h165l302 -561v452q0 29 -9 43.5t-24 19.5t-34 5h-14v41h216v-41h-15q-19 0 -34 -5.5t-23.5 -20.5t-8.5 -46v-601h-66l-320 589v-476q0 -31 8 -46.5t23.5 -20.5t34.5 -5h15v-41h-216
zM292 784q14 24 29 49.5t28.5 50.5t21.5 47h99v-10q-8 -13 -24 -32.5t-36.5 -40.5t-42 -41.5t-39.5 -35.5h-36v13z" />
    <glyph glyph-name="nacute" unicode="&#x144;" horiz-adv-x="554" 
d="M22 0v41h8q19 0 34.5 5t24.5 20.5t9 47.5v313q0 30 -8.5 44.5t-24 19t-33.5 4.5h-5v41h146l11 -82h4q23 53 55.5 72.5t77.5 19.5q67 0 104.5 -47t37.5 -150v-236q0 -31 7.5 -46.5t22 -20.5t33.5 -5h4v-41h-156v346q0 65 -19 101.5t-67 36.5q-38 0 -60 -23t-31.5 -60.5
t-9.5 -79.5v-213q0 -29 8.5 -43.5t23.5 -19t34 -4.5h5v-41h-236zM233 619q14 24 29 49.5t28.5 50.5t21.5 47h99v-10q-8 -13 -24 -32.5t-36.5 -40.5t-42 -41.5t-39.5 -35.5h-36v13z" />
    <glyph glyph-name="uni0145" unicode="&#x145;" horiz-adv-x="654" 
d="M31 0v41h12q21 0 36.5 5t24 20.5t8.5 46.5v492q0 30 -8.5 44.5t-23.5 19t-35 4.5h-14v41h165l302 -561v452q0 29 -9 43.5t-24 19.5t-34 5h-14v41h216v-41h-15q-19 0 -34 -5.5t-23.5 -20.5t-8.5 -46v-601h-66l-320 589v-476q0 -31 8 -46.5t23.5 -20.5t34.5 -5h15v-41h-216
zM281 -208q5 23 10 47.5t9.5 50t7.5 49.5h82v-10q-7 -21 -19.5 -48t-26.5 -54t-27 -48h-36v13z" />
    <glyph glyph-name="uni0146" unicode="&#x146;" horiz-adv-x="554" 
d="M22 0v41h8q19 0 34.5 5t24.5 20.5t9 47.5v313q0 30 -8.5 44.5t-24 19t-33.5 4.5h-5v41h146l11 -82h4q23 53 55.5 72.5t77.5 19.5q67 0 104.5 -47t37.5 -150v-236q0 -31 7.5 -46.5t22 -20.5t33.5 -5h4v-41h-156v346q0 65 -19 101.5t-67 36.5q-38 0 -60 -23t-31.5 -60.5
t-9.5 -79.5v-213q0 -29 8.5 -43.5t23.5 -19t34 -4.5h5v-41h-236zM223 -208q5 23 10 47.5t9.5 50t7.5 49.5h82v-10q-7 -21 -19.5 -48t-26.5 -54t-27 -48h-36v13z" />
    <glyph glyph-name="Ncaron" unicode="&#x147;" horiz-adv-x="654" 
d="M31 0v41h12q21 0 36.5 5t24 20.5t8.5 46.5v492q0 30 -8.5 44.5t-23.5 19t-35 4.5h-14v41h165l302 -561v452q0 29 -9 43.5t-24 19.5t-34 5h-14v41h216v-41h-15q-19 0 -34 -5.5t-23.5 -20.5t-8.5 -46v-601h-66l-320 589v-476q0 -31 8 -46.5t23.5 -20.5t34.5 -5h15v-41h-216
zM299 771q-8 23 -24 49.5t-32.5 52.5t-30.5 45v13h38l31.5 -31.5t32 -34t28.5 -35.5q13 18 28.5 35.5t32.5 34t32 31.5h38v-13q-13 -19 -30 -45t-32 -52.5t-25 -49.5h-87z" />
    <glyph glyph-name="ncaron" unicode="&#x148;" horiz-adv-x="554" 
d="M22 0v41h8q19 0 34.5 5t24.5 20.5t9 47.5v313q0 30 -8.5 44.5t-24 19t-33.5 4.5h-5v41h146l11 -82h4q23 53 55.5 72.5t77.5 19.5q67 0 104.5 -47t37.5 -150v-236q0 -31 7.5 -46.5t22 -20.5t33.5 -5h4v-41h-156v346q0 65 -19 101.5t-67 36.5q-38 0 -60 -23t-31.5 -60.5
t-9.5 -79.5v-213q0 -29 8.5 -43.5t23.5 -19t34 -4.5h5v-41h-236zM239 606q-8 23 -24 49.5t-32.5 52.5t-30.5 45v13h38l31.5 -31.5t32 -34t28.5 -35.5q13 18 28.5 35.5t32.5 34t32 31.5h38v-13q-13 -19 -30 -45t-32 -52.5t-25 -49.5h-87z" />
    <glyph glyph-name="napostrophe" unicode="&#x149;" horiz-adv-x="688" 
d="M156 0v41h8q19 0 34.5 5t24.5 20.5t9 47.5v313q0 30 -8.5 44.5t-24 19t-33.5 4.5h-5v41h146l11 -82h4q23 53 55.5 72.5t77.5 19.5q67 0 104.5 -47t37.5 -150v-236q0 -31 7.5 -46.5t22 -20.5t33.5 -5h4v-41h-156v346q0 65 -19 101.5t-67 36.5q-38 0 -60 -23t-31.5 -60.5
t-9.5 -79.5v-213q0 -29 8.5 -43.5t23.5 -19t34 -4.5h5v-41h-236zM6 474q27 11 44.5 24.5t26.5 30.5t9 36q0 15 -9.5 23t-21.5 14.5t-21.5 18.5t-9.5 35q0 28 16 43t40 15q28 0 48 -22t20 -63q0 -64 -32.5 -117t-109.5 -79v41z" />
    <glyph glyph-name="Eng" unicode="&#x14a;" horiz-adv-x="654" 
d="M395 -240v46h11q29 0 49.5 17t31.5 57t11 110v14l-332 585v-476q0 -31 8 -46.5t23.5 -20.5t34.5 -5h15v-41h-216v41h12q21 0 36.5 5t24 20.5t8.5 46.5v492q0 30 -8.5 44.5t-23.5 19t-35 4.5h-14v41h161l306 -557v448q0 29 -9 43.5t-24 19.5t-34 5h-14v41h216v-41h-15
q-19 0 -34 -5.5t-23.5 -20.5t-8.5 -46v-609q0 -88 -15 -139t-45 -72t-77 -21h-20z" />
    <glyph glyph-name="eng" unicode="&#x14b;" horiz-adv-x="547" 
d="M284 -240v46h6q27 0 46 16.5t29 57t10 110.5v356q0 66 -20 102t-67 36q-37 0 -59.5 -23t-32 -60t-9.5 -80v-213q0 -29 9.5 -43.5t24.5 -19t34 -4.5h3v-41h-236v41h8q19 0 34.5 5t24.5 20.5t9 47.5v313q0 30 -9 44.5t-24 19t-36 4.5h-2v41h145l12 -82h4q24 53 56 72.5
t77 19.5q67 0 104.5 -47t37.5 -150v-357q0 -89 -21.5 -140t-58.5 -71.5t-86 -20.5h-13z" />
    <glyph glyph-name="Omacron" unicode="&#x14c;" horiz-adv-x="640" 
d="M320 -10q-92 0 -152.5 46t-90 129t-29.5 194t29.5 193t90.5 127.5t153 45.5q87 0 147.5 -45.5t92 -128t31.5 -193.5t-31.5 -193.5t-92 -128.5t-148.5 -46zM320 43q62 0 99.5 37.5t53.5 108t16 169.5q0 100 -16.5 170t-53 107t-98.5 37q-91 0 -130.5 -82.5t-39.5 -231.5
q0 -99 17 -169.5t54.5 -108t97.5 -37.5zM195 782v57h247v-57h-247z" />
    <glyph glyph-name="omacron" unicode="&#x14d;" horiz-adv-x="498" 
d="M248 -10q-94 0 -148 69t-54 210q0 140 52 208.5t153 68.5q93 0 147 -68.5t54 -208.5q0 -141 -51.5 -210t-152.5 -69zM250 41q41 0 65 26t35 76.5t11 125.5q0 112 -25.5 168.5t-86.5 56.5t-86.5 -56.5t-25.5 -168.5t26 -170t87 -58zM123 617v57h247v-57h-247z" />
    <glyph glyph-name="Obreve" unicode="&#x14e;" horiz-adv-x="640" 
d="M320 -10q-92 0 -152.5 46t-90 129t-29.5 194t29.5 193t90.5 127.5t153 45.5q87 0 147.5 -45.5t92 -128t31.5 -193.5t-31.5 -193.5t-92 -128.5t-148.5 -46zM320 43q62 0 99.5 37.5t53.5 108t16 169.5q0 100 -16.5 170t-53 107t-98.5 37q-91 0 -130.5 -82.5t-39.5 -231.5
q0 -99 17 -169.5t54.5 -108t97.5 -37.5zM319 771q-41 0 -68 18t-40 49t-14 68h42q7 -36 28.5 -52t52.5 -16t52 16t28 52h42q0 -37 -13.5 -68t-40.5 -49t-69 -18z" />
    <glyph glyph-name="obreve" unicode="&#x14f;" horiz-adv-x="498" 
d="M248 -10q-94 0 -148 69t-54 210q0 140 52 208.5t153 68.5q93 0 147 -68.5t54 -208.5q0 -141 -51.5 -210t-152.5 -69zM250 41q41 0 65 26t35 76.5t11 125.5q0 112 -25.5 168.5t-86.5 56.5t-86.5 -56.5t-25.5 -168.5t26 -170t87 -58zM248 606q-41 0 -68 18t-40 49t-14 68
h42q7 -36 28.5 -52t52.5 -16t52 16t28 52h42q0 -37 -13.5 -68t-40.5 -49t-69 -18z" />
    <glyph glyph-name="Ohungarumlaut" unicode="&#x150;" horiz-adv-x="640" 
d="M320 -10q-92 0 -152.5 46t-90 129t-29.5 194t29.5 193t90.5 127.5t153 45.5q87 0 147.5 -45.5t92 -128t31.5 -193.5t-31.5 -193.5t-92 -128.5t-148.5 -46zM320 43q62 0 99.5 37.5t53.5 108t16 169.5q0 100 -16.5 170t-53 107t-98.5 37q-91 0 -130.5 -82.5t-39.5 -231.5
q0 -99 17 -169.5t54.5 -108t97.5 -37.5zM346 784q20 37 39 75t32 72h88v-10q-9 -17 -30 -45t-45.5 -56t-44.5 -49h-39v13zM191 784q20 37 39 75t32 72h88v-10q-9 -17 -30.5 -45t-45.5 -56t-44 -49h-39v13z" />
    <glyph glyph-name="ohungarumlaut" unicode="&#x151;" horiz-adv-x="498" 
d="M248 -10q-94 0 -148 69t-54 210q0 140 52 208.5t153 68.5q93 0 147 -68.5t54 -208.5q0 -141 -51.5 -210t-152.5 -69zM250 41q41 0 65 26t35 76.5t11 125.5q0 112 -25.5 168.5t-86.5 56.5t-86.5 -56.5t-25.5 -168.5t26 -170t87 -58zM276 619q20 37 39 75t32 72h88v-10
q-9 -17 -30 -45t-45.5 -56t-44.5 -49h-39v13zM121 619q20 37 39 75t32 72h88v-10q-9 -17 -30.5 -45t-45.5 -56t-44 -49h-39v13z" />
    <glyph glyph-name="OE" unicode="&#x152;" horiz-adv-x="828" 
d="M320 -10q-91 0 -152 46t-90.5 129t-29.5 194t29.5 193t90.5 127.5t153 45.5q21 0 46.5 -3t42.5 -8h350l5 -174h-48l-4 42q-2 23 -10 41.5t-23.5 30t-42.5 11.5h-140v-267h206v-48h-206v-301h160q28 0 45 11.5t26 30.5t12 41l6 42h47l-6 -174h-379q-18 -4 -42.5 -7
t-45.5 -3zM320 43q25 0 46 4t37 8v603q-16 7 -36.5 10.5t-45.5 3.5q-91 0 -130.5 -82.5t-39.5 -231.5q0 -99 17 -169.5t54.5 -108t97.5 -37.5z" />
    <glyph glyph-name="oe" unicode="&#x153;" horiz-adv-x="778" 
d="M248 -10q-94 0 -148 69t-54 210q0 140 51.5 208.5t153.5 68.5q51 0 90.5 -22.5t63.5 -68.5q25 45 62.5 68t87.5 23q85 0 133.5 -61t48.5 -180v-42h-285q1 -72 15.5 -119.5t42.5 -72t70 -24.5q44 0 74.5 23t45.5 54q8 -4 13.5 -12t5.5 -22q0 -20 -16.5 -43.5t-51 -40
t-88.5 -16.5q-53 0 -92 23.5t-63 68.5q-24 -46 -64 -69t-96 -23zM250 41q41 0 65 26t35 76.5t11 125.5q-1 114 -26 169.5t-86 55.5t-86.5 -56.5t-25.5 -168.5t26 -170t87 -58zM645 314q0 54 -9 94.5t-28.5 63.5t-52.5 23q-47 0 -72.5 -47t-28.5 -134h191z" />
    <glyph glyph-name="Racute" unicode="&#x154;" horiz-adv-x="569" 
d="M31 0v41h14q18 0 33.5 4.5t24.5 19t9 43.5v497q0 30 -9.5 44.5t-24.5 19t-33 4.5h-14v41h237q78 0 128 -20t73.5 -62t23.5 -107q0 -56 -17.5 -93.5t-46.5 -60t-62 -34.5l115 -216q22 -39 42 -59.5t46 -20.5h3v-41h-15q-48 0 -78 7t-50.5 26.5t-38.5 56.5l-113 225h-71
v-207q0 -29 9 -43.5t23.5 -19t33.5 -4.5h10v-41h-252zM257 361q73 0 104.5 41t31.5 119q0 50 -13 82.5t-41.5 48t-75.5 15.5h-56v-306h50zM217 784q14 24 29 49.5t28.5 50.5t21.5 47h99v-10q-8 -13 -24 -32.5t-36.5 -40.5t-42 -41.5t-39.5 -35.5h-36v13z" />
    <glyph glyph-name="racute" unicode="&#x155;" horiz-adv-x="409" 
d="M26 0v41h3q19 0 34.5 5t25 20.5t9.5 47.5v313q0 30 -9 44.5t-24.5 19t-35.5 4.5h-2v41h140l14 -105h4q12 31 27 57.5t38 42t59 15.5q45 0 66 -20t21 -54q0 -31 -19.5 -49.5t-63.5 -18.5q0 28 -4 45t-13.5 25t-26.5 8q-21 0 -36.5 -20t-25.5 -51.5t-15 -68t-5 -69.5v-165
q0 -29 9.5 -43.5t24.5 -19t34 -4.5h21v-41h-250zM152 619q14 24 29 49.5t28.5 50.5t21.5 47h99v-10q-8 -13 -24 -32.5t-36.5 -40.5t-42 -41.5t-39.5 -35.5h-36v13z" />
    <glyph glyph-name="uni0156" unicode="&#x156;" horiz-adv-x="569" 
d="M31 0v41h14q18 0 33.5 4.5t24.5 19t9 43.5v497q0 30 -9.5 44.5t-24.5 19t-33 4.5h-14v41h237q78 0 128 -20t73.5 -62t23.5 -107q0 -56 -17.5 -93.5t-46.5 -60t-62 -34.5l115 -216q22 -39 42 -59.5t46 -20.5h3v-41h-15q-48 0 -78 7t-50.5 26.5t-38.5 56.5l-113 225h-71
v-207q0 -29 9 -43.5t23.5 -19t33.5 -4.5h10v-41h-252zM257 361q73 0 104.5 41t31.5 119q0 50 -13 82.5t-41.5 48t-75.5 15.5h-56v-306h50zM225 -208q5 23 10 47.5t9.5 50t7.5 49.5h82v-10q-7 -21 -19.5 -48t-26.5 -54t-27 -48h-36v13z" />
    <glyph glyph-name="uni0157" unicode="&#x157;" horiz-adv-x="409" 
d="M26 0v41h3q19 0 34.5 5t25 20.5t9.5 47.5v313q0 30 -9 44.5t-24.5 19t-35.5 4.5h-2v41h140l14 -105h4q12 31 27 57.5t38 42t59 15.5q45 0 66 -20t21 -54q0 -31 -19.5 -49.5t-63.5 -18.5q0 28 -4 45t-13.5 25t-26.5 8q-21 0 -36.5 -20t-25.5 -51.5t-15 -68t-5 -69.5v-165
q0 -29 9.5 -43.5t24.5 -19t34 -4.5h21v-41h-250zM78 -208q5 23 10 47.5t9.5 50t7.5 49.5h82v-10q-7 -21 -19.5 -48t-26.5 -54t-27 -48h-36v13z" />
    <glyph glyph-name="Rcaron" unicode="&#x158;" horiz-adv-x="569" 
d="M31 0v41h14q18 0 33.5 4.5t24.5 19t9 43.5v497q0 30 -9.5 44.5t-24.5 19t-33 4.5h-14v41h237q78 0 128 -20t73.5 -62t23.5 -107q0 -56 -17.5 -93.5t-46.5 -60t-62 -34.5l115 -216q22 -39 42 -59.5t46 -20.5h3v-41h-15q-48 0 -78 7t-50.5 26.5t-38.5 56.5l-113 225h-71
v-207q0 -29 9 -43.5t23.5 -19t33.5 -4.5h10v-41h-252zM257 361q73 0 104.5 41t31.5 119q0 50 -13 82.5t-41.5 48t-75.5 15.5h-56v-306h50zM220 771q-8 23 -24 49.5t-32.5 52.5t-30.5 45v13h38l31.5 -31.5t32 -34t28.5 -35.5q13 18 28.5 35.5t32.5 34t32 31.5h38v-13
q-13 -19 -30 -45t-32 -52.5t-25 -49.5h-87z" />
    <glyph glyph-name="rcaron" unicode="&#x159;" horiz-adv-x="409" 
d="M26 0v41h3q19 0 34.5 5t25 20.5t9.5 47.5v313q0 30 -9 44.5t-24.5 19t-35.5 4.5h-2v41h140l14 -105h4q12 31 27 57.5t38 42t59 15.5q45 0 66 -20t21 -54q0 -31 -19.5 -49.5t-63.5 -18.5q0 28 -4 45t-13.5 25t-26.5 8q-21 0 -36.5 -20t-25.5 -51.5t-15 -68t-5 -69.5v-165
q0 -29 9.5 -43.5t24.5 -19t34 -4.5h21v-41h-250zM158 606q-8 23 -24 49.5t-32.5 52.5t-30.5 45v13h38l31.5 -31.5t32 -34t28.5 -35.5q13 18 28.5 35.5t32.5 34t32 31.5h38v-13q-13 -19 -30 -45t-32 -52.5t-25 -49.5h-87z" />
    <glyph glyph-name="Sacute" unicode="&#x15a;" horiz-adv-x="468" 
d="M223 -10q-47 0 -81.5 10t-57 28.5t-33.5 43.5t-11 55q0 21 8.5 36.5t23 24t35.5 8.5q2 -45 16.5 -81.5t41.5 -57t65 -20.5q55 0 85 32.5t30 91.5q0 41 -14.5 68.5t-44.5 50t-79 46.5q-51 27 -85 57t-50.5 69.5t-16.5 94.5q0 54 25 93.5t67.5 61.5t96.5 22
q53 0 89.5 -16.5t55.5 -42t19 -54.5q0 -32 -18.5 -47t-53.5 -15q0 33 -10.5 62t-32.5 47t-57 18q-48 0 -73.5 -31.5t-25.5 -85.5q0 -37 12 -63.5t41 -48t79 -47.5q52 -25 87.5 -54t54 -66.5t18.5 -91.5q0 -64 -26 -107.5t-72.5 -67t-107.5 -23.5zM188 784q14 24 29 49.5
t28.5 50.5t21.5 47h99v-10q-8 -13 -24 -32.5t-36.5 -40.5t-42 -41.5t-39.5 -35.5h-36v13z" />
    <glyph glyph-name="sacute" unicode="&#x15b;" horiz-adv-x="388" 
d="M184 -10q-46 0 -79.5 11.5t-52 35t-18.5 58.5q0 24 9 38t23 20t27 6q0 -52 22 -88t72 -36q46 0 68.5 24.5t22.5 66.5q0 25 -8.5 42t-30 33t-59.5 35q-47 24 -76.5 46.5t-43.5 51t-14 71.5q0 68 43.5 104t114.5 36q45 0 74 -13t44 -34t15 -46q0 -26 -15.5 -42t-45.5 -16
q0 53 -20.5 80t-59.5 27t-58 -22t-19 -57q0 -40 24 -61.5t80 -49.5q45 -21 73.5 -43.5t42.5 -52t14 -71.5q0 -72 -45 -113t-124 -41zM151 619q14 24 29 49.5t28.5 50.5t21.5 47h99v-10q-8 -13 -24 -32.5t-36.5 -40.5t-42 -41.5t-39.5 -35.5h-36v13z" />
    <glyph glyph-name="Scircumflex" unicode="&#x15c;" horiz-adv-x="468" 
d="M223 -10q-47 0 -81.5 10t-57 28.5t-33.5 43.5t-11 55q0 21 8.5 36.5t23 24t35.5 8.5q2 -45 16.5 -81.5t41.5 -57t65 -20.5q55 0 85 32.5t30 91.5q0 41 -14.5 68.5t-44.5 50t-79 46.5q-51 27 -85 57t-50.5 69.5t-16.5 94.5q0 54 25 93.5t67.5 61.5t96.5 22
q53 0 89.5 -16.5t55.5 -42t19 -54.5q0 -32 -18.5 -47t-53.5 -15q0 33 -10.5 62t-32.5 47t-57 18q-48 0 -73.5 -31.5t-25.5 -85.5q0 -37 12 -63.5t41 -48t79 -47.5q52 -25 87.5 -54t54 -66.5t18.5 -91.5q0 -64 -26 -107.5t-72.5 -67t-107.5 -23.5zM110 784q14 19 30.5 45
t32.5 53t24 49h87q10 -22 25 -49t32 -53t30 -45v-13h-38q-15 15 -32 31.5t-32.5 34t-28.5 35.5q-13 -18 -28.5 -35.5t-32 -34l-31.5 -31.5h-38v13z" />
    <glyph glyph-name="scircumflex" unicode="&#x15d;" horiz-adv-x="388" 
d="M184 -10q-46 0 -79.5 11.5t-52 35t-18.5 58.5q0 24 9 38t23 20t27 6q0 -52 22 -88t72 -36q46 0 68.5 24.5t22.5 66.5q0 25 -8.5 42t-30 33t-59.5 35q-47 24 -76.5 46.5t-43.5 51t-14 71.5q0 68 43.5 104t114.5 36q45 0 74 -13t44 -34t15 -46q0 -26 -15.5 -42t-45.5 -16
q0 53 -20.5 80t-59.5 27t-58 -22t-19 -57q0 -40 24 -61.5t80 -49.5q45 -21 73.5 -43.5t42.5 -52t14 -71.5q0 -72 -45 -113t-124 -41zM74 619q14 19 30.5 45t32.5 53t24 49h87q10 -22 25 -49t32 -53t30 -45v-13h-38q-15 15 -32 31.5t-32.5 34t-28.5 35.5q-13 -18 -28.5 -35.5
t-32 -34l-31.5 -31.5h-38v13z" />
    <glyph glyph-name="Scedilla" unicode="&#x15e;" horiz-adv-x="468" 
d="M223 -10q-47 0 -81.5 10t-57 28.5t-33.5 43.5t-11 55q0 21 8.5 36.5t23 24t35.5 8.5q2 -45 16.5 -81.5t41.5 -57t65 -20.5q55 0 85 32.5t30 91.5q0 41 -14.5 68.5t-44.5 50t-79 46.5q-51 27 -85 57t-50.5 69.5t-16.5 94.5q0 54 25 93.5t67.5 61.5t96.5 22
q53 0 89.5 -16.5t55.5 -42t19 -54.5q0 -32 -18.5 -47t-53.5 -15q0 33 -10.5 62t-32.5 47t-57 18q-48 0 -73.5 -31.5t-25.5 -85.5q0 -37 12 -63.5t41 -48t79 -47.5q52 -25 87.5 -54t54 -66.5t18.5 -91.5q0 -64 -26 -107.5t-72.5 -67t-107.5 -23.5zM211 -234q-13 0 -31.5 2.5
t-34.5 7.5v45q16 -4 31 -6t26 -2q26 0 41 14t15 43q0 30 -18.5 43t-47.5 17l17 79h40l-9 -45q26 -3 44.5 -14.5t29 -30.5t10.5 -46q0 -53 -30.5 -80t-82.5 -27z" />
    <glyph glyph-name="scedilla" unicode="&#x15f;" horiz-adv-x="388" 
d="M184 -10q-46 0 -79.5 11.5t-52 35t-18.5 58.5q0 24 9 38t23 20t27 6q0 -52 22 -88t72 -36q46 0 68.5 24.5t22.5 66.5q0 25 -8.5 42t-30 33t-59.5 35q-47 24 -76.5 46.5t-43.5 51t-14 71.5q0 68 43.5 104t114.5 36q45 0 74 -13t44 -34t15 -46q0 -26 -15.5 -42t-45.5 -16
q0 53 -20.5 80t-59.5 27t-58 -22t-19 -57q0 -40 24 -61.5t80 -49.5q45 -21 73.5 -43.5t42.5 -52t14 -71.5q0 -72 -45 -113t-124 -41zM164 -234q-13 0 -31.5 2.5t-34.5 7.5v45q16 -4 31 -6t26 -2q26 0 41 14t15 43q0 30 -18.5 43t-47.5 17l17 79h40l-9 -45q26 -3 44.5 -14.5
t29 -30.5t10.5 -46q0 -53 -30.5 -80t-82.5 -27z" />
    <glyph glyph-name="Scaron" unicode="&#x160;" horiz-adv-x="468" 
d="M223 -10q-47 0 -81.5 10t-57 28.5t-33.5 43.5t-11 55q0 21 8.5 36.5t23 24t35.5 8.5q2 -45 16.5 -81.5t41.5 -57t65 -20.5q55 0 85 32.5t30 91.5q0 41 -14.5 68.5t-44.5 50t-79 46.5q-51 27 -85 57t-50.5 69.5t-16.5 94.5q0 54 25 93.5t67.5 61.5t96.5 22
q53 0 89.5 -16.5t55.5 -42t19 -54.5q0 -32 -18.5 -47t-53.5 -15q0 33 -10.5 62t-32.5 47t-57 18q-48 0 -73.5 -31.5t-25.5 -85.5q0 -37 12 -63.5t41 -48t79 -47.5q52 -25 87.5 -54t54 -66.5t18.5 -91.5q0 -64 -26 -107.5t-72.5 -67t-107.5 -23.5zM195 771q-8 23 -24 49.5
t-32.5 52.5t-30.5 45v13h38l31.5 -31.5t32 -34t28.5 -35.5q13 18 28.5 35.5t32.5 34t32 31.5h38v-13q-13 -19 -30 -45t-32 -52.5t-25 -49.5h-87z" />
    <glyph glyph-name="scaron" unicode="&#x161;" horiz-adv-x="388" 
d="M184 -10q-46 0 -79.5 11.5t-52 35t-18.5 58.5q0 24 9 38t23 20t27 6q0 -52 22 -88t72 -36q46 0 68.5 24.5t22.5 66.5q0 25 -8.5 42t-30 33t-59.5 35q-47 24 -76.5 46.5t-43.5 51t-14 71.5q0 68 43.5 104t114.5 36q45 0 74 -13t44 -34t15 -46q0 -26 -15.5 -42t-45.5 -16
q0 53 -20.5 80t-59.5 27t-58 -22t-19 -57q0 -40 24 -61.5t80 -49.5q45 -21 73.5 -43.5t42.5 -52t14 -71.5q0 -72 -45 -113t-124 -41zM154 606q-8 23 -24 49.5t-32.5 52.5t-30.5 45v13h38l31.5 -31.5t32 -34t28.5 -35.5q13 18 28.5 35.5t32.5 34t32 31.5h38v-13
q-13 -19 -30 -45t-32 -52.5t-25 -49.5h-87z" />
    <glyph glyph-name="uni0162" unicode="&#x162;" horiz-adv-x="530" 
d="M126 0v41h18q19 0 35.5 4.5t26.5 19t10 43.5v557h-80q-36 0 -51 -25t-19 -58l-4 -42h-46l4 174h489l4 -174h-46l-5 42q-3 33 -18 58t-53 25h-80v-552q0 -31 9.5 -46.5t26 -20.5t36.5 -5h18v-41h-275zM246 -240q-9 0 -21 1.5t-23.5 4t-22.5 5.5v50q15 -4 31 -6t27 -2
q24 0 38 16t14 41q0 29 -18.5 44.5t-45.5 17.5l19 77h40l-8 -43q28 -2 46.5 -14t28 -31.5t9.5 -46.5q0 -53 -30 -83.5t-84 -30.5z" />
    <glyph glyph-name="uni0163" unicode="&#x163;" horiz-adv-x="309" 
d="M203 -10q-62 0 -91.5 34.5t-29.5 120.5v342h-66v33q22 4 39.5 12.5t30.5 24.5q14 16 23 38.5t15 63.5h46v-123h111v-49h-111v-344q0 -53 15.5 -76.5t45.5 -23.5q18 0 31.5 2t27.5 6v-46q-13 -5 -36.5 -10t-50.5 -5zM164 -240q-9 0 -21 1.5t-23.5 4t-22.5 5.5v50
q15 -4 31 -6t27 -2q24 0 38 16t14 41q0 29 -18.5 44.5t-45.5 17.5l19 77h40l-8 -43q28 -2 46.5 -14t28 -31.5t9.5 -46.5q0 -53 -30 -83.5t-84 -30.5z" />
    <glyph glyph-name="Tcaron" unicode="&#x164;" horiz-adv-x="530" 
d="M126 0v41h18q19 0 35.5 4.5t26.5 19t10 43.5v557h-80q-36 0 -51 -25t-19 -58l-4 -42h-46l4 174h489l4 -174h-46l-5 42q-3 33 -18 58t-53 25h-80v-552q0 -31 9.5 -46.5t26 -20.5t36.5 -5h18v-41h-275zM220 771q-8 23 -24 49.5t-32.5 52.5t-30.5 45v13h38l31.5 -31.5
t32 -34t28.5 -35.5q13 18 28.5 35.5t32.5 34t32 31.5h38v-13q-13 -19 -30 -45t-32 -52.5t-25 -49.5h-87z" />
    <glyph glyph-name="tcaron" unicode="&#x165;" horiz-adv-x="309" 
d="M228 613q6 23 11 47.5t9.5 50t7.5 49.5h78v-10q-7 -21 -19.5 -48t-26.5 -54t-26 -48h-34v13zM203 -10q-62 0 -91.5 34.5t-29.5 120.5v342h-66v33q22 4 39.5 12.5t30.5 24.5q14 16 23 38.5t15 63.5h46v-123h111v-49h-111v-344q0 -53 15.5 -76.5t45.5 -23.5q18 0 31.5 2
t27.5 6v-46q-13 -5 -36.5 -10t-50.5 -5z" />
    <glyph glyph-name="Tbar" unicode="&#x166;" horiz-adv-x="530" 
d="M128 0v41h23q17 0 32 4.5t24 19t9 43.5v225h-129v45h129v287h-80q-36 0 -51 -25t-19 -58l-4 -42h-46l4 174h489l4 -174h-46l-5 42q-1 22 -8.5 41t-22 30.5t-40.5 11.5h-80v-287h129v-45h-129v-220q0 -31 9 -46.5t24 -20.5t33 -5h22v-41h-271z" />
    <glyph glyph-name="tbar" unicode="&#x167;" horiz-adv-x="309" 
d="M23 291v43h244v-43h-244zM203 -10q-62 0 -91.5 34.5t-29.5 120.5v342h-66v33q22 4 39.5 12.5t30.5 24.5q14 16 23 38.5t15 63.5h46v-123h111v-49h-111v-344q0 -53 15.5 -76.5t45.5 -23.5q18 0 31.5 2t27.5 6v-46q-13 -5 -36.5 -10t-50.5 -5z" />
    <glyph glyph-name="Utilde" unicode="&#x168;" horiz-adv-x="616" 
d="M310 -10q-66 0 -115 22.5t-75 72.5t-26 131v389q0 30 -9.5 44.5t-25 19t-34.5 4.5h-12v41h256v-41h-11q-20 0 -35.5 -5t-24.5 -20t-9 -47v-391q0 -88 38.5 -124.5t100.5 -36.5q48 0 78.5 21t46 56.5t15.5 80.5v398q0 30 -9.5 44.5t-24.5 19t-35 4.5h-11v41h215v-41h-11
q-20 0 -36 -5t-25 -20t-9 -47v-396q0 -66 -23.5 -114t-71 -74.5t-117.5 -26.5zM383 771q-23 0 -41.5 9.5t-34 22t-30 22t-29.5 9.5q-22 0 -30.5 -16.5t-10.5 -36.5h-42q2 30 12.5 56.5t31 43t50.5 16.5q22 0 40.5 -9.5t34 -22t30 -22t28.5 -9.5q23 0 31.5 16.5t10.5 36.5h41
q-2 -29 -12 -56t-30 -43.5t-50 -16.5z" />
    <glyph glyph-name="utilde" unicode="&#x169;" horiz-adv-x="547" 
d="M232 -10q-70 0 -106.5 46.5t-36.5 149.5v241q0 30 -8.5 44.5t-23.5 19t-35 4.5h-3v41h159v-347q0 -45 7.5 -75.5t26.5 -46t52 -15.5q36 0 58.5 20.5t33 57.5t10.5 85v207q0 32 -8.5 47.5t-23.5 20.5t-34 5h-3v41h158v-427q0 -29 9.5 -44t25 -19.5t33.5 -4.5h4v-41h-143
l-12 82h-4q-25 -54 -58.5 -73t-77.5 -19zM330 606q-23 0 -41.5 9.5t-34 22t-30 22t-29.5 9.5q-22 0 -30.5 -16.5t-10.5 -36.5h-42q2 30 12.5 56.5t31 43t50.5 16.5q22 0 40.5 -9.5t34 -22t30 -22t28.5 -9.5q23 0 31.5 16.5t10.5 36.5h41q-2 -29 -12 -56t-30 -43.5t-50 -16.5
z" />
    <glyph glyph-name="Umacron" unicode="&#x16a;" horiz-adv-x="616" 
d="M310 -10q-66 0 -115 22.5t-75 72.5t-26 131v389q0 30 -9.5 44.5t-25 19t-34.5 4.5h-12v41h256v-41h-11q-20 0 -35.5 -5t-24.5 -20t-9 -47v-391q0 -88 38.5 -124.5t100.5 -36.5q48 0 78.5 21t46 56.5t15.5 80.5v398q0 30 -9.5 44.5t-24.5 19t-35 4.5h-11v41h215v-41h-11
q-20 0 -36 -5t-25 -20t-9 -47v-396q0 -66 -23.5 -114t-71 -74.5t-117.5 -26.5zM202 782v57h247v-57h-247z" />
    <glyph glyph-name="umacron" unicode="&#x16b;" horiz-adv-x="547" 
d="M232 -10q-70 0 -106.5 46.5t-36.5 149.5v241q0 30 -8.5 44.5t-23.5 19t-35 4.5h-3v41h159v-347q0 -45 7.5 -75.5t26.5 -46t52 -15.5q36 0 58.5 20.5t33 57.5t10.5 85v207q0 32 -8.5 47.5t-23.5 20.5t-34 5h-3v41h158v-427q0 -29 9.5 -44t25 -19.5t33.5 -4.5h4v-41h-143
l-12 82h-4q-25 -54 -58.5 -73t-77.5 -19zM139 617v57h247v-57h-247z" />
    <glyph glyph-name="Ubreve" unicode="&#x16c;" horiz-adv-x="616" 
d="M310 -10q-66 0 -115 22.5t-75 72.5t-26 131v389q0 30 -9.5 44.5t-25 19t-34.5 4.5h-12v41h256v-41h-11q-20 0 -35.5 -5t-24.5 -20t-9 -47v-391q0 -88 38.5 -124.5t100.5 -36.5q48 0 78.5 21t46 56.5t15.5 80.5v398q0 30 -9.5 44.5t-24.5 19t-35 4.5h-11v41h215v-41h-11
q-20 0 -36 -5t-25 -20t-9 -47v-396q0 -66 -23.5 -114t-71 -74.5t-117.5 -26.5zM319 771q-41 0 -68 18t-40 49t-14 68h42q7 -36 28.5 -52t52.5 -16t52 16t28 52h42q0 -37 -13.5 -68t-40.5 -49t-69 -18z" />
    <glyph glyph-name="ubreve" unicode="&#x16d;" horiz-adv-x="547" 
d="M232 -10q-70 0 -106.5 46.5t-36.5 149.5v241q0 30 -8.5 44.5t-23.5 19t-35 4.5h-3v41h159v-347q0 -45 7.5 -75.5t26.5 -46t52 -15.5q36 0 58.5 20.5t33 57.5t10.5 85v207q0 32 -8.5 47.5t-23.5 20.5t-34 5h-3v41h158v-427q0 -29 9.5 -44t25 -19.5t33.5 -4.5h4v-41h-143
l-12 82h-4q-25 -54 -58.5 -73t-77.5 -19zM267 606q-41 0 -68 18t-40 49t-14 68h42q7 -36 28.5 -52t52.5 -16t52 16t28 52h42q0 -37 -13.5 -68t-40.5 -49t-69 -18z" />
    <glyph glyph-name="Uring" unicode="&#x16e;" horiz-adv-x="616" 
d="M310 -10q-66 0 -115 22.5t-75 72.5t-26 131v389q0 30 -9.5 44.5t-25 19t-34.5 4.5h-12v41h256v-41h-11q-20 0 -35.5 -5t-24.5 -20t-9 -47v-391q0 -88 38.5 -124.5t100.5 -36.5q48 0 78.5 21t46 56.5t15.5 80.5v398q0 30 -9.5 44.5t-24.5 19t-35 4.5h-11v41h215v-41h-11
q-20 0 -36 -5t-25 -20t-9 -47v-396q0 -66 -23.5 -114t-71 -74.5t-117.5 -26.5zM317 761q-42 0 -72 28t-30 81t30 81t72 28q43 0 73 -28t30 -81t-30 -81t-73 -28zM317 806q24 0 41.5 14.5t17.5 49.5t-17.5 49.5t-40.5 14.5q-24 0 -41 -14.5t-17 -49.5t17 -49.5t40 -14.5z" />
    <glyph glyph-name="uring" unicode="&#x16f;" horiz-adv-x="547" 
d="M232 -10q-70 0 -106.5 46.5t-36.5 149.5v241q0 30 -8.5 44.5t-23.5 19t-35 4.5h-3v41h159v-347q0 -45 7.5 -75.5t26.5 -46t52 -15.5q36 0 58.5 20.5t33 57.5t10.5 85v207q0 32 -8.5 47.5t-23.5 20.5t-34 5h-3v41h158v-427q0 -29 9.5 -44t25 -19.5t33.5 -4.5h4v-41h-143
l-12 82h-4q-25 -54 -58.5 -73t-77.5 -19zM261 596q-42 0 -72 28t-30 81t30 81t72 28q43 0 73 -28t30 -81t-30 -81t-73 -28zM261 641q24 0 41.5 14.5t17.5 49.5t-17.5 49.5t-40.5 14.5q-24 0 -41 -14.5t-17 -49.5t17 -49.5t40 -14.5z" />
    <glyph glyph-name="Uhungarumlaut" unicode="&#x170;" horiz-adv-x="616" 
d="M310 -10q-66 0 -115 22.5t-75 72.5t-26 131v389q0 30 -9.5 44.5t-25 19t-34.5 4.5h-12v41h256v-41h-11q-20 0 -35.5 -5t-24.5 -20t-9 -47v-391q0 -88 38.5 -124.5t100.5 -36.5q48 0 78.5 21t46 56.5t15.5 80.5v398q0 30 -9.5 44.5t-24.5 19t-35 4.5h-11v41h215v-41h-11
q-20 0 -36 -5t-25 -20t-9 -47v-396q0 -66 -23.5 -114t-71 -74.5t-117.5 -26.5zM352 784q20 37 39 75t32 72h88v-10q-9 -17 -30 -45t-45.5 -56t-44.5 -49h-39v13zM197 784q20 37 39 75t32 72h88v-10q-9 -17 -30.5 -45t-45.5 -56t-44 -49h-39v13z" />
    <glyph glyph-name="uhungarumlaut" unicode="&#x171;" horiz-adv-x="547" 
d="M232 -10q-70 0 -106.5 46.5t-36.5 149.5v241q0 30 -8.5 44.5t-23.5 19t-35 4.5h-3v41h159v-347q0 -45 7.5 -75.5t26.5 -46t52 -15.5q36 0 58.5 20.5t33 57.5t10.5 85v207q0 32 -8.5 47.5t-23.5 20.5t-34 5h-3v41h158v-427q0 -29 9.5 -44t25 -19.5t33.5 -4.5h4v-41h-143
l-12 82h-4q-25 -54 -58.5 -73t-77.5 -19zM300 619q20 37 39 75t32 72h88v-10q-9 -17 -30 -45t-45.5 -56t-44.5 -49h-39v13zM145 619q20 37 39 75t32 72h88v-10q-9 -17 -30.5 -45t-45.5 -56t-44 -49h-39v13z" />
    <glyph glyph-name="Uogonek" unicode="&#x172;" horiz-adv-x="607" 
d="M316 -10q-66 0 -115 22.5t-75 72.5t-26 131v389q0 30 -9.5 44.5t-25 19t-34.5 4.5h-12v41h256v-41h-11q-20 0 -35.5 -5t-24.5 -20t-9 -47v-391q0 -88 38.5 -124.5t100.5 -36.5q48 0 78.5 21t46 56.5t15.5 80.5v398q0 30 -9.5 44.5t-24.5 19t-35 4.5h-11v41h215v-41h-11
q-20 0 -36 -5t-25 -20t-9 -47v-396q0 -66 -23.5 -114t-71 -74.5t-117.5 -26.5zM351 -240q-56 0 -87 26.5t-31 83.5q0 31 14 58t37 46t49 26h52q-18 -6 -36.5 -21.5t-31 -38.5t-12.5 -55q0 -33 17 -48.5t42 -15.5q12 0 25.5 2t28.5 6v-53q-9 -5 -21 -8.5t-24 -5.5t-22 -2z
" />
    <glyph glyph-name="uogonek" unicode="&#x173;" horiz-adv-x="547" 
d="M232 -10q-70 0 -106.5 46.5t-36.5 149.5v241q0 30 -8.5 44.5t-23.5 19t-35 4.5h-3v41h159v-347q0 -45 7.5 -75.5t26.5 -46t52 -15.5q36 0 58.5 20.5t33 57.5t10.5 85v207q0 32 -8.5 47.5t-23.5 20.5t-34 5h-3v41h158v-427q0 -29 9.5 -44t25 -19.5t33.5 -4.5h4v-41h-143
l-12 82h-4q-25 -54 -58.5 -73t-77.5 -19zM403 -234q-52 0 -82.5 24.5t-30.5 79.5q0 33 14 59.5t35.5 45t44.5 25.5h54q-19 -7 -37.5 -23.5t-31 -41t-12.5 -56.5t16 -47t42 -15q12 0 25 2.5t28 8.5v-48q-8 -5 -19.5 -8t-23.5 -4.5t-22 -1.5z" />
    <glyph glyph-name="Wcircumflex" unicode="&#x174;" horiz-adv-x="896" 
d="M78 620q-4 21 -12.5 32.5t-19.5 16t-28 4.5h-11v41h243v-41h-20q-26 0 -38.5 -10t-12.5 -29q0 -10 2.5 -21.5t4.5 -23.5l73 -327q7 -30 13 -58t11 -54.5t9 -50.5q6 40 16 86.5t22 98.5l103 423h72l99 -437q12 -49 21 -92t15 -80q4 24 8.5 47t10 49t12.5 57l75 321
q3 13 6.5 32t3.5 29q0 22 -14 31t-43 9h-19v41h211v-41h-17q-16 0 -28 -5.5t-20 -22.5t-17 -50l-141 -595h-89l-129 568l-134 -568h-90zM335 784q14 19 30.5 45t32.5 53t24 49h87q10 -22 25 -49t32 -53t30 -45v-13h-38q-15 15 -32 31.5t-32.5 34t-28.5 35.5
q-13 -18 -28.5 -35.5t-32 -34l-31.5 -31.5h-38v13z" />
    <glyph glyph-name="wcircumflex" unicode="&#x175;" horiz-adv-x="735" 
d="M64 442q-4 21 -12.5 32.5t-20 16t-27.5 4.5h-3v41h213v-41h-7q-26 0 -39 -8.5t-13 -33.5q0 -8 2.5 -20t5.5 -23l38 -171q5 -24 11 -53.5t11 -56.5t7 -43h3q2 16 8 41t13 53t14 50l89 303h53l83 -296q5 -17 10.5 -37.5t10.5 -42t9 -40.5t6 -32h2q4 25 12 63.5t19 84.5
l42 162q3 13 5 28t2 23q0 26 -13 37.5t-39 11.5h-6v41h182v-41h-11q-17 0 -28 -5.5t-19.5 -22.5t-16.5 -50l-111 -417h-72l-113 424l-117 -424h-70zM251 619q14 19 30.5 45t32.5 53t24 49h87q10 -22 25 -49t32 -53t30 -45v-13h-38q-15 15 -32 31.5t-32.5 34t-28.5 35.5
q-13 -18 -28.5 -35.5t-32 -34l-31.5 -31.5h-38v13z" />
    <glyph glyph-name="Ycircumflex" unicode="&#x176;" horiz-adv-x="543" 
d="M137 0v41h17q20 0 36 5t25.5 20t9.5 44v193l-157 317q-9 19 -17 30.5t-18.5 17t-25.5 5.5h-11v41h240v-41h-25q-24 0 -32 -9.5t-8 -21.5t5 -27t10 -26l63 -132q15 -30 26 -57.5t18 -50.5q8 20 21 48.5t27 59.5l54 112q9 19 13.5 35.5t4.5 28.5q0 22 -14.5 31t-39.5 9h-21
v41h208v-41h-9q-13 0 -23.5 -7t-22 -24t-26.5 -47l-144 -292v-188q0 -31 9.5 -47t25.5 -21.5t35 -5.5h19v-41h-273zM143 784q14 19 30.5 45t32.5 53t24 49h87q10 -22 25 -49t32 -53t30 -45v-13h-38q-15 15 -32 31.5t-32.5 34t-28.5 35.5q-13 -18 -28.5 -35.5t-32 -34
l-31.5 -31.5h-38v13z" />
    <glyph glyph-name="ycircumflex" unicode="&#x177;" horiz-adv-x="484" 
d="M31 -191q43 0 73.5 13.5t52.5 38t37.5 59.5t27.5 79l-156 443q-8 21 -15.5 32.5t-17.5 16t-27 4.5h-3v41h211v-41h-3q-29 0 -40.5 -10t-11.5 -28q0 -11 3.5 -25.5t9.5 -33.5l56 -166q10 -30 18 -57.5t14 -51t8 -40.5q6 28 14 58t18 65l55 197q5 14 7.5 27t2.5 26
q0 21 -13.5 29.5t-40.5 9.5h-3v41h176v-41h-2q-16 0 -27.5 -5t-20 -21t-18.5 -49l-130 -418q-22 -73 -42 -119.5t-45 -72.5t-63 -36.5t-96 -10.5h-9v46zM121 619q14 19 30.5 45t32.5 53t24 49h87q10 -22 25 -49t32 -53t30 -45v-13h-38q-15 15 -32 31.5t-32.5 34t-28.5 35.5
q-13 -18 -28.5 -35.5t-32 -34l-31.5 -31.5h-38v13z" />
    <glyph glyph-name="Ydieresis" unicode="&#x178;" horiz-adv-x="543" 
d="M137 0v41h17q20 0 36 5t25.5 20t9.5 44v193l-157 317q-9 19 -17 30.5t-18.5 17t-25.5 5.5h-11v41h240v-41h-25q-24 0 -32 -9.5t-8 -21.5t5 -27t10 -26l63 -132q15 -30 26 -57.5t18 -50.5q8 20 21 48.5t27 59.5l54 112q9 19 13.5 35.5t4.5 28.5q0 22 -14.5 31t-39.5 9h-21
v41h208v-41h-9q-13 0 -23.5 -7t-22 -24t-26.5 -47l-144 -292v-188q0 -31 9.5 -47t25.5 -21.5t35 -5.5h19v-41h-273zM359 803q-19 0 -32.5 11.5t-13.5 41.5t13.5 42t32.5 12q18 0 31.5 -11.5t13.5 -42.5q0 -30 -13.5 -41.5t-31.5 -11.5zM201 803q-18 0 -31 11.5t-13 41.5
t13 42t31 12t31.5 -11.5t13.5 -42.5q0 -30 -13.5 -41.5t-31.5 -11.5z" />
    <glyph glyph-name="Zacute" unicode="&#x179;" horiz-adv-x="516" 
d="M31 0v39l324 626h-186q-38 0 -52.5 -24.5t-17.5 -56.5l-4 -43h-47l4 173h413v-40l-325 -625h214q27 0 42.5 11.5t23 30t9.5 40.5l3 42h47l-3 -173h-445zM206 784q14 24 29 49.5t28.5 50.5t21.5 47h99v-10q-8 -13 -24 -32.5t-36.5 -40.5t-42 -41.5t-39.5 -35.5h-36v13z
" />
    <glyph glyph-name="zacute" unicode="&#x17a;" horiz-adv-x="439" 
d="M33 0v40l252 447h-126q-36 0 -49 -20.5t-22 -59.5l-3 -11h-40l10 140h334v-41l-253 -446h149q33 0 46.5 22.5t20.5 62.5l5 27h38l-5 -161h-357zM175 619q14 24 29 49.5t28.5 50.5t21.5 47h99v-10q-8 -13 -24 -32.5t-36.5 -40.5t-42 -41.5t-39.5 -35.5h-36v13z" />
    <glyph glyph-name="Zdotaccent" unicode="&#x17b;" horiz-adv-x="516" 
d="M31 0v39l324 626h-186q-38 0 -52.5 -24.5t-17.5 -56.5l-4 -43h-47l4 173h413v-40l-325 -625h214q27 0 42.5 11.5t23 30t9.5 40.5l3 42h47l-3 -173h-445zM271 805q-23 0 -38 13t-15 45q0 33 15 45.5t38 12.5q21 0 37 -12.5t16 -45.5q0 -32 -16 -45t-37 -13z" />
    <glyph glyph-name="zdotaccent" unicode="&#x17c;" horiz-adv-x="439" 
d="M33 0v40l252 447h-126q-36 0 -49 -20.5t-22 -59.5l-3 -11h-40l10 140h334v-41l-253 -446h149q33 0 46.5 22.5t20.5 62.5l5 27h38l-5 -161h-357zM230 640q-23 0 -38 13t-15 45q0 33 15 45.5t38 12.5q21 0 37 -12.5t16 -45.5q0 -32 -16 -45t-37 -13z" />
    <glyph glyph-name="Zcaron" unicode="&#x17d;" horiz-adv-x="516" 
d="M31 0v39l324 626h-186q-38 0 -52.5 -24.5t-17.5 -56.5l-4 -43h-47l4 173h413v-40l-325 -625h214q27 0 42.5 11.5t23 30t9.5 40.5l3 42h47l-3 -173h-445zM221 771q-8 23 -24 49.5t-32.5 52.5t-30.5 45v13h38l31.5 -31.5t32 -34t28.5 -35.5q13 18 28.5 35.5t32.5 34
t32 31.5h38v-13q-13 -19 -30 -45t-32 -52.5t-25 -49.5h-87z" />
    <glyph glyph-name="zcaron" unicode="&#x17e;" horiz-adv-x="439" 
d="M33 0v40l252 447h-126q-36 0 -49 -20.5t-22 -59.5l-3 -11h-40l10 140h334v-41l-253 -446h149q33 0 46.5 22.5t20.5 62.5l5 27h38l-5 -161h-357zM187 606q-8 23 -24 49.5t-32.5 52.5t-30.5 45v13h38l31.5 -31.5t32 -34t28.5 -35.5q13 18 28.5 35.5t32.5 34t32 31.5h38v-13
q-13 -19 -30 -45t-32 -52.5t-25 -49.5h-87z" />
    <glyph glyph-name="longs" unicode="&#x17f;" horiz-adv-x="308" 
d="M10 0v41h13q20 0 35 5.5t24 21t9 47.5v472q0 89 42 136t117 47q45 0 71.5 -9.5t37.5 -25.5t11 -36q0 -25 -19.5 -39.5t-51.5 -14.5q0 33 -11.5 56.5t-43.5 23.5q-36 0 -50 -34t-14 -96v-480q0 -31 8.5 -47t24 -21.5t35.5 -5.5h34v-41h-272z" />
    <glyph glyph-name="uni0180" unicode="&#x180;" horiz-adv-x="529" 
d="M309 -10q-49 0 -80 24.5t-50 63.5h-6l-17 -78h-141v41h7q19 0 34.5 5t25 20.5t9.5 46.5v484h-75v42h75v12q0 30 -9.5 44.5t-25 19t-34.5 4.5h-7v41h165v-121h144v-42h-144v-34q0 -22 -0.5 -53t-1.5 -54.5l-1 -23.5h3q18 41 50 68t83 27q82 0 126 -64t44 -200
q0 -93 -20.5 -154t-59.5 -90t-94 -29zM292 48q36 0 58 27t32 76t10 114q0 102 -23 153.5t-78 51.5q-63 0 -87 -53.5t-24 -152.5q0 -104 24 -160t88 -56z" />
    <glyph glyph-name="uni0181" unicode="&#x181;" horiz-adv-x="645" 
d="M109 0v41h16q20 0 34 5.5t22.5 21t8.5 45.5v487q0 40 -14.5 56.5t-41.5 16.5q-28 0 -41.5 -18t-13.5 -48q0 -17 4.5 -29t12.5 -24q-7 -7 -16 -11.5t-20 -4.5q-25 0 -38 18.5t-13 48.5q0 36 15.5 60t46.5 36.5t78 12.5h196q113 0 168.5 -42t55.5 -133q0 -44 -14.5 -75
t-39.5 -51.5t-57 -31.5v-5q41 -6 71.5 -28.5t48 -61.5t17.5 -93q0 -97 -55 -145t-169 -48h-262zM365 49q68 0 98.5 33t30.5 114q0 52 -12 86t-40 51t-75 17h-83v-301h81zM341 399q49 0 76.5 14.5t40 44.5t12.5 77q0 74 -30.5 102t-100.5 28h-55v-266h57z" />
    <glyph glyph-name="uni0182" unicode="&#x182;" horiz-adv-x="540" 
d="M32 0v41h17q18 0 32.5 5t23 19.5t8.5 43.5v495q0 29 -9 44t-23.5 20t-33.5 5h-15v41h421l5 -179h-48l-4 43q-2 22 -10 40.5t-23.5 30t-40.5 11.5h-124v-245h72q75 0 124 -23t73 -68.5t24 -113.5q0 -64 -24.5 -111.5t-73.5 -73t-123 -25.5h-248zM208 54h59q69 0 100 37.5
t31 118.5q0 83 -31 117t-100 34h-59v-307z" />
    <glyph glyph-name="uni0183" unicode="&#x183;" horiz-adv-x="529" 
d="M309 -10q-49 0 -80 24.5t-50 63.5h-6l-17 -78h-141v41h7q19 0 34.5 5t25 20.5t9.5 46.5v538q0 30 -9.5 44.5t-25 19t-34.5 4.5h-7v41h423v-150h-41l-5 30q-5 31 -12.5 47t-21 21.5t-35.5 5.5h-143v-139v-39t-1 -43t-1.5 -35l-0.5 -14h3q18 47 49.5 74.5t82.5 27.5
q83 0 127 -66.5t44 -210.5q0 -96 -20.5 -158t-59.5 -91.5t-94 -29.5zM292 48q54 0 77 57.5t23 165.5q0 111 -23 164.5t-78 53.5q-63 0 -87 -55.5t-24 -163.5q0 -71 10 -120.5t34.5 -75.5t67.5 -26z" />
    <glyph glyph-name="uni0184" unicode="&#x184;" horiz-adv-x="512" 
d="M278 -10q-67 0 -107.5 24.5t-58.5 70t-18 106.5v410q0 32 -8.5 47t-23.5 20t-35 5h-14v41h270v-41h-26q-20 0 -35 -4.5t-24 -19t-9 -44.5v-210h56q82 0 132.5 -25.5t74.5 -70.5t24 -105q0 -58 -21 -104.5t-64.5 -73t-112.5 -26.5zM280 40q34 0 55 17t30.5 50.5t9.5 83.5
q0 85 -34 121t-109 36h-43v-163q0 -74 20 -109.5t71 -35.5z" />
    <glyph glyph-name="uni0185" unicode="&#x185;" horiz-adv-x="521" 
d="M274 -10q-48 0 -84 16t-60.5 48.5t-37 83.5t-12.5 121v391q0 30 -9 45t-24.5 19.5t-34.5 4.5h-6v41h164v-185q0 -22 -1 -52t-2 -53t-2 -26h4q19 44 50.5 73t82.5 29q80 0 125.5 -64.5t45.5 -211.5q0 -97 -23 -159t-67 -91.5t-109 -29.5zM277 40q34 0 57.5 21t35 71.5
t11.5 137.5q0 111 -23 165t-78 54q-64 0 -87.5 -58t-23.5 -166q0 -81 10.5 -130t34.5 -72t63 -23z" />
    <glyph glyph-name="uni0186" unicode="&#x186;" horiz-adv-x="528" 
d="M219 -10q-68 0 -108 18.5t-57 45.5t-17 52q0 37 19.5 55.5t59.5 18.5q0 -33 9.5 -64.5t33 -52.5t63.5 -21q54 0 88 40.5t51 112t17 163.5q0 80 -8 139t-25.5 97.5t-45 57.5t-66.5 19q-38 0 -64 -18.5t-39 -50t-13 -69.5q-24 0 -40 7t-23.5 20.5t-7.5 32.5q0 28 12.5 51.5
t37.5 41.5t60.5 28t79.5 10q77 0 131.5 -39.5t84 -120t29.5 -202.5q0 -111 -30 -194.5t-88.5 -130.5t-143.5 -47z" />
    <glyph glyph-name="uni0187" unicode="&#x187;" horiz-adv-x="533" 
d="M315 -10q-88 0 -147.5 46t-89.5 128.5t-30 193.5q0 110 31 192t92.5 128t152.5 46q43 0 74.5 -9.5t54.5 -25.5v24q0 39 9 71.5t29 52t52 19.5q30 0 48.5 -13.5t18.5 -41.5q0 -12 -4 -21.5t-9 -14.5q-11 7 -21 11.5t-24 4.5q-23 0 -36.5 -17t-13.5 -64v-86
q0 -35 -21.5 -52.5t-56.5 -17.5q0 32 -10 61t-33 48t-64 19q-59 0 -96 -37.5t-53.5 -108t-16.5 -168.5q0 -95 18.5 -164.5t58 -107t101.5 -37.5q42 0 71 12.5t49 33t36 44.5q6 -4 10.5 -14t4.5 -22q0 -18 -11 -37.5t-33 -36.5t-57.5 -28t-83.5 -11z" />
    <glyph glyph-name="uni0188" unicode="&#x188;" horiz-adv-x="425" 
d="M244 -10q-58 0 -103 28t-70 89t-25 158q0 107 25.5 168.5t69.5 87t98 25.5q31 0 58 -7t46 -19v93q0 41 9.5 74.5t29.5 53t53 19.5q30 0 47.5 -13.5t17.5 -41.5q0 -12 -3.5 -20.5t-9.5 -15.5q-9 8 -19 12t-25 4q-23 0 -37 -16.5t-14 -64.5v-160q0 -23 -8.5 -36.5t-27 -19
t-46.5 -5.5q0 31 -6 57t-21 41.5t-43 15.5q-31 0 -54.5 -20.5t-36 -70.5t-12.5 -140q0 -71 12.5 -120t38.5 -73.5t67 -24.5q31 0 54.5 11t40.5 29t26 39q8 -6 11.5 -15t3.5 -23q0 -22 -15.5 -44.5t-48 -38.5t-83.5 -16z" />
    <glyph glyph-name="uni0189" unicode="&#x189;" horiz-adv-x="627" 
d="M31 0v41h17q19 0 33.5 5.5t23 21t8.5 45.5v237h-80v47h80v208q0 29 -9 43.5t-24 19.5t-34 5h-15v41h265q89 0 152.5 -41.5t96.5 -121.5t33 -194q0 -109 -31.5 -189t-94 -124t-156.5 -44h-265zM277 50q66 0 110 35.5t66 104t22 167.5t-22 168t-66 104.5t-110 35.5h-70
v-268h137v-47h-137v-300h70z" />
    <glyph glyph-name="uni018A" unicode="&#x18a;" horiz-adv-x="704" 
d="M109 0v41h16q19 0 33.5 5.5t23 21t8.5 45.5v487q0 40 -14.5 56.5t-41.5 16.5q-28 0 -41.5 -18t-13.5 -48q0 -17 4.5 -29t12.5 -24q-7 -7 -16 -11.5t-20 -4.5q-25 0 -38 18.5t-13 48.5q0 36 15.5 60t46.5 36.5t78 12.5h224q89 0 152.5 -42t96.5 -121.5t33 -193.5
q0 -109 -31.5 -189.5t-94 -124t-156.5 -43.5h-264zM354 50q66 0 110 35.5t66.5 104t22.5 167.5t-22.5 168t-66 104.5t-109.5 35.5h-71v-615h70z" />
    <glyph glyph-name="uni018B" unicode="&#x18b;" horiz-adv-x="522" 
d="M239 0q-73 0 -119.5 24.5t-69 69.5t-22.5 103q0 60 23 104.5t73 69t132 24.5h58v270h-121q-43 0 -57.5 -21t-18.5 -61l-4 -42h-47l4 173h419v-41h-15q-19 0 -34 -5t-23.5 -20t-8.5 -47v-492q0 -30 9 -44.5t24 -19t34 -4.5h14v-41h-250zM259 47h55v302h-43q-74 0 -108 -36
t-34 -120q0 -50 13 -82t42 -48t75 -16z" />
    <glyph glyph-name="uni018C" unicode="&#x18c;" horiz-adv-x="529" 
d="M218 -10q-56 0 -94.5 29t-58.5 90.5t-20 157.5q0 145 45 212t130 67q49 0 79.5 -24.5t48.5 -63.5h5q0 2 -0.5 14.5t-1.5 30.5t-1 35v26v150h-144q-21 0 -34.5 -5.5t-21.5 -21.5t-13 -47l-4 -30h-42v150h347v-649q0 -29 9 -44.5t24.5 -20.5t34.5 -5h8v-41h-150l-10 91h-3
q-20 -46 -51 -73.5t-82 -27.5zM238 48q61 0 86.5 58t25.5 161q0 107 -24.5 164t-88.5 57q-54 0 -77 -57t-23 -165q0 -110 23.5 -164t77.5 -54z" />
    <glyph glyph-name="uni018D" unicode="&#x18d;" horiz-adv-x="498" 
d="M259 546q57 0 102 -26.5t70 -77.5t25 -124q0 -70 -22.5 -118.5t-62 -80t-89.5 -47.5q29 -22 54.5 -44t41 -49.5t15.5 -67.5q0 -44 -20.5 -75t-57.5 -48t-88 -17t-85 16.5t-51.5 41t-17.5 47.5q0 32 18 47t48 15q0 -33 9.5 -61t30.5 -44.5t54 -16.5q42 0 63.5 21.5
t21.5 58.5q0 28 -11.5 48t-37 41t-67.5 51q-45 35 -79.5 72t-54 85t-19.5 113q0 78 28 131.5t75.5 81t106.5 27.5zM258 495q-37 0 -63.5 -22t-40.5 -62t-14 -92q0 -59 15.5 -100.5t40.5 -70.5t53 -50q31 11 57.5 38.5t43 73t16.5 111.5q0 57 -13.5 95.5t-38 58t-56.5 20.5z
" />
    <glyph glyph-name="uni018E" unicode="&#x18e;" horiz-adv-x="536" 
d="M504 0h-465l-5 174h47l5 -42q4 -22 12.5 -41t26 -30.5t44.5 -11.5h160v301h-205v48h205v267h-140q-25 0 -41 -11.5t-24 -30.5t-10 -41l-4 -42h-48l4 174h438v-41h-15q-18 0 -33 -5t-24 -20t-9 -47v-493q0 -28 8.5 -42.5t23 -19.5t34.5 -5h15v-41z" />
    <glyph glyph-name="uni018F" unicode="&#x18f;" horiz-adv-x="595" 
d="M287 -9q-65 0 -111 25.5t-74 73.5t-41 116t-13 152v25h397q-2 66 -14.5 118.5t-36 89t-57 56t-76.5 19.5q-51 0 -91.5 -20.5t-74.5 -53.5q-4 6 -6 13t-2 17q0 21 15.5 40t42.5 33t61 22t72 8q87 0 147.5 -44.5t91.5 -126t31 -190.5q0 -115 -32 -199t-90.5 -129
t-138.5 -45zM290 43q51 0 84.5 36.5t51 101.5t19.5 152h-296q0 -60 7 -112.5t23 -92.5t43 -62.5t68 -22.5z" />
    <glyph glyph-name="uni0190" unicode="&#x190;" horiz-adv-x="502" 
d="M269 -10q-48 0 -88.5 12.5t-70.5 37.5t-47 63.5t-17 89.5q0 47 13 79t35.5 53t48.5 32.5t51 15.5q-36 9 -66.5 29.5t-48.5 55t-18 86.5q0 60 24.5 100t70.5 60t110 20q48 0 83.5 -10.5t59 -28.5t35.5 -41.5t12 -48.5q0 -23 -10.5 -37t-28.5 -20t-41 -6q0 41 -9 73
t-33 50.5t-68 18.5q-39 0 -63.5 -15.5t-36 -44t-11.5 -68.5q0 -47 16 -80.5t46 -52t72 -18.5h73v-50h-74q-74 0 -110 -39t-36 -105q0 -53 16.5 -86.5t47 -49.5t69.5 -16q40 0 71.5 10.5t56.5 31.5t42 51q8 -5 12.5 -14.5t4.5 -23.5q0 -24 -21 -51t-63.5 -45t-108.5 -18z" />
    <glyph glyph-name="uni0191" unicode="&#x191;" horiz-adv-x="609" 
d="M139 -240q-43 0 -74 12t-48 35.5t-17 60.5q0 24 10 38t24.5 20t31.5 6q0 -54 15 -90.5t58 -36.5q42 0 58 33t16 91v676q0 29 -8.5 43.5t-23.5 19.5t-33 5h-16v41h437l5 -174h-47l-5 43q-2 22 -10 40.5t-23.5 30t-41.5 11.5h-140v-270h205v-49h-205v-399q0 -59 -20 -101
t-57.5 -64t-90.5 -22z" />
    <glyph glyph-name="fhook" unicode="&#x192;" horiz-adv-x="382" 
d="M104 -240q-36 0 -61 10.5t-38 30t-13 44.5q0 18 8.5 31t23 19.5t34.5 6.5q0 -29 5 -51t16.5 -34t28.5 -12q31 0 44 32.5t13 95.5v555h-77v48h77v51q0 89 41.5 136t117.5 47q44 0 69 -9t36.5 -24.5t11.5 -35.5q0 -17 -8 -30t-24 -20t-39 -7q0 21 -5 39.5t-16 30t-32 11.5
q-35 0 -49 -33.5t-14 -95.5v-60h120v-48h-120v-549q0 -60 -18 -100t-51.5 -59.5t-80.5 -19.5z" />
    <glyph glyph-name="uni0193" unicode="&#x193;" horiz-adv-x="617" 
d="M346 -10q-100 0 -166.5 46t-99 128.5t-32.5 193.5q0 108 34 190.5t101.5 129t166.5 46.5q48 0 84 -9.5t60 -26.5v23q0 41 9.5 73.5t29 52t52.5 19.5q30 0 48 -13.5t18 -41.5q0 -13 -3.5 -22t-9.5 -14q-10 7 -20.5 11.5t-24.5 4.5q-23 0 -36.5 -17t-13.5 -63v-83
q0 -23 -8.5 -40t-26.5 -26t-45 -9q0 31 -11.5 60.5t-37 49t-67.5 19.5q-68 0 -111 -35t-63.5 -105t-20.5 -174q0 -101 20 -171t65.5 -106.5t121.5 -36.5q23 0 45 3t39 10v164q0 30 -8 44.5t-23 18.5t-34 4h-7v41h227v-41h-6q-17 0 -29 -4.5t-18.5 -19.5t-6.5 -47v-182
q-44 -22 -90 -33.5t-102 -11.5z" />
    <glyph glyph-name="uni0194" unicode="&#x194;" horiz-adv-x="579" 
d="M280 -240q-30 0 -52 13t-34.5 42.5t-12.5 77.5q0 34 8.5 73.5t24 84t38.5 92.5l-178 477q-7 20 -15 31.5t-19 16.5t-28 5h-11v41h241v-41h-18q-29 0 -40.5 -11t-11.5 -32q0 -11 2.5 -23t7.5 -26l124 -344l131 343q5 12 7 23.5t2 20.5q0 28 -14 38.5t-42 10.5h-19v41h208
v-41h-13q-17 0 -27.5 -7.5t-19.5 -24.5t-22 -46l-164 -422q23 -59 37 -106t21 -85.5t7 -72.5q0 -69 -30 -109t-88 -40zM273 -187q19 0 30.5 20t11.5 60q0 32 -4.5 62.5t-13 61.5t-19.5 63q-14 -35 -24.5 -69t-15.5 -64t-5 -56q0 -44 11.5 -61t28.5 -17z" />
    <glyph glyph-name="uni0195" unicode="&#x195;" horiz-adv-x="784" 
d="M532 -9q-89 0 -131.5 47.5t-42.5 144.5v163q0 65 -19 101t-64 36q-33 0 -54.5 -20t-31 -56.5t-9.5 -85.5v-213q0 -29 9 -43.5t24.5 -19t34.5 -4.5h3v-41h-236v41h7q20 0 35 5t24 20.5t9 46.5v538q0 30 -9.5 44.5t-25 19t-33.5 4.5h-7v41h165v-226q0 -17 -0.5 -35.5
t-1 -31.5l-0.5 -13h3q11 26 27.5 47t41.5 33t59 12q65 0 101 -47t36 -150v-175q0 -40 7.5 -69.5t26.5 -46t52 -16.5t52 16.5t26.5 49t7.5 76.5v241q0 30 -8 44.5t-22.5 20t-36.5 5.5h-2v41h158v-345q0 -65 -19.5 -109.5t-58.5 -67.5t-97 -23z" />
    <glyph glyph-name="uni0196" unicode="&#x196;" horiz-adv-x="319" 
d="M222 -10q-40 0 -64.5 14.5t-35.5 45t-11 78.5v473q0 32 -9 47t-24 20t-33 5h-15v41h256v-41h-15q-18 0 -33.5 -5t-24 -20t-8.5 -47v-479q0 -28 4 -45.5t15 -27t29 -9.5q9 0 17 2l16 4v-43q-9 -4 -26 -8.5t-38 -4.5z" />
    <glyph glyph-name="uni0197" unicode="&#x197;" horiz-adv-x="318" 
d="M31 0v41h17q18 0 32.5 5t23 20.5t8.5 44.5v238h-100v49h100v203q0 31 -8.5 46t-23 20.5t-32.5 5.5h-17v41h257v-41h-18q-18 0 -32.5 -5.5t-22.5 -20.5t-8 -46v-203h99v-49h-99v-237q0 -30 8 -45t23 -20.5t32 -5.5h18v-41h-257z" />
    <glyph glyph-name="uni0198" unicode="&#x198;" horiz-adv-x="603" 
d="M31 0v41h15q19 0 34 5t23.5 19t8.5 43v498q0 29 -8.5 43t-23.5 19t-33 5h-16v41h252v-41h-12q-18 0 -33 -5t-23 -20t-8 -45v-275l185 265q34 47 56.5 75t42.5 40.5t46 12.5q31 0 47 -19.5t16 -50.5q0 -18 -6.5 -31.5t-16.5 -20.5t-21 -7q-4 22 -13.5 35t-30.5 13
q-15 0 -28 -10t-30 -32l-121 -172l189 -304q17 -27 32.5 -45t30.5 -27t30 -9h2v-41h-25q-37 0 -62.5 4t-43 14.5t-32.5 29.5t-32 48l-151 257l-64 -76v-166q0 -29 8.5 -44.5t23.5 -20.5t34 -5h10v-41h-252z" />
    <glyph glyph-name="uni0199" unicode="&#x199;" horiz-adv-x="507" 
d="M15 0v41h8q18 0 33.5 5t25 20.5t9.5 46.5v462q0 66 15.5 108.5t47.5 62.5t82 20q39 0 62 -12t33 -29.5t10 -37.5q0 -14 -6.5 -26.5t-21 -19.5t-41.5 -7q0 20 -3 39t-12 31.5t-28 12.5q-28 0 -38.5 -28.5t-10.5 -94.5v-219q0 -13 -0.5 -34t-1.5 -42.5t-1.5 -36.5t-0.5 -16
l107 139q19 24 28.5 40t13.5 27.5t4 19.5q0 13 -10.5 18t-31.5 5v41h190v-41q-20 0 -39 -11t-38.5 -32t-42.5 -51l-57 -75l113 -201q23 -40 43.5 -62t47.5 -22h4v-41h-12q-39 0 -64.5 3.5t-43 13t-32.5 30.5t-33 54l-84 161l-59 -68v-86q0 -29 9.5 -43.5t25.5 -19t33 -4.5h4
v-41h-237z" />
    <glyph glyph-name="uni019A" unicode="&#x19a;" horiz-adv-x="270" 
d="M12 0v41h11q20 0 35 5.5t24 21t9 47.5v252h-85v44h85v239q0 31 -9.5 45.5t-25 19t-33.5 4.5h-11v41h168v-349h84v-44h-84v-252q0 -31 8.5 -47t24 -21.5t35.5 -5.5h10v-41h-246z" />
    <glyph glyph-name="uni019B" unicode="&#x19b;" horiz-adv-x="462" 
d="M235 512q-5 30 -11 53.5t-11 42.5l-103 -67v50l84 57q-10 23 -21.5 35.5t-24 17t-25.5 4.5q-24 0 -41.5 -12.5t-26.5 -27.5q-6 7 -10 17.5t-4 23.5q0 26 20 45t59 19q24 0 45 -9.5t39 -30.5t33 -56l104 68v-50l-87 -58q6 -17 11.5 -35t9.5 -39l70 -321q17 -73 35 -116.5
t37 -62.5t38 -19h4v-41h-15q-36 0 -59.5 10.5t-39 37t-29.5 74.5q-7 28 -14.5 61.5t-14 68t-11.5 66t-8.5 55t-5.5 35.5h-3q-4 -16 -12.5 -42t-19 -54.5t-19.5 -51.5l-106 -260h-96z" />
    <glyph glyph-name="uni019C" unicode="&#x19c;" horiz-adv-x="915" 
d="M259 -10q-49 0 -86 20.5t-58 65.5t-21 119v410q0 29 -8.5 43.5t-23.5 19.5t-35 5h-13v41h247v-41h-11q-20 0 -34.5 -5t-22 -20.5t-7.5 -46.5v-401q0 -49 10.5 -82t30.5 -49t52 -16q40 0 66 19t39 58.5t13 100.5v374q0 29 -7.5 43.5t-20.5 19.5t-33 5h-12v41h237v-41h-12
q-20 0 -33.5 -5t-20 -20.5t-6.5 -46.5v-399q0 -50 11.5 -83.5t32 -49t48.5 -15.5q41 0 67.5 24t39 65t12.5 93v365q0 31 -8.5 46t-24 20.5t-35.5 5.5h-10v41h250v-41h-13q-20 0 -35 -5t-23.5 -20.5t-8.5 -46.5v-488q0 -31 8.5 -46.5t23.5 -20.5t34 -5h14v-41h-156l-12 93h-2
q-22 -47 -54.5 -75t-89.5 -28q-36 0 -64.5 12.5t-48.5 37t-32 61.5q-15 -34 -35.5 -59t-49.5 -38.5t-69 -13.5z" />
    <glyph glyph-name="uni019D" unicode="&#x19d;" horiz-adv-x="652" 
d="M0 -240v47h9q33 0 55 16t33 56t11 109v617q0 30 -8.5 44.5t-24 19t-34.5 4.5h-14v41h161l306 -561v452q0 29 -8.5 43.5t-23 19.5t-34.5 5h-14v41h215v-41h-14q-19 0 -34.5 -5.5t-24 -20.5t-8.5 -46v-601h-60l-326 589v-613q0 -85 -16 -132t-47.5 -65.5t-76.5 -18.5h-22z
" />
    <glyph glyph-name="uni019E" unicode="&#x19e;" horiz-adv-x="553" 
d="M303 -240v41h7q20 0 34.5 5t22.5 20.5t8 47.5v472q0 65 -19.5 101.5t-67.5 36.5q-38 0 -60 -23t-31.5 -60t-9.5 -80v-213q0 -29 9 -43.5t24 -19t33 -4.5h5v-41h-236v41h9q19 0 34.5 5t24 20.5t8.5 47.5v313q0 30 -9 44.5t-24 19t-34 4.5h-4v41h146l11 -82h4q24 54 58 73
t75 19q67 0 104.5 -46.5t37.5 -150.5v-479q0 -29 8 -44t22.5 -20t33.5 -5h5v-41h-229z" />
    <glyph glyph-name="uni019F" unicode="&#x19f;" horiz-adv-x="640" 
d="M320 -10q-92 0 -152.5 46t-90 129t-29.5 194t29.5 193t90.5 127.5t153 45.5q87 0 147.5 -45.5t92 -128t31.5 -193.5t-31.5 -193.5t-92 -128.5t-148.5 -46zM320 43q92 0 130 80.5t40 225.5h-339q2 -145 41 -225.5t128 -80.5zM489 398q-4 87 -22 148t-53.5 93.5t-92.5 32.5
q-85 0 -125 -72t-45 -202h338z" />
    <glyph glyph-name="Ohorn" unicode="&#x1a0;" horiz-adv-x="674" 
d="M320 -10q-91 0 -152 46t-90.5 129t-29.5 194t29.5 193t90.5 127.5t153 45.5q81 0 138.5 -38t90.5 -106q20 7 32.5 16.5t18 22.5t5.5 29q0 12 -5 19t-12 14t-12 16.5t-5 23.5q0 22 12.5 35t34.5 13q24 0 38.5 -17.5t14.5 -51.5q0 -38 -13 -68.5t-37 -52t-58 -33.5
q14 -39 21 -87t7 -102q0 -111 -31.5 -193.5t-92 -128.5t-148.5 -46zM320 43q62 0 99.5 37.5t53.5 108t16 169.5q0 100 -16 170t-53 107t-99 37q-91 0 -130.5 -82.5t-39.5 -231.5q0 -99 17 -169.5t54.5 -108t97.5 -37.5z" />
    <glyph glyph-name="ohorn" unicode="&#x1a1;" horiz-adv-x="536" 
d="M248 -10q-94 0 -148 69t-54 210q0 140 51.5 208.5t153.5 68.5q60 0 104 -26.5t68 -80.5q29 11 44 27.5t15 40.5q0 12 -5.5 19t-12.5 14t-12.5 16.5t-5.5 23.5q0 22 12.5 35t33.5 13q24 0 39 -17.5t15 -51.5q0 -39 -13 -69t-38 -51t-59 -34q7 -28 11.5 -62t4.5 -74
q0 -141 -52 -210t-152 -69zM250 41q41 0 65 26t35 76.5t11 125.5q0 112 -25.5 168.5t-86.5 56.5t-86.5 -56.5t-25.5 -168.5t26 -170t87 -58z" />
    <glyph glyph-name="uni01A2" unicode="&#x1a2;" horiz-adv-x="955" 
d="M683 -240v41h14q20 0 34.5 5t22 21t7.5 47v645q0 67 -22 105.5t-76 38.5q-52 0 -78.5 -44.5t-27.5 -138.5v-139q0 -87 -16.5 -152.5t-48 -109.5t-77.5 -66.5t-106 -22.5q-87 0 -145 46t-87 129t-29 194t29 193t88.5 127.5t146.5 45.5q53 0 93.5 -15.5t70.5 -45t51 -72.5
q18 57 57 94.5t100 37.5q53 0 91.5 -20.5t59.5 -66t21 -123.5v-643q0 -29 8.5 -44t23.5 -20.5t35 -5.5h14v-41h-254zM309 43q38 0 66.5 17t48 52t29 88.5t9.5 127.5v122q0 78 -18 126.5t-51 72t-78 23.5q-58 0 -94 -37t-53 -107t-17 -170q0 -151 38 -233t120 -82z" />
    <glyph glyph-name="uni01A3" unicode="&#x1a3;" horiz-adv-x="742" 
d="M567 374q0 56 -14.5 83t-46.5 27q-28 0 -42.5 -18.5t-20.5 -50t-6 -71.5v-79q0 -140 -50 -207.5t-146 -67.5q-89 0 -142 68.5t-53 210.5t51 209.5t147 67.5q61 0 102 -27t64 -80h3q15 51 44.5 79t77.5 28q40 0 67 -18.5t40.5 -56t13.5 -97.5v-501q0 -31 8 -46.5
t22.5 -20.5t33.5 -5h3v-41h-156v614zM242 41q38 0 61 25t34 76t11 127q0 114 -24.5 169.5t-81.5 55.5q-56 0 -80.5 -56t-24.5 -169q0 -114 25 -171t80 -57z" />
    <glyph glyph-name="uni01A4" unicode="&#x1a4;" horiz-adv-x="598" 
d="M109 0v41h13q20 0 35.5 5t24 20.5t8.5 46.5v487q0 40 -14.5 56.5t-41.5 16.5q-28 0 -41.5 -18t-13.5 -48q0 -17 4.5 -29t12.5 -24q-7 -7 -16 -11.5t-20 -4.5q-25 0 -38 18.5t-13 48.5q0 36 15.5 60t46.5 36.5t78 12.5h208q110 0 162 -55t52 -154q0 -45 -12.5 -86t-40 -73
t-73 -50t-110.5 -18h-51v-170q0 -29 9.5 -43.5t25.5 -19t34 -4.5h25v-41h-269zM327 324q38 0 65 9.5t44.5 31t25.5 55t8 81.5q0 85 -30 125.5t-100 40.5h-56v-343h43z" />
    <glyph glyph-name="uni01A5" unicode="&#x1a5;" horiz-adv-x="529" 
d="M15 -240v41h7q21 0 36 5t23.5 21t8.5 47v701q0 66 15.5 108.5t48 62.5t82.5 20q39 0 61.5 -12t32.5 -29.5t10 -37.5q0 -14 -6 -26.5t-21 -19.5t-41 -7q0 20 -3.5 39t-12.5 31.5t-27 12.5q-29 0 -39 -28t-10 -95v-48q0 -28 -1 -53.5t-3 -48.5h2q20 45 50 73.5t81 28.5
q84 0 129 -66t45 -208q0 -145 -44.5 -213.5t-128.5 -68.5q-49 0 -80 25t-50 67h-4q1 -2 1.5 -14t1 -29.5t1 -37t0.5 -36.5v-96q0 -30 9 -44.5t24 -19t35 -4.5h10v-41h-243zM291 47q54 0 78 57.5t24 166.5t-24 163.5t-79 54.5q-42 0 -66 -26t-34 -74.5t-10 -117.5
q0 -71 10 -121t34.5 -76.5t66.5 -26.5z" />
    <glyph glyph-name="uni01A6" unicode="&#x1a6;" horiz-adv-x="568" 
d="M558 -120q-48 0 -78 7t-50.5 26.5t-38.5 56.5l-113 225h-71v-87q0 -29 9 -43.5t23.5 -19t33.5 -4.5h10v-41h-252v41h14q18 0 33.5 4.5t24.5 19t9 43.5v495q0 30 -8 45t-22.5 20t-33.5 5h-17v41h257v-41h-16q-20 0 -34.5 -5.5t-22.5 -20t-8 -44.5v-13h61q78 0 128 -20
t73.5 -61.5t23.5 -106.5q0 -53 -17.5 -90.5t-46.5 -60t-62 -34.5l115 -216q22 -39 42 -59.5t46 -20.5h3v-41h-15zM257 241q73 0 104.5 40.5t31.5 117.5q0 48 -13 80t-41.5 47.5t-75.5 15.5h-56v-301h50z" />
    <glyph glyph-name="uni01A7" unicode="&#x1a7;" horiz-adv-x="469" 
d="M240 -10q-69 0 -113.5 24.5t-65.5 69t-21 103.5q0 55 18.5 93.5t55 66.5t87.5 52q50 23 79.5 45t42 49.5t12.5 65.5q0 48 -22 82.5t-73 34.5q-40 0 -63 -19t-32.5 -48.5t-9.5 -61.5q-35 0 -53.5 14.5t-18.5 47.5q0 28 19.5 54.5t58.5 43.5t96 17q61 0 101 -23.5t60 -63.5
t20 -90q0 -57 -18 -97t-53.5 -69.5t-88.5 -55.5q-50 -24 -80 -46.5t-42.5 -49t-12.5 -63.5q0 -65 33.5 -93.5t89.5 -28.5q39 0 70.5 13t54.5 35.5t38 49.5q9 -4 15.5 -14t6.5 -25t-11 -34.5t-33.5 -37t-59 -29.5t-87.5 -12z" />
    <glyph glyph-name="uni01A8" unicode="&#x1a8;" horiz-adv-x="390" 
d="M199 -10q-79 0 -120 40.5t-41 111.5q0 40 13 69.5t41 52.5t70 43q43 20 67.5 36t35 34t10.5 45q0 36 -19 58t-56 22q-42 0 -63 -27.5t-21 -80.5q-29 0 -45.5 14t-16.5 41q0 25 17 47t50 35.5t80 13.5q45 0 78 -16t51.5 -46.5t18.5 -75.5q0 -42 -14.5 -70.5t-45 -51.5
t-77.5 -47q-39 -19 -60.5 -35.5t-30 -34.5t-8.5 -43q0 -38 23.5 -59.5t69.5 -21.5q33 0 59 12t44.5 31.5t29.5 41.5q6 -6 10.5 -15.5t4.5 -23.5q0 -23 -17 -46.5t-51 -38.5t-87 -15z" />
    <glyph glyph-name="uni01A9" unicode="&#x1a9;" horiz-adv-x="524" 
d="M31 0v55l191 305l-179 320v34h415l5 -175h-52l-5 43q-2 22 -11.5 40.5t-28 29.5t-48.5 11h-154l146 -266v-15l-180 -290h207q47 0 68 27t26 68l4 30h52l-5 -217h-451z" />
    <glyph glyph-name="uni01AA" unicode="&#x1aa;" horiz-adv-x="280" 
d="M230 -240q-48 0 -79 15.5t-45 51t-14 94.5v622q-9 -7 -22 -11.5t-28 -4.5q-44 0 -71.5 31t-27.5 84q0 59 32.5 89.5t85.5 30.5q58 0 88.5 -37.5t30.5 -115.5v-697q0 -56 18 -80.5t48 -24.5q16 0 28.5 2t26.5 5v-42q-12 -4 -31.5 -8t-39.5 -4zM41 579q22 0 36 16t14 48
t-14 49t-36 17q-24 0 -37 -18.5t-13 -47.5q0 -30 13.5 -47t36.5 -17z" />
    <glyph glyph-name="uni01AB" unicode="&#x1ab;" horiz-adv-x="309" 
d="M201 -202q-29 0 -46 13.5t-17 40.5q0 12 3.5 20.5t8.5 14.5q9 -7 19 -11.5t24 -4.5q23 0 36 17t13 59v91h47v-90q0 -44 -8.5 -78.5t-28 -53t-51.5 -18.5zM203 -10q-62 0 -91.5 34.5t-29.5 120.5v342h-66v33q22 4 39.5 12.5t30.5 24.5q14 16 23 38.5t15 63.5h46v-123h111
v-49h-111v-344q0 -53 15.5 -76.5t45.5 -23.5q18 0 31.5 2t27.5 6v-46q-13 -5 -36.5 -10t-50.5 -5z" />
    <glyph glyph-name="uni01AC" unicode="&#x1ac;" horiz-adv-x="543" 
d="M140 0v41h18q20 0 36.5 4.5t26 19t9.5 43.5v557h-81q-23 0 -38.5 -8.5t-23 -24t-7.5 -37.5q0 -18 5 -30.5t12 -23.5q-6 -7 -15 -11.5t-20 -4.5q-25 0 -39 19.5t-14 49.5q0 38 16.5 65t49 41t79.5 14h369l4 -174h-47l-4 42q-3 33 -17.5 58t-52.5 25h-81v-552
q0 -31 10 -46.5t26.5 -20.5t36.5 -5h16v-41h-274z" />
    <glyph glyph-name="uni01AD" unicode="&#x1ad;" horiz-adv-x="309" 
d="M199 -10q-38 0 -65 15t-39.5 49t-12.5 91v342h-66v33q33 5 54.5 22.5t34.5 46t19 64.5q6 34 17 58t29.5 37t44.5 13q31 0 46.5 -14.5t15.5 -39.5q0 -13 -6 -22t-14 -15q-9 10 -17.5 15.5t-23.5 5.5q-21 0 -33.5 -16.5t-12.5 -56.5v-82h111v-49h-111v-344
q0 -53 15.5 -76.5t45.5 -23.5q18 0 31.5 2t27.5 6v-46q-13 -5 -37 -10t-54 -5z" />
    <glyph glyph-name="uni01AE" unicode="&#x1ae;" horiz-adv-x="530" 
d="M348 -240q-70 0 -101 35t-31 111v759h-79q-37 0 -52 -25t-19 -58l-4 -42h-46l4 174h489l4 -174h-46l-5 42q-2 22 -9 41t-21.5 30.5t-40.5 11.5h-80v-767q0 -45 14.5 -66.5t46.5 -21.5q14 0 25.5 2.5t21.5 6.5v-43q-11 -5 -31 -10.5t-40 -5.5z" />
    <glyph glyph-name="Uhorn" unicode="&#x1af;" horiz-adv-x="665" 
d="M312 -10q-69 0 -118 22.5t-74.5 72.5t-25.5 131v389q0 30 -8.5 44.5t-22 19t-31.5 4.5h-19v41h256v-41h-19q-18 0 -32 -5t-21.5 -20t-7.5 -47v-390q0 -87 38.5 -124.5t99.5 -37.5q47 0 78 21t47 56.5t16 80.5v398q0 30 -8 44.5t-22 19t-31 4.5h-19v41h134v-137
q25 6 42 16t25.5 24t8.5 32q0 12 -5.5 19t-12.5 14t-12.5 16.5t-5.5 23.5q0 22 13 35t34 13q25 0 39.5 -17.5t14.5 -51.5q0 -31 -9.5 -57.5t-27 -48t-44 -35.5t-60.5 -21v-332q0 -66 -23.5 -115t-70.5 -75.5t-116 -26.5z" />
    <glyph glyph-name="uhorn" unicode="&#x1b0;" horiz-adv-x="586" 
d="M233 -10q-71 0 -107 46.5t-36 149.5v241q0 30 -9 44.5t-24 19t-33 4.5h-4v41h160v-347q0 -44 7.5 -74.5t26 -46.5t50.5 -16q37 0 59.5 20.5t33 57.5t10.5 85v207q0 32 -8.5 47.5t-23.5 20.5t-34 5h-3v41h158v-101q24 6 40.5 16t25 24t8.5 32q0 12 -5.5 19t-12 14
t-12 16.5t-5.5 23.5q0 22 13 35t34 13q24 0 39 -17.5t15 -51.5q0 -31 -9.5 -57.5t-27 -48t-43.5 -35.5t-60 -21v-288q0 -30 9 -44.5t25 -19t34 -4.5h3v-41h-142l-12 82h-4q-16 -36 -37 -56.5t-45.5 -28t-53.5 -7.5z" />
    <glyph glyph-name="uni01B1" unicode="&#x1b1;" horiz-adv-x="640" 
d="M320 -10q-87 0 -148 45t-92.5 124.5t-31.5 181.5q0 59 7.5 105.5t18.5 80.5t20 54q10 20 16 37t6 27q0 13 -9.5 20.5t-39.5 7.5h-15v41h189v-41q-33 -46 -52.5 -99.5t-28.5 -112t-9 -120.5q0 -90 17.5 -156.5t55 -104t96.5 -37.5q62 0 99.5 37t53.5 103.5t16 157.5
q0 62 -9 120.5t-29 112t-53 99.5v41h189v-41h-15q-29 0 -38.5 -7.5t-9.5 -20.5q0 -10 6 -27t15 -37q10 -20 20.5 -54t18.5 -80.5t8 -105.5q0 -102 -31.5 -181.5t-92 -124.5t-148.5 -45z" />
    <glyph glyph-name="uni01B2" unicode="&#x1b2;" horiz-adv-x="601" 
d="M255 -10q-57 0 -92.5 24t-52 70t-16.5 111v410q0 30 -9.5 44.5t-25 19t-35.5 4.5h-11v41h256v-41h-11q-20 0 -36 -5t-24.5 -20t-8.5 -47v-427q0 -60 19 -92.5t62 -32.5q38 0 72.5 27t63.5 73.5t51 106t34 124.5t12 128q0 49 -11 80.5t-34.5 47t-63.5 15.5q0 35 18 54.5
t47 19.5q30 0 53 -21.5t36.5 -65.5t13.5 -115q0 -77 -15 -153t-42.5 -144.5t-65.5 -121.5t-84.5 -83.5t-99.5 -30.5z" />
    <glyph glyph-name="uni01B3" unicode="&#x1b3;" horiz-adv-x="580" 
d="M137 0v41h17q20 0 36 5t25.5 20t9.5 44v193l-157 317q-9 19 -17 30.5t-18.5 17t-25.5 5.5h-11v41h240v-41h-25q-24 0 -32 -9.5t-8 -21.5t5 -27t10 -26l63 -132q15 -30 26 -57.5t18 -50.5q8 20 21 49t27 60l48 106q21 47 37.5 81.5t38 54.5t56.5 20q31 0 46.5 -14.5
t15.5 -37.5q0 -18 -9.5 -31t-22.5 -18q-4 12 -13 20t-23 8q-18 0 -30 -13t-23.5 -38t-29.5 -62l-111 -231v-188q0 -31 9.5 -47t25.5 -21.5t35 -5.5h19v-41h-273z" />
    <glyph glyph-name="uni01B4" unicode="&#x1b4;" horiz-adv-x="532" 
d="M31 -194q43 0 73.5 13.5t52.5 38.5t37.5 60.5t27.5 80.5l-156 443q-7 20 -14.5 31.5t-18 15.5t-24.5 4h-6v43h211v-41h-8q-25 0 -36 -10.5t-11 -27.5q0 -11 4 -27t11 -36l53 -162q10 -30 18.5 -58t14.5 -51t8 -40q7 30 14.5 60.5t16.5 61.5l53 184q15 48 30 83t36.5 55
t55.5 20q29 0 44 -16t15 -40q0 -16 -6 -27t-14 -16q-5 13 -15.5 21.5t-27.5 8.5q-28 0 -42.5 -31.5t-28.5 -76.5l-113 -368q-22 -74 -42 -121t-45 -73.5t-63 -37t-96 -10.5h-9v46z" />
    <glyph glyph-name="uni01B5" unicode="&#x1b5;" horiz-adv-x="516" 
d="M31 0v39l160 311h-118v47h145l137 268h-186q-38 0 -52.5 -24.5t-17.5 -56.5l-4 -43h-47l4 173h413v-40l-143 -277h121v-47h-148l-155 -301h214q27 0 42.5 11.5t23 30t9.5 40.5l3 42h47l-3 -173h-445z" />
    <glyph glyph-name="uni01B6" unicode="&#x1b6;" horiz-adv-x="439" 
d="M33 0v40l119 211h-89v46h118l104 190h-126q-36 0 -49 -20.5t-22 -59.5l-3 -11h-40l10 140h334v-41l-112 -198h90v-46h-119l-112 -202h149q22 0 35 10t20.5 29.5t11.5 45.5l5 27h38l-5 -161h-357z" />
    <glyph glyph-name="uni01B7" unicode="&#x1b7;" horiz-adv-x="511" 
d="M233 -10q-54 0 -92 10.5t-61.5 28.5t-33.5 39.5t-10 42.5q0 26 9 42t26 23.5t38 7.5q0 -38 13 -70.5t41 -51.5t71 -19q40 0 70 16t47.5 51t17.5 91q0 50 -16.5 83t-49 50t-79.5 17h-59v41l183 246h-163q-35 0 -49.5 -11t-17.5 -51l-2 -18h-43l5 156h362v-42l-201 -267
q55 0 96.5 -13t70.5 -38.5t43.5 -63.5t14.5 -89q0 -73 -30.5 -120t-83 -69t-117.5 -22z" />
    <glyph glyph-name="uni01B8" unicode="&#x1b8;" horiz-adv-x="512" 
d="M274 -10q-63 0 -115 22t-82 67.5t-30 117.5q0 69 28.5 114.5t80 69.5t120.5 24l-204 267v42h362l6 -156h-43l-2 18q-2 27 -9 40t-20.5 17.5t-38.5 4.5h-162l185 -246v-41h-58q-72 0 -110.5 -37.5t-38.5 -111.5q0 -58 18.5 -92t50 -49t70.5 -15q43 0 72 15t47.5 37
t28.5 47q16 -4 27 -14t11 -31q0 -17 -11.5 -36t-35.5 -35.5t-60.5 -27.5t-86.5 -11z" />
    <glyph glyph-name="uni01B9" unicode="&#x1b9;" horiz-adv-x="467" 
d="M256 -240q-41 0 -79.5 13.5t-68.5 41.5t-47 72t-17 105q0 58 15 100.5t42.5 70.5t64.5 42.5t81 17.5l-183 266v47h337l7 -153h-38l-3 15q-6 37 -17 50.5t-41 13.5h-162l171 -251v-39h-20q-54 0 -90.5 -20t-55 -59t-18.5 -97q0 -65 17.5 -105t47 -58t65.5 -18
q33 0 58.5 12t42 33t24.5 45q19 -5 26.5 -15t7.5 -26q0 -23 -17.5 -47t-54.5 -40.5t-95 -16.5z" />
    <glyph glyph-name="uni01BA" unicode="&#x1ba;" horiz-adv-x="426" 
d="M192 -240q-33 0 -62 6t-51.5 20t-36 37t-13.5 57q0 41 16 65.5t48.5 38t83.5 21.5q40 7 67 20.5t40 39t13 66.5q0 35 -13.5 61.5t-41 41t-68.5 14.5h-25v41l134 173h-139q-21 0 -32.5 -7t-17 -21t-10.5 -35l-3 -16h-37l7 153h317v-47l-153 -190q60 -3 98 -26t56 -59.5
t18 -78.5q0 -37 -10.5 -66t-33 -51t-59.5 -36.5t-89 -22.5q-33 -4 -53.5 -13.5t-29.5 -24.5t-9 -39q0 -34 24.5 -51.5t68.5 -17.5q55 0 91.5 22t57.5 61q6 -5 10.5 -14t4.5 -21q0 -26 -19 -49t-56 -37.5t-93 -14.5z" />
    <glyph glyph-name="uni01BB" unicode="&#x1bb;" horiz-adv-x="472" 
d="M39 0v69l138 201q18 25 32.5 47.5t26.5 42.5h-170v46h197q22 45 31 83t9 84q0 45 -10 75.5t-29.5 46t-47.5 15.5q-33 0 -52.5 -18.5t-28 -51t-8.5 -76.5q-21 0 -38.5 6t-28.5 20t-11 39q0 37 18.5 66.5t56.5 46.5t95 17q86 0 133 -47.5t47 -131.5q0 -32 -6 -60.5
t-17.5 -56t-29.5 -57.5h75v-46h-107q-12 -17 -27.5 -34t-30 -35.5t-26.5 -38.5l-119 -174h199q24 0 38.5 10.5t22 27.5t11.5 36l4 19h38l-4 -171h-381z" />
    <glyph glyph-name="uni01BC" unicode="&#x1bc;" horiz-adv-x="483" 
d="M215 -10q-43 0 -77 11t-58 30t-36.5 44.5t-12.5 53.5q0 35 18 52.5t50 17.5q0 -49 13 -84t39.5 -53.5t66.5 -18.5q57 0 89.5 44t32.5 128q0 46 -10 78t-29 52.5t-46 30t-60 9.5h-91v219q0 30 -8 44.5t-22 19.5t-33 5h-8v41h376l5 -174h-43l-6 43q-3 22 -10.5 40.5t-23 30
t-42.5 11.5h-91v-227h29q64 0 111 -24t72 -73t25 -126q0 -45 -11 -81t-31 -63t-47.5 -45t-60.5 -27t-70 -9z" />
    <glyph glyph-name="uni01BD" unicode="&#x1bd;" horiz-adv-x="415" 
d="M186 -10q-49 0 -84 15t-53 40t-18 57q0 23 8 37t21.5 20.5t29.5 6.5q0 -41 9 -69t29.5 -41.5t52.5 -13.5q47 0 73 30.5t26 92.5q0 46 -14.5 72t-38 37t-54.5 11h-88v148q0 21 -4 34.5t-15.5 20.5t-34.5 7v41h315l5 -137h-40l-3 18q-3 23 -8 39t-16 24.5t-33 8.5h-77v-158
h27q52 0 89.5 -17t58.5 -52.5t21 -91.5q0 -90 -49 -135t-135 -45z" />
    <glyph glyph-name="uni01BE" unicode="&#x1be;" horiz-adv-x="382" 
d="M184 -10q-53 0 -87.5 15.5t-51.5 42t-17 58.5q0 18 7 31.5t20.5 21.5t32.5 8q0 -37 9 -64.5t29.5 -43.5t56.5 -16q42 0 64 23t22 65q0 22 -7 37.5t-21.5 28t-37.5 25.5q-31 19 -51 38.5t-30 49t-10 78.5v99h-64v33q18 2 36.5 10.5t32.5 26.5t23 40.5t14 61.5h47v-123h111
v-49h-111v-84q0 -32 3.5 -51t13.5 -31t28 -23q32 -21 53.5 -41t32.5 -46.5t11 -64.5q0 -52 -19.5 -87t-55.5 -52t-84 -17z" />
    <glyph glyph-name="uni01BF" unicode="&#x1bf;" horiz-adv-x="529" 
d="M15 -240v41h7q20 0 35.5 5.5t24 21t8.5 46.5v553q0 30 -9.5 44.5t-24.5 19t-33 4.5h-11v41h153l10 -86h3q18 42 50.5 69t85.5 27q55 0 92.5 -27t57 -77t19.5 -119q0 -51 -13.5 -98.5t-39.5 -89t-62.5 -73t-84 -52t-103.5 -26.5v-115q0 -29 8.5 -43.5t23.5 -19.5t35 -5h14
v-41h-246zM180 34q47 7 86.5 28.5t67 58t43 87t15.5 114.5q0 46 -9.5 84t-31.5 60t-60 22q-39 0 -64 -21.5t-36 -68.5t-11 -123v-241z" />
    <glyph glyph-name="uni01C0" unicode="&#x1c0;" horiz-adv-x="361" 
d="M148 0v760h65v-760h-65z" />
    <glyph glyph-name="uni01C1" unicode="&#x1c1;" horiz-adv-x="500" 
d="M286 0v760h66v-760h-66zM148 0v760h64v-760h-64z" />
    <glyph glyph-name="uni01C2" unicode="&#x1c2;" horiz-adv-x="470" 
d="M203 0v266h-160v65h160v96h-160v65h160v268h64v-268h160v-65h-160v-96h160v-65h-160v-266h-64z" />
    <glyph glyph-name="uni01C3" unicode="&#x1c3;" horiz-adv-x="292" 
d="M121 206l-29 508h107l-29 -508h-49zM146 -7q-24 0 -39.5 14t-15.5 50t15.5 50t39.5 14q21 0 37.5 -14t16.5 -50t-16.5 -50t-37.5 -14z" />
    <glyph glyph-name="uni01C4" unicode="&#x1c4;" horiz-adv-x="1143" 
d="M31 0v41h17q19 0 33.5 5.5t22.5 21t8 45.5v492q0 29 -8.5 43.5t-23.5 19.5t-34 5h-15v41h265q89 0 152 -42t96.5 -121.5t33.5 -193.5q0 -109 -31.5 -189.5t-94 -124t-156.5 -43.5h-265zM276 50q67 0 110.5 35.5t66 104t22.5 167.5t-22 168t-66 104.5t-110 35.5h-70v-615
h69zM658 0v39l324 626h-186q-38 0 -52.5 -24.5t-17.5 -56.5l-4 -43h-47l4 173h413v-40l-325 -625h214q27 0 42.5 11.5t23 30t9.5 40.5l3 42h47l-3 -173h-445zM848 771q-8 23 -24 49.5t-32.5 52.5t-30.5 45v13h38l31.5 -31.5t32 -34t28.5 -35.5q13 18 28.5 35.5t32.5 34
t32 31.5h38v-13q-13 -19 -30 -45t-32 -52.5t-25 -49.5h-87z" />
    <glyph glyph-name="uni01C5" unicode="&#x1c5;" horiz-adv-x="1065" 
d="M31 0v41h17q19 0 33.5 5.5t22.5 21t8 45.5v492q0 29 -8.5 43.5t-23.5 19.5t-34 5h-15v41h265q89 0 152 -42t96.5 -121.5t33.5 -193.5q0 -109 -31.5 -189.5t-94 -124t-156.5 -43.5h-265zM276 50q67 0 110.5 35.5t66 104t22.5 167.5t-22 168t-66 104.5t-110 35.5h-70v-615
h69zM659 0v40l252 447h-126q-36 0 -49 -20.5t-22 -59.5l-3 -11h-40l10 140h334v-41l-253 -446h149q33 0 46.5 22.5t20.5 62.5l5 27h38l-5 -161h-357zM813 606q-8 23 -24 49.5t-32.5 52.5t-30.5 45v13h38l31.5 -31.5t32 -34t28.5 -35.5q13 18 28.5 35.5t32.5 34t32 31.5h38
v-13q-13 -19 -30 -45t-32 -52.5t-25 -49.5h-87z" />
    <glyph glyph-name="uni01C6" unicode="&#x1c6;" horiz-adv-x="968" 
d="M218 -10q-56 0 -94.5 29t-58.5 90.5t-20 157.5q0 97 20 158.5t59 91t96 29.5q49 0 79.5 -24.5t48.5 -63.5h5q-2 24 -2.5 52t-0.5 54v86q0 30 -10 45t-25.5 19.5t-34.5 4.5h-7v41h165v-649q0 -29 9 -44.5t24.5 -20.5t34.5 -5h8v-41h-150l-10 91h-3q-20 -46 -51 -73.5
t-82 -27.5zM238 48q61 0 86.5 58t25.5 161q0 107 -24.5 164t-88.5 57q-35 0 -57.5 -25.5t-32.5 -75t-10 -121.5q0 -110 23.5 -164t77.5 -54zM562 0v40l252 447h-126q-36 0 -49 -20.5t-22 -59.5l-3 -11h-40l10 140h334v-41l-253 -446h149q33 0 46.5 22.5t20.5 62.5l5 27h38
l-5 -161h-357zM714 606q-8 23 -24 49.5t-32.5 52.5t-30.5 45v13h38l31.5 -31.5t32 -34t28.5 -35.5q13 18 28.5 35.5t32.5 34t32 31.5h38v-13q-13 -19 -30 -45t-32 -52.5t-25 -49.5h-87z" />
    <glyph glyph-name="uni01C7" unicode="&#x1c7;" horiz-adv-x="843" 
d="M528 -240v46h9q35 0 60.5 16.5t39.5 57t14 110.5v615q0 29 -9 43.5t-23.5 19.5t-32.5 5h-16v41h256v-41h-16q-18 0 -32.5 -5.5t-23.5 -20.5t-9 -46v-610q0 -67 -15.5 -111.5t-43 -71t-64 -37.5t-76.5 -11h-18zM31 0v41h17q18 0 32.5 5t23 20.5t8.5 44.5v491q0 31 -8.5 46
t-23.5 20t-34 5h-15v41h257v-41h-16q-20 0 -34.5 -5t-22.5 -19.5t-8 -43.5v-556h167q25 0 40.5 12t24 32.5t11.5 45.5l9 75h43l-6 -214h-465z" />
    <glyph glyph-name="uni01C8" unicode="&#x1c8;" horiz-adv-x="799" 
d="M31 0v41h17q18 0 32.5 5t23 20.5t8.5 44.5v491q0 31 -8.5 46t-23.5 20t-34 5h-15v41h257v-41h-16q-20 0 -34.5 -5t-22.5 -19.5t-8 -43.5v-556h167q25 0 40.5 12t24 32.5t11.5 45.5l9 75h43l-6 -214h-465zM529 -240v46h6q31 0 53 16.5t33 57t11 110.5v437q0 30 -9 44.5
t-24 19t-34 4.5h-6v41h161v-544q0 -89 -22.5 -140t-62 -71.5t-92.5 -20.5h-14zM672 640q-22 0 -37.5 13t-15.5 45q0 33 15.5 45.5t37.5 12.5t37.5 -12.5t15.5 -45.5q0 -32 -15.5 -45t-37.5 -13z" />
    <glyph glyph-name="uni01C9" unicode="&#x1c9;" horiz-adv-x="533" 
d="M265 -240v46h6q31 0 53 16.5t33 57t11 110.5v437q0 30 -9 44.5t-24 19t-34 4.5h-6v41h161v-544q0 -89 -22.5 -140t-62 -71.5t-92.5 -20.5h-14zM408 640q-22 0 -37.5 13t-15.5 45q0 33 15.5 45.5t37.5 12.5t37.5 -12.5t15.5 -45.5q0 -32 -15.5 -45t-37.5 -13zM12 0v41h11
q20 0 35 5.5t23.5 21t8.5 47.5v536q0 30 -9.5 44.5t-25 19t-33.5 4.5h-10v41h168v-645q0 -31 8.5 -47t24 -21.5t35.5 -5.5h10v-41h-246z" />
    <glyph glyph-name="uni01CA" unicode="&#x1ca;" horiz-adv-x="962" 
d="M647 -240v46h9q35 0 60.5 16.5t39.5 57t14 110.5v615q0 29 -9 43.5t-23.5 19.5t-32.5 5h-16v41h256v-41h-16q-18 0 -32.5 -5.5t-23.5 -20.5t-9 -46v-610q0 -67 -15.5 -111.5t-43 -71t-64 -37.5t-76.5 -11h-18zM31 0v41h12q21 0 36.5 5t24 20.5t8.5 46.5v492
q0 30 -8.5 44.5t-23.5 19t-35 4.5h-14v41h165l302 -561v452q0 29 -9 43.5t-24 19.5t-34 5h-14v41h216v-41h-15q-19 0 -34 -5.5t-23.5 -20.5t-8.5 -46v-601h-66l-320 589v-476q0 -31 8 -46.5t23.5 -20.5t34.5 -5h15v-41h-216z" />
    <glyph glyph-name="uni01CB" unicode="&#x1cb;" horiz-adv-x="918" 
d="M31 0v41h12q21 0 36.5 5t24 20.5t8.5 46.5v492q0 30 -8.5 44.5t-23.5 19t-35 4.5h-14v41h165l302 -561v452q0 29 -9 43.5t-24 19.5t-34 5h-14v41h216v-41h-15q-19 0 -34 -5.5t-23.5 -20.5t-8.5 -46v-601h-66l-320 589v-476q0 -31 8 -46.5t23.5 -20.5t34.5 -5h15v-41h-216
zM648 -240v46h6q31 0 53 16.5t33 57t11 110.5v437q0 30 -9 44.5t-24 19t-34 4.5h-6v41h161v-544q0 -89 -22.5 -140t-62 -71.5t-92.5 -20.5h-14zM791 640q-22 0 -37.5 13t-15.5 45q0 33 15.5 45.5t37.5 12.5t37.5 -12.5t15.5 -45.5q0 -32 -15.5 -45t-37.5 -13z" />
    <glyph glyph-name="uni01CC" unicode="&#x1cc;" horiz-adv-x="817" 
d="M547 -240v46h6q31 0 53 16.5t33 57t11 110.5v437q0 30 -9 44.5t-24 19t-34 4.5h-6v41h161v-544q0 -89 -22.5 -140t-62 -71.5t-92.5 -20.5h-14zM690 640q-22 0 -37.5 13t-15.5 45q0 33 15.5 45.5t37.5 12.5t37.5 -12.5t15.5 -45.5q0 -32 -15.5 -45t-37.5 -13zM24 0v41h8
q19 0 34.5 5t24.5 20.5t9 47.5v313q0 30 -8.5 44.5t-24 19t-33.5 4.5h-5v41h146l11 -82h4q23 53 55.5 72.5t77.5 19.5q67 0 104.5 -47t37.5 -150v-236q0 -31 7.5 -46.5t22 -20.5t33.5 -5h4v-41h-156v346q0 65 -19 101.5t-67 36.5q-38 0 -60 -23t-31.5 -60.5t-9.5 -79.5v-213
q0 -29 8.5 -43.5t23.5 -19t34 -4.5h5v-41h-236z" />
    <glyph glyph-name="uni01CD" unicode="&#x1cd;" horiz-adv-x="609" 
d="M1 0v41h15q17 0 27.5 6t19.5 23t19 49l188 595h75l193 -625q6 -19 13.5 -29t19.5 -14.5t29 -4.5h9v-41h-243v41h20q26 0 38.5 11t12.5 31q0 7 -1.5 15t-3.5 18t-5 19l-31 105h-221l-29 -98q-3 -8 -5 -18t-4 -19t-2 -18q0 -21 13 -33.5t42 -12.5h22v-41h-211zM192 289h188
l-53 186q-8 30 -16 56.5t-13.5 49.5t-10.5 42q-4 -19 -9.5 -41.5t-12 -46t-15.5 -50.5zM268 771q-8 23 -24 49.5t-32.5 52.5t-30.5 45v13h38l31.5 -31.5t32 -34t28.5 -35.5q13 18 28.5 35.5t32.5 34t32 31.5h38v-13q-13 -19 -30 -45t-32 -52.5t-25 -49.5h-87z" />
    <glyph glyph-name="uni01CE" unicode="&#x1ce;" horiz-adv-x="487" 
d="M173 -10q-37 0 -66.5 17.5t-47 53t-17.5 89.5q0 80 48 117.5t146 41.5l70 3v61q0 37 -5 64.5t-21.5 43.5t-49.5 16q-32 0 -48 -14t-21.5 -38.5t-5.5 -56.5q-39 0 -58.5 15t-19.5 47q0 31 20.5 52.5t56 32.5t82.5 11q79 0 119 -39.5t40 -134.5v-259q0 -28 5.5 -43.5
t17 -22t31.5 -6.5h2v-41h-123l-14 87h-6q-18 -28 -35.5 -50t-40.5 -34.5t-59 -12.5zM199 45q34 0 57.5 18.5t37 52t13.5 75.5v82l-51 -3q-46 -2 -73 -17t-38 -42t-11 -67q0 -31 6.5 -53t21.5 -34t37 -12zM196 606q-8 23 -24 49.5t-32.5 52.5t-30.5 45v13h38l31.5 -31.5
t32 -34t28.5 -35.5q13 18 28.5 35.5t32.5 34t32 31.5h38v-13q-13 -19 -30 -45t-32 -52.5t-25 -49.5h-87z" />
    <glyph glyph-name="uni01CF" unicode="&#x1cf;" horiz-adv-x="318" 
d="M31 0v41h17q18 0 32.5 5t23 20.5t8.5 44.5v490q0 31 -8.5 46t-23 20.5t-32.5 5.5h-17v41h257v-41h-18q-18 0 -32.5 -5.5t-22.5 -20.5t-8 -46v-489q0 -30 8 -45t23 -20.5t32 -5.5h18v-41h-257zM115 771q-8 23 -24 49.5t-32.5 52.5t-30.5 45v13h38l31.5 -31.5t32 -34
t28.5 -35.5q13 18 28.5 35.5t32.5 34t32 31.5h38v-13q-13 -19 -30 -45t-32 -52.5t-25 -49.5h-87z" />
    <glyph glyph-name="uni01D0" unicode="&#x1d0;" horiz-adv-x="278" 
d="M92 606q-8 23 -24 49.5t-32.5 52.5t-30.5 45v13h38l31.5 -31.5t32 -34t28.5 -35.5q13 18 28.5 35.5t32.5 34t32 31.5h38v-13q-13 -19 -30 -45t-32 -52.5t-25 -49.5h-87zM19 0v41h11q20 0 35 5t24 20t9 44v315q0 30 -8 45t-22.5 20t-34.5 5h-8v41h162v-421q0 -31 8.5 -47
t24.5 -21.5t35 -5.5h11v-41h-247z" />
    <glyph glyph-name="uni01D1" unicode="&#x1d1;" horiz-adv-x="640" 
d="M320 -10q-92 0 -152.5 46t-90 129t-29.5 194t29.5 193t90.5 127.5t153 45.5q87 0 147.5 -45.5t92 -128t31.5 -193.5t-31.5 -193.5t-92 -128.5t-148.5 -46zM320 43q62 0 99.5 37.5t53.5 108t16 169.5q0 100 -16.5 170t-53 107t-98.5 37q-91 0 -130.5 -82.5t-39.5 -231.5
q0 -99 17 -169.5t54.5 -108t97.5 -37.5zM276 771q-8 23 -24 49.5t-32.5 52.5t-30.5 45v13h38l31.5 -31.5t32 -34t28.5 -35.5q13 18 28.5 35.5t32.5 34t32 31.5h38v-13q-13 -19 -30 -45t-32 -52.5t-25 -49.5h-87z" />
    <glyph glyph-name="uni01D2" unicode="&#x1d2;" horiz-adv-x="498" 
d="M248 -10q-94 0 -148 69t-54 210q0 140 52 208.5t153 68.5q93 0 147 -68.5t54 -208.5q0 -141 -51.5 -210t-152.5 -69zM250 41q41 0 65 26t35 76.5t11 125.5q0 112 -25.5 168.5t-86.5 56.5t-86.5 -56.5t-25.5 -168.5t26 -170t87 -58zM205 606q-8 23 -24 49.5t-32.5 52.5
t-30.5 45v13h38l31.5 -31.5t32 -34t28.5 -35.5q13 18 28.5 35.5t32.5 34t32 31.5h38v-13q-13 -19 -30 -45t-32 -52.5t-25 -49.5h-87z" />
    <glyph glyph-name="uni01D3" unicode="&#x1d3;" horiz-adv-x="616" 
d="M310 -10q-66 0 -115 22.5t-75 72.5t-26 131v389q0 30 -9.5 44.5t-25 19t-34.5 4.5h-12v41h256v-41h-11q-20 0 -35.5 -5t-24.5 -20t-9 -47v-391q0 -88 38.5 -124.5t100.5 -36.5q48 0 78.5 21t46 56.5t15.5 80.5v398q0 30 -9.5 44.5t-24.5 19t-35 4.5h-11v41h215v-41h-11
q-20 0 -36 -5t-25 -20t-9 -47v-396q0 -66 -23.5 -114t-71 -74.5t-117.5 -26.5zM283 771q-8 23 -24 49.5t-32.5 52.5t-30.5 45v13h38l31.5 -31.5t32 -34t28.5 -35.5q13 18 28.5 35.5t32.5 34t32 31.5h38v-13q-13 -19 -30 -45t-32 -52.5t-25 -49.5h-87z" />
    <glyph glyph-name="uni01D4" unicode="&#x1d4;" horiz-adv-x="547" 
d="M232 -10q-70 0 -106.5 46.5t-36.5 149.5v241q0 30 -8.5 44.5t-23.5 19t-35 4.5h-3v41h159v-347q0 -45 7.5 -75.5t26.5 -46t52 -15.5q36 0 58.5 20.5t33 57.5t10.5 85v207q0 32 -8.5 47.5t-23.5 20.5t-34 5h-3v41h158v-427q0 -29 9.5 -44t25 -19.5t33.5 -4.5h4v-41h-143
l-12 82h-4q-25 -54 -58.5 -73t-77.5 -19zM220 606q-8 23 -24 49.5t-32.5 52.5t-30.5 45v13h38l31.5 -31.5t32 -34t28.5 -35.5q13 18 28.5 35.5t32.5 34t32 31.5h38v-13q-13 -19 -30 -45t-32 -52.5t-25 -49.5h-87z" />
    <glyph glyph-name="uni01D5" unicode="&#x1d5;" horiz-adv-x="616" 
d="M204 940v56h245v-56h-245zM243 776q-19 0 -32 12.5t-13 43.5q0 32 13 44t32 12t32 -12t13 -44q0 -31 -13 -43.5t-32 -12.5zM408 776q-18 0 -31.5 12.5t-13.5 43.5q0 32 13.5 44t31.5 12t32 -12t14 -44q0 -31 -14 -43.5t-32 -12.5zM310 -10q-66 0 -115 22.5t-75 72.5
t-26 131v389q0 30 -9.5 44.5t-25 19t-34.5 4.5h-12v41h256v-41h-11q-20 0 -35.5 -5t-24.5 -20t-9 -47v-391q0 -88 38.5 -124.5t100.5 -36.5q48 0 78.5 21t46 56.5t15.5 80.5v398q0 30 -9.5 44.5t-24.5 19t-35 4.5h-11v41h215v-41h-11q-20 0 -36 -5t-25 -20t-9 -47v-396
q0 -66 -23.5 -114t-71 -74.5t-117.5 -26.5z" />
    <glyph glyph-name="uni01D6" unicode="&#x1d6;" horiz-adv-x="547" 
d="M141 775v56h245v-56h-245zM180 611q-19 0 -31.5 12.5t-12.5 43.5q0 32 12.5 44t31.5 12t32 -12t13 -44q0 -31 -13 -43.5t-32 -12.5zM346 611q-19 0 -32 12.5t-13 43.5q0 32 13 44t32 12q18 0 31.5 -12t13.5 -44q0 -31 -13.5 -43.5t-31.5 -12.5zM232 -10
q-70 0 -106.5 46.5t-36.5 149.5v241q0 30 -8.5 44.5t-23.5 19t-35 4.5h-3v41h159v-347q0 -45 7.5 -75.5t26.5 -46t52 -15.5q36 0 58.5 20.5t33 57.5t10.5 85v207q0 32 -8.5 47.5t-23.5 20.5t-34 5h-3v41h158v-427q0 -29 9.5 -44t25 -19.5t33.5 -4.5h4v-41h-143l-12 82h-4
q-25 -54 -58.5 -73t-77.5 -19z" />
    <glyph glyph-name="uni01D7" unicode="&#x1d7;" horiz-adv-x="616" 
d="M299 897q12 21 23.5 46t22 49t16.5 42h96v-10q-7 -13 -21 -31.5t-31.5 -38.5t-35.5 -38t-35 -32h-35v13zM243 766q-19 0 -32 12.5t-13 42.5q0 32 13 44t32 12q18 0 31 -12t13 -44q0 -30 -13 -42.5t-31 -12.5zM408 766q-19 0 -32 12t-13 43q0 32 13 44t32 12
q18 0 31.5 -12t13.5 -44q0 -31 -13.5 -43t-31.5 -12zM310 -10q-66 0 -115 22.5t-75 72.5t-26 131v389q0 30 -9.5 44.5t-25 19t-34.5 4.5h-12v41h256v-41h-11q-20 0 -35.5 -5t-24.5 -20t-9 -47v-391q0 -88 38.5 -124.5t100.5 -36.5q48 0 78.5 21t46 56.5t15.5 80.5v398
q0 30 -9.5 44.5t-24.5 19t-35 4.5h-11v41h215v-41h-11q-20 0 -36 -5t-25 -20t-9 -47v-396q0 -66 -23.5 -114t-71 -74.5t-117.5 -26.5z" />
    <glyph glyph-name="uni01D8" unicode="&#x1d8;" horiz-adv-x="547" 
d="M236 732q12 21 24 46t22 49t16 42h97v-10q-8 -13 -22 -31.5t-31 -38.5t-35 -38t-36 -32h-35v13zM180 601q-19 0 -32 12.5t-13 42.5q0 32 13 44t32 12t32 -12t13 -44q0 -30 -13 -42.5t-32 -12.5zM346 601q-19 0 -32 12t-13 43q0 32 13 44t32 12q17 0 31 -12t14 -44
q0 -31 -14 -43t-31 -12zM232 -10q-70 0 -106.5 46.5t-36.5 149.5v241q0 30 -8.5 44.5t-23.5 19t-35 4.5h-3v41h159v-347q0 -45 7.5 -75.5t26.5 -46t52 -15.5q36 0 58.5 20.5t33 57.5t10.5 85v207q0 32 -8.5 47.5t-23.5 20.5t-34 5h-3v41h158v-427q0 -29 9.5 -44t25 -19.5
t33.5 -4.5h4v-41h-143l-12 82h-4q-25 -54 -58.5 -73t-77.5 -19z" />
    <glyph glyph-name="uni01D9" unicode="&#x1d9;" horiz-adv-x="616" 
d="M285 902q-9 20 -24.5 43t-33 46t-30.5 39v12h37q15 -11 31.5 -25.5t31.5 -28.5t28 -29q12 15 27.5 29t32 28.5t32.5 25.5h36v-12q-13 -16 -30.5 -39t-33 -46t-25.5 -43h-79zM241 775q-18 0 -30 11.5t-12 40.5t12 40.5t30 11.5q17 0 30 -11t13 -41q0 -29 -12.5 -40.5
t-30.5 -11.5zM410 775q-18 0 -30.5 11.5t-12.5 40.5t12.5 40.5t30.5 11.5q17 0 29.5 -11t12.5 -41q0 -29 -12.5 -40.5t-29.5 -11.5zM310 -10q-66 0 -115 22.5t-75 72.5t-26 131v389q0 30 -9.5 44.5t-25 19t-34.5 4.5h-12v41h256v-41h-11q-20 0 -35.5 -5t-24.5 -20t-9 -47
v-391q0 -88 38.5 -124.5t100.5 -36.5q48 0 78.5 21t46 56.5t15.5 80.5v398q0 30 -9.5 44.5t-24.5 19t-35 4.5h-11v41h215v-41h-11q-20 0 -36 -5t-25 -20t-9 -47v-396q0 -66 -23.5 -114t-71 -74.5t-117.5 -26.5z" />
    <glyph glyph-name="uni01DA" unicode="&#x1da;" horiz-adv-x="547" 
d="M223 737q-9 20 -24.5 43t-33 46t-30.5 39v12h37q15 -11 31 -25.5t31.5 -28.5t28.5 -29q12 15 27.5 29t32 28.5t32.5 25.5h36v-12q-13 -16 -30.5 -39t-33 -46t-25.5 -43h-79zM179 610q-18 0 -30 11.5t-12 40.5t12 40.5t30 11.5t30.5 -11t12.5 -41q0 -29 -12.5 -40.5
t-30.5 -11.5zM348 610q-18 0 -30.5 11.5t-12.5 40.5t12.5 40.5t30.5 11.5q17 0 29.5 -11t12.5 -41q0 -29 -12.5 -40.5t-29.5 -11.5zM232 -10q-70 0 -106.5 46.5t-36.5 149.5v241q0 30 -8.5 44.5t-23.5 19t-35 4.5h-3v41h159v-347q0 -45 7.5 -75.5t26.5 -46t52 -15.5
q36 0 58.5 20.5t33 57.5t10.5 85v207q0 32 -8.5 47.5t-23.5 20.5t-34 5h-3v41h158v-427q0 -29 9.5 -44t25 -19.5t33.5 -4.5h4v-41h-143l-12 82h-4q-25 -54 -58.5 -73t-77.5 -19z" />
    <glyph glyph-name="uni01DB" unicode="&#x1db;" horiz-adv-x="616" 
d="M319 884q-17 14 -35.5 32t-35.5 38t-31 38.5t-22 31.5v10h96q6 -18 16.5 -42t22.5 -49t24 -46v-13h-35zM244 766q-19 0 -32 12.5t-13 42.5q0 32 13 44t32 12t32 -12t13 -44q0 -30 -13 -42.5t-32 -12.5zM409 766q-19 0 -32 12t-13 43q0 32 13 44t32 12q18 0 32 -12t14 -44
q0 -31 -14 -43t-32 -12zM310 -10q-66 0 -115 22.5t-75 72.5t-26 131v389q0 30 -9.5 44.5t-25 19t-34.5 4.5h-12v41h256v-41h-11q-20 0 -35.5 -5t-24.5 -20t-9 -47v-391q0 -88 38.5 -124.5t100.5 -36.5q48 0 78.5 21t46 56.5t15.5 80.5v398q0 30 -9.5 44.5t-24.5 19t-35 4.5
h-11v41h215v-41h-11q-20 0 -36 -5t-25 -20t-9 -47v-396q0 -66 -23.5 -114t-71 -74.5t-117.5 -26.5z" />
    <glyph glyph-name="uni01DC" unicode="&#x1dc;" horiz-adv-x="547" 
d="M257 719q-17 14 -35.5 32t-35.5 38t-31 38.5t-22 31.5v10h96q6 -18 16.5 -42t22.5 -49t24 -46v-13h-35zM182 601q-19 0 -32 12.5t-13 42.5q0 32 13 44t32 12t32 -12t13 -44q0 -30 -13 -42.5t-32 -12.5zM347 601q-19 0 -31.5 12t-12.5 43q0 32 12.5 44t31.5 12
q18 0 32 -12t14 -44q0 -31 -14 -43t-32 -12zM232 -10q-70 0 -106.5 46.5t-36.5 149.5v241q0 30 -8.5 44.5t-23.5 19t-35 4.5h-3v41h159v-347q0 -45 7.5 -75.5t26.5 -46t52 -15.5q36 0 58.5 20.5t33 57.5t10.5 85v207q0 32 -8.5 47.5t-23.5 20.5t-34 5h-3v41h158v-427
q0 -29 9.5 -44t25 -19.5t33.5 -4.5h4v-41h-143l-12 82h-4q-25 -54 -58.5 -73t-77.5 -19z" />
    <glyph glyph-name="uni01DD" unicode="&#x1dd;" horiz-adv-x="462" 
d="M222 -10q-84 0 -132 61.5t-48 179.5v41h284q-2 112 -34 164.5t-92 52.5q-45 0 -75.5 -22.5t-46.5 -53.5q-7 4 -12.5 12.5t-5.5 21.5q0 21 17 44t51 39t86 16q97 0 149.5 -71.5t52.5 -202.5q0 -141 -50.5 -211.5t-143.5 -70.5zM222 40q48 0 73.5 47.5t28.5 134.5h-192
q1 -81 21 -131.5t69 -50.5z" />
    <glyph glyph-name="uni01DE" unicode="&#x1de;" horiz-adv-x="609" 
d="M187 940v56h245v-56h-245zM226 776q-19 0 -31.5 12.5t-12.5 43.5q0 32 12.5 44t31.5 12t32 -12t13 -44q0 -31 -13 -43.5t-32 -12.5zM392 776q-19 0 -32 12.5t-13 43.5q0 32 13 44t32 12q18 0 31.5 -12t13.5 -44q0 -31 -13.5 -43.5t-31.5 -12.5zM1 0v41h15q17 0 27.5 6
t19.5 23t19 49l188 595h75l193 -625q6 -19 13.5 -29t19 -14.5t29.5 -4.5h9v-41h-243v41h20q25 0 38 11t13 31q0 7 -1.5 15t-3.5 18t-5 19l-31 105h-221l-29 -98q-3 -8 -5 -18t-4 -19t-2 -18q0 -21 13 -33.5t42 -12.5h22v-41h-211zM192 289h188l-53 186q-8 30 -16 56.5
t-13.5 49.5t-10.5 42q-4 -19 -9.5 -41t-12 -46t-15.5 -51z" />
    <glyph glyph-name="uni01DF" unicode="&#x1df;" horiz-adv-x="487" 
d="M113 775v56h245v-56h-245zM152 611q-19 0 -32 12.5t-13 43.5q0 32 13 44t32 12t32 -12t13 -44q0 -31 -13 -43.5t-32 -12.5zM318 611q-19 0 -32 12.5t-13 43.5q0 32 13 44t32 12q17 0 31 -12t14 -44q0 -31 -14 -43.5t-31 -12.5zM173 -10q-37 0 -66.5 17.5t-47 53
t-17.5 89.5q0 80 48 117.5t146 41.5l70 3v61q0 37 -5 64.5t-21.5 43.5t-49.5 16q-32 0 -48 -14t-21.5 -38.5t-5.5 -56.5q-39 0 -58.5 15t-19.5 47q0 31 20.5 52.5t56 32.5t82.5 11q79 0 119 -39.5t40 -134.5v-259q0 -28 5.5 -43.5t17 -22t31.5 -6.5h2v-41h-123l-14 87h-6
q-18 -28 -35.5 -50t-40.5 -34.5t-59 -12.5zM199 45q34 0 57.5 18.5t37 52t13.5 75.5v82l-51 -3q-46 -2 -73 -17t-38 -42t-11 -67q0 -31 6.5 -53t21.5 -34t37 -12z" />
    <glyph glyph-name="uni01E0" unicode="&#x1e0;" horiz-adv-x="609" 
d="M185 928v58h247v-58h-247zM309 759q-20 0 -33.5 12.5t-13.5 42.5q0 32 13.5 43.5t33.5 11.5q18 0 31 -11.5t13 -43.5q0 -30 -13 -42.5t-31 -12.5zM1 0v41h15q17 0 27.5 6t19.5 23t19 49l188 595h75l193 -625q6 -19 13.5 -29t19 -14.5t29.5 -4.5h9v-41h-243v41h20
q25 0 38 11t13 31q0 7 -1.5 15t-3.5 18t-5 19l-31 105h-221l-29 -98q-3 -8 -5 -18t-4 -19t-2 -18q0 -21 13 -33.5t42 -12.5h22v-41h-211zM192 289h188l-53 186q-8 30 -16 56.5t-13.5 49.5t-10.5 42q-4 -19 -9.5 -41t-12 -46t-15.5 -51z" />
    <glyph glyph-name="uni01E1" unicode="&#x1e1;" horiz-adv-x="487" 
d="M111 779v57h248v-57h-248zM235 610q-19 0 -33 12t-14 43t14 43t33 12t32 -12t13 -43t-13 -43t-32 -12zM173 -10q-37 0 -66.5 17.5t-47 53t-17.5 89.5q0 80 48 117.5t146 41.5l70 3v61q0 37 -5 64.5t-21.5 43.5t-49.5 16q-32 0 -48 -14t-21.5 -38.5t-5.5 -56.5
q-39 0 -58.5 15t-19.5 47q0 31 20.5 52.5t56 32.5t82.5 11q79 0 119 -39.5t40 -134.5v-259q0 -28 5.5 -43.5t17 -22t31.5 -6.5h2v-41h-123l-14 87h-6q-18 -28 -35.5 -50t-40.5 -34.5t-59 -12.5zM199 45q34 0 57.5 18.5t37 52t13.5 75.5v82l-51 -3q-46 -2 -73 -17t-38 -42
t-11 -67q0 -31 6.5 -53t21.5 -34t37 -12z" />
    <glyph glyph-name="uni01E2" unicode="&#x1e2;" horiz-adv-x="817" 
d="M-1 0v41h14q15 0 27.5 8.5t24.5 25.5t23 44l244 549l-64 5v41h482l4 -174h-47l-5 42q-1 22 -9 41t-24 30t-43 12h-139v-267h206v-48h-206v-301h160q28 0 45 12t26 30.5t12 40.5l6 42h47l-6 -174h-465v41h13q19 0 34.5 5t24.5 19.5t9 44.5v130h-196l-46 -107
q-6 -16 -9.5 -30t-3.5 -23q0 -20 13 -29.5t38 -9.5h19v-41h-209zM220 289h173v376h-10zM334 793v57h247v-57h-247z" />
    <glyph glyph-name="uni01E3" unicode="&#x1e3;" horiz-adv-x="722" 
d="M177 -10q-38 0 -69 17t-48.5 53t-17.5 90q0 80 48 117.5t146 41.5l70 3v61q0 37 -5 64.5t-21.5 43.5t-49.5 16q-31 0 -48 -14t-22 -38.5t-5 -56.5q-40 0 -59 15t-19 47q0 34 21.5 55t56.5 31t78 10q32 0 57.5 -7.5t44.5 -23t32 -40.5q23 34 57 52.5t79 18.5
q55 0 94.5 -27.5t61 -81t21.5 -130.5v-44h-284q1 -74 15.5 -121.5t43.5 -71t71 -23.5q40 0 70.5 21.5t47.5 55.5q7 -4 13 -12.5t6 -21.5q0 -20 -17 -43.5t-50.5 -40t-86.5 -16.5q-62 0 -106 31.5t-66 90.5q-11 -29 -32 -57.5t-53 -46.5t-75 -18zM200 45q32 0 56 18t37.5 51
t13.5 78v81l-51 -3q-46 -2 -73 -17t-38 -42t-11 -67q0 -32 7.5 -54t22.5 -33.5t36 -11.5zM589 314q0 81 -20 131t-70 50q-47 0 -72.5 -45.5t-28.5 -135.5h191zM243 628v57h247v-57h-247z" />
    <glyph glyph-name="uni01E4" unicode="&#x1e4;" horiz-adv-x="617" 
d="M346 -10q-100 0 -166.5 46t-99 128.5t-32.5 193.5q0 108 34 190.5t101.5 129t166.5 46.5q63 0 105.5 -14.5t65 -39.5t22.5 -57t-22 -51t-58 -19q0 31 -11.5 60.5t-37 49t-67.5 19.5q-68 0 -111 -35t-63.5 -105t-20.5 -174q0 -101 20 -171t65.5 -106.5t121.5 -36.5
q23 0 45 3t39 10v97h-109v48h109v23q0 30 -8 44t-23 18.5t-34 4.5h-7v41h227v-41h-6q-17 0 -29 -5t-18.5 -19.5t-6.5 -46.5v-19h67v-48h-67v-119q-44 -22 -90 -33.5t-102 -11.5z" />
    <glyph glyph-name="uni01E5" unicode="&#x1e5;" horiz-adv-x="462" 
d="M198 -240q-91 0 -136 39t-45 108q0 39 15 66.5t39.5 44t52.5 22.5q-18 9 -34.5 27t-16.5 50q0 30 16.5 52.5t43.5 40.5q-37 19 -58.5 60.5t-21.5 90.5q0 86 41 135.5t125 49.5q32 0 57.5 -9.5t41.5 -24.5q9 9 21 22.5t28 23.5t36 10q25 0 37.5 -15.5t12.5 -36.5
t-10.5 -37t-35.5 -16q0 15 -8 27t-21 12q-11 0 -19.5 -4t-16.5 -11q15 -20 26 -48t11 -74q0 -75 -39.5 -124t-120.5 -49q-11 0 -26 1.5t-23 3.5q-13 -10 -24.5 -25t-11.5 -38q0 -25 15.5 -34t41.5 -9h92q52 0 83.5 -19.5t46.5 -52.5t15 -74q0 -2 -0.5 -5t-0.5 -6h46v-43h-55
q-17 -61 -71 -96t-149 -35zM200 -192q69 0 102 23t43 60h-132v43h138q-1 46 -22.5 62t-59.5 16h-87q-23 0 -43.5 -8.5t-34 -29.5t-13.5 -61q0 -30 11 -53.5t34.5 -37.5t63.5 -14zM217 238q28 0 45.5 13.5t25 41.5t7.5 72q0 46 -8 75.5t-25.5 44t-45.5 14.5t-45.5 -15
t-25.5 -44.5t-8 -75.5q0 -64 19 -95t61 -31z" />
    <glyph glyph-name="Gcaron" unicode="&#x1e6;" horiz-adv-x="617" 
d="M346 -10q-100 0 -166.5 46t-99 128.5t-32.5 193.5q0 108 34 190.5t101.5 129t166.5 46.5q63 0 105.5 -14.5t65 -39.5t22.5 -57t-22 -51t-58 -19q0 31 -11.5 60.5t-37 49t-67.5 19.5q-68 0 -111 -35t-63.5 -105t-20.5 -174q0 -101 20 -171t65.5 -106.5t121.5 -36.5
q23 0 45 3t39 10v164q0 30 -8 44.5t-23 18.5t-34 4h-7v41h227v-41h-6q-17 0 -29 -4.5t-18.5 -19.5t-6.5 -47v-182q-44 -22 -90 -33.5t-102 -11.5zM299 771q-8 23 -24 49.5t-32.5 52.5t-30.5 45v13h38l31.5 -31.5t32 -34t28.5 -35.5q13 18 28.5 35.5t32.5 34t32 31.5h38v-13
q-13 -19 -30 -45t-32 -52.5t-25 -49.5h-87z" />
    <glyph glyph-name="gcaron" unicode="&#x1e7;" horiz-adv-x="462" 
d="M198 -239q-91 0 -136 38.5t-45 107.5q0 39 15 66.5t39.5 44t52.5 22.5q-18 9 -34.5 27t-16.5 50q0 30 16.5 52.5t43.5 40.5q-37 19 -58.5 60.5t-21.5 90.5q0 86 41 135.5t125 49.5q32 0 57.5 -9.5t41.5 -24.5q9 9 21 22.5t28 23.5t36 10q25 0 37.5 -15.5t12.5 -36.5
t-10.5 -37t-35.5 -16q0 15 -8 27t-21 12q-11 0 -19.5 -4t-16.5 -11q15 -20 26 -48t11 -74q0 -75 -39.5 -124t-120.5 -49q-11 0 -26 1.5t-24 4.5q-12 -10 -23.5 -25.5t-11.5 -38.5t13.5 -33t43.5 -10h92q52 0 84 -19.5t46.5 -52.5t14.5 -73q0 -85 -56 -135t-174 -50z
M200 -191q59 0 92.5 16t46.5 44t13 62q0 46 -21.5 63.5t-61.5 17.5h-87q-23 0 -43.5 -8t-34 -29.5t-13.5 -61.5q0 -29 11 -52.5t34.5 -37.5t63.5 -14zM217 238q28 0 45.5 13.5t25 41.5t7.5 72q0 46 -8 75.5t-25.5 44t-45.5 14.5t-45.5 -15t-25.5 -44.5t-8 -75.5
q0 -64 19 -95t61 -31zM178 606q-8 23 -24 49.5t-32.5 52.5t-30.5 45v13h38l31.5 -31.5t32 -34t28.5 -35.5q13 18 28.5 35.5t32.5 34t32 31.5h38v-13q-13 -19 -30 -45t-32 -52.5t-25 -49.5h-87z" />
    <glyph glyph-name="uni01E8" unicode="&#x1e8;" horiz-adv-x="603" 
d="M31 0v41h14q20 0 35 5t23.5 19t8.5 43v498q0 29 -8.5 43t-23.5 19t-33 5h-16v41h252v-41h-12q-18 0 -33 -5t-23 -20t-8 -45v-293l172 246q19 26 29.5 44t15.5 30.5t5 21.5q0 13 -10.5 17.5t-33.5 4.5v40h194v-40q-20 0 -38 -11t-37 -31.5t-41 -50.5l-124 -166l183 -293
q16 -26 31.5 -44t31 -27.5t30.5 -9.5h2v-41h-25q-38 0 -63.5 4.5t-43.5 15.5t-33 30.5t-32 50.5l-143 241l-70 -88v-143q0 -29 8.5 -44.5t23.5 -20.5t34 -5h10v-41h-252zM284 771q-8 23 -24 49.5t-32.5 52.5t-30.5 45v13h38l31.5 -31.5t32 -34t28.5 -35.5q13 18 28.5 35.5
t32.5 34t32 31.5h38v-13q-13 -19 -30 -45t-32 -52.5t-25 -49.5h-87z" />
    <glyph glyph-name="uni01E9" unicode="&#x1e9;" horiz-adv-x="507" 
d="M15 0v41h8q18 0 33.5 5t25 20.5t9.5 46.5v538q0 30 -9.5 44.5t-25 19t-33.5 4.5h-8v41h165v-385q0 -13 -0.5 -34t-1.5 -42.5t-1.5 -36.5t-0.5 -16l107 139q19 24 28.5 40t13.5 27.5t4 19.5q0 13 -10.5 18t-31.5 5v41h190v-41q-15 0 -29.5 -6.5t-29 -18.5t-29.5 -29.5
t-32 -39.5l-57 -75l113 -201q23 -40 43.5 -62t48.5 -22h3v-41h-12q-39 0 -64.5 3.5t-43 13t-32.5 30.5t-33 54l-84 161l-59 -68v-86q0 -29 10 -43.5t25.5 -19t32.5 -4.5h4v-41h-237zM212 796q-8 23 -24 49.5t-32.5 52.5t-30.5 45v13h38l31.5 -31.5t32 -34t28.5 -35.5
q13 18 28.5 35.5t32.5 34t32 31.5h38v-13q-13 -19 -30 -45t-32 -52.5t-25 -49.5h-87z" />
    <glyph glyph-name="uni01EA" unicode="&#x1ea;" horiz-adv-x="640" 
d="M320 -10q-92 0 -152.5 46t-90 129t-29.5 194t29.5 193t90.5 127.5t153 45.5q87 0 147.5 -45.5t92 -128t31.5 -193.5t-31.5 -193.5t-92 -128.5t-148.5 -46zM320 43q62 0 99.5 37.5t53.5 108t16 169.5q0 100 -16.5 170t-53 107t-98.5 37q-91 0 -130.5 -82.5t-39.5 -231.5
q0 -99 17 -169.5t54.5 -108t97.5 -37.5zM348 -240q-56 0 -87 26.5t-31 83.5q0 31 14 58t37 46t49 26h52q-18 -6 -36.5 -21.5t-31 -38.5t-12.5 -55q0 -33 17 -48.5t42 -15.5q12 0 25.5 2t28.5 6v-53q-9 -5 -21 -8.5t-24 -5.5t-22 -2z" />
    <glyph glyph-name="uni01EB" unicode="&#x1eb;" horiz-adv-x="498" 
d="M248 -10q-94 0 -148 69t-54 210q0 140 52 208.5t153 68.5q93 0 147 -68.5t54 -208.5q0 -141 -51.5 -210t-152.5 -69zM250 41q41 0 65 26t35 76.5t11 125.5q0 112 -25.5 168.5t-86.5 56.5t-86.5 -56.5t-25.5 -168.5t26 -170t87 -58zM264 -240q-56 0 -87 26.5t-31 83.5
q0 31 14 58t37 46t49 26h52q-18 -6 -36.5 -21.5t-31 -38.5t-12.5 -55q0 -33 17 -48.5t42 -15.5q12 0 25.5 2t28.5 6v-53q-9 -5 -21 -8.5t-24 -5.5t-22 -2z" />
    <glyph glyph-name="uni01EC" unicode="&#x1ec;" horiz-adv-x="640" 
d="M320 -10q-92 0 -152.5 46t-90 129t-29.5 194t29.5 193t90.5 127.5t153 45.5q87 0 147.5 -45.5t92 -128t31.5 -193.5t-31.5 -193.5t-92 -128.5t-148.5 -46zM320 43q62 0 99.5 37.5t53.5 108t16 169.5q0 100 -16.5 170t-53 107t-98.5 37q-91 0 -130.5 -82.5t-39.5 -231.5
q0 -99 17 -169.5t54.5 -108t97.5 -37.5zM340 -240q-56 0 -87 26.5t-31 83.5q0 31 14 58t37 46t49 26h52q-18 -6 -36.5 -21.5t-31 -38.5t-12.5 -55q0 -33 17 -48.5t42 -15.5q12 0 25.5 2t28.5 6v-53q-9 -5 -21 -8.5t-24 -5.5t-22 -2zM199 793v57h247v-57h-247z" />
    <glyph glyph-name="uni01ED" unicode="&#x1ed;" horiz-adv-x="498" 
d="M248 -10q-94 0 -148 69t-54 210q0 140 52 208.5t153 68.5q93 0 147 -68.5t54 -208.5q0 -141 -51.5 -210t-152.5 -69zM250 41q41 0 65 26t35 76.5t11 125.5q0 112 -25.5 168.5t-86.5 56.5t-86.5 -56.5t-25.5 -168.5t26 -170t87 -58zM123 617v57h247v-57h-247zM264 -234
q-52 0 -82.5 24.5t-30.5 79.5q0 33 14 59.5t35.5 45t44.5 25.5h54q-19 -7 -37.5 -23.5t-31 -41t-12.5 -56.5t16 -47t42 -15q12 0 25 2.5t28 8.5v-48q-8 -5 -19.5 -8t-23.5 -4.5t-22 -1.5z" />
    <glyph glyph-name="uni01EE" unicode="&#x1ee;" horiz-adv-x="511" 
d="M213 771q-8 23 -24 49.5t-32.5 52.5t-30.5 45v13h38l31.5 -31.5t32 -34t28.5 -35.5q13 18 28.5 35.5t32.5 34t32 31.5h38v-13q-13 -19 -30 -45t-32 -52.5t-25 -49.5h-87zM233 -10q-54 0 -92 10.5t-61.5 28.5t-33.5 39.5t-10 42.5q0 26 9 42t26 23.5t38 7.5
q0 -38 13 -70.5t41 -51.5t71 -19q40 0 70 16t47.5 51t17.5 91q0 50 -16.5 83t-49 50t-79.5 17h-59v41l183 246h-163q-35 0 -49.5 -11t-17.5 -51l-2 -18h-43l5 156h362v-42l-201 -267q55 0 96.5 -13t70.5 -38.5t43.5 -63.5t14.5 -89q0 -73 -30.5 -120t-83 -69t-117.5 -22z
" />
    <glyph glyph-name="uni01EF" unicode="&#x1ef;" horiz-adv-x="455" 
d="M183 606q-8 23 -24 49.5t-32.5 52.5t-30.5 45v13h38l31.5 -31.5t32 -34t28.5 -35.5q13 18 28.5 35.5t32.5 34t32 31.5h38v-13q-13 -19 -30 -45t-32 -52.5t-25 -49.5h-87zM198 -240q-65 0 -102 17t-52.5 42t-15.5 47q0 29 15.5 45.5t52.5 16.5q0 -30 9.5 -57.5t31.5 -45
t59 -17.5q38 0 68 19t47 60.5t17 109.5q0 87 -41 131t-123 44h-19v39l173 251h-162q-30 0 -41 -14t-18 -51l-3 -14h-38l7 153h338v-47l-185 -266q42 -3 79 -16t64.5 -38.5t43.5 -67t16 -99.5q0 -65 -18 -111t-49 -75t-70.5 -42.5t-83.5 -13.5z" />
    <glyph glyph-name="uni01F0" unicode="&#x1f0;" horiz-adv-x="270" 
d="M-6 -240v46h6q31 0 53 16.5t33 57t11 110.5v437q0 30 -8.5 44.5t-23.5 19t-34 4.5h-7v41h161v-544q0 -89 -22.5 -140t-62 -71.5t-92.5 -20.5h-14zM79 606q-8 23 -24 49.5t-32.5 52.5t-30.5 45v13h38l31.5 -31.5t32 -34t28.5 -35.5q13 18 28.5 35.5t32.5 34t32 31.5h38
v-13q-13 -19 -30 -45t-32 -52.5t-25 -49.5h-87z" />
    <glyph glyph-name="uni01F1" unicode="&#x1f1;" horiz-adv-x="1143" 
d="M31 0v41h17q19 0 33.5 5.5t22.5 21t8 45.5v492q0 29 -8.5 43.5t-23.5 19.5t-34 5h-15v41h265q89 0 152 -42t96.5 -121.5t33.5 -193.5q0 -109 -31.5 -189.5t-94 -124t-156.5 -43.5h-265zM276 50q67 0 110.5 35.5t66 104t22.5 167.5t-22 168t-66 104.5t-110 35.5h-70v-615
h69zM658 0v39l324 626h-186q-38 0 -52.5 -24.5t-17.5 -56.5l-4 -43h-47l4 173h413v-40l-325 -625h214q27 0 42.5 11.5t23 30t9.5 40.5l3 42h47l-3 -173h-445z" />
    <glyph glyph-name="uni01F2" unicode="&#x1f2;" horiz-adv-x="1065" 
d="M31 0v41h17q19 0 33.5 5.5t22.5 21t8 45.5v492q0 29 -8.5 43.5t-23.5 19.5t-34 5h-15v41h265q89 0 152 -42t96.5 -121.5t33.5 -193.5q0 -109 -31.5 -189.5t-94 -124t-156.5 -43.5h-265zM276 50q67 0 110.5 35.5t66 104t22.5 167.5t-22 168t-66 104.5t-110 35.5h-70v-615
h69zM659 0v40l252 447h-126q-36 0 -49 -20.5t-22 -59.5l-3 -11h-40l10 140h334v-41l-253 -446h149q33 0 46.5 22.5t20.5 62.5l5 27h38l-5 -161h-357z" />
    <glyph glyph-name="uni01F3" unicode="&#x1f3;" horiz-adv-x="968" 
d="M218 -10q-56 0 -94.5 29t-58.5 90.5t-20 157.5q0 97 20 158.5t59 91t96 29.5q49 0 79.5 -24.5t48.5 -63.5h5q-2 24 -2.5 52t-0.5 54v86q0 30 -10 45t-25.5 19.5t-34.5 4.5h-7v41h165v-649q0 -29 9 -44.5t24.5 -20.5t34.5 -5h8v-41h-150l-10 91h-3q-20 -46 -51 -73.5
t-82 -27.5zM238 48q61 0 86.5 58t25.5 161q0 107 -24.5 164t-88.5 57q-35 0 -57.5 -25.5t-32.5 -75t-10 -121.5q0 -110 23.5 -164t77.5 -54zM562 0v40l252 447h-126q-36 0 -49 -20.5t-22 -59.5l-3 -11h-40l10 140h334v-41l-253 -446h149q33 0 46.5 22.5t20.5 62.5l5 27h38
l-5 -161h-357z" />
    <glyph glyph-name="uni01F4" unicode="&#x1f4;" horiz-adv-x="617" 
d="M346 -10q-100 0 -166.5 46t-99 128.5t-32.5 193.5q0 108 34 190.5t101.5 129t166.5 46.5q63 0 105.5 -14.5t65 -39.5t22.5 -57t-22 -51t-58 -19q0 31 -11.5 60.5t-37 49t-67.5 19.5q-68 0 -111 -35t-63.5 -105t-20.5 -174q0 -101 20 -171t65.5 -106.5t121.5 -36.5
q23 0 45 3t39 10v164q0 30 -8 44.5t-23 18.5t-34 4h-7v41h227v-41h-6q-17 0 -29 -4.5t-18.5 -19.5t-6.5 -47v-182q-44 -22 -90 -33.5t-102 -11.5zM284 798q14 24 29 49.5t28.5 50.5t21.5 47h99v-10q-8 -13 -24 -32.5t-36.5 -40.5t-42 -41.5t-39.5 -35.5h-36v13z" />
    </font>
</defs>
</svg>
