<?xml version="1.0" standalone="no"?>
<!DOCTYPE svg PUBLIC "-//W3C//DTD SVG 1.1//EN" "http://www.w3.org/Graphics/SVG/1.1/DTD/svg11.dtd" >
<svg xmlns="http://www.w3.org/2000/svg" xmlns:xlink="http://www.w3.org/1999/xlink" version="1.1">
<metadata>
Created by FontForge 20201107 at Wed Nov 20 20:06:57 2024
 By 
Copyright 2022 The Noto Project Authors (https://github.com/notofonts/latin-greek-cyrillic)
</metadata>
<defs>
<font id="NotoSerifCondensed-Thin" horiz-adv-x="0" >
  <font-face 
    font-family="Noto Serif Condensed Thin"
    font-weight="250"
    font-stretch="condensed"
    units-per-em="1000"
    panose-1="2 2 5 2 6 5 5 2 2 4"
    ascent="800"
    descent="-200"
    x-height="536"
    cap-height="714"
    bbox="-595 -389 2323 1038"
    underline-thickness="50"
    underline-position="-125"
    unicode-range="U+000D-1DF1E"
  />
<missing-glyph horiz-adv-x="596" 
d="M88 0v714h411v-714h-411zM139 51h309v612h-309v-612z" />
    <glyph glyph-name="f_f" unicode="ff" horiz-adv-x="537" 
d="M30 0v20h24q26 0 38 5.5t15 22.5t3 52v411h-77v25h77v54q0 85 34.5 128t95.5 43q27 0 46.5 -9t30 -26t10.5 -40q0 -18 -6.5 -28.5t-14.5 -10.5q0 28 -5 47.5t-19.5 30.5t-41.5 11q-36 0 -58.5 -19t-33 -52t-10.5 -76v-53h253v-25h-253v-411q0 -35 4 -52t16 -22.5t38 -5.5
h26v-20h-192zM296 0v20h21q27 0 40 5t16.5 22.5t3.5 54.5v409h-58v25h58v65q0 57 15 95t44.5 57t70.5 19q26 0 45.5 -9t30.5 -25.5t11 -40.5q0 -12 -3.5 -21t-8 -13.5t-10.5 -4.5q0 28 -5 47.5t-19.5 30.5t-41.5 11q-54 0 -77.5 -41.5t-23.5 -105.5v-64h120v-25h-120v-409
q0 -37 3.5 -54.5t16.5 -22.5t39 -5h42v-20h-210z" />
    <glyph glyph-name="fi" unicode="fi" horiz-adv-x="499" 
d="M30 0v20h24q26 0 38 5.5t15 22.5t3 52v411h-76v25h76v49q0 61 19.5 104t57 67t92.5 24q31 0 54.5 -7t39.5 -18.5t24 -26.5t8 -30q0 -16 -6 -26t-14 -11q0 28 -10.5 49t-33.5 33t-63 12q-50 0 -80.5 -23.5t-45 -62t-14.5 -85.5v-48h267v-441q0 -35 4 -50.5t18.5 -20
t46.5 -4.5h18v-20h-195v20h10q32 0 47 4.5t19 20t4 50.5v416h-239v-411q0 -35 3.5 -52t16.5 -22.5t39 -5.5h23v-20h-190z" />
    <glyph glyph-name="fl" unicode="fl" horiz-adv-x="498" 
d="M30 0v20h24q26 0 38 5.5t15 22.5t3 52v411h-76v25h76v40q0 90 42.5 142.5t125.5 52.5q25 0 43.5 -3t32.5 -8h49v-666q0 -35 3.5 -50.5t19.5 -19.5t51 -4h14v-20h-200v20h13q34 0 48.5 4t18.5 19.5t4 50.5v568q0 33 -7 51t-27.5 25.5t-63.5 7.5q-50 0 -80.5 -23.5
t-44.5 -62t-14 -84.5v-40h121v-25h-121v-411q0 -35 4 -52t16 -22.5t38 -5.5h27v-20h-193z" />
    <glyph glyph-name="f_f_i" unicode="ffi" horiz-adv-x="766" 
d="M30 0v20h24q26 0 38 5.5t15 22.5t3 52v411h-77v25h77v54q0 85 34.5 128t95.5 43q27 0 46.5 -9t30 -26t10.5 -40q0 -18 -6.5 -28.5t-14.5 -10.5q0 28 -5 47.5t-19.5 30.5t-41.5 11q-36 0 -58.5 -19t-33 -52t-10.5 -76v-53h239v49q0 90 43 142.5t125 52.5q41 0 69 -12
t43 -30.5t15 -39.5q0 -10 -3 -18.5t-7.5 -13.5t-10.5 -5q0 28 -10 49t-33.5 33t-63.5 12q-49 0 -80 -23.5t-45 -62t-14 -85.5v-48h266v-441q0 -35 4 -50.5t19 -20t47 -4.5h18v-20h-198v20h12q33 0 47.5 4.5t18.5 20t4 50.5v416h-238v-411q0 -35 3.5 -52t15.5 -22.5t38 -5.5
h27v-20h-193v20h24q26 0 38 5.5t15.5 22.5t3.5 52v411h-239v-411q0 -35 4 -52t16 -22.5t38 -5.5h26v-20h-192z" />
    <glyph glyph-name="f_f_l" unicode="ffl" horiz-adv-x="762" 
d="M30 0v20h24q26 0 38 5.5t15 22.5t3 52v411h-77v25h77v62q0 86 34.5 128.5t95.5 42.5q27 0 46.5 -8.5t30 -25.5t10.5 -40q0 -19 -6.5 -29.5t-14.5 -10.5q0 28 -5 47.5t-19.5 30.5t-41.5 11q-54 0 -78 -41t-24 -106v-61h237v40q0 90 42 142.5t125 52.5q25 0 43.5 -3
t32.5 -8h49v-665q0 -35 4 -51t20 -20t50 -4h14v-20h-200v20h14q33 0 47.5 4t18.5 19.5t4 51.5v567q0 33 -6.5 51t-27 25.5t-64.5 7.5q-50 0 -80.5 -23.5t-44 -62t-13.5 -84.5v-40h118v-25h-118v-411q0 -35 3.5 -52t15.5 -22.5t38 -5.5h27v-20h-193v20h24q26 0 38 5.5
t15.5 22.5t3.5 52v411h-237v-411q0 -35 4 -52t16 -22.5t38 -5.5h26v-20h-192z" />
    <glyph glyph-name=".notdef" horiz-adv-x="596" 
d="M88 0v714h411v-714h-411zM139 51h309v612h-309v-612z" />
    <glyph glyph-name=".null" 
 />
    <glyph glyph-name="nonmarkingreturn" horiz-adv-x="333" 
 />
    <glyph glyph-name="NULL" 
 />
    <glyph glyph-name="CR" unicode="&#xd;" horiz-adv-x="215" 
 />
    <glyph glyph-name="space" unicode=" " horiz-adv-x="215" 
 />
    <glyph glyph-name="exclam" unicode="!" horiz-adv-x="233" 
d="M105 167l-2 547h28l-1 -547h-25zM117 -5q-12 0 -21 8.5t-9 30.5q0 23 9 31.5t21 8.5q11 0 19.5 -8.5t8.5 -31.5q0 -22 -8.5 -30.5t-19.5 -8.5z" />
    <glyph glyph-name="quotedbl" unicode="&#x22;" horiz-adv-x="249" 
d="M51 517l-12 197h42l-10 -197h-20zM179 517l-12 197h42l-10 -197h-20z" />
    <glyph glyph-name="numbersign" unicode="#" horiz-adv-x="465" 
d="M56 0l41 219h-89v25h94l43 232h-105v25h110l40 213h28l-40 -213h155l40 213h28l-40 -213h94v-25h-99l-43 -232h110v-25h-115l-41 -219h-28l41 219h-155l-41 -219h-28zM130 244h155l43 232h-155z" />
    <glyph glyph-name="dollar" unicode="$" horiz-adv-x="465" 
d="M218 42q-42 2 -71.5 13t-47.5 29.5t-26.5 40t-8.5 43.5q0 11 2 22t6.5 18t12.5 7q-1 -47 13.5 -80t44 -50t75.5 -17v295q-42 23 -70.5 47t-43 55.5t-14.5 74.5t16.5 73t45.5 48t66 22v77h28v-76q48 1 77.5 -15.5t43.5 -43t14 -58.5q0 -23 -5.5 -34.5t-15.5 -11.5
q0 36 -9 68t-33 52t-72 18v-279q61 -30 92 -60.5t42 -62.5t11 -66q0 -70 -40.5 -107.5t-104.5 -41.5v-121h-28v121zM246 66q58 6 87.5 40.5t29.5 87.5q0 52 -27 88.5t-90 66.5v-283zM218 658q-50 -7 -75 -39.5t-25 -77.5q0 -41 11 -66.5t33.5 -44t55.5 -36.5v264z" />
    <glyph glyph-name="percent" unicode="%" horiz-adv-x="736" 
d="M190 0l320 714h31l-320 -714h-31zM170 280q-63 0 -92.5 57t-29.5 166q0 106 29.5 163.5t93.5 57.5q63 0 92 -56.5t29 -164.5q0 -70 -12.5 -120t-39.5 -76.5t-70 -26.5zM169 305q37 0 57.5 24t29 68.5t8.5 105.5q0 96 -21 146t-74 50q-35 0 -55.5 -23.5t-29 -68
t-8.5 -104.5q0 -95 20.5 -146.5t72.5 -51.5zM566 -10q-63 0 -92.5 57t-29.5 166q0 106 29.5 163.5t92.5 57.5q64 0 93 -56.5t29 -164.5q0 -70 -12.5 -120t-39.5 -76.5t-70 -26.5zM565 15q37 0 57.5 24t29 68.5t8.5 105.5q0 96 -21 146t-74 50q-35 0 -55.5 -23.5t-29 -68
t-8.5 -104.5q0 -95 21 -146.5t72 -51.5z" />
    <glyph glyph-name="ampersand" unicode="&#x26;" horiz-adv-x="564" 
d="M196 -10q-55 0 -94.5 27.5t-60 73.5t-20.5 104q0 54 16 92.5t45.5 66t72.5 47.5q-20 27 -37 52t-26.5 55.5t-9.5 70.5q0 38 15 71t46.5 53.5t80.5 20.5q45 0 74.5 -20t45 -52t15.5 -70q0 -46 -16.5 -81.5t-51 -62.5t-90.5 -48l177 -230q19 46 27.5 100.5t8.5 101.5v53
h116v-20h-17q-29 0 -44.5 -3t-21.5 -15t-9 -41q-2 -48 -12.5 -98.5t-31.5 -100.5l76 -93q11 -14 27 -19t52 -5h10v-20h-91l-87 108q-18 -31 -43 -58t-59.5 -43.5t-82.5 -16.5zM196 15q60 0 102 32.5t68 83.5l-194 251q-29 -13 -57.5 -34t-47 -56.5t-18.5 -92.5
q0 -93 41.5 -138.5t105.5 -45.5zM185 410q77 27 111.5 68t34.5 103q0 47 -26.5 82.5t-80.5 35.5q-56 0 -85 -33.5t-29 -86.5q0 -31 7.5 -57.5t24 -53t43.5 -58.5z" />
    <glyph glyph-name="quotesingle" unicode="'" horiz-adv-x="121" 
d="M51 517l-12 197h42l-10 -197h-20z" />
    <glyph glyph-name="parenleft" unicode="(" horiz-adv-x="238" 
d="M212 -115q-52 24 -88.5 75t-56.5 138.5t-20 216.5q0 128 20 215.5t56.5 139.5t88.5 75v-27q-35 -16 -61 -52.5t-42.5 -89.5t-25 -119.5t-8.5 -141.5t8.5 -141t25.5 -119t42.5 -89.5t60.5 -53.5v-27z" />
    <glyph glyph-name="parenright" unicode=")" horiz-adv-x="238" 
d="M33 -88q35 17 60.5 53.5t42.5 89.5t25.5 118.5t8.5 141.5q0 75 -8.5 141.5t-25 119.5t-42.5 89.5t-61 52.5v27q52 -23 89 -75t56.5 -139.5t19.5 -215.5q0 -129 -19.5 -216.5t-56.5 -138.5t-89 -75v27z" />
    <glyph glyph-name="asterisk" unicode="*" horiz-adv-x="366" 
d="M160 381l12 169l-116 -87l-17 44l131 63l-131 64l17 44l117 -87l-13 169h42l-12 -170l116 86l17 -43l-131 -63l131 -62l-17 -43l-116 86l13 -170h-43z" />
    <glyph glyph-name="plus" unicode="+" horiz-adv-x="465" 
d="M218 143v201h-164v28h164v200h29v-200h164v-28h-164v-201h-29z" />
    <glyph glyph-name="comma" unicode="," horiz-adv-x="168" 
d="M23 -129q26 9 41.5 26.5t22 38t6.5 37.5q0 14 -6.5 23t-15.5 16t-15.5 14.5t-6.5 19.5q0 11 7.5 19t21.5 8q18 0 32.5 -16t14.5 -57q0 -45 -23.5 -88.5t-78.5 -65.5v25z" />
    <glyph glyph-name="hyphen" unicode="-" horiz-adv-x="258" 
d="M21 259v28h216v-28h-216z" />
    <glyph glyph-name="period" unicode="." horiz-adv-x="168" 
d="M85 -6q-12 0 -21 8.5t-9 31.5t9 31t21 8q11 0 19.5 -8t8.5 -31t-8.5 -31.5t-19.5 -8.5z" />
    <glyph glyph-name="slash" unicode="/" horiz-adv-x="240" 
d="M0 -121l211 881h29l-211 -881h-29z" />
    <glyph glyph-name="zero" unicode="0" horiz-adv-x="465" 
d="M232 -10q-61 0 -102.5 40.5t-61.5 122.5t-20 206q0 118 19 199.5t60 123.5t106 42q61 0 102 -40.5t61.5 -122t20.5 -203.5q0 -125 -21.5 -206.5t-62.5 -121.5t-101 -40zM232 15q55 0 89.5 40t51 116.5t16.5 186.5t-16 186t-50 115.5t-90 39.5q-57 0 -91.5 -40t-50 -116
t-15.5 -185q0 -111 16 -187.5t50.5 -116t89.5 -39.5z" />
    <glyph glyph-name="one" unicode="1" horiz-adv-x="465" 
d="M98 0v21h81q24 0 36 5.5t16 24t4 55.5v564q-39 -49 -71.5 -76t-65.5 -27q-12 0 -20 5t-8 12q34 7 66 25.5t68 61.5l40 47h19v-612q0 -37 4 -55.5t16 -24t36 -5.5h75v-21h-296z" />
    <glyph glyph-name="two" unicode="2" horiz-adv-x="465" 
d="M49 0v22l170 250q42 61 69 106.5t40 85.5t13 85q0 41 -12.5 75t-40 54.5t-73.5 20.5q-42 0 -69.5 -17.5t-41 -48t-13.5 -70.5q-7 0 -12 4.5t-8 13t-3 21.5q0 24 15.5 52.5t48 49t83.5 20.5q52 0 86 -23t51 -61.5t17 -86.5q0 -39 -8.5 -72.5t-24 -66t-37.5 -67t-50 -74.5
l-167 -246h230q40 0 49.5 15t10.5 54l1 34h20l-2 -130h-342z" />
    <glyph glyph-name="three" unicode="3" horiz-adv-x="465" 
d="M213 -9q-51 0 -85.5 15.5t-52 40t-17.5 52.5q0 17 6 27t16 10q0 -57 33 -88.5t100 -31.5q46 0 80 21.5t53 60.5t19 92q0 83 -44 127.5t-136 44.5h-21v25h20q45 0 81.5 20.5t58 58.5t21.5 93q0 67 -31 103.5t-89 36.5q-44 0 -71 -17.5t-40 -49.5t-13 -74q-8 0 -14.5 9
t-6.5 29q0 35 17 64t49.5 46.5t78.5 17.5q68 0 108 -44t40 -120q0 -50 -18.5 -88.5t-49.5 -63t-69 -32.5q30 -2 58 -13t50.5 -32.5t35.5 -56.5t13 -85q0 -48 -14 -85t-38.5 -62t-57 -38t-70.5 -13z" />
    <glyph glyph-name="four" unicode="4" horiz-adv-x="465" 
d="M215 0v20h33q26 0 39 5.5t16.5 23t3.5 54.5v105h-289v18l288 488h28v-481h119v-25h-119v-105q0 -37 4.5 -54.5t17 -23t38.5 -5.5h21v-20h-200zM50 233h257v213q0 29 0.5 72t1 86.5t0.5 74.5q-3 -8 -14.5 -28.5t-26 -46.5t-29 -51t-24.5 -42z" />
    <glyph glyph-name="five" unicode="5" horiz-adv-x="465" 
d="M211 -10q-53 0 -87.5 17t-50.5 40.5t-16 41.5q0 20 6.5 28.5t16.5 8.5q0 -32 15 -57.5t44.5 -39.5t71.5 -14q47 0 82 22t54 67t19 112q0 90 -41 136t-110 46q-38 0 -66.5 -10t-48.5 -24l-14 4l26 346h254l3 -111h-20l-1 26q-1 26 -5.5 38.5t-16 15.5t-35.5 3h-156
l-21 -286q13 6 28 11.5t33 8.5t40 3q51 0 91.5 -23.5t64 -69t23.5 -114.5q0 -44 -8 -80t-24 -63t-38.5 -46t-51 -28t-61.5 -9z" />
    <glyph glyph-name="six" unicode="6" horiz-adv-x="465" 
d="M247 -10q-57 0 -98 36.5t-62.5 113.5t-21.5 199q0 110 14 184.5t40.5 118.5t63.5 63t82 19q42 0 69 -13.5t40 -36t13 -49.5q0 -23 -6 -30t-15 -7q0 37 -10.5 62t-33 37t-58.5 12q-54 0 -92.5 -34t-58.5 -109.5t-20 -200.5q14 16 36 33t51.5 28.5t66.5 11.5q76 0 118 -54
t42 -157q0 -80 -21.5 -130.5t-58 -73.5t-80.5 -23zM248 15q42 0 71.5 23t44.5 68t15 112q0 90 -32 137.5t-100 47.5q-38 0 -67.5 -13.5t-51 -33t-35.5 -37.5q2 -153 41 -228.5t114 -75.5z" />
    <glyph glyph-name="seven" unicode="7" horiz-adv-x="465" 
d="M155 0l227 686h-260q-27 0 -36.5 -8.5t-11.5 -46.5l-3 -61h-20l4 144h357v-22l-226 -692h-31z" />
    <glyph glyph-name="eight" unicode="8" horiz-adv-x="465" 
d="M234 -10q-56 0 -96 22t-61 62.5t-21 95.5q0 51 18.5 90t52.5 67.5t82 48.5q-39 19 -69 43.5t-47 58t-17 76.5q0 50 19 88t55 60t85 22q50 0 85 -22t53 -60t18 -84q0 -71 -32.5 -113.5t-92.5 -70.5q48 -25 80 -52t48 -63t16 -89q0 -87 -49.5 -133.5t-126.5 -46.5zM234 15
q66 0 107 39t41 114q0 44 -13 77.5t-44.5 62t-87.5 54.5q-83 -30 -118 -80t-35 -112q0 -71 38 -113t112 -42zM239 388q47 20 74 43t38.5 53.5t11.5 73.5q0 35 -12.5 67.5t-41 53t-74.5 20.5q-60 0 -95.5 -39t-35.5 -101q0 -44 15 -74.5t45 -53t75 -43.5z" />
    <glyph glyph-name="nine" unicode="9" horiz-adv-x="465" 
d="M193 -12q-36 0 -60 10t-36.5 26.5t-12.5 31.5q0 11 2.5 16.5t6.5 7.5q8 -18 21 -33.5t33.5 -24.5t48.5 -9q88 0 130.5 84t45.5 260q-10 -11 -29 -28t-48.5 -30t-70.5 -13q-52 0 -89.5 23.5t-57.5 68.5t-20 109q0 75 18 128t54 81t88 28q54 0 95 -34t64.5 -108t23.5 -194
q0 -108 -13 -184.5t-38.5 -124t-64 -69.5t-91.5 -22zM223 311q55 0 89.5 25t59.5 59q0 102 -18.5 169.5t-53 101t-83.5 33.5q-47 0 -76.5 -26t-42.5 -73t-13 -110q0 -88 35 -133.5t103 -45.5z" />
    <glyph glyph-name="colon" unicode=":" horiz-adv-x="197" 
d="M99 431q-12 0 -21 8.5t-9 30.5q0 23 9 31t21 8q11 0 19.5 -8t8.5 -31q0 -22 -8.5 -30.5t-19.5 -8.5zM99 -5q-12 0 -21 8.5t-9 30.5q0 23 9 31t21 8q11 0 19.5 -8t8.5 -31q0 -22 -8.5 -30.5t-19.5 -8.5z" />
    <glyph glyph-name="semicolon" unicode=";" horiz-adv-x="197" 
d="M36 -129q26 9 41.5 26.5t22.5 38t7 37.5q0 14 -6.5 23t-16 16t-16 14.5t-6.5 18.5q0 12 8 20t21 8q18 0 33 -16t15 -57q0 -45 -23.5 -88.5t-79.5 -65.5v25zM99 431q-13 0 -21.5 8.5t-8.5 30.5q0 23 8.5 31t20.5 8t20.5 -8t8.5 -31q0 -22 -8.5 -30.5t-19.5 -8.5z" />
    <glyph glyph-name="less" unicode="&#x3c;" horiz-adv-x="465" 
d="M411 117l-357 227v27l357 228v-35l-326 -207l326 -205v-35z" />
    <glyph glyph-name="equal" unicode="=" horiz-adv-x="465" 
d="M56 445v28h352v-28h-352zM56 241v28h352v-28h-352z" />
    <glyph glyph-name="greater" unicode="&#x3e;" horiz-adv-x="465" 
d="M54 117v35l325 205l-325 207v35l357 -228v-27z" />
    <glyph glyph-name="question" unicode="?" horiz-adv-x="371" 
d="M156 337q49 25 80.5 55.5t46.5 69t15 88.5q0 68 -31 108.5t-90 40.5q-44 0 -70.5 -18t-37.5 -47.5t-11 -64.5q-7 0 -14 10.5t-7 32.5q0 17 7.5 36.5t24 36.5t43 28t65.5 11q45 0 78.5 -20.5t52 -59t18.5 -92.5q0 -57 -16 -99.5t-47.5 -74t-79.5 -55.5l-2 -156h-22z
M171 -5q-11 0 -20 8.5t-9 30.5q0 23 9 31t20 8q12 0 21 -8t9 -31q0 -22 -9 -30.5t-21 -8.5z" />
    <glyph glyph-name="at" unicode="@" horiz-adv-x="764" 
d="M330 -142q-62 0 -111 20.5t-83 61.5t-52 103.5t-18 146.5q0 116 28.5 212t79 166t119 108t147.5 38q87 0 147 -41t91 -113.5t31 -166.5q0 -69 -14 -127t-38 -100.5t-53.5 -65.5t-59.5 -23q-41 0 -61.5 27t-23.5 68h-3q-10 -22 -25.5 -44t-38 -36.5t-55.5 -14.5
q-32 0 -57 17.5t-39 55t-14 95.5q0 51 13.5 101.5t39 91.5t63 66t85.5 25q28 0 49 -11.5t33 -21.5l22 24h9l-46 -237q-4 -20 -6 -36t-3 -29.5t-1 -26.5q0 -41 12.5 -65t46.5 -24q24 0 48 21t44 59.5t32.5 92t12.5 118.5q0 84 -27 151t-81 106t-134 39q-76 0 -139 -37.5
t-109 -104.5t-71.5 -157t-25.5 -194q0 -111 28.5 -179.5t83 -101t129.5 -32.5q46 0 82.5 14.5t66.5 36.5t53 43l15 -21q-26 -23 -59 -45.5t-73.5 -37.5t-89.5 -15zM343 102q22 0 41.5 14.5t35 36.5t25.5 46t13 43l44 227q-9 13 -28.5 24t-48.5 11q-43 0 -75 -25.5t-53 -65.5
t-31.5 -85t-10.5 -85q0 -76 23.5 -108.5t64.5 -32.5z" />
    <glyph glyph-name="A" unicode="A" horiz-adv-x="543" 
d="M-3 0v20h17q19 0 29 5t17.5 20.5t16.5 47.5l186 621h19l195 -655q5 -17 10.5 -25.5t15 -11t28.5 -2.5h12v-20h-172v20h25q34 0 43 6.5t9 21.5q0 7 -3.5 20t-7.5 28t-8 26l-39 129h-236l-36 -117q-3 -12 -8.5 -29.5t-9.5 -33t-4 -24.5q0 -14 10.5 -20.5t43.5 -6.5h31v-20
h-184zM162 276h221l-64 221q-10 35 -19 65.5t-16 56t-12 42.5q-3 -16 -10.5 -41t-15.5 -53.5t-16 -55.5z" />
    <glyph glyph-name="B" unicode="B" horiz-adv-x="518" 
d="M41 0v20h24q25 0 37 6t15.5 25.5t3.5 57.5v498q0 39 -3.5 57.5t-15.5 24t-37 5.5h-24v20h200q95 0 140.5 -42t45.5 -130q0 -52 -15 -85.5t-38 -51t-48 -24.5v-3q36 -4 64.5 -24.5t44.5 -59.5t16 -102q0 -98 -45.5 -145t-140.5 -47h-224zM262 25q91 0 126.5 42.5
t35.5 125.5q0 56 -14.5 94t-49 56.5t-96.5 18.5h-115v-337h113zM239 387q62 0 97 19.5t49.5 54.5t14.5 81q0 72 -35.5 109.5t-122.5 37.5h-93v-302h90z" />
    <glyph glyph-name="C" unicode="C" horiz-adv-x="464" 
d="M275 -10q-75 0 -125.5 45.5t-76 128t-25.5 194.5q0 114 26 196t77.5 126t125.5 44q53 0 88.5 -16t53.5 -41.5t18 -55.5q0 -21 -5.5 -32.5t-15.5 -11.5q0 41 -14 71t-44.5 45.5t-82.5 15.5q-67 0 -111.5 -44t-66 -120.5t-21.5 -176.5t21.5 -177.5t66 -121.5t111.5 -44
q41 0 69 12.5t46 34.5t29 50q7 -4 10 -10.5t3 -16.5q0 -12 -10.5 -28t-31 -31.5t-49.5 -25.5t-66 -10z" />
    <glyph glyph-name="D" unicode="D" horiz-adv-x="568" 
d="M40 0v20h21q27 0 40 5.5t17 24.5t4 59v499q0 39 -4 57t-16.5 23.5t-39.5 5.5h-22v20h219q86 0 143.5 -44.5t87 -127.5t29.5 -199q0 -109 -27.5 -186t-84.5 -117t-148 -40h-219zM255 25q81 0 133 35t77.5 105.5t25.5 177.5q0 106 -25.5 183.5t-77.5 120t-132 42.5h-106
v-664h105z" />
    <glyph glyph-name="E" unicode="E" horiz-adv-x="490" 
d="M40 0v20h25q25 0 37 6t15.5 25t3.5 57v498q0 39 -3.5 57.5t-15.5 24.5t-37 6h-25v20h373l6 -164h-20l-3 56q-2 37 -6.5 54.5t-19 23t-46.5 5.5h-175v-302h206v-25h-206l-1 -337h206q30 0 44 5t18.5 20t5.5 44l4 70h20l-5 -164h-401z" />
    <glyph glyph-name="F" unicode="F" horiz-adv-x="462" 
d="M40 0v20h25q25 0 37 6t15.5 25t3.5 57v498q0 39 -3.5 57.5t-15.5 24.5t-37 6h-25v20h374l5 -163h-20l-3 69q-1 41 -11 55t-49 14h-187v-326h207v-25h-207v-230q0 -38 3.5 -57t15.5 -25t37 -6h47v-20h-212z" />
    <glyph glyph-name="G" unicode="G" horiz-adv-x="543" 
d="M313 -10q-90 0 -148.5 43.5t-87.5 126t-29 198.5q0 122 33 203.5t93.5 122t144.5 40.5q56 0 90.5 -17.5t50.5 -43.5t16 -53q0 -24 -5.5 -34.5t-15.5 -10.5q0 39 -12.5 69.5t-42.5 47.5t-82 17q-77 0 -131 -39t-82.5 -115t-28.5 -187q0 -109 24.5 -185.5t77.5 -117
t138 -40.5q40 0 74.5 6t55.5 19v182q0 37 -4 53.5t-17 22t-39 5.5h-18v20h168v-20h-8q-23 0 -35 -5.5t-15.5 -22.5t-3.5 -53v-195q-35 -19 -72.5 -28t-88.5 -9z" />
    <glyph glyph-name="H" unicode="H" horiz-adv-x="636" 
d="M41 0v20h25q25 0 37 6t15.5 25t3.5 57v498q0 39 -3.5 57.5t-15.5 24.5t-37 6h-25v20h196v-20h-31q-25 0 -37 -6t-15.5 -24.5t-3.5 -57.5v-220h336v220q0 39 -3.5 57.5t-15.5 24.5t-37 6h-31v20h197v-20h-26q-25 0 -37 -6t-15.5 -24.5t-3.5 -57.5v-498q0 -38 3.5 -57
t15.5 -25t37 -6h26v-20h-197v20h31q25 0 37 6t15.5 25t3.5 57v253h-336v-253q0 -38 3.5 -57t15.5 -25t37 -6h31v-20h-196z" />
    <glyph glyph-name="I" unicode="I" horiz-adv-x="275" 
d="M40 0v20h27q25 0 37 6t15.5 25t3.5 57v498q0 39 -3.5 57.5t-15.5 24.5t-37 6h-27v20h193v-20h-26q-25 0 -37 -6t-15.5 -24.5t-3.5 -57.5v-498q0 -38 3.5 -57t15.5 -25t37 -6h26v-20h-193z" />
    <glyph glyph-name="J" unicode="J" horiz-adv-x="283" 
d="M12 -240v25h3q45 0 71.5 19t37.5 63t11 117v622q0 39 -3.5 57.5t-15.5 24.5t-37 6h-27v20h193v-20h-26q-25 0 -37 -6t-15.5 -24.5t-3.5 -57.5v-621q0 -64 -9.5 -107t-27.5 -69t-45.5 -37.5t-66.5 -11.5h-2z" />
    <glyph glyph-name="K" unicode="K" horiz-adv-x="549" 
d="M40 0v20h26q25 0 37 6t15.5 25t3.5 57v499q0 38 -3.5 56.5t-15.5 24.5t-37 6h-26v20h196v-20h-30q-25 0 -37 -6t-15.5 -24.5t-3.5 -56.5v-335l229 317q22 31 34 48t17 27t5 16q0 9 -11.5 11.5t-39.5 2.5v20h138v-20q-23 0 -36.5 -8.5t-28.5 -30t-44 -62.5l-135 -186
l199 -301q23 -34 37 -52.5t26 -25.5t26 -7h4v-21h-6q-16 0 -28.5 3.5t-24.5 13t-26.5 28t-34.5 48.5l-190 290l-110 -153v-119q0 -40 3.5 -59.5t15.5 -25.5t37 -6h31v-20h-197z" />
    <glyph glyph-name="L" unicode="L" horiz-adv-x="488" 
d="M40 0v20h26q25 0 37 6t15.5 25t3.5 57v498q0 39 -3.5 57.5t-15.5 24.5t-37 6h-26v20h193v-20h-27q-25 0 -37 -6t-15.5 -24.5t-3.5 -57.5v-581h213q26 0 38.5 6t16.5 21t5 42l3 111h20l-5 -205h-401z" />
    <glyph glyph-name="M" unicode="M" horiz-adv-x="763" 
d="M40 0v20h26q25 0 37 6t15.5 25t3.5 57v498q0 39 -3.5 57.5t-15.5 24.5t-37 6h-26v20h117l227 -668l218 668h121v-20h-25q-25 0 -37 -6t-15.5 -24.5t-3.5 -57.5v-498q0 -38 3.5 -57t15.5 -25t37 -6h25v-20h-195v20h30q25 0 37 6t15.5 25t3.5 57v561l-217 -669h-27
l-223 663v-555q0 -38 3.5 -57t15.5 -25t37 -6h21v-20h-184z" />
    <glyph glyph-name="N" unicode="N" horiz-adv-x="611" 
d="M40 0v20h26q25 0 37 6t15.5 25t3.5 57v498q0 39 -3.5 57.5t-15.5 24.5t-37 6h-26v20h103l329 -651v543q0 39 -3.5 57.5t-15.5 24.5t-37 6h-31v20h193v-20h-25q-25 0 -37 -6t-15.5 -24.5t-3.5 -57.5v-606h-25l-325 643v-535q0 -38 3.5 -57t15.5 -25t37 -6h32v-20h-195z
" />
    <glyph glyph-name="O" unicode="O" horiz-adv-x="577" 
d="M288 -10q-81 0 -134 45.5t-79.5 128t-26.5 195.5q0 118 27 199.5t81 124t132 42.5q84 0 136.5 -40.5t78 -122t25.5 -204.5q0 -115 -27 -197.5t-80.5 -126.5t-132.5 -44zM288 15q72 0 119 41.5t70 118.5t23 183q0 108 -20.5 184.5t-67 117t-123.5 40.5q-109 0 -161 -90
t-52 -252q0 -104 23.5 -181t71 -119.5t117.5 -42.5z" />
    <glyph glyph-name="P" unicode="P" horiz-adv-x="472" 
d="M40 0v20h25q25 0 37 6t15.5 25t3.5 58v497q0 39 -3.5 57.5t-15.5 24.5t-37 6h-25v20h202q98 0 142 -51.5t44 -153.5q0 -43 -9.5 -83t-33 -72t-62 -51t-95.5 -19h-79v-176q0 -38 3.5 -57t15.5 -25t37 -6h38v-20h-203zM230 309q50 0 83 18t52.5 46.5t27 64.5t7.5 71
q0 88 -36 134t-122 46h-93v-380h81z" />
    <glyph glyph-name="Q" unicode="Q" horiz-adv-x="577" 
d="M449 -219q-28 0 -56 8.5t-51.5 30.5t-39.5 63.5t-20 106.5q-77 2 -129.5 47t-78.5 127.5t-26 194.5q0 117 26.5 198.5t80 124.5t133.5 43q83 0 136 -40t78.5 -122t25.5 -205q0 -111 -25 -191t-73.5 -124.5t-118.5 -51.5q5 -56 15.5 -92t28 -56.5t40 -28.5t51.5 -8h13v-25
h-10zM288 15q107 0 159.5 91.5t52.5 251.5q0 108 -20.5 184.5t-67 117t-123.5 40.5q-75 0 -121.5 -41.5t-69 -118.5t-22.5 -182q0 -103 23.5 -180.5t70.5 -120t118 -42.5z" />
    <glyph glyph-name="R" unicode="R" horiz-adv-x="497" 
d="M40 0v20h26q25 0 37 6t15.5 25t3.5 57v498q0 39 -3.5 57.5t-15.5 24.5t-37 6h-26v20h176q71 0 114 -20.5t62.5 -61t19.5 -103.5q0 -64 -18.5 -104.5t-49 -62.5t-64.5 -32l124 -224q26 -44 45.5 -64t48.5 -20h7v-22h-4q-29 0 -49 8.5t-36 28.5t-36 55l-127 229h-103v-213
q0 -38 3.5 -57t15.5 -25t37 -6h29v-20h-195zM210 346q86 0 130 47.5t44 135.5q0 51 -14.5 86.5t-50 54.5t-96.5 19h-73v-343h60z" />
    <glyph glyph-name="S" unicode="S" horiz-adv-x="414" 
d="M211 -10q-41 0 -70.5 12t-48 31.5t-27.5 44t-9 47.5q0 9 2 19t6 16.5t12 6.5q1 -43 16 -77.5t44.5 -54.5t74.5 -20q65 0 97.5 39t32.5 110q0 49 -13.5 79.5t-43.5 56t-78 54.5q-40 25 -70 52t-46 64t-16 93q0 45 17.5 81t51.5 58t80 22q42 0 72 -16.5t46.5 -41.5
t16.5 -52q0 -21 -6.5 -30.5t-14.5 -9.5q0 39 -13.5 67t-38.5 43t-62 15q-61 0 -91 -41t-30 -102q0 -46 13 -76t39.5 -53.5t65.5 -48.5q40 -25 73.5 -50.5t54.5 -62.5t21 -94t-17.5 -97.5t-53 -62t-87.5 -21.5z" />
    <glyph glyph-name="T" unicode="T" horiz-adv-x="474" 
d="M122 0v20h43q25 0 37 6t15.5 25t3.5 57v581h-113q-39 0 -48.5 -14t-11.5 -55l-2 -57h-20l4 151h412l5 -151h-20l-2 57q-2 41 -12 55t-49 14h-115v-581q0 -38 3.5 -57t15.5 -25t37 -6h42v-20h-225z" />
    <glyph glyph-name="U" unicode="U" horiz-adv-x="568" 
d="M281 -10q-56 0 -99 22.5t-67 72.5t-24 129v394q0 38 -3.5 56t-15.5 24t-37 6h-24v20h193v-20h-29q-24 0 -36 -5.5t-16 -24.5t-4 -58v-396q0 -101 44 -148t118 -47q61 0 97.5 28t53 72t16.5 92v400q0 38 -3.5 56.5t-15.5 24.5t-37 6h-29v20h192v-20h-23q-25 0 -37 -6
t-15.5 -24.5t-3.5 -56.5v-402q0 -58 -21 -107t-64 -78.5t-110 -29.5z" />
    <glyph glyph-name="V" unicode="V" horiz-adv-x="539" 
d="M70 646q-6 22 -12.5 32t-17.5 13t-32 3h-8v20h182v-20h-28q-37 0 -46 -7t-9 -21q0 -11 4.5 -30.5t10 -38.5t7.5 -30l93 -323q13 -45 22.5 -81t17 -66.5t15.5 -61.5q9 33 16 63t16 64.5t22 81.5l92 323q3 10 8 29t9.5 39t4.5 31q0 14 -8.5 21t-46.5 7h-30v20h187v-20h-9
q-23 0 -34 -2.5t-17 -12.5t-13 -33l-183 -646h-29z" />
    <glyph glyph-name="W" unicode="W" horiz-adv-x="851" 
d="M88 646q-4 22 -10.5 32t-18.5 13t-34 3h-9v20h178v-20h-24q-37 0 -46 -7t-9 -21q0 -10 4 -27.5t10 -46.5l92 -399q7 -31 11.5 -53.5t8.5 -44t9 -51.5q8 42 15.5 74.5t17.5 71.5l127 524h28l117 -505q11 -46 19 -85t16 -75q5 20 11.5 47.5t13 57t13.5 57.5l94 383
q6 28 10 45t4 27q0 14 -8.5 21t-46.5 7h-29v20h184v-20h-10q-22 0 -34 -2.5t-18.5 -13t-12.5 -33.5l-158 -645h-28l-152 663l-160 -663h-28z" />
    <glyph glyph-name="X" unicode="X" horiz-adv-x="484" 
d="M5 0v20h14q22 0 34 2.5t20.5 12.5t17.5 32l136 302l-134 278q-11 22 -18.5 32t-18.5 12.5t-32 2.5h-12v20h169v-20h-28q-27 0 -33 -5t-6 -14q0 -8 8.5 -25.5t18.5 -41.5l100 -207l93 206q10 23 17.5 39t7.5 28q0 9 -5.5 14.5t-30.5 5.5h-29v20h167v-20h-14
q-20 0 -31 -2.5t-18.5 -12t-16.5 -31.5l-125 -278l146 -302q11 -22 18.5 -32.5t18 -13t29.5 -2.5h10v-20h-169v20h32q28 0 34.5 5t6.5 12q0 9 -8 27t-27 57l-105 217l-88 -195q-17 -35 -26 -55t-12.5 -30t-3.5 -18q0 -10 6.5 -15t35.5 -5h36v-20h-185z" />
    <glyph glyph-name="Y" unicode="Y" horiz-adv-x="457" 
d="M127 0v20h33q25 0 37 6t15.5 25t3.5 57v246l-158 297q-10 21 -18.5 30t-18 11t-26.5 2h-4v20h161v-20h-32q-27 0 -33.5 -4t-6.5 -12t6.5 -20.5t16.5 -31.5l62 -118q17 -32 33 -63.5t31 -62.5q8 15 19.5 37.5t28.5 54.5l82 156q10 21 13.5 30t3.5 17t-7 12.5t-33 4.5h-45
v20h172v-20h-4q-16 0 -25 -2t-17 -11t-18 -29l-155 -296v-248q0 -38 3.5 -57t15.5 -25t37 -6h33v-20h-206z" />
    <glyph glyph-name="Z" unicode="Z" horiz-adv-x="423" 
d="M24 0v22l327 667h-229q-39 0 -49 -14t-12 -55l-1 -43h-20l4 137h339v-23l-327 -666h252q26 0 38.5 6t16.5 20.5t5 41.5l2 45h20l-4 -138h-362z" />
    <glyph glyph-name="bracketleft" unicode="[" horiz-adv-x="251" 
d="M82 -128v888h137v-20h-52q-25 0 -37.5 -6t-16 -24.5t-3.5 -57.5v-672q0 -38 3.5 -57t15.5 -25t38 -6h52v-20h-137z" />
    <glyph glyph-name="backslash" unicode="\" horiz-adv-x="240" 
d="M211 -121l-211 881h29l211 -881h-29z" />
    <glyph glyph-name="bracketright" unicode="]" horiz-adv-x="251" 
d="M30 -128v20h53q25 0 37 6t15.5 25t3.5 57v672q0 39 -3.5 57.5t-15.5 24.5t-37 6h-53v20h137v-888h-137z" />
    <glyph glyph-name="asciicircum" unicode="^" horiz-adv-x="465" 
d="M45 271l174 443h24l176 -443h-32l-156 398l-154 -398h-32z" />
    <glyph glyph-name="underscore" unicode="_" horiz-adv-x="381" 
d="M-4 -132v49h389v-49h-389z" />
    <glyph glyph-name="grave" unicode="`" horiz-adv-x="199" 
d="M154 606q-14 14 -30.5 33.5t-33 41.5t-30 42t-20.5 33v10h43q9 -22 22 -49t27.5 -53t26.5 -45v-13h-5z" />
    <glyph glyph-name="a" unicode="a" horiz-adv-x="435" 
d="M166 -10q-35 0 -62 17t-42.5 52t-15.5 87q0 78 47.5 115.5t145.5 41.5l70 3v65q0 50 -9.5 82t-32 48t-61.5 16q-37 0 -60 -13t-34 -40t-11 -69q-10 0 -15.5 11.5t-5.5 32.5q0 27 13.5 50.5t41.5 38t71 14.5q68 0 99.5 -40.5t31.5 -129.5v-267q0 -37 4 -55t15 -24t33 -6h3
v-20h-76l-6 95h-2q-11 -27 -29.5 -51t-45.5 -39t-67 -15zM169 15q41 0 72 24t49.5 63t18.5 83v98l-70 -3q-60 -2 -96.5 -18.5t-52.5 -46t-16 -69.5q0 -37 10 -67t31 -47t54 -17z" />
    <glyph glyph-name="b" unicode="b" horiz-adv-x="478" 
d="M268 -10q-54 0 -88 28t-52 75h-4l-2 -93h-106v20h13q31 0 45.5 4.5t18.5 19t4 45.5v572q0 37 -4 53.5t-18 21t-43 4.5h-16v20h109v-199q0 -18 -0.5 -41t-1 -47t-2.5 -46h2q16 53 52 85t95 32q78 0 116.5 -64.5t38.5 -212.5q0 -101 -19.5 -162t-55 -88t-82.5 -27zM269 15
q61 0 94.5 60t33.5 194q0 130 -29.5 190t-98.5 60q-72 0 -108.5 -61.5t-36.5 -189.5q0 -85 15.5 -141.5t48 -84t81.5 -27.5z" />
    <glyph glyph-name="c" unicode="c" horiz-adv-x="377" 
d="M220 -10q-47 0 -85 26.5t-60 86.5t-22 160q0 107 21 168t58 86t87 25q40 0 67.5 -14.5t42 -38.5t14.5 -53q0 -10 -3.5 -17t-9 -10t-12.5 -3q0 34 -10 59t-32.5 38.5t-58.5 13.5q-40 0 -71 -22.5t-48 -77.5t-17 -153q0 -86 17.5 -141.5t48.5 -81.5t73 -26q33 0 56.5 14
t38.5 36.5t23 45.5q4 -4 6 -10.5t2 -16.5q0 -18 -14.5 -40t-42.5 -38t-69 -16z" />
    <glyph glyph-name="d" unicode="d" horiz-adv-x="478" 
d="M218 -10q-51 0 -88 28t-56.5 89t-19.5 160q0 100 20 161t56.5 88.5t87.5 27.5q54 0 87.5 -27.5t50.5 -72.5h4q-2 24 -3 49.5t-1 50.5v114q0 39 -4 56t-17.5 21.5t-41.5 4.5h-11v20h102v-672q0 -31 4.5 -45.5t19 -18.5t44.5 -4h11v-20h-103l-4 100h-2q-18 -49 -50.5 -79.5
t-85.5 -30.5zM217 15q70 0 105 65.5t35 184.5q0 124 -29.5 189t-106.5 65q-46 0 -76.5 -26t-46.5 -82t-16 -147q0 -129 36.5 -189.5t98.5 -59.5z" />
    <glyph glyph-name="e" unicode="e" horiz-adv-x="412" 
d="M223 -10q-78 0 -124 71t-46 201q0 141 42 210.5t120 69.5q73 0 112 -67t39 -184v-19h-285q0 -130 38.5 -193.5t104.5 -63.5q47 0 75.5 26t42.5 59q4 -2 6.5 -7t2.5 -14q0 -15 -15 -36t-43 -37t-70 -16zM338 296q-1 99 -30.5 160t-92.5 61q-66 0 -98 -59.5t-35 -161.5h256
z" />
    <glyph glyph-name="f" unicode="f" horiz-adv-x="271" 
d="M30 0v20h21q27 0 40 5t16 22.5t3 54.5v409h-77v25h77v65q0 85 34.5 128t95.5 43q27 0 46.5 -9t30 -25.5t10.5 -40.5q0 -12 -3 -21t-7.5 -13.5t-10.5 -4.5q0 28 -5 47.5t-19.5 30.5t-41.5 11q-54 0 -78 -41.5t-24 -105.5v-64h121v-25h-121v-409q0 -37 4 -54.5t16.5 -22.5
t39.5 -5h42v-20h-210z" />
    <glyph glyph-name="g" unicode="g" horiz-adv-x="427" 
d="M201 -241q-84 0 -123.5 42.5t-39.5 113.5q0 43 15.5 73t37.5 48t43 26q-15 7 -26.5 23.5t-11.5 45.5q0 26 13.5 48t26.5 35q-30 18 -48 57.5t-18 89.5q0 92 36.5 136.5t102.5 44.5q29 0 52.5 -11t36.5 -26q9 12 19.5 24t23.5 20t28 8q21 0 31 -13.5t10 -31.5
q0 -17 -5 -26.5t-16 -9.5q0 28 -4 40.5t-18 12.5q-13 0 -25 -10.5t-29 -33.5q12 -19 19 -48t7 -74q0 -78 -33 -122.5t-97 -44.5q-11 0 -27.5 2t-24.5 5q-14 -14 -24.5 -31.5t-10.5 -45.5q0 -31 20.5 -43t54.5 -12h61q45 0 72.5 -17t40.5 -48t13 -72q0 -79 -47 -127t-136 -48
zM203 -216q54 0 87.5 18.5t49.5 52.5t16 78q0 57 -23.5 85t-83.5 28h-68q-33 0 -59 -16.5t-41 -46t-15 -68.5q0 -36 12 -65.5t42.5 -47.5t82.5 -18zM206 220q34 0 57.5 15.5t35.5 48t12 81.5q0 56 -12.5 89.5t-36 48t-58.5 14.5q-31 0 -55 -16t-37.5 -49.5t-13.5 -87.5
q0 -71 28 -107.5t80 -36.5z" />
    <glyph glyph-name="h" unicode="h" horiz-adv-x="498" 
d="M13 0v20h14q33 0 47.5 4.5t18.5 20t4 51.5v567q0 35 -4 51.5t-17 21t-39 4.5h-19v20h107v-269q0 -6 -0.5 -14t-1 -15.5t-1.5 -15.5h2q9 25 26 46.5t44.5 35.5t66.5 14q65 0 101.5 -44t36.5 -135v-269q0 -34 3.5 -49.5t17.5 -20t44 -4.5h11v-20h-104v363q0 76 -25.5 115
t-88.5 39q-41 0 -71 -19.5t-45.5 -60t-15.5 -103.5v-239q0 -35 4 -50.5t18.5 -20t46.5 -4.5h9v-20h-190z" />
    <glyph glyph-name="i" unicode="i" horiz-adv-x="237" 
d="M25 0v20h20q33 0 47.5 4.5t18.5 20t4 50.5v342q0 37 -3.5 53.5t-17 21t-43.5 4.5h-9v20h101v-441q0 -35 4 -50.5t18.5 -20t46.5 -4.5h18v-20h-205zM124 658q-10 0 -16 8t-6 32q0 23 6 31.5t16 8.5t16.5 -8.5t6.5 -31.5q0 -24 -6.5 -32t-16.5 -8z" />
    <glyph glyph-name="j" unicode="j" horiz-adv-x="233" 
d="M16 -240v25h7q29 0 50 18t32 61.5t11 119.5v455q0 35 -3.5 51t-16.5 21t-39 5h-14v20h101v-551q0 -90 -15.5 -139t-42 -67.5t-59.5 -18.5h-11zM125 658q-10 0 -16.5 8t-6.5 32q0 23 6.5 31.5t16.5 8.5t16.5 -8.5t6.5 -31.5q0 -24 -6.5 -32t-16.5 -8z" />
    <glyph glyph-name="k" unicode="k" horiz-adv-x="440" 
d="M16 0v20h11q33 0 47.5 4.5t18.5 20t4 51.5v567q0 36 -4 52t-18 20.5t-45 4.5h-14v20h109v-387v-34v-40t-1 -41t-2 -38l114 145q37 46 56 72t25.5 39t6.5 20q0 13 -12 16.5t-44 3.5v20h145v-20q-15 0 -25.5 -3.5t-20 -14.5t-24.5 -31.5t-40 -53.5l-74 -92l109 -206
q27 -55 47.5 -75t51.5 -20h6v-20h-9q-21 0 -36 3t-27.5 13.5t-26 31t-32.5 56.5l-101 192l-86 -110v-91q0 -35 4 -50.5t18 -20t44 -4.5h6v-20h-181z" />
    <glyph glyph-name="l" unicode="l" horiz-adv-x="219" 
d="M7 0v20h11q37 0 53 4t20 19.5t4 50.5v568q0 37 -4 53.5t-18.5 20.5t-44.5 4h-21v20h116v-666q0 -35 4 -50.5t20.5 -19.5t52.5 -4h12v-20h-205z" />
    <glyph glyph-name="m" unicode="m" horiz-adv-x="746" 
d="M31 0v20h13q33 0 47.5 4.5t18 20.5t3.5 52v338q0 37 -3 54t-16.5 22t-43.5 5h-7v20h94l3 -87h3q18 48 50 70.5t78 22.5q34 0 57.5 -12t37.5 -33.5t21 -51.5h2q16 47 49.5 72t82.5 25q65 0 96.5 -44.5t31.5 -134.5v-271q0 -34 4.5 -49t19 -19t45.5 -4h5v-20h-102v364
q0 74 -23 113.5t-78 39.5q-46 0 -73.5 -22.5t-39.5 -61.5t-12 -85v-252q0 -36 4 -51.5t18.5 -20t45.5 -4.5h7v-20h-103v364q0 79 -22.5 116t-77.5 37q-44 0 -72 -26t-41 -67.5t-13 -90.5v-236q0 -36 4 -52t19 -20.5t49 -4.5h8v-20h-190z" />
    <glyph glyph-name="n" unicode="n" horiz-adv-x="516" 
d="M31 0v20h12q33 0 48 4.5t18.5 20.5t3.5 51v345q0 35 -4 51t-18 20t-45 4h-11v20h102l4 -80h2q22 42 53 64t80 22q74 0 107 -44t33 -137v-266q0 -35 4 -50.5t18.5 -20t45.5 -4.5h7v-20h-103v364q0 69 -25 111t-85 42q-44 0 -74.5 -20.5t-46.5 -61.5t-16 -102v-238
q0 -35 4 -50.5t19 -20t47 -4.5h9v-20h-189z" />
    <glyph glyph-name="o" unicode="o" horiz-adv-x="446" 
d="M223 -10q-80 0 -125 67.5t-45 209.5q0 139 42.5 207t130.5 68q84 0 125.5 -68t41.5 -207q0 -144 -43 -210.5t-127 -66.5zM224 15q52 0 83 29.5t44.5 86t13.5 136.5q0 126 -32 188t-108 62q-78 0 -111 -62.5t-33 -187.5q0 -123 34.5 -187.5t108.5 -64.5z" />
    <glyph glyph-name="p" unicode="p" horiz-adv-x="482" 
d="M20 -240v20h12q31 0 45.5 4.5t18.5 20.5t4 51v585q0 35 -4 50.5t-19 20t-51 4.5h-24v20h122l3 -100h3q17 47 49 78.5t88 31.5q82 0 122 -63t40 -204q0 -149 -43 -219t-116 -70q-56 0 -90.5 31t-51.5 84h-1q0 -17 0.5 -47t0.5 -72v-130q0 -35 4 -51t18 -20.5t44 -4.5h20
v-20h-194zM270 15q68 0 99.5 70.5t31.5 192.5q0 123 -31.5 183t-102.5 60q-47 0 -78.5 -29.5t-46 -84.5t-14.5 -130q0 -79 13 -137.5t44.5 -91.5t84.5 -33z" />
    <glyph glyph-name="q" unicode="q" horiz-adv-x="479" 
d="M273 -240v20h17q31 0 45 4.5t18 20.5t4 52v116q0 25 0.5 51.5t1 48.5t0.5 32h-2q-18 -51 -52 -83t-90 -32q-77 0 -119 64.5t-42 210.5q0 104 20.5 165.5t58.5 88.5t90 27t85 -31t48 -83h2l3 104h99v-20h-6q-32 0 -46.5 -4.5t-18.5 -20t-4 -50.5v-584q0 -36 4 -52
t18 -20.5t42 -4.5h4v-20h-180zM215 15q30 0 56 13.5t45 43t30 77.5t11 118q0 77 -13 134t-42.5 88.5t-78.5 31.5q-46 0 -77.5 -25t-47.5 -81t-16 -151q0 -129 32 -189t101 -60z" />
    <glyph glyph-name="r" unicode="r" horiz-adv-x="344" 
d="M40 0v20h7q31 0 45 4t18 20t4 53v343q0 36 -4 52t-19 20t-49 4h-7v20h103l3 -104h2q10 25 24.5 51t37.5 43.5t57 17.5q35 0 52.5 -18t17.5 -45q0 -16 -4.5 -27t-16.5 -11q0 22 -4 39t-15 27t-34 10q-28 0 -49.5 -21.5t-36.5 -57.5t-22.5 -78.5t-7.5 -84.5v-180
q0 -37 4 -53t19 -20t46 -4h18v-20h-189z" />
    <glyph glyph-name="s" unicode="s" horiz-adv-x="342" 
d="M167 -10q-44 0 -71 17t-38.5 41t-11.5 46q0 15 2.5 25t7.5 14.5t11 4.5q0 -58 23 -90.5t78 -32.5q50 0 76.5 30t26.5 85q0 23 -6.5 43.5t-25.5 41t-56 42.5q-45 30 -72 54.5t-38 50t-11 59.5q0 54 31.5 87t85.5 33q35 0 60 -12.5t37.5 -33.5t12.5 -46q0 -22 -5 -33
t-16 -11q0 58 -22.5 84.5t-67.5 26.5q-47 0 -67.5 -27.5t-20.5 -68.5q0 -42 26 -73.5t78 -63.5q42 -25 65 -49.5t31.5 -50.5t8.5 -56q0 -63 -35.5 -100t-96.5 -37z" />
    <glyph glyph-name="t" unicode="t" horiz-adv-x="246" 
d="M177 -10q-53 0 -75 33t-22 118v370h-66v19q20 2 33 7.5t21 14.5q12 15 15.5 40.5t4.5 64.5h20v-121h108v-25h-108v-373q0 -72 16.5 -97.5t51.5 -25.5q13 0 23.5 1.5l24.5 3.5v-25q-13 -2 -25 -3.5t-22 -1.5z" />
    <glyph glyph-name="u" unicode="u" horiz-adv-x="500" 
d="M235 -10q-67 0 -103 45.5t-36 148.5v259q0 34 -4 49.5t-19 19.5t-50 4h-10v20h111v-354q0 -53 11 -90.5t36 -57t65 -19.5q46 0 76.5 26.5t45 69.5t14.5 92v228q0 40 -3.5 58t-18.5 22.5t-50 4.5h-8v20h108v-437q0 -37 4 -54t19 -21t47 -4h11v-20h-105l-2 81h-4
q-19 -38 -51 -64.5t-84 -26.5z" />
    <glyph glyph-name="v" unicode="v" horiz-adv-x="456" 
d="M68 468q-7 23 -12.5 33t-16.5 12.5t-35 2.5v20h151v-20h-17q-28 0 -37 -4t-9 -15t8 -38.5t15 -51.5l60 -200q9 -29 18.5 -63t18.5 -65t13 -51q6 19 19.5 65.5t36.5 118.5l50 152q18 55 28 86.5t10 43.5q0 13 -9 17.5t-39 4.5h-24v20h154v-20h-2q-19 0 -28.5 -2t-15.5 -12
t-14 -34l-151 -468h-31z" />
    <glyph glyph-name="w" unicode="w" horiz-adv-x="722" 
d="M71 463q-5 24 -10.5 35t-16.5 14.5t-31 3.5h-7v20h149v-20h-23q-25 0 -31.5 -5t-6.5 -15q0 -7 6 -31t9 -40l52 -221q6 -24 14 -58.5t14.5 -67.5t9.5 -51h2q2 18 10.5 51t19 69t16.5 60l93 329h35l89 -313q6 -19 13.5 -46t15 -56.5t14 -55.5t8.5 -42h3q5 31 16 76.5
t27 107.5l56 221q5 22 10 40t5 28t-6.5 15t-31.5 5h-28v20h153v-20h-8q-20 0 -31 -2.5t-16.5 -13t-10.5 -33.5l-118 -467h-36l-142 505l-142 -505h-33z" />
    <glyph glyph-name="x" unicode="x" horiz-adv-x="418" 
d="M-2 0v20h12q21 0 33 3t21 14t21 33l110 214l-102 184q-12 22 -20.5 32t-19.5 13t-29 3h-8v20h157v-20h-21q-28 0 -35 -3.5t-7 -10.5t8.5 -22t20.5 -37l71 -130l66 128q11 23 18.5 38t7.5 22q0 8 -6 11.5t-36 3.5h-33v20h168v-20h-5q-20 0 -32.5 -2.5t-21 -12.5t-19.5 -33
l-93 -180l123 -220q13 -22 21 -32t18 -13t27 -3h5v-20h-162v20h32q29 0 35.5 3.5t6.5 10.5q0 8 -7.5 22.5t-21.5 37.5l-92 164l-85 -167q-11 -23 -18.5 -36t-7.5 -21t6.5 -11t30.5 -3h45v-20h-182z" />
    <glyph glyph-name="y" unicode="y" horiz-adv-x="456" 
d="M42 -215q47 0 75 10.5t46 34.5t33 65.5t35 102.5l-153 459q-9 28 -15.5 40.5t-17.5 15.5t-36 3h-1v20h152v-20h-9q-34 0 -43.5 -4.5t-9.5 -16.5q0 -9 6 -27t17 -50l65 -197q12 -38 23.5 -73t20.5 -64t14 -48q7 29 18.5 68t24.5 88l69 232q6 23 11 41.5t5 28.5
q0 11 -7.5 16.5t-41.5 5.5h-24v20h158v-20h-4q-21 0 -31.5 -4.5t-17 -20t-16.5 -48.5l-134 -459q-21 -71 -40 -115t-41.5 -67.5t-53.5 -32.5t-76 -9h-1v25z" />
    <glyph glyph-name="z" unicode="z" horiz-adv-x="409" 
d="M56 0v22l251 489h-165q-39 0 -49 -14t-14 -55l-2 -22h-20l8 116h275v-22l-252 -489h173q39 0 49 14t12 56l2 43h20l-5 -138h-283z" />
    <glyph glyph-name="braceleft" unicode="{" horiz-adv-x="343" 
d="M260 -132q-50 0 -74.5 37.5t-24.5 102.5v163q0 52 -13 79t-36 38t-53 14v24q30 4 53 15t36 38t13 80v162q0 64 24.5 101.5t72.5 37.5h25v-25h-18q-40 0 -58.5 -29t-18.5 -90v-161q0 -64 -23 -98t-63 -42v-2q40 -7 63 -40.5t23 -97.5v-164q0 -60 18.5 -89t58.5 -29h18v-25
h-23z" />
    <glyph glyph-name="bar" unicode="|" horiz-adv-x="464" 
d="M218 -240v1000h28v-1000h-28z" />
    <glyph glyph-name="braceright" unicode="}" horiz-adv-x="343" 
d="M60 -132v25h19q40 0 58 29t18 89v164q0 64 23.5 97.5t63.5 40.5v2q-40 8 -63.5 42t-23.5 98v161q0 61 -18 90t-58 29h-19v25h25q48 0 72.5 -37.5t24.5 -101.5v-162q0 -52 13.5 -79.5t36.5 -38.5t52 -15v-24q-29 -3 -52 -14t-36.5 -38t-13.5 -79v-163q0 -65 -24.5 -102.5
t-73.5 -37.5h-24z" />
    <glyph glyph-name="asciitilde" unicode="~" horiz-adv-x="465" 
d="M52 277q4 25 9 52.5t14.5 52t26.5 39.5t44 15q19 0 34.5 -8t30 -23.5t30.5 -37.5q26 -33 42.5 -47.5t35.5 -14.5q22 0 33.5 17t18.5 47t13 66h29q-4 -24 -9 -51t-15 -51t-27 -39.5t-43 -15.5q-17 0 -32.5 7t-30 22t-31.5 36q-16 22 -28.5 36t-24 22t-26.5 8
q-32 0 -44 -36t-21 -96h-29z" />
    <glyph glyph-name="uni00A0" unicode="&#xa0;" horiz-adv-x="215" 
 />
    <glyph glyph-name="exclamdown" unicode="&#xa1;" horiz-adv-x="233" 
d="M127 371l3 -547h-29l2 547h24zM116 543q12 0 20.5 -8.5t8.5 -30.5q0 -23 -8.5 -31.5t-20.5 -8.5q-11 0 -20 8.5t-9 31.5q0 22 9 30.5t20 8.5z" />
    <glyph glyph-name="cent" unicode="&#xa2;" horiz-adv-x="464" 
d="M244 93q-42 6 -75 34.5t-52 86.5t-19 151q0 100 18 159.5t51 87t77 31.5v71h25v-70q39 -1 65.5 -16t40 -38t13.5 -52q0 -8 -2 -14t-5.5 -9.5t-8 -5t-9.5 -1.5q0 50 -21.5 79.5t-72.5 31.5v-502q32 2 54 16t37 35.5t23 44.5q4 -4 6 -10.5t2 -16.5q0 -18 -14 -39.5
t-41.5 -37.5t-66.5 -17v-92h-25v93zM244 618q-36 -4 -62.5 -29.5t-41 -79t-14.5 -143.5q0 -79 14.5 -132t41 -81t62.5 -35v500z" />
    <glyph glyph-name="sterling" unicode="&#xa3;" horiz-adv-x="464" 
d="M354 -10q-32 0 -54.5 8.5t-47.5 17.5q-18 8 -35.5 14.5t-43.5 6.5q-27 0 -45 -6.5t-38 -20.5l-13 -7v26l14 10q18 14 35.5 38t29.5 56.5t12 72.5q0 30 -5.5 63.5t-12.5 61.5h-87v24h78q-14 45 -26.5 95t-12.5 95q0 86 41.5 132.5t110.5 46.5q47 0 76 -14t44 -38.5
t15 -58.5q0 -24 -6.5 -33t-13.5 -9q0 40 -10.5 68.5t-35 44t-66.5 15.5q-65 0 -96 -42.5t-31 -113.5q0 -36 7 -70t16.5 -64t16.5 -54h135v-24h-127q8 -26 13 -58t5 -61q0 -26 -7 -56t-21 -57t-34 -44l1 -2q21 8 33 9.5t21 1.5q15 0 32 -5t32.5 -11.5t24.5 -10.5
q20 -8 40.5 -13.5t37.5 -5.5q15 0 29.5 8t28.5 20t25 25v-33q-8 -7 -21 -18t-29.5 -20.5t-34.5 -9.5z" />
    <glyph glyph-name="currency" unicode="&#xa4;" horiz-adv-x="464" 
d="M73 144l-19 20l63 76q-17 27 -27 57.5t-10 62.5q0 33 9 61.5t26 55.5l-61 74l19 19l60 -71q22 22 46.5 33.5t53.5 11.5q27 0 51.5 -11.5t46.5 -33.5l60 73l18 -19l-59 -74q18 -27 27 -56.5t9 -62.5q0 -32 -10.5 -63t-28.5 -57l63 -76l-20 -19l-61 74q-21 -20 -45.5 -31
t-50.5 -11q-27 0 -51.5 11t-46.5 32zM233 204q34 0 62.5 21t45.5 56.5t17 77.5q0 44 -17 79.5t-45.5 56.5t-62.5 21t-62.5 -21t-45.5 -56.5t-17 -79.5q0 -42 17 -77.5t45.5 -56.5t62.5 -21z" />
    <glyph glyph-name="yen" unicode="&#xa5;" horiz-adv-x="464" 
d="M129 0v20h27q26 0 40 6t19 24t5 54v91h-123v25h123v94h-123v24h111l-135 299q-17 35 -29 46t-36 11h-4v20h157v-20h-34q-22 0 -29.5 -4t-7.5 -13q0 -10 7 -27t17 -41l64 -146q15 -32 30 -67t25 -61q5 14 11.5 29.5t14 32t15.5 33.5l66 148q16 36 26 60t10 35
q0 10 -8.5 15.5t-42.5 5.5h-20v20h155v-20h-4q-23 0 -36 -13.5t-29 -49.5l-134 -293h114v-24h-123v-94h123v-25h-123v-89q0 -37 4.5 -55.5t18.5 -24.5t41 -6h26v-20h-209z" />
    <glyph glyph-name="brokenbar" unicode="&#xa6;" horiz-adv-x="464" 
d="M218 360v400h28v-400h-28zM218 -240v400h28v-400h-28z" />
    <glyph glyph-name="section" unicode="&#xa7;" horiz-adv-x="457" 
d="M227 -116q-31 0 -56.5 8.5t-44 24.5t-28.5 38.5t-10 50.5q0 16 2.5 25.5t6.5 13.5t8 4q0 -41 13.5 -72.5t41 -49.5t68.5 -18q38 0 64 18t40 48t14 66q0 27 -6.5 49.5t-22 44t-41.5 44t-65 49.5q-43 27 -73 53t-45 55.5t-15 63.5q0 36 12.5 63.5t33.5 51.5q-13 21 -21 44
t-8 54q0 44 17 77t49 51.5t75 18.5q41 0 67.5 -13.5t39.5 -34t13 -45.5q0 -19 -5.5 -28t-15.5 -9q0 32 -10 55.5t-32.5 36.5t-60.5 13q-54 0 -81.5 -33t-27.5 -87q0 -38 14 -66t44.5 -53t78.5 -54q45 -25 73 -51t41.5 -55t13.5 -64q0 -42 -13 -70.5t-30 -57.5
q7 -10 13.5 -23t11 -31.5t4.5 -46.5q0 -48 -18.5 -84t-51.5 -55.5t-77 -19.5zM329 163q11 16 21.5 45t10.5 59q0 27 -7.5 49.5t-31.5 46.5t-73 54q-36 22 -63 41.5t-47 39.5q-14 -14 -24 -39.5t-10 -57.5q0 -31 12 -54t38.5 -45.5t69.5 -51.5q38 -24 64 -47t40 -40z" />
    <glyph glyph-name="dieresis" unicode="&#xa8;" horiz-adv-x="480" 
d="M310 661q-11 0 -17 7.5t-6 29.5q0 23 6 31t17 8q12 0 17.5 -8t5.5 -31q0 -22 -5.5 -29.5t-17.5 -7.5zM169 661q-12 0 -17.5 7.5t-5.5 29.5q0 23 5.5 31t17.5 8q11 0 17 -8t6 -31q0 -22 -6 -29.5t-17 -7.5z" />
    <glyph glyph-name="copyright" unicode="&#xa9;" horiz-adv-x="703" 
d="M352 -10q-72 0 -129 28.5t-97.5 78.5t-62 117t-21.5 144q0 78 22 144.5t62 116.5t98 78t129 28t128 -27.5t97 -78t61 -117t21 -144.5q0 -79 -21 -145.5t-61.5 -117t-97.5 -78t-128 -27.5zM358 110q-51 0 -90.5 28t-61 84.5t-21.5 140.5q0 80 20.5 133.5t59 81t93.5 27.5
q43 0 71.5 -14.5t42.5 -37t14 -47.5q0 -16 -5.5 -27t-16.5 -12q0 29 -10.5 55t-33.5 42t-64 16q-70 0 -106.5 -55.5t-36.5 -158.5q0 -77 18.5 -128.5t51.5 -77t76 -25.5q48 0 75 27.5t41 66.5q5 -4 7.5 -10t2.5 -15q0 -19 -14.5 -41t-43 -37.5t-69.5 -15.5zM355 16
q64 0 115 25.5t87 71.5t55.5 108.5t19.5 136.5q0 75 -19 137t-55.5 108t-88.5 71t-116 25q-86 0 -149.5 -44t-98.5 -121t-35 -175q0 -76 20.5 -138.5t58 -108.5t90 -71t116.5 -25z" />
    <glyph glyph-name="ordfeminine" unicode="&#xaa;" horiz-adv-x="283" 
d="M115 380q-39 0 -60 25.5t-21 66.5q0 45 30 74t92 32l45 2v35q0 37 -12.5 58.5t-48.5 21.5q-39 0 -49 -20.5t-10 -53.5q-11 0 -17.5 8.5t-6.5 25.5q0 16 9 30.5t27 24t46 9.5q43 0 66 -24t23 -73v-171q0 -30 5 -38t28 -8v-19h-54l-3 49h-3q-7 -14 -18.5 -26.5t-28 -20.5
t-39.5 -8zM119 404q24 0 42.5 12.5t29 35.5t10.5 53v52l-42 -2q-39 -1 -60 -13t-29.5 -31t-8.5 -41q0 -32 14.5 -49t43.5 -17z" />
    <glyph glyph-name="guillemotleft" unicode="&#xab;" horiz-adv-x="390" 
d="M314 91l-121 174v10l121 174h17l-96 -179l96 -179h-17zM187 91l-120 174v10l120 174h17l-96 -179l96 -179h-17z" />
    <glyph glyph-name="logicalnot" unicode="&#xac;" horiz-adv-x="465" 
d="M381 105v247h-327v28h357v-275h-30z" />
    <glyph glyph-name="uni00AD" unicode="&#xad;" horiz-adv-x="258" 
d="M21 259v28h216v-28h-216z" />
    <glyph glyph-name="registered" unicode="&#xae;" horiz-adv-x="703" 
d="M352 -10q-72 0 -129 28.5t-97.5 78.5t-62 117t-21.5 144q0 78 22 144.5t62 116.5t98 78t129 28t128 -27.5t97 -78t61 -117t21 -144.5q0 -79 -21 -145.5t-61.5 -117t-97.5 -78t-128 -27.5zM355 16q64 0 115 25.5t87 71.5t55.5 108.5t19.5 136.5q0 75 -19 137t-55.5 108
t-88.5 71t-116 25q-86 0 -149.5 -44t-98.5 -121t-35 -175q0 -76 20.5 -138.5t58 -108.5t90 -71t116.5 -25zM208 141v20h10q23 0 31.5 5.5t8.5 26.5v325q0 23 -8.5 29t-31.5 6h-10v20h127q73 0 107 -29.5t34 -88.5q0 -37 -12 -59t-30 -33.5t-37 -17.5l74 -158q8 -16 17 -21
t32 -5v-20h-59l-92 196h-83v-144q0 -21 9 -26.5t31 -5.5h11v-20h-129zM338 361q61 0 85 23.5t24 67.5q0 51 -27.5 73.5t-89.5 22.5h-44v-187h52z" />
    <glyph glyph-name="overscore" unicode="&#xaf;" horiz-adv-x="381" 
d="M-4 760v49h389v-49h-389z" />
    <glyph glyph-name="degree" unicode="&#xb0;" horiz-adv-x="332" 
d="M166 435q-57 0 -90 40.5t-33 103.5q0 43 15 75.5t42.5 51t65.5 18.5t65.5 -18.5t43 -51t15.5 -75.5q0 -42 -15.5 -74.5t-43 -51t-65.5 -18.5zM168 458q46 0 71.5 35t25.5 88t-25.5 86.5t-71.5 33.5q-47 0 -73.5 -33.5t-26.5 -86.5t26.5 -88t73.5 -35z" />
    <glyph glyph-name="plusminus" unicode="&#xb1;" horiz-adv-x="465" 
d="M54 -1v28h357v-28h-357zM218 143v201h-164v28h164v200h29v-200h164v-28h-164v-201h-29z" />
    <glyph glyph-name="uni00B2" unicode="&#xb2;" horiz-adv-x="332" 
d="M41 386v13l116 152q20 26 36.5 51t26.5 52.5t10 58.5q0 39 -17.5 62.5t-58.5 23.5q-27 0 -44 -11.5t-24.5 -31t-7.5 -44.5q-10 0 -17.5 7.5t-7.5 23.5q0 18 12 37t35 31.5t54 12.5q32 0 55 -12.5t36 -37t13 -60.5q0 -35 -10.5 -63t-27 -52.5t-35.5 -49.5l-103 -136h132
q15 0 22.5 4.5t10.5 14.5t3 28l1 22h20l-1 -96h-229z" />
    <glyph glyph-name="uni00B3" unicode="&#xb3;" horiz-adv-x="332" 
d="M151 379q-37 0 -62 12.5t-37.5 32t-12.5 39.5t7 28.5t17 8.5q0 -43 18.5 -69.5t71.5 -26.5q42 0 69 24t27 77q0 46 -28.5 69t-87.5 23h-26v25h31q45 0 71 27t26 69q0 40 -20.5 59.5t-61.5 19.5q-46 0 -66 -27t-20 -70q-8 0 -15 9t-7 28q0 23 14.5 42t39 31t53.5 12
q56 0 83.5 -26.5t27.5 -73.5q0 -46 -23 -73t-53 -37v-1q23 -4 43.5 -15t33.5 -32.5t13 -58.5q0 -32 -9.5 -55.5t-26.5 -39.5t-40 -23.5t-50 -7.5z" />
    <glyph glyph-name="acute" unicode="&#xb4;" horiz-adv-x="199" 
d="M40 619q15 27 29 52t26 49t20 46h44v-10q-8 -13 -21 -32t-29.5 -40t-33.5 -41t-31 -37h-4v13z" />
    <glyph glyph-name="uni00B5" unicode="&#xb5;" horiz-adv-x="465" 
d="M133 -240q-23 0 -39 20t-16 75q0 32 1 66.5t2 75.5t2 90.5t1 110.5v338h28v-367q0 -52 12 -86.5t35.5 -51t56.5 -16.5q29 0 53 14.5t40 40.5t25 60t9 73v333h28v-431q0 -46 14 -65t42 -19h6v-21h-17q-31 0 -50.5 22t-20.5 68h-2q-16 -43 -49.5 -71.5t-77.5 -28.5
q-45 0 -72 20.5t-38 57.5v-157t5 -86.5t17 -36.5t35 -8q0 -7 -6.5 -13.5t-23.5 -6.5z" />
    <glyph glyph-name="paragraph" unicode="&#xb6;" horiz-adv-x="497" 
d="M141 -111v20h13q28 0 42 4t19 19.5t5 46.5v407h-43q-56 0 -87 27.5t-43.5 72t-12.5 96.5q0 54 13 94t44.5 62t86.5 22h274v-20h-8q-27 0 -42.5 -4.5t-22 -20.5t-6.5 -50v-685q0 -32 5 -47t19.5 -19.5t43.5 -4.5h11v-20h-107v847h-97v-847h-107z" />
    <glyph glyph-name="periodcentered" unicode="&#xb7;" horiz-adv-x="168" 
d="M85 317q-12 0 -21 9t-9 32t9 31t21 8q11 0 19.5 -8t8.5 -31q0 -24 -8.5 -32.5t-19.5 -8.5z" />
    <glyph glyph-name="cedilla" unicode="&#xb8;" horiz-adv-x="276" 
d="M111 -221q-12 0 -25 2t-27 7v23q14 -4 26 -6.5t23 -2.5q31 0 49 16.5t18 50.5q0 30 -18 46t-54 20l16 74h25l-13 -55q17 -4 33.5 -13.5t26.5 -26.5t10 -44q0 -46 -24 -68.5t-66 -22.5z" />
    <glyph glyph-name="uni00B9" unicode="&#xb9;" horiz-adv-x="332" 
d="M66 386v20h56q19 0 26.5 9t7.5 39v318q-10 -14 -24 -26t-28 -19t-25 -7q-10 0 -18 4.5t-8 16.5q25 2 44 12.5t34.5 26t28.5 32.5l5 6h19v-364q0 -30 8 -39t26 -9h48v-20h-200z" />
    <glyph glyph-name="ordmasculine" unicode="&#xba;" horiz-adv-x="293" 
d="M145 380q-50 0 -79.5 42.5t-29.5 127.5q0 86 30 127.5t82 41.5q50 0 80 -42t30 -127t-30 -127.5t-83 -42.5zM147 405q45 0 64.5 38.5t19.5 106.5t-20 106.5t-65 38.5t-64 -38.5t-19 -106.5t19.5 -106.5t64.5 -38.5z" />
    <glyph glyph-name="guillemotright" unicode="&#xbb;" horiz-adv-x="390" 
d="M192 91l95 179l-95 179h16l121 -174v-10l-121 -174h-16zM60 91l96 179l-96 179h17l120 -174v-10l-120 -174h-17z" />
    <glyph glyph-name="onequarter" unicode="&#xbc;" horiz-adv-x="698" 
d="M47 285v20h56q19 0 26.5 9t7.5 39v318q-10 -14 -24 -26t-28 -19t-25 -7q-10 0 -18 4.5t-8 16.5q25 2 44 12.5t34.5 26t28.5 32.5l5 6h19v-364q0 -30 8 -39t26 -9h48v-20h-200zM182 0l307 714h26l-307 -714h-26zM486 -1v20h28q21 0 30 8t9 37v77h-165v14l167 276h25v-266
h71v-24h-71v-77q0 -29 7.5 -37t28.5 -8h16v-20h-146zM421 165h132v143q0 16 1 40.5t2 43.5q-3 -7 -11.5 -23.5t-16.5 -28.5z" />
    <glyph glyph-name="onehalf" unicode="&#xbd;" horiz-adv-x="698" 
d="M47 285v20h56q19 0 26.5 9t7.5 39v318q-10 -14 -24 -26t-28 -19t-25 -7q-10 0 -18 4.5t-8 16.5q25 2 44 12.5t34.5 26t28.5 32.5l5 6h19v-364q0 -30 8 -39t26 -9h48v-20h-200zM170 0l307 714h26l-307 -714h-26zM418 -1v13l116 152q20 26 36.5 51t26.5 52.5t10 58.5
q0 39 -17.5 62.5t-58.5 23.5q-27 0 -44 -11.5t-24.5 -31t-7.5 -44.5q-10 0 -17.5 7.5t-7.5 23.5q0 18 12 37t35 31.5t54 12.5q32 0 55 -12.5t36 -37t13 -60.5q0 -35 -10.5 -63t-27 -52.5t-35.5 -49.5l-103 -136h132q15 0 22.5 4.5t10.5 14.5t3 28l1 22h20l-1 -96h-229z" />
    <glyph glyph-name="threequarters" unicode="&#xbe;" horiz-adv-x="698" 
d="M151 279q-37 0 -62 12.5t-37.5 32t-12.5 39.5t7 28.5t17 8.5q0 -43 18.5 -69.5t71.5 -26.5q42 0 69 24t27 77q0 46 -28.5 69t-87.5 23h-26v25h31q45 0 71 27t26 69q0 40 -20.5 59.5t-61.5 19.5q-46 0 -66 -27t-20 -70q-8 0 -15 9t-7 28q0 23 14.5 42t39 31t53.5 12
q56 0 83.5 -26.5t27.5 -73.5q0 -46 -23 -73t-53 -37v-1q23 -4 43.5 -15t33.5 -32.5t13 -58.5q0 -32 -9.5 -55.5t-26.5 -39.5t-40 -23.5t-50 -7.5zM200 0l307 714h26l-307 -714h-26zM489 -1v20h28q21 0 30 8t9 37v77h-165v14l167 276h25v-266h71v-24h-71v-77q0 -29 7.5 -37
t28.5 -8h16v-20h-146zM424 165h132v143q0 16 1 40.5t2 43.5q-3 -7 -11.5 -23.5t-16.5 -28.5z" />
    <glyph glyph-name="questiondown" unicode="&#xbf;" horiz-adv-x="371" 
d="M215 198q-49 -24 -80.5 -55t-46.5 -70t-15 -88q0 -68 31 -108.5t90 -40.5q45 0 71 18.5t36.5 48t10.5 63.5q9 0 15.5 -10t6.5 -32q0 -18 -8 -37t-24 -36.5t-43 -28.5t-65 -11q-45 0 -78.5 20.5t-52 59.5t-18.5 93q0 56 16 98.5t47.5 74t78.5 55.5l3 156h22zM200 540
q11 0 20 -8t9 -31q0 -22 -9 -30.5t-20 -8.5q-12 0 -21 8.5t-9 30.5q0 23 9 31t21 8z" />
    <glyph glyph-name="Agrave" unicode="&#xc0;" horiz-adv-x="543" 
d="M-3 0v20h17q19 0 29 5t17.5 20.5t16.5 47.5l186 621h19l195 -655q5 -17 10.5 -25.5t15 -11t28.5 -2.5h12v-20h-172v20h25q34 0 43 6.5t9 21.5q0 7 -3.5 20t-7.5 28t-8 26l-39 129h-236l-36 -117q-3 -12 -8.5 -29.5t-9.5 -33t-4 -24.5q0 -14 10.5 -20.5t43.5 -6.5h31v-20
h-184zM162 276h221l-64 221q-10 35 -19 65.5t-16 56t-12 42.5q-3 -16 -10.5 -41t-15.5 -53.5t-16 -55.5zM294 771q-14 14 -30.5 33.5t-33 41.5t-30 42t-20.5 33v10h43q9 -22 22 -49t27.5 -53t26.5 -45v-13h-5z" />
    <glyph glyph-name="Aacute" unicode="&#xc1;" horiz-adv-x="543" 
d="M-3 0v20h17q19 0 29 5t17.5 20.5t16.5 47.5l186 621h19l195 -655q5 -17 10.5 -25.5t15 -11t28.5 -2.5h12v-20h-172v20h25q34 0 43 6.5t9 21.5q0 7 -3.5 20t-7.5 28t-8 26l-39 129h-236l-36 -117q-3 -12 -8.5 -29.5t-9.5 -33t-4 -24.5q0 -14 10.5 -20.5t43.5 -6.5h31v-20
h-184zM162 276h221l-64 221q-10 35 -19 65.5t-16 56t-12 42.5q-3 -16 -10.5 -41t-15.5 -53.5t-16 -55.5zM246 784q15 27 29 52t26 49t20 46h44v-10q-8 -13 -21 -32t-29.5 -40t-33.5 -41t-31 -37h-4v13z" />
    <glyph glyph-name="Acircumflex" unicode="&#xc2;" horiz-adv-x="543" 
d="M-3 0v20h17q19 0 29 5t17.5 20.5t16.5 47.5l186 621h19l195 -655q5 -17 10.5 -25.5t15 -11t28.5 -2.5h12v-20h-172v20h25q34 0 43 6.5t9 21.5q0 7 -3.5 20t-7.5 28t-8 26l-39 129h-236l-36 -117q-3 -12 -8.5 -29.5t-9.5 -33t-4 -24.5q0 -14 10.5 -20.5t43.5 -6.5h31v-20
h-184zM162 276h221l-64 221q-10 35 -19 65.5t-16 56t-12 42.5q-3 -16 -10.5 -41t-15.5 -53.5t-16 -55.5zM175 784q13 19 27.5 45t27.5 53t20 49h39q9 -22 22 -49t27 -53t27 -45v-13h-6q-20 21 -35.5 39.5t-28 37t-24.5 42.5q-13 -24 -26 -42.5t-28.5 -37t-35.5 -39.5h-6v13z
" />
    <glyph glyph-name="Atilde" unicode="&#xc3;" horiz-adv-x="543" 
d="M-3 0v20h17q19 0 29 5t17.5 20.5t16.5 47.5l186 621h19l195 -655q5 -17 10.5 -25.5t15 -11t28.5 -2.5h12v-20h-172v20h25q34 0 43 6.5t9 21.5q0 7 -3.5 20t-7.5 28t-8 26l-39 129h-236l-36 -117q-3 -12 -8.5 -29.5t-9.5 -33t-4 -24.5q0 -14 10.5 -20.5t43.5 -6.5h31v-20
h-184zM162 276h221l-64 221q-10 35 -19 65.5t-16 56t-12 42.5q-3 -16 -10.5 -41t-15.5 -53.5t-16 -55.5zM337 775q-20 0 -37.5 9.5t-32.5 21.5t-29.5 22t-30.5 10q-23 0 -31 -17.5t-10 -39.5h-24q2 19 7.5 38t19 32.5t38.5 13.5q21 0 37 -9.5t31 -22t30 -22t32 -9.5
q23 0 31 17t10 38h24q-2 -19 -7.5 -38t-18.5 -31.5t-39 -12.5z" />
    <glyph glyph-name="Adieresis" unicode="&#xc4;" horiz-adv-x="543" 
d="M-3 0v20h17q19 0 29 5t17.5 20.5t16.5 47.5l186 621h19l195 -655q5 -17 10.5 -25.5t15 -11t28.5 -2.5h12v-20h-172v20h25q34 0 43 6.5t9 21.5q0 7 -3.5 20t-7.5 28t-8 26l-39 129h-236l-36 -117q-3 -12 -8.5 -29.5t-9.5 -33t-4 -24.5q0 -14 10.5 -20.5t43.5 -6.5h31v-20
h-184zM162 276h221l-64 221q-10 35 -19 65.5t-16 56t-12 42.5q-3 -16 -10.5 -41t-15.5 -53.5t-16 -55.5zM342 826q-11 0 -17 7.5t-6 29.5q0 23 6 31t17 8q12 0 17.5 -8t5.5 -31q0 -22 -5.5 -29.5t-17.5 -7.5zM201 826q-12 0 -17.5 7.5t-5.5 29.5q0 23 5.5 31t17.5 8
q11 0 17 -8t6 -31q0 -22 -6 -29.5t-17 -7.5z" />
    <glyph glyph-name="Aring" unicode="&#xc5;" horiz-adv-x="543" 
d="M-3 0v20h20q17 0 26.5 5t16.5 20.5t16 45.5l177 583q-35 6 -58 33.5t-23 74.5q0 53 29 81t70 28q42 0 71 -28t29 -81q0 -47 -22.5 -74t-56.5 -33l186 -620q7 -23 17 -29t35 -6h13v-20h-172v20h24q34 0 43.5 6t9.5 22q0 10 -6.5 31.5t-12.5 42.5l-39 129h-236l-36 -117
q-3 -12 -8.5 -29.5t-9.5 -33.5t-4 -25q0 -14 12 -20t45 -6h28v-20h-184zM162 276h221l-65 221q-10 35 -19 64.5t-15.5 54.5t-11.5 42q-3 -17 -10 -41t-15 -51.5t-16 -54.5zM272 697q30 0 51 20t21 65q0 46 -21 66t-51 20q-32 0 -52.5 -20t-20.5 -66q0 -45 20.5 -65t52.5 -20
z" />
    <glyph glyph-name="AE" unicode="&#xc6;" horiz-adv-x="749" 
d="M-3 0v20h21q15 0 24 4.5t18 19.5t22 48l256 599l-72 1v22h406l6 -164h-20l-4 61q-1 35 -6.5 52t-19.5 21.5t-42 4.5h-178v-302h206v-25h-206l-2 -337h212q27 0 39.5 5.5t17 19.5t6.5 40l4 74h20l-5 -164h-401v20h20q28 0 41 5.5t16.5 23.5t3.5 54v152h-200l-60 -137
q-11 -28 -17.5 -44t-6.5 -30q0 -13 12 -18.5t40 -5.5h41v-20h-192zM191 280h189v409h-14z" />
    <glyph glyph-name="Ccedilla" unicode="&#xc7;" horiz-adv-x="464" 
d="M275 -10q-75 0 -125.5 45.5t-76 128t-25.5 194.5q0 114 26 196t77.5 126t125.5 44q53 0 88.5 -16t53.5 -41.5t18 -55.5q0 -21 -5.5 -32.5t-15.5 -11.5q0 41 -14 71t-44.5 45.5t-82.5 15.5q-67 0 -111.5 -44t-66 -120.5t-21.5 -176.5t21.5 -177.5t66 -121.5t111.5 -44
q41 0 69 12.5t46 34.5t29 50q7 -4 10 -10.5t3 -16.5q0 -12 -10.5 -28t-31 -31.5t-49.5 -25.5t-66 -10zM251 -221q-8 0 -16.5 1t-17.5 3t-18 5v23q14 -4 26 -6.5t23 -2.5q30 0 48 16.5t18 50.5q0 30 -17.5 46t-53.5 20l16 74h25l-14 -55q18 -4 34.5 -13.5t26.5 -26.5t10 -44
q0 -46 -24 -68.5t-66 -22.5z" />
    <glyph glyph-name="Egrave" unicode="&#xc8;" horiz-adv-x="490" 
d="M40 0v20h25q25 0 37 6t15.5 25t3.5 57v498q0 39 -3.5 57.5t-15.5 24.5t-37 6h-25v20h373l6 -164h-20l-3 56q-2 37 -6.5 54.5t-19 23t-46.5 5.5h-175v-302h206v-25h-206l-1 -337h206q30 0 44 5t18.5 20t5.5 44l4 70h20l-5 -164h-401zM273 771q-14 14 -30.5 33.5t-33 41.5
t-30 42t-20.5 33v10h43q9 -22 22 -49t27.5 -53t26.5 -45v-13h-5z" />
    <glyph glyph-name="Eacute" unicode="&#xc9;" horiz-adv-x="490" 
d="M40 0v20h25q25 0 37 6t15.5 25t3.5 57v498q0 39 -3.5 57.5t-15.5 24.5t-37 6h-25v20h373l6 -164h-20l-3 56q-2 37 -6.5 54.5t-19 23t-46.5 5.5h-175v-302h206v-25h-206l-1 -337h206q30 0 44 5t18.5 20t5.5 44l4 70h20l-5 -164h-401zM222 784q15 27 29 52t26 49t20 46h44
v-10q-8 -13 -21 -32t-29.5 -40t-33.5 -41t-31 -37h-4v13z" />
    <glyph glyph-name="Ecircumflex" unicode="&#xca;" horiz-adv-x="490" 
d="M40 0v20h25q25 0 37 6t15.5 25t3.5 57v498q0 39 -3.5 57.5t-15.5 24.5t-37 6h-25v20h373l6 -164h-20l-3 56q-2 37 -6.5 54.5t-19 23t-46.5 5.5h-175v-302h206v-25h-206l-1 -337h206q30 0 44 5t18.5 20t5.5 44l4 70h20l-5 -164h-401zM169 784q13 19 27.5 45t27.5 53t20 49
h39q9 -22 22 -49t27 -53t27 -45v-13h-6q-20 21 -35.5 39.5t-28 37t-24.5 42.5q-13 -24 -26 -42.5t-28.5 -37t-35.5 -39.5h-6v13z" />
    <glyph glyph-name="Edieresis" unicode="&#xcb;" horiz-adv-x="490" 
d="M40 0v20h25q25 0 37 6t15.5 25t3.5 57v498q0 39 -3.5 57.5t-15.5 24.5t-37 6h-25v20h373l6 -164h-20l-3 56q-2 37 -6.5 54.5t-19 23t-46.5 5.5h-175v-302h206v-25h-206l-1 -337h206q30 0 44 5t18.5 20t5.5 44l4 70h20l-5 -164h-401zM318 826q-11 0 -17 7.5t-6 29.5
q0 23 6 31t17 8q12 0 17.5 -8t5.5 -31q0 -22 -5.5 -29.5t-17.5 -7.5zM177 826q-12 0 -17.5 7.5t-5.5 29.5q0 23 5.5 31t17.5 8q11 0 17 -8t6 -31q0 -22 -6 -29.5t-17 -7.5z" />
    <glyph glyph-name="Igrave" unicode="&#xcc;" horiz-adv-x="275" 
d="M40 0v20h27q25 0 37 6t15.5 25t3.5 57v498q0 39 -3.5 57.5t-15.5 24.5t-37 6h-27v20h193v-20h-26q-25 0 -37 -6t-15.5 -24.5t-3.5 -57.5v-498q0 -38 3.5 -57t15.5 -25t37 -6h26v-20h-193zM159 771q-14 14 -30.5 33.5t-33 41.5t-30 42t-20.5 33v10h43q9 -22 22 -49
t27.5 -53t26.5 -45v-13h-5z" />
    <glyph glyph-name="Iacute" unicode="&#xcd;" horiz-adv-x="275" 
d="M40 0v20h27q25 0 37 6t15.5 25t3.5 57v498q0 39 -3.5 57.5t-15.5 24.5t-37 6h-27v20h193v-20h-26q-25 0 -37 -6t-15.5 -24.5t-3.5 -57.5v-498q0 -38 3.5 -57t15.5 -25t37 -6h26v-20h-193zM106 784q15 27 29 52t26 49t20 46h44v-10q-8 -13 -21 -32t-29.5 -40t-33.5 -41
t-31 -37h-4v13z" />
    <glyph glyph-name="Icircumflex" unicode="&#xce;" horiz-adv-x="275" 
d="M40 0v20h27q25 0 37 6t15.5 25t3.5 57v498q0 39 -3.5 57.5t-15.5 24.5t-37 6h-27v20h193v-20h-26q-25 0 -37 -6t-15.5 -24.5t-3.5 -57.5v-498q0 -38 3.5 -57t15.5 -25t37 -6h26v-20h-193zM41 784q13 19 27.5 45t27.5 53t20 49h39q9 -22 22 -49t27 -53t27 -45v-13h-6
q-20 21 -35.5 39.5t-28 37t-24.5 42.5q-13 -24 -26 -42.5t-28.5 -37t-35.5 -39.5h-6v13z" />
    <glyph glyph-name="Idieresis" unicode="&#xcf;" horiz-adv-x="275" 
d="M40 0v20h27q25 0 37 6t15.5 25t3.5 57v498q0 39 -3.5 57.5t-15.5 24.5t-37 6h-27v20h193v-20h-26q-25 0 -37 -6t-15.5 -24.5t-3.5 -57.5v-498q0 -38 3.5 -57t15.5 -25t37 -6h26v-20h-193zM205 826q-11 0 -17 7.5t-6 29.5q0 23 6 31t17 8q12 0 17.5 -8t5.5 -31
q0 -22 -5.5 -29.5t-17.5 -7.5zM64 826q-12 0 -17.5 7.5t-5.5 29.5q0 23 5.5 31t17.5 8q11 0 17 -8t6 -31q0 -22 -6 -29.5t-17 -7.5z" />
    <glyph glyph-name="Eth" unicode="&#xd0;" horiz-adv-x="568" 
d="M40 0v20h22q26 0 39 5.5t17 24.5t4 59v252h-90v25h90v222q0 39 -4 57t-16.5 23.5t-37.5 5.5h-24v20h219q86 0 143.5 -44.5t87 -127.5t29.5 -199q0 -109 -27.5 -186t-84.5 -117t-148 -40h-219zM255 25q81 0 133 35t77.5 105.5t25.5 177.5q0 106 -25.5 183.5t-77.5 120
t-132 42.5h-106v-303h185v-25h-185v-336h105z" />
    <glyph glyph-name="Ntilde" unicode="&#xd1;" horiz-adv-x="611" 
d="M40 0v20h26q25 0 37 6t15.5 25t3.5 57v498q0 39 -3.5 57.5t-15.5 24.5t-37 6h-26v20h103l329 -651v543q0 39 -3.5 57.5t-15.5 24.5t-37 6h-31v20h193v-20h-25q-25 0 -37 -6t-15.5 -24.5t-3.5 -57.5v-606h-25l-325 643v-535q0 -38 3.5 -57t15.5 -25t37 -6h32v-20h-195z
M382 775q-20 0 -37.5 9.5t-32.5 21.5t-29.5 22t-30.5 10q-23 0 -31 -17.5t-10 -39.5h-24q2 19 7.5 38t19 32.5t38.5 13.5q21 0 37 -9.5t31 -22t30 -22t32 -9.5q23 0 31 17t10 38h24q-2 -19 -7.5 -38t-18.5 -31.5t-39 -12.5z" />
    <glyph glyph-name="Ograve" unicode="&#xd2;" horiz-adv-x="577" 
d="M288 -10q-81 0 -134 45.5t-79.5 128t-26.5 195.5q0 118 27 199.5t81 124t132 42.5q84 0 136.5 -40.5t78 -122t25.5 -204.5q0 -115 -27 -197.5t-80.5 -126.5t-132.5 -44zM288 15q72 0 119 41.5t70 118.5t23 183q0 108 -20.5 184.5t-67 117t-123.5 40.5q-109 0 -161 -90
t-52 -252q0 -104 23.5 -181t71 -119.5t117.5 -42.5zM317 771q-14 14 -30.5 33.5t-33 41.5t-30 42t-20.5 33v10h43q9 -22 22 -49t27.5 -53t26.5 -45v-13h-5z" />
    <glyph glyph-name="Oacute" unicode="&#xd3;" horiz-adv-x="577" 
d="M288 -10q-81 0 -134 45.5t-79.5 128t-26.5 195.5q0 118 27 199.5t81 124t132 42.5q84 0 136.5 -40.5t78 -122t25.5 -204.5q0 -115 -27 -197.5t-80.5 -126.5t-132.5 -44zM288 15q72 0 119 41.5t70 118.5t23 183q0 108 -20.5 184.5t-67 117t-123.5 40.5q-109 0 -161 -90
t-52 -252q0 -104 23.5 -181t71 -119.5t117.5 -42.5zM244 784q15 27 29 52t26 49t20 46h44v-10q-8 -13 -21 -32t-29.5 -40t-33.5 -41t-31 -37h-4v13z" />
    <glyph glyph-name="Ocircumflex" unicode="&#xd4;" horiz-adv-x="577" 
d="M288 -10q-81 0 -134 45.5t-79.5 128t-26.5 195.5q0 118 27 199.5t81 124t132 42.5q84 0 136.5 -40.5t78 -122t25.5 -204.5q0 -115 -27 -197.5t-80.5 -126.5t-132.5 -44zM288 15q72 0 119 41.5t70 118.5t23 183q0 108 -20.5 184.5t-67 117t-123.5 40.5q-109 0 -161 -90
t-52 -252q0 -104 23.5 -181t71 -119.5t117.5 -42.5zM194 784q13 19 27.5 45t27.5 53t20 49h39q9 -22 22 -49t27 -53t27 -45v-13h-6q-20 21 -35.5 39.5t-28 37t-24.5 42.5q-13 -24 -26 -42.5t-28.5 -37t-35.5 -39.5h-6v13z" />
    <glyph glyph-name="Otilde" unicode="&#xd5;" horiz-adv-x="577" 
d="M288 -10q-81 0 -134 45.5t-79.5 128t-26.5 195.5q0 118 27 199.5t81 124t132 42.5q84 0 136.5 -40.5t78 -122t25.5 -204.5q0 -115 -27 -197.5t-80.5 -126.5t-132.5 -44zM288 15q72 0 119 41.5t70 118.5t23 183q0 108 -20.5 184.5t-67 117t-123.5 40.5q-109 0 -161 -90
t-52 -252q0 -104 23.5 -181t71 -119.5t117.5 -42.5zM342 775q-20 0 -37.5 9.5t-32.5 21.5t-29.5 22t-30.5 10q-23 0 -31 -17.5t-10 -39.5h-24q2 19 7.5 38t19 32.5t38.5 13.5q21 0 37 -9.5t31 -22t30 -22t32 -9.5q23 0 31 17t10 38h24q-2 -19 -7.5 -38t-18.5 -31.5
t-39 -12.5z" />
    <glyph glyph-name="Odieresis" unicode="&#xd6;" horiz-adv-x="577" 
d="M288 -10q-81 0 -134 45.5t-79.5 128t-26.5 195.5q0 118 27 199.5t81 124t132 42.5q84 0 136.5 -40.5t78 -122t25.5 -204.5q0 -115 -27 -197.5t-80.5 -126.5t-132.5 -44zM288 15q72 0 119 41.5t70 118.5t23 183q0 108 -20.5 184.5t-67 117t-123.5 40.5q-109 0 -161 -90
t-52 -252q0 -104 23.5 -181t71 -119.5t117.5 -42.5zM358 826q-11 0 -17 7.5t-6 29.5q0 23 6 31t17 8q12 0 17.5 -8t5.5 -31q0 -22 -5.5 -29.5t-17.5 -7.5zM217 826q-12 0 -17.5 7.5t-5.5 29.5q0 23 5.5 31t17.5 8q11 0 17 -8t6 -31q0 -22 -6 -29.5t-17 -7.5z" />
    <glyph glyph-name="multiply" unicode="&#xd7;" horiz-adv-x="465" 
d="M79 148l-21 19l161 194l-162 197l21 18l159 -192l159 192l21 -18l-161 -197l161 -195l-22 -18l-158 191z" />
    <glyph glyph-name="Oslash" unicode="&#xd8;" horiz-adv-x="576" 
d="M131 58q-42 48 -62.5 125t-20.5 176q0 118 27 199.5t81 124t133 42.5q43 0 78 -11t62 -34l35 75h29l-45 -94q41 -44 60.5 -119.5t19.5 -183.5q0 -115 -27 -197.5t-80.5 -126.5t-132.5 -44q-42 0 -76.5 12.5t-61.5 36.5l-38 -79h-28zM288 15q72 0 119 41.5t70 118.5
t23 183q0 93 -15.5 163t-49.5 113l-272 -569q49 -50 125 -50zM416 655q-23 22 -54.5 33.5t-72.5 11.5q-109 0 -161 -90t-52 -252q0 -88 17 -157.5t51 -114.5z" />
    <glyph glyph-name="Ugrave" unicode="&#xd9;" horiz-adv-x="568" 
d="M281 -10q-56 0 -99 22.5t-67 72.5t-24 129v394q0 38 -3.5 56t-15.5 24t-37 6h-24v20h193v-20h-29q-24 0 -36 -5.5t-16 -24.5t-4 -58v-396q0 -101 44 -148t118 -47q61 0 97.5 28t53 72t16.5 92v400q0 38 -3.5 56.5t-15.5 24.5t-37 6h-29v20h192v-20h-23q-25 0 -37 -6
t-15.5 -24.5t-3.5 -56.5v-402q0 -58 -21 -107t-64 -78.5t-110 -29.5zM309 771q-14 14 -30.5 33.5t-33 41.5t-30 42t-20.5 33v10h43q9 -22 22 -49t27.5 -53t26.5 -45v-13h-5z" />
    <glyph glyph-name="Uacute" unicode="&#xda;" horiz-adv-x="568" 
d="M281 -10q-56 0 -99 22.5t-67 72.5t-24 129v394q0 38 -3.5 56t-15.5 24t-37 6h-24v20h193v-20h-29q-24 0 -36 -5.5t-16 -24.5t-4 -58v-396q0 -101 44 -148t118 -47q61 0 97.5 28t53 72t16.5 92v400q0 38 -3.5 56.5t-15.5 24.5t-37 6h-29v20h192v-20h-23q-25 0 -37 -6
t-15.5 -24.5t-3.5 -56.5v-402q0 -58 -21 -107t-64 -78.5t-110 -29.5zM254 784q15 27 29 52t26 49t20 46h44v-10q-8 -13 -21 -32t-29.5 -40t-33.5 -41t-31 -37h-4v13z" />
    <glyph glyph-name="Ucircumflex" unicode="&#xdb;" horiz-adv-x="568" 
d="M281 -10q-56 0 -99 22.5t-67 72.5t-24 129v394q0 38 -3.5 56t-15.5 24t-37 6h-24v20h193v-20h-29q-24 0 -36 -5.5t-16 -24.5t-4 -58v-396q0 -101 44 -148t118 -47q61 0 97.5 28t53 72t16.5 92v400q0 38 -3.5 56.5t-15.5 24.5t-37 6h-29v20h192v-20h-23q-25 0 -37 -6
t-15.5 -24.5t-3.5 -56.5v-402q0 -58 -21 -107t-64 -78.5t-110 -29.5zM198 784q13 19 27.5 45t27.5 53t20 49h39q9 -22 22 -49t27 -53t27 -45v-13h-6q-20 21 -35.5 39.5t-28 37t-24.5 42.5q-13 -24 -26 -42.5t-28.5 -37t-35.5 -39.5h-6v13z" />
    <glyph glyph-name="Udieresis" unicode="&#xdc;" horiz-adv-x="568" 
d="M281 -10q-56 0 -99 22.5t-67 72.5t-24 129v394q0 38 -3.5 56t-15.5 24t-37 6h-24v20h193v-20h-29q-24 0 -36 -5.5t-16 -24.5t-4 -58v-396q0 -101 44 -148t118 -47q61 0 97.5 28t53 72t16.5 92v400q0 38 -3.5 56.5t-15.5 24.5t-37 6h-29v20h192v-20h-23q-25 0 -37 -6
t-15.5 -24.5t-3.5 -56.5v-402q0 -58 -21 -107t-64 -78.5t-110 -29.5zM360 826q-11 0 -17 7.5t-6 29.5q0 23 6 31t17 8q12 0 17.5 -8t5.5 -31q0 -22 -5.5 -29.5t-17.5 -7.5zM219 826q-12 0 -17.5 7.5t-5.5 29.5q0 23 5.5 31t17.5 8q11 0 17 -8t6 -31q0 -22 -6 -29.5t-17 -7.5
z" />
    <glyph glyph-name="Yacute" unicode="&#xdd;" horiz-adv-x="457" 
d="M127 0v20h33q25 0 37 6t15.5 25t3.5 57v246l-158 297q-10 21 -18.5 30t-18 11t-26.5 2h-4v20h161v-20h-32q-27 0 -33.5 -4t-6.5 -12t6.5 -20.5t16.5 -31.5l62 -118q17 -32 33 -63.5t31 -62.5q8 15 19.5 37.5t28.5 54.5l82 156q10 21 13.5 30t3.5 17t-7 12.5t-33 4.5h-45
v20h172v-20h-4q-16 0 -25 -2t-17 -11t-18 -29l-155 -296v-248q0 -38 3.5 -57t15.5 -25t37 -6h33v-20h-206zM206 784q15 27 29 52t26 49t20 46h44v-10q-8 -13 -21 -32t-29.5 -40t-33.5 -41t-31 -37h-4v13z" />
    <glyph glyph-name="Thorn" unicode="&#xde;" horiz-adv-x="472" 
d="M40 0v20h28q24 0 36 6t15.5 25t3.5 57v498q0 39 -3.5 57.5t-15.5 24.5t-36 6h-28v20h193v-20h-25q-25 0 -37.5 -6t-16 -24.5t-3.5 -57.5v-54h92q100 0 144 -45.5t44 -140.5q0 -69 -21.5 -112t-67 -62.5t-118.5 -19.5h-73v-64q0 -38 3.5 -57t15.5 -25t37 -6h32v-20h-199z
M226 197q64 0 103.5 17t56.5 54t17 95q0 87 -37 125.5t-124 38.5h-91v-330h75z" />
    <glyph glyph-name="germandbls" unicode="&#xdf;" horiz-adv-x="487" 
d="M324 -10q-38 0 -64.5 15t-39.5 40.5t-13 54.5q0 22 4 33t9 16t10 5q-1 -49 9.5 -79.5t32 -45t52.5 -14.5q46 0 69.5 31t23.5 86q0 30 -7.5 52.5t-24.5 42t-47 37.5q-31 18 -56 38.5t-40 45.5t-15 57q0 35 14 63t46 45t87 16q0 59 -10 104.5t-36.5 71t-75.5 25.5
q-41 0 -65.5 -19.5t-35 -51t-10.5 -69.5v-590h-109v20h20q27 0 40 5t17 22t4 53v411h-78v25h78v55q0 58 19 94t51.5 53t70.5 17q62 0 93.5 -30.5t43 -87t11.5 -133.5h-39q-47 0 -70 -15.5t-30.5 -38t-7.5 -45.5q0 -16 7.5 -34t27 -37.5t55.5 -42.5q39 -23 60 -48t30.5 -51.5
t9.5 -59.5q0 -67 -33 -104.5t-88 -37.5z" />
    <glyph glyph-name="agrave" unicode="&#xe0;" horiz-adv-x="435" 
d="M166 -10q-35 0 -62 17t-42.5 52t-15.5 87q0 78 47.5 115.5t145.5 41.5l70 3v65q0 50 -9.5 82t-32 48t-61.5 16q-37 0 -60 -13t-34 -40t-11 -69q-10 0 -15.5 11.5t-5.5 32.5q0 27 13.5 50.5t41.5 38t71 14.5q68 0 99.5 -40.5t31.5 -129.5v-267q0 -37 4 -55t15 -24t33 -6h3
v-20h-76l-6 95h-2q-11 -27 -29.5 -51t-45.5 -39t-67 -15zM169 15q41 0 72 24t49.5 63t18.5 83v98l-70 -3q-60 -2 -96.5 -18.5t-52.5 -46t-16 -69.5q0 -37 10 -67t31 -47t54 -17zM241 606q-14 14 -30.5 33.5t-33 41.5t-30 42t-20.5 33v10h43q9 -22 22 -49t27.5 -53t26.5 -45
v-13h-5z" />
    <glyph glyph-name="aacute" unicode="&#xe1;" horiz-adv-x="435" 
d="M166 -10q-35 0 -62 17t-42.5 52t-15.5 87q0 78 47.5 115.5t145.5 41.5l70 3v65q0 50 -9.5 82t-32 48t-61.5 16q-37 0 -60 -13t-34 -40t-11 -69q-10 0 -15.5 11.5t-5.5 32.5q0 27 13.5 50.5t41.5 38t71 14.5q68 0 99.5 -40.5t31.5 -129.5v-267q0 -37 4 -55t15 -24t33 -6h3
v-20h-76l-6 95h-2q-11 -27 -29.5 -51t-45.5 -39t-67 -15zM169 15q41 0 72 24t49.5 63t18.5 83v98l-70 -3q-60 -2 -96.5 -18.5t-52.5 -46t-16 -69.5q0 -37 10 -67t31 -47t54 -17zM177 619q15 27 29 52t26 49t20 46h44v-10q-8 -13 -21 -32t-29.5 -40t-33.5 -41t-31 -37h-4v13z
" />
    <glyph glyph-name="acircumflex" unicode="&#xe2;" horiz-adv-x="435" 
d="M166 -10q-35 0 -62 17t-42.5 52t-15.5 87q0 78 47.5 115.5t145.5 41.5l70 3v65q0 50 -9.5 82t-32 48t-61.5 16q-37 0 -60 -13t-34 -40t-11 -69q-10 0 -15.5 11.5t-5.5 32.5q0 27 13.5 50.5t41.5 38t71 14.5q68 0 99.5 -40.5t31.5 -129.5v-267q0 -37 4 -55t15 -24t33 -6h3
v-20h-76l-6 95h-2q-11 -27 -29.5 -51t-45.5 -39t-67 -15zM169 15q41 0 72 24t49.5 63t18.5 83v98l-70 -3q-60 -2 -96.5 -18.5t-52.5 -46t-16 -69.5q0 -37 10 -67t31 -47t54 -17zM110 619q13 19 27.5 45t27.5 53t20 49h39q9 -22 22 -49t27 -53t27 -45v-13h-6
q-20 21 -35.5 39.5t-28 37t-24.5 42.5q-13 -24 -26 -42.5t-28.5 -37t-35.5 -39.5h-6v13z" />
    <glyph glyph-name="atilde" unicode="&#xe3;" horiz-adv-x="435" 
d="M166 -10q-35 0 -62 17t-42.5 52t-15.5 87q0 78 47.5 115.5t145.5 41.5l70 3v65q0 50 -9.5 82t-32 48t-61.5 16q-37 0 -60 -13t-34 -40t-11 -69q-10 0 -15.5 11.5t-5.5 32.5q0 27 13.5 50.5t41.5 38t71 14.5q68 0 99.5 -40.5t31.5 -129.5v-267q0 -37 4 -55t15 -24t33 -6h3
v-20h-76l-6 95h-2q-11 -27 -29.5 -51t-45.5 -39t-67 -15zM169 15q41 0 72 24t49.5 63t18.5 83v98l-70 -3q-60 -2 -96.5 -18.5t-52.5 -46t-16 -69.5q0 -37 10 -67t31 -47t54 -17zM275 610q-20 0 -37.5 9.5t-32.5 21.5t-29.5 22t-30.5 10q-23 0 -31 -17.5t-10 -39.5h-24
q2 19 7.5 38t19 32.5t38.5 13.5q21 0 37 -9.5t31 -22t30 -22t32 -9.5q23 0 31 17t10 38h24q-2 -19 -7.5 -38t-18.5 -31.5t-39 -12.5z" />
    <glyph glyph-name="adieresis" unicode="&#xe4;" horiz-adv-x="435" 
d="M166 -10q-35 0 -62 17t-42.5 52t-15.5 87q0 78 47.5 115.5t145.5 41.5l70 3v65q0 50 -9.5 82t-32 48t-61.5 16q-37 0 -60 -13t-34 -40t-11 -69q-10 0 -15.5 11.5t-5.5 32.5q0 27 13.5 50.5t41.5 38t71 14.5q68 0 99.5 -40.5t31.5 -129.5v-267q0 -37 4 -55t15 -24t33 -6h3
v-20h-76l-6 95h-2q-11 -27 -29.5 -51t-45.5 -39t-67 -15zM169 15q41 0 72 24t49.5 63t18.5 83v98l-70 -3q-60 -2 -96.5 -18.5t-52.5 -46t-16 -69.5q0 -37 10 -67t31 -47t54 -17zM276 661q-11 0 -17 7.5t-6 29.5q0 23 6 31t17 8q12 0 17.5 -8t5.5 -31q0 -22 -5.5 -29.5
t-17.5 -7.5zM135 661q-12 0 -17.5 7.5t-5.5 29.5q0 23 5.5 31t17.5 8q11 0 17 -8t6 -31q0 -22 -6 -29.5t-17 -7.5z" />
    <glyph glyph-name="aring" unicode="&#xe5;" horiz-adv-x="435" 
d="M166 -10q-35 0 -62 17t-42.5 52t-15.5 87q0 78 47.5 115.5t145.5 41.5l70 3v65q0 50 -9.5 82t-32 48t-61.5 16q-37 0 -60 -13t-34 -40t-11 -69q-10 0 -15.5 11.5t-5.5 32.5q0 27 13.5 50.5t41.5 38t71 14.5q68 0 99.5 -40.5t31.5 -129.5v-267q0 -37 4 -55t15 -24t33 -6h3
v-20h-76l-6 95h-2q-11 -27 -29.5 -51t-45.5 -39t-67 -15zM169 15q41 0 72 24t49.5 63t18.5 83v98l-70 -3q-60 -2 -96.5 -18.5t-52.5 -46t-16 -69.5q0 -37 10 -67t31 -47t54 -17zM212 596q-41 0 -70 28t-29 81t29 81t70 28q42 0 71 -28t29 -81t-29 -81t-71 -28zM213 620
q30 0 51 20t21 66q0 45 -21 65.5t-51 20.5q-32 0 -53 -20.5t-21 -65.5q0 -46 21 -66t53 -20z" />
    <glyph glyph-name="ae" unicode="&#xe6;" horiz-adv-x="661" 
d="M168 -10q-36 0 -63.5 17t-43 51.5t-15.5 87.5q0 78 47.5 115.5t145.5 40.5l65 2v67q0 44 -6.5 77t-27.5 51t-64 18q-40 0 -63 -14.5t-32.5 -42t-9.5 -65.5q-10 0 -15.5 11.5t-5.5 33.5q0 26 13.5 49.5t41.5 38t72 14.5q39 0 63 -12t37.5 -36t19.5 -59q19 50 52 78.5
t84 28.5q47 0 81 -28t52.5 -83.5t18.5 -136.5v-22h-284q1 -92 19 -148.5t50 -82.5t73 -26q44 0 73 23.5t45 61.5q5 -3 7 -8t2 -13q0 -16 -15 -37t-43 -36.5t-70 -15.5q-59 0 -98 39t-53 113q-7 -42 -27 -76.5t-51.5 -55t-74.5 -20.5zM169 15q40 0 70.5 23.5t48 63.5t16.5 87
v92l-65 -2q-60 -2 -96.5 -18t-52.5 -45t-16 -70q0 -38 10 -67.5t31.5 -46.5t53.5 -17zM587 296q0 105 -31.5 163t-91.5 58q-62 0 -96.5 -56t-35.5 -165h255z" />
    <glyph glyph-name="ccedilla" unicode="&#xe7;" horiz-adv-x="377" 
d="M220 -10q-47 0 -85 26.5t-60 86.5t-22 160q0 107 21 168t58 86t87 25q40 0 67.5 -14.5t42 -38.5t14.5 -53q0 -10 -3.5 -17t-9 -10t-12.5 -3q0 34 -10 59t-32.5 38.5t-58.5 13.5q-40 0 -71 -22.5t-48 -77.5t-17 -153q0 -86 17.5 -141.5t48.5 -81.5t73 -26q33 0 56.5 14
t38.5 36.5t23 45.5q4 -4 6 -10.5t2 -16.5q0 -18 -14.5 -40t-42.5 -38t-69 -16zM196 -221q-12 0 -25 2t-27 7v23q14 -4 26 -6.5t23 -2.5q31 0 49 16.5t18 50.5q0 30 -18 46t-54 20l16 74h25l-13 -55q17 -4 33.5 -13.5t26.5 -26.5t10 -44q0 -46 -24 -68.5t-66 -22.5z" />
    <glyph glyph-name="egrave" unicode="&#xe8;" horiz-adv-x="412" 
d="M223 -10q-78 0 -124 71t-46 201q0 141 42 210.5t120 69.5q73 0 112 -67t39 -184v-19h-285q0 -130 38.5 -193.5t104.5 -63.5q47 0 75.5 26t42.5 59q4 -2 6.5 -7t2.5 -14q0 -15 -15 -36t-43 -37t-70 -16zM338 296q-1 99 -30.5 160t-92.5 61q-66 0 -98 -59.5t-35 -161.5h256
zM242 606q-14 14 -30.5 33.5t-33 41.5t-30 42t-20.5 33v10h43q9 -22 22 -49t27.5 -53t26.5 -45v-13h-5z" />
    <glyph glyph-name="eacute" unicode="&#xe9;" horiz-adv-x="412" 
d="M223 -10q-78 0 -124 71t-46 201q0 141 42 210.5t120 69.5q73 0 112 -67t39 -184v-19h-285q0 -130 38.5 -193.5t104.5 -63.5q47 0 75.5 26t42.5 59q4 -2 6.5 -7t2.5 -14q0 -15 -15 -36t-43 -37t-70 -16zM338 296q-1 99 -30.5 160t-92.5 61q-66 0 -98 -59.5t-35 -161.5h256
zM180 619q15 27 29 52t26 49t20 46h44v-10q-8 -13 -21 -32t-29.5 -40t-33.5 -41t-31 -37h-4v13z" />
    <glyph glyph-name="ecircumflex" unicode="&#xea;" horiz-adv-x="412" 
d="M223 -10q-78 0 -124 71t-46 201q0 141 42 210.5t120 69.5q73 0 112 -67t39 -184v-19h-285q0 -130 38.5 -193.5t104.5 -63.5q47 0 75.5 26t42.5 59q4 -2 6.5 -7t2.5 -14q0 -15 -15 -36t-43 -37t-70 -16zM338 296q-1 99 -30.5 160t-92.5 61q-66 0 -98 -59.5t-35 -161.5h256
zM116 619q13 19 27.5 45t27.5 53t20 49h39q9 -22 22 -49t27 -53t27 -45v-13h-6q-20 21 -35.5 39.5t-28 37t-24.5 42.5q-13 -24 -26 -42.5t-28.5 -37t-35.5 -39.5h-6v13z" />
    <glyph glyph-name="edieresis" unicode="&#xeb;" horiz-adv-x="412" 
d="M223 -10q-78 0 -124 71t-46 201q0 141 42 210.5t120 69.5q73 0 112 -67t39 -184v-19h-285q0 -130 38.5 -193.5t104.5 -63.5q47 0 75.5 26t42.5 59q4 -2 6.5 -7t2.5 -14q0 -15 -15 -36t-43 -37t-70 -16zM338 296q-1 99 -30.5 160t-92.5 61q-66 0 -98 -59.5t-35 -161.5h256
zM282 661q-11 0 -17 7.5t-6 29.5q0 23 6 31t17 8q12 0 17.5 -8t5.5 -31q0 -22 -5.5 -29.5t-17.5 -7.5zM141 661q-12 0 -17.5 7.5t-5.5 29.5q0 23 5.5 31t17.5 8q11 0 17 -8t6 -31q0 -22 -6 -29.5t-17 -7.5z" />
    <glyph glyph-name="igrave" unicode="&#xec;" horiz-adv-x="237" 
d="M25 0v20h20q32 0 47 4.5t19 20t4 50.5v343q0 36 -4 52.5t-17 21t-43 4.5h-9v20h101v-441q0 -35 4 -50.5t19 -20t47 -4.5h17v-20h-205zM138 606q-14 14 -30.5 33.5t-33 41.5t-30 42t-20.5 33v10h43q9 -22 22 -49t27.5 -53t26.5 -45v-13h-5z" />
    <glyph glyph-name="iacute" unicode="&#xed;" horiz-adv-x="237" 
d="M25 0v20h20q32 0 47 4.5t19 20t4 50.5v343q0 36 -4 52.5t-17 21t-43 4.5h-9v20h101v-441q0 -35 4 -50.5t19 -20t47 -4.5h17v-20h-205zM78 619q15 27 29 52t26 49t20 46h44v-10q-8 -13 -21 -32t-29.5 -40t-33.5 -41t-31 -37h-4v13z" />
    <glyph glyph-name="icircumflex" unicode="&#xee;" horiz-adv-x="237" 
d="M25 0v20h20q32 0 47 4.5t19 20t4 50.5v343q0 36 -4 52.5t-17 21t-43 4.5h-9v20h101v-441q0 -35 4 -50.5t19 -20t47 -4.5h17v-20h-205zM14 619q13 19 27.5 45t27.5 53t20 49h39q9 -22 22 -49t27 -53t27 -45v-13h-6q-20 21 -35.5 39.5t-28 37t-24.5 42.5q-13 -24 -26 -42.5
t-28.5 -37t-35.5 -39.5h-6v13z" />
    <glyph glyph-name="idieresis" unicode="&#xef;" horiz-adv-x="237" 
d="M25 0v20h20q32 0 47 4.5t19 20t4 50.5v343q0 36 -4 52.5t-17 21t-43 4.5h-9v20h101v-441q0 -35 4 -50.5t19 -20t47 -4.5h17v-20h-205zM184 661q-11 0 -17 7.5t-6 29.5q0 23 6 31t17 8q12 0 17.5 -8t5.5 -31q0 -22 -5.5 -29.5t-17.5 -7.5zM43 661q-12 0 -17.5 7.5
t-5.5 29.5q0 23 5.5 31t17.5 8q11 0 17 -8t6 -31q0 -22 -6 -29.5t-17 -7.5z" />
    <glyph glyph-name="eth" unicode="&#xf0;" horiz-adv-x="446" 
d="M224 -10q-60 0 -98 32t-55.5 90t-17.5 134q0 125 43 185t130 60q25 0 49 -8.5t44 -24t34 -39.5q-19 71 -43.5 123.5t-60.5 93.5l-96 -79v32l79 65q-25 27 -48 45t-52 34v28q37 -18 65 -39.5t57 -49.5l107 89v-32l-91 -75q61 -73 92 -168.5t31 -215.5q0 -97 -18.5 -159
t-56 -91.5t-94.5 -29.5zM224 15q71 0 105.5 59t34.5 172q0 67 -13 116.5t-44 76.5t-84 27t-84 -26.5t-44 -76t-13 -117.5q0 -111 34.5 -171t107.5 -60z" />
    <glyph glyph-name="ntilde" unicode="&#xf1;" horiz-adv-x="516" 
d="M31 0v20h12q33 0 48 4.5t18.5 20.5t3.5 51v345q0 35 -4 51t-18 20t-45 4h-11v20h102l4 -80h2q22 42 53 64t80 22q74 0 107 -44t33 -137v-266q0 -35 4 -50.5t18.5 -20t45.5 -4.5h7v-20h-103v364q0 69 -25 111t-85 42q-44 0 -74.5 -20.5t-46.5 -61.5t-16 -102v-238
q0 -35 4 -50.5t19 -20t47 -4.5h9v-20h-189zM331 610q-20 0 -37.5 9.5t-32.5 21.5t-29.5 22t-30.5 10q-23 0 -31 -17.5t-10 -39.5h-24q2 19 7.5 38t19 32.5t38.5 13.5q21 0 37 -9.5t31 -22t30 -22t32 -9.5q23 0 31 17t10 38h24q-2 -19 -7.5 -38t-18.5 -31.5t-39 -12.5z" />
    <glyph glyph-name="ograve" unicode="&#xf2;" horiz-adv-x="446" 
d="M223 -10q-80 0 -125 67.5t-45 209.5q0 139 42.5 207t130.5 68q84 0 125.5 -68t41.5 -207q0 -144 -43 -210.5t-127 -66.5zM224 15q52 0 83 29.5t44.5 86t13.5 136.5q0 126 -32 188t-108 62q-78 0 -111 -62.5t-33 -187.5q0 -123 34.5 -187.5t108.5 -64.5zM263 606
q-14 14 -30.5 33.5t-33 41.5t-30 42t-20.5 33v10h43q9 -22 22 -49t27.5 -53t26.5 -45v-13h-5z" />
    <glyph glyph-name="oacute" unicode="&#xf3;" horiz-adv-x="446" 
d="M223 -10q-80 0 -125 67.5t-45 209.5q0 139 42.5 207t130.5 68q84 0 125.5 -68t41.5 -207q0 -144 -43 -210.5t-127 -66.5zM224 15q52 0 83 29.5t44.5 86t13.5 136.5q0 126 -32 188t-108 62q-78 0 -111 -62.5t-33 -187.5q0 -123 34.5 -187.5t108.5 -64.5zM200 619
q15 27 29 52t26 49t20 46h44v-10q-8 -13 -21 -32t-29.5 -40t-33.5 -41t-31 -37h-4v13z" />
    <glyph glyph-name="ocircumflex" unicode="&#xf4;" horiz-adv-x="446" 
d="M223 -10q-80 0 -125 67.5t-45 209.5q0 139 42.5 207t130.5 68q84 0 125.5 -68t41.5 -207q0 -144 -43 -210.5t-127 -66.5zM224 15q52 0 83 29.5t44.5 86t13.5 136.5q0 126 -32 188t-108 62q-78 0 -111 -62.5t-33 -187.5q0 -123 34.5 -187.5t108.5 -64.5zM126 619
q13 19 27.5 45t27.5 53t20 49h39q9 -22 22 -49t27 -53t27 -45v-13h-6q-20 21 -35.5 39.5t-28 37t-24.5 42.5q-13 -24 -26 -42.5t-28.5 -37t-35.5 -39.5h-6v13z" />
    <glyph glyph-name="otilde" unicode="&#xf5;" horiz-adv-x="446" 
d="M223 -10q-80 0 -125 67.5t-45 209.5q0 139 42.5 207t130.5 68q84 0 125.5 -68t41.5 -207q0 -144 -43 -210.5t-127 -66.5zM224 15q52 0 83 29.5t44.5 86t13.5 136.5q0 126 -32 188t-108 62q-78 0 -111 -62.5t-33 -187.5q0 -123 34.5 -187.5t108.5 -64.5zM286 610
q-20 0 -37.5 9.5t-32.5 21.5t-29.5 22t-30.5 10q-23 0 -31 -17.5t-10 -39.5h-24q2 19 7.5 38t19 32.5t38.5 13.5q21 0 37 -9.5t31 -22t30 -22t32 -9.5q23 0 31 17t10 38h24q-2 -19 -7.5 -38t-18.5 -31.5t-39 -12.5z" />
    <glyph glyph-name="odieresis" unicode="&#xf6;" horiz-adv-x="446" 
d="M223 -10q-80 0 -125 67.5t-45 209.5q0 139 42.5 207t130.5 68q84 0 125.5 -68t41.5 -207q0 -144 -43 -210.5t-127 -66.5zM224 15q52 0 83 29.5t44.5 86t13.5 136.5q0 126 -32 188t-108 62q-78 0 -111 -62.5t-33 -187.5q0 -123 34.5 -187.5t108.5 -64.5zM291 661
q-11 0 -17 7.5t-6 29.5q0 23 6 31t17 8q12 0 17.5 -8t5.5 -31q0 -22 -5.5 -29.5t-17.5 -7.5zM150 661q-12 0 -17.5 7.5t-5.5 29.5q0 23 5.5 31t17.5 8q11 0 17 -8t6 -31q0 -22 -6 -29.5t-17 -7.5z" />
    <glyph glyph-name="divide" unicode="&#xf7;" horiz-adv-x="465" 
d="M54 344v28h357v-28h-357zM233 136q-14 0 -23 7.5t-9 29.5q0 24 9 32t24 8q13 0 22.5 -8t9.5 -32q0 -22 -9.5 -29.5t-23.5 -7.5zM233 505q-14 0 -23 8t-9 30q0 24 9 31.5t24 7.5q13 0 22.5 -7.5t9.5 -31.5q0 -22 -9.5 -30t-23.5 -8z" />
    <glyph glyph-name="oslash" unicode="&#xf8;" horiz-adv-x="446" 
d="M100 54q-23 34 -35 87t-12 126q0 139 42.5 207t130.5 68q67 0 107 -43l40 77h27l-51 -98q22 -34 33 -86.5t11 -124.5q0 -144 -43 -210.5t-127 -66.5q-32 0 -59 11t-47 32l-39 -73h-27zM224 14q52 0 83 30t44.5 86.5t13.5 136.5q0 61 -7 107t-23 77l-206 -394
q17 -21 40.5 -32t54.5 -11zM320 475q-17 21 -40.5 31.5t-55.5 10.5q-77 0 -110 -62.5t-33 -187.5q0 -61 7.5 -108t25.5 -79z" />
    <glyph glyph-name="ugrave" unicode="&#xf9;" horiz-adv-x="500" 
d="M235 -10q-67 0 -103 45.5t-36 148.5v259q0 34 -4 49.5t-19 19.5t-50 4h-10v20h111v-354q0 -53 11 -90.5t36 -57t65 -19.5q46 0 76.5 26.5t45 69.5t14.5 92v228q0 40 -3.5 58t-18.5 22.5t-50 4.5h-8v20h108v-437q0 -37 4 -54t19 -21t47 -4h11v-20h-105l-2 81h-4
q-19 -38 -51 -64.5t-84 -26.5zM263 606q-14 14 -30.5 33.5t-33 41.5t-30 42t-20.5 33v10h43q9 -22 22 -49t27.5 -53t26.5 -45v-13h-5z" />
    <glyph glyph-name="uacute" unicode="&#xfa;" horiz-adv-x="500" 
d="M235 -10q-67 0 -103 45.5t-36 148.5v259q0 34 -4 49.5t-19 19.5t-50 4h-10v20h111v-354q0 -53 11 -90.5t36 -57t65 -19.5q46 0 76.5 26.5t45 69.5t14.5 92v228q0 40 -3.5 58t-18.5 22.5t-50 4.5h-8v20h108v-437q0 -37 4 -54t19 -21t47 -4h11v-20h-105l-2 81h-4
q-19 -38 -51 -64.5t-84 -26.5zM207 619q15 27 29 52t26 49t20 46h44v-10q-8 -13 -21 -32t-29.5 -40t-33.5 -41t-31 -37h-4v13z" />
    <glyph glyph-name="ucircumflex" unicode="&#xfb;" horiz-adv-x="500" 
d="M235 -10q-67 0 -103 45.5t-36 148.5v259q0 34 -4 49.5t-19 19.5t-50 4h-10v20h111v-354q0 -53 11 -90.5t36 -57t65 -19.5q46 0 76.5 26.5t45 69.5t14.5 92v228q0 40 -3.5 58t-18.5 22.5t-50 4.5h-8v20h108v-437q0 -37 4 -54t19 -21t47 -4h11v-20h-105l-2 81h-4
q-19 -38 -51 -64.5t-84 -26.5zM148 619q13 19 27.5 45t27.5 53t20 49h39q9 -22 22 -49t27 -53t27 -45v-13h-6q-20 21 -35.5 39.5t-28 37t-24.5 42.5q-13 -24 -26 -42.5t-28.5 -37t-35.5 -39.5h-6v13z" />
    <glyph glyph-name="udieresis" unicode="&#xfc;" horiz-adv-x="500" 
d="M235 -10q-67 0 -103 45.5t-36 148.5v259q0 34 -4 49.5t-19 19.5t-50 4h-10v20h111v-354q0 -53 11 -90.5t36 -57t65 -19.5q46 0 76.5 26.5t45 69.5t14.5 92v228q0 40 -3.5 58t-18.5 22.5t-50 4.5h-8v20h108v-437q0 -37 4 -54t19 -21t47 -4h11v-20h-105l-2 81h-4
q-19 -38 -51 -64.5t-84 -26.5zM317 661q-11 0 -17 7.5t-6 29.5q0 23 6 31t17 8q12 0 17.5 -8t5.5 -31q0 -22 -5.5 -29.5t-17.5 -7.5zM176 661q-12 0 -17.5 7.5t-5.5 29.5q0 23 5.5 31t17.5 8q11 0 17 -8t6 -31q0 -22 -6 -29.5t-17 -7.5z" />
    <glyph glyph-name="yacute" unicode="&#xfd;" horiz-adv-x="456" 
d="M42 -215q47 0 75 10.5t46 34.5t33 65.5t35 102.5l-153 459q-9 28 -15.5 40.5t-17.5 15.5t-36 3h-1v20h152v-20h-9q-34 0 -43.5 -4.5t-9.5 -16.5q0 -9 6 -27t17 -50l65 -197q12 -38 23.5 -73t20.5 -64t14 -48q7 29 18.5 68t24.5 88l69 232q6 23 11 41.5t5 28.5
q0 11 -7.5 16.5t-41.5 5.5h-24v20h158v-20h-4q-21 0 -31.5 -4.5t-17 -20t-16.5 -48.5l-134 -459q-21 -71 -40 -115t-41.5 -67.5t-53.5 -32.5t-76 -9h-1v25zM211 619q15 27 29 52t26 49t20 46h44v-10q-8 -13 -21 -32t-29.5 -40t-33.5 -41t-31 -37h-4v13z" />
    <glyph glyph-name="thorn" unicode="&#xfe;" horiz-adv-x="482" 
d="M20 -240v20h13q30 0 44 4.5t18.5 20.5t4.5 52v807q0 36 -4 51.5t-18.5 20t-47.5 4.5h-14v20h112v-196v-41.5t-0.5 -42t-0.5 -42.5h3q17 47 49 77.5t88 30.5q82 0 122 -63t40 -204q0 -149 -43 -219t-116 -70q-56 0 -90.5 31t-51.5 84h-1v-20v-27t0.5 -33t0.5 -39v-129
q0 -36 4 -52t18 -20.5t45 -4.5h19v-20h-194zM270 15q68 0 99.5 70.5t31.5 192.5q0 123 -31.5 183t-102.5 60q-47 0 -78.5 -29.5t-46 -84.5t-14.5 -130q0 -79 13 -137.5t44.5 -91.5t84.5 -33z" />
    <glyph glyph-name="ydieresis" unicode="&#xff;" horiz-adv-x="456" 
d="M42 -215q47 0 75 10.5t46 34.5t33 65.5t35 102.5l-153 459q-9 28 -15.5 40.5t-17.5 15.5t-36 3h-1v20h152v-20h-9q-34 0 -43.5 -4.5t-9.5 -16.5q0 -9 6 -27t17 -50l65 -197q12 -38 23.5 -73t20.5 -64t14 -48q7 29 18.5 68t24.5 88l69 232q6 23 11 41.5t5 28.5
q0 11 -7.5 16.5t-41.5 5.5h-24v20h158v-20h-4q-21 0 -31.5 -4.5t-17 -20t-16.5 -48.5l-134 -459q-21 -71 -40 -115t-41.5 -67.5t-53.5 -32.5t-76 -9h-1v25zM303 661q-11 0 -17 7.5t-6 29.5q0 23 6 31t17 8q12 0 17.5 -8t5.5 -31q0 -22 -5.5 -29.5t-17.5 -7.5zM162 661
q-12 0 -17.5 7.5t-5.5 29.5q0 23 5.5 31t17.5 8q11 0 17 -8t6 -31q0 -22 -6 -29.5t-17 -7.5z" />
    <glyph glyph-name="Amacron" unicode="&#x100;" horiz-adv-x="543" 
d="M-3 0v20h17q19 0 29 5t17.5 20.5t16.5 47.5l186 621h19l195 -655q5 -17 10.5 -25.5t15 -11t28.5 -2.5h12v-20h-172v20h25q34 0 43 6.5t9 21.5q0 7 -3.5 20t-7.5 28t-8 26l-39 129h-236l-36 -117q-3 -12 -8.5 -29.5t-9.5 -33t-4 -24.5q0 -14 10.5 -20.5t43.5 -6.5h31v-20
h-184zM162 276h221l-64 221q-10 35 -19 65.5t-16 56t-12 42.5q-3 -16 -10.5 -41t-15.5 -53.5t-16 -55.5zM148 799v27h241v-27h-241z" />
    <glyph glyph-name="amacron" unicode="&#x101;" horiz-adv-x="435" 
d="M166 -10q-35 0 -62 17t-42.5 52t-15.5 87q0 78 47.5 115.5t145.5 41.5l70 3v65q0 50 -9.5 82t-32 48t-61.5 16q-37 0 -60 -13t-34 -40t-11 -69q-10 0 -15.5 11.5t-5.5 32.5q0 27 13.5 50.5t41.5 38t71 14.5q68 0 99.5 -40.5t31.5 -129.5v-267q0 -37 4 -55t15 -24t33 -6h3
v-20h-76l-6 95h-2q-11 -27 -29.5 -51t-45.5 -39t-67 -15zM169 15q41 0 72 24t49.5 63t18.5 83v98l-70 -3q-60 -2 -96.5 -18.5t-52.5 -46t-16 -69.5q0 -37 10 -67t31 -47t54 -17zM89 634v27h241v-27h-241z" />
    <glyph glyph-name="Abreve" unicode="&#x102;" horiz-adv-x="543" 
d="M-3 0v20h17q19 0 29 5t17.5 20.5t16.5 47.5l186 621h19l195 -655q5 -17 10.5 -25.5t15 -11t28.5 -2.5h12v-20h-172v20h25q34 0 43 6.5t9 21.5q0 7 -3.5 20t-7.5 28t-8 26l-39 129h-236l-36 -117q-3 -12 -8.5 -29.5t-9.5 -33t-4 -24.5q0 -14 10.5 -20.5t43.5 -6.5h31v-20
h-184zM162 276h221l-64 221q-10 35 -19 65.5t-16 56t-12 42.5q-3 -16 -10.5 -41t-15.5 -53.5t-16 -55.5zM267 771q-33 0 -54.5 13.5t-32.5 38.5t-12 60h19q8 -46 27 -64.5t53 -18.5q32 0 52 18.5t27 64.5h18q0 -34 -11 -59.5t-32 -39t-54 -13.5z" />
    <glyph glyph-name="abreve" unicode="&#x103;" horiz-adv-x="435" 
d="M166 -10q-35 0 -62 17t-42.5 52t-15.5 87q0 78 47.5 115.5t145.5 41.5l70 3v65q0 50 -9.5 82t-32 48t-61.5 16q-37 0 -60 -13t-34 -40t-11 -69q-10 0 -15.5 11.5t-5.5 32.5q0 27 13.5 50.5t41.5 38t71 14.5q68 0 99.5 -40.5t31.5 -129.5v-267q0 -37 4 -55t15 -24t33 -6h3
v-20h-76l-6 95h-2q-11 -27 -29.5 -51t-45.5 -39t-67 -15zM169 15q41 0 72 24t49.5 63t18.5 83v98l-70 -3q-60 -2 -96.5 -18.5t-52.5 -46t-16 -69.5q0 -37 10 -67t31 -47t54 -17zM220 606q-33 0 -54.5 13.5t-32.5 38.5t-12 60h19q8 -46 27 -64.5t53 -18.5q32 0 52 18.5
t27 64.5h18q0 -34 -11 -59.5t-32 -39t-54 -13.5z" />
    <glyph glyph-name="Aogonek" unicode="&#x104;" horiz-adv-x="543" 
d="M-3 0v20h17q19 0 29 5t17.5 20.5t16.5 47.5l186 621h19l195 -655q5 -17 10.5 -25.5t15 -11t28.5 -2.5h12v-20h-172v20h25q34 0 43 6.5t9 21.5q0 7 -3.5 20t-7.5 28t-8 26l-39 129h-236l-36 -117q-3 -12 -8.5 -29.5t-9.5 -33t-4 -24.5q0 -14 10.5 -20.5t43.5 -6.5h31v-20
h-184zM162 276h221l-64 221q-10 35 -19 65.5t-16 56t-12 42.5q-3 -16 -10.5 -41t-15.5 -53.5t-16 -55.5zM471 -226q-37 0 -61 24.5t-24 74.5q0 34 12 60t30.5 43t36.5 24h33q-19 -7 -38.5 -24t-33 -42t-13.5 -57q0 -43 17 -61t42 -18q15 0 26 3t26 11v-25q-9 -4 -17 -7
t-16.5 -4.5t-19.5 -1.5z" />
    <glyph glyph-name="aogonek" unicode="&#x105;" horiz-adv-x="435" 
d="M166 -10q-35 0 -62 17t-42.5 52t-15.5 87q0 78 47.5 115.5t145.5 41.5l70 3v65q0 50 -9.5 82t-32 48t-61.5 16q-37 0 -60 -13t-34 -40t-11 -69q-10 0 -15.5 11.5t-5.5 32.5q0 27 13.5 50.5t41.5 38t71 14.5q68 0 99.5 -40.5t31.5 -129.5v-267q0 -37 4 -55t15 -24t33 -6h3
v-20h-76l-6 95h-2q-11 -27 -29.5 -51t-45.5 -39t-67 -15zM169 15q41 0 72 24t49.5 63t18.5 83v98l-70 -3q-60 -2 -96.5 -18.5t-52.5 -46t-16 -69.5q0 -37 10 -67t31 -47t54 -17zM348 -226q-37 0 -61 24.5t-24 74.5q0 34 12 60t30.5 43t36.5 24h33q-19 -7 -38.5 -24t-33 -42
t-13.5 -57q0 -43 17 -61t42 -18q15 0 26 3t26 11v-25q-9 -4 -17 -7t-16.5 -4.5t-19.5 -1.5z" />
    <glyph glyph-name="Cacute" unicode="&#x106;" horiz-adv-x="464" 
d="M275 -10q-75 0 -125.5 45.5t-76 128t-25.5 194.5q0 114 26 196t77.5 126t125.5 44q53 0 88.5 -16t53.5 -41.5t18 -55.5q0 -21 -5.5 -32.5t-15.5 -11.5q0 41 -14 71t-44.5 45.5t-82.5 15.5q-67 0 -111.5 -44t-66 -120.5t-21.5 -176.5t21.5 -177.5t66 -121.5t111.5 -44
q41 0 69 12.5t46 34.5t29 50q7 -4 10 -10.5t3 -16.5q0 -12 -10.5 -28t-31 -31.5t-49.5 -25.5t-66 -10zM247 784q15 27 29 52t26 49t20 46h44v-10q-8 -13 -21 -32t-29.5 -40t-33.5 -41t-31 -37h-4v13z" />
    <glyph glyph-name="cacute" unicode="&#x107;" horiz-adv-x="377" 
d="M220 -10q-47 0 -85 26.5t-60 86.5t-22 160q0 107 21 168t58 86t87 25q40 0 67.5 -14.5t42 -38.5t14.5 -53q0 -10 -3.5 -17t-9 -10t-12.5 -3q0 34 -10 59t-32.5 38.5t-58.5 13.5q-40 0 -71 -22.5t-48 -77.5t-17 -153q0 -86 17.5 -141.5t48.5 -81.5t73 -26q33 0 56.5 14
t38.5 36.5t23 45.5q4 -4 6 -10.5t2 -16.5q0 -18 -14.5 -40t-42.5 -38t-69 -16zM188 619q15 27 29 52t26 49t20 46h44v-10q-8 -13 -21 -32t-29.5 -40t-33.5 -41t-31 -37h-4v13z" />
    <glyph glyph-name="Ccircumflex" unicode="&#x108;" horiz-adv-x="464" 
d="M275 -10q-75 0 -125.5 45.5t-76 128t-25.5 194.5q0 114 26 196t77.5 126t125.5 44q53 0 88.5 -16t53.5 -41.5t18 -55.5q0 -21 -5.5 -32.5t-15.5 -11.5q0 41 -14 71t-44.5 45.5t-82.5 15.5q-67 0 -111.5 -44t-66 -120.5t-21.5 -176.5t21.5 -177.5t66 -121.5t111.5 -44
q41 0 69 12.5t46 34.5t29 50q7 -4 10 -10.5t3 -16.5q0 -12 -10.5 -28t-31 -31.5t-49.5 -25.5t-66 -10zM184 784q13 19 27.5 45t27.5 53t20 49h39q9 -22 22 -49t27 -53t27 -45v-13h-6q-20 21 -35.5 39.5t-28 37t-24.5 42.5q-13 -24 -26 -42.5t-28.5 -37t-35.5 -39.5h-6v13z
" />
    <glyph glyph-name="ccircumflex" unicode="&#x109;" horiz-adv-x="377" 
d="M220 -10q-47 0 -85 26.5t-60 86.5t-22 160q0 107 21 168t58 86t87 25q40 0 67.5 -14.5t42 -38.5t14.5 -53q0 -10 -3.5 -17t-9 -10t-12.5 -3q0 34 -10 59t-32.5 38.5t-58.5 13.5q-40 0 -71 -22.5t-48 -77.5t-17 -153q0 -86 17.5 -141.5t48.5 -81.5t73 -26q33 0 56.5 14
t38.5 36.5t23 45.5q4 -4 6 -10.5t2 -16.5q0 -18 -14.5 -40t-42.5 -38t-69 -16zM121 619q13 19 27.5 45t27.5 53t20 49h39q9 -22 22 -49t27 -53t27 -45v-13h-6q-20 21 -35.5 39.5t-28 37t-24.5 42.5q-13 -24 -26 -42.5t-28.5 -37t-35.5 -39.5h-6v13z" />
    <glyph glyph-name="Cdotaccent" unicode="&#x10a;" horiz-adv-x="464" 
d="M275 -10q-75 0 -125.5 45.5t-76 128t-25.5 194.5q0 114 26 196t77.5 126t125.5 44q53 0 88.5 -16t53.5 -41.5t18 -55.5q0 -21 -5.5 -32.5t-15.5 -11.5q0 41 -14 71t-44.5 45.5t-82.5 15.5q-67 0 -111.5 -44t-66 -120.5t-21.5 -176.5t21.5 -177.5t66 -121.5t111.5 -44
q41 0 69 12.5t46 34.5t29 50q7 -4 10 -10.5t3 -16.5q0 -12 -10.5 -28t-31 -31.5t-49.5 -25.5t-66 -10zM278 823q-10 0 -16 8t-6 32q0 23 6 31.5t16 8.5q11 0 17 -8.5t6 -31.5q0 -24 -6 -32t-17 -8z" />
    <glyph glyph-name="cdotaccent" unicode="&#x10b;" horiz-adv-x="377" 
d="M220 -10q-47 0 -85 26.5t-60 86.5t-22 160q0 107 21 168t58 86t87 25q40 0 67.5 -14.5t42 -38.5t14.5 -53q0 -10 -3.5 -17t-9 -10t-12.5 -3q0 34 -10 59t-32.5 38.5t-58.5 13.5q-40 0 -71 -22.5t-48 -77.5t-17 -153q0 -86 17.5 -141.5t48.5 -81.5t73 -26q33 0 56.5 14
t38.5 36.5t23 45.5q4 -4 6 -10.5t2 -16.5q0 -18 -14.5 -40t-42.5 -38t-69 -16zM219 658q-10 0 -16 8t-6 32q0 23 6 31.5t16 8.5q11 0 17 -8.5t6 -31.5q0 -24 -6 -32t-17 -8z" />
    <glyph glyph-name="Ccaron" unicode="&#x10c;" horiz-adv-x="464" 
d="M275 -10q-75 0 -125.5 45.5t-76 128t-25.5 194.5q0 114 26 196t77.5 126t125.5 44q53 0 88.5 -16t53.5 -41.5t18 -55.5q0 -21 -5.5 -32.5t-15.5 -11.5q0 41 -14 71t-44.5 45.5t-82.5 15.5q-67 0 -111.5 -44t-66 -120.5t-21.5 -176.5t21.5 -177.5t66 -121.5t111.5 -44
q41 0 69 12.5t46 34.5t29 50q7 -4 10 -10.5t3 -16.5q0 -12 -10.5 -28t-31 -31.5t-49.5 -25.5t-66 -10zM259 774q-7 23 -20 49.5t-27.5 52.5t-27.5 45v13h6q20 -21 35.5 -39t28.5 -37t26 -43q12 24 24.5 43t28 37t35.5 39h6v-13q-13 -19 -27 -45t-27 -52.5t-22 -49.5h-39z
" />
    <glyph glyph-name="ccaron" unicode="&#x10d;" horiz-adv-x="377" 
d="M220 -10q-47 0 -85 26.5t-60 86.5t-22 160q0 107 21 168t58 86t87 25q40 0 67.5 -14.5t42 -38.5t14.5 -53q0 -10 -3.5 -17t-9 -10t-12.5 -3q0 34 -10 59t-32.5 38.5t-58.5 13.5q-40 0 -71 -22.5t-48 -77.5t-17 -153q0 -86 17.5 -141.5t48.5 -81.5t73 -26q33 0 56.5 14
t38.5 36.5t23 45.5q4 -4 6 -10.5t2 -16.5q0 -18 -14.5 -40t-42.5 -38t-69 -16zM201 606q-7 23 -20 49.5t-27.5 52.5t-27.5 45v13h6q20 -21 35.5 -39t28.5 -37t26 -43q12 24 24.5 43t28 37t35.5 39h6v-13q-13 -19 -27 -45t-27 -52.5t-22 -49.5h-39z" />
    <glyph glyph-name="Dcaron" unicode="&#x10e;" horiz-adv-x="568" 
d="M40 0v20h21q27 0 40 5.5t17 24.5t4 59v499q0 39 -4 57t-16.5 23.5t-39.5 5.5h-22v20h219q86 0 143.5 -44.5t87 -127.5t29.5 -199q0 -109 -27.5 -186t-84.5 -117t-148 -40h-219zM255 25q81 0 133 35t77.5 105.5t25.5 177.5q0 106 -25.5 183.5t-77.5 120t-132 42.5h-106
v-664h105zM235 771q-7 23 -20 49.5t-27.5 52.5t-27.5 45v13h6q20 -21 35.5 -39t28.5 -37t26 -43q12 24 24.5 43t28 37t35.5 39h6v-13q-13 -19 -27 -45t-27 -52.5t-22 -49.5h-39z" />
    <glyph glyph-name="dcaron" unicode="&#x10f;" horiz-adv-x="478" 
d="M444 612q4 25 7.5 50t6 50t2.5 48h40v-9q-5 -21 -13 -48.5t-16.5 -54.5t-18.5 -48h-8v12zM218 -10q-51 0 -88 28t-56.5 89t-19.5 160q0 100 20 161t56.5 88.5t87.5 27.5q54 0 87.5 -27.5t50.5 -72.5h4q-2 24 -3 49.5t-1 50.5v114q0 39 -4 56t-17.5 21.5t-41.5 4.5h-11v20
h102v-672q0 -31 4.5 -45.5t19 -18.5t44.5 -4h11v-20h-103l-4 100h-2q-18 -49 -50.5 -79.5t-85.5 -30.5zM217 15q70 0 105 65.5t35 184.5q0 124 -29.5 189t-106.5 65q-46 0 -76.5 -26t-46.5 -82t-16 -147q0 -129 36.5 -189.5t98.5 -59.5z" />
    <glyph glyph-name="Dcroat" unicode="&#x110;" horiz-adv-x="568" 
d="M40 0v20h22q26 0 39 5.5t17 24.5t4 59v252h-90v25h90v222q0 39 -4 57t-16.5 23.5t-37.5 5.5h-24v20h219q86 0 143.5 -44.5t87 -127.5t29.5 -199q0 -109 -27.5 -186t-84.5 -117t-148 -40h-219zM255 25q81 0 133 35t77.5 105.5t25.5 177.5q0 106 -25.5 183.5t-77.5 120
t-132 42.5h-106v-303h185v-25h-185v-336h105z" />
    <glyph glyph-name="dcroat" unicode="&#x111;" horiz-adv-x="478" 
d="M216 -10q-50 0 -86.5 27t-56 88t-19.5 160q0 100 20 160.5t56.5 88t87.5 27.5q54 0 87.5 -27t50.5 -73h4q0 13 -1 25.5l-2 25t-1 25v24.5v75h-156v25h156v17q0 39 -4 56t-17 21.5t-41 4.5h-12v20h102v-119h75v-25h-75v-527q0 -32 4.5 -46.5t18.5 -18.5t43 -4h13v-20h-103
l-4 103h-2q-18 -51 -51 -82t-87 -31zM217 15q46 0 77.5 30t47 85.5t15.5 132.5q0 124 -29.5 188.5t-106.5 64.5q-46 0 -76.5 -26t-46.5 -82t-16 -146q0 -129 36.5 -188.5t98.5 -58.5z" />
    <glyph glyph-name="Emacron" unicode="&#x112;" horiz-adv-x="490" 
d="M40 0v20h25q25 0 37 6t15.5 25t3.5 57v498q0 39 -3.5 57.5t-15.5 24.5t-37 6h-25v20h373l6 -164h-20l-3 56q-2 37 -6.5 54.5t-19 23t-46.5 5.5h-175v-302h206v-25h-206l-1 -337h206q30 0 44 5t18.5 20t5.5 44l4 70h20l-5 -164h-401zM135 799v27h241v-27h-241z" />
    <glyph glyph-name="emacron" unicode="&#x113;" horiz-adv-x="412" 
d="M223 -10q-78 0 -124 71t-46 201q0 141 42 210.5t120 69.5q73 0 112 -67t39 -184v-19h-285q0 -130 38.5 -193.5t104.5 -63.5q47 0 75.5 26t42.5 59q4 -2 6.5 -7t2.5 -14q0 -15 -15 -36t-43 -37t-70 -16zM338 296q-1 99 -30.5 160t-92.5 61q-66 0 -98 -59.5t-35 -161.5h256
zM90 634v27h241v-27h-241z" />
    <glyph glyph-name="Ebreve" unicode="&#x114;" horiz-adv-x="490" 
d="M40 0v20h25q25 0 37 6t15.5 25t3.5 57v498q0 39 -3.5 57.5t-15.5 24.5t-37 6h-25v20h373l6 -164h-20l-3 56q-2 37 -6.5 54.5t-19 23t-46.5 5.5h-175v-302h206v-25h-206l-1 -337h206q30 0 44 5t18.5 20t5.5 44l4 70h20l-5 -164h-401zM248 771q-33 0 -54.5 13.5t-32.5 38.5
t-12 60h19q8 -46 27 -64.5t53 -18.5q32 0 52 18.5t27 64.5h18q0 -34 -11 -59.5t-32 -39t-54 -13.5z" />
    <glyph glyph-name="ebreve" unicode="&#x115;" horiz-adv-x="412" 
d="M223 -10q-78 0 -124 71t-46 201q0 141 42 210.5t120 69.5q73 0 112 -67t39 -184v-19h-285q0 -130 38.5 -193.5t104.5 -63.5q47 0 75.5 26t42.5 59q4 -2 6.5 -7t2.5 -14q0 -15 -15 -36t-43 -37t-70 -16zM338 296q-1 99 -30.5 160t-92.5 61q-66 0 -98 -59.5t-35 -161.5h256
zM217 606q-33 0 -54.5 13.5t-32.5 38.5t-12 60h19q8 -46 27 -64.5t53 -18.5q32 0 52 18.5t27 64.5h18q0 -34 -11 -59.5t-32 -39t-54 -13.5z" />
    <glyph glyph-name="Edotaccent" unicode="&#x116;" horiz-adv-x="490" 
d="M40 0v20h25q25 0 37 6t15.5 25t3.5 57v498q0 39 -3.5 57.5t-15.5 24.5t-37 6h-25v20h373l6 -164h-20l-3 56q-2 37 -6.5 54.5t-19 23t-46.5 5.5h-175v-302h206v-25h-206l-1 -337h206q30 0 44 5t18.5 20t5.5 44l4 70h20l-5 -164h-401zM260 809q-10 0 -16 8t-6 32
q0 23 6 31.5t16 8.5q11 0 17 -8.5t6 -31.5q0 -24 -6 -32t-17 -8z" />
    <glyph glyph-name="edotaccent" unicode="&#x117;" horiz-adv-x="412" 
d="M223 -10q-78 0 -124 71t-46 201q0 141 42 210.5t120 69.5q73 0 112 -67t39 -184v-19h-285q0 -130 38.5 -193.5t104.5 -63.5q47 0 75.5 26t42.5 59q4 -2 6.5 -7t2.5 -14q0 -15 -15 -36t-43 -37t-70 -16zM338 296q-1 99 -30.5 160t-92.5 61q-66 0 -98 -59.5t-35 -161.5h256
zM210 658q-10 0 -16 8t-6 32q0 23 6 31.5t16 8.5q11 0 17 -8.5t6 -31.5q0 -24 -6 -32t-17 -8z" />
    <glyph glyph-name="Eogonek" unicode="&#x118;" horiz-adv-x="490" 
d="M40 0v20h25q25 0 37 6t15.5 25t3.5 57v498q0 39 -3.5 57.5t-15.5 24.5t-37 6h-25v20h373l6 -164h-20l-3 56q-2 37 -6.5 54.5t-19 23t-46.5 5.5h-175v-302h206v-25h-206l-1 -337h206q30 0 44 5t18.5 20t5.5 44l4 70h20l-5 -164h-401zM379 -226q-37 0 -61.5 24.5
t-24.5 74.5q0 34 12.5 60t31 43t35.5 24h34q-19 -7 -38.5 -24t-33 -42t-13.5 -57q0 -42 17 -60.5t42 -18.5q15 0 25.5 3t26.5 11v-25q-9 -4 -17 -7t-16.5 -4.5t-19.5 -1.5z" />
    <glyph glyph-name="eogonek" unicode="&#x119;" horiz-adv-x="412" 
d="M280 -223q-37 0 -61.5 24.5t-24.5 75.5q0 42 20 72.5t43 44.5q-8 -2 -16.5 -3t-17.5 -1q-78 0 -124 71t-46 201q0 141 42 210.5t120 69.5q73 0 112 -67t39 -184v-19h-285q0 -130 38.5 -193.5t104.5 -63.5q47 0 75.5 26t42.5 59q4 -2 6.5 -7t2.5 -14q0 -10 -6.5 -22.5
t-16.5 -23.5t-22 -18q-20 -14 -39.5 -32.5t-32 -43.5t-12.5 -59q0 -42 17 -60t42 -18q15 0 26 3t26 10v-24q-9 -4 -17 -7.5t-16.5 -5t-19.5 -1.5zM338 296q-1 99 -30.5 160t-92.5 61q-66 0 -98 -59.5t-35 -161.5h256z" />
    <glyph glyph-name="Ecaron" unicode="&#x11a;" horiz-adv-x="490" 
d="M40 0v20h25q25 0 37 6t15.5 25t3.5 57v498q0 39 -3.5 57.5t-15.5 24.5t-37 6h-25v20h373l6 -164h-20l-3 56q-2 37 -6.5 54.5t-19 23t-46.5 5.5h-175v-302h206v-25h-206l-1 -337h206q30 0 44 5t18.5 20t5.5 44l4 70h20l-5 -164h-401zM226 771q-7 23 -20 49.5t-27.5 52.5
t-27.5 45v13h6q20 -21 35.5 -39t28.5 -37t26 -43q12 24 24.5 43t28 37t35.5 39h6v-13q-13 -19 -27 -45t-27 -52.5t-22 -49.5h-39z" />
    <glyph glyph-name="ecaron" unicode="&#x11b;" horiz-adv-x="412" 
d="M223 -10q-78 0 -124 71t-46 201q0 141 42 210.5t120 69.5q73 0 112 -67t39 -184v-19h-285q0 -130 38.5 -193.5t104.5 -63.5q47 0 75.5 26t42.5 59q4 -2 6.5 -7t2.5 -14q0 -15 -15 -36t-43 -37t-70 -16zM338 296q-1 99 -30.5 160t-92.5 61q-66 0 -98 -59.5t-35 -161.5h256
zM195 606q-7 23 -20 49.5t-27.5 52.5t-27.5 45v13h6q20 -21 35.5 -39t28.5 -37t26 -43q12 24 24.5 43t28 37t35.5 39h6v-13q-13 -19 -27 -45t-27 -52.5t-22 -49.5h-39z" />
    <glyph glyph-name="Gcircumflex" unicode="&#x11c;" horiz-adv-x="543" 
d="M313 -10q-90 0 -148.5 43.5t-87.5 126t-29 198.5q0 122 33 203.5t93.5 122t144.5 40.5q56 0 90.5 -17.5t50.5 -43.5t16 -53q0 -24 -5.5 -34.5t-15.5 -10.5q0 39 -12.5 69.5t-42.5 47.5t-82 17q-77 0 -131 -39t-82.5 -115t-28.5 -187q0 -109 24.5 -185.5t77.5 -117
t138 -40.5q40 0 74.5 6t55.5 19v182q0 37 -4 53.5t-17 22t-39 5.5h-18v20h168v-20h-8q-23 0 -35 -5.5t-15.5 -22.5t-3.5 -53v-195q-35 -19 -72.5 -28t-88.5 -9zM213 784q13 19 27.5 45t27.5 53t20 49h39q9 -22 22 -49t27 -53t27 -45v-13h-6q-20 21 -35.5 39.5t-28 37
t-24.5 42.5q-13 -24 -26 -42.5t-28.5 -37t-35.5 -39.5h-6v13z" />
    <glyph glyph-name="gcircumflex" unicode="&#x11d;" horiz-adv-x="427" 
d="M201 -241q-84 0 -123.5 42.5t-39.5 113.5q0 43 15.5 73t37.5 48t43 26q-15 7 -26.5 23.5t-11.5 45.5q0 26 13.5 48t26.5 35q-30 18 -48 57.5t-18 89.5q0 92 36.5 136.5t102.5 44.5q29 0 52.5 -11t36.5 -26q9 12 19.5 24t23.5 20t28 8q21 0 31 -13.5t10 -31.5
q0 -17 -5 -26.5t-16 -9.5q0 28 -4 40.5t-18 12.5q-13 0 -25 -10.5t-29 -33.5q12 -19 19 -48t7 -74q0 -78 -33 -122.5t-97 -44.5q-11 0 -27.5 2t-24.5 5q-14 -14 -24.5 -31.5t-10.5 -45.5q0 -31 20.5 -43t54.5 -12h61q45 0 72.5 -17t40.5 -48t13 -72q0 -79 -47 -127t-136 -48
zM203 -216q54 0 87.5 18.5t49.5 52.5t16 78q0 57 -23.5 85t-83.5 28h-68q-33 0 -59 -16.5t-41 -46t-15 -68.5q0 -36 12 -65.5t42.5 -47.5t82.5 -18zM206 220q34 0 57.5 15.5t35.5 48t12 81.5q0 56 -12.5 89.5t-36 48t-58.5 14.5q-31 0 -55 -16t-37.5 -49.5t-13.5 -87.5
q0 -71 28 -107.5t80 -36.5zM120 619q13 19 27.5 45t27.5 53t20 49h39q9 -22 22 -49t27 -53t27 -45v-13h-6q-20 21 -35.5 39.5t-28 37t-24.5 42.5q-13 -24 -26 -42.5t-28.5 -37t-35.5 -39.5h-6v13z" />
    <glyph glyph-name="Gbreve" unicode="&#x11e;" horiz-adv-x="543" 
d="M313 -10q-90 0 -148.5 43.5t-87.5 126t-29 198.5q0 122 33 203.5t93.5 122t144.5 40.5q56 0 90.5 -17.5t50.5 -43.5t16 -53q0 -24 -5.5 -34.5t-15.5 -10.5q0 39 -12.5 69.5t-42.5 47.5t-82 17q-77 0 -131 -39t-82.5 -115t-28.5 -187q0 -109 24.5 -185.5t77.5 -117
t138 -40.5q40 0 74.5 6t55.5 19v182q0 37 -4 53.5t-17 22t-39 5.5h-18v20h168v-20h-8q-23 0 -35 -5.5t-15.5 -22.5t-3.5 -53v-195q-35 -19 -72.5 -28t-88.5 -9zM313 774q-33 0 -54.5 13.5t-32.5 38.5t-12 60h19q8 -46 27 -64.5t53 -18.5q32 0 52 18.5t27 64.5h18
q0 -34 -11 -59.5t-32 -39t-54 -13.5z" />
    <glyph glyph-name="gbreve" unicode="&#x11f;" horiz-adv-x="427" 
d="M201 -241q-84 0 -123.5 42.5t-39.5 113.5q0 43 15.5 73t37.5 48t43 26q-15 7 -26.5 23.5t-11.5 45.5q0 26 13.5 48t26.5 35q-30 18 -48 57.5t-18 89.5q0 92 36.5 136.5t102.5 44.5q29 0 52.5 -11t36.5 -26q9 12 19.5 24t23.5 20t28 8q21 0 31 -13.5t10 -31.5
q0 -17 -5 -26.5t-16 -9.5q0 28 -4 40.5t-18 12.5q-13 0 -25 -10.5t-29 -33.5q12 -19 19 -48t7 -74q0 -78 -33 -122.5t-97 -44.5q-11 0 -27.5 2t-24.5 5q-14 -14 -24.5 -31.5t-10.5 -45.5q0 -31 20.5 -43t54.5 -12h61q45 0 72.5 -17t40.5 -48t13 -72q0 -79 -47 -127t-136 -48
zM203 -216q54 0 87.5 18.5t49.5 52.5t16 78q0 57 -23.5 85t-83.5 28h-68q-33 0 -59 -16.5t-41 -46t-15 -68.5q0 -36 12 -65.5t42.5 -47.5t82.5 -18zM206 220q34 0 57.5 15.5t35.5 48t12 81.5q0 56 -12.5 89.5t-36 48t-58.5 14.5q-31 0 -55 -16t-37.5 -49.5t-13.5 -87.5
q0 -71 28 -107.5t80 -36.5zM214 606q-33 0 -54.5 13.5t-32.5 38.5t-12 60h19q8 -46 27 -64.5t53 -18.5q32 0 52 18.5t27 64.5h18q0 -34 -11 -59.5t-32 -39t-54 -13.5z" />
    <glyph glyph-name="Gdotaccent" unicode="&#x120;" horiz-adv-x="543" 
d="M313 -10q-90 0 -148.5 43.5t-87.5 126t-29 198.5q0 122 33 203.5t93.5 122t144.5 40.5q56 0 90.5 -17.5t50.5 -43.5t16 -53q0 -24 -5.5 -34.5t-15.5 -10.5q0 39 -12.5 69.5t-42.5 47.5t-82 17q-77 0 -131 -39t-82.5 -115t-28.5 -187q0 -109 24.5 -185.5t77.5 -117
t138 -40.5q40 0 74.5 6t55.5 19v182q0 37 -4 53.5t-17 22t-39 5.5h-18v20h168v-20h-8q-23 0 -35 -5.5t-15.5 -22.5t-3.5 -53v-195q-35 -19 -72.5 -28t-88.5 -9zM322 823q-10 0 -16 8t-6 32q0 23 6 31.5t16 8.5q11 0 17 -8.5t6 -31.5q0 -24 -6 -32t-17 -8z" />
    <glyph glyph-name="gdotaccent" unicode="&#x121;" horiz-adv-x="427" 
d="M201 -241q-84 0 -123.5 42.5t-39.5 113.5q0 43 15.5 73t37.5 48t43 26q-15 7 -26.5 23.5t-11.5 45.5q0 26 13.5 48t26.5 35q-30 18 -48 57.5t-18 89.5q0 92 36.5 136.5t102.5 44.5q29 0 52.5 -11t36.5 -26q9 12 19.5 24t23.5 20t28 8q21 0 31 -13.5t10 -31.5
q0 -17 -5 -26.5t-16 -9.5q0 28 -4 40.5t-18 12.5q-13 0 -25 -10.5t-29 -33.5q12 -19 19 -48t7 -74q0 -78 -33 -122.5t-97 -44.5q-11 0 -27.5 2t-24.5 5q-14 -14 -24.5 -31.5t-10.5 -45.5q0 -31 20.5 -43t54.5 -12h61q45 0 72.5 -17t40.5 -48t13 -72q0 -79 -47 -127t-136 -48
zM203 -216q54 0 87.5 18.5t49.5 52.5t16 78q0 57 -23.5 85t-83.5 28h-68q-33 0 -59 -16.5t-41 -46t-15 -68.5q0 -36 12 -65.5t42.5 -47.5t82.5 -18zM206 220q34 0 57.5 15.5t35.5 48t12 81.5q0 56 -12.5 89.5t-36 48t-58.5 14.5q-31 0 -55 -16t-37.5 -49.5t-13.5 -87.5
q0 -71 28 -107.5t80 -36.5zM213 658q-10 0 -16 8t-6 32q0 23 6 31.5t16 8.5q11 0 17 -8.5t6 -31.5q0 -24 -6 -32t-17 -8z" />
    <glyph glyph-name="uni0122" unicode="&#x122;" horiz-adv-x="543" 
d="M313 -10q-90 0 -148.5 43.5t-87.5 126t-29 198.5q0 122 33 203.5t93.5 122t144.5 40.5q56 0 90.5 -17.5t50.5 -43.5t16 -53q0 -24 -5.5 -34.5t-15.5 -10.5q0 39 -12.5 69.5t-42.5 47.5t-82 17q-77 0 -131 -39t-82.5 -115t-28.5 -187q0 -109 24.5 -185.5t77.5 -117
t138 -40.5q40 0 74.5 6t55.5 19v182q0 37 -4 53.5t-17 22t-39 5.5h-18v20h168v-20h-8q-23 0 -35 -5.5t-15.5 -22.5t-3.5 -53v-195q-35 -19 -72.5 -28t-88.5 -9zM275 -208q4 25 7.5 49t6.5 48.5t4 49.5h40v-10q-6 -21 -14 -48.5t-16.5 -54.5t-17.5 -47h-10v13z" />
    <glyph glyph-name="uni0123" unicode="&#x123;" horiz-adv-x="427" 
d="M194 616q7 21 15 48.5t16.5 54.5t15.5 47h13v-13q-3 -22 -7 -47t-6.5 -50t-4.5 -50h-42v10zM201 -241q-84 0 -123.5 42.5t-39.5 113.5q0 43 15.5 73t37.5 48t43 26q-15 7 -26.5 23.5t-11.5 45.5q0 26 13.5 48t26.5 35q-30 18 -48 57.5t-18 89.5q0 92 36.5 136.5
t102.5 44.5q29 0 52.5 -11t36.5 -26q9 12 19.5 24t23.5 20t28 8q21 0 31 -13.5t10 -31.5q0 -17 -5 -26.5t-16 -9.5q0 28 -4 40.5t-18 12.5q-13 0 -25 -10.5t-29 -33.5q12 -19 19 -48t7 -74q0 -78 -33 -122.5t-97 -44.5q-11 0 -27.5 2t-24.5 5q-14 -14 -24.5 -31.5
t-10.5 -45.5q0 -31 20.5 -43t54.5 -12h61q45 0 72.5 -17t40.5 -48t13 -72q0 -79 -47 -127t-136 -48zM203 -216q54 0 87.5 18.5t49.5 52.5t16 78q0 57 -23.5 85t-83.5 28h-68q-33 0 -59 -16.5t-41 -46t-15 -68.5q0 -36 12 -65.5t42.5 -47.5t82.5 -18zM206 220q34 0 57.5 15.5
t35.5 48t12 81.5q0 56 -12.5 89.5t-36 48t-58.5 14.5q-31 0 -55 -16t-37.5 -49.5t-13.5 -87.5q0 -71 28 -107.5t80 -36.5z" />
    <glyph glyph-name="Hcircumflex" unicode="&#x124;" horiz-adv-x="636" 
d="M41 0v20h25q25 0 37 6t15.5 25t3.5 57v498q0 39 -3.5 57.5t-15.5 24.5t-37 6h-25v20h196v-20h-31q-25 0 -37 -6t-15.5 -24.5t-3.5 -57.5v-220h336v220q0 39 -3.5 57.5t-15.5 24.5t-37 6h-31v20h197v-20h-26q-25 0 -37 -6t-15.5 -24.5t-3.5 -57.5v-498q0 -38 3.5 -57
t15.5 -25t37 -6h26v-20h-197v20h31q25 0 37 6t15.5 25t3.5 57v253h-336v-253q0 -38 3.5 -57t15.5 -25t37 -6h31v-20h-196zM221 784q13 19 27.5 45t27.5 53t20 49h39q9 -22 22 -49t27 -53t27 -45v-13h-6q-20 21 -35.5 39.5t-28 37t-24.5 42.5q-13 -24 -26 -42.5t-28.5 -37
t-35.5 -39.5h-6v13z" />
    <glyph glyph-name="hcircumflex" unicode="&#x125;" horiz-adv-x="498" 
d="M13 0v20h14q33 0 47.5 4.5t18.5 20t4 51.5v567q0 35 -4 51.5t-17 21t-39 4.5h-19v20h107v-269q0 -6 -0.5 -14t-1 -15.5t-1.5 -15.5h2q9 25 26 46.5t44.5 35.5t66.5 14q65 0 101.5 -44t36.5 -135v-269q0 -34 3.5 -49.5t17.5 -20t44 -4.5h11v-20h-104v363q0 76 -25.5 115
t-88.5 39q-41 0 -71 -19.5t-45.5 -60t-15.5 -103.5v-239q0 -35 4 -50.5t18.5 -20t46.5 -4.5h9v-20h-190zM159 811q13 19 27.5 45t27.5 53t20 49h39q9 -22 22 -49t27 -53t27 -45v-13h-6q-20 21 -35.5 39.5t-28 37t-24.5 42.5q-13 -24 -26 -42.5t-28.5 -37t-35.5 -39.5h-6v13z
" />
    <glyph glyph-name="Hbar" unicode="&#x126;" horiz-adv-x="636" 
d="M41 0v20h26q24 0 36 6t15.5 25t3.5 57v405h-71v25h71v68q0 39 -3.5 57.5t-15.5 24.5t-38 6h-24v20h196v-20h-32q-24 0 -36 -6t-15.5 -24.5t-3.5 -57.5v-68h336v68q0 39 -3.5 57.5t-15.5 24.5t-37 6h-31v20h197v-20h-26q-25 0 -37 -6t-15.5 -24.5t-3.5 -57.5v-68h72v-25
h-72v-405q0 -38 3.5 -57t15.5 -25t37 -6h26v-20h-197v20h31q25 0 37 6t15.5 25t3.5 57v253h-336v-253q0 -38 3.5 -57t15 -25t36.5 -6h32v-20h-196zM150 386h336v127h-336v-127z" />
    <glyph glyph-name="hbar" unicode="&#x127;" horiz-adv-x="498" 
d="M13 0v20h14q33 0 47.5 4.5t18.5 20t4 50.5v521h-79v25h79v22q0 35 -4.5 51.5t-17 21t-39.5 4.5h-20v20h109v-119h154v-25h-154v-127q0 -7 -0.5 -14.5l-1 -15t-1.5 -15.5h2q9 24 26 46t44.5 36t66.5 14q65 0 101.5 -44t36.5 -135v-267q0 -34 3.5 -49.5t17.5 -20t44 -4.5
h11v-20h-104v360q0 77 -25.5 116t-88.5 39q-41 0 -71 -19.5t-45.5 -60.5t-15.5 -104v-236q0 -35 4 -50.5t18.5 -20t45.5 -4.5h10v-20h-190z" />
    <glyph glyph-name="Itilde" unicode="&#x128;" horiz-adv-x="275" 
d="M40 0v20h27q25 0 37 6t15.5 25t3.5 57v498q0 39 -3.5 57.5t-15.5 24.5t-37 6h-27v20h193v-20h-26q-25 0 -37 -6t-15.5 -24.5t-3.5 -57.5v-498q0 -38 3.5 -57t15.5 -25t37 -6h26v-20h-193zM203 775q-20 0 -37.5 9.5t-32.5 21.5t-29.5 22t-30.5 10q-23 0 -31 -17.5
t-10 -39.5h-24q2 19 7.5 38t19 32.5t38.5 13.5q21 0 37 -9.5t31 -22t30 -22t32 -9.5q23 0 31 17t10 38h24q-2 -19 -7.5 -38t-18.5 -31.5t-39 -12.5z" />
    <glyph glyph-name="itilde" unicode="&#x129;" horiz-adv-x="237" 
d="M25 0v20h20q32 0 47 4.5t19 20t4 50.5v343q0 36 -4 52.5t-17 21t-43 4.5h-9v20h101v-441q0 -35 4 -50.5t19 -20t47 -4.5h17v-20h-205zM177 610q-20 0 -37.5 9.5t-32.5 21.5t-29.5 22t-30.5 10q-23 0 -31 -17.5t-10 -39.5h-24q2 19 7.5 38t19 32.5t38.5 13.5q21 0 37 -9.5
t31 -22t30 -22t32 -9.5q23 0 31 17t10 38h24q-2 -19 -7.5 -38t-18.5 -31.5t-39 -12.5z" />
    <glyph glyph-name="Imacron" unicode="&#x12a;" horiz-adv-x="275" 
d="M40 0v20h27q25 0 37 6t15.5 25t3.5 57v498q0 39 -3.5 57.5t-15.5 24.5t-37 6h-27v20h193v-20h-26q-25 0 -37 -6t-15.5 -24.5t-3.5 -57.5v-498q0 -38 3.5 -57t15.5 -25t37 -6h26v-20h-193zM16 799v27h241v-27h-241z" />
    <glyph glyph-name="imacron" unicode="&#x12b;" horiz-adv-x="237" 
d="M25 0v20h20q32 0 47 4.5t19 20t4 50.5v343q0 36 -4 52.5t-17 21t-43 4.5h-9v20h101v-441q0 -35 4 -50.5t19 -20t47 -4.5h17v-20h-205zM-12 634v27h241v-27h-241z" />
    <glyph glyph-name="Ibreve" unicode="&#x12c;" horiz-adv-x="275" 
d="M40 0v20h27q25 0 37 6t15.5 25t3.5 57v498q0 39 -3.5 57.5t-15.5 24.5t-37 6h-27v20h193v-20h-26q-25 0 -37 -6t-15.5 -24.5t-3.5 -57.5v-498q0 -38 3.5 -57t15.5 -25t37 -6h26v-20h-193zM138 771q-33 0 -54.5 13.5t-32.5 38.5t-12 60h19q8 -46 27 -64.5t53 -18.5
q32 0 52 18.5t27 64.5h18q0 -34 -11 -59.5t-32 -39t-54 -13.5z" />
    <glyph glyph-name="ibreve" unicode="&#x12d;" horiz-adv-x="237" 
d="M25 0v20h20q32 0 47 4.5t19 20t4 50.5v343q0 36 -4 52.5t-17 21t-43 4.5h-9v20h101v-441q0 -35 4 -50.5t19 -20t47 -4.5h17v-20h-205zM112 606q-33 0 -54.5 13.5t-32.5 38.5t-12 60h19q8 -46 27 -64.5t53 -18.5q32 0 52 18.5t27 64.5h18q0 -34 -11 -59.5t-32 -39
t-54 -13.5z" />
    <glyph glyph-name="Iogonek" unicode="&#x12e;" horiz-adv-x="275" 
d="M40 0v20h27q25 0 37 6t15.5 25t3.5 57v498q0 39 -3.5 57.5t-15.5 24.5t-37 6h-27v20h193v-20h-26q-25 0 -37 -6t-15.5 -24.5t-3.5 -57.5v-498q0 -38 3.5 -57t15.5 -25t37 -6h26v-20h-193zM150 -226q-37 0 -61.5 24.5t-24.5 74.5q0 34 12.5 60t31 43t35.5 24h34
q-19 -7 -38.5 -24t-33 -42t-13.5 -57q0 -42 17 -60.5t42 -18.5q15 0 25.5 3t26.5 11v-25q-9 -4 -17 -7t-16.5 -4.5t-19.5 -1.5z" />
    <glyph glyph-name="iogonek" unicode="&#x12f;" horiz-adv-x="237" 
d="M25 0v20h20q33 0 47.5 4.5t18.5 20t4 50.5v342q0 37 -3.5 53.5t-17 21t-43.5 4.5h-9v20h101v-441q0 -35 4 -50.5t18.5 -20t46.5 -4.5h18v-20h-205zM124 658q-10 0 -16 8t-6 32q0 23 6 31.5t16 8.5t16.5 -8.5t6.5 -31.5q0 -24 -6.5 -32t-16.5 -8zM133 -226
q-37 0 -61.5 24.5t-24.5 74.5q0 34 12.5 60t31 43t35.5 24h34q-19 -7 -38.5 -24t-33 -42t-13.5 -57q0 -42 17 -60.5t42 -18.5q15 0 25.5 3t26.5 11v-25q-9 -4 -17 -7t-16.5 -4.5t-19.5 -1.5z" />
    <glyph glyph-name="Idotaccent" unicode="&#x130;" horiz-adv-x="275" 
d="M40 0v20h27q25 0 37 6t15.5 25t3.5 57v498q0 39 -3.5 57.5t-15.5 24.5t-37 6h-27v20h193v-20h-26q-25 0 -37 -6t-15.5 -24.5t-3.5 -57.5v-498q0 -38 3.5 -57t15.5 -25t37 -6h26v-20h-193zM136 823q-10 0 -16 8t-6 32q0 23 6 31.5t16 8.5q11 0 17 -8.5t6 -31.5
q0 -24 -6 -32t-17 -8z" />
    <glyph glyph-name="dotlessi" unicode="&#x131;" horiz-adv-x="237" 
d="M25 0v20h20q32 0 47 4.5t19 20t4 50.5v343q0 36 -4 52.5t-17 21t-43 4.5h-9v20h101v-441q0 -35 4 -50.5t19 -20t47 -4.5h17v-20h-205z" />
    <glyph glyph-name="IJ" unicode="&#x132;" horiz-adv-x="557" 
d="M40 0v20h27q25 0 37 6t15.5 25t3.5 57v498q0 39 -3.5 57.5t-15.5 24.5t-37 6h-27v20h193v-20h-26q-25 0 -37 -6t-15.5 -24.5t-3.5 -57.5v-498q0 -38 3.5 -57t15.5 -25t37 -6h26v-20h-193zM287 -240v25h3q45 0 71.5 19t37.5 63t11 117v622q0 39 -3.5 57.5t-15.5 24.5
t-37 6h-27v20h193v-20h-26q-25 0 -37 -6t-15.5 -24.5t-3.5 -57.5v-621q0 -64 -9.5 -107t-27.5 -69t-45.5 -37.5t-66.5 -11.5h-2z" />
    <glyph glyph-name="ij" unicode="&#x133;" horiz-adv-x="470" 
d="M25 0v20h20q33 0 47.5 4.5t18.5 20t4 50.5v342q0 37 -3.5 53.5t-17 21t-43.5 4.5h-9v20h101v-441q0 -35 4 -50.5t18.5 -20t46.5 -4.5h18v-20h-205zM124 658q-10 0 -16 8t-6 32q0 23 6 31.5t16 8.5t16.5 -8.5t6.5 -31.5q0 -24 -6.5 -32t-16.5 -8zM253 -240v25h7
q29 0 50 18t32 61.5t11 119.5v455q0 35 -3.5 51t-16.5 21t-39 5h-14v20h101v-551q0 -90 -15.5 -139t-42 -67.5t-59.5 -18.5h-11zM362 658q-10 0 -16.5 8t-6.5 32q0 23 6.5 31.5t16.5 8.5t16.5 -8.5t6.5 -31.5q0 -24 -6.5 -32t-16.5 -8z" />
    <glyph glyph-name="Jcircumflex" unicode="&#x134;" horiz-adv-x="283" 
d="M12 -240v25h3q45 0 71.5 19t37.5 63t11 117v622q0 39 -3.5 57.5t-15.5 24.5t-37 6h-27v20h193v-20h-26q-25 0 -37 -6t-15.5 -24.5t-3.5 -57.5v-621q0 -64 -9.5 -107t-27.5 -69t-45.5 -37.5t-66.5 -11.5h-2zM53 784q13 19 27.5 45t27.5 53t20 49h39q9 -22 22 -49t27 -53
t27 -45v-13h-6q-20 21 -35.5 39.5t-28 37t-24.5 42.5q-13 -24 -26 -42.5t-28.5 -37t-35.5 -39.5h-6v13z" />
    <glyph glyph-name="jcircumflex" unicode="&#x135;" horiz-adv-x="234" 
d="M16 -240v25h7q29 0 50 18t32 61.5t11 119.5v456q0 34 -4 50t-16 21t-37 5h-16v20h101v-551q0 -90 -15.5 -139t-42 -67.5t-59.5 -18.5h-11zM5 619q13 19 27.5 45t27.5 53t20 49h39q9 -22 22 -49t27 -53t27 -45v-13h-6q-20 21 -35.5 39.5t-28 37t-24.5 42.5
q-13 -24 -26 -42.5t-28.5 -37t-35.5 -39.5h-6v13z" />
    <glyph glyph-name="uni0136" unicode="&#x136;" horiz-adv-x="549" 
d="M40 0v20h26q25 0 37 6t15.5 25t3.5 57v499q0 38 -3.5 56.5t-15.5 24.5t-37 6h-26v20h196v-20h-30q-25 0 -37 -6t-15.5 -24.5t-3.5 -56.5v-335l229 317q22 31 34 48t17 27t5 16q0 9 -11.5 11.5t-39.5 2.5v20h138v-20q-23 0 -36.5 -8.5t-28.5 -30t-44 -62.5l-135 -186
l199 -301q23 -34 37 -52.5t26 -25.5t26 -7h4v-21h-6q-16 0 -28.5 3.5t-24.5 13t-26.5 28t-34.5 48.5l-190 290l-110 -153v-119q0 -40 3.5 -59.5t15.5 -25.5t37 -6h31v-20h-197zM277 -208q4 25 7.5 49t6.5 48.5t4 49.5h40v-10q-6 -21 -14 -48.5t-16.5 -54.5t-17.5 -47h-10v13
z" />
    <glyph glyph-name="uni0137" unicode="&#x137;" horiz-adv-x="440" 
d="M16 0v20h11q33 0 47.5 4.5t18.5 20t4 51.5v567q0 36 -4 52t-18 20.5t-45 4.5h-14v20h109v-387v-34v-40t-1 -41t-2 -38l114 145q37 46 56 72t25.5 39t6.5 20q0 13 -12 16.5t-44 3.5v20h145v-20q-15 0 -25.5 -3.5t-20 -14.5t-24.5 -31.5t-40 -53.5l-74 -92l109 -206
q27 -55 47.5 -75t51.5 -20h6v-20h-9q-21 0 -36 3t-27.5 13.5t-26 31t-32.5 56.5l-101 192l-86 -110v-91q0 -35 4 -50.5t18 -20t44 -4.5h6v-20h-181zM203 -208q4 25 7.5 49t6.5 48.5t4 49.5h40v-10q-6 -21 -14 -48.5t-16.5 -54.5t-17.5 -47h-10v13z" />
    <glyph glyph-name="kgreenlandic" unicode="&#x138;" horiz-adv-x="440" 
d="M16 0v20h11q33 0 47.5 4.5t18.5 20.5t4 51v344q0 36 -4 51.5t-18 20t-44 4.5h-15v20h109v-163v-34.5v-40t-1 -40.5t-2 -38l107 138q35 44 56 71.5t30.5 43t9.5 24.5q0 12 -11 15.5t-46 3.5v20h145v-20q-20 0 -32.5 -8t-29.5 -30t-50 -67l-72 -90l109 -206q27 -55 47 -75
t52 -20h6v-20h-9q-21 0 -36 3t-27.5 13.5t-26 31t-32.5 56.5l-101 192l-86 -110v-91q0 -35 4 -50.5t17.5 -20t43.5 -4.5h7v-20h-181z" />
    <glyph glyph-name="Lacute" unicode="&#x139;" horiz-adv-x="488" 
d="M40 0v20h26q25 0 37 6t15.5 25t3.5 57v498q0 39 -3.5 57.5t-15.5 24.5t-37 6h-26v20h193v-20h-27q-25 0 -37 -6t-15.5 -24.5t-3.5 -57.5v-581h213q26 0 38.5 6t16.5 21t5 42l3 111h20l-5 -205h-401zM96 784q15 27 29 52t26 49t20 46h44v-10q-8 -13 -21 -32t-29.5 -40
t-33.5 -41t-31 -37h-4v13z" />
    <glyph glyph-name="lacute" unicode="&#x13a;" horiz-adv-x="219" 
d="M7 0v20h11q37 0 53 4t20 19.5t4 50.5v568q0 37 -4 53.5t-18.5 20.5t-44.5 4h-21v20h116v-666q0 -35 4 -50.5t20.5 -19.5t52.5 -4h12v-20h-205zM65 812q15 27 29 52t26 49t20 46h44v-10q-8 -13 -21 -32t-29.5 -40t-33.5 -41t-31 -37h-4v13z" />
    <glyph glyph-name="uni013B" unicode="&#x13b;" horiz-adv-x="488" 
d="M40 0v20h26q25 0 37 6t15.5 25t3.5 57v498q0 39 -3.5 57.5t-15.5 24.5t-37 6h-26v20h193v-20h-27q-25 0 -37 -6t-15.5 -24.5t-3.5 -57.5v-581h213q26 0 38.5 6t16.5 21t5 42l3 111h20l-5 -205h-401zM226 -208q4 25 7.5 49t6.5 48.5t4 49.5h40v-10q-6 -21 -14 -48.5
t-16.5 -54.5t-17.5 -47h-10v13z" />
    <glyph glyph-name="uni013C" unicode="&#x13c;" horiz-adv-x="219" 
d="M7 0v20h11q37 0 53 4t20 19.5t4 50.5v568q0 37 -4 53.5t-18.5 20.5t-44.5 4h-21v20h116v-666q0 -35 4 -50.5t20.5 -19.5t52.5 -4h12v-20h-205zM70 -208q4 25 7.5 49t6.5 48.5t4 49.5h40v-10q-6 -21 -14 -48.5t-16.5 -54.5t-17.5 -47h-10v13z" />
    <glyph glyph-name="Lcaron" unicode="&#x13d;" horiz-adv-x="488" 
d="M324 566q4 25 7.5 50t6.5 50t3 48h40v-9q-5 -21 -13 -48.5t-16.5 -54.5t-18.5 -48h-9v12zM40 0v20h26q25 0 37 6t15.5 25t3.5 57v498q0 39 -3.5 57.5t-15.5 24.5t-37 6h-26v20h193v-20h-27q-25 0 -37 -6t-15.5 -24.5t-3.5 -57.5v-581h213q26 0 38.5 6t16.5 21t5 42l3 111
h20l-5 -205h-401z" />
    <glyph glyph-name="lcaron" unicode="&#x13e;" horiz-adv-x="219" 
d="M182 612q4 25 7.5 50t6.5 50t3 48h40v-9q-5 -21 -13 -48.5t-16.5 -54.5t-18.5 -48h-9v12zM7 0v20h11q37 0 53 4t20 19.5t4 50.5v568q0 37 -4 53.5t-18.5 20.5t-44.5 4h-21v20h116v-666q0 -35 4 -50.5t20.5 -19.5t52.5 -4h12v-20h-205z" />
    <glyph glyph-name="Ldot" unicode="&#x13f;" horiz-adv-x="488" 
d="M40 0v20h26q25 0 37 6t15.5 25t3.5 57v498q0 39 -3.5 57.5t-15.5 24.5t-37 6h-26v20h193v-20h-27q-25 0 -37 -6t-15.5 -24.5t-3.5 -57.5v-581h213q26 0 38.5 6t16.5 21t5 42l3 111h20l-5 -205h-401zM375 358q-10 0 -16 8t-6 32q0 23 6 31.5t16 8.5q11 0 17 -8.5t6 -31.5
q0 -24 -6 -32t-17 -8z" />
    <glyph glyph-name="ldot" unicode="&#x140;" horiz-adv-x="213" 
d="M7 0v20h11q37 0 53 4t20 19.5t4 50.5v568q0 37 -4 53.5t-18.5 20.5t-44.5 4h-21v20h116v-666q0 -35 4 -50.5t20.5 -19.5t52.5 -4h12v-20h-205zM244 288q-10 0 -16 8t-6 32q0 23 6 31.5t16 8.5q11 0 17 -8.5t6 -31.5q0 -24 -6 -32t-17 -8z" />
    <glyph glyph-name="Lslash" unicode="&#x141;" horiz-adv-x="488" 
d="M40 0v20h26q25 0 37 6t15.5 25t3.5 57v193l-90 -61v30l90 62v274q0 39 -3.5 57.5t-15.5 24.5t-37 6h-26v20h193v-20h-28q-25 0 -37 -6t-15.5 -24.5t-3.5 -57.5v-255l145 100v-32l-145 -98v-296h201q32 0 47 6t20 21t6 43l3 110h20l-5 -205h-401z" />
    <glyph glyph-name="lslash" unicode="&#x142;" horiz-adv-x="234" 
d="M23 0v20h10q36 0 52 4.5t21 20t5 50.5v216l-78 -51v29l78 51v323q0 35 -5 51.5t-20.5 21t-45.5 4.5h-17v20h116v-400l89 59v-31l-89 -59v-234q0 -35 5 -50.5t22 -20t52 -4.5h10v-20h-205z" />
    <glyph glyph-name="Nacute" unicode="&#x143;" horiz-adv-x="611" 
d="M40 0v20h26q25 0 37 6t15.5 25t3.5 57v498q0 39 -3.5 57.5t-15.5 24.5t-37 6h-26v20h103l329 -651v543q0 39 -3.5 57.5t-15.5 24.5t-37 6h-31v20h193v-20h-25q-25 0 -37 -6t-15.5 -24.5t-3.5 -57.5v-606h-25l-325 643v-535q0 -38 3.5 -57t15.5 -25t37 -6h32v-20h-195z
M282 784q15 27 29 52t26 49t20 46h44v-10q-8 -13 -21 -32t-29.5 -40t-33.5 -41t-31 -37h-4v13z" />
    <glyph glyph-name="nacute" unicode="&#x144;" horiz-adv-x="516" 
d="M31 0v20h12q33 0 48 4.5t18.5 20.5t3.5 51v345q0 35 -4 51t-18 20t-45 4h-11v20h102l4 -80h2q22 42 53 64t80 22q74 0 107 -44t33 -137v-266q0 -35 4 -50.5t18.5 -20t45.5 -4.5h7v-20h-103v364q0 69 -25 111t-85 42q-44 0 -74.5 -20.5t-46.5 -61.5t-16 -102v-238
q0 -35 4 -50.5t19 -20t47 -4.5h9v-20h-189zM226 619q15 27 29 52t26 49t20 46h44v-10q-8 -13 -21 -32t-29.5 -40t-33.5 -41t-31 -37h-4v13z" />
    <glyph glyph-name="uni0145" unicode="&#x145;" horiz-adv-x="611" 
d="M40 0v20h26q25 0 37 6t15.5 25t3.5 57v498q0 39 -3.5 57.5t-15.5 24.5t-37 6h-26v20h103l329 -651v543q0 39 -3.5 57.5t-15.5 24.5t-37 6h-31v20h193v-20h-25q-25 0 -37 -6t-15.5 -24.5t-3.5 -57.5v-606h-25l-325 643v-535q0 -38 3.5 -57t15.5 -25t37 -6h32v-20h-195z
M284 -208q4 25 7.5 49t6.5 48.5t4 49.5h40v-10q-6 -21 -14 -48.5t-16.5 -54.5t-17.5 -47h-10v13z" />
    <glyph glyph-name="uni0146" unicode="&#x146;" horiz-adv-x="516" 
d="M31 0v20h12q33 0 48 4.5t18.5 20.5t3.5 51v345q0 35 -4 51t-18 20t-45 4h-11v20h102l4 -80h2q22 42 53 64t80 22q74 0 107 -44t33 -137v-266q0 -35 4 -50.5t18.5 -20t45.5 -4.5h7v-20h-103v364q0 69 -25 111t-85 42q-44 0 -74.5 -20.5t-46.5 -61.5t-16 -102v-238
q0 -35 4 -50.5t19 -20t47 -4.5h9v-20h-189zM234 -208q4 25 7.5 49t6.5 48.5t4 49.5h40v-10q-6 -21 -14 -48.5t-16.5 -54.5t-17.5 -47h-10v13z" />
    <glyph glyph-name="Ncaron" unicode="&#x147;" horiz-adv-x="611" 
d="M40 0v20h26q25 0 37 6t15.5 25t3.5 57v498q0 39 -3.5 57.5t-15.5 24.5t-37 6h-26v20h103l329 -651v543q0 39 -3.5 57.5t-15.5 24.5t-37 6h-31v20h193v-20h-25q-25 0 -37 -6t-15.5 -24.5t-3.5 -57.5v-606h-25l-325 643v-535q0 -38 3.5 -57t15.5 -25t37 -6h32v-20h-195z
M289 771q-7 23 -20 49.5t-27.5 52.5t-27.5 45v13h6q20 -21 35.5 -39t28.5 -37t26 -43q12 24 24.5 43t28 37t35.5 39h6v-13q-13 -19 -27 -45t-27 -52.5t-22 -49.5h-39z" />
    <glyph glyph-name="ncaron" unicode="&#x148;" horiz-adv-x="516" 
d="M31 0v20h12q33 0 48 4.5t18.5 20.5t3.5 51v345q0 35 -4 51t-18 20t-45 4h-11v20h102l4 -80h2q22 42 53 64t80 22q74 0 107 -44t33 -137v-266q0 -35 4 -50.5t18.5 -20t45.5 -4.5h7v-20h-103v364q0 69 -25 111t-85 42q-44 0 -74.5 -20.5t-46.5 -61.5t-16 -102v-238
q0 -35 4 -50.5t19 -20t47 -4.5h9v-20h-189zM249 606q-7 23 -20 49.5t-27.5 52.5t-27.5 45v13h6q20 -21 35.5 -39t28.5 -37t26 -43q12 24 24.5 43t28 37t35.5 39h6v-13q-13 -19 -27 -45t-27 -52.5t-22 -49.5h-39z" />
    <glyph glyph-name="napostrophe" unicode="&#x149;" horiz-adv-x="622" 
d="M136 0v20h12q33 0 48 4.5t18.5 20.5t3.5 51v345q0 35 -4 51t-18 20t-45 4h-11v20h102l4 -80h2q22 42 53 64t80 22q74 0 107 -44t33 -137v-266q0 -35 4 -50.5t18.5 -20t45.5 -4.5h7v-20h-103v364q0 69 -25 111t-85 42q-44 0 -74.5 -20.5t-46.5 -61.5t-16 -102v-238
q0 -35 4 -50.5t19 -20t47 -4.5h9v-20h-189zM3 492q30 13 47 31t24 37.5t7 36.5q0 19 -7.5 30t-17 18.5t-17 16.5t-7.5 23q0 12 8.5 20.5t23.5 8.5q22 0 35.5 -23t13.5 -61q0 -55 -23.5 -96t-86.5 -67v25z" />
    <glyph glyph-name="Eng" unicode="&#x14a;" horiz-adv-x="611" 
d="M370 -240v25h6q30 0 51.5 17.5t33 62.5t11.5 126v9l-325 643v-535q0 -38 3.5 -57t15 -25t33.5 -6h36v-20h-195v20h26q25 0 37 6t15.5 25t3.5 57v498q0 39 -3.5 57.5t-15.5 24.5t-36 6h-27v20h103l329 -651v543q0 39 -3.5 57.5t-15 24.5t-36.5 6h-32v20h193v-20h-24
q-25 0 -37.5 -6t-16 -24.5t-3.5 -57.5v-617q0 -87 -13 -137t-40 -71t-67 -21h-7z" />
    <glyph glyph-name="eng" unicode="&#x14b;" horiz-adv-x="501" 
d="M295 -240v25h7q28 0 47 18t29 61.5t10 118.5v381q0 70 -25 111.5t-85 41.5q-44 0 -74.5 -20.5t-46.5 -61.5t-16 -102v-238q0 -35 4 -50.5t19 -20t46 -4.5h10v-20h-189v20h13q32 0 47 4.5t18.5 20.5t3.5 51v345q0 35 -4 51t-18 20t-44 4h-12v20h102l3 -80h3q22 41 52 63.5
t81 22.5q73 0 106.5 -44t33.5 -137v-378q0 -91 -14 -139.5t-39 -66t-57 -17.5h-11z" />
    <glyph glyph-name="Omacron" unicode="&#x14c;" horiz-adv-x="577" 
d="M288 -10q-81 0 -134 45.5t-79.5 128t-26.5 195.5q0 118 27 199.5t81 124t132 42.5q84 0 136.5 -40.5t78 -122t25.5 -204.5q0 -115 -27 -197.5t-80.5 -126.5t-132.5 -44zM288 15q72 0 119 41.5t70 118.5t23 183q0 108 -20.5 184.5t-67 117t-123.5 40.5q-109 0 -161 -90
t-52 -252q0 -104 23.5 -181t71 -119.5t117.5 -42.5zM166 799v27h241v-27h-241z" />
    <glyph glyph-name="omacron" unicode="&#x14d;" horiz-adv-x="446" 
d="M223 -10q-80 0 -125 67.5t-45 209.5q0 139 42.5 207t130.5 68q84 0 125.5 -68t41.5 -207q0 -144 -43 -210.5t-127 -66.5zM224 15q52 0 83 29.5t44.5 86t13.5 136.5q0 126 -32 188t-108 62q-78 0 -111 -62.5t-33 -187.5q0 -123 34.5 -187.5t108.5 -64.5zM102 634v27h241
v-27h-241z" />
    <glyph glyph-name="Obreve" unicode="&#x14e;" horiz-adv-x="577" 
d="M288 -10q-81 0 -134 45.5t-79.5 128t-26.5 195.5q0 118 27 199.5t81 124t132 42.5q84 0 136.5 -40.5t78 -122t25.5 -204.5q0 -115 -27 -197.5t-80.5 -126.5t-132.5 -44zM288 15q72 0 119 41.5t70 118.5t23 183q0 108 -20.5 184.5t-67 117t-123.5 40.5q-109 0 -161 -90
t-52 -252q0 -104 23.5 -181t71 -119.5t117.5 -42.5zM291 771q-33 0 -54.5 13.5t-32.5 38.5t-12 60h19q8 -46 27 -64.5t53 -18.5q32 0 52 18.5t27 64.5h18q0 -34 -11 -59.5t-32 -39t-54 -13.5z" />
    <glyph glyph-name="obreve" unicode="&#x14f;" horiz-adv-x="446" 
d="M223 -10q-80 0 -125 67.5t-45 209.5q0 139 42.5 207t130.5 68q84 0 125.5 -68t41.5 -207q0 -144 -43 -210.5t-127 -66.5zM224 15q52 0 83 29.5t44.5 86t13.5 136.5q0 126 -32 188t-108 62q-78 0 -111 -62.5t-33 -187.5q0 -123 34.5 -187.5t108.5 -64.5zM224 606
q-33 0 -54.5 13.5t-32.5 38.5t-12 60h19q8 -46 27 -64.5t53 -18.5q32 0 52 18.5t27 64.5h18q0 -34 -11 -59.5t-32 -39t-54 -13.5z" />
    <glyph glyph-name="Ohungarumlaut" unicode="&#x150;" horiz-adv-x="577" 
d="M288 -10q-81 0 -134 45.5t-79.5 128t-26.5 195.5q0 118 27 199.5t81 124t132 42.5q84 0 136.5 -40.5t78 -122t25.5 -204.5q0 -115 -27 -197.5t-80.5 -126.5t-132.5 -44zM288 15q72 0 119 41.5t70 118.5t23 183q0 108 -20.5 184.5t-67 117t-123.5 40.5q-109 0 -161 -90
t-52 -252q0 -104 23.5 -181t71 -119.5t117.5 -42.5zM341 784q21 40 37.5 76.5t29.5 70.5h48v-10q-11 -17 -29.5 -44t-39.5 -55t-40 -51h-6v13zM204 784q21 40 37.5 76.5t29.5 70.5h47v-10q-10 -17 -28.5 -44t-39.5 -55t-39 -51h-7v13z" />
    <glyph glyph-name="ohungarumlaut" unicode="&#x151;" horiz-adv-x="446" 
d="M223 -10q-80 0 -125 67.5t-45 209.5q0 139 42.5 207t130.5 68q84 0 125.5 -68t41.5 -207q0 -144 -43 -210.5t-127 -66.5zM224 15q52 0 83 29.5t44.5 86t13.5 136.5q0 126 -32 188t-108 62q-78 0 -111 -62.5t-33 -187.5q0 -123 34.5 -187.5t108.5 -64.5zM268 619
q21 40 37.5 76.5t29.5 70.5h48v-10q-11 -17 -29.5 -44t-39.5 -55t-40 -51h-6v13zM131 619q21 40 37.5 76.5t29.5 70.5h47v-10q-10 -17 -28.5 -44t-39.5 -55t-39 -51h-7v13z" />
    <glyph glyph-name="OE" unicode="&#x152;" horiz-adv-x="743" 
d="M287 -9q-80 0 -133 45t-79.5 127.5t-26.5 195.5q0 118 27 199.5t80.5 123.5t132.5 42q24 0 45 -2.5t39 -7.5h293l6 -164h-20l-3 58q-2 37 -6.5 54.5t-19.5 22t-47 4.5h-174v-302h207v-25h-207l-1 -337h204q30 0 44 4t19.5 18t6.5 43l5 74h20l-5 -164h-321
q-20 -4 -41.5 -6.5t-44.5 -2.5zM287 16q29 0 49.5 3t36.5 7v662q-18 5 -39.5 8t-45.5 3q-108 0 -160 -89.5t-52 -251.5q0 -104 23.5 -181t71 -119t116.5 -42z" />
    <glyph glyph-name="oe" unicode="&#x153;" horiz-adv-x="724" 
d="M223 -10q-81 0 -125.5 68.5t-44.5 208.5q0 141 43.5 208t129.5 67q58 0 97.5 -35t55.5 -114q18 79 56 114t92 35q70 0 110.5 -63.5t40.5 -185.5v-21h-285q-1 -88 17.5 -145t51 -84.5t74.5 -27.5q45 0 74.5 25t44.5 60q3 -2 5.5 -7t2.5 -14q0 -15 -14.5 -36t-43 -37
t-71.5 -16q-55 0 -95 37.5t-59 110.5q-16 -77 -56 -112.5t-101 -35.5zM224 14q52 0 83 29.5t44.5 86t13.5 137.5q0 126 -32.5 188t-108.5 62q-77 0 -110 -62.5t-33 -187.5q0 -123 33.5 -188t109.5 -65zM650 296q-1 64 -13.5 114t-39.5 78.5t-71 28.5q-63 0 -96 -58t-36 -163
h256z" />
    <glyph glyph-name="Racute" unicode="&#x154;" horiz-adv-x="497" 
d="M40 0v20h26q25 0 37 6t15.5 25t3.5 57v498q0 39 -3.5 57.5t-15.5 24.5t-37 6h-26v20h176q71 0 114 -20.5t62.5 -61t19.5 -103.5q0 -64 -18.5 -104.5t-49 -62.5t-64.5 -32l124 -224q26 -44 45.5 -64t48.5 -20h7v-22h-4q-29 0 -49 8.5t-36 28.5t-36 55l-127 229h-103v-213
q0 -38 3.5 -57t15.5 -25t37 -6h29v-20h-195zM210 346q86 0 130 47.5t44 135.5q0 51 -14.5 86.5t-50 54.5t-96.5 19h-73v-343h60zM210 784q15 27 29 52t26 49t20 46h44v-10q-8 -13 -21 -32t-29.5 -40t-33.5 -41t-31 -37h-4v13z" />
    <glyph glyph-name="racute" unicode="&#x155;" horiz-adv-x="344" 
d="M40 0v20h7q31 0 45 4t18 20t4 53v343q0 36 -4 52t-19 20t-49 4h-7v20h103l3 -104h2q10 25 24.5 51t37.5 43.5t57 17.5q35 0 52.5 -18t17.5 -45q0 -16 -4.5 -27t-16.5 -11q0 22 -4 39t-15 27t-34 10q-28 0 -49.5 -21.5t-36.5 -57.5t-22.5 -78.5t-7.5 -84.5v-180
q0 -37 4 -53t19 -20t46 -4h18v-20h-189zM144 619q15 27 29 52t26 49t20 46h44v-10q-8 -13 -21 -32t-29.5 -40t-33.5 -41t-31 -37h-4v13z" />
    <glyph glyph-name="uni0156" unicode="&#x156;" horiz-adv-x="497" 
d="M40 0v20h26q25 0 37 6t15.5 25t3.5 57v498q0 39 -3.5 57.5t-15.5 24.5t-37 6h-26v20h176q71 0 114 -20.5t62.5 -61t19.5 -103.5q0 -64 -18.5 -104.5t-49 -62.5t-64.5 -32l124 -224q26 -44 45.5 -64t48.5 -20h7v-22h-4q-29 0 -49 8.5t-36 28.5t-36 55l-127 229h-103v-213
q0 -38 3.5 -57t15.5 -25t37 -6h29v-20h-195zM210 346q86 0 130 47.5t44 135.5q0 51 -14.5 86.5t-50 54.5t-96.5 19h-73v-343h60zM227 -208q4 25 7.5 49t6.5 48.5t4 49.5h40v-10q-6 -21 -14 -48.5t-16.5 -54.5t-17.5 -47h-10v13z" />
    <glyph glyph-name="uni0157" unicode="&#x157;" horiz-adv-x="344" 
d="M40 0v20h7q31 0 45 4t18 20t4 53v343q0 36 -4 52t-19 20t-49 4h-7v20h103l3 -104h2q10 25 24.5 51t37.5 43.5t57 17.5q35 0 52.5 -18t17.5 -45q0 -16 -4.5 -27t-16.5 -11q0 22 -4 39t-15 27t-34 10q-28 0 -49.5 -21.5t-36.5 -57.5t-22.5 -78.5t-7.5 -84.5v-180
q0 -37 4 -53t19 -20t46 -4h18v-20h-189zM91 -208q4 25 7.5 49t6.5 48.5t4 49.5h40v-10q-6 -21 -14 -48.5t-16.5 -54.5t-17.5 -47h-10v13z" />
    <glyph glyph-name="Rcaron" unicode="&#x158;" horiz-adv-x="497" 
d="M40 0v20h26q25 0 37 6t15.5 25t3.5 57v498q0 39 -3.5 57.5t-15.5 24.5t-37 6h-26v20h176q71 0 114 -20.5t62.5 -61t19.5 -103.5q0 -64 -18.5 -104.5t-49 -62.5t-64.5 -32l124 -224q26 -44 45.5 -64t48.5 -20h7v-22h-4q-29 0 -49 8.5t-36 28.5t-36 55l-127 229h-103v-213
q0 -38 3.5 -57t15.5 -25t37 -6h29v-20h-195zM210 346q86 0 130 47.5t44 135.5q0 51 -14.5 86.5t-50 54.5t-96.5 19h-73v-343h60zM216 771q-7 23 -20 49.5t-27.5 52.5t-27.5 45v13h6q20 -21 35.5 -39t28.5 -37t26 -43q12 24 24.5 43t28 37t35.5 39h6v-13q-13 -19 -27 -45
t-27 -52.5t-22 -49.5h-39z" />
    <glyph glyph-name="rcaron" unicode="&#x159;" horiz-adv-x="344" 
d="M40 0v20h7q31 0 45 4t18 20t4 53v343q0 36 -4 52t-19 20t-49 4h-7v20h103l3 -104h2q10 25 24.5 51t37.5 43.5t57 17.5q35 0 52.5 -18t17.5 -45q0 -16 -4.5 -27t-16.5 -11q0 22 -4 39t-15 27t-34 10q-28 0 -49.5 -21.5t-36.5 -57.5t-22.5 -78.5t-7.5 -84.5v-180
q0 -37 4 -53t19 -20t46 -4h18v-20h-189zM152 606q-7 23 -20 49.5t-27.5 52.5t-27.5 45v13h6q20 -21 35.5 -39t28.5 -37t26 -43q12 24 24.5 43t28 37t35.5 39h6v-13q-13 -19 -27 -45t-27 -52.5t-22 -49.5h-39z" />
    <glyph glyph-name="Sacute" unicode="&#x15a;" horiz-adv-x="414" 
d="M211 -10q-41 0 -70.5 12t-48 31.5t-27.5 44t-9 47.5q0 9 2 19t6 16.5t12 6.5q1 -43 16 -77.5t44.5 -54.5t74.5 -20q65 0 97.5 39t32.5 110q0 49 -13.5 79.5t-43.5 56t-78 54.5q-40 25 -70 52t-46 64t-16 93q0 45 17.5 81t51.5 58t80 22q42 0 72 -16.5t46.5 -41.5
t16.5 -52q0 -21 -6.5 -30.5t-14.5 -9.5q0 39 -13.5 67t-38.5 43t-62 15q-61 0 -91 -41t-30 -102q0 -46 13 -76t39.5 -53.5t65.5 -48.5q40 -25 73.5 -50.5t54.5 -62.5t21 -94t-17.5 -97.5t-53 -62t-87.5 -21.5zM183 784q15 27 29 52t26 49t20 46h44v-10q-8 -13 -21 -32
t-29.5 -40t-33.5 -41t-31 -37h-4v13z" />
    <glyph glyph-name="sacute" unicode="&#x15b;" horiz-adv-x="342" 
d="M167 -10q-44 0 -71 17t-38.5 41t-11.5 46q0 15 2.5 25t7.5 14.5t11 4.5q0 -58 23 -90.5t78 -32.5q50 0 76.5 30t26.5 85q0 23 -6.5 43.5t-25.5 41t-56 42.5q-45 30 -72 54.5t-38 50t-11 59.5q0 54 31.5 87t85.5 33q35 0 60 -12.5t37.5 -33.5t12.5 -46q0 -22 -5 -33
t-16 -11q0 58 -22.5 84.5t-67.5 26.5q-47 0 -67.5 -27.5t-20.5 -68.5q0 -42 26 -73.5t78 -63.5q42 -25 65 -49.5t31.5 -50.5t8.5 -56q0 -63 -35.5 -100t-96.5 -37zM147 619q15 27 29 52t26 49t20 46h44v-10q-8 -13 -21 -32t-29.5 -40t-33.5 -41t-31 -37h-4v13z" />
    <glyph glyph-name="Scircumflex" unicode="&#x15c;" horiz-adv-x="414" 
d="M211 -10q-41 0 -70.5 12t-48 31.5t-27.5 44t-9 47.5q0 9 2 19t6 16.5t12 6.5q1 -43 16 -77.5t44.5 -54.5t74.5 -20q65 0 97.5 39t32.5 110q0 49 -13.5 79.5t-43.5 56t-78 54.5q-40 25 -70 52t-46 64t-16 93q0 45 17.5 81t51.5 58t80 22q42 0 72 -16.5t46.5 -41.5
t16.5 -52q0 -21 -6.5 -30.5t-14.5 -9.5q0 39 -13.5 67t-38.5 43t-62 15q-61 0 -91 -41t-30 -102q0 -46 13 -76t39.5 -53.5t65.5 -48.5q40 -25 73.5 -50.5t54.5 -62.5t21 -94t-17.5 -97.5t-53 -62t-87.5 -21.5zM123 784q13 19 27.5 45t27.5 53t20 49h39q9 -22 22 -49t27 -53
t27 -45v-13h-6q-20 21 -35.5 39.5t-28 37t-24.5 42.5q-13 -24 -26 -42.5t-28.5 -37t-35.5 -39.5h-6v13z" />
    <glyph glyph-name="scircumflex" unicode="&#x15d;" horiz-adv-x="342" 
d="M167 -10q-44 0 -71 17t-38.5 41t-11.5 46q0 15 2.5 25t7.5 14.5t11 4.5q0 -58 23 -90.5t78 -32.5q50 0 76.5 30t26.5 85q0 23 -6.5 43.5t-25.5 41t-56 42.5q-45 30 -72 54.5t-38 50t-11 59.5q0 54 31.5 87t85.5 33q35 0 60 -12.5t37.5 -33.5t12.5 -46q0 -22 -5 -33
t-16 -11q0 58 -22.5 84.5t-67.5 26.5q-47 0 -67.5 -27.5t-20.5 -68.5q0 -42 26 -73.5t78 -63.5q42 -25 65 -49.5t31.5 -50.5t8.5 -56q0 -63 -35.5 -100t-96.5 -37zM82 619q13 19 27.5 45t27.5 53t20 49h39q9 -22 22 -49t27 -53t27 -45v-13h-6q-20 21 -35.5 39.5t-28 37
t-24.5 42.5q-13 -24 -26 -42.5t-28.5 -37t-35.5 -39.5h-6v13z" />
    <glyph glyph-name="Scedilla" unicode="&#x15e;" horiz-adv-x="414" 
d="M211 -10q-41 0 -70.5 12t-48 31.5t-27.5 44t-9 47.5q0 9 2 19t6 16.5t12 6.5q1 -43 16 -77.5t44.5 -54.5t74.5 -20q65 0 97.5 39t32.5 110q0 49 -13.5 79.5t-43.5 56t-78 54.5q-40 25 -70 52t-46 64t-16 93q0 45 17.5 81t51.5 58t80 22q42 0 72 -16.5t46.5 -41.5
t16.5 -52q0 -21 -6.5 -30.5t-14.5 -9.5q0 39 -13.5 67t-38.5 43t-62 15q-61 0 -91 -41t-30 -102q0 -46 13 -76t39.5 -53.5t65.5 -48.5q40 -25 73.5 -50.5t54.5 -62.5t21 -94t-17.5 -97.5t-53 -62t-87.5 -21.5zM198 -221q-12 0 -25 2t-27 7v23q14 -4 26 -6.5t23 -2.5
q31 0 49 16.5t18 50.5q0 30 -18 46t-54 20l16 74h25l-13 -55q17 -4 33.5 -13.5t26.5 -26.5t10 -44q0 -46 -24 -68.5t-66 -22.5z" />
    <glyph glyph-name="scedilla" unicode="&#x15f;" horiz-adv-x="342" 
d="M167 -10q-44 0 -71 17t-38.5 41t-11.5 46q0 15 2.5 25t7.5 14.5t11 4.5q0 -58 23 -90.5t78 -32.5q50 0 76.5 30t26.5 85q0 23 -6.5 43.5t-25.5 41t-56 42.5q-45 30 -72 54.5t-38 50t-11 59.5q0 54 31.5 87t85.5 33q35 0 60 -12.5t37.5 -33.5t12.5 -46q0 -22 -5 -33
t-16 -11q0 58 -22.5 84.5t-67.5 26.5q-47 0 -67.5 -27.5t-20.5 -68.5q0 -42 26 -73.5t78 -63.5q42 -25 65 -49.5t31.5 -50.5t8.5 -56q0 -63 -35.5 -100t-96.5 -37zM154 -221q-12 0 -25 2t-27 7v23q14 -4 26 -6.5t23 -2.5q31 0 49 16.5t18 50.5q0 30 -18 46t-54 20l16 74h25
l-13 -55q17 -4 33.5 -13.5t26.5 -26.5t10 -44q0 -46 -24 -68.5t-66 -22.5z" />
    <glyph glyph-name="Scaron" unicode="&#x160;" horiz-adv-x="414" 
d="M211 -10q-41 0 -70.5 12t-48 31.5t-27.5 44t-9 47.5q0 9 2 19t6 16.5t12 6.5q1 -43 16 -77.5t44.5 -54.5t74.5 -20q65 0 97.5 39t32.5 110q0 49 -13.5 79.5t-43.5 56t-78 54.5q-40 25 -70 52t-46 64t-16 93q0 45 17.5 81t51.5 58t80 22q42 0 72 -16.5t46.5 -41.5
t16.5 -52q0 -21 -6.5 -30.5t-14.5 -9.5q0 39 -13.5 67t-38.5 43t-62 15q-61 0 -91 -41t-30 -102q0 -46 13 -76t39.5 -53.5t65.5 -48.5q40 -25 73.5 -50.5t54.5 -62.5t21 -94t-17.5 -97.5t-53 -62t-87.5 -21.5zM203 771q-7 23 -20 49.5t-27.5 52.5t-27.5 45v13h6
q20 -21 35.5 -39t28.5 -37t26 -43q12 24 24.5 43t28 37t35.5 39h6v-13q-13 -19 -27 -45t-27 -52.5t-22 -49.5h-39z" />
    <glyph glyph-name="scaron" unicode="&#x161;" horiz-adv-x="342" 
d="M167 -10q-44 0 -71 17t-38.5 41t-11.5 46q0 15 2.5 25t7.5 14.5t11 4.5q0 -58 23 -90.5t78 -32.5q50 0 76.5 30t26.5 85q0 23 -6.5 43.5t-25.5 41t-56 42.5q-45 30 -72 54.5t-38 50t-11 59.5q0 54 31.5 87t85.5 33q35 0 60 -12.5t37.5 -33.5t12.5 -46q0 -22 -5 -33
t-16 -11q0 58 -22.5 84.5t-67.5 26.5q-47 0 -67.5 -27.5t-20.5 -68.5q0 -42 26 -73.5t78 -63.5q42 -25 65 -49.5t31.5 -50.5t8.5 -56q0 -63 -35.5 -100t-96.5 -37zM158 606q-7 23 -20 49.5t-27.5 52.5t-27.5 45v13h6q20 -21 35.5 -39t28.5 -37t26 -43q12 24 24.5 43t28 37
t35.5 39h6v-13q-13 -19 -27 -45t-27 -52.5t-22 -49.5h-39z" />
    <glyph glyph-name="uni0162" unicode="&#x162;" horiz-adv-x="474" 
d="M122 0v20h43q25 0 37 6t15.5 25t3.5 57v581h-113q-39 0 -48.5 -14t-11.5 -55l-2 -57h-20l4 151h412l5 -151h-20l-2 57q-2 41 -12 55t-49 14h-115v-581q0 -38 3.5 -57t15.5 -25t37 -6h42v-20h-225zM217 -221q-8 0 -16.5 1t-17.5 3t-18 5v23q14 -4 26 -6.5t23 -2.5
q30 0 48 16.5t18 50.5q0 30 -17.5 46t-53.5 20l16 74h25l-14 -55q18 -4 34.5 -13.5t26.5 -26.5t10 -44q0 -46 -24 -68.5t-66 -22.5z" />
    <glyph glyph-name="uni0163" unicode="&#x163;" horiz-adv-x="246" 
d="M177 -10q-53 0 -75 33t-22 118v370h-66v19q20 2 33 7.5t21 14.5q12 15 15.5 40.5t4.5 64.5h20v-121h108v-25h-108v-373q0 -72 16.5 -97.5t51.5 -25.5q13 0 23.5 1.5l24.5 3.5v-25q-13 -2 -25 -3.5t-22 -1.5zM129 -221q-8 0 -16.5 1t-17.5 3t-18 5v23q14 -4 26 -6.5
t23 -2.5q30 0 48 16.5t18 50.5q0 30 -17.5 46t-53.5 20l16 74h25l-14 -55q18 -4 34.5 -13.5t26.5 -26.5t10 -44q0 -46 -24 -68.5t-66 -22.5z" />
    <glyph glyph-name="Tcaron" unicode="&#x164;" horiz-adv-x="474" 
d="M122 0v20h43q25 0 37 6t15.5 25t3.5 57v581h-113q-39 0 -48.5 -14t-11.5 -55l-2 -57h-20l4 151h412l5 -151h-20l-2 57q-2 41 -12 55t-49 14h-115v-581q0 -38 3.5 -57t15.5 -25t37 -6h42v-20h-225zM215 771q-7 23 -20 49.5t-27.5 52.5t-27.5 45v13h6q20 -21 35.5 -39
t28.5 -37t26 -43q12 24 24.5 43t28 37t35.5 39h6v-13q-13 -19 -27 -45t-27 -52.5t-22 -49.5h-39z" />
    <glyph glyph-name="tcaron" unicode="&#x165;" horiz-adv-x="246" 
d="M175 612q4 25 7.5 50t6 50t2.5 48h40v-9q-5 -21 -13 -48.5t-16.5 -54.5t-18.5 -48h-8v12zM177 -10q-53 0 -75 33t-22 118v370h-66v19q20 2 33 7.5t21 14.5q12 15 15.5 40.5t4.5 64.5h20v-121h108v-25h-108v-373q0 -72 16.5 -97.5t51.5 -25.5q13 0 23.5 1.5l24.5 3.5v-25
q-13 -2 -25 -3.5t-22 -1.5z" />
    <glyph glyph-name="Tbar" unicode="&#x166;" horiz-adv-x="474" 
d="M122 0v20h43q25 0 37 6t15.5 25t3.5 57v238h-126v25h126v318h-114q-36 0 -46.5 -13t-12.5 -52l-2 -61h-20l4 151h412l5 -151h-20l-2 59q-1 29 -6 43t-18.5 19t-40.5 5h-111v-318h124v-25h-124v-238q0 -38 3.5 -57t15.5 -25t38 -6h41v-20h-225z" />
    <glyph glyph-name="tbar" unicode="&#x167;" horiz-adv-x="246" 
d="M22 303v25h173v-25h-173zM177 -10q-53 0 -75 33t-22 118v370h-66v19q20 2 33 7.5t21 14.5q12 15 15.5 40.5t4.5 64.5h20v-121h108v-25h-108v-373q0 -72 16.5 -97.5t51.5 -25.5q13 0 23.5 1.5l24.5 3.5v-25q-13 -2 -25 -3.5t-22 -1.5z" />
    <glyph glyph-name="Utilde" unicode="&#x168;" horiz-adv-x="568" 
d="M281 -10q-56 0 -99 22.5t-67 72.5t-24 129v394q0 38 -3.5 56t-15.5 24t-37 6h-24v20h193v-20h-29q-24 0 -36 -5.5t-16 -24.5t-4 -58v-396q0 -101 44 -148t118 -47q61 0 97.5 28t53 72t16.5 92v400q0 38 -3.5 56.5t-15.5 24.5t-37 6h-29v20h192v-20h-23q-25 0 -37 -6
t-15.5 -24.5t-3.5 -56.5v-402q0 -58 -21 -107t-64 -78.5t-110 -29.5zM347 775q-20 0 -37.5 9.5t-32.5 21.5t-29.5 22t-30.5 10q-23 0 -31 -17.5t-10 -39.5h-24q2 19 7.5 38t19 32.5t38.5 13.5q21 0 37 -9.5t31 -22t30 -22t32 -9.5q23 0 31 17t10 38h24q-2 -19 -7.5 -38
t-18.5 -31.5t-39 -12.5z" />
    <glyph glyph-name="utilde" unicode="&#x169;" horiz-adv-x="500" 
d="M235 -10q-67 0 -103 45.5t-36 148.5v259q0 34 -4 49.5t-19 19.5t-50 4h-10v20h111v-354q0 -53 11 -90.5t36 -57t65 -19.5q46 0 76.5 26.5t45 69.5t14.5 92v228q0 40 -3.5 58t-18.5 22.5t-50 4.5h-8v20h108v-437q0 -37 4 -54t19 -21t47 -4h11v-20h-105l-2 81h-4
q-19 -38 -51 -64.5t-84 -26.5zM303 610q-20 0 -37.5 9.5t-32.5 21.5t-29.5 22t-30.5 10q-23 0 -31 -17.5t-10 -39.5h-24q2 19 7.5 38t19 32.5t38.5 13.5q21 0 37 -9.5t31 -22t30 -22t32 -9.5q23 0 31 17t10 38h24q-2 -19 -7.5 -38t-18.5 -31.5t-39 -12.5z" />
    <glyph glyph-name="Umacron" unicode="&#x16a;" horiz-adv-x="568" 
d="M281 -10q-56 0 -99 22.5t-67 72.5t-24 129v394q0 38 -3.5 56t-15.5 24t-37 6h-24v20h193v-20h-29q-24 0 -36 -5.5t-16 -24.5t-4 -58v-396q0 -101 44 -148t118 -47q61 0 97.5 28t53 72t16.5 92v400q0 38 -3.5 56.5t-15.5 24.5t-37 6h-29v20h192v-20h-23q-25 0 -37 -6
t-15.5 -24.5t-3.5 -56.5v-402q0 -58 -21 -107t-64 -78.5t-110 -29.5zM168 799v27h241v-27h-241z" />
    <glyph glyph-name="umacron" unicode="&#x16b;" horiz-adv-x="500" 
d="M235 -10q-67 0 -103 45.5t-36 148.5v259q0 34 -4 49.5t-19 19.5t-50 4h-10v20h111v-354q0 -53 11 -90.5t36 -57t65 -19.5q46 0 76.5 26.5t45 69.5t14.5 92v228q0 40 -3.5 58t-18.5 22.5t-50 4.5h-8v20h108v-437q0 -37 4 -54t19 -21t47 -4h11v-20h-105l-2 81h-4
q-19 -38 -51 -64.5t-84 -26.5zM115 634v27h241v-27h-241z" />
    <glyph glyph-name="Ubreve" unicode="&#x16c;" horiz-adv-x="568" 
d="M281 -10q-56 0 -99 22.5t-67 72.5t-24 129v394q0 38 -3.5 56t-15.5 24t-37 6h-24v20h193v-20h-29q-24 0 -36 -5.5t-16 -24.5t-4 -58v-396q0 -101 44 -148t118 -47q61 0 97.5 28t53 72t16.5 92v400q0 38 -3.5 56.5t-15.5 24.5t-37 6h-29v20h192v-20h-23q-25 0 -37 -6
t-15.5 -24.5t-3.5 -56.5v-402q0 -58 -21 -107t-64 -78.5t-110 -29.5zM287 771q-33 0 -54.5 13.5t-32.5 38.5t-12 60h19q8 -46 27 -64.5t53 -18.5q32 0 52 18.5t27 64.5h18q0 -34 -11 -59.5t-32 -39t-54 -13.5z" />
    <glyph glyph-name="ubreve" unicode="&#x16d;" horiz-adv-x="500" 
d="M235 -10q-67 0 -103 45.5t-36 148.5v259q0 34 -4 49.5t-19 19.5t-50 4h-10v20h111v-354q0 -53 11 -90.5t36 -57t65 -19.5q46 0 76.5 26.5t45 69.5t14.5 92v228q0 40 -3.5 58t-18.5 22.5t-50 4.5h-8v20h108v-437q0 -37 4 -54t19 -21t47 -4h11v-20h-105l-2 81h-4
q-19 -38 -51 -64.5t-84 -26.5zM239 606q-33 0 -54.5 13.5t-32.5 38.5t-12 60h19q8 -46 27 -64.5t53 -18.5q32 0 52 18.5t27 64.5h18q0 -34 -11 -59.5t-32 -39t-54 -13.5z" />
    <glyph glyph-name="Uring" unicode="&#x16e;" horiz-adv-x="568" 
d="M281 -10q-56 0 -99 22.5t-67 72.5t-24 129v394q0 38 -3.5 56t-15.5 24t-37 6h-24v20h193v-20h-29q-24 0 -36 -5.5t-16 -24.5t-4 -58v-396q0 -101 44 -148t118 -47q61 0 97.5 28t53 72t16.5 92v400q0 38 -3.5 56.5t-15.5 24.5t-37 6h-29v20h192v-20h-23q-25 0 -37 -6
t-15.5 -24.5t-3.5 -56.5v-402q0 -58 -21 -107t-64 -78.5t-110 -29.5zM292 761q-41 0 -70 28t-29 81t29 81t70 28q42 0 71 -28t29 -81t-29 -81t-71 -28zM293 785q30 0 51 20t21 66q0 45 -21 65.5t-51 20.5q-32 0 -53 -20.5t-21 -65.5q0 -46 21 -66t53 -20z" />
    <glyph glyph-name="uring" unicode="&#x16f;" horiz-adv-x="500" 
d="M235 -10q-67 0 -103 45.5t-36 148.5v259q0 34 -4 49.5t-19 19.5t-50 4h-10v20h111v-354q0 -53 11 -90.5t36 -57t65 -19.5q46 0 76.5 26.5t45 69.5t14.5 92v228q0 40 -3.5 58t-18.5 22.5t-50 4.5h-8v20h108v-437q0 -37 4 -54t19 -21t47 -4h11v-20h-105l-2 81h-4
q-19 -38 -51 -64.5t-84 -26.5zM236 596q-41 0 -70 28t-29 81t29 81t70 28q42 0 71 -28t29 -81t-29 -81t-71 -28zM237 620q30 0 51 20t21 66q0 45 -21 65.5t-51 20.5q-32 0 -53 -20.5t-21 -65.5q0 -46 21 -66t53 -20z" />
    <glyph glyph-name="Uhungarumlaut" unicode="&#x170;" horiz-adv-x="568" 
d="M281 -10q-56 0 -99 22.5t-67 72.5t-24 129v394q0 38 -3.5 56t-15.5 24t-37 6h-24v20h193v-20h-29q-24 0 -36 -5.5t-16 -24.5t-4 -58v-396q0 -101 44 -148t118 -47q61 0 97.5 28t53 72t16.5 92v400q0 38 -3.5 56.5t-15.5 24.5t-37 6h-29v20h192v-20h-23q-25 0 -37 -6
t-15.5 -24.5t-3.5 -56.5v-402q0 -58 -21 -107t-64 -78.5t-110 -29.5zM336 784q21 40 37.5 76.5t29.5 70.5h48v-10q-11 -17 -29.5 -44t-39.5 -55t-40 -51h-6v13zM199 784q21 40 37.5 76.5t29.5 70.5h47v-10q-10 -17 -28.5 -44t-39.5 -55t-39 -51h-7v13z" />
    <glyph glyph-name="uhungarumlaut" unicode="&#x171;" horiz-adv-x="500" 
d="M235 -10q-67 0 -103 45.5t-36 148.5v259q0 34 -4 49.5t-19 19.5t-50 4h-10v20h111v-354q0 -53 11 -90.5t36 -57t65 -19.5q46 0 76.5 26.5t45 69.5t14.5 92v228q0 40 -3.5 58t-18.5 22.5t-50 4.5h-8v20h108v-437q0 -37 4 -54t19 -21t47 -4h11v-20h-105l-2 81h-4
q-19 -38 -51 -64.5t-84 -26.5zM292 619q21 40 37.5 76.5t29.5 70.5h48v-10q-11 -17 -29.5 -44t-39.5 -55t-40 -51h-6v13zM155 619q21 40 37.5 76.5t29.5 70.5h47v-10q-10 -17 -28.5 -44t-39.5 -55t-39 -51h-7v13z" />
    <glyph glyph-name="Uogonek" unicode="&#x172;" horiz-adv-x="570" 
d="M283 -10q-56 0 -99 22.5t-67 72.5t-24 129v394q0 38 -3.5 56t-15.5 24t-37 6h-24v20h193v-20h-29q-24 0 -36 -5.5t-16 -24.5t-4 -58v-396q0 -101 44 -148t118 -47q61 0 97.5 28t53 72t16.5 92v400q0 38 -3.5 56.5t-15.5 24.5t-37 6h-29v20h192v-20h-23q-25 0 -37 -6
t-15.5 -24.5t-3.5 -56.5v-402q0 -58 -21 -107t-64 -78.5t-110 -29.5zM315 -226q-37 0 -61.5 24.5t-24.5 74.5q0 34 12.5 60t31 43t35.5 24h34q-19 -7 -38.5 -24t-33 -42t-13.5 -57q0 -42 17 -60.5t42 -18.5q15 0 25.5 3t26.5 11v-25q-9 -4 -17 -7t-16.5 -4.5t-19.5 -1.5z
" />
    <glyph glyph-name="uogonek" unicode="&#x173;" horiz-adv-x="500" 
d="M235 -10q-67 0 -103 45.5t-36 148.5v259q0 34 -4 49.5t-19 19.5t-50 4h-10v20h111v-354q0 -53 11 -90.5t36 -57t65 -19.5q46 0 76.5 26.5t45 69.5t14.5 92v228q0 40 -3.5 58t-18.5 22.5t-50 4.5h-8v20h108v-437q0 -37 4 -54t19 -21t47 -4h11v-20h-105l-2 81h-4
q-19 -38 -51 -64.5t-84 -26.5zM417 -226q-37 0 -61 24.5t-24 74.5q0 34 12 60t30.5 43t36.5 24h33q-19 -7 -38.5 -24t-33 -42t-13.5 -57q0 -43 17 -61t42 -18q15 0 26 3t26 11v-25q-9 -4 -17 -7t-16.5 -4.5t-19.5 -1.5z" />
    <glyph glyph-name="Wcircumflex" unicode="&#x174;" horiz-adv-x="851" 
d="M88 646q-4 22 -10.5 32t-18.5 13t-34 3h-9v20h178v-20h-24q-37 0 -46 -7t-9 -21q0 -10 4 -27.5t10 -46.5l92 -399q7 -31 11.5 -53.5t8.5 -44t9 -51.5q8 42 15.5 74.5t17.5 71.5l127 524h28l117 -505q11 -46 19 -85t16 -75q5 20 11.5 47.5t13 57t13.5 57.5l94 383
q6 28 10 45t4 27q0 14 -8.5 21t-46.5 7h-29v20h184v-20h-10q-22 0 -34 -2.5t-18.5 -13t-12.5 -33.5l-158 -645h-28l-152 663l-160 -663h-28zM333 784q13 19 27.5 45t27.5 53t20 49h39q9 -22 22 -49t27 -53t27 -45v-13h-6q-20 21 -35.5 39.5t-28 37t-24.5 42.5
q-13 -24 -26 -42.5t-28.5 -37t-35.5 -39.5h-6v13z" />
    <glyph glyph-name="wcircumflex" unicode="&#x175;" horiz-adv-x="722" 
d="M71 463q-5 24 -10.5 35t-16.5 14.5t-31 3.5h-7v20h149v-20h-23q-25 0 -31.5 -5t-6.5 -15q0 -7 6 -31t9 -40l52 -221q6 -24 14 -58.5t14.5 -67.5t9.5 -51h2q2 18 10.5 51t19 69t16.5 60l93 329h35l89 -313q6 -19 13.5 -46t15 -56.5t14 -55.5t8.5 -42h3q5 31 16 76.5
t27 107.5l56 221q5 22 10 40t5 28t-6.5 15t-31.5 5h-28v20h153v-20h-8q-20 0 -31 -2.5t-16.5 -13t-10.5 -33.5l-118 -467h-36l-142 505l-142 -505h-33zM264 619q13 19 27.5 45t27.5 53t20 49h39q9 -22 22 -49t27 -53t27 -45v-13h-6q-20 21 -35.5 39.5t-28 37t-24.5 42.5
q-13 -24 -26 -42.5t-28.5 -37t-35.5 -39.5h-6v13z" />
    <glyph glyph-name="Ycircumflex" unicode="&#x176;" horiz-adv-x="457" 
d="M127 0v20h33q25 0 37 6t15.5 25t3.5 57v246l-158 297q-10 21 -18.5 30t-18 11t-26.5 2h-4v20h161v-20h-32q-27 0 -33.5 -4t-6.5 -12t6.5 -20.5t16.5 -31.5l62 -118q17 -32 33 -63.5t31 -62.5q8 15 19.5 37.5t28.5 54.5l82 156q10 21 13.5 30t3.5 17t-7 12.5t-33 4.5h-45
v20h172v-20h-4q-16 0 -25 -2t-17 -11t-18 -29l-155 -296v-248q0 -38 3.5 -57t15.5 -25t37 -6h33v-20h-206zM133 784q13 19 27.5 45t27.5 53t20 49h39q9 -22 22 -49t27 -53t27 -45v-13h-6q-20 21 -35.5 39.5t-28 37t-24.5 42.5q-13 -24 -26 -42.5t-28.5 -37t-35.5 -39.5h-6
v13z" />
    <glyph glyph-name="ycircumflex" unicode="&#x177;" horiz-adv-x="456" 
d="M42 -215q47 0 75 10.5t46 34.5t33 65.5t35 102.5l-153 459q-9 28 -15.5 40.5t-17.5 15.5t-36 3h-1v20h152v-20h-9q-34 0 -43.5 -4.5t-9.5 -16.5q0 -9 6 -27t17 -50l65 -197q12 -38 23.5 -73t20.5 -64t14 -48q7 29 18.5 68t24.5 88l69 232q6 23 11 41.5t5 28.5
q0 11 -7.5 16.5t-41.5 5.5h-24v20h158v-20h-4q-21 0 -31.5 -4.5t-17 -20t-16.5 -48.5l-134 -459q-21 -71 -40 -115t-41.5 -67.5t-53.5 -32.5t-76 -9h-1v25zM142 619q13 19 27.5 45t27.5 53t20 49h39q9 -22 22 -49t27 -53t27 -45v-13h-6q-20 21 -35.5 39.5t-28 37t-24.5 42.5
q-13 -24 -26 -42.5t-28.5 -37t-35.5 -39.5h-6v13z" />
    <glyph glyph-name="Ydieresis" unicode="&#x178;" horiz-adv-x="457" 
d="M127 0v20h33q25 0 37 6t15.5 25t3.5 57v246l-158 297q-10 21 -18.5 30t-18 11t-26.5 2h-4v20h161v-20h-32q-27 0 -33.5 -4t-6.5 -12t6.5 -20.5t16.5 -31.5l62 -118q17 -32 33 -63.5t31 -62.5q8 15 19.5 37.5t28.5 54.5l82 156q10 21 13.5 30t3.5 17t-7 12.5t-33 4.5h-45
v20h172v-20h-4q-16 0 -25 -2t-17 -11t-18 -29l-155 -296v-248q0 -38 3.5 -57t15.5 -25t37 -6h33v-20h-206zM299 826q-11 0 -17 7.5t-6 29.5q0 23 6 31t17 8q12 0 17.5 -8t5.5 -31q0 -22 -5.5 -29.5t-17.5 -7.5zM158 826q-12 0 -17.5 7.5t-5.5 29.5q0 23 5.5 31t17.5 8
q11 0 17 -8t6 -31q0 -22 -6 -29.5t-17 -7.5z" />
    <glyph glyph-name="Zacute" unicode="&#x179;" horiz-adv-x="423" 
d="M24 0v22l327 667h-229q-39 0 -49 -14t-12 -55l-1 -43h-20l4 137h339v-23l-327 -666h252q26 0 38.5 6t16.5 20.5t5 41.5l2 45h20l-4 -138h-362zM183 784q15 27 29 52t26 49t20 46h44v-10q-8 -13 -21 -32t-29.5 -40t-33.5 -41t-31 -37h-4v13z" />
    <glyph glyph-name="zacute" unicode="&#x17a;" horiz-adv-x="409" 
d="M56 0v22l251 489h-165q-39 0 -49 -14t-14 -55l-2 -22h-20l8 116h275v-22l-252 -489h173q39 0 49 14t12 56l2 43h20l-5 -138h-283zM174 619q15 27 29 52t26 49t20 46h44v-10q-8 -13 -21 -32t-29.5 -40t-33.5 -41t-31 -37h-4v13z" />
    <glyph glyph-name="Zdotaccent" unicode="&#x17b;" horiz-adv-x="423" 
d="M24 0v22l327 667h-229q-39 0 -49 -14t-12 -55l-1 -43h-20l4 137h339v-23l-327 -666h252q26 0 38.5 6t16.5 20.5t5 41.5l2 45h20l-4 -138h-362zM221 823q-10 0 -16 8t-6 32q0 23 6 31.5t16 8.5q11 0 17 -8.5t6 -31.5q0 -24 -6 -32t-17 -8z" />
    <glyph glyph-name="zdotaccent" unicode="&#x17c;" horiz-adv-x="409" 
d="M56 0v22l251 489h-165q-39 0 -49 -14t-14 -55l-2 -22h-20l8 116h275v-22l-252 -489h173q39 0 49 14t12 56l2 43h20l-5 -138h-283zM203 658q-10 0 -16 8t-6 32q0 23 6 31.5t16 8.5q11 0 17 -8.5t6 -31.5q0 -24 -6 -32t-17 -8z" />
    <glyph glyph-name="Zcaron" unicode="&#x17d;" horiz-adv-x="423" 
d="M24 0v22l327 667h-229q-39 0 -49 -14t-12 -55l-1 -43h-20l4 137h339v-23l-327 -666h252q26 0 38.5 6t16.5 20.5t5 41.5l2 45h20l-4 -138h-362zM198 771q-7 23 -20 49.5t-27.5 52.5t-27.5 45v13h6q20 -21 35.5 -39t28.5 -37t26 -43q12 24 24.5 43t28 37t35.5 39h6v-13
q-13 -19 -27 -45t-27 -52.5t-22 -49.5h-39z" />
    <glyph glyph-name="zcaron" unicode="&#x17e;" horiz-adv-x="409" 
d="M56 0v22l251 489h-165q-39 0 -49 -14t-14 -55l-2 -22h-20l8 116h275v-22l-252 -489h173q39 0 49 14t12 56l2 43h20l-5 -138h-283zM191 606q-7 23 -20 49.5t-27.5 52.5t-27.5 45v13h6q20 -21 35.5 -39t28.5 -37t26 -43q12 24 24.5 43t28 37t35.5 39h6v-13q-13 -19 -27 -45
t-27 -52.5t-22 -49.5h-39z" />
    <glyph glyph-name="longs" unicode="&#x17f;" horiz-adv-x="248" 
d="M17 0v20h20q28 0 41 5t16.5 22t3.5 53v501q0 85 34 128t96 43q26 0 45.5 -9t30.5 -25.5t11 -40.5q0 -18 -6.5 -28.5t-14.5 -10.5q0 41 -13.5 65t-53.5 24q-53 0 -77 -41.5t-24 -105.5v-500q0 -36 3.5 -53t17 -22t40.5 -5h40v-20h-210z" />
    <glyph glyph-name="uni0180" unicode="&#x180;" horiz-adv-x="478" 
d="M268 -10q-54 0 -88 28t-52 75h-4l-2 -93h-106v20h13q31 0 45.5 4.5t18.5 19t4 45.5v527h-80v25h80v20q0 37 -4 53.5t-18 21t-43 4.5h-16v20h109v-119h154v-25h-154v-58q0 -18 -0.5 -41t-1 -47t-2.5 -46h2q16 53 52 85t95 32q78 0 116.5 -64t38.5 -211
q0 -102 -19.5 -162.5t-55 -87t-82.5 -26.5zM269 15q41 0 69.5 26t43.5 82t15 145q0 129 -29.5 188.5t-98.5 59.5q-72 0 -108.5 -60.5t-36.5 -188.5q0 -129 35.5 -190.5t109.5 -61.5z" />
    <glyph glyph-name="uni0181" unicode="&#x181;" horiz-adv-x="543" 
d="M64 0v20h26q25 0 36.5 6t15 25.5t3.5 57.5v512q0 45 -9.5 58.5t-35.5 13.5q-29 0 -46 -14.5t-17 -38.5q0 -18 8.5 -28t16.5 -16q-2 -3 -6.5 -4.5t-11.5 -1.5q-13 0 -23 12.5t-10 35.5q0 22 10 39t30 27t48 10h166q96 0 141 -42t45 -130q0 -52 -14.5 -85.5t-37.5 -51
t-49 -24.5v-3q37 -4 65.5 -24.5t44.5 -59.5t16 -102q0 -98 -46 -145t-140 -47h-226zM287 25q90 0 125.5 42.5t35.5 125.5q0 56 -14 94t-49 56.5t-97 18.5h-115v-337h114zM264 387q61 0 96 19.5t49.5 54.5t14.5 81q0 72 -35.5 109.5t-121.5 37.5h-94v-302h91z" />
    <glyph glyph-name="uni0182" unicode="&#x182;" horiz-adv-x="488" 
d="M39 0v20h28q25 0 36.5 6t15 25t3.5 57v498q0 39 -4 57.5t-15.5 24.5t-36.5 6h-27v20h368l5 -159h-20l-3 65q-1 28 -5 42.5t-16 20.5t-39 6h-179v-285h85q66 0 113.5 -20.5t73.5 -65t26 -116.5q0 -70 -26 -114.5t-73.5 -66t-113.5 -21.5h-196zM150 25h78q97 0 143.5 43
t46.5 134t-46.5 134t-143.5 43h-78v-354z" />
    <glyph glyph-name="uni0183" unicode="&#x183;" horiz-adv-x="478" 
d="M268 -10q-54 0 -88 28t-52 75h-4l-2 -93h-106v20h13q31 0 45.5 4.5t18.5 19t4 45.5v572q0 37 -4 53.5t-18 21t-43 4.5h-16v20h361l1 -141h-20v27q-1 40 -5.5 59t-18.5 24.5t-43 5.5h-166v-180v-29.5t-0.5 -34t-1 -36t-2.5 -34.5h2q16 54 52 85.5t95 31.5
q78 0 116.5 -63.5t38.5 -207.5q0 -101 -19.5 -162t-55 -88t-82.5 -27zM269 15q61 0 94.5 62.5t33.5 191.5q0 125 -29.5 184.5t-98.5 59.5q-72 0 -108.5 -60.5t-36.5 -184.5q0 -85 15.5 -141.5t48 -84t81.5 -27.5z" />
    <glyph glyph-name="uni0184" unicode="&#x184;" horiz-adv-x="425" 
d="M232 -10q-51 0 -82 20.5t-45 61.5t-14 101v433q0 39 -3.5 57.5t-15.5 24.5t-37 6h-25v20h203v-20h-37q-26 0 -38 -6t-15.5 -24.5t-3.5 -57.5v-220h65q73 0 118.5 -22.5t67 -68t21.5 -114.5q0 -57 -18.5 -100.5t-54 -67t-86.5 -23.5zM234 15q45 0 73.5 21t42 58.5
t13.5 86.5q0 93 -42.5 136.5t-139.5 43.5h-62v-188q0 -82 27 -120t88 -38z" />
    <glyph glyph-name="uni0185" unicode="&#x185;" horiz-adv-x="454" 
d="M236 -10q-38 0 -68 15t-51 47t-32.5 83t-11.5 124v402q0 37 -4 53.5t-18 21t-43 4.5h-11v20h104v-199q0 -18 -0.5 -41t-1 -47t-1.5 -46h1q17 53 52.5 85t94.5 32q78 0 117 -64.5t39 -212.5q0 -101 -20.5 -162t-58 -88t-87.5 -27zM237 15q44 0 74.5 26.5t46.5 83t16 144.5
q0 130 -30 190t-99 60q-72 0 -108.5 -61.5t-36.5 -189.5q0 -81 13.5 -137.5t43 -86t80.5 -29.5z" />
    <glyph glyph-name="uni0186" unicode="&#x186;" horiz-adv-x="455" 
d="M190 -10q-51 0 -84.5 16.5t-50.5 40t-17 43.5q0 14 5 21.5t11 10.5q8 -32 22 -56t41.5 -37.5t73.5 -13.5q63 0 104.5 44t62 121.5t20.5 176.5q0 75 -10 137.5t-31.5 108.5t-57.5 71t-87 25q-43 0 -72.5 -15t-45 -42.5t-18.5 -64.5q-6 1 -10 6t-6.5 13.5t-2.5 20.5
q0 15 9.5 33t28.5 35t47.5 28t68.5 11q76 0 123.5 -44.5t69.5 -126.5t22 -196q0 -112 -25 -194t-72.5 -127.5t-118.5 -45.5z" />
    <glyph glyph-name="uni0187" unicode="&#x187;" horiz-adv-x="464" 
d="M275 -10q-75 0 -125.5 45.5t-76 128t-25.5 194.5q0 114 26 196t77.5 126t125.5 44q44 0 78 -12.5t54 -35.5v40q0 36 6.5 63t22 41.5t43.5 14.5q20 0 34.5 -10.5t14.5 -29.5q0 -7 -3 -13t-7 -10q-3 17 -13 27t-25 10q-25 0 -35 -22t-10 -72v-105q0 -20 -5.5 -31.5
t-16.5 -11.5q0 44 -15.5 73.5t-46 44t-78.5 14.5q-67 0 -111.5 -44t-66 -120.5t-21.5 -176.5t21.5 -177.5t66 -121.5t111.5 -44q41 0 69 12.5t46 34.5t29 50q7 -4 10 -10.5t3 -16.5q0 -12 -10.5 -28t-31 -31.5t-49.5 -25.5t-66 -10z" />
    <glyph glyph-name="uni0188" unicode="&#x188;" horiz-adv-x="377" 
d="M220 -10q-47 0 -85 26.5t-60 86.5t-22 160q0 107 21 168t58 86t87 25q32 0 55.5 -9.5t39.5 -24.5v132q0 36 6 62.5t21.5 42t44.5 15.5q21 0 35 -11.5t14 -31.5q0 -9 -2.5 -15t-7.5 -10q-3 19 -13 30t-26 11q-24 0 -34 -23.5t-10 -72.5v-201q0 -10 -4 -17t-9.5 -10
t-11.5 -3q0 34 -10 59t-32 38.5t-58 13.5q-40 0 -71 -22.5t-48 -77.5t-17 -153q0 -86 17.5 -141.5t48.5 -81.5t73 -26q33 0 56.5 14t38.5 36.5t23 45.5q4 -4 6 -10.5t2 -16.5q0 -18 -14.5 -40t-42.5 -38t-69 -16z" />
    <glyph glyph-name="uni0189" unicode="&#x189;" horiz-adv-x="568" 
d="M40 0v20h22q26 0 39 5.5t17 24.5t4 59v252h-90v25h90v222q0 39 -4 57t-16.5 23.5t-37.5 5.5h-24v20h219q86 0 143.5 -44.5t87 -127.5t29.5 -199q0 -109 -27.5 -186t-84.5 -117t-148 -40h-219zM255 25q81 0 133 35t77.5 105.5t25.5 177.5q0 106 -25.5 183.5t-77.5 120
t-132 42.5h-106v-303h185v-25h-185v-336h105z" />
    <glyph glyph-name="uni018A" unicode="&#x18a;" horiz-adv-x="592" 
d="M64 0v20h21q27 0 40 5.5t17 24.5t4 59v513q0 43 -10 57t-36 14q-29 0 -46 -14.5t-17 -38.5q0 -18 8.5 -28t16.5 -16q-2 -3 -6.5 -4.5t-11.5 -1.5q-13 0 -23 12.5t-10 35.5q0 22 10 39t30 27t48 10h184q86 0 143.5 -44.5t87 -127.5t29.5 -199q0 -109 -27.5 -186t-85 -117
t-147.5 -40h-219zM279 25q81 0 133 35t77.5 105.5t25.5 177.5q0 106 -25.5 183.5t-77.5 120t-132 42.5h-106v-664h105z" />
    <glyph glyph-name="uni018B" unicode="&#x18b;" horiz-adv-x="459" 
d="M233 0q-71 0 -116 22t-66.5 65t-21.5 106q0 68 22 110.5t68 62.5t118 20h72v303l-167 -1q-34 0 -44 -15t-12 -58l-2 -53h-20l4 151l350 1v-20h-25q-25 0 -37 -6t-15.5 -24.5t-3.5 -57.5v-498q0 -38 3.5 -57t15.5 -25t37 -6h25v-20h-185zM231 25h78v336h-68
q-98 0 -141 -38t-43 -130q0 -51 16.5 -89t54.5 -58.5t103 -20.5z" />
    <glyph glyph-name="uni018C" unicode="&#x18c;" horiz-adv-x="478" 
d="M210 -10q-47 0 -82 27t-54.5 88t-19.5 162q0 144 40.5 207.5t118.5 63.5q58 0 93 -31.5t51 -85.5h1q-1 16 -1.5 34l-1 36t-0.5 34.5v29.5v180h-177q-24 0 -35.5 -5.5t-15.5 -24t-5 -59.5l-1 -27h-20l2 141h280v-671q0 -31 4 -45.5t18.5 -19t44.5 -4.5h14v-20h-106l-2 93
h-4q-18 -47 -53 -75t-89 -28zM209 15q75 0 111 62t36 191q0 124 -35 184.5t-108 60.5q-69 0 -100 -59t-31 -185q0 -129 33.5 -191.5t93.5 -62.5z" />
    <glyph glyph-name="uni018D" unicode="&#x18d;" horiz-adv-x="446" 
d="M224 546q52 0 91 -29t60 -81t21 -123q0 -72 -19.5 -123t-55.5 -84.5t-87 -52.5q33 -23 57.5 -45.5t37 -48t12.5 -58.5q0 -44 -18.5 -73t-49 -43t-68.5 -14q-42 0 -70.5 15.5t-43 38.5t-14.5 47t8 36t27 12q-6 -39 2.5 -66.5t31.5 -42.5t60 -15q49 0 78 26t29 76
q0 30 -11 51.5t-32.5 41.5t-56.5 43q-53 36 -88.5 72t-52.5 83.5t-17 120.5q0 72 20 125t58 82t91 29zM224 521q-45 0 -76.5 -26.5t-48 -74.5t-16.5 -111q0 -65 15 -109.5t44.5 -76t71.5 -59.5q50 22 84.5 55t52 81t17.5 113q0 61 -17.5 107.5t-49.5 73.5t-77 27z" />
    <glyph glyph-name="uni018E" unicode="&#x18e;" horiz-adv-x="490" 
d="M450 0h-401l-5 164h20l4 -70q2 -29 6.5 -44t18.5 -20t44 -5h206l-2 337h-206v25h206v302h-175q-32 0 -46.5 -5.5t-19 -23t-6.5 -54.5l-2 -56h-20l5 164h373v-20h-25q-25 0 -37 -6t-15.5 -24.5t-3.5 -57.5v-498q0 -38 3.5 -57t15.5 -25t37 -6h25v-20z" />
    <glyph glyph-name="uni018F" unicode="&#x18f;" horiz-adv-x="544" 
d="M267 -10q-60 0 -101.5 28t-67 78t-37 117t-11.5 144v15h416q-1 68 -13 128t-36.5 104.5t-60.5 69.5t-85 25q-66 0 -107.5 -29t-65.5 -70q-3 5 -5 10t-2 13q0 12 12 29t35.5 33.5t57 27.5t75.5 11q72 0 122 -45.5t75.5 -126t25.5 -183.5q-1 -121 -27 -205.5t-76.5 -129
t-123.5 -44.5zM267 15q66 0 109 41.5t65.5 116t24.5 174.5h-388q0 -64 9 -123.5t30 -106.5t58 -74.5t92 -27.5z" />
    <glyph glyph-name="uni0190" unicode="&#x190;" horiz-adv-x="445" 
d="M246 -10q-39 0 -72.5 13t-57.5 38.5t-36.5 62t-12.5 83.5q0 43 9.5 75t26 54.5t39 35.5t47.5 19q-39 11 -65.5 33.5t-40 58t-13.5 82.5q0 54 21 94.5t61 62.5t96 22q45 0 75.5 -12t48.5 -30t26 -39t8 -39q0 -13 -3 -22t-8 -13.5t-12 -4.5q0 35 -10 66t-38.5 50t-86.5 19
q-53 0 -86 -21t-48.5 -56.5t-15.5 -77.5q0 -49 17 -85.5t49 -56t77 -19.5h67v-25h-65q-68 0 -108 -45t-40 -125q0 -59 21 -97t55.5 -57t74.5 -19q46 0 76 13.5t48 35t28 46.5q8 -2 12 -8.5t4 -16.5q0 -13 -17 -35.5t-53.5 -41t-97.5 -18.5z" />
    <glyph glyph-name="uni0191" unicode="&#x191;" horiz-adv-x="572" 
d="M114 -240q-45 0 -72 17t-38.5 42.5t-11.5 52.5q0 15 2.5 25t7 14.5t11.5 4.5q0 -65 23 -98t79 -33q62 0 89.5 42.5t27.5 119.5v659q0 39 -3.5 57.5t-15.5 24.5t-37 6h-25v20h374l5 -163h-20l-3 65q-1 29 -4.5 44.5t-16 22t-39.5 6.5h-187v-306h208v-25h-208v-414
q0 -56 -16 -97.5t-48.5 -64t-81.5 -22.5z" />
    <glyph glyph-name="fhook" unicode="&#x192;" horiz-adv-x="338" 
d="M91 -240q-35 0 -56.5 13t-31 33.5t-9.5 41.5q0 15 2.5 25t7 15t11.5 5q0 -39 8 -63t25 -34.5t43 -10.5q42 0 64.5 31t22.5 98v597h-78v25h78v65q0 85 34 128t96 43q26 0 45.5 -9t30.5 -25.5t11 -40.5q0 -12 -3.5 -21t-8 -13.5t-10.5 -4.5q0 28 -5 47.5t-19.5 30.5
t-41.5 11q-54 0 -77.5 -41.5t-23.5 -105.5v-64h120v-25h-120v-599q0 -50 -14 -84t-40 -51t-61 -17z" />
    <glyph glyph-name="uni0193" unicode="&#x193;" horiz-adv-x="542" 
d="M313 -10q-90 0 -148.5 43.5t-87.5 126t-29 198.5q0 129 33.5 209.5t94 118.5t143.5 38q46 0 78.5 -13t50.5 -33v38q0 36 6.5 62.5t22 41.5t43.5 15q20 0 34.5 -10.5t14.5 -28.5q0 -8 -3 -14t-8 -10q-3 17 -12.5 27t-24.5 10q-23 0 -34 -21t-11 -73v-105q0 -15 -3 -25.5
t-7.5 -15t-11.5 -4.5q0 39 -12 69.5t-42 47.5t-82 17q-78 0 -131.5 -37.5t-82 -113t-28.5 -190.5q0 -109 24.5 -185.5t77.5 -117t138 -40.5q40 0 74.5 6t55.5 19v190q0 34 -4 49t-16.5 19.5t-36.5 4.5h-21v20h168v-20h-15q-19 0 -29.5 -4.5t-14 -20t-3.5 -50.5v-201
q-35 -19 -72.5 -28t-88.5 -9z" />
    <glyph glyph-name="uni0194" unicode="&#x194;" horiz-adv-x="539" 
d="M264 -240q-20 0 -38.5 10t-30.5 37t-12 80q0 39 10 84.5t26 91t33 84.5l-182 506q-7 20 -14 28.5t-18 10.5t-30 2h-8v20h185v-20h-26q-38 0 -48.5 -7t-10.5 -19q0 -14 8 -38t16 -46l144 -399l151 408q7 19 14 42t7 36q0 14 -14 18.5t-58 4.5h-16v20h187v-20h-14
q-23 0 -33 -4.5t-16 -21t-19 -50.5l-174 -472q17 -47 31 -91t23 -84.5t9 -78.5q0 -62 -20.5 -97t-61.5 -35zM263 -215q28 0 41.5 26t13.5 74q0 44 -9 84.5t-20.5 76t-21.5 61.5q-15 -36 -28 -75.5t-20.5 -77t-7.5 -68.5q0 -61 15.5 -81t36.5 -20z" />
    <glyph glyph-name="uni0195" unicode="&#x195;" horiz-adv-x="725" 
d="M506 -10q-68 0 -105 45t-37 136v192q0 76 -24.5 115t-85.5 39q-40 0 -69 -19.5t-44.5 -60t-15.5 -103.5v-239q0 -35 4 -50.5t18.5 -20t45.5 -4.5h10v-20h-190v20h15q32 0 46.5 4.5t18.5 20t4 51.5v567q0 35 -4 51.5t-16.5 21t-38.5 4.5h-22v20h109v-269q0 -7 -0.5 -14.5
l-1 -15t-1.5 -15.5h2q9 25 25.5 46.5t43.5 35.5t66 14q63 0 98 -44t35 -135v-186q0 -53 11 -89.5t36.5 -54.5t65.5 -18q48 0 72.5 21t33.5 57.5t9 85.5v252q0 40 -3.5 58t-18 22.5t-45.5 4.5h-15v20h110v-364q0 -54 -14 -95.5t-45.5 -64t-82.5 -22.5z" />
    <glyph glyph-name="uni0196" unicode="&#x196;" horiz-adv-x="274" 
d="M191 -10q-29 0 -43.5 11.5t-19.5 32.5t-5 50v522q0 39 -3.5 57.5t-15.5 24.5t-37 6h-27v20h193v-20h-25q-26 0 -38 -6t-15.5 -24.5t-3.5 -57.5v-508q0 -27 2.5 -46t12 -28t31.5 -9q10 0 19.5 2t17.5 4v-24q-9 -3 -19 -5t-24 -2z" />
    <glyph glyph-name="uni0197" unicode="&#x197;" horiz-adv-x="275" 
d="M40 0v20h27q25 0 37 6t15.5 25t3.5 57v254h-99v25h99v219q0 39 -3.5 57.5t-15.5 24.5t-36 6h-28v20h193v-20h-25q-26 0 -38 -6t-15.5 -24.5t-3.5 -57.5v-219h100v-25h-100v-254q0 -38 3.5 -57t15.5 -25t38 -6h25v-20h-193z" />
    <glyph glyph-name="uni0198" unicode="&#x198;" horiz-adv-x="552" 
d="M40 0v20h25q25 0 37.5 6t16 25t3.5 57v498q0 39 -3.5 57.5t-15.5 24.5t-38 6h-25v20h196v-20h-29q-26 0 -38 -6t-15.5 -24.5t-3.5 -57.5v-323l233 334q22 32 39 55t35.5 35.5t42.5 12.5q25 0 37.5 -13.5t12.5 -33.5q0 -9 -3 -15t-7.5 -9.5t-8.5 -4.5q-1 29 -9.5 39.5
t-22.5 10.5q-20 0 -40.5 -21t-52.5 -67l-133 -192l204 -308q23 -34 37 -52.5t26 -25.5t26 -7h4v-21h-6q-16 0 -28.5 3.5t-24.5 13t-26.5 28t-34.5 48.5l-195 297l-105 -149v-130q0 -40 3.5 -59.5t15.5 -25.5t37 -6h31v-20h-197z" />
    <glyph glyph-name="uni0199" unicode="&#x199;" horiz-adv-x="440" 
d="M16 0v20h10q33 0 48 4.5t19 20t4 50.5v514q0 49 10.5 83.5t32.5 53t56 18.5q23 0 38 -8.5t23 -21t8 -26.5q0 -7 -2.5 -13t-6 -9.5t-9.5 -3.5q-4 15 -9.5 27.5t-16 21t-27.5 8.5q-34 0 -51.5 -33t-17.5 -99v-234v-34v-40t-1 -41t-2 -38l107 138q34 44 55.5 71t30.5 43
t9 24q0 12 -11.5 16t-44.5 4v20h145v-20q-18 0 -30 -6.5t-26.5 -25.5t-40.5 -56l-87 -107l109 -206q27 -55 47 -75t52 -20h6v-20h-9q-21 0 -36 3t-27.5 13.5t-26 31t-32.5 56.5l-101 192l-86 -110v-91q0 -35 4 -50.5t18 -20t44 -4.5h6v-20h-181z" />
    <glyph glyph-name="uni019A" unicode="&#x19a;" horiz-adv-x="219" 
d="M7 0v20h12q36 0 52 4t20 19.5t4 50.5v282h-78v25h78v261q0 37 -4 53.5t-18.5 20.5t-45.5 4h-20v20h116v-359h79v-25h-79v-282q0 -35 4 -50.5t20 -19.5t52 -4h13v-20h-205z" />
    <glyph glyph-name="uni019B" unicode="&#x19b;" horiz-adv-x="413" 
d="M220 487q-7 40 -13.5 72.5t-13.5 57.5l-88 -59v30l81 55q-14 42 -28 64t-29 30t-32 8q-28 1 -41.5 -18t-17.5 -43q-5 4 -8.5 11.5t-3.5 15.5q0 19 16.5 39t54.5 20q20 0 39.5 -8.5t37.5 -32t34 -71.5l88 60v-31l-80 -54q4 -15 8 -31.5t7 -35.5l79 -404q11 -58 23.5 -88.5
t30.5 -41.5t43 -11h4v-21h-8q-37 0 -57 12.5t-30.5 34.5t-18.5 50q-5 22 -12.5 55.5t-15 73t-15.5 79.5t-14 75t-10 58h-3q-8 -21 -18 -45.5t-20.5 -49.5t-19.5 -47l-125 -296h-31z" />
    <glyph glyph-name="uni019C" unicode="&#x19c;" horiz-adv-x="782" 
d="M234 -9q-49 0 -81 23t-47.5 66t-15.5 104v422q0 39 -3.5 57.5t-15.5 24.5t-38 6h-25v20h195v-20h-28q-26 0 -38 -6t-15.5 -24.5t-3.5 -57.5v-420q0 -54 12 -92t37.5 -58t64.5 -20q44 0 73 22t43.5 65t14.5 105v398q0 39 -3.5 57.5t-14.5 24.5t-33 6h-27v20h179v-20h-23
q-22 0 -33 -6t-14 -24.5t-3 -57.5v-424q0 -53 11.5 -90t36 -56.5t64.5 -19.5q43 0 73 26.5t45.5 72t15.5 101.5v390q0 39 -3.5 57.5t-15.5 24.5t-37 6h-30v20h195v-20h-24q-26 0 -38 -6t-15.5 -24.5t-3.5 -57.5v-498q0 -38 3 -57t13.5 -25t32.5 -6h30v-20h-104l-3 92h-2
q-17 -43 -50.5 -72t-82.5 -29q-35 0 -61.5 13.5t-43 39.5t-24.5 63q-9 -30 -25.5 -56t-44 -43t-69.5 -17z" />
    <glyph glyph-name="uni019D" unicode="&#x19d;" horiz-adv-x="606" 
d="M-9 -240v25h6q43 0 70.5 17.5t41 61t13.5 121.5v621q0 39 -3.5 57.5t-15.5 24.5t-36 6h-27v20h103l329 -651v543q0 39 -3 57.5t-15.5 24.5t-40.5 6h-28v20h193v-20h-24q-25 0 -37.5 -6t-16 -24.5t-3.5 -57.5v-606h-25l-325 643v-662q0 -83 -17 -131.5t-50.5 -69
t-84.5 -20.5h-4z" />
    <glyph glyph-name="uni019E" unicode="&#x19e;" horiz-adv-x="515" 
d="M306 -240v20h16q31 0 44.5 4.5t17.5 20.5t4 52v507q0 69 -25 111t-85 42q-44 0 -74.5 -20.5t-46.5 -61.5t-16 -102v-238q0 -35 4 -50.5t18.5 -20t46.5 -4.5h10v-20h-189v20h14q31 0 45.5 4.5t18.5 20.5t4 51v348q0 34 -4.5 49t-18.5 19t-44 4h-11v20h102l3 -80h3
q22 41 52 63.5t81 22.5q73 0 106.5 -44.5t33.5 -136.5v-504q0 -36 4 -52t18 -20.5t43 -4.5h14v-20h-189z" />
    <glyph glyph-name="uni019F" unicode="&#x19f;" horiz-adv-x="577" 
d="M288 -10q-81 0 -134 45.5t-79.5 128t-26.5 195.5q0 118 27 199.5t81 124t132 42.5q84 0 136.5 -40.5t78 -122t25.5 -204.5q0 -115 -27 -197.5t-80.5 -126.5t-132.5 -44zM288 15q106 0 159 90.5t53 254.5h-424q0 -163 55 -254t157 -91zM499 385q-2 100 -23.5 170
t-67 107.5t-119.5 37.5q-105 0 -157 -83t-56 -232h423z" />
    <glyph glyph-name="Ohorn" unicode="&#x1a0;" horiz-adv-x="605" 
d="M288 -10q-81 0 -134 45.5t-79.5 128t-26.5 195.5q0 118 27 199.5t81 124t133 42.5q72 0 122 -31.5t78 -94.5q21 5 36 16.5t23 26.5t8 33q0 10 -4 17t-8.5 13t-8.5 13.5t-4 18.5q0 16 8 24.5t21 8.5q14 0 22.5 -14t8.5 -39q0 -43 -12.5 -72t-33 -46t-47.5 -25
q15 -42 22.5 -96t7.5 -120q0 -115 -27 -197.5t-80.5 -126.5t-132.5 -44zM288 15q72 0 119 41.5t70 118.5t23 183q0 108 -20.5 184.5t-67 117t-123.5 40.5q-109 0 -161 -90t-52 -252q0 -104 23.5 -181t71 -119.5t117.5 -42.5z" />
    <glyph glyph-name="ohorn" unicode="&#x1a1;" horiz-adv-x="460" 
d="M223 -10q-80 0 -125 67.5t-45 209.5q0 139 42.5 207t130.5 68q48 0 81.5 -21t54.5 -64q33 9 50.5 29t17.5 47q0 9 -3.5 16t-8.5 13.5t-9 14t-4 18.5q0 16 8 24.5t18 8.5q15 0 24.5 -14.5t9.5 -38.5q0 -42 -12 -70.5t-33 -45.5t-48 -27q11 -32 16 -73t5 -92
q0 -144 -43 -210.5t-127 -66.5zM224 15q52 0 83 29.5t44.5 86t13.5 136.5q0 126 -32 188t-109 62t-110 -62.5t-33 -187.5q0 -123 34.5 -187.5t108.5 -64.5z" />
    <glyph glyph-name="uni01A2" unicode="&#x1a2;" horiz-adv-x="840" 
d="M646 -240v20h28q21 0 32 5.5t14.5 23.5t3.5 55v692q0 64 -22.5 103.5t-74.5 39.5q-54 0 -87.5 -51.5t-33.5 -161.5v-125q0 -84 -14 -152t-42 -117t-71 -75.5t-102 -26.5q-76 0 -127 45t-76.5 128t-25.5 196q0 112 24.5 194t76 127t133.5 45q55 0 94.5 -21t67 -60
t42.5 -93q7 76 43 124.5t99 48.5q39 0 67 -20t42.5 -56.5t14.5 -86.5v-697q0 -36 3.5 -54.5t14.5 -24t34 -5.5h28v-20h-186zM277 15q52 0 90 24t63 69.5t36.5 112t11.5 151.5v30q0 90 -21.5 157t-65 104t-110.5 37q-72 0 -117 -41.5t-66.5 -118t-21.5 -182.5
q0 -159 51.5 -251t149.5 -92z" />
    <glyph glyph-name="uni01A3" unicode="&#x1a3;" horiz-adv-x="631" 
d="M512 402q0 55 -14 85t-48 30q-24 0 -40.5 -17t-24 -51t-7.5 -85v-102q0 -143 -42 -207.5t-120 -64.5q-77 0 -120 66.5t-43 210.5q0 145 42 210t124 65q49 0 84.5 -27t52.5 -82h3q6 52 29 80.5t62 28.5q30 0 49.5 -14.5t30 -45t10.5 -77.5v-549q0 -36 4 -52t17 -20.5
t40 -4.5h15v-19h-104v642zM216 15q47 0 76.5 27.5t43.5 83.5t14 141q0 129 -31 189.5t-101 60.5q-73 0 -105 -60.5t-32 -189.5q0 -125 33.5 -188.5t101.5 -63.5z" />
    <glyph glyph-name="uni01A4" unicode="&#x1a4;" horiz-adv-x="497" 
d="M65 0v20h25q25 0 37 6t15.5 25t3.5 58v509q0 47 -9.5 61t-36.5 14q-30 0 -46.5 -14.5t-15.5 -38.5q0 -18 8.5 -28t16.5 -16q-3 -3 -7.5 -4.5t-10.5 -1.5q-13 0 -23.5 12.5t-10.5 35.5q0 22 10.5 39t30.5 27t48 10h167q98 0 142.5 -51.5t44.5 -153.5q0 -43 -10 -83
t-33.5 -72t-62 -51t-95.5 -19h-79v-176q0 -38 3.5 -57t15.5 -25t37 -6h39v-20h-204zM255 309q51 0 84 18t52 46.5t27 64.5t8 71q0 89 -36.5 134.5t-122.5 45.5h-93v-380h81z" />
    <glyph glyph-name="uni01A5" unicode="&#x1a5;" horiz-adv-x="482" 
d="M20 -240v20h11q32 0 46.5 4.5t18.5 20.5t4 52v752q0 49 10 83.5t32 53t56 18.5q25 0 40 -8.5t22 -21.5t7 -27q0 -7 -2 -12.5t-6 -9t-9 -3.5q-4 15 -10 27.5t-16 21t-27 8.5q-34 0 -51.5 -33t-17.5 -99v-46q0 -31 -0.5 -62t-1.5 -61h4q17 47 49 77.5t88 30.5q82 0 122 -63
t40 -204q0 -149 -43 -219t-116 -70q-56 0 -90.5 31t-51.5 84h-1v-20v-27t0.5 -33t0.5 -39v-129q0 -36 4 -52t18 -20.5t45 -4.5h19v-20h-194zM270 15q68 0 99.5 70.5t31.5 192.5q0 123 -31.5 183t-102.5 60q-47 0 -78.5 -29.5t-46 -84.5t-14.5 -130q0 -79 13 -137.5
t44.5 -91.5t84.5 -33z" />
    <glyph glyph-name="uni01A6" unicode="&#x1a6;" horiz-adv-x="499" 
d="M503 -120q-34 1 -54.5 9t-35.5 28t-33 53l-127 236h-102v-98q0 -38 3.5 -57t15.5 -25t37 -6h26v-20h-193v20h27q25 0 37 6t15.5 25t3.5 57v498q0 39 -3.5 57.5t-15.5 24.5t-38 6h-26v20h193v-20h-26q-25 0 -37 -6t-15.5 -24.5t-3.5 -57.5v-22h65q71 0 114 -19.5t62.5 -59
t19.5 -101.5q0 -59 -17.5 -96.5t-47 -59.5t-67.5 -33l124 -229q22 -41 44 -62.5t53 -21.5h4v-22h-2zM210 231q86 0 130 44t44 130q0 50 -14.5 84.5t-50 52t-100.5 17.5h-68v-328h59z" />
    <glyph glyph-name="uni01A7" unicode="&#x1a7;" horiz-adv-x="411" 
d="M208 -10q-53 0 -88.5 21.5t-54 61t-18.5 92.5q0 60 21 98t54.5 64.5t73.5 50.5q42 24 69.5 47.5t41.5 55t14 77.5q0 61 -30 101t-90 40q-38 0 -64 -15.5t-40 -43.5t-14 -66q-7 0 -14 8.5t-7 32.5t16.5 49.5t47.5 42.5t75 17q46 0 79.5 -21t51 -57t17.5 -81
q0 -56 -17.5 -94t-48 -65t-72.5 -52q-48 -28 -78.5 -53t-44 -56t-13.5 -81q0 -71 34.5 -110t99.5 -39q40 0 66 13t43 35t31 47q4 -3 6.5 -8.5t2.5 -15.5q0 -11 -9 -27t-27.5 -32t-46.5 -26.5t-67 -10.5z" />
    <glyph glyph-name="uni01A8" unicode="&#x1a8;" horiz-adv-x="341" 
d="M174 -10q-58 0 -93 36.5t-35 98.5q0 31 9 57.5t33 52t70 51.5q32 20 55 39.5t34.5 43t11.5 51.5q0 41 -20.5 68.5t-65.5 27.5q-47 0 -71 -26.5t-24 -84.5q-9 0 -15.5 11.5t-6.5 33.5q0 24 14 45t40 33.5t62 12.5t61.5 -15t39.5 -42t14 -63q0 -33 -11.5 -59t-37 -49.5
t-67.5 -51.5q-41 -24 -62 -45.5t-28 -43t-7 -47.5q0 -51 26 -80.5t74 -29.5q32 0 53 14t33.5 35t19.5 44q5 -3 8 -11.5t3 -21.5q0 -16 -13 -36t-39 -34.5t-65 -14.5z" />
    <glyph glyph-name="uni01A9" unicode="&#x1a9;" horiz-adv-x="490" 
d="M24 0v20l197 334l-181 340v20h335l7 -163h-20l-5 75q-1 23 -4.5 37t-15.5 20t-40 6h-218l171 -323v-13l-193 -328h258q32 0 42 13.5t11 37.5l5 87h20l-7 -163h-362z" />
    <glyph glyph-name="uni01AA" unicode="&#x1aa;" horiz-adv-x="263" 
d="M187 -240q-32 0 -51 14.5t-27.5 45t-8.5 77.5v680q-6 -11 -20 -19.5t-34 -8.5q-39 0 -60 30t-21 73q0 51 24 78.5t59 27.5q39 0 59.5 -26.5t20.5 -76.5v-757q0 -63 14 -88t49 -25q16 0 28 2t24 6v-25q-11 -4 -24.5 -6t-31.5 -2zM46 574q29 0 41.5 22t12.5 59
q0 38 -13.5 58t-38.5 20q-26 0 -40.5 -22t-14.5 -59t14 -57.5t39 -20.5z" />
    <glyph glyph-name="uni01AB" unicode="&#x1ab;" horiz-adv-x="246" 
d="M154 -204q-23 0 -38 11t-15 31q0 10 4 16t9 11q1 -19 10.5 -31t26.5 -12q25 0 35.5 20.5t10.5 72.5v97h27v-99q0 -37 -6 -63.5t-21 -40t-43 -13.5zM177 -10q-53 0 -75 33t-22 118v370h-66v19q20 2 33 7.5t21 14.5q12 15 15.5 40.5t4.5 64.5h20v-121h108v-25h-108v-373
q0 -72 16.5 -97.5t51.5 -25.5q13 0 23.5 1.5l24.5 3.5v-25q-13 -2 -25 -3.5t-22 -1.5z" />
    <glyph glyph-name="uni01AC" unicode="&#x1ac;" horiz-adv-x="498" 
d="M145 0v20h42q26 0 38 6t15.5 25t3.5 57v581h-130q-24 0 -41 -8t-26 -22t-9 -32q0 -22 8.5 -34t17.5 -18q-3 -3 -7 -4.5t-10 -1.5q-14 0 -25.5 14.5t-11.5 42.5q0 23 11.5 43t33.5 32.5t56 12.5h355l4 -151h-20l-2 58q-1 42 -12 55t-49 13h-115v-581q0 -38 3.5 -57
t15.5 -25t37 -6h42v-20h-225z" />
    <glyph glyph-name="uni01AD" unicode="&#x1ad;" horiz-adv-x="246" 
d="M177 -10q-35 0 -56.5 14t-31 47.5t-9.5 89.5v370h-66v19q25 2 39 9t20.5 23t7.5 44q1 50 9 84t25 51.5t44 17.5q22 0 33 -12t11 -25q0 -9 -4.5 -15t-12.5 -7q-3 17 -10 25t-21 8q-26 0 -36.5 -32.5t-10.5 -95.5v-69h108v-25h-108v-373q0 -72 16.5 -97.5t51.5 -25.5
q13 0 23.5 1.5l24.5 3.5v-25q-13 -2 -25 -3.5t-22 -1.5z" />
    <glyph glyph-name="uni01AE" unicode="&#x1ae;" horiz-adv-x="474" 
d="M286 -240q-35 0 -50 23.5t-15 75.5v830h-111q-38 0 -49 -12.5t-13 -52.5l-2 -61h-20l4 151h412l5 -151h-20l-2 58q-1 28 -5.5 42.5t-17.5 20t-39 5.5h-114v-829q0 -42 9 -58.5t32 -16.5q15 0 27.5 4.5t22.5 8.5v-25q-11 -4 -23.5 -8.5t-30.5 -4.5z" />
    <glyph glyph-name="Uhorn" unicode="&#x1af;" horiz-adv-x="584" 
d="M281 -10q-56 0 -99 22.5t-67 72t-24 129.5v394q0 37 -3.5 55.5t-15.5 24.5t-37 6h-24v20h193v-20h-30q-24 0 -35.5 -5.5t-15.5 -24.5t-4 -58v-396q0 -101 44 -148t118 -47q61 0 97.5 28t53 72t16.5 92v399q0 39 -3.5 57.5t-15.5 24.5t-37 6h-29v20h113v-115
q22 8 35.5 19.5t20.5 26t7 30.5q0 10 -4 17t-9 13t-9 13.5t-4 18.5q0 16 8 24.5t19 8.5q15 0 23.5 -14t8.5 -39q0 -31 -6.5 -55t-19 -41.5t-30.5 -29.5t-40 -19v-367q0 -58 -21 -107t-64 -78.5t-110 -29.5z" />
    <glyph glyph-name="uhorn" unicode="&#x1b0;" horiz-adv-x="499" 
d="M235 -10q-68 0 -103.5 45.5t-35.5 148.5v259q0 34 -4 49.5t-19 19.5t-48 4h-12v20h111v-354q0 -53 11 -90.5t35.5 -57t65.5 -19.5q46 0 76 26.5t45 69.5t15 92v228q0 40 -3.5 58t-18 22.5t-49.5 4.5h-9v20h108v-83q22 8 36.5 20.5t21 28t6.5 31.5q0 10 -4 17t-8.5 13
t-8.5 13.5t-4 18.5q0 16 8 24.5t18 8.5q15 0 24 -14t9 -39q0 -31 -6.5 -55t-19.5 -42t-31.5 -30t-40.5 -19v-330q0 -38 4 -54.5t19 -20.5t47 -4h11v-20h-105l-2 81h-4q-12 -25 -30.5 -46t-44 -33t-60.5 -12z" />
    <glyph glyph-name="uni01B1" unicode="&#x1b1;" horiz-adv-x="577" 
d="M288 -10q-79 0 -132.5 43.5t-80.5 123t-27 187.5q0 69 9 120t23 90t28 69q13 24 17.5 36t4.5 19q0 9 -6 12.5t-30 3.5h-50v20h131v-20q-35 -61 -57.5 -115.5t-32 -110.5t-9.5 -124q0 -101 24.5 -175t72 -114t115.5 -40q70 0 117 40.5t71 114.5t24 174q0 68 -10 124
t-31.5 110.5t-58.5 115.5v20h132v-20h-50q-24 0 -30 -3.5t-6 -12.5q0 -7 5 -19t16 -36q16 -30 29 -69t22.5 -90t9.5 -120q0 -108 -27 -187.5t-80.5 -123t-132.5 -43.5z" />
    <glyph glyph-name="uni01B2" unicode="&#x1b2;" horiz-adv-x="537" 
d="M218 -10q-41 0 -69.5 20t-43 62t-14.5 106v430q0 37 -3.5 55.5t-15.5 24.5t-37 6h-24v20h193v-20h-28q-25 0 -37 -5.5t-16 -24.5t-4 -58v-429q0 -85 27 -123.5t73 -38.5q47 0 87 28t70.5 77.5t52 113.5t32.5 136.5t11 145.5q0 80 -10 120.5t-31.5 54.5t-54.5 14
q0 9 8.5 15.5t22.5 6.5q30 0 50.5 -20t31.5 -66t11 -124q0 -77 -12 -153t-36 -143.5t-58 -119.5t-78 -81.5t-98 -29.5z" />
    <glyph glyph-name="uni01B3" unicode="&#x1b3;" horiz-adv-x="491" 
d="M127 0v20h33q25 0 37 6t15.5 25t3.5 57v246l-158 297q-10 21 -18.5 30t-18 11t-26.5 2h-4v20h161v-20h-32q-27 0 -33.5 -4t-6.5 -12t6.5 -20.5t16.5 -31.5l62 -118q17 -32 33 -63.5t31 -62.5q8 15 19.5 37.5t28.5 54.5l64 123q20 40 35.5 67.5t33 42t43.5 14.5
q23 0 35.5 -12.5t12.5 -31.5q0 -11 -4.5 -18.5t-10.5 -8.5q-3 20 -10.5 31.5t-25.5 11.5q-17 0 -29.5 -12t-25.5 -35t-30 -57l-121 -233v-248q0 -38 3.5 -57t15.5 -25t37 -6h33v-20h-206z" />
    <glyph glyph-name="uni01B4" unicode="&#x1b4;" horiz-adv-x="500" 
d="M42 -215q47 0 75 10.5t46 34.5t33 65.5t35 102.5l-153 459q-9 28 -15.5 40.5t-17.5 15.5t-36 3h-1v20h152v-20h-7q-32 0 -43.5 -3.5t-11.5 -17.5q0 -9 7 -29.5t17 -51.5l64 -193q12 -38 23.5 -73t20.5 -64t14 -48q7 29 18 68.5t25 87.5l63 218q14 48 26 79t29 45.5
t43 14.5q18 0 31 -9.5t13 -26.5q0 -13 -4.5 -19.5t-11.5 -9.5q-1 21 -9.5 29.5t-20.5 8.5q-26 0 -39.5 -29.5t-31.5 -92.5l-121 -416q-21 -71 -39.5 -115t-41 -67.5t-53.5 -32.5t-76 -9h-2v25z" />
    <glyph glyph-name="uni01B5" unicode="&#x1b5;" horiz-adv-x="423" 
d="M24 0v22l167 340h-118v25h129l149 302h-228q-39 0 -49.5 -13t-11.5 -49l-2 -50h-20l4 137h339v-23l-149 -304h117v-25h-130l-165 -337h253q24 0 36 5.5t16.5 18.5t5.5 38l3 51h20l-4 -138h-362z" />
    <glyph glyph-name="uni01B6" unicode="&#x1b6;" horiz-adv-x="409" 
d="M56 0v22l124 241h-104v25h117l114 223h-164q-39 0 -49.5 -13t-14.5 -54l-2 -24h-20l8 116h275v-22l-116 -226h88v-25h-101l-123 -238h170q26 0 39.5 5t18.5 20t6 46l2 42h20l-5 -138h-283z" />
    <glyph glyph-name="uni01B7" unicode="&#x1b7;" horiz-adv-x="468" 
d="M208 -10q-44 0 -74.5 11t-50.5 28.5t-29 37.5t-9 39q0 13 2.5 21t7.5 12.5t11 4.5q0 -36 14.5 -65t46 -46.5t80.5 -17.5q47 0 84 18t59 58t22 106q0 54 -17.5 92t-59 58t-110.5 20h-36l-1 24l207 296h-200q-36 0 -45.5 -11.5t-11.5 -50.5l-2 -29h-20l3 118h314v-20
l-212 -302q62 0 104 -13t67.5 -38.5t36.5 -62t11 -82.5q0 -69 -24.5 -115t-68 -68.5t-99.5 -22.5z" />
    <glyph glyph-name="uni01B8" unicode="&#x1b8;" horiz-adv-x="470" 
d="M258 -10q-56 0 -99 22t-66.5 66t-23.5 110q0 62 22.5 108t71 72t126.5 26l-207 300v20h313l3 -114h-20l-1 25q-2 27 -5.5 40.5t-15.5 18.5t-37 5h-198l201 -296v-25h-42q-92 0 -137.5 -49t-45.5 -130q0 -63 21 -101t57.5 -55.5t82.5 -17.5q34 0 60.5 10.5t46.5 27.5
t32 38q5 -2 8 -8t3 -12q0 -12 -11.5 -26t-31.5 -26.5t-47.5 -20.5t-59.5 -8z" />
    <glyph glyph-name="uni01B9" unicode="&#x1b9;" horiz-adv-x="393" 
d="M214 -240q-40 0 -73 15t-57 43.5t-37 69.5t-13 94q0 52 11 94t34.5 72t61.5 47.5t90 20.5l-184 299v21h293l6 -107h-20l-2 23q-3 36 -12.5 47.5t-45.5 11.5h-185l182 -298v-23h-23q-62 0 -101 -25.5t-58 -71.5t-19 -109q0 -65 20 -109.5t54.5 -67t77.5 -22.5q35 0 60 12
t42 30.5t24 40.5q5 -2 8.5 -7.5t3.5 -15.5q0 -17 -16.5 -36.5t-47 -34t-74.5 -14.5z" />
    <glyph glyph-name="uni01BA" unicode="&#x1ba;" horiz-adv-x="384" 
d="M179 -240q-28 0 -52.5 5t-43.5 17.5t-30 33.5t-11 52q0 41 20.5 65t54 37t72.5 21q47 10 76 30.5t42.5 51.5t13.5 69q0 39 -17.5 68.5t-53 46t-90.5 16.5h-19v28l161 210h-160q-24 0 -35.5 -4t-15 -16.5t-5.5 -38.5l-2 -23h-20l4 107h269v-21l-164 -214
q65 -4 103.5 -25.5t55.5 -55.5t17 -77q0 -35 -9 -63.5t-28 -50.5t-49.5 -38t-72.5 -25q-40 -9 -66.5 -21.5t-40 -30.5t-13.5 -45q0 -41 26.5 -62.5t81.5 -21.5q61 0 94.5 26t47.5 70q3 -5 4.5 -12t1.5 -14q0 -20 -16.5 -42t-48.5 -37.5t-82 -15.5z" />
    <glyph glyph-name="uni01BB" unicode="&#x1bb;" horiz-adv-x="449" 
d="M52 0v22l175 271q17 25 31 48.5t26 44.5h-201v25h214q24 45 36 85.5t12 81.5t-11 76.5t-37 57.5t-75 22q-46 0 -73.5 -19.5t-39.5 -51t-12 -68.5q-5 0 -11 4t-9 13t-3 24q0 24 15 53t48 49.5t85 20.5q78 0 114.5 -49.5t36.5 -127.5q0 -31 -5.5 -60t-15 -56.5t-23.5 -54.5
h62v-25h-76q-7 -14 -15.5 -28.5t-18 -29.5t-19.5 -30l-175 -271h220q31 0 45 6t18.5 21t4.5 41l1 35h20l-3 -130h-341z" />
    <glyph glyph-name="uni01BC" unicode="&#x1bc;" horiz-adv-x="462" 
d="M203 -10q-45 0 -76.5 13t-51 32.5t-29 41.5t-9.5 39q0 21 6 31t15 10q-1 -35 13.5 -67.5t46.5 -53.5t86 -21q79 0 125 47.5t46 143.5q0 46 -11.5 81t-36 59t-63.5 36t-94 12h-58v216q0 37 -4 55t-17.5 23.5t-42.5 5.5h-13v20h341l4 -158h-20l-3 67q-1 27 -5 41
t-16.5 19.5t-39.5 5.5h-156v-270h24q85 0 137.5 -24t77 -71.5t24.5 -117.5q0 -41 -9 -75t-26 -60.5t-41 -44.5t-55 -27t-69 -9z" />
    <glyph glyph-name="uni01BD" unicode="&#x1bd;" horiz-adv-x="378" 
d="M173 -10q-48 0 -77.5 17.5t-43 42.5t-13.5 49q0 11 3 19t8 12.5t11 4.5q0 -35 12 -62.5t36.5 -42.5t64.5 -15q64 0 94 37.5t30 101.5q0 47 -13.5 78t-42 47t-75.5 16h-72v156q0 30 -3.5 43.5t-16.5 17.5t-40 4v20h259l5 -128h-20l-2 28q-2 34 -6 50t-15 20.5t-33 4.5
h-100v-191h43q55 0 90 -19.5t52.5 -56.5t17.5 -90q0 -70 -36.5 -117t-116.5 -47z" />
    <glyph glyph-name="uni01BE" unicode="&#x1be;" horiz-adv-x="331" 
d="M163 -10q-39 0 -67 17t-42.5 42t-14.5 50q0 10 3 18t8 13t14 5q0 -37 10.5 -64.5t33.5 -41.5t56 -14q47 0 72 27.5t25 80.5q0 26 -6.5 44.5t-18.5 33.5t-30 27q-26 20 -43.5 40t-26.5 48.5t-10 73.5v121h-65v19q19 2 32.5 7.5t20.5 14.5q13 15 16.5 40.5t3.5 64.5h20
v-121h108v-25h-108v-124q1 -36 7 -59.5t19.5 -39.5t33.5 -32q26 -18 42.5 -37t24.5 -41.5t8 -55.5q0 -44 -16.5 -73.5t-44.5 -44t-65 -14.5z" />
    <glyph glyph-name="uni01BF" unicode="&#x1bf;" horiz-adv-x="482" 
d="M20 -240v20h11q32 0 46.5 4.5t18.5 20.5t4 52v584q0 35 -4 50.5t-18.5 20t-48.5 4.5h-27v20h123l2 -99h3q17 47 50 78t88 31t90 -28.5t52.5 -81t17.5 -122.5q0 -54 -11.5 -102.5t-35 -89t-59 -71.5t-84 -49.5t-110.5 -23.5v-121q0 -36 4 -52t18 -20.5t45 -4.5h19v-20
h-194zM128 3q71 5 122.5 30.5t84 67.5t48 96t15.5 116q0 64 -13.5 110.5t-42 72t-73.5 25.5q-48 0 -79.5 -29.5t-46.5 -84t-15 -130.5v-274z" />
    <glyph glyph-name="uni01C0" unicode="&#x1c0;" horiz-adv-x="344" 
d="M158 0v760h28v-760h-28z" />
    <glyph glyph-name="uni01C1" unicode="&#x1c1;" horiz-adv-x="464" 
d="M292 0v760h28v-760h-28zM144 0v760h28v-760h-28z" />
    <glyph glyph-name="uni01C2" unicode="&#x1c2;" horiz-adv-x="458" 
d="M215 0v291h-173v25h173v126h-173v25h173v293h28v-293h173v-25h-173v-126h173v-25h-173v-291h-28z" />
    <glyph glyph-name="uni01C3" unicode="&#x1c3;" horiz-adv-x="233" 
d="M105 167l-2 547h28l-1 -547h-25zM117 -5q-12 0 -21 8.5t-9 30.5q0 23 9 31.5t21 8.5q11 0 19.5 -8.5t8.5 -31.5q0 -22 -8.5 -30.5t-19.5 -8.5z" />
    <glyph glyph-name="uni01C4" unicode="&#x1c4;" horiz-adv-x="992" 
d="M40 0v20h21q27 0 40 5.5t17 24.5t4 59v499q0 39 -4 57t-16.5 23.5t-39.5 5.5h-22v20h219q86 0 143.5 -44.5t87 -127.5t29.5 -199q0 -109 -27.5 -186t-84.5 -117t-148 -40h-219zM255 25q81 0 133 35t77.5 105.5t25.5 177.5q0 106 -25.5 183.5t-77.5 120t-132 42.5h-106
v-664h105zM592 0v22l327 667h-229q-39 0 -49 -14t-12 -55l-1 -43h-20l4 137h339v-23l-327 -666h252q26 0 38.5 6t16.5 20.5t5 41.5l2 45h20l-4 -138h-362zM758 771q-7 23 -20 49.5t-27.5 52.5t-27.5 45v13h6q20 -21 35.5 -39t28.5 -37t26 -43q12 24 24.5 43t28 37t35.5 39h6
v-13q-13 -19 -27 -45t-27 -52.5t-22 -49.5h-39z" />
    <glyph glyph-name="uni01C5" unicode="&#x1c5;" horiz-adv-x="975" 
d="M40 0v20h21q27 0 40 5.5t17 24.5t4 59v499q0 39 -4 57t-16.5 23.5t-39.5 5.5h-22v20h219q86 0 143.5 -44.5t87 -127.5t29.5 -199q0 -109 -27.5 -186t-84.5 -117t-148 -40h-219zM255 25q81 0 133 35t77.5 105.5t25.5 177.5q0 106 -25.5 183.5t-77.5 120t-132 42.5h-106
v-664h105zM623 0v22l251 489h-165q-39 0 -49 -14t-14 -55l-2 -22h-20l8 116h275v-22l-252 -489h173q39 0 49 14t12 56l2 43h20l-5 -138h-283zM762 606q-7 23 -20 49.5t-27.5 52.5t-27.5 45v13h6q20 -21 35.5 -39t28.5 -37t26 -43q12 24 24.5 43t28 37t35.5 39h6v-13
q-13 -19 -27 -45t-27 -52.5t-22 -49.5h-39z" />
    <glyph glyph-name="uni01C6" unicode="&#x1c6;" horiz-adv-x="887" 
d="M218 -10q-51 0 -88 28t-56.5 89t-19.5 160q0 100 20 161t56.5 88.5t87.5 27.5q54 0 87.5 -27.5t50.5 -72.5h4q-2 24 -3 49.5t-1 50.5v114q0 39 -4 56t-17.5 21.5t-41.5 4.5h-11v20h102v-672q0 -31 4.5 -45.5t19 -18.5t44.5 -4h11v-20h-103l-4 100h-2q-18 -49 -50.5 -79.5
t-85.5 -30.5zM217 15q70 0 105 65.5t35 184.5q0 124 -29.5 189t-106.5 65q-46 0 -76.5 -26t-46.5 -82t-16 -147q0 -129 36.5 -189.5t98.5 -59.5zM534 0v22l251 489h-165q-39 0 -49 -14t-14 -55l-2 -22h-20l8 116h275v-22l-252 -489h173q39 0 49 14t12 56l2 43h20l-5 -138
h-283zM675 606q-7 23 -20 49.5t-27.5 52.5t-27.5 45v13h6q20 -21 35.5 -39t28.5 -37t26 -43q12 24 24.5 43t28 37t35.5 39h6v-13q-13 -19 -27 -45t-27 -52.5t-22 -49.5h-39z" />
    <glyph glyph-name="uni01C7" unicode="&#x1c7;" horiz-adv-x="775" 
d="M501 -240v25h3q45 0 71.5 19t37.5 63t11 117v622q0 39 -3.5 57.5t-15.5 24.5t-37 6h-27v20h193v-20h-26q-25 0 -37 -6t-15.5 -24.5t-3.5 -57.5v-621q0 -64 -9.5 -107t-27.5 -69t-45.5 -37.5t-66.5 -11.5h-2zM40 0v20h26q25 0 37 6t15.5 25t3.5 57v498q0 39 -3.5 57.5
t-15.5 24.5t-37 6h-26v20h193v-20h-27q-25 0 -37 -6t-15.5 -24.5t-3.5 -57.5v-581h213q26 0 38.5 6t16.5 21t5 42l3 111h20l-5 -205h-401z" />
    <glyph glyph-name="uni01C8" unicode="&#x1c8;" horiz-adv-x="697" 
d="M40 0v20h26q25 0 37 6t15.5 25t3.5 57v498q0 39 -3.5 57.5t-15.5 24.5t-37 6h-26v20h193v-20h-27q-25 0 -37 -6t-15.5 -24.5t-3.5 -57.5v-581h213q26 0 38.5 6t16.5 21t5 42l3 111h20l-5 -205h-401zM504 -240v25h7q29 0 50 18t32 61.5t11 119.5v455q0 35 -3.5 51
t-16.5 21t-39 5h-14v20h101v-551q0 -90 -15.5 -139t-42 -67.5t-59.5 -18.5h-11zM613 658q-10 0 -16.5 8t-6.5 32q0 23 6.5 31.5t16.5 8.5t16.5 -8.5t6.5 -31.5q0 -24 -6.5 -32t-16.5 -8z" />
    <glyph glyph-name="uni01C9" unicode="&#x1c9;" horiz-adv-x="427" 
d="M236 -240v25h7q29 0 50 18t32 61.5t11 119.5v455q0 35 -3.5 51t-16.5 21t-39 5h-14v20h101v-551q0 -90 -15.5 -139t-42 -67.5t-59.5 -18.5h-11zM345 658q-10 0 -16.5 8t-6.5 32q0 23 6.5 31.5t16.5 8.5t16.5 -8.5t6.5 -31.5q0 -24 -6.5 -32t-16.5 -8zM7 0v20h11
q37 0 53 4t20 19.5t4 50.5v568q0 37 -4 53.5t-18.5 20.5t-44.5 4h-21v20h116v-666q0 -35 4 -50.5t20.5 -19.5t52.5 -4h12v-20h-205z" />
    <glyph glyph-name="uni01CA" unicode="&#x1ca;" horiz-adv-x="898" 
d="M623 -240v25h3q45 0 71.5 19t37.5 63t11 117v622q0 39 -3.5 57.5t-15.5 24.5t-37 6h-27v20h193v-20h-26q-25 0 -37 -6t-15.5 -24.5t-3.5 -57.5v-621q0 -64 -9.5 -107t-27.5 -69t-45.5 -37.5t-66.5 -11.5h-2zM40 0v20h26q25 0 37 6t15.5 25t3.5 57v498q0 39 -3.5 57.5
t-15.5 24.5t-37 6h-26v20h103l329 -651v543q0 39 -3.5 57.5t-15.5 24.5t-37 6h-31v20h193v-20h-25q-25 0 -37 -6t-15.5 -24.5t-3.5 -57.5v-606h-25l-325 643v-535q0 -38 3.5 -57t15.5 -25t37 -6h32v-20h-195z" />
    <glyph glyph-name="uni01CB" unicode="&#x1cb;" horiz-adv-x="820" 
d="M40 0v20h26q25 0 37 6t15.5 25t3.5 57v498q0 39 -3.5 57.5t-15.5 24.5t-37 6h-26v20h103l329 -651v543q0 39 -3.5 57.5t-15.5 24.5t-37 6h-31v20h193v-20h-25q-25 0 -37 -6t-15.5 -24.5t-3.5 -57.5v-606h-25l-325 643v-535q0 -38 3.5 -57t15.5 -25t37 -6h32v-20h-195z
M627 -240v25h7q29 0 50 18t32 61.5t11 119.5v455q0 35 -3.5 51t-16.5 21t-39 5h-14v20h101v-551q0 -90 -15.5 -139t-42 -67.5t-59.5 -18.5h-11zM736 658q-10 0 -16.5 8t-6.5 32q0 23 6.5 31.5t16.5 8.5t16.5 -8.5t6.5 -31.5q0 -24 -6.5 -32t-16.5 -8z" />
    <glyph glyph-name="uni01CC" unicode="&#x1cc;" horiz-adv-x="724" 
d="M531 -240v25h7q29 0 50 18t32 61.5t11 119.5v455q0 35 -3.5 51t-16.5 21t-39 5h-14v20h101v-551q0 -90 -15.5 -139t-42 -67.5t-59.5 -18.5h-11zM640 658q-10 0 -16.5 8t-6.5 32q0 23 6.5 31.5t16.5 8.5t16.5 -8.5t6.5 -31.5q0 -24 -6.5 -32t-16.5 -8zM38 0v20h12
q33 0 48 4.5t18.5 20.5t3.5 51v345q0 35 -4 51t-18 20t-45 4h-11v20h102l4 -80h2q22 42 53 64t80 22q74 0 107 -44t33 -137v-266q0 -35 4 -50.5t18.5 -20t45.5 -4.5h7v-20h-103v364q0 69 -25 111t-85 42q-44 0 -74.5 -20.5t-46.5 -61.5t-16 -102v-238q0 -35 4 -50.5t19 -20
t47 -4.5h9v-20h-189z" />
    <glyph glyph-name="uni01CD" unicode="&#x1cd;" horiz-adv-x="543" 
d="M-3 0v20h17q19 0 29 5t17.5 20.5t16.5 47.5l186 621h19l195 -655q5 -17 10.5 -25.5t15 -11t28.5 -2.5h12v-20h-172v20h25q34 0 43 6.5t9 21.5q0 7 -3.5 20t-7.5 28t-8 26l-39 129h-236l-36 -117q-3 -12 -8.5 -29.5t-9.5 -33t-4 -24.5q0 -14 10.5 -20.5t43.5 -6.5h31v-20
h-184zM162 276h221l-64 221q-10 35 -19 65.5t-16 56t-12 42.5q-3 -16 -10.5 -41t-15.5 -53.5t-16 -55.5zM253 771q-7 23 -20 49.5t-27.5 52.5t-27.5 45v13h6q20 -21 35.5 -39t28.5 -37t26 -43q12 24 24.5 43t28 37t35.5 39h6v-13q-13 -19 -27 -45t-27 -52.5t-22 -49.5h-39z
" />
    <glyph glyph-name="uni01CE" unicode="&#x1ce;" horiz-adv-x="435" 
d="M166 -10q-35 0 -62 17t-42.5 52t-15.5 87q0 78 47.5 115.5t145.5 41.5l70 3v65q0 50 -9.5 82t-32 48t-61.5 16q-37 0 -60 -13t-34 -40t-11 -69q-10 0 -15.5 11.5t-5.5 32.5q0 27 13.5 50.5t41.5 38t71 14.5q68 0 99.5 -40.5t31.5 -129.5v-267q0 -37 4 -55t15 -24t33 -6h3
v-20h-76l-6 95h-2q-11 -27 -29.5 -51t-45.5 -39t-67 -15zM169 15q41 0 72 24t49.5 63t18.5 83v98l-70 -3q-60 -2 -96.5 -18.5t-52.5 -46t-16 -69.5q0 -37 10 -67t31 -47t54 -17zM185 606q-7 23 -20 49.5t-27.5 52.5t-27.5 45v13h6q20 -21 35.5 -39t28.5 -37t26 -43
q12 24 24.5 43t28 37t35.5 39h6v-13q-13 -19 -27 -45t-27 -52.5t-22 -49.5h-39z" />
    <glyph glyph-name="uni01CF" unicode="&#x1cf;" horiz-adv-x="275" 
d="M40 0v20h27q25 0 37 6t15.5 25t3.5 57v498q0 39 -3.5 57.5t-15.5 24.5t-37 6h-27v20h193v-20h-26q-25 0 -37 -6t-15.5 -24.5t-3.5 -57.5v-498q0 -38 3.5 -57t15.5 -25t37 -6h26v-20h-193zM116 771q-7 23 -20 49.5t-27.5 52.5t-27.5 45v13h6q20 -21 35.5 -39t28.5 -37
t26 -43q12 24 24.5 43t28 37t35.5 39h6v-13q-13 -19 -27 -45t-27 -52.5t-22 -49.5h-39z" />
    <glyph glyph-name="uni01D0" unicode="&#x1d0;" horiz-adv-x="237" 
d="M97 606q-7 23 -20 49.5t-27.5 52.5t-27.5 45v13h6q20 -21 35.5 -39t28.5 -37t26 -43q12 24 24.5 43t28 37t35.5 39h6v-13q-13 -19 -27 -45t-27 -52.5t-22 -49.5h-39zM25 0v20h20q32 0 47 4.5t19 20t4 50.5v343q0 36 -4 52.5t-17 21t-43 4.5h-9v20h101v-441q0 -35 4 -50.5
t19 -20t47 -4.5h17v-20h-205z" />
    <glyph glyph-name="uni01D1" unicode="&#x1d1;" horiz-adv-x="577" 
d="M288 -10q-81 0 -134 45.5t-79.5 128t-26.5 195.5q0 118 27 199.5t81 124t132 42.5q84 0 136.5 -40.5t78 -122t25.5 -204.5q0 -115 -27 -197.5t-80.5 -126.5t-132.5 -44zM288 15q72 0 119 41.5t70 118.5t23 183q0 108 -20.5 184.5t-67 117t-123.5 40.5q-109 0 -161 -90
t-52 -252q0 -104 23.5 -181t71 -119.5t117.5 -42.5zM271 771q-7 23 -20 49.5t-27.5 52.5t-27.5 45v13h6q20 -21 35.5 -39t28.5 -37t26 -43q12 24 24.5 43t28 37t35.5 39h6v-13q-13 -19 -27 -45t-27 -52.5t-22 -49.5h-39z" />
    <glyph glyph-name="uni01D2" unicode="&#x1d2;" horiz-adv-x="446" 
d="M223 -10q-80 0 -125 67.5t-45 209.5q0 139 42.5 207t130.5 68q84 0 125.5 -68t41.5 -207q0 -144 -43 -210.5t-127 -66.5zM224 15q52 0 83 29.5t44.5 86t13.5 136.5q0 126 -32 188t-108 62q-78 0 -111 -62.5t-33 -187.5q0 -123 34.5 -187.5t108.5 -64.5zM203 606
q-7 23 -20 49.5t-27.5 52.5t-27.5 45v13h6q20 -21 35.5 -39t28.5 -37t26 -43q12 24 24.5 43t28 37t35.5 39h6v-13q-13 -19 -27 -45t-27 -52.5t-22 -49.5h-39z" />
    <glyph glyph-name="uni01D3" unicode="&#x1d3;" horiz-adv-x="568" 
d="M281 -10q-56 0 -99 22.5t-67 72.5t-24 129v394q0 38 -3.5 56t-15.5 24t-37 6h-24v20h193v-20h-29q-24 0 -36 -5.5t-16 -24.5t-4 -58v-396q0 -101 44 -148t118 -47q61 0 97.5 28t53 72t16.5 92v400q0 38 -3.5 56.5t-15.5 24.5t-37 6h-29v20h192v-20h-23q-25 0 -37 -6
t-15.5 -24.5t-3.5 -56.5v-402q0 -58 -21 -107t-64 -78.5t-110 -29.5zM270 771q-7 23 -20 49.5t-27.5 52.5t-27.5 45v13h6q20 -21 35.5 -39t28.5 -37t26 -43q12 24 24.5 43t28 37t35.5 39h6v-13q-13 -19 -27 -45t-27 -52.5t-22 -49.5h-39z" />
    <glyph glyph-name="uni01D4" unicode="&#x1d4;" horiz-adv-x="500" 
d="M235 -10q-67 0 -103 45.5t-36 148.5v259q0 34 -4 49.5t-19 19.5t-50 4h-10v20h111v-354q0 -53 11 -90.5t36 -57t65 -19.5q46 0 76.5 26.5t45 69.5t14.5 92v228q0 40 -3.5 58t-18.5 22.5t-50 4.5h-8v20h108v-437q0 -37 4 -54t19 -21t47 -4h11v-20h-105l-2 81h-4
q-19 -38 -51 -64.5t-84 -26.5zM214 606q-7 23 -20 49.5t-27.5 52.5t-27.5 45v13h6q20 -21 35.5 -39t28.5 -37t26 -43q12 24 24.5 43t28 37t35.5 39h6v-13q-13 -19 -27 -45t-27 -52.5t-22 -49.5h-39z" />
    <glyph glyph-name="uni01D5" unicode="&#x1d5;" horiz-adv-x="568" 
d="M181 934v27h220v-27h-220zM218 783q-12 0 -18.5 7.5t-6.5 29.5q0 23 6.5 31t18.5 8t19 -8t7 -31q0 -22 -7 -29.5t-19 -7.5zM364 783q-12 0 -19 7.5t-7 29.5q0 23 7 31t19 8q11 0 18 -8t7 -31q0 -22 -7 -29.5t-18 -7.5zM281 -10q-56 0 -99 22.5t-67 72.5t-24 129v394
q0 38 -3.5 56t-15.5 24t-37 6h-24v20h193v-20h-29q-24 0 -36 -5.5t-16 -24.5t-4 -58v-396q0 -101 44 -148t118 -47q61 0 97.5 28t53 72t16.5 92v400q0 38 -3.5 56.5t-15.5 24.5t-37 6h-29v20h192v-20h-23q-25 0 -37 -6t-15.5 -24.5t-3.5 -56.5v-402q0 -58 -21 -107
t-64 -78.5t-110 -29.5z" />
    <glyph glyph-name="uni01D6" unicode="&#x1d6;" horiz-adv-x="500" 
d="M133 769v27h220v-27h-220zM170 618q-12 0 -18.5 7.5t-6.5 29.5q0 23 6.5 31t18.5 8t19 -8t7 -31q0 -22 -7 -29.5t-19 -7.5zM316 618q-12 0 -19 7.5t-7 29.5q0 23 7 31t19 8q11 0 18 -8t7 -31q0 -22 -7 -29.5t-18 -7.5zM235 -10q-67 0 -103 45.5t-36 148.5v259
q0 34 -4 49.5t-19 19.5t-50 4h-10v20h111v-354q0 -53 11 -90.5t36 -57t65 -19.5q46 0 76.5 26.5t45 69.5t14.5 92v228q0 40 -3.5 58t-18.5 22.5t-50 4.5h-8v20h108v-437q0 -37 4 -54t19 -21t47 -4h11v-20h-105l-2 81h-4q-19 -38 -51 -64.5t-84 -26.5z" />
    <glyph glyph-name="uni01D7" unicode="&#x1d7;" horiz-adv-x="568" 
d="M280 863q13 23 24 48.5t20.5 50t15.5 42.5h44v-11q-7 -14 -19 -32t-25.5 -38t-27 -39t-26.5 -36h-6v15zM222 770q-12 0 -18.5 7.5t-6.5 29.5q0 23 6.5 30.5t18.5 7.5t19 -7.5t7 -30.5q0 -22 -7 -29.5t-19 -7.5zM368 770q-12 0 -19 7.5t-7 29.5q0 23 7 30.5t19 7.5
q11 0 18 -7.5t7 -30.5q0 -22 -7 -29.5t-18 -7.5zM281 -10q-56 0 -99 22.5t-67 72.5t-24 129v394q0 38 -3.5 56t-15.5 24t-37 6h-24v20h193v-20h-29q-24 0 -36 -5.5t-16 -24.5t-4 -58v-396q0 -101 44 -148t118 -47q61 0 97.5 28t53 72t16.5 92v400q0 38 -3.5 56.5t-15.5 24.5
t-37 6h-29v20h192v-20h-23q-25 0 -37 -6t-15.5 -24.5t-3.5 -56.5v-402q0 -58 -21 -107t-64 -78.5t-110 -29.5z" />
    <glyph glyph-name="uni01D8" unicode="&#x1d8;" horiz-adv-x="500" 
d="M228 698q12 23 23.5 48.5t21 50t15.5 42.5h44v-11q-8 -14 -19.5 -32t-25 -38t-27.5 -39t-26 -36h-6v15zM170 605q-12 0 -18.5 7.5t-6.5 29.5q0 23 6.5 30.5t18.5 7.5t18.5 -7.5t6.5 -30.5q0 -22 -6.5 -29.5t-18.5 -7.5zM315 605q-12 0 -19 7.5t-7 29.5q0 23 7 30.5
t19 7.5t19 -7.5t7 -30.5q0 -22 -7 -29.5t-19 -7.5zM235 -10q-67 0 -103 45.5t-36 148.5v259q0 34 -4 49.5t-19 19.5t-50 4h-10v20h111v-354q0 -53 11 -90.5t36 -57t65 -19.5q46 0 76.5 26.5t45 69.5t14.5 92v228q0 40 -3.5 58t-18.5 22.5t-50 4.5h-8v20h108v-437
q0 -37 4 -54t19 -21t47 -4h11v-20h-105l-2 81h-4q-19 -38 -51 -64.5t-84 -26.5z" />
    <glyph glyph-name="uni01D9" unicode="&#x1d9;" horiz-adv-x="568" 
d="M273 884q-8 21 -23 44.5t-32 46.5t-32 41v14h9q20 -18 37 -35.5t31.5 -34.5t27.5 -35q13 18 28 35t32 34.5t37 35.5h8v-14q-14 -18 -31.5 -41t-32.5 -46.5t-23 -44.5h-36zM219 783q-13 0 -19.5 8t-6.5 29q0 23 6.5 31t19.5 8q11 0 18 -8t7 -31q0 -22 -7 -29.5t-18 -7.5z
M364 783q-12 0 -19 8t-7 29q0 23 7 31t19 8t19 -8t7 -31q0 -22 -7 -29.5t-19 -7.5zM281 -10q-56 0 -99 22.5t-67 72.5t-24 129v394q0 38 -3.5 56t-15.5 24t-37 6h-24v20h193v-20h-29q-24 0 -36 -5.5t-16 -24.5t-4 -58v-396q0 -101 44 -148t118 -47q61 0 97.5 28t53 72
t16.5 92v400q0 38 -3.5 56.5t-15.5 24.5t-37 6h-29v20h192v-20h-23q-25 0 -37 -6t-15.5 -24.5t-3.5 -56.5v-402q0 -58 -21 -107t-64 -78.5t-110 -29.5z" />
    <glyph glyph-name="uni01DA" unicode="&#x1da;" horiz-adv-x="500" 
d="M225 719q-8 21 -23 44.5t-32 46.5t-31 41v14h8q20 -18 37.5 -35.5t32 -34.5t27.5 -35q13 18 27.5 35t31.5 34.5t38 35.5h8v-14q-15 -18 -32.5 -41t-32 -46.5t-23.5 -44.5h-36zM171 618q-12 0 -18.5 8t-6.5 29q0 23 6.5 31t18.5 8t19 -8t7 -31q0 -22 -7 -29.5t-19 -7.5z
M316 618q-11 0 -18.5 8t-7.5 29q0 23 7.5 31t18.5 8q12 0 19 -8t7 -31q0 -22 -7 -29.5t-19 -7.5zM235 -10q-67 0 -103 45.5t-36 148.5v259q0 34 -4 49.5t-19 19.5t-50 4h-10v20h111v-354q0 -53 11 -90.5t36 -57t65 -19.5q46 0 76.5 26.5t45 69.5t14.5 92v228q0 40 -3.5 58
t-18.5 22.5t-50 4.5h-8v20h108v-437q0 -37 4 -54t19 -21t47 -4h11v-20h-105l-2 81h-4q-19 -38 -51 -64.5t-84 -26.5z" />
    <glyph glyph-name="uni01DB" unicode="&#x1db;" horiz-adv-x="568" 
d="M300 849q-13 15 -26.5 34t-27 39t-24.5 38.5t-20 32.5v11h44q6 -18 15 -42t20 -49t24 -49v-15h-5zM215 768q-12 0 -18.5 7.5t-6.5 29.5q0 23 6.5 31t18.5 8t19 -8t7 -31q0 -22 -7 -29.5t-19 -7.5zM360 768q-12 0 -19 7.5t-7 30.5q0 22 7 30t19 8t19 -8t7 -31
q0 -22 -7 -29.5t-19 -7.5zM281 -10q-56 0 -99 22.5t-67 72.5t-24 129v394q0 38 -3.5 56t-15.5 24t-37 6h-24v20h193v-20h-29q-24 0 -36 -5.5t-16 -24.5t-4 -58v-396q0 -101 44 -148t118 -47q61 0 97.5 28t53 72t16.5 92v400q0 38 -3.5 56.5t-15.5 24.5t-37 6h-29v20h192v-20
h-23q-25 0 -37 -6t-15.5 -24.5t-3.5 -56.5v-402q0 -58 -21 -107t-64 -78.5t-110 -29.5z" />
    <glyph glyph-name="uni01DC" unicode="&#x1dc;" horiz-adv-x="500" 
d="M258 684q-13 15 -26.5 34t-27 39t-25 38.5t-19.5 32.5v11h44q6 -18 15 -42t20 -49t24 -48v-16h-5zM172 603q-12 0 -18.5 7.5t-6.5 29.5q0 23 6.5 31t18.5 8q13 0 19.5 -8t6.5 -31q0 -22 -6.5 -29.5t-19.5 -7.5zM318 603q-12 0 -19 7.5t-7 30.5q0 22 7 30t18 8q12 0 19 -8
t7 -31q0 -22 -7 -29.5t-18 -7.5zM235 -10q-67 0 -103 45.5t-36 148.5v259q0 34 -4 49.5t-19 19.5t-50 4h-10v20h111v-354q0 -53 11 -90.5t36 -57t65 -19.5q46 0 76.5 26.5t45 69.5t14.5 92v228q0 39 -3.5 57.5t-18 23t-50.5 4.5h-8v20h108v-437q0 -37 4 -54t19 -21t47 -4h11
v-20h-105l-2 81h-4q-19 -38 -51 -64.5t-84 -26.5z" />
    <glyph glyph-name="uni01DD" unicode="&#x1dd;" horiz-adv-x="412" 
d="M198 -10q-73 0 -112 67.5t-39 183.5v19h285q0 130 -39 193.5t-104 63.5q-47 0 -76 -26t-42 -59q-4 2 -6.5 7t-2.5 14q0 16 14.5 36.5t43 36.5t69.5 16q79 0 125 -70.5t46 -201.5q0 -141 -42.5 -210.5t-119.5 -69.5zM198 15q66 0 97.5 59.5t35.5 161.5h-256q2 -99 31 -160
t92 -61z" />
    <glyph glyph-name="uni01DE" unicode="&#x1de;" horiz-adv-x="543" 
d="M161 934v27h221v-27h-221zM198 783q-12 0 -18.5 7.5t-6.5 29.5q0 23 6.5 31t18.5 8t19 -8t7 -31q0 -22 -7 -29.5t-19 -7.5zM344 783q-12 0 -19 7.5t-7 29.5q0 23 7 31t19 8q11 0 18 -8t7 -31q0 -22 -7 -29.5t-18 -7.5zM-3 0v20h17q19 0 29 5t17.5 20.5t16.5 47.5l186 621
h19l195 -655q5 -17 10.5 -25.5t15 -11t28.5 -2.5h12v-20h-172v20h25q34 0 43 6.5t9 21.5q0 7 -3.5 20t-7.5 28t-8 26l-39 129h-236l-36 -117q-3 -12 -8.5 -29.5t-9.5 -33t-4 -24.5q0 -14 10.5 -20.5t43.5 -6.5h31v-20h-184zM162 276h221l-64 221q-10 35 -19 65.5t-16 56
t-12 42.5q-3 -16 -10.5 -41t-15.5 -53.5t-16 -55.5z" />
    <glyph glyph-name="uni01DF" unicode="&#x1df;" horiz-adv-x="435" 
d="M96 769v27h220v-27h-220zM133 618q-12 0 -18.5 7.5t-6.5 29.5q0 23 6.5 31t18.5 8t19 -8t7 -31q0 -22 -7 -29.5t-19 -7.5zM278 618q-11 0 -18.5 7.5t-7.5 29.5q0 23 7.5 31t18.5 8q12 0 19 -8t7 -31q0 -22 -7 -29.5t-19 -7.5zM166 -10q-35 0 -62 17t-42.5 52t-15.5 87
q0 78 47.5 115.5t145.5 41.5l70 3v65q0 50 -9.5 82t-32 48t-61.5 16q-37 0 -60 -13t-34 -40t-11 -69q-10 0 -15.5 11.5t-5.5 32.5q0 27 13.5 50.5t41.5 38t71 14.5q68 0 99.5 -40.5t31.5 -129.5v-267q0 -37 4 -55t15 -24t33 -6h3v-20h-76l-6 95h-2q-11 -27 -29.5 -51
t-45.5 -39t-67 -15zM169 15q41 0 72 24t49.5 63t18.5 83v98l-70 -3q-60 -2 -96.5 -18.5t-52.5 -46t-16 -69.5q0 -37 10 -67t31 -47t54 -17z" />
    <glyph glyph-name="uni01E0" unicode="&#x1e0;" horiz-adv-x="543" 
d="M165 917v27h220v-27h-220zM273 764q-11 0 -18.5 8t-7.5 29q0 23 7.5 31t18.5 8q12 0 19 -8t7 -31q0 -21 -7 -29t-19 -8zM-3 0v20h17q19 0 29 5t17.5 20.5t16.5 47.5l186 621h19l195 -655q5 -17 10.5 -25.5t15 -11t28.5 -2.5h12v-20h-172v20h25q34 0 43 6.5t9 21.5
q0 7 -3.5 20t-7.5 28t-8 26l-39 129h-236l-36 -117q-3 -12 -8.5 -29.5t-9.5 -33t-4 -24.5q0 -14 10.5 -20.5t43.5 -6.5h31v-20h-184zM162 276h221l-64 221q-10 35 -19 65.5t-16 56t-12 42.5q-3 -16 -10.5 -41t-15.5 -53.5t-16 -55.5z" />
    <glyph glyph-name="uni01E1" unicode="&#x1e1;" horiz-adv-x="435" 
d="M99 775v27h220v-27h-220zM207 621q-11 0 -18.5 8t-7.5 29q0 24 7.5 31.5t18.5 7.5q12 0 19 -7.5t7 -31.5q0 -21 -7 -29t-19 -8zM166 -10q-35 0 -62 17t-42.5 52t-15.5 87q0 78 47.5 115.5t145.5 41.5l70 3v65q0 50 -9.5 82t-32 48t-61.5 16q-37 0 -60 -13t-34 -40
t-11 -69q-10 0 -15.5 11.5t-5.5 32.5q0 27 13.5 50.5t41.5 38t71 14.5q68 0 99.5 -40.5t31.5 -129.5v-267q0 -37 4 -55t15 -24t33 -6h3v-20h-76l-6 95h-2q-11 -27 -29.5 -51t-45.5 -39t-67 -15zM169 15q41 0 72 24t49.5 63t18.5 83v98l-70 -3q-60 -2 -96.5 -18.5t-52.5 -46
t-16 -69.5q0 -37 10 -67t31 -47t54 -17z" />
    <glyph glyph-name="uni01E2" unicode="&#x1e2;" horiz-adv-x="749" 
d="M-3 0v20h21q15 0 24 4.5t18 19.5t22 48l256 599l-72 1v22h406l6 -164h-20l-4 61q-1 35 -6.5 52t-19.5 21.5t-42 4.5h-178v-302h206v-25h-206l-2 -337h212q27 0 39.5 5.5t17 19.5t6.5 40l4 74h20l-5 -164h-401v20h20q28 0 41 5.5t16.5 23.5t3.5 54v152h-200l-60 -137
q-11 -28 -17.5 -44t-6.5 -30q0 -13 12 -18.5t40 -5.5h41v-20h-192zM191 280h189v409h-14zM322 814v27h241v-27h-241z" />
    <glyph glyph-name="uni01E3" unicode="&#x1e3;" horiz-adv-x="661" 
d="M168 -10q-36 0 -63.5 17t-43 51.5t-15.5 87.5q0 78 47.5 115.5t145.5 40.5l65 2v67q0 44 -6.5 77t-27.5 51t-64 18q-40 0 -63 -14.5t-32.5 -42t-9.5 -65.5q-10 0 -15.5 11.5t-5.5 33.5q0 26 13.5 49.5t41.5 38t72 14.5q39 0 63 -12t37.5 -36t19.5 -59q19 50 52 78.5
t84 28.5q47 0 81 -28t52.5 -83.5t18.5 -136.5v-22h-284q1 -92 19 -148.5t50 -82.5t73 -26q44 0 73 23.5t45 61.5q5 -3 7 -8t2 -13q0 -16 -15 -37t-43 -36.5t-70 -15.5q-59 0 -98 39t-53 113q-7 -42 -27 -76.5t-51.5 -55t-74.5 -20.5zM169 15q40 0 70.5 23.5t48 63.5t16.5 87
v92l-65 -2q-60 -2 -96.5 -18t-52.5 -45t-16 -70q0 -38 10 -67.5t31.5 -46.5t53.5 -17zM587 296q0 105 -31.5 163t-91.5 58q-62 0 -96.5 -56t-35.5 -165h255zM212 649v27h241v-27h-241z" />
    <glyph glyph-name="uni01E4" unicode="&#x1e4;" horiz-adv-x="542" 
d="M313 -10q-90 0 -148.5 43.5t-87.5 126t-29 198.5q0 129 33.5 209.5t94 118.5t143.5 38q55 0 89.5 -18t51 -44t16.5 -52q0 -24 -6 -34.5t-16 -10.5q0 39 -12 69.5t-42 47.5t-82 17q-78 0 -131.5 -37.5t-82 -113t-28.5 -190.5q0 -109 24.5 -185.5t77.5 -117t138 -40.5
q40 0 74.5 6t55.5 19v124h-107v25h107v41q0 34 -4 49t-16 19.5t-36 4.5h-22v20h168v-20h-16q-19 0 -29 -4.5t-13.5 -20.5t-3.5 -50v-39h77v-25h-77v-137q-35 -19 -72.5 -28t-88.5 -9z" />
    <glyph glyph-name="uni01E5" unicode="&#x1e5;" horiz-adv-x="427" 
d="M201 -241q-84 0 -123.5 42.5t-39.5 113.5q0 43 15.5 73t37.5 48t43 26q-15 7 -26.5 23.5t-11.5 45.5q0 26 13.5 48t26.5 35q-30 18 -48 57.5t-18 89.5q0 92 36.5 136.5t102.5 44.5q29 0 52.5 -11t36.5 -26q9 12 19.5 24t23.5 20t28 8q21 0 31 -13.5t10 -31.5
q0 -16 -5.5 -26t-14.5 -10q0 28 -4.5 40.5t-18.5 12.5q-13 0 -25 -10.5t-29 -33.5q12 -19 19 -48t7 -74q0 -78 -33 -122.5t-97 -44.5q-11 0 -27.5 2t-24.5 5q-14 -14 -24.5 -31.5t-10.5 -45.5q0 -31 20.5 -43t54.5 -12h61q45 0 72.5 -17t40.5 -47t13 -70v-2v-3h50v-25h-52
q-7 -69 -54 -108.5t-127 -39.5zM203 -216q72 0 109 33.5t43 89.5h-139v25h140q0 58 -23.5 86t-83.5 28h-68q-33 0 -59 -16.5t-41 -46t-15 -68.5q0 -36 12 -65.5t42.5 -47.5t82.5 -18zM206 220q34 0 57.5 15.5t35.5 48t12 81.5q0 56 -12.5 89.5t-36 48t-58.5 14.5
q-31 0 -55 -16t-37.5 -49.5t-13.5 -87.5q0 -71 28 -107.5t80 -36.5z" />
    <glyph glyph-name="Gcaron" unicode="&#x1e6;" horiz-adv-x="543" 
d="M313 -10q-90 0 -148.5 43.5t-87.5 126t-29 198.5q0 122 33 203.5t93.5 122t144.5 40.5q56 0 90.5 -17.5t50.5 -43.5t16 -53q0 -24 -5.5 -34.5t-15.5 -10.5q0 39 -12.5 69.5t-42.5 47.5t-82 17q-77 0 -131 -39t-82.5 -115t-28.5 -187q0 -109 24.5 -185.5t77.5 -117
t138 -40.5q40 0 74.5 6t55.5 19v182q0 37 -4 53.5t-17 22t-39 5.5h-18v20h168v-20h-8q-23 0 -35 -5.5t-15.5 -22.5t-3.5 -53v-195q-35 -19 -72.5 -28t-88.5 -9zM288 771q-7 23 -20 49.5t-27.5 52.5t-27.5 45v13h6q20 -21 35.5 -39t28.5 -37t26 -43q12 24 24.5 43t28 37
t35.5 39h6v-13q-13 -19 -27 -45t-27 -52.5t-22 -49.5h-39z" />
    <glyph glyph-name="gcaron" unicode="&#x1e7;" horiz-adv-x="427" 
d="M201 -241q-84 0 -123.5 42.5t-39.5 113.5q0 43 15.5 73t37.5 48t43 26q-15 7 -26.5 23.5t-11.5 45.5q0 26 13.5 48t26.5 35q-30 18 -48 57.5t-18 89.5q0 92 36.5 136.5t102.5 44.5q29 0 52.5 -11t36.5 -26q9 12 19.5 24t23.5 20t28 8q21 0 31 -13.5t10 -31.5
q0 -17 -5 -26.5t-16 -9.5q0 28 -4 40.5t-18 12.5q-13 0 -25 -10.5t-29 -33.5q12 -19 19 -48t7 -74q0 -78 -33 -122.5t-97 -44.5q-11 0 -27.5 2t-24.5 5q-14 -14 -24.5 -31.5t-10.5 -45.5q0 -31 20.5 -43t54.5 -12h61q45 0 72.5 -17t40.5 -48t13 -72q0 -79 -47 -127t-136 -48
zM203 -216q54 0 87.5 18.5t49.5 52.5t16 78q0 57 -23.5 85t-83.5 28h-68q-33 0 -59 -16.5t-41 -46t-15 -68.5q0 -36 12 -65.5t42.5 -47.5t82.5 -18zM206 220q34 0 57.5 15.5t35.5 48t12 81.5q0 56 -12.5 89.5t-36 48t-58.5 14.5q-31 0 -55 -16t-37.5 -49.5t-13.5 -87.5
q0 -71 28 -107.5t80 -36.5zM191 606q-7 23 -20 49.5t-27.5 52.5t-27.5 45v13h6q20 -21 35.5 -39t28.5 -37t26 -43q12 24 24.5 43t28 37t35.5 39h6v-13q-13 -19 -27 -45t-27 -52.5t-22 -49.5h-39z" />
    <glyph glyph-name="uni01E8" unicode="&#x1e8;" horiz-adv-x="552" 
d="M40 0v20h26q25 0 37 6t15.5 25t3.5 57v499q0 38 -3.5 56.5t-15.5 24.5t-37 6h-26v20h196v-20h-30q-25 0 -37 -6t-15.5 -24.5t-3.5 -56.5v-335l229 317q22 31 34 48t17 27t5 16q0 9 -11.5 11.5t-39.5 2.5v20h138v-20q-23 0 -36.5 -8.5t-28.5 -30t-44 -62.5l-135 -186
l199 -301q23 -34 37 -52.5t26 -25.5t26 -7h4v-21h-6q-16 0 -28.5 3.5t-24.5 13t-26.5 28t-34.5 48.5l-190 290l-110 -153v-119q0 -40 3.5 -59.5t15.5 -25.5t37 -6h31v-20h-197zM289 771q-7 23 -20 49.5t-27.5 52.5t-27.5 45v13h6q20 -21 35.5 -39t28.5 -37t26 -43
q12 24 24.5 43t28 37t35.5 39h6v-13q-13 -19 -27 -45t-27 -52.5t-22 -49.5h-39z" />
    <glyph glyph-name="uni01E9" unicode="&#x1e9;" horiz-adv-x="440" 
d="M16 0v20h11q33 0 47.5 4.5t18.5 20t4 51.5v567q0 36 -4 52t-18 20.5t-45 4.5h-14v20h109v-387v-34v-40t-1 -41t-2 -38l114 145q37 46 56 72t25.5 39t6.5 20q0 13 -12 16.5t-44 3.5v20h145v-20q-15 0 -25.5 -3.5t-20 -14.5t-24.5 -31.5t-40 -53.5l-74 -92l109 -206
q27 -55 47.5 -75t51.5 -20h6v-20h-9q-21 0 -36 3t-27.5 13.5t-26 31t-32.5 56.5l-101 192l-86 -110v-91q0 -35 4 -50.5t18 -20t44 -4.5h6v-20h-181zM190 796q-7 23 -20 49.5t-27.5 52.5t-27.5 45v13h6q20 -21 35.5 -39t28.5 -37t26 -43q12 24 24.5 43t28 37t35.5 39h6v-13
q-13 -19 -27 -45t-27 -52.5t-22 -49.5h-39z" />
    <glyph glyph-name="uni01EA" unicode="&#x1ea;" horiz-adv-x="577" 
d="M288 -10q-81 0 -134 45.5t-79.5 128t-26.5 195.5q0 118 27 199.5t81 124t132 42.5q84 0 136.5 -40.5t78 -122t25.5 -204.5q0 -115 -27 -197.5t-80.5 -126.5t-132.5 -44zM288 15q72 0 119 41.5t70 118.5t23 183q0 108 -20.5 184.5t-67 117t-123.5 40.5q-109 0 -161 -90
t-52 -252q0 -104 23.5 -181t71 -119.5t117.5 -42.5zM318 -226q-37 0 -61.5 24.5t-24.5 74.5q0 34 12.5 60t31 43t35.5 24h34q-19 -7 -38.5 -24t-33 -42t-13.5 -57q0 -42 17 -60.5t42 -18.5q15 0 25.5 3t26.5 11v-25q-9 -4 -17 -7t-16.5 -4.5t-19.5 -1.5z" />
    <glyph glyph-name="uni01EB" unicode="&#x1eb;" horiz-adv-x="446" 
d="M223 -10q-80 0 -125 67.5t-45 209.5q0 139 42.5 207t130.5 68q84 0 125.5 -68t41.5 -207q0 -144 -43 -210.5t-127 -66.5zM224 15q52 0 83 29.5t44.5 86t13.5 136.5q0 126 -32 188t-108 62q-78 0 -111 -62.5t-33 -187.5q0 -123 34.5 -187.5t108.5 -64.5zM253 -226
q-37 0 -61.5 24.5t-24.5 74.5q0 34 12.5 60t31 43t35.5 24h34q-19 -7 -38.5 -24t-33 -42t-13.5 -57q0 -42 17 -60.5t42 -18.5q15 0 25.5 3t26.5 11v-25q-9 -4 -17 -7t-16.5 -4.5t-19.5 -1.5z" />
    <glyph glyph-name="uni01EC" unicode="&#x1ec;" horiz-adv-x="577" 
d="M288 -10q-81 0 -134 45.5t-79.5 128t-26.5 195.5q0 118 27 199.5t81 124t132 42.5q84 0 136.5 -40.5t78 -122t25.5 -204.5q0 -115 -27 -197.5t-80.5 -126.5t-132.5 -44zM288 15q72 0 119 41.5t70 118.5t23 183q0 108 -20.5 184.5t-67 117t-123.5 40.5q-109 0 -161 -90
t-52 -252q0 -104 23.5 -181t71 -119.5t117.5 -42.5zM326 -226q-37 0 -61.5 24.5t-24.5 74.5q0 34 12.5 60t31 43t35.5 24h34q-19 -7 -38.5 -24t-33 -42t-13.5 -57q0 -42 17 -60.5t42 -18.5q15 0 25.5 3t26.5 11v-25q-9 -4 -17 -7t-16.5 -4.5t-19.5 -1.5zM169 818v27h241v-27
h-241z" />
    <glyph glyph-name="uni01ED" unicode="&#x1ed;" horiz-adv-x="446" 
d="M223 -10q-80 0 -125 67.5t-45 209.5q0 139 42.5 207t130.5 68q84 0 125.5 -68t41.5 -207q0 -144 -43 -210.5t-127 -66.5zM224 15q52 0 83 29.5t44.5 86t13.5 136.5q0 126 -32 188t-108 62q-78 0 -111 -62.5t-33 -187.5q0 -123 34.5 -187.5t108.5 -64.5zM100 634v27h241
v-27h-241zM250 -226q-37 0 -61 24.5t-24 74.5q0 34 12 60t30.5 43t36.5 24h33q-19 -7 -38.5 -24t-33 -42t-13.5 -57q0 -43 17 -61t42 -18q15 0 26 3t26 11v-25q-9 -4 -17 -7t-16.5 -4.5t-19.5 -1.5z" />
    <glyph glyph-name="uni01EE" unicode="&#x1ee;" horiz-adv-x="468" 
d="M216 771q-7 23 -20 49.5t-27.5 52.5t-27.5 45v13h6q20 -21 35.5 -39t28.5 -37t26 -43q12 24 24.5 43t28 37t35.5 39h6v-13q-13 -19 -27 -45t-27 -52.5t-22 -49.5h-39zM208 -10q-44 0 -74.5 11t-50.5 28.5t-29 37.5t-9 39q0 13 2.5 21t7.5 12.5t11 4.5q0 -36 14.5 -65
t46 -46.5t80.5 -17.5q47 0 84 18t59 58t22 106q0 54 -17.5 92t-59 58t-110.5 20h-36l-1 24l207 296h-200q-36 0 -45.5 -11.5t-11.5 -50.5l-2 -29h-20l3 118h314v-20l-212 -302q62 0 104 -13t67.5 -38.5t36.5 -62t11 -82.5q0 -69 -24.5 -115t-68 -68.5t-99.5 -22.5z" />
    <glyph glyph-name="uni01EF" unicode="&#x1ef;" horiz-adv-x="397" 
d="M189 606q-7 23 -20 49.5t-27.5 52.5t-27.5 45v13h6q20 -21 35.5 -39t28.5 -37t26 -43q12 24 24.5 43t28 37t35.5 39h6v-13q-13 -19 -27 -45t-27 -52.5t-22 -49.5h-39zM185 -240q-53 0 -87 17.5t-49 43.5t-15 50q0 19 4.5 28.5t15.5 9.5q0 -35 13.5 -63t43 -44.5
t74.5 -16.5q44 0 78.5 21t55 67t20.5 122q0 92 -40 143.5t-137 51.5h-25v23l182 296h-184q-34 0 -43.5 -11t-12.5 -46l-3 -26h-20l7 110h291v-21l-185 -300q57 -1 95 -17t60.5 -44t32.5 -68.5t10 -91.5q0 -60 -13.5 -103.5t-37.5 -72.5t-57.5 -43.5t-73.5 -14.5z" />
    <glyph glyph-name="uni01F0" unicode="&#x1f0;" horiz-adv-x="234" 
d="M16 -240v25h7q29 0 50 18t32 61.5t11 119.5v456q0 34 -4 50t-16 21t-37 5h-16v20h101v-551q0 -90 -15.5 -139t-42 -67.5t-59.5 -18.5h-11zM86 606q-7 23 -20 49.5t-27.5 52.5t-27.5 45v13h6q20 -21 35.5 -39t28.5 -37t26 -43q12 24 24.5 43t28 37t35.5 39h6v-13
q-13 -19 -27 -45t-27 -52.5t-22 -49.5h-39z" />
    <glyph glyph-name="uni01F1" unicode="&#x1f1;" horiz-adv-x="992" 
d="M40 0v20h21q27 0 40 5.5t17 24.5t4 59v499q0 39 -4 57t-16.5 23.5t-39.5 5.5h-22v20h219q86 0 143.5 -44.5t87 -127.5t29.5 -199q0 -109 -27.5 -186t-84.5 -117t-148 -40h-219zM255 25q81 0 133 35t77.5 105.5t25.5 177.5q0 106 -25.5 183.5t-77.5 120t-132 42.5h-106
v-664h105zM592 0v22l327 667h-229q-39 0 -49 -14t-12 -55l-1 -43h-20l4 137h339v-23l-327 -666h252q26 0 38.5 6t16.5 20.5t5 41.5l2 45h20l-4 -138h-362z" />
    <glyph glyph-name="uni01F2" unicode="&#x1f2;" horiz-adv-x="975" 
d="M40 0v20h21q27 0 40 5.5t17 24.5t4 59v499q0 39 -4 57t-16.5 23.5t-39.5 5.5h-22v20h219q86 0 143.5 -44.5t87 -127.5t29.5 -199q0 -109 -27.5 -186t-84.5 -117t-148 -40h-219zM255 25q81 0 133 35t77.5 105.5t25.5 177.5q0 106 -25.5 183.5t-77.5 120t-132 42.5h-106
v-664h105zM623 0v22l251 489h-165q-39 0 -49 -14t-14 -55l-2 -22h-20l8 116h275v-22l-252 -489h173q39 0 49 14t12 56l2 43h20l-5 -138h-283z" />
    <glyph glyph-name="uni01F3" unicode="&#x1f3;" horiz-adv-x="887" 
d="M218 -10q-51 0 -88 28t-56.5 89t-19.5 160q0 100 20 161t56.5 88.5t87.5 27.5q54 0 87.5 -27.5t50.5 -72.5h4q-2 24 -3 49.5t-1 50.5v114q0 39 -4 56t-17.5 21.5t-41.5 4.5h-11v20h102v-672q0 -31 4.5 -45.5t19 -18.5t44.5 -4h11v-20h-103l-4 100h-2q-18 -49 -50.5 -79.5
t-85.5 -30.5zM217 15q70 0 105 65.5t35 184.5q0 124 -29.5 189t-106.5 65q-46 0 -76.5 -26t-46.5 -82t-16 -147q0 -129 36.5 -189.5t98.5 -59.5zM534 0v22l251 489h-165q-39 0 -49 -14t-14 -55l-2 -22h-20l8 116h275v-22l-252 -489h173q39 0 49 14t12 56l2 43h20l-5 -138
h-283z" />
    <glyph glyph-name="uni01F4" unicode="&#x1f4;" horiz-adv-x="543" 
d="M313 -10q-90 0 -148.5 43.5t-87.5 126t-29 198.5q0 122 33 203.5t93.5 122t144.5 40.5q56 0 90.5 -17.5t50.5 -43.5t16 -53q0 -24 -5.5 -34.5t-15.5 -10.5q0 39 -12.5 69.5t-42.5 47.5t-82 17q-77 0 -131 -39t-82.5 -115t-28.5 -187q0 -109 24.5 -185.5t77.5 -117
t138 -40.5q40 0 74.5 6t55.5 19v182q0 37 -4 53.5t-17 22t-39 5.5h-18v20h168v-20h-8q-23 0 -35 -5.5t-15.5 -22.5t-3.5 -53v-195q-35 -19 -72.5 -28t-88.5 -9zM286 812q15 27 29 52t26 49t20 46h44v-10q-8 -13 -21 -32t-29.5 -40t-33.5 -41t-31 -37h-4v13z" />
    <glyph glyph-name="uni01F5" unicode="&#x1f5;" horiz-adv-x="427" 
d="M201 -241q-84 0 -123.5 42.5t-39.5 113.5q0 43 15.5 73t37.5 48t43 26q-15 7 -26.5 23.5t-11.5 45.5q0 26 13.5 48t26.5 35q-30 18 -48 57.5t-18 89.5q0 92 36.5 136.5t102.5 44.5q29 0 52.5 -11t36.5 -26q9 12 19.5 24t23.5 20t28 8q21 0 31 -13.5t10 -31.5
q0 -17 -5 -26.5t-16 -9.5q0 28 -4 40.5t-18 12.5q-13 0 -25 -10.5t-29 -33.5q12 -19 19 -48t7 -74q0 -78 -33 -122.5t-97 -44.5q-11 0 -27.5 2t-24.5 5q-14 -14 -24.5 -31.5t-10.5 -45.5q0 -31 20.5 -43t54.5 -12h61q45 0 72.5 -17t40.5 -48t13 -72q0 -79 -47 -127t-136 -48
zM203 -216q54 0 87.5 18.5t49.5 52.5t16 78q0 57 -23.5 85t-83.5 28h-68q-33 0 -59 -16.5t-41 -46t-15 -68.5q0 -36 12 -65.5t42.5 -47.5t82.5 -18zM206 220q34 0 57.5 15.5t35.5 48t12 81.5q0 56 -12.5 89.5t-36 48t-58.5 14.5q-31 0 -55 -16t-37.5 -49.5t-13.5 -87.5
q0 -71 28 -107.5t80 -36.5zM197 619q15 27 29 52t26 49t20 46h44v-10q-8 -13 -21 -32t-29.5 -40t-33.5 -41t-31 -37h-4v13z" />
    <glyph glyph-name="uni01F6" unicode="&#x1f6;" horiz-adv-x="808" 
d="M599 -10q-38 0 -63 16.5t-37.5 55t-12.5 102.5v197h-336v-253q0 -38 3.5 -57t15.5 -25t37 -6h31v-20h-196v20h24q26 0 38 6t15.5 25t3.5 57v498q0 39 -3.5 57.5t-15.5 24.5t-37 6h-25v20h196v-20h-31q-25 0 -37 -6t-15.5 -24.5t-3.5 -57.5v-220h336v220q0 39 -3.5 57.5
t-15.5 24.5t-37 6h-31v20h197v-20h-26q-25 0 -37 -6t-15.5 -24.5t-3.5 -57.5v-442q0 -78 20.5 -113.5t65.5 -35.5q50 0 68 35t18 102v132q0 36 -3.5 53.5t-15 23t-35.5 5.5h-28v20h193v-20h-29q-23 0 -34.5 -5.5t-15.5 -23t-4 -53.5v-144q0 -45 -11 -79t-36 -52.5t-68 -18.5
z" />
    </font>
</defs>
</svg>
