<?xml version="1.0" standalone="no"?>
<!DOCTYPE svg PUBLIC "-//W3C//DTD SVG 1.1//EN" "http://www.w3.org/Graphics/SVG/1.1/DTD/svg11.dtd" >
<svg xmlns="http://www.w3.org/2000/svg" xmlns:xlink="http://www.w3.org/1999/xlink" version="1.1">
<metadata>
Created by FontForge 20201107 at Wed Nov 20 20:06:57 2024
 By 
Copyright 2022 The Noto Project Authors (https://github.com/notofonts/latin-greek-cyrillic)
</metadata>
<defs>
<font id="NotoSerifCondensed-Medium" horiz-adv-x="0" >
  <font-face 
    font-family="Noto Serif Condensed Medium"
    font-weight="500"
    font-stretch="condensed"
    units-per-em="1000"
    panose-1="2 2 5 2 6 5 5 2 2 4"
    ascent="800"
    descent="-200"
    x-height="536"
    cap-height="714"
    bbox="-603 -389 2401 1049"
    underline-thickness="50"
    underline-position="-125"
    unicode-range="U+000D-1DF1E"
  />
<missing-glyph horiz-adv-x="585" 
d="M86 0v714h411v-714h-411zM137 51h309v612h-309v-612z" />
    <glyph glyph-name="f_f" unicode="ff" horiz-adv-x="627" 
d="M20 0v44h15q16 0 31.5 5t25 20t9.5 45v370h-77v52h77v28q0 100 42.5 148.5t124.5 48.5q42 0 67.5 -9.5t36.5 -26t11 -36.5q0 -27 -19.5 -42t-53.5 -15q0 22 -4.5 40.5t-15 29.5t-29.5 11q-21 0 -34 -16t-18.5 -47.5t-5.5 -77.5v-36h222v-52h-222v-369q0 -31 9 -46t24 -20
t32 -5h15v-44h-263zM321 0v44h10q17 0 32.5 5t25 20t9.5 45v370h-58v52h58v26q0 62 19 108.5t56.5 73t94.5 26.5q44 0 70.5 -9t38 -25t11.5 -36q0 -18 -9 -31t-27.5 -20.5t-45.5 -7.5q0 20 -4.5 38.5t-14 31t-27.5 12.5q-34 0 -47 -43.5t-13 -106.5v-37h120v-52h-120v-370
q0 -30 9.5 -45t25 -20t31.5 -5h36v-44h-281z" />
    <glyph glyph-name="fi" unicode="fi" horiz-adv-x="593" 
d="M20 0v44h15q16 0 31.5 5t25 20t9.5 45v370h-77v52h77v28q0 62 22.5 109t70.5 73t124 26q48 0 81.5 -6t54.5 -17.5t30.5 -27t9.5 -33.5q0 -31 -23.5 -49t-72.5 -18q0 22 -7.5 46t-27.5 41t-57 17q-40 0 -62.5 -23t-31.5 -59.5t-9 -77.5v-29h301v-421q0 -30 9 -45.5
t24 -20.5t33 -5h11v-44h-251v44h9q18 0 32 4.5t22.5 19.5t8.5 43v373h-199v-370q0 -30 9.5 -45t25 -20t32.5 -5h17v-44h-267z" />
    <glyph glyph-name="fl" unicode="fl" horiz-adv-x="593" 
d="M20 0v44h15q16 0 31.5 5t25 20t9.5 45v370h-77v52h77v25q0 97 52 153t164 56q24 0 45.5 -3.5t37.5 -6.5h103v-645q0 -30 9.5 -45.5t24.5 -20.5t33 -5h11v-44h-250v44h4q18 0 33 5t24 20t9 46v501q0 30 -10 54t-30.5 38.5t-53.5 14.5q-39 0 -61.5 -21.5t-32.5 -56.5
t-10 -78v-31h118v-52h-118v-370q0 -30 9.5 -45t25 -20t32.5 -5h15v-44h-265z" />
    <glyph glyph-name="f_f_i" unicode="ffi" horiz-adv-x="886" 
d="M20 0v44h15q16 0 31.5 5t25 20t9.5 45v370h-77v52h77v28q0 100 42.5 148.5t124.5 48.5q42 0 67.5 -9.5t36.5 -26t11 -36.5q0 -27 -19.5 -42t-53.5 -15q0 22 -4.5 40.5t-15 29.5t-29.5 11q-21 0 -34 -16t-18.5 -47.5t-5.5 -77.5v-36h195v17q0 110 54 165.5t163 55.5
q62 0 100.5 -11t56 -30.5t17.5 -44.5q0 -21 -10.5 -36t-32.5 -23t-55 -8q0 21 -8 45.5t-27.5 42t-55.5 17.5t-58 -19.5t-32 -54.5t-10 -82v-34h296v-422q0 -30 10 -45t25.5 -20t31.5 -5h11v-44h-249v44h5q16 0 31 4.5t24.5 19t9.5 42.5v374h-195v-369q0 -30 9 -45.5
t23.5 -20.5t31.5 -5h16v-44h-259v44h11q17 0 32 5t24.5 20t9.5 45v370h-195v-369q0 -31 9 -46t24 -20t32 -5h15v-44h-263z" />
    <glyph glyph-name="f_f_l" unicode="ffl" horiz-adv-x="898" 
d="M20 0v44h15q16 0 31.5 5t25 20t9.5 45v370h-77v52h77v38q0 94 42 143.5t125 49.5q44 0 69.5 -9.5t37 -25t11.5 -35.5q0 -26 -18.5 -42.5t-56.5 -16.5q0 20 -4 39t-14.5 31t-30.5 12q-32 0 -45.5 -34.5t-13.5 -99.5v-50h201v26q0 97 51.5 152.5t162.5 55.5q24 0 45.5 -3.5
t35.5 -6.5h110v-643q0 -31 8.5 -46.5t23.5 -21t34 -5.5h11v-44h-250v44h5q19 0 34 5.5t23.5 21t8.5 46.5v500q0 34 -10 57.5t-31 35.5t-54 12q-41 0 -64 -22t-32.5 -58t-9.5 -80v-26h122v-52h-122v-369q0 -31 9 -46t24.5 -20t32.5 -5h17v-44h-262v44h11q17 0 32 5t24.5 20
t9.5 46v369h-201v-369q0 -31 9 -46t24.5 -20t32.5 -5h21v-44h-270z" />
    <glyph glyph-name=".notdef" horiz-adv-x="585" 
d="M86 0v714h411v-714h-411zM137 51h309v612h-309v-612z" />
    <glyph glyph-name=".null" 
 />
    <glyph glyph-name="nonmarkingreturn" horiz-adv-x="333" 
 />
    <glyph glyph-name="NULL" 
 />
    <glyph glyph-name="CR" unicode="&#xd;" horiz-adv-x="223" 
 />
    <glyph glyph-name="space" unicode=" " horiz-adv-x="223" 
 />
    <glyph glyph-name="exclam" unicode="!" horiz-adv-x="308" 
d="M128 212l-34 502h120l-34 -502h-52zM154 -7q-25 0 -42 14.5t-17 52.5q0 37 17 51.5t43 14.5q23 0 41 -14.5t18 -51.5q0 -38 -18 -52.5t-42 -14.5z" />
    <glyph glyph-name="quotedbl" unicode="&#x22;" horiz-adv-x="387" 
d="M84 472l-31 242h109l-31 -242h-47zM255 472l-31 242h109l-31 -242h-47z" />
    <glyph glyph-name="numbersign" unicode="#" horiz-adv-x="481" 
d="M56 0l39 205h-81v57h92l36 195h-96v58h108l36 199h61l-37 -199h108l37 199h61l-38 -199h85v-58h-96l-37 -195h101v-57h-112l-38 -205h-60l38 205h-108l-39 -205h-60zM166 262h108l37 195h-108z" />
    <glyph glyph-name="dollar" unicode="$" horiz-adv-x="480" 
d="M220 40q-44 2 -76 13t-53.5 29t-32 42.5t-10.5 53.5q0 21 9 36t24.5 23.5t35.5 8.5q4 -46 14.5 -80.5t32 -54.5t56.5 -25v244q-57 28 -90 55.5t-47.5 61.5t-14.5 76q0 46 19.5 80t54 54.5t78.5 25.5v77h43v-76q50 -1 82 -15.5t47.5 -38t15.5 -52.5q0 -30 -19 -48t-57 -18
q0 31 -6 59t-21 47t-42 22v-229q53 -26 89.5 -54t55.5 -62.5t19 -79.5q0 -73 -44 -118t-120 -55v-121h-43v119zM263 88q39 7 59 34.5t20 68.5q0 40 -18 67.5t-61 50.5v-221zM220 640q-32 -6 -50 -32t-18 -64q0 -27 7 -46.5t22.5 -34.5t38.5 -29v206z" />
    <glyph glyph-name="percent" unicode="%" horiz-adv-x="773" 
d="M204 0l302 714h60l-301 -714h-61zM181 280q-77 0 -112 61.5t-35 161.5q0 101 35 161t113 60q74 0 110 -60t36 -161q0 -67 -16 -117t-48.5 -78t-82.5 -28zM181 320q25 0 38.5 21.5t20 62.5t6.5 99q0 86 -14 133t-50 47q-24 0 -38.5 -21t-21 -61.5t-6.5 -97.5
q0 -88 14.5 -135.5t50.5 -47.5zM592 -10q-78 0 -112.5 61.5t-34.5 161.5q0 101 35 161t112 60q74 0 110.5 -60t36.5 -161q0 -67 -16.5 -117t-49 -78t-81.5 -28zM591 30q25 0 39 21.5t20 62.5t6 99q0 86 -13.5 133t-50.5 47q-24 0 -38.5 -21t-21 -61.5t-6.5 -97.5
q0 -88 14.5 -135.5t50.5 -47.5z" />
    <glyph glyph-name="ampersand" unicode="&#x26;" horiz-adv-x="659" 
d="M241 -10q-66 0 -113 26t-71 72.5t-24 110.5q0 57 19.5 95.5t52.5 64t73 44.5q-22 29 -37 55t-22 53t-7 61q0 45 17.5 79t54.5 53.5t93 19.5q57 0 91.5 -20t50.5 -52.5t16 -69.5q0 -42 -14.5 -74.5t-45 -57.5t-79.5 -49l143 -185q10 40 14.5 84.5t4.5 81.5v40h166v-44h-11
q-19 0 -37 -3t-31.5 -16.5t-20.5 -44.5q-7 -33 -17 -70.5t-25 -74.5l84 -99q13 -16 31 -21t45 -5h8v-44h-152l-69 87q-19 -26 -46 -48t-62 -35.5t-80 -13.5zM260 48q46 0 80 23t56 56l-186 237q-22 -15 -39 -37.5t-26 -53t-9 -73.5q0 -75 34 -113.5t90 -38.5zM264 438
q47 26 68.5 59t21.5 84q0 40 -18.5 67t-55.5 27t-56.5 -25.5t-19.5 -69.5q0 -24 6.5 -46.5t19.5 -45t34 -50.5z" />
    <glyph glyph-name="quotesingle" unicode="'" horiz-adv-x="215" 
d="M84 472l-31 242h109l-31 -242h-47z" />
    <glyph glyph-name="parenleft" unicode="(" horiz-adv-x="316" 
d="M290 -130q-86 38 -139.5 97t-77.5 145.5t-24 204.5q0 119 24 204.5t77 144t140 96.5v-48q-42 -31 -68.5 -74.5t-39.5 -95.5t-17.5 -109.5t-4.5 -117.5t4.5 -117.5t17.5 -110t39.5 -96t68.5 -74.5v-49z" />
    <glyph glyph-name="parenright" unicode=")" horiz-adv-x="316" 
d="M27 -81q42 31 68.5 74.5t39.5 96t18 110t5 117.5t-5 117.5t-18 109.5t-39.5 95.5t-68.5 74.5v48q87 -38 140 -96.5t77 -144t24 -204.5q0 -118 -24 -204.5t-77 -145.5t-140 -97v49z" />
    <glyph glyph-name="asterisk" unicode="*" horiz-adv-x="418" 
d="M168 373l24 164l-126 -99l-33 79l136 49l-136 50l33 79l127 -100l-25 165h82l-26 -164l127 97l34 -78l-137 -49l137 -48l-34 -78l-127 97l26 -164h-82z" />
    <glyph glyph-name="plus" unicode="+" horiz-adv-x="466" 
d="M201 143v184h-153v61h153v184h62v-184h154v-61h-154v-184h-62z" />
    <glyph glyph-name="comma" unicode="," horiz-adv-x="231" 
d="M34 -112q26 10 42.5 23.5t24.5 30t8 33.5q0 14 -8.5 22.5t-20.5 16t-20.5 20.5t-8.5 35q0 28 16.5 43t39.5 15q31 0 49.5 -25t18.5 -70q0 -60 -32 -110.5t-109 -75.5v42z" />
    <glyph glyph-name="hyphen" unicode="-" horiz-adv-x="267" 
d="M22 232v81h223v-81h-223z" />
    <glyph glyph-name="period" unicode="." horiz-adv-x="231" 
d="M116 -7q-25 0 -42.5 14.5t-17.5 52.5t17.5 52.5t42.5 14.5q23 0 41 -14.5t18 -52.5t-18 -52.5t-41 -14.5z" />
    <glyph glyph-name="slash" unicode="/" horiz-adv-x="247" 
d="M0 -121l193 881h54l-191 -880z" />
    <glyph glyph-name="zero" unicode="0" horiz-adv-x="480" 
d="M240 -10q-74 0 -119.5 44t-65.5 126.5t-20 198.5q0 113 20 195t65 126t121 44q73 0 117.5 -43.5t65.5 -125.5t21 -197t-21.5 -197t-66.5 -126.5t-117 -44.5zM240 44q38 0 59.5 37t30.5 107.5t9 169.5t-9 169t-30 106.5t-59 36.5t-60 -36.5t-30.5 -106.5t-8.5 -169
t8.5 -169.5t30 -107.5t59.5 -37z" />
    <glyph glyph-name="one" unicode="1" horiz-adv-x="480" 
d="M82 0v44h55q19 0 34.5 5t24 20t8.5 45v520q-31 -44 -58 -71.5t-52 -27.5q-20 0 -33 15t-13 41q26 8 56 24t73 52l59 51h70v-604q0 -28 8.5 -43.5t24 -21t35.5 -5.5h42v-44h-334z" />
    <glyph glyph-name="two" unicode="2" horiz-adv-x="480" 
d="M41 0v75l142 183q48 62 75.5 109.5t39 90t11.5 88.5q0 40 -9 68t-27.5 43t-45.5 15q-36 0 -55.5 -20t-27.5 -54t-8 -77q-23 0 -43 6.5t-32 21.5t-12 42q0 37 20 67t59.5 48t98.5 18q60 0 101.5 -21.5t63.5 -59.5t22 -89q0 -39 -10.5 -74.5t-30.5 -71t-48.5 -72.5
t-64.5 -78l-142 -173h196q33 0 49 19.5t23 53.5l5 22h44l-4 -180h-390z" />
    <glyph glyph-name="three" unicode="3" horiz-adv-x="480" 
d="M218 -10q-64 0 -103 16t-57.5 42t-18.5 57t20 49t49 18q0 -55 29 -90.5t80 -35.5q31 0 57 15t41.5 49t15.5 90q0 67 -35.5 106t-105.5 39h-41v51h43q37 0 63.5 18.5t40.5 53t14 81.5q0 58 -20.5 90.5t-63.5 32.5q-34 0 -53.5 -20.5t-28 -53.5t-8.5 -73q-35 0 -59 14.5
t-24 50.5q0 37 19.5 67.5t60 48.5t99.5 18q83 0 133.5 -42.5t50.5 -121.5q0 -45 -17.5 -81.5t-47 -62t-67.5 -37.5q26 -4 53.5 -15t50 -32t36 -53t13.5 -80q0 -58 -19 -98.5t-50.5 -64.5t-70.5 -35t-79 -11z" />
    <glyph glyph-name="four" unicode="4" horiz-adv-x="480" 
d="M173 0v44h24q20 0 36 5t25.5 20.5t9.5 46.5v78h-254v45l254 475h99v-462h99v-58h-99v-78q0 -31 9.5 -46.5t26 -20.5t35.5 -5h11v-44h-276zM78 252h190v186v64t1.5 70.5t3.5 66.5q-4 -13 -13.5 -33t-20.5 -43t-21.5 -44.5t-18.5 -36.5z" />
    <glyph glyph-name="five" unicode="5" horiz-adv-x="480" 
d="M210 -10q-64 0 -101 17t-52 42t-15 48q0 29 16 46t44 17q0 -29 10.5 -55t32.5 -42t57 -16q33 0 59 15.5t41.5 53.5t15.5 102q0 79 -33 118t-90 39q-37 0 -61.5 -8t-42.5 -16l-24 11l29 352h300l3 -156h-43l-6 25q-3 17 -7 27t-11.5 14.5t-24.5 4.5h-170l-17 -216
q10 5 25.5 8.5t34 6t37.5 2.5q61 0 108 -23.5t73 -70.5t26 -118q0 -43 -10.5 -78.5t-30 -63t-46.5 -47t-59 -29.5t-68 -10z" />
    <glyph glyph-name="six" unicode="6" horiz-adv-x="480" 
d="M252 -10q-60 0 -106 37t-72.5 115.5t-26.5 201.5q0 86 13.5 156t41.5 120t71 77t101 27q51 0 84 -15t49.5 -39.5t16.5 -51.5q0 -29 -19 -45.5t-58 -16.5q0 34 -8 60.5t-24.5 42t-43.5 15.5q-38 0 -64.5 -33t-40 -97.5t-16.5 -159.5q13 13 30.5 24.5t40 18.5t50.5 7
q78 0 124.5 -54.5t46.5 -150.5q0 -70 -22 -124t-64.5 -84.5t-103.5 -30.5zM254 44q28 0 47.5 18.5t29.5 57.5t10 99q0 86 -24 124.5t-68 38.5q-23 0 -41.5 -8.5t-33 -20.5t-25.5 -25q2 -146 29 -215t76 -69z" />
    <glyph glyph-name="seven" unicode="7" horiz-adv-x="480" 
d="M122 0l219 629h-197q-24 0 -35.5 -12.5t-13.5 -40.5l-4 -48h-46l5 186h390v-32l-221 -682h-97z" />
    <glyph glyph-name="eight" unicode="8" horiz-adv-x="480" 
d="M236 -10q-68 0 -112.5 25t-66.5 66.5t-22 93.5q0 50 17.5 86t47 60.5t65.5 43.5q-32 21 -57 46t-39.5 58.5t-14.5 76.5q0 49 20 89.5t62 64.5t108 24q58 0 97.5 -21.5t60 -59t20.5 -86.5q0 -68 -31 -107.5t-84 -67.5q44 -23 75 -50.5t47.5 -63t16.5 -85.5
q0 -90 -56 -141.5t-154 -51.5zM239 41q49 0 79 33.5t30 92.5q0 35 -14.5 63.5t-45 54.5t-80.5 53q-36 -25 -56.5 -65.5t-20.5 -95.5q0 -65 28.5 -100.5t79.5 -35.5zM261 406q27 18 42 39t21.5 48t6.5 62q0 31 -9 58t-29 43.5t-52 16.5q-43 0 -66 -31t-23 -83q0 -37 12.5 -64
t37.5 -48t59 -41z" />
    <glyph glyph-name="nine" unicode="9" horiz-adv-x="480" 
d="M195 -11q-48 0 -77 13t-41.5 33t-12.5 42q0 20 9 34.5t26 19.5q8 -23 20.5 -42.5t32.5 -31t49 -11.5q64 0 95.5 73.5t35.5 224.5q-11 -16 -29 -31t-42 -24.5t-54 -9.5q-49 0 -87.5 23t-60 68.5t-21.5 112.5q0 70 22.5 124.5t64.5 85.5t101 31q60 0 107 -34.5t74 -108.5
t27 -193q0 -86 -13.5 -158.5t-42 -126.5t-74 -84t-109.5 -30zM233 335q40 1 64 23t36 46q-1 94 -13.5 152.5t-35 85.5t-54.5 27q-29 0 -49 -20.5t-30.5 -61t-10.5 -99.5q0 -77 23 -114.5t70 -38.5z" />
    <glyph glyph-name="colon" unicode=":" horiz-adv-x="246" 
d="M123 403q-25 0 -42 14.5t-17 51.5q0 38 17 52.5t42 14.5q24 0 42 -14.5t18 -52.5q0 -37 -18 -51.5t-42 -14.5zM123 -7q-25 0 -42 14.5t-17 52.5t17 52.5t42 14.5q24 0 42 -14.5t18 -52.5t-18 -52.5t-42 -14.5z" />
    <glyph glyph-name="semicolon" unicode=";" horiz-adv-x="246" 
d="M43 -112q26 10 43 23t25.5 29.5t8.5 34.5q0 14 -9 22.5t-21 16t-21 20.5t-9 35q0 28 16.5 43t39.5 15q31 0 50 -25t19 -70q0 -60 -32.5 -110.5t-109.5 -75.5v42zM123 403q-25 0 -42 14.5t-17 51.5q0 38 17 52.5t42 14.5t42.5 -14.5t17.5 -52.5q0 -37 -17.5 -51.5
t-42.5 -14.5z" />
    <glyph glyph-name="less" unicode="&#x3c;" horiz-adv-x="466" 
d="M417 109l-369 230v37l369 231v-68l-284 -182l284 -179v-69z" />
    <glyph glyph-name="equal" unicode="=" horiz-adv-x="466" 
d="M48 422v61h370v-61h-370zM48 231v61h370v-61h-370z" />
    <glyph glyph-name="greater" unicode="&#x3e;" horiz-adv-x="466" 
d="M48 109v69l284 179l-284 182v68l369 -231v-37z" />
    <glyph glyph-name="question" unicode="?" horiz-adv-x="450" 
d="M167 348q50 23 77.5 55t39 70t11.5 79q0 51 -21 86t-64 35q-31 0 -49.5 -16.5t-26.5 -44t-8 -62.5q-40 0 -65.5 15t-25.5 47q0 23 10.5 43.5t32.5 36t54 24t75 8.5q58 0 102 -21t68.5 -61t24.5 -97q0 -55 -18.5 -95.5t-55 -71.5t-91.5 -57l-10 -109h-51zM201 -7
q-25 0 -42 14.5t-17 51.5q0 38 17 52.5t42 14.5t43 -14.5t18 -52.5q0 -37 -18 -51.5t-43 -14.5z" />
    <glyph glyph-name="at" unicode="@" horiz-adv-x="790" 
d="M378 -142q-69 0 -128 22t-103 66.5t-68.5 112.5t-24.5 159q0 112 31.5 203.5t86.5 156.5t127.5 100.5t155.5 35.5q93 0 158 -41.5t99.5 -114.5t34.5 -169q0 -71 -15 -128.5t-39 -98.5t-55 -63t-62 -22q-38 0 -64 23.5t-38 71.5h-4q-12 -26 -28.5 -47.5t-39 -34.5
t-53.5 -13q-34 0 -63.5 19t-47 57t-17.5 95q0 45 13.5 94t40.5 91.5t68.5 69t98.5 26.5q26 0 49 -9.5t35 -20.5l35 21h22l-41 -246q-1 -12 -3 -25.5t-2.5 -26.5t-0.5 -23q0 -40 15 -56.5t32 -16.5q18 0 37.5 17t36 50.5t26.5 82t10 111.5q0 91 -31 153.5t-86.5 95.5
t-126.5 33q-64 0 -123 -32t-105 -91.5t-73 -142t-27 -183.5q0 -110 34 -179t94 -101.5t137 -32.5q49 0 90 12.5t75 31.5t59 40l20 -36q-30 -24 -67 -46.5t-82.5 -36.5t-102.5 -14zM371 126q20 0 34.5 11t25 29t18 39.5t10.5 42.5l36 213q-6 13 -20.5 21t-32.5 8
q-36 0 -61.5 -25.5t-42 -66t-24 -84.5t-7.5 -81q0 -56 18 -81.5t46 -25.5z" />
    <glyph glyph-name="A" unicode="A" horiz-adv-x="623" 
d="M2 0v44h14q16 0 27 6t20.5 22.5t18.5 48.5l189 593h88l191 -620q6 -19 14 -30t20.5 -15.5t29.5 -4.5h9v-44h-256v44h22q24 0 36 10t12 30q0 7 -1 15.5t-3.5 18t-5.5 18.5l-30 103h-218l-27 -95l-4.5 -18t-4.5 -19.5t-2 -18.5q0 -20 12 -32t39 -12h25v-44h-215zM197 291
h184l-53 187q-7 28 -14.5 53.5t-13 48t-9.5 42.5l-10.5 -42t-11.5 -45t-14 -49z" />
    <glyph glyph-name="B" unicode="B" horiz-adv-x="572" 
d="M29 0v44h22q18 0 31 5t20.5 20t7.5 45v489q0 30 -8 44t-21.5 18.5t-29.5 4.5h-22v44h242q115 0 173.5 -42.5t58.5 -133.5q0 -44 -15 -75t-40 -51t-57 -31v-5q41 -7 72 -30t48 -61t17 -91q0 -98 -57.5 -146t-174.5 -48h-267zM290 52q67 0 95.5 32.5t28.5 112.5
q0 51 -11.5 84.5t-38 50t-72.5 16.5h-75v-296h73zM267 400q46 0 72.5 14.5t38 44t11.5 75.5q0 73 -28.5 100.5t-94.5 27.5h-49v-262h50z" />
    <glyph glyph-name="C" unicode="C" horiz-adv-x="548" 
d="M321 -10q-90 0 -150.5 46t-91.5 128.5t-31 193.5q0 110 32 192t95 128t156 46q61 0 102 -15.5t62 -41.5t21 -57q0 -32 -23.5 -51.5t-63.5 -19.5q0 32 -10 62t-32.5 49t-62.5 19q-57 0 -92.5 -37t-51.5 -107t-16 -167q0 -96 18 -164.5t56.5 -104.5t100.5 -36q43 0 73 13
t51 34t36 45q7 -5 11 -15.5t4 -22.5q0 -18 -11 -38.5t-33.5 -38t-59 -29t-89.5 -11.5z" />
    <glyph glyph-name="D" unicode="D" horiz-adv-x="639" 
d="M29 0v44h22q17 0 30.5 5.5t21 20.5t7.5 43v491q0 28 -8 42t-22 19t-32 5h-19v44h272q91 0 156 -41t99.5 -120t34.5 -193q0 -109 -32.5 -190t-97 -125.5t-160.5 -44.5h-272zM281 53q64 0 107 35.5t64.5 104t21.5 167.5t-21.5 166t-64.5 101.5t-106 34.5h-64v-609h63z" />
    <glyph glyph-name="E" unicode="E" horiz-adv-x="546" 
d="M29 0v44h20q19 0 32.5 5t21 19t7.5 40v493q0 30 -8 44.5t-22 19.5t-31 5h-20v44h452l4 -177h-52l-4 44q-2 22 -9.5 40.5t-22.5 29.5t-41 11h-138v-263h205v-51h-205v-296h160q26 0 42 11t25 29.5t12 40.5l5 44h52l-6 -177h-479z" />
    <glyph glyph-name="F" unicode="F" horiz-adv-x="519" 
d="M29 0v44h16q20 0 34.5 5t22.5 18.5t8 40.5v497q0 27 -8 41t-21.5 19t-31.5 5h-20v44h451l5 -177h-52l-4 45q-4 34 -20.5 57t-52.5 23h-138v-286h206v-51h-206v-213q0 -28 8 -42.5t23.5 -20t35.5 -5.5h31v-44h-287z" />
    <glyph glyph-name="G" unicode="G" horiz-adv-x="633" 
d="M353 -10q-103 0 -170.5 46t-101 128.5t-33.5 193.5q0 108 35 190.5t103.5 129t170.5 46.5q65 0 109.5 -14.5t67.5 -40t23 -57.5q0 -33 -23.5 -53t-65.5 -20q0 32 -11.5 62t-36.5 49t-66 19q-66 0 -108 -35t-61.5 -104t-19.5 -172q0 -100 19.5 -169.5t63.5 -105.5t118 -36
q20 0 40.5 2.5t37.5 8.5v161q0 29 -8 43.5t-22 19.5t-34 5h-9v44h239v-44h-6q-17 0 -28.5 -5t-18 -20.5t-6.5 -46.5v-178q-45 -23 -93 -35t-105 -12z" />
    <glyph glyph-name="H" unicode="H" horiz-adv-x="690" 
d="M29 0v44h22q17 0 30.5 5.5t21 20t7.5 42.5v492q0 28 -8 42t-22.5 19t-32.5 5h-18v44h264v-44h-16q-18 0 -31 -5t-20 -19.5t-7 -42.5v-204h254v203q0 29 -7.5 43.5t-21 19.5t-31.5 5h-15v44h264v-44h-22q-17 0 -30.5 -5t-21 -19.5t-7.5 -43.5v-493q0 -27 7.5 -41t21 -19
t30.5 -5h22v-44h-264v44h15q18 0 31.5 5.5t21 20.5t7.5 43v234h-254v-235q0 -28 7 -42.5t20 -20t31 -5.5h16v-44h-264z" />
    <glyph glyph-name="I" unicode="I" horiz-adv-x="327" 
d="M29 0v44h22q16 0 29.5 5t21.5 19.5t8 42.5v490q0 29 -8 43.5t-21.5 20t-29.5 5.5h-22v44h270v-44h-22q-17 0 -30.5 -5.5t-21 -20t-7.5 -43.5v-489q0 -28 7.5 -42.5t21.5 -20t30 -5.5h22v-44h-270z" />
    <glyph glyph-name="J" unicode="J" horiz-adv-x="324" 
d="M-11 -240v49h11q33 0 58.5 16.5t40 57t14.5 109.5v613q0 27 -8 41t-21.5 19t-29.5 5h-21v44h269v-44h-21q-16 0 -30 -5.5t-22 -20t-8 -43.5v-608q0 -67 -17 -112t-46 -71.5t-66.5 -38t-80.5 -11.5h-22z" />
    <glyph glyph-name="K" unicode="K" horiz-adv-x="617" 
d="M29 0v44h21q17 0 30.5 4.5t21.5 18.5t8 42v496q0 28 -8 42t-21 18.5t-30 4.5h-22v44h267v-44h-20q-17 0 -30 -5t-20.5 -19.5t-7.5 -44.5v-279l161 229q19 25 29.5 43t15.5 31t5 23q0 14 -10.5 18.5t-35.5 4.5v43h207v-43q-21 0 -40 -10.5t-38 -31t-41 -49.5l-121 -162
l177 -293q16 -28 31.5 -45.5t31 -26.5t31.5 -9h3v-44h-33q-41 0 -68 4.5t-45.5 16t-33 30.5t-30.5 48l-135 239l-61 -76v-149q0 -30 8 -44.5t21 -19.5t31 -5h18v-44h-267z" />
    <glyph glyph-name="L" unicode="L" horiz-adv-x="545" 
d="M29 0v44h22q16 0 29.5 5t21.5 19.5t8 42.5v491q0 29 -8 43.5t-22 19.5t-32 5h-19v44h270v-44h-20q-19 0 -33 -5t-21 -19t-7 -41v-553h165q24 0 39 11t24 31.5t12 46.5l11 75h45l-6 -216h-479z" />
    <glyph glyph-name="M" unicode="M" horiz-adv-x="810" 
d="M29 0v44h15q19 0 34 5t23.5 19t8.5 41v495q0 28 -8 42t-22 19t-31 5h-20v44h217l160 -557l159 557h217v-44h-22q-16 0 -29.5 -5t-21.5 -19.5t-8 -42.5v-492q0 -28 7.5 -42.5t22 -19.5t32.5 -5h19v-44h-254v44h9q21 0 34 5.5t19.5 20t6.5 42.5v523l-183 -635h-59l-188 634
v-520q0 -30 7.5 -45t22 -20t33.5 -5h7v-44h-208z" />
    <glyph glyph-name="N" unicode="N" horiz-adv-x="664" 
d="M29 0v44h15q20 0 35 5t23 20t8 45v490q0 29 -8.5 43t-22.5 18.5t-32 4.5h-18v44h178l299 -547v437q0 28 -8 42t-22.5 19t-32.5 5h-17v44h218v-44h-18q-18 0 -32.5 -5.5t-22.5 -20t-8 -44.5v-600h-73l-323 581v-467q0 -30 8 -45t22 -20t33 -5h18v-44h-219z" />
    <glyph glyph-name="O" unicode="O" horiz-adv-x="654" 
d="M327 -10q-94 0 -156 46t-92.5 129t-30.5 194t30.5 193t93 127.5t156.5 45.5q89 0 151 -45.5t94.5 -128t32.5 -193.5t-32.5 -193.5t-94.5 -128.5t-152 -46zM327 46q60 0 95.5 37t51 107t15.5 168q0 99 -15.5 168.5t-51 106t-94.5 36.5q-88 0 -126 -81.5t-38 -229.5
q0 -98 16.5 -168t52.5 -107t94 -37z" />
    <glyph glyph-name="P" unicode="P" horiz-adv-x="531" 
d="M29 0v44h17q18 0 33 5t23 20t8 45v490q0 29 -8.5 43t-22.5 18.5t-31 4.5h-19v44h254q115 0 169.5 -54.5t54.5 -155.5q0 -46 -12.5 -86.5t-41.5 -72.5t-75.5 -50t-113.5 -18h-45v-168q0 -28 8.5 -42t23 -18.5t31.5 -4.5h31v-44h-284zM256 326q36 0 62.5 9.5t43 30.5
t24.5 54t8 80q0 84 -29 124t-96 40h-51v-338h38z" />
    <glyph glyph-name="Q" unicode="Q" horiz-adv-x="654" 
d="M487 -230q-36 0 -71.5 11t-64.5 36t-48.5 68.5t-23.5 106.5q-77 11 -128.5 59t-77 127t-25.5 181q0 111 30.5 193t93 127.5t156.5 45.5q89 0 151 -45.5t94.5 -128t32.5 -193.5q0 -96 -24.5 -172t-71.5 -125t-115 -65q3 -51 14 -85.5t28 -54.5t38.5 -28.5t45.5 -8.5h14
v-49h-48zM327 46q90 0 126 82.5t36 229.5q0 99 -15.5 168.5t-51 106t-94.5 36.5t-95 -36.5t-52.5 -106t-16.5 -168.5q0 -98 16.5 -168t52 -107t94.5 -37z" />
    <glyph glyph-name="R" unicode="R" horiz-adv-x="585" 
d="M29 0v44h17q17 0 31.5 4.5t23.5 18.5t9 42v495q0 29 -9 43t-23.5 18.5t-31.5 4.5h-17v44h251q81 0 132 -20.5t75 -62.5t24 -106q0 -56 -17.5 -93.5t-46.5 -60t-62 -34.5l113 -212q22 -40 41.5 -60.5t44.5 -20.5h4v-44h-19q-49 0 -81 7t-53.5 26.5t-39.5 56.5l-110 224
h-66v-205q0 -28 8 -42t22 -18.5t32 -4.5h12v-44h-264zM267 363q70 0 100 40t30 117q0 49 -13 81t-40.5 47.5t-72.5 15.5h-52v-301h48z" />
    <glyph glyph-name="S" unicode="S" horiz-adv-x="478" 
d="M228 -10q-51 0 -87.5 10.5t-59.5 29.5t-33.5 44t-10.5 54q0 24 9.5 40.5t26.5 25t39 8.5q2 -48 17.5 -85t43 -57t63.5 -20q54 0 83.5 32t29.5 88q0 40 -15.5 66.5t-46.5 49t-79 46.5q-53 27 -87.5 57.5t-51.5 70.5t-17 93q0 55 26.5 96t71 63t99.5 22q56 0 94 -17
t57.5 -43t19.5 -54q0 -33 -20 -49.5t-61 -16.5q0 33 -10.5 62.5t-32.5 48t-56 18.5q-46 0 -71 -29.5t-25 -81.5q0 -35 11.5 -60.5t41.5 -48t83 -48.5q54 -26 89.5 -55.5t53.5 -67.5t18 -91q0 -64 -26.5 -108.5t-75 -68.5t-111.5 -24z" />
    <glyph glyph-name="T" unicode="T" horiz-adv-x="541" 
d="M127 0v44h19q19 0 35 4.5t25.5 19t9.5 43.5v551h-77q-37 0 -52 -23.5t-18 -56.5l-6 -46h-49l4 178h505l4 -178h-49l-6 46q-3 33 -18 56.5t-53 23.5h-77v-548q0 -30 9 -45t25 -20t35 -5h20v-44h-286z" />
    <glyph glyph-name="U" unicode="U" horiz-adv-x="626" 
d="M317 -10q-68 0 -118.5 22.5t-77.5 72.5t-27 132v387q0 29 -9 43t-24 18.5t-34 4.5h-14v44h270v-44h-13q-20 0 -35 -5t-24 -19.5t-9 -45.5v-390q0 -87 38 -122.5t99 -35.5q45 0 75 20t45 55t15 82v395q0 29 -9 43t-23.5 18.5t-34.5 4.5h-13v44h219v-44h-14q-19 0 -34 -5
t-24 -19.5t-9 -45.5v-393q0 -66 -23.5 -115t-71.5 -75.5t-120 -26.5z" />
    <glyph glyph-name="V" unicode="V" horiz-adv-x="588" 
d="M73 618q-6 21 -14 32t-18 15.5t-26 4.5h-15v44h253v-44h-23q-23 0 -34.5 -9.5t-11.5 -27.5q0 -7 1 -15t3.5 -16t4.5 -17l88 -322q7 -27 13.5 -53t11.5 -49t9 -46q5 22 10 45t12 48.5t15 54.5l89 314q3 10 5.5 20t4 19t1.5 16q0 20 -12.5 29t-37.5 9h-25v44h211v-44h-17
q-17 0 -28 -6t-19.5 -22t-17.5 -49l-173 -593h-81z" />
    <glyph glyph-name="W" unicode="W" horiz-adv-x="906" 
d="M77 617q-5 22 -13 33t-19.5 15.5t-28.5 4.5h-11v44h257v-44h-20q-26 0 -38.5 -10t-12.5 -30q0 -9 2.5 -22t4.5 -26l68 -301q7 -29 13.5 -58.5t11.5 -57.5t9 -52q6 38 15.5 80t20.5 89l106 425h71l104 -425q12 -49 22 -92.5t16 -77.5q4 24 8.5 48.5t10 51.5t12.5 59
l68 301q3 12 5.5 30t2.5 28q0 22 -14 31t-42 9h-20v44h216v-44h-16q-17 0 -29 -5.5t-20.5 -22.5t-16.5 -50l-138 -592h-96l-131 542l-131 -542h-99z" />
    <glyph glyph-name="X" unicode="X" horiz-adv-x="593" 
d="M7 0v44h5q22 0 36 6.5t26.5 22t27.5 40.5l145 241l-141 263q-10 19 -20.5 30.5t-23 17t-29.5 5.5h-11v44h254v-44h-3q-29 0 -39 -8.5t-10 -20.5q0 -10 6 -25.5t15 -33.5l77 -147l77 145q9 17 16 33t7 28q0 18 -13.5 23.5t-33.5 5.5h-3v44h193v-44h-8q-17 0 -30 -6
t-26 -21.5t-29 -44.5l-123 -212l156 -289q12 -20 24 -31.5t23 -16.5t22 -5h11v-44h-253v44h4q25 0 38.5 8.5t13.5 24.5q0 11 -5.5 23.5t-23.5 45.5l-84 159l-90 -158q-6 -11 -12 -23.5t-9.5 -24.5t-3.5 -23q0 -16 13 -24t41 -8h3v-44h-210z" />
    <glyph glyph-name="Y" unicode="Y" horiz-adv-x="561" 
d="M138 0v44h20q20 0 35.5 5t25 20t9.5 44v180l-158 324q-10 20 -17.5 31.5t-18 16.5t-25.5 5h-11v44h255v-44h-22q-25 0 -34.5 -10t-9.5 -24q0 -11 4.5 -26.5t10.5 -26.5l64 -134q14 -30 24 -56.5t18 -49.5q8 22 20.5 50.5t26.5 59.5l53 113q9 19 13.5 35.5t4.5 27.5
q0 23 -15 32t-41 9h-20v44h214v-44h-10q-13 0 -24 -7t-22 -23.5t-26 -46.5l-145 -300v-176q0 -31 9 -47t24.5 -21t33.5 -5h23v-44h-289z" />
    <glyph glyph-name="Z" unicode="Z" horiz-adv-x="535" 
d="M33 0v42l325 620h-182q-39 0 -53.5 -24.5t-16.5 -58.5l-5 -45h-52l5 180h429v-43l-327 -619h207q29 0 46 12t24 31.5t9 41.5l4 43h52l-4 -180h-461z" />
    <glyph glyph-name="bracketleft" unicode="[" horiz-adv-x="329" 
d="M86 -128v888h211v-44h-36q-19 0 -35.5 -5t-26 -20t-9.5 -47v-656q0 -31 9.5 -46.5t26 -20.5t35.5 -5h36v-44h-211z" />
    <glyph glyph-name="backslash" unicode="\" horiz-adv-x="247" 
d="M192 -121l-192 881h55l192 -881h-55z" />
    <glyph glyph-name="bracketright" unicode="]" horiz-adv-x="329" 
d="M32 -128v44h37q19 0 35 5t25.5 20.5t9.5 46.5v656q0 32 -9.5 47t-25.5 20t-35 5h-37v44h211v-888h-211z" />
    <glyph glyph-name="asciicircum" unicode="^" horiz-adv-x="464" 
d="M35 268l180 446h32l181 -446h-62l-135 351l-135 -351h-61z" />
    <glyph glyph-name="underscore" unicode="_" horiz-adv-x="393" 
d="M-4 -142v59h402v-59h-402z" />
    <glyph glyph-name="grave" unicode="`" horiz-adv-x="272" 
d="M188 606q-19 14 -41 33.5t-43.5 41.5t-38.5 42t-25 33v10h110q9 -22 23.5 -49t30.5 -53t28 -45v-13h-44z" />
    <glyph glyph-name="a" unicode="a" horiz-adv-x="497" 
d="M173 -10q-37 0 -67 17.5t-47.5 53t-17.5 90.5q0 80 48 118t146 42l71 3v59q0 38 -5.5 65t-20.5 42t-46 15q-28 0 -43.5 -13.5t-21 -38t-5.5 -57.5q-44 0 -65.5 15.5t-21.5 47.5q0 33 21.5 54.5t58.5 32.5t84 11q83 0 125 -39.5t42 -133.5v-258q0 -28 5.5 -43.5t17 -22
t31.5 -6.5h2v-44h-135l-15 83h-7q-18 -27 -35.5 -48.5t-40 -33t-58.5 -11.5zM206 48q32 0 54 18.5t34.5 51t12.5 73.5v80l-48 -3q-42 -2 -67 -16.5t-35.5 -41t-10.5 -65.5q0 -30 6.5 -52t20 -33.5t33.5 -11.5z" />
    <glyph glyph-name="b" unicode="b" horiz-adv-x="540" 
d="M321 -10q-50 0 -81.5 24.5t-50.5 63.5h-6l-19 -78h-149v44h6q19 0 34.5 5t25 20.5t9.5 46.5v532q0 30 -9.5 44.5t-25 19t-34.5 4.5h-6v44h177v-182q0 -17 -0.5 -42t-1 -48.5t-2.5 -38.5h3q19 44 50.5 70.5t82.5 26.5q83 0 127.5 -66.5t44.5 -210.5q0 -96 -21 -158
t-60 -91.5t-94 -29.5zM297 52q51 0 72.5 56t21.5 163q0 109 -22 162t-73 53q-59 0 -81.5 -54.5t-22.5 -161.5q0 -70 9.5 -119t32.5 -74t63 -25z" />
    <glyph glyph-name="c" unicode="c" horiz-adv-x="436" 
d="M248 -10q-60 0 -106 27.5t-72 88.5t-26 159q0 108 26.5 169.5t72 87t101.5 25.5q48 0 84 -12.5t55 -35t19 -55.5q0 -23 -8.5 -37.5t-28.5 -21.5t-54 -7q0 32 -6 58.5t-20 42.5t-40 16q-29 0 -51 -20.5t-34 -70t-12 -138.5q0 -70 12.5 -118t38.5 -72.5t66 -24.5
q30 0 53 11t39.5 29t26.5 39q9 -6 13.5 -15.5t4.5 -23.5q0 -22 -15 -45.5t-49 -39.5t-90 -16z" />
    <glyph glyph-name="d" unicode="d" horiz-adv-x="540" 
d="M217 -10q-56 0 -94.5 29t-59 90.5t-20.5 157.5q0 97 20.5 158.5t59.5 91t95 29.5q50 0 80 -23.5t48 -61.5h5q-2 24 -2.5 52t-0.5 56v80q0 30 -10 44t-25.5 18.5t-34.5 4.5h-7v44h179v-645q0 -29 8.5 -45t24 -21t34.5 -5h8v-44h-157l-14 88h-3q-20 -45 -51.5 -71.5
t-82.5 -26.5zM243 51q58 0 81.5 57t23.5 159q0 106 -22.5 162.5t-82.5 56.5q-34 0 -55 -25.5t-30.5 -74.5t-9.5 -120q0 -108 22 -161.5t73 -53.5z" />
    <glyph glyph-name="e" unicode="e" horiz-adv-x="473" 
d="M253 -10q-101 0 -155 72t-54 202q0 141 52.5 212t147.5 71q89 0 139 -61.5t50 -180.5v-43h-285q2 -109 34 -160t93 -51q44 0 73.5 23.5t44.5 54.5q9 -4 16 -12.5t7 -22.5q0 -22 -17 -46t-53 -41t-93 -17zM330 315q-1 81 -20 129.5t-64 48.5t-69.5 -46t-26.5 -132h180z
" />
    <glyph glyph-name="f" unicode="f" horiz-adv-x="330" 
d="M20 0v44h15q16 0 31.5 5t25 20t9.5 45v370h-77v52h77v48q0 89 42 137.5t123 48.5q47 0 74 -9.5t38.5 -25t11.5 -35.5q0 -17 -8.5 -30.5t-26 -21.5t-44.5 -8q0 20 -4 39t-14.5 31t-30.5 12q-32 0 -45.5 -32t-13.5 -95v-59h120v-52h-120v-370q0 -30 9.5 -45t25 -20t32.5 -5
h35v-44h-285z" />
    <glyph glyph-name="g" unicode="g" horiz-adv-x="470" 
d="M200 -238q-94 0 -141 38t-47 105q0 39 15 66t40.5 43t54.5 22q-20 9 -37.5 27.5t-17.5 51.5q0 31 18.5 53.5t47.5 41.5q-38 18 -61.5 59t-23.5 93q0 86 43 135.5t130 49.5q32 0 58 -9.5t43 -23.5q10 10 22.5 23.5t29 23t36.5 9.5q26 0 39.5 -16t13.5 -37
q0 -22 -11.5 -38.5t-38.5 -16.5q0 17 -8.5 28.5t-21.5 11.5q-11 0 -19 -3.5t-16 -10.5q17 -20 28.5 -48.5t11.5 -73.5q0 -76 -41 -125.5t-126 -49.5q-11 0 -26 1.5t-24 4.5q-12 -9 -23 -24t-11 -37t13.5 -31.5t40.5 -9.5h94q54 0 87.5 -19.5t49 -52.5t15.5 -74
q0 -87 -58 -137t-179 -50zM202 -188q57 0 90 15.5t47 42t14 59.5q0 43 -20.5 60t-59.5 17h-91q-21 0 -41 -8t-33 -28.5t-13 -58.5q0 -29 11.5 -51t35 -35t60.5 -13zM219 240q28 0 44.5 13.5t23.5 41.5t7 70q0 44 -7.5 73.5t-24 44t-44.5 14.5q-27 0 -43.5 -15t-24 -44.5
t-7.5 -73.5q0 -61 17.5 -92.5t58.5 -31.5z" />
    <glyph glyph-name="h" unicode="h" horiz-adv-x="557" 
d="M16 0v44h6q19 0 34 5t24 20.5t9 45.5v535q0 29 -9.5 43t-25 18.5t-31.5 4.5h-8v44h177v-215q0 -18 -1 -36t-2 -32.5t-1 -19.5h5q11 25 28.5 45.5t42.5 32.5t60 12q71 0 108 -47t37 -149v-235q0 -31 7.5 -46.5t21.5 -20.5t33 -5h2v-44h-167v342q0 65 -18.5 101t-64.5 36
q-32 0 -52.5 -20.5t-29.5 -56.5t-9 -84v-207q0 -30 8.5 -44t23.5 -18.5t34 -4.5h2v-44h-244z" />
    <glyph glyph-name="i" unicode="i" horiz-adv-x="287" 
d="M17 0v44h11q20 0 34.5 5t23.5 20t9 44v310q0 29 -8.5 44t-22.5 20t-33 5h-9v44h175v-419q0 -31 8 -46.5t23.5 -21t34.5 -5.5h11v-44h-257zM142 637q-26 0 -42.5 14t-16.5 47q0 34 16.5 47.5t42.5 13.5q25 0 42.5 -13.5t17.5 -47.5q0 -33 -17.5 -47t-42.5 -14z" />
    <glyph glyph-name="j" unicode="j" horiz-adv-x="280" 
d="M-8 -240v50h5q31 0 53 16t33.5 56t11.5 111v431q0 30 -9 44.5t-24 19t-34 4.5h-6v44h175v-544q0 -89 -24.5 -140t-67 -71.5t-99.5 -20.5h-14zM142 637q-25 0 -42.5 14t-17.5 47q0 34 17.5 47.5t42.5 13.5q24 0 42 -13.5t18 -47.5q0 -33 -18 -47t-42 -14z" />
    <glyph glyph-name="k" unicode="k" horiz-adv-x="521" 
d="M15 0v44h9q16 0 31 5t25 20t10 45v536q0 29 -10 43t-25 18.5t-31 4.5h-9v44h177v-385q0 -13 -0.5 -33t-1.5 -40t-1.5 -34.5t-0.5 -16.5l107 140q17 21 25.5 35.5t11.5 25t3 17.5q0 13 -10.5 18.5t-32.5 5.5v43h199v-43q-15 0 -29.5 -6t-29 -18t-30 -29t-32.5 -39l-54 -73
l113 -200q23 -40 43.5 -62t45.5 -22h4v-44h-12q-42 0 -69.5 3.5t-46.5 13.5t-34.5 31t-33.5 54l-81 155l-53 -62v-84q0 -29 10 -43.5t25.5 -19t30.5 -4.5h6v-44h-249z" />
    <glyph glyph-name="l" unicode="l" horiz-adv-x="281" 
d="M12 0v44h12q19 0 34 5.5t23 21t8 46.5v533q0 29 -9.5 43t-25 18.5t-31.5 4.5h-11v44h180v-643q0 -31 8 -46.5t23.5 -21t34.5 -5.5h10v-44h-256z" />
    <glyph glyph-name="m" unicode="m" horiz-adv-x="826" 
d="M21 0v44h11q19 0 33 5t22 20.5t8 45.5v310q0 29 -8 44t-22.5 19.5t-33.5 4.5h-3v43h154l11 -79h5q22 49 54 69.5t79 20.5q28 0 52.5 -9t43 -29.5t28.5 -55.5h5q22 53 56 73.5t79 20.5q68 0 105.5 -47t37.5 -149v-235q0 -31 7.5 -46.5t21.5 -20.5t33 -5h3v-44h-167v342
q0 65 -18 101t-61 36q-32 0 -52 -20.5t-28 -54t-8 -73.5v-215q0 -31 7 -46.5t21.5 -20.5t32.5 -5h4v-44h-167v342q0 65 -17.5 101t-60.5 36q-34 0 -54 -22.5t-29 -59t-9 -79.5v-207q0 -30 8.5 -44t24 -18.5t33.5 -4.5h3v-44h-245z" />
    <glyph glyph-name="n" unicode="n" horiz-adv-x="562" 
d="M21 0v44h6q20 0 35 5t24 20.5t9 45.5v310q0 29 -8.5 43.5t-23 19t-33.5 4.5h-5v44h157l12 -79h4q22 49 54 69.5t79 20.5q68 0 105 -47t37 -149v-235q0 -31 7.5 -46.5t21.5 -20.5t32 -5h5v-44h-168v343q0 64 -17.5 100.5t-62.5 36.5q-35 0 -56 -23t-29.5 -60t-8.5 -79
v-207q0 -30 8 -44t23 -18.5t33 -4.5h5v-44h-245z" />
    <glyph glyph-name="o" unicode="o" horiz-adv-x="509" 
d="M253 -10q-97 0 -153 69t-56 210q0 140 54 209t158 69q97 0 152.5 -69t55.5 -209q0 -141 -53.5 -210t-157.5 -69zM255 44q39 0 62 25.5t33 75.5t10 124q0 112 -24 167.5t-82 55.5q-57 0 -81 -55.5t-24 -167.5q0 -111 24.5 -168t81.5 -57z" />
    <glyph glyph-name="p" unicode="p" horiz-adv-x="539" 
d="M14 -235v44h7q17 0 32 5t25 20t10 45v545q0 30 -9 44.5t-23 19t-32 4.5h-10v44h158l12 -84h4q18 42 49.5 68t81.5 26q85 0 130 -66.5t45 -211.5t-45 -212t-132 -67q-46 0 -76.5 23.5t-48.5 62.5h-4q1 -24 2 -53t1 -60v-87q0 -29 9.5 -43t25 -18.5t30.5 -4.5h16v-44h-258z
M295 50q51 0 73 57t22 164q0 105 -21.5 160t-73.5 55q-41 0 -63.5 -25.5t-31.5 -73.5t-9 -117q0 -71 9.5 -120t31.5 -74.5t63 -25.5z" />
    <glyph glyph-name="q" unicode="q" horiz-adv-x="539" 
d="M255 -235v44h23q19 0 35 4.5t25.5 20t9.5 45.5v81q0 20 0.5 44t1.5 46.5t2 35.5h-4q-20 -44 -50 -70t-82 -26q-83 0 -128 66.5t-45 210.5q0 97 20.5 158.5t60.5 91t98 29.5q48 0 80 -24.5t50 -63.5h5l16 78h153v-44h-7q-19 0 -34.5 -5t-25 -20t-9.5 -47v-544
q0 -29 9.5 -43.5t25.5 -19t35 -4.5h4v-44h-269zM243 51q28 0 48 13t32.5 40t18.5 67.5t6 95.5q0 71 -9.5 119.5t-32.5 73.5t-64 25q-33 0 -54 -24t-30.5 -72.5t-9.5 -122.5q0 -108 22 -161.5t73 -53.5z" />
    <glyph glyph-name="r" unicode="r" horiz-adv-x="423" 
d="M23 0v44h3q20 0 35 5t24 20.5t9 46.5v308q0 30 -8.5 44.5t-23.5 19t-34 4.5h-3v44h151l15 -104h4q12 33 27.5 59t39.5 40.5t59 14.5q46 0 67.5 -21t21.5 -56q0 -34 -22.5 -53.5t-68.5 -19.5q0 28 -4 45.5t-13 26t-26 8.5q-20 0 -35 -19t-25 -49.5t-14.5 -66t-4.5 -67.5
v-163q0 -29 9 -43.5t23.5 -19t32.5 -4.5h24v-44h-263z" />
    <glyph glyph-name="s" unicode="s" horiz-adv-x="397" 
d="M189 -10q-50 0 -85.5 12t-53 36t-17.5 58q0 25 9.5 40t24 21t30.5 6q0 -55 23 -89.5t72 -34.5q45 0 67 23.5t22 62.5q0 24 -9 40.5t-31 32t-60 33.5q-48 23 -78.5 45.5t-45 52t-14.5 72.5q0 71 46 108t120 37q47 0 77.5 -13t45.5 -34.5t15 -46.5q0 -27 -16.5 -43
t-49.5 -16q0 51 -21.5 78t-59.5 27q-37 0 -56 -20.5t-19 -54.5q0 -38 23.5 -59t81.5 -48q45 -21 74.5 -43t44.5 -52t15 -73q0 -74 -46 -116t-129 -42z" />
    <glyph glyph-name="t" unicode="t" horiz-adv-x="323" 
d="M208 -10q-63 0 -94.5 34.5t-31.5 121.5v337h-65v37q24 3 43 13t32 26q13 15 22.5 38t15.5 62h54v-123h111v-53h-111v-336q0 -51 14.5 -74.5t45.5 -23.5q17 0 31.5 2.5t28.5 5.5v-49q-14 -6 -39 -12t-57 -6z" />
    <glyph glyph-name="u" unicode="u" horiz-adv-x="558" 
d="M231 -10q-72 0 -108 47t-36 149v238q0 30 -7.5 44.5t-22 19t-34.5 4.5h-3v44h170v-341q0 -45 6.5 -76t24 -46.5t48.5 -15.5q34 0 55 20t30.5 56.5t9.5 84.5v203q0 32 -8 47t-22.5 19.5t-32.5 4.5h-3v44h168v-425q0 -30 9 -44t24 -18.5t32 -4.5h5v-44h-152l-14 79h-4
q-24 -51 -57.5 -70t-77.5 -19z" />
    <glyph glyph-name="v" unicode="v" horiz-adv-x="507" 
d="M70 440q-6 22 -14.5 32.5t-20.5 15t-30 4.5v44h232v-44h-15q-24 0 -35 -9.5t-11 -28.5q0 -11 2.5 -23t6.5 -25l56 -186q8 -24 15 -50.5t12.5 -50.5t8.5 -41q5 20 15 55t22 73l55 184q7 21 9.5 36t2.5 29q0 18 -12 27.5t-35 9.5h-10v44h182v-44h-14q-15 0 -25 -6
t-17.5 -23t-17.5 -48l-130 -415h-95z" />
    <glyph glyph-name="w" unicode="w" horiz-adv-x="738" 
d="M64 439q-5 22 -13 33t-19.5 15.5t-28.5 4.5h-3v44h226v-44h-8q-26 0 -39 -8.5t-13 -33.5q0 -8 2.5 -20t4.5 -23l36 -162q5 -24 11 -52.5t10.5 -54t6.5 -41.5h3q3 16 8 39.5t12 49.5t13 48l89 299h54l83 -296q5 -16 10 -35t9 -39t8 -37.5t5 -29.5h3q3 24 10.5 59.5
t18.5 78.5l40 159q4 13 6 27.5t2 22.5q0 26 -13.5 37.5t-40.5 11.5h-5v44h186v-44h-11q-17 0 -28 -5.5t-19.5 -22t-17.5 -50.5l-110 -414h-79l-108 404l-111 -404h-78z" />
    <glyph glyph-name="x" unicode="x" horiz-adv-x="520" 
d="M6 0v44h8q21 0 35.5 5t28 19.5t29.5 39.5l108 163l-108 168q-11 18 -23 30t-24 17.5t-26 5.5h-12v44h238v-44h-2q-28 0 -37.5 -8.5t-9.5 -20.5q0 -10 5 -20t15 -26l53 -88l43 76q9 17 15.5 31t6.5 27q0 18 -12.5 23.5t-31.5 5.5h-4v44h192v-44h-8q-16 0 -29 -4.5
t-26 -18.5t-31 -41l-88 -137l125 -194q13 -19 24.5 -31t22.5 -17t22 -5h11v-44h-244v44h5q26 0 38.5 8.5t12.5 24.5q0 11 -6.5 24.5t-26.5 44.5l-54 88l-58 -98q-8 -15 -15 -29.5t-7 -30.5t12 -24t40 -8h3v-44h-210z" />
    <glyph glyph-name="y" unicode="y" horiz-adv-x="490" 
d="M29 -186q43 0 74 13t52.5 37t37 57.5t27.5 76.5l-156 442q-7 22 -14.5 33t-17.5 15t-26 4h-4v44h223v-44h-3q-29 0 -40.5 -10t-11.5 -27q0 -11 3.5 -25t8.5 -32l54 -164q10 -29 17.5 -55.5t13 -49t7.5 -38.5q5 27 12.5 55.5t16.5 59.5l54 195q5 13 7.5 27t2.5 26
q0 21 -13 29t-40 9h-3v44h179v-44h-2q-16 0 -27.5 -5.5t-20.5 -21t-19 -47.5l-130 -415q-22 -73 -42 -119t-45.5 -72t-64.5 -36.5t-99 -10.5h-11v49z" />
    <glyph glyph-name="z" unicode="z" horiz-adv-x="445" 
d="M28 0v40l254 443h-121q-34 0 -47.5 -18.5t-23.5 -58.5l-4 -15h-43l10 145h347v-41l-255 -442h146q34 0 48 21.5t21 62.5l5 28h42l-5 -165h-374z" />
    <glyph glyph-name="braceleft" unicode="{" horiz-adv-x="372" 
d="M270 -127q-66 0 -100 38.5t-34 106.5v172q0 41 -13 63t-36 31.5t-52 10.5v45q29 1 52 10t36 31t13 62v173q0 69 34 106.5t100 37.5h67v-45h-29q-37 0 -51.5 -26t-14.5 -77v-171q0 -48 -23 -80t-72 -42v-2q48 -11 71.5 -43t23.5 -81v-172q0 -50 14.5 -77t51.5 -27h29v-44
h-67z" />
    <glyph glyph-name="bar" unicode="|" horiz-adv-x="480" 
d="M211 -240v1000h57v-1000h-57z" />
    <glyph glyph-name="braceright" unicode="}" horiz-adv-x="372" 
d="M35 -127v44h30q37 0 51.5 27t14.5 77v172q0 49 23 81t72 43v2q-48 10 -71.5 42t-23.5 80v171q0 51 -14.5 77t-51.5 26h-30v45h68q66 0 99.5 -37.5t33.5 -106.5v-173q0 -40 13.5 -62t36.5 -31t51 -10v-45q-28 -1 -51 -10.5t-36.5 -31.5t-13.5 -63v-172q0 -68 -33.5 -106.5
t-99.5 -38.5h-68z" />
    <glyph glyph-name="asciitilde" unicode="~" horiz-adv-x="466" 
d="M34 268q2 33 8 64t18 57t32.5 41.5t51.5 15.5q20 0 37 -7.5t34.5 -22.5t37.5 -37q23 -23 38 -37t32 -14q16 0 26 12.5t16 39t9 66.5h59q-2 -32 -8 -63.5t-18 -57t-32 -41.5t-50 -16q-18 0 -34 5.5t-33.5 19.5t-40.5 40q-15 17 -27 29t-22 18t-22 6q-25 0 -37.5 -28.5
t-16.5 -89.5h-58z" />
    <glyph glyph-name="uni00A0" unicode="&#xa0;" horiz-adv-x="223" 
 />
    <glyph glyph-name="exclamdown" unicode="&#xa1;" horiz-adv-x="308" 
d="M180 322l34 -502h-120l34 502h52zM153 541q26 0 43 -14.5t17 -51.5q0 -38 -17 -52.5t-43 -14.5q-24 0 -41.5 14t-17.5 53q0 37 17.5 51.5t41.5 14.5z" />
    <glyph glyph-name="cent" unicode="&#xa2;" horiz-adv-x="480" 
d="M244 87q-55 6 -97 35.5t-65 87.5t-23 150q0 99 24 159t66.5 88.5t94.5 33.5v73h47v-73q44 -3 76 -16t50 -34.5t18 -50.5q0 -15 -4.5 -27.5t-14.5 -21.5t-26.5 -13.5t-42.5 -4.5q0 41 -12.5 73.5t-43.5 40.5v-441q29 0 52.5 11.5t41 30t26.5 39.5q9 -6 13.5 -16.5
t4.5 -24.5q0 -23 -14.5 -44.5t-45 -37t-78.5 -19.5v-85h-47v87zM244 587q-24 -7 -42.5 -30.5t-28.5 -71t-10 -124.5q0 -57 8.5 -100.5t27 -70.5t45.5 -37v434z" />
    <glyph glyph-name="sterling" unicode="&#xa3;" horiz-adv-x="479" 
d="M351 -10q-29 0 -53.5 7.5t-46.5 15.5q-21 9 -42 15.5t-43 6.5q-28 0 -51 -8.5t-46 -21.5l-22 -12v58l22 16q18 13 36.5 34.5t30.5 52.5t12 71q0 29 -5.5 57t-14.5 54h-95v49h78q-10 33 -20 74.5t-10 81.5q0 87 48.5 135t133.5 48q57 0 92.5 -14.5t52 -40t16.5 -58.5
q0 -32 -22 -49.5t-63 -17.5q0 32 -6.5 61t-23.5 48t-50 19q-42 0 -63 -32.5t-21 -94.5q0 -30 5 -59.5t12.5 -55t13.5 -45.5h148v-49l-134 1q7 -24 11 -46t4 -51q0 -26 -9.5 -52t-26.5 -49t-42 -42l2 -4q14 9 30 13.5t30 4.5q12 0 24.5 -3t26.5 -8t27 -10q19 -5 37 -11.5
t36 -6.5q17 0 32.5 8t29.5 21t24 29v-72q-10 -16 -25.5 -31.5t-35 -26t-44.5 -10.5z" />
    <glyph glyph-name="currency" unicode="&#xa4;" horiz-adv-x="480" 
d="M95 144l-39 43l53 64q-13 23 -20 50t-7 57t7.5 57t21.5 49l-55 65l39 43l54 -64q19 16 42 25t48 9t47.5 -9t41.5 -26l56 66l39 -44l-55 -65q14 -22 21.5 -49t7.5 -57t-7 -57t-21 -50l54 -64l-39 -43l-54 65q-19 -16 -42.5 -25t-48.5 -9t-48 8.5t-42 24.5zM239 232
q30 0 54 17t38 45.5t14 63.5q0 36 -14 64.5t-38 45.5t-54 17q-29 0 -52.5 -17t-38 -45.5t-14.5 -64.5q0 -35 14.5 -63.5t38 -45.5t52.5 -17z" />
    <glyph glyph-name="yen" unicode="&#xa5;" horiz-adv-x="480" 
d="M108 0v44h20q19 0 33 6t22 21.5t8 41.5v60h-119v50h119v69h-119v49h104l-112 276q-12 29 -23.5 41t-32.5 12h-4v44h221v-44h-5q-25 0 -37.5 -8t-12.5 -28q0 -12 5 -28t11 -34l39 -105q12 -32 22 -64.5t15 -53.5q3 10 8 24t11 28.5t11 28.5l46 118q9 23 15.5 46t6.5 39
q0 19 -13 28t-37 9h-3v44h168v-44h-6q-20 0 -31 -15t-30 -62l-103 -252h110v-49h-120v-69h120v-50h-120v-56q0 -29 8 -45t22.5 -22t33.5 -6h20v-44h-271z" />
    <glyph glyph-name="brokenbar" unicode="&#xa6;" horiz-adv-x="480" 
d="M211 360v400h57v-400h-57zM211 -240v400h57v-400h-57z" />
    <glyph glyph-name="section" unicode="&#xa7;" horiz-adv-x="467" 
d="M237 -114q-42 0 -72.5 9t-49.5 25t-28.5 37.5t-9.5 46.5q0 27 9.5 42.5t24.5 22t30 6.5q0 -36 11 -68.5t34.5 -53t59.5 -20.5q31 0 52 14t31.5 37.5t10.5 53.5q0 21 -5 38t-19 35t-43 39t-76 49q-49 30 -79 57t-43 57t-13 68q0 37 15 64.5t37 45.5q-14 21 -23.5 47
t-9.5 63q0 51 21 86.5t58 54t84 18.5q49 0 81 -14t48 -37.5t16 -51.5q0 -29 -17.5 -45.5t-49.5 -16.5q0 30 -8 56t-25.5 43t-48.5 17q-40 0 -64 -26t-24 -72q0 -35 13 -57.5t38 -40t63 -38.5q56 -31 91 -58.5t52 -57.5t17 -70q0 -39 -15.5 -71t-36.5 -54q9 -14 15.5 -29
t10.5 -33t4 -42q0 -49 -19 -89t-56 -63.5t-92 -23.5zM342 196q5 11 9.5 28.5t4.5 36.5q0 23 -8.5 43.5t-31.5 42t-68 47.5q-30 17 -56 33.5t-48 34.5q-7 -9 -12.5 -24t-5.5 -36q0 -27 11 -47.5t38 -41t75 -49.5q31 -20 54.5 -37.5t37.5 -30.5z" />
    <glyph glyph-name="dieresis" unicode="&#xa8;" horiz-adv-x="496" 
d="M329 635q-20 0 -34.5 12.5t-14.5 43.5t14.5 43.5t34.5 12.5q19 0 33.5 -12t14.5 -44q0 -31 -14.5 -43.5t-33.5 -12.5zM166 635q-20 0 -34 12.5t-14 43.5t14 43.5t34 12.5q19 0 33.5 -12t14.5 -44q0 -31 -14.5 -43.5t-33.5 -12.5z" />
    <glyph glyph-name="copyright" unicode="&#xa9;" horiz-adv-x="726" 
d="M363 -10q-73 0 -131 28t-99.5 78t-63 117t-21.5 145q0 79 22 145.5t63 116.5t99.5 77.5t131.5 27.5q72 0 130.5 -27.5t99.5 -77t62.5 -116.5t21.5 -146q0 -80 -22 -147t-63 -116.5t-99 -77t-131 -27.5zM369 113q-57 0 -97.5 29.5t-62 85t-21.5 134.5q0 75 20.5 128.5
t62.5 82t104 28.5q47 0 76 -14t43.5 -35.5t14.5 -44.5t-14 -35.5t-33 -12.5q0 26 -8 49t-26.5 37.5t-52.5 14.5q-68 0 -97 -52t-29 -144q0 -68 14.5 -114.5t43 -70.5t68.5 -24q44 0 70 24.5t39 57.5q10 -4 15.5 -11t5.5 -19q0 -19 -15 -41.5t-45.5 -37.5t-75.5 -15zM366 38
q61 0 109.5 23.5t82 66t51.5 101.5t18 129q0 71 -18.5 129.5t-52 101t-82.5 65.5t-110 23q-82 0 -141.5 -41t-92 -112.5t-32.5 -165.5q0 -70 19 -129t54 -102t84.5 -66t110.5 -23z" />
    <glyph glyph-name="ordfeminine" unicode="&#xaa;" horiz-adv-x="342" 
d="M118 380q-42 0 -66 25.5t-24 71.5q0 51 34 75.5t105 28.5l43 2v31q0 30 -9.5 50t-36.5 20q-29 0 -36.5 -21t-7.5 -48q-35 0 -52 7.5t-17 28.5q0 23 14.5 37.5t41 22.5t61.5 8q59 0 88.5 -24.5t29.5 -83.5v-150q0 -22 8.5 -30.5t29.5 -8.5v-36h-89l-15 51h-5
q-10 -16 -23.5 -29t-31.5 -20.5t-42 -7.5zM148 425q19 0 33 10t21.5 28t7.5 43v46l-28 -1q-29 -1 -45 -9.5t-22.5 -24t-6.5 -38.5q0 -30 11 -42t29 -12z" />
    <glyph glyph-name="guillemotleft" unicode="&#xab;" horiz-adv-x="455" 
d="M343 78l-132 174v36l132 174h46l-89 -192l89 -192h-46zM198 78l-131 174v36l131 174h47l-89 -192l89 -192h-47z" />
    <glyph glyph-name="logicalnot" unicode="&#xac;" horiz-adv-x="466" 
d="M357 125v203h-309v60h369v-263h-60z" />
    <glyph glyph-name="uni00AD" unicode="&#xad;" horiz-adv-x="267" 
d="M22 232v81h223v-81h-223z" />
    <glyph glyph-name="registered" unicode="&#xae;" horiz-adv-x="726" 
d="M363 -10q-73 0 -131 28t-99.5 78t-63 117t-21.5 145q0 79 22 145.5t63 116.5t99.5 77.5t131.5 27.5q72 0 130.5 -27.5t99.5 -77t62.5 -116.5t21.5 -146q0 -80 -22 -147t-63 -116.5t-99 -77t-131 -27.5zM365 38q62 0 110.5 23.5t82.5 66t51.5 101.5t17.5 129
q0 71 -18 129.5t-52 101t-83 65.5t-110 23q-82 0 -141.5 -41t-92 -112.5t-32.5 -165.5q0 -70 19 -129.5t54 -102t84.5 -65.5t109.5 -23zM204 141v32h11q16 0 28.5 6t12.5 29v297q0 23 -12.5 29t-28.5 6h-11v33h150q74 0 110.5 -30t36.5 -88q0 -33 -11 -54.5t-29 -35
t-38 -21.5l76 -145q9 -16 18 -21t30 -5v-32h-86l-95 188h-49v-121q0 -23 12.5 -29t28.5 -6h12v-32h-166zM353 367q49 0 67.5 21t18.5 64q0 47 -20 65t-69 18h-33v-168h36z" />
    <glyph glyph-name="overscore" unicode="&#xaf;" horiz-adv-x="393" 
d="M-4 760v59h402v-59h-402z" />
    <glyph glyph-name="degree" unicode="&#xb0;" horiz-adv-x="343" 
d="M171 429q-60 0 -95 42t-35 107q0 45 15.5 79t45 53t69.5 19t69.5 -19t45.5 -53t16 -79q0 -44 -16 -77.5t-45.5 -52.5t-69.5 -19zM172 476q39 0 59 29t20 75q0 47 -20.5 75t-58.5 28t-59 -28t-21 -75q0 -46 20.5 -75t59.5 -29z" />
    <glyph glyph-name="plusminus" unicode="&#xb1;" horiz-adv-x="466" 
d="M48 0v60h369v-60h-369zM201 143v184h-153v61h153v184h62v-184h154v-61h-154v-184h-62z" />
    <glyph glyph-name="uni00B2" unicode="&#xb2;" horiz-adv-x="341" 
d="M33 387v50l103 111q26 28 42.5 53.5t24.5 52t8 56.5q0 36 -12.5 56.5t-39.5 20.5q-20 0 -32.5 -11.5t-17.5 -32.5t-5 -49q-29 0 -46.5 11t-17.5 35q0 23 13.5 42.5t41 30.5t67.5 11q43 0 71.5 -13t42.5 -38t14 -60q0 -30 -13.5 -58.5t-36 -55.5t-52.5 -55l-92 -94h138
q13 0 20.5 5.5t11.5 14.5t5 20l4 22h27l-2 -125h-267z" />
    <glyph glyph-name="uni00B3" unicode="&#xb3;" horiz-adv-x="341" 
d="M149 380q-40 0 -67 10.5t-40.5 29t-13.5 42.5q0 22 12 34.5t34 12.5q0 -34 17 -60.5t56 -26.5q34 0 56 20.5t22 67.5q0 38 -21.5 59t-70.5 21h-29v39h30q36 0 56.5 24t20.5 64q0 35 -13 52t-40 17q-35 0 -46.5 -26.5t-11.5 -63.5q-28 0 -45 9t-17 33q0 23 14 42t41.5 31
t68.5 12q61 0 94.5 -26t33.5 -73q0 -44 -23.5 -70.5t-60.5 -37.5v-4q26 -4 48.5 -15.5t36.5 -32t14 -55.5q0 -33 -13 -57.5t-34.5 -40.5t-49.5 -23.5t-59 -7.5z" />
    <glyph glyph-name="acute" unicode="&#xb4;" horiz-adv-x="272" 
d="M40 619q14 23 29.5 48.5t29.5 51t22 47.5h111v-10q-8 -13 -25 -32.5t-38.5 -41t-44 -41.5t-41.5 -35h-43v13z" />
    <glyph glyph-name="uni00B5" unicode="&#xb5;" horiz-adv-x="547" 
d="M146 -240q-28 0 -51 26t-23 95q0 30 1.5 64t3 75t3.5 91.5t2 113.5v311h102v-344q0 -41 8 -71t25 -47t45 -17q21 0 38 11.5t29 33t18.5 51t6.5 65.5v318h102v-411q0 -44 15 -62.5t43 -18.5h6v-44h-56q-39 0 -66.5 24t-35.5 67h-4q-19 -44 -47.5 -72.5t-73.5 -28.5
q-36 0 -63 16.5t-44 48.5q0 -54 3.5 -93.5t12 -67t25.5 -42.5t44 -20q0 -30 -18 -51t-51 -21z" />
    <glyph glyph-name="paragraph" unicode="&#xb6;" horiz-adv-x="533" 
d="M145 -111v44h11q20 0 36 5t25.5 20.5t9.5 46.5v381h-61q-50 0 -78.5 27.5t-40.5 72t-12 96.5q0 54 12.5 94t42 62t78.5 22h331v-44h-12q-19 0 -35 -5t-25.5 -20t-9.5 -47v-639q0 -31 9.5 -46.5t25.5 -20.5t35 -5h12v-44h-139v818h-77v-818h-138z" />
    <glyph glyph-name="periodcentered" unicode="&#xb7;" horiz-adv-x="231" 
d="M116 289q-25 0 -42.5 15t-17.5 52q0 38 17.5 52.5t42.5 14.5q23 0 41 -14.5t18 -52.5q0 -37 -18 -52t-41 -15z" />
    <glyph glyph-name="cedilla" unicode="&#xb8;" horiz-adv-x="286" 
d="M116 -235q-13 0 -33 2.5t-35 7.5v49q15 -4 30 -6t26 -2q26 0 41 12.5t15 41.5q0 30 -18.5 42t-47.5 16l18 81h42l-9 -45q27 -2 46.5 -14t30 -31t10.5 -46q0 -53 -31.5 -80.5t-84.5 -27.5z" />
    <glyph glyph-name="uni00B9" unicode="&#xb9;" horiz-adv-x="341" 
d="M54 387v37h48q15 0 26.5 7t11.5 31v293q-13 -16 -25 -28.5t-23 -19.5t-22 -7q-13 0 -22.5 11t-9.5 30q15 3 29.5 9.5t32 18.5t38.5 31l26 19h52v-356q0 -25 11 -32t26 -7h40v-37h-239z" />
    <glyph glyph-name="ordmasculine" unicode="&#xba;" horiz-adv-x="355" 
d="M177 380q-68 0 -106 42.5t-38 127.5q0 86 37 127.5t109 41.5q66 0 105 -41.5t39 -127.5q0 -85 -37.5 -127.5t-108.5 -42.5zM178 419q36 0 50.5 33.5t14.5 97.5q0 63 -15 95.5t-51 32.5q-35 0 -49.5 -32t-14.5 -96t14.5 -97.5t50.5 -33.5z" />
    <glyph glyph-name="guillemotright" unicode="&#xbb;" horiz-adv-x="455" 
d="M220 78l89 192l-89 192h48l131 -174v-36l-131 -174h-48zM57 78l89 192l-89 192h47l132 -174v-36l-132 -174h-47z" />
    <glyph glyph-name="onequarter" unicode="&#xbc;" horiz-adv-x="721" 
d="M23 287v37h48q15 0 26.5 7t11.5 31v293q-13 -16 -25 -28.5t-23 -19.5t-22 -7q-13 0 -22.5 11t-9.5 30q15 3 29.5 9.5t32 18.5t38.5 31l26 19h52v-356q0 -25 11 -32t26 -7h40v-37h-239zM180 0l304 714h59l-303 -714h-60zM490 0v36h28q15 0 25.5 6.5t10.5 31.5v54h-162v31
l167 273h68v-260h71v-44h-71v-54q0 -25 11 -31.5t25 -6.5h19v-36h-192zM443 172h111v124q0 16 1 35l2 38q-4 -9 -9 -20t-8 -15z" />
    <glyph glyph-name="onehalf" unicode="&#xbd;" horiz-adv-x="721" 
d="M25 287v37h48q15 0 26.5 7t11.5 31v293q-13 -16 -25 -28.5t-23 -19.5t-22 -7q-13 0 -22.5 11t-9.5 30q15 3 29.5 9.5t32 18.5t38.5 31l26 19h52v-356q0 -25 11 -32t26 -7h40v-37h-239zM165 0l304 714h59l-303 -714h-60zM425 0v50l103 111q26 28 42.5 53.5t24.5 52t8 56.5
q0 36 -12.5 56.5t-39.5 20.5q-20 0 -32.5 -11.5t-17.5 -32.5t-5 -49q-29 0 -46.5 11t-17.5 35q0 23 13.5 42.5t41 30.5t67.5 11q43 0 71.5 -13t42.5 -38t14 -60q0 -30 -13.5 -58.5t-36 -55.5t-52.5 -55l-92 -94h138q13 0 20.5 5.5t11.5 14.5t5 20l4 22h27l-2 -125h-267z" />
    <glyph glyph-name="threequarters" unicode="&#xbe;" horiz-adv-x="721" 
d="M149 280q-40 0 -67 10.5t-40.5 29t-13.5 42.5q0 22 12 34.5t34 12.5q0 -34 17 -60.5t56 -26.5q34 0 56 20.5t22 67.5q0 38 -21.5 59t-70.5 21h-29v39h30q36 0 56.5 24t20.5 64q0 35 -13 52t-40 17q-35 0 -46.5 -26.5t-11.5 -63.5q-28 0 -45 9t-17 33q0 23 14 42t41.5 31
t68.5 12q61 0 94.5 -26t33.5 -73q0 -44 -23.5 -70.5t-60.5 -37.5v-4q26 -4 48.5 -15.5t36.5 -32t14 -55.5q0 -33 -13 -57.5t-34.5 -40.5t-49.5 -23.5t-59 -7.5zM197 0l304 714h59l-303 -714h-60zM490 0v36h28q15 0 25.5 6.5t10.5 31.5v54h-162v31l167 273h68v-260h71v-44
h-71v-54q0 -25 11 -31.5t25 -6.5h19v-36h-192zM443 172h111v124q0 16 1 35l2 38q-4 -9 -9 -20t-8 -15z" />
    <glyph glyph-name="questiondown" unicode="&#xbf;" horiz-adv-x="450" 
d="M283 184q-49 -23 -77 -54.5t-39.5 -69t-11.5 -79.5q0 -52 21 -87t64 -35q32 0 50 16.5t26 44.5t8 63q40 0 65.5 -15t25.5 -47q0 -24 -11 -44.5t-32.5 -35.5t-53.5 -23.5t-75 -8.5q-58 0 -102 21t-68.5 61t-24.5 97q0 55 18.5 95.5t55 71.5t91.5 57l10 108h51zM249 540
q25 0 42 -14.5t17 -52.5t-17 -52.5t-42 -14.5t-43 14.5t-18 52.5t18 52.5t43 14.5z" />
    <glyph glyph-name="Agrave" unicode="&#xc0;" horiz-adv-x="623" 
d="M2 0v44h14q16 0 27 6t20.5 22.5t18.5 48.5l189 593h88l191 -620q6 -19 14 -30t20.5 -15.5t29.5 -4.5h9v-44h-256v44h22q24 0 36 10t12 30q0 7 -1 15.5t-3.5 18t-5.5 18.5l-30 103h-218l-27 -95l-4.5 -18t-4.5 -19.5t-2 -18.5q0 -20 12 -32t39 -12h25v-44h-215zM197 291
h184l-53 187q-7 28 -14.5 53.5t-13 48t-9.5 42.5l-10.5 -42t-11.5 -45t-14 -49zM314 771q-19 14 -41 33.5t-43.5 41.5t-38.5 42t-25 33v10h110q9 -22 23.5 -49t30.5 -53t28 -45v-13h-44z" />
    <glyph glyph-name="Aacute" unicode="&#xc1;" horiz-adv-x="623" 
d="M2 0v44h14q16 0 27 6t20.5 22.5t18.5 48.5l189 593h88l191 -620q6 -19 14 -30t20.5 -15.5t29.5 -4.5h9v-44h-256v44h22q24 0 36 10t12 30q0 7 -1 15.5t-3.5 18t-5.5 18.5l-30 103h-218l-27 -95l-4.5 -18t-4.5 -19.5t-2 -18.5q0 -20 12 -32t39 -12h25v-44h-215zM197 291
h184l-53 187q-7 28 -14.5 53.5t-13 48t-9.5 42.5l-10.5 -42t-11.5 -45t-14 -49zM266 784q14 23 29.5 48.5t29.5 51t22 47.5h111v-10q-8 -13 -25 -32.5t-38.5 -41t-44 -41.5t-41.5 -35h-43v13z" />
    <glyph glyph-name="Acircumflex" unicode="&#xc2;" horiz-adv-x="623" 
d="M2 0v44h14q16 0 27 6t20.5 22.5t18.5 48.5l189 593h88l191 -620q6 -19 14 -30t20.5 -15.5t29.5 -4.5h9v-44h-256v44h22q24 0 36 10t12 30q0 7 -1 15.5t-3.5 18t-5.5 18.5l-30 103h-218l-27 -95l-4.5 -18t-4.5 -19.5t-2 -18.5q0 -20 12 -32t39 -12h25v-44h-215zM197 291
h184l-53 187q-7 28 -14.5 53.5t-13 48t-9.5 42.5l-10.5 -42t-11.5 -45t-14 -49zM176 784q14 19 31.5 45t33.5 53t25 49h96q10 -22 25.5 -49t33 -53t30.5 -45v-13h-44q-14 14 -31 30.5t-33 34.5t-29 35q-14 -17 -30 -35t-32.5 -34t-31.5 -31h-44v13z" />
    <glyph glyph-name="Atilde" unicode="&#xc3;" horiz-adv-x="623" 
d="M2 0v44h14q16 0 27 6t20.5 22.5t18.5 48.5l189 593h88l191 -620q6 -19 14 -30t20.5 -15.5t29.5 -4.5h9v-44h-256v44h22q24 0 36 10t12 30q0 7 -1 15.5t-3.5 18t-5.5 18.5l-30 103h-218l-27 -95l-4.5 -18t-4.5 -19.5t-2 -18.5q0 -20 12 -32t39 -12h25v-44h-215zM197 291
h184l-53 187q-7 28 -14.5 53.5t-13 48t-9.5 42.5l-10.5 -42t-11.5 -45t-14 -49zM375 771q-23 0 -42 9.5t-34.5 22t-30 22t-29.5 9.5q-21 0 -30 -16.5t-11 -36.5h-47q2 32 13.5 60t33 45.5t52.5 17.5q22 0 40.5 -9.5t34.5 -22t30.5 -22t28.5 -9.5q21 0 30.5 16.5t11.5 36.5
h46q-2 -32 -13.5 -60t-32.5 -45.5t-51 -17.5z" />
    <glyph glyph-name="Adieresis" unicode="&#xc4;" horiz-adv-x="623" 
d="M2 0v44h14q16 0 27 6t20.5 22.5t18.5 48.5l189 593h88l191 -620q6 -19 14 -30t20.5 -15.5t29.5 -4.5h9v-44h-256v44h22q24 0 36 10t12 30q0 7 -1 15.5t-3.5 18t-5.5 18.5l-30 103h-218l-27 -95l-4.5 -18t-4.5 -19.5t-2 -18.5q0 -20 12 -32t39 -12h25v-44h-215zM197 291
h184l-53 187q-7 28 -14.5 53.5t-13 48t-9.5 42.5l-10.5 -42t-11.5 -45t-14 -49zM392 800q-20 0 -34.5 12.5t-14.5 43.5t14.5 43.5t34.5 12.5q19 0 33.5 -12t14.5 -44q0 -31 -14.5 -43.5t-33.5 -12.5zM229 800q-20 0 -34 12.5t-14 43.5t14 43.5t34 12.5q19 0 33.5 -12
t14.5 -44q0 -31 -14.5 -43.5t-33.5 -12.5z" />
    <glyph glyph-name="Aring" unicode="&#xc5;" horiz-adv-x="623" 
d="M2 0v44h14q16 0 27 6t20.5 22.5t18.5 48.5l178 557q-23 10 -36 34t-13 61q0 53 30 81t73 28t73 -28t30 -81q0 -35 -12.5 -59t-34.5 -36l177 -578q11 -33 25.5 -44.5t37.5 -11.5h13v-44h-256v44h26q19 0 31.5 10.5t12.5 30.5q0 9 -2.5 23.5t-6.5 27.5l-30 103h-219
l-27 -95l-4.5 -18t-4.5 -19.5t-2 -18.5q0 -20 14 -32t36 -12h26v-44h-215zM197 291h184l-49 177q-8 29 -15.5 56t-14 51.5t-11.5 44.5q-4 -19 -10.5 -43t-14 -49t-15.5 -51zM314 712q23 0 39.5 14t16.5 47q0 34 -16.5 48t-39.5 14t-39.5 -14t-16.5 -48q0 -33 15.5 -47
t40.5 -14z" />
    <glyph glyph-name="AE" unicode="&#xc6;" horiz-adv-x="831" 
d="M-1 0v44h13q15 0 28 8.5t24.5 25.5t23.5 44l244 543l-62 5v44h496l4 -177h-51l-5 44q-1 22 -9 41t-23.5 29.5t-40.5 10.5h-138v-263h206v-51h-206v-296h159q27 0 43 11t25 29.5t12 40.5l6 44h51l-6 -177h-479v44h16q19 0 34 5t23 19.5t8 43.5v125h-197l-43 -101
q-6 -16 -9.5 -30t-3.5 -23q0 -20 13 -29.5t38 -9.5h18v-44h-212zM223 289h172v373h-9z" />
    <glyph glyph-name="Ccedilla" unicode="&#xc7;" horiz-adv-x="548" 
d="M321 -10q-90 0 -150.5 46t-91.5 128.5t-31 193.5q0 110 32 192t95 128t156 46q61 0 102 -15.5t62 -41.5t21 -57q0 -32 -23.5 -51.5t-63.5 -19.5q0 32 -10 62t-32.5 49t-62.5 19q-57 0 -92.5 -37t-51.5 -107t-16 -167q0 -96 18 -164.5t56.5 -104.5t100.5 -36q43 0 73 13
t51 34t36 45q7 -5 11 -15.5t4 -22.5q0 -18 -11 -38.5t-33.5 -38t-59 -29t-89.5 -11.5zM297 -240q-9 0 -21.5 1.5t-25 4t-23.5 5.5v53q15 -4 31 -6t28 -2q24 0 38 14.5t14 39.5q0 29 -18.5 43t-46.5 16l19 80h43l-8 -43q29 -2 48 -14t29 -31.5t10 -46.5q0 -53 -31 -83.5
t-86 -30.5z" />
    <glyph glyph-name="Egrave" unicode="&#xc8;" horiz-adv-x="546" 
d="M29 0v44h20q19 0 32.5 5t21 19t7.5 40v493q0 30 -8 44.5t-22 19.5t-31 5h-20v44h452l4 -177h-52l-4 44q-2 22 -9.5 40.5t-22.5 29.5t-41 11h-138v-263h205v-51h-205v-296h160q26 0 42 11t25 29.5t12 40.5l5 44h52l-6 -177h-479zM286 771q-19 14 -41 33.5t-43.5 41.5
t-38.5 42t-25 33v10h110q9 -22 23.5 -49t30.5 -53t28 -45v-13h-44z" />
    <glyph glyph-name="Eacute" unicode="&#xc9;" horiz-adv-x="546" 
d="M29 0v44h20q19 0 32.5 5t21 19t7.5 40v493q0 30 -8 44.5t-22 19.5t-31 5h-20v44h452l4 -177h-52l-4 44q-2 22 -9.5 40.5t-22.5 29.5t-41 11h-138v-263h205v-51h-205v-296h160q26 0 42 11t25 29.5t12 40.5l5 44h52l-6 -177h-479zM221 784q14 23 29.5 48.5t29.5 51t22 47.5
h111v-10q-8 -13 -25 -32.5t-38.5 -41t-44 -41.5t-41.5 -35h-43v13z" />
    <glyph glyph-name="Ecircumflex" unicode="&#xca;" horiz-adv-x="546" 
d="M29 0v44h20q19 0 32.5 5t21 19t7.5 40v493q0 30 -8 44.5t-22 19.5t-31 5h-20v44h452l4 -177h-52l-4 44q-2 22 -9.5 40.5t-22.5 29.5t-41 11h-138v-263h205v-51h-205v-296h160q26 0 42 11t25 29.5t12 40.5l5 44h52l-6 -177h-479zM136 784q14 19 31.5 45t33.5 53t25 49h96
q10 -22 25.5 -49t33 -53t30.5 -45v-13h-44q-14 14 -31 30.5t-33 34.5t-29 35q-14 -17 -30 -35t-32.5 -34t-31.5 -31h-44v13z" />
    <glyph glyph-name="Edieresis" unicode="&#xcb;" horiz-adv-x="546" 
d="M29 0v44h20q19 0 32.5 5t21 19t7.5 40v493q0 30 -8 44.5t-22 19.5t-31 5h-20v44h452l4 -177h-52l-4 44q-2 22 -9.5 40.5t-22.5 29.5t-41 11h-138v-263h205v-51h-205v-296h160q26 0 42 11t25 29.5t12 40.5l5 44h52l-6 -177h-479zM359 800q-20 0 -34.5 12.5t-14.5 43.5
t14.5 43.5t34.5 12.5q19 0 33.5 -12t14.5 -44q0 -31 -14.5 -43.5t-33.5 -12.5zM196 800q-20 0 -34 12.5t-14 43.5t14 43.5t34 12.5q19 0 33.5 -12t14.5 -44q0 -31 -14.5 -43.5t-33.5 -12.5z" />
    <glyph glyph-name="Igrave" unicode="&#xcc;" horiz-adv-x="327" 
d="M29 0v44h22q16 0 29.5 5t21.5 19.5t8 42.5v490q0 29 -8 43.5t-21.5 20t-29.5 5.5h-22v44h270v-44h-22q-17 0 -30.5 -5.5t-21 -20t-7.5 -43.5v-489q0 -28 7.5 -42.5t21.5 -20t30 -5.5h22v-44h-270zM174 771q-19 14 -41 33.5t-43.5 41.5t-38.5 42t-25 33v10h110
q9 -22 23.5 -49t30.5 -53t28 -45v-13h-44z" />
    <glyph glyph-name="Iacute" unicode="&#xcd;" horiz-adv-x="327" 
d="M29 0v44h22q16 0 29.5 5t21.5 19.5t8 42.5v490q0 29 -8 43.5t-21.5 20t-29.5 5.5h-22v44h270v-44h-22q-17 0 -30.5 -5.5t-21 -20t-7.5 -43.5v-489q0 -28 7.5 -42.5t21.5 -20t30 -5.5h22v-44h-270zM107 784q14 23 29.5 48.5t29.5 51t22 47.5h111v-10q-8 -13 -25 -32.5
t-38.5 -41t-44 -41.5t-41.5 -35h-43v13z" />
    <glyph glyph-name="Icircumflex" unicode="&#xce;" horiz-adv-x="327" 
d="M29 0v44h22q16 0 29.5 5t21.5 19.5t8 42.5v490q0 29 -8 43.5t-21.5 20t-29.5 5.5h-22v44h270v-44h-22q-17 0 -30.5 -5.5t-21 -20t-7.5 -43.5v-489q0 -28 7.5 -42.5t21.5 -20t30 -5.5h22v-44h-270zM26 784q14 19 31.5 45t33.5 53t25 49h96q10 -22 25.5 -49t33 -53
t30.5 -45v-13h-44q-14 14 -31 30.5t-33 34.5t-29 35q-14 -17 -30 -35t-32.5 -34t-31.5 -31h-44v13z" />
    <glyph glyph-name="Idieresis" unicode="&#xcf;" horiz-adv-x="327" 
d="M29 0v44h22q16 0 29.5 5t21.5 19.5t8 42.5v490q0 29 -8 43.5t-21.5 20t-29.5 5.5h-22v44h270v-44h-22q-17 0 -30.5 -5.5t-21 -20t-7.5 -43.5v-489q0 -28 7.5 -42.5t21.5 -20t30 -5.5h22v-44h-270zM244 800q-20 0 -34.5 12.5t-14.5 43.5t14.5 43.5t34.5 12.5
q19 0 33.5 -12t14.5 -44q0 -31 -14.5 -43.5t-33.5 -12.5zM81 800q-20 0 -34 12.5t-14 43.5t14 43.5t34 12.5q19 0 33.5 -12t14.5 -44q0 -31 -14.5 -43.5t-33.5 -12.5z" />
    <glyph glyph-name="Eth" unicode="&#xd0;" horiz-adv-x="639" 
d="M29 0v44h22q17 0 30.5 5.5t21.5 20.5t8 43v235h-78v51h78v205q0 28 -8.5 42t-22.5 19t-32 5h-19v44h272q91 0 156 -41t99.5 -120t34.5 -193q0 -109 -32.5 -190t-97 -125.5t-160.5 -44.5h-272zM281 53q64 0 107 35.5t64.5 104t21.5 167.5t-21.5 166t-64.5 101.5t-106 34.5
h-64v-263h129v-51h-129v-295h63z" />
    <glyph glyph-name="Ntilde" unicode="&#xd1;" horiz-adv-x="664" 
d="M29 0v44h15q20 0 35 5t23 20t8 45v490q0 29 -8.5 43t-22.5 18.5t-32 4.5h-18v44h178l299 -547v437q0 28 -8 42t-22.5 19t-32.5 5h-17v44h218v-44h-18q-18 0 -32.5 -5.5t-22.5 -20t-8 -44.5v-600h-73l-323 581v-467q0 -30 8 -45t22 -20t33 -5h18v-44h-219zM405 771
q-23 0 -42 9.5t-34.5 22t-30 22t-29.5 9.5q-21 0 -30 -16.5t-11 -36.5h-47q2 32 13.5 60t33 45.5t52.5 17.5q22 0 40.5 -9.5t34.5 -22t30.5 -22t28.5 -9.5q21 0 30.5 16.5t11.5 36.5h46q-2 -32 -13.5 -60t-32.5 -45.5t-51 -17.5z" />
    <glyph glyph-name="Ograve" unicode="&#xd2;" horiz-adv-x="654" 
d="M327 -10q-94 0 -156 46t-92.5 129t-30.5 194t30.5 193t93 127.5t156.5 45.5q89 0 151 -45.5t94.5 -128t32.5 -193.5t-32.5 -193.5t-94.5 -128.5t-152 -46zM327 46q60 0 95.5 37t51 107t15.5 168q0 99 -15.5 168.5t-51 106t-94.5 36.5q-88 0 -126 -81.5t-38 -229.5
q0 -98 16.5 -168t52.5 -107t94 -37zM337 771q-19 14 -41 33.5t-43.5 41.5t-38.5 42t-25 33v10h110q9 -22 23.5 -49t30.5 -53t28 -45v-13h-44z" />
    <glyph glyph-name="Oacute" unicode="&#xd3;" horiz-adv-x="654" 
d="M327 -10q-94 0 -156 46t-92.5 129t-30.5 194t30.5 193t93 127.5t156.5 45.5q89 0 151 -45.5t94.5 -128t32.5 -193.5t-32.5 -193.5t-94.5 -128.5t-152 -46zM327 46q60 0 95.5 37t51 107t15.5 168q0 99 -15.5 168.5t-51 106t-94.5 36.5q-88 0 -126 -81.5t-38 -229.5
q0 -98 16.5 -168t52.5 -107t94 -37zM273 784q14 23 29.5 48.5t29.5 51t22 47.5h111v-10q-8 -13 -25 -32.5t-38.5 -41t-44 -41.5t-41.5 -35h-43v13z" />
    <glyph glyph-name="Ocircumflex" unicode="&#xd4;" horiz-adv-x="654" 
d="M327 -10q-94 0 -156 46t-92.5 129t-30.5 194t30.5 193t93 127.5t156.5 45.5q89 0 151 -45.5t94.5 -128t32.5 -193.5t-32.5 -193.5t-94.5 -128.5t-152 -46zM327 46q60 0 95.5 37t51 107t15.5 168q0 99 -15.5 168.5t-51 106t-94.5 36.5q-88 0 -126 -81.5t-38 -229.5
q0 -98 16.5 -168t52.5 -107t94 -37zM189 784q14 19 31.5 45t33.5 53t25 49h96q10 -22 25.5 -49t33 -53t30.5 -45v-13h-44q-14 14 -31 30.5t-33 34.5t-29 35q-14 -17 -30 -35t-32.5 -34t-31.5 -31h-44v13z" />
    <glyph glyph-name="Otilde" unicode="&#xd5;" horiz-adv-x="654" 
d="M327 -10q-94 0 -156 46t-92.5 129t-30.5 194t30.5 193t93 127.5t156.5 45.5q89 0 151 -45.5t94.5 -128t32.5 -193.5t-32.5 -193.5t-94.5 -128.5t-152 -46zM327 46q60 0 95.5 37t51 107t15.5 168q0 99 -15.5 168.5t-51 106t-94.5 36.5q-88 0 -126 -81.5t-38 -229.5
q0 -98 16.5 -168t52.5 -107t94 -37zM386 771q-23 0 -42 9.5t-34.5 22t-30 22t-29.5 9.5q-21 0 -30 -16.5t-11 -36.5h-47q2 32 13.5 60t33 45.5t52.5 17.5q22 0 40.5 -9.5t34.5 -22t30.5 -22t28.5 -9.5q21 0 30.5 16.5t11.5 36.5h46q-2 -32 -13.5 -60t-32.5 -45.5t-51 -17.5z
" />
    <glyph glyph-name="Odieresis" unicode="&#xd6;" horiz-adv-x="654" 
d="M327 -10q-94 0 -156 46t-92.5 129t-30.5 194t30.5 193t93 127.5t156.5 45.5q89 0 151 -45.5t94.5 -128t32.5 -193.5t-32.5 -193.5t-94.5 -128.5t-152 -46zM327 46q60 0 95.5 37t51 107t15.5 168q0 99 -15.5 168.5t-51 106t-94.5 36.5q-88 0 -126 -81.5t-38 -229.5
q0 -98 16.5 -168t52.5 -107t94 -37zM405 800q-20 0 -34.5 12.5t-14.5 43.5t14.5 43.5t34.5 12.5q19 0 33.5 -12t14.5 -44q0 -31 -14.5 -43.5t-33.5 -12.5zM242 800q-20 0 -34 12.5t-14 43.5t14 43.5t34 12.5q19 0 33.5 -12t14.5 -44q0 -31 -14.5 -43.5t-33.5 -12.5z" />
    <glyph glyph-name="multiply" unicode="&#xd7;" horiz-adv-x="466" 
d="M97 152l-45 39l143 168l-143 166l45 39l137 -160l137 159l45 -39l-142 -166l142 -166l-45 -39l-137 160z" />
    <glyph glyph-name="Oslash" unicode="&#xd8;" horiz-adv-x="653" 
d="M156 50q-54 46 -81 125.5t-27 183.5q0 111 30.5 193t93 127.5t156.5 45.5q37 0 69.5 -8.5t59.5 -24.5l30 63h54l-42 -92q52 -46 79.5 -124.5t27.5 -180.5q0 -111 -32.5 -193.5t-94.5 -128.5t-152 -46q-38 0 -70 8t-60 23l-28 -61h-55zM327 46q60 0 95.5 37t51 107
t15.5 168q0 68 -7.5 122.5t-25.5 93.5l-227 -486q37 -42 98 -42zM427 627q-19 21 -43.5 31.5t-55.5 10.5q-88 0 -126 -81.5t-38 -229.5q0 -68 8.5 -123t26.5 -94z" />
    <glyph glyph-name="Ugrave" unicode="&#xd9;" horiz-adv-x="626" 
d="M317 -10q-68 0 -118.5 22.5t-77.5 72.5t-27 132v387q0 29 -9 43t-24 18.5t-34 4.5h-14v44h270v-44h-13q-20 0 -35 -5t-24 -19.5t-9 -45.5v-390q0 -87 38 -122.5t99 -35.5q45 0 75 20t45 55t15 82v395q0 29 -9 43t-23.5 18.5t-34.5 4.5h-13v44h219v-44h-14q-19 0 -34 -5
t-24 -19.5t-9 -45.5v-393q0 -66 -23.5 -115t-71.5 -75.5t-120 -26.5zM334 771q-19 14 -41 33.5t-43.5 41.5t-38.5 42t-25 33v10h110q9 -22 23.5 -49t30.5 -53t28 -45v-13h-44z" />
    <glyph glyph-name="Uacute" unicode="&#xda;" horiz-adv-x="626" 
d="M317 -10q-68 0 -118.5 22.5t-77.5 72.5t-27 132v387q0 29 -9 43t-24 18.5t-34 4.5h-14v44h270v-44h-13q-20 0 -35 -5t-24 -19.5t-9 -45.5v-390q0 -87 38 -122.5t99 -35.5q45 0 75 20t45 55t15 82v395q0 29 -9 43t-23.5 18.5t-34.5 4.5h-13v44h219v-44h-14q-19 0 -34 -5
t-24 -19.5t-9 -45.5v-393q0 -66 -23.5 -115t-71.5 -75.5t-120 -26.5zM269 784q14 23 29.5 48.5t29.5 51t22 47.5h111v-10q-8 -13 -25 -32.5t-38.5 -41t-44 -41.5t-41.5 -35h-43v13z" />
    <glyph glyph-name="Ucircumflex" unicode="&#xdb;" horiz-adv-x="626" 
d="M317 -10q-68 0 -118.5 22.5t-77.5 72.5t-27 132v387q0 29 -9 43t-24 18.5t-34 4.5h-14v44h270v-44h-13q-20 0 -35 -5t-24 -19.5t-9 -45.5v-390q0 -87 38 -122.5t99 -35.5q45 0 75 20t45 55t15 82v395q0 29 -9 43t-23.5 18.5t-34.5 4.5h-13v44h219v-44h-14q-19 0 -34 -5
t-24 -19.5t-9 -45.5v-393q0 -66 -23.5 -115t-71.5 -75.5t-120 -26.5zM194 784q14 19 31.5 45t33.5 53t25 49h96q10 -22 25.5 -49t33 -53t30.5 -45v-13h-44q-14 14 -31 30.5t-33 34.5t-29 35q-14 -17 -30 -35t-32.5 -34t-31.5 -31h-44v13z" />
    <glyph glyph-name="Udieresis" unicode="&#xdc;" horiz-adv-x="626" 
d="M317 -10q-68 0 -118.5 22.5t-77.5 72.5t-27 132v387q0 29 -9 43t-24 18.5t-34 4.5h-14v44h270v-44h-13q-20 0 -35 -5t-24 -19.5t-9 -45.5v-390q0 -87 38 -122.5t99 -35.5q45 0 75 20t45 55t15 82v395q0 29 -9 43t-23.5 18.5t-34.5 4.5h-13v44h219v-44h-14q-19 0 -34 -5
t-24 -19.5t-9 -45.5v-393q0 -66 -23.5 -115t-71.5 -75.5t-120 -26.5zM416 800q-20 0 -34.5 12.5t-14.5 43.5t14.5 43.5t34.5 12.5q19 0 33.5 -12t14.5 -44q0 -31 -14.5 -43.5t-33.5 -12.5zM253 800q-20 0 -34 12.5t-14 43.5t14 43.5t34 12.5q19 0 33.5 -12t14.5 -44
q0 -31 -14.5 -43.5t-33.5 -12.5z" />
    <glyph glyph-name="Yacute" unicode="&#xdd;" horiz-adv-x="561" 
d="M138 0v44h20q20 0 35.5 5t25 20t9.5 44v180l-158 324q-10 20 -17.5 31.5t-18 16.5t-25.5 5h-11v44h255v-44h-22q-25 0 -34.5 -10t-9.5 -24q0 -11 4.5 -26.5t10.5 -26.5l64 -134q14 -30 24 -56.5t18 -49.5q8 22 20.5 50.5t26.5 59.5l53 113q9 19 13.5 35.5t4.5 27.5
q0 23 -15 32t-41 9h-20v44h214v-44h-10q-13 0 -24 -7t-22 -23.5t-26 -46.5l-145 -300v-176q0 -31 9 -47t24.5 -21t33.5 -5h23v-44h-289zM241 784q14 23 29.5 48.5t29.5 51t22 47.5h111v-10q-8 -13 -25 -32.5t-38.5 -41t-44 -41.5t-41.5 -35h-43v13z" />
    <glyph glyph-name="Thorn" unicode="&#xde;" horiz-adv-x="532" 
d="M29 0v44h22q16 0 29.5 5t21.5 19.5t8 42.5v490q0 29 -8 43.5t-21.5 20t-29.5 5.5h-22v44h277v-44h-26q-17 0 -31.5 -5.5t-22 -20t-7.5 -43.5v-29h60q114 0 168.5 -51.5t54.5 -149.5q0 -59 -23.5 -109t-76.5 -80t-141 -30h-42v-39q0 -28 8 -43t22 -20.5t31 -5.5h26v-44
h-277zM256 201q46 0 75 15.5t42 52t13 98.5q0 83 -27.5 119t-93.5 36h-46v-321h37z" />
    <glyph glyph-name="germandbls" unicode="&#xdf;" horiz-adv-x="578" 
d="M386 -10q-43 0 -75 14t-49 39t-17 59q0 25 8 39t20.5 19.5t25.5 5.5q3 -37 12 -66t28 -46t48 -17q30 0 47 23t17 66q0 24 -7 42.5t-25.5 36.5t-51.5 37q-35 21 -59 41.5t-36.5 48t-12.5 67.5q0 43 16.5 73.5t48 47.5t75.5 18q0 61 -10.5 101t-33 59.5t-59.5 19.5
q-32 0 -54.5 -17t-33.5 -48t-11 -74v-579h-184v44h26q17 0 29.5 5t19.5 20t7 45v369h-73v53h73v27q0 75 26.5 119t72.5 63t103 19q76 0 119.5 -31.5t62 -91.5t18.5 -148h-55q-32 0 -53 -9.5t-31 -27t-10 -43.5q0 -21 7.5 -37.5t26 -31t50.5 -34.5q37 -21 61 -46t36 -54
t12 -64q0 -76 -41 -116t-114 -40z" />
    <glyph glyph-name="agrave" unicode="&#xe0;" horiz-adv-x="497" 
d="M173 -10q-37 0 -67 17.5t-47.5 53t-17.5 90.5q0 80 48 118t146 42l71 3v59q0 38 -5.5 65t-20.5 42t-46 15q-28 0 -43.5 -13.5t-21 -38t-5.5 -57.5q-44 0 -65.5 15.5t-21.5 47.5q0 33 21.5 54.5t58.5 32.5t84 11q83 0 125 -39.5t42 -133.5v-258q0 -28 5.5 -43.5t17 -22
t31.5 -6.5h2v-44h-135l-15 83h-7q-18 -27 -35.5 -48.5t-40 -33t-58.5 -11.5zM206 48q32 0 54 18.5t34.5 51t12.5 73.5v80l-48 -3q-42 -2 -67 -16.5t-35.5 -41t-10.5 -65.5q0 -30 6.5 -52t20 -33.5t33.5 -11.5zM254 606q-19 14 -41 33.5t-43.5 41.5t-38.5 42t-25 33v10h110
q9 -22 23.5 -49t30.5 -53t28 -45v-13h-44z" />
    <glyph glyph-name="aacute" unicode="&#xe1;" horiz-adv-x="497" 
d="M173 -10q-37 0 -67 17.5t-47.5 53t-17.5 90.5q0 80 48 118t146 42l71 3v59q0 38 -5.5 65t-20.5 42t-46 15q-28 0 -43.5 -13.5t-21 -38t-5.5 -57.5q-44 0 -65.5 15.5t-21.5 47.5q0 33 21.5 54.5t58.5 32.5t84 11q83 0 125 -39.5t42 -133.5v-258q0 -28 5.5 -43.5t17 -22
t31.5 -6.5h2v-44h-135l-15 83h-7q-18 -27 -35.5 -48.5t-40 -33t-58.5 -11.5zM206 48q32 0 54 18.5t34.5 51t12.5 73.5v80l-48 -3q-42 -2 -67 -16.5t-35.5 -41t-10.5 -65.5q0 -30 6.5 -52t20 -33.5t33.5 -11.5zM194 619q14 23 29.5 48.5t29.5 51t22 47.5h111v-10
q-8 -13 -25 -32.5t-38.5 -41t-44 -41.5t-41.5 -35h-43v13z" />
    <glyph glyph-name="acircumflex" unicode="&#xe2;" horiz-adv-x="497" 
d="M173 -10q-37 0 -67 17.5t-47.5 53t-17.5 90.5q0 80 48 118t146 42l71 3v59q0 38 -5.5 65t-20.5 42t-46 15q-28 0 -43.5 -13.5t-21 -38t-5.5 -57.5q-44 0 -65.5 15.5t-21.5 47.5q0 33 21.5 54.5t58.5 32.5t84 11q83 0 125 -39.5t42 -133.5v-258q0 -28 5.5 -43.5t17 -22
t31.5 -6.5h2v-44h-135l-15 83h-7q-18 -27 -35.5 -48.5t-40 -33t-58.5 -11.5zM206 48q32 0 54 18.5t34.5 51t12.5 73.5v80l-48 -3q-42 -2 -67 -16.5t-35.5 -41t-10.5 -65.5q0 -30 6.5 -52t20 -33.5t33.5 -11.5zM108 619q14 19 31.5 45t33.5 53t25 49h96q10 -22 25.5 -49
t33 -53t30.5 -45v-13h-44q-14 14 -31 30.5t-33 34.5t-29 35q-14 -17 -30 -35t-32.5 -34t-31.5 -31h-44v13z" />
    <glyph glyph-name="atilde" unicode="&#xe3;" horiz-adv-x="497" 
d="M173 -10q-37 0 -67 17.5t-47.5 53t-17.5 90.5q0 80 48 118t146 42l71 3v59q0 38 -5.5 65t-20.5 42t-46 15q-28 0 -43.5 -13.5t-21 -38t-5.5 -57.5q-44 0 -65.5 15.5t-21.5 47.5q0 33 21.5 54.5t58.5 32.5t84 11q83 0 125 -39.5t42 -133.5v-258q0 -28 5.5 -43.5t17 -22
t31.5 -6.5h2v-44h-135l-15 83h-7q-18 -27 -35.5 -48.5t-40 -33t-58.5 -11.5zM206 48q32 0 54 18.5t34.5 51t12.5 73.5v80l-48 -3q-42 -2 -67 -16.5t-35.5 -41t-10.5 -65.5q0 -30 6.5 -52t20 -33.5t33.5 -11.5zM310 606q-23 0 -42 9.5t-34.5 22t-30 22t-29.5 9.5
q-21 0 -30 -16.5t-11 -36.5h-47q2 32 13.5 60t33 45.5t52.5 17.5q22 0 40.5 -9.5t34.5 -22t30.5 -22t28.5 -9.5q21 0 30.5 16.5t11.5 36.5h46q-2 -32 -13.5 -60t-32.5 -45.5t-51 -17.5z" />
    <glyph glyph-name="adieresis" unicode="&#xe4;" horiz-adv-x="497" 
d="M173 -10q-37 0 -67 17.5t-47.5 53t-17.5 90.5q0 80 48 118t146 42l71 3v59q0 38 -5.5 65t-20.5 42t-46 15q-28 0 -43.5 -13.5t-21 -38t-5.5 -57.5q-44 0 -65.5 15.5t-21.5 47.5q0 33 21.5 54.5t58.5 32.5t84 11q83 0 125 -39.5t42 -133.5v-258q0 -28 5.5 -43.5t17 -22
t31.5 -6.5h2v-44h-135l-15 83h-7q-18 -27 -35.5 -48.5t-40 -33t-58.5 -11.5zM206 48q32 0 54 18.5t34.5 51t12.5 73.5v80l-48 -3q-42 -2 -67 -16.5t-35.5 -41t-10.5 -65.5q0 -30 6.5 -52t20 -33.5t33.5 -11.5zM324 635q-20 0 -34.5 12.5t-14.5 43.5t14.5 43.5t34.5 12.5
q19 0 33.5 -12t14.5 -44q0 -31 -14.5 -43.5t-33.5 -12.5zM161 635q-20 0 -34 12.5t-14 43.5t14 43.5t34 12.5q19 0 33.5 -12t14.5 -44q0 -31 -14.5 -43.5t-33.5 -12.5z" />
    <glyph glyph-name="aring" unicode="&#xe5;" horiz-adv-x="497" 
d="M173 -10q-37 0 -67 17.5t-47.5 53t-17.5 90.5q0 80 48 118t146 42l71 3v59q0 38 -5.5 65t-20.5 42t-46 15q-28 0 -43.5 -13.5t-21 -38t-5.5 -57.5q-44 0 -65.5 15.5t-21.5 47.5q0 33 21.5 54.5t58.5 32.5t84 11q83 0 125 -39.5t42 -133.5v-258q0 -28 5.5 -43.5t17 -22
t31.5 -6.5h2v-44h-135l-15 83h-7q-18 -27 -35.5 -48.5t-40 -33t-58.5 -11.5zM206 48q32 0 54 18.5t34.5 51t12.5 73.5v80l-48 -3q-42 -2 -67 -16.5t-35.5 -41t-10.5 -65.5q0 -30 6.5 -52t20 -33.5t33.5 -11.5zM248 596q-43 0 -73 28t-30 81t30 81t73 28t73 -28t30 -81
t-30 -81t-73 -28zM248 643q23 0 40 14t17 48t-16.5 48t-39.5 14q-24 0 -40.5 -14t-16.5 -48t16.5 -48t39.5 -14z" />
    <glyph glyph-name="ae" unicode="&#xe6;" horiz-adv-x="734" 
d="M179 -10q-39 0 -70.5 17t-49.5 53t-18 90q0 81 48 119t146 42l71 3v59q0 36 -5 63t-20.5 43t-45.5 16q-29 0 -45 -14t-21 -38.5t-5 -56.5q-46 0 -66.5 15.5t-20.5 47.5q0 35 22 56t58.5 31.5t79.5 10.5q33 0 58.5 -7.5t45.5 -22.5t33 -39q24 33 58 51t80 18q55 0 96 -28
t63.5 -81.5t22.5 -130.5v-45h-285q1 -72 15.5 -119t42.5 -69.5t70 -22.5q41 0 70.5 22t46.5 56q9 -4 16 -13t7 -22q0 -22 -17.5 -46t-53 -41t-90.5 -17q-63 0 -107.5 30t-68.5 87q-12 -29 -33.5 -56t-53.5 -44t-74 -17zM207 48q30 0 52 18t35 50t13 76v79l-48 -3
q-42 -2 -67 -16.5t-35.5 -41t-10.5 -65.5q0 -31 7 -53t20.5 -33t33.5 -11zM590 315q0 81 -19 129.5t-65 48.5q-43 0 -68 -45t-27 -133h179z" />
    <glyph glyph-name="ccedilla" unicode="&#xe7;" horiz-adv-x="436" 
d="M248 -10q-60 0 -106 27.5t-72 88.5t-26 159q0 108 26.5 169.5t72 87t101.5 25.5q48 0 84 -12.5t55 -35t19 -55.5q0 -23 -8.5 -37.5t-28.5 -21.5t-54 -7q0 32 -6 58.5t-20 42.5t-40 16q-29 0 -51 -20.5t-34 -70t-12 -138.5q0 -70 12.5 -118t38.5 -72.5t66 -24.5
q30 0 53 11t39.5 29t26.5 39q9 -6 13.5 -15.5t4.5 -23.5q0 -22 -15 -45.5t-49 -39.5t-90 -16zM221 -235q-13 0 -33 2.5t-35 7.5v49q15 -4 30 -6t26 -2q26 0 41 12.5t15 41.5q0 30 -18.5 42t-47.5 16l18 81h42l-9 -45q27 -2 46.5 -14t30 -31t10.5 -46q0 -53 -31.5 -80.5
t-84.5 -27.5z" />
    <glyph glyph-name="egrave" unicode="&#xe8;" horiz-adv-x="473" 
d="M253 -10q-101 0 -155 72t-54 202q0 141 52.5 212t147.5 71q89 0 139 -61.5t50 -180.5v-43h-285q2 -109 34 -160t93 -51q44 0 73.5 23.5t44.5 54.5q9 -4 16 -12.5t7 -22.5q0 -22 -17 -46t-53 -41t-93 -17zM330 315q-1 81 -20 129.5t-64 48.5t-69.5 -46t-26.5 -132h180z
M263 606q-19 14 -41 33.5t-43.5 41.5t-38.5 42t-25 33v10h110q9 -22 23.5 -49t30.5 -53t28 -45v-13h-44z" />
    <glyph glyph-name="eacute" unicode="&#xe9;" horiz-adv-x="473" 
d="M253 -10q-101 0 -155 72t-54 202q0 141 52.5 212t147.5 71q89 0 139 -61.5t50 -180.5v-43h-285q2 -109 34 -160t93 -51q44 0 73.5 23.5t44.5 54.5q9 -4 16 -12.5t7 -22.5q0 -22 -17 -46t-53 -41t-93 -17zM330 315q-1 81 -20 129.5t-64 48.5t-69.5 -46t-26.5 -132h180z
M195 619q14 23 29.5 48.5t29.5 51t22 47.5h111v-10q-8 -13 -25 -32.5t-38.5 -41t-44 -41.5t-41.5 -35h-43v13z" />
    <glyph glyph-name="ecircumflex" unicode="&#xea;" horiz-adv-x="473" 
d="M253 -10q-101 0 -155 72t-54 202q0 141 52.5 212t147.5 71q89 0 139 -61.5t50 -180.5v-43h-285q2 -109 34 -160t93 -51q44 0 73.5 23.5t44.5 54.5q9 -4 16 -12.5t7 -22.5q0 -22 -17 -46t-53 -41t-93 -17zM330 315q-1 81 -20 129.5t-64 48.5t-69.5 -46t-26.5 -132h180z
M106 619q14 19 31.5 45t33.5 53t25 49h96q10 -22 25.5 -49t33 -53t30.5 -45v-13h-44q-14 14 -31 30.5t-33 34.5t-29 35q-14 -17 -30 -35t-32.5 -34t-31.5 -31h-44v13z" />
    <glyph glyph-name="edieresis" unicode="&#xeb;" horiz-adv-x="473" 
d="M253 -10q-101 0 -155 72t-54 202q0 141 52.5 212t147.5 71q89 0 139 -61.5t50 -180.5v-43h-285q2 -109 34 -160t93 -51q44 0 73.5 23.5t44.5 54.5q9 -4 16 -12.5t7 -22.5q0 -22 -17 -46t-53 -41t-93 -17zM330 315q-1 81 -20 129.5t-64 48.5t-69.5 -46t-26.5 -132h180z
M321 635q-20 0 -34.5 12.5t-14.5 43.5t14.5 43.5t34.5 12.5q19 0 33.5 -12t14.5 -44q0 -31 -14.5 -43.5t-33.5 -12.5zM158 635q-20 0 -34 12.5t-14 43.5t14 43.5t34 12.5q19 0 33.5 -12t14.5 -44q0 -31 -14.5 -43.5t-33.5 -12.5z" />
    <glyph glyph-name="igrave" unicode="&#xec;" horiz-adv-x="287" 
d="M17 0v44h11q20 0 34.5 5t23.5 20t9 44v310q0 29 -8.5 44t-22.5 20t-33 5h-9v44h175v-419q0 -31 8 -46.5t23.5 -21t34.5 -5.5h11v-44h-257zM154 606q-19 14 -41 33.5t-43.5 41.5t-38.5 42t-25 33v10h110q9 -22 23.5 -49t30.5 -53t28 -45v-13h-44z" />
    <glyph glyph-name="iacute" unicode="&#xed;" horiz-adv-x="287" 
d="M17 0v44h11q20 0 34.5 5t23.5 20t9 44v310q0 29 -8.5 44t-22.5 20t-33 5h-9v44h175v-419q0 -31 8 -46.5t23.5 -21t34.5 -5.5h11v-44h-257zM91 619q14 23 29.5 48.5t29.5 51t22 47.5h111v-10q-8 -13 -25 -32.5t-38.5 -41t-44 -41.5t-41.5 -35h-43v13z" />
    <glyph glyph-name="icircumflex" unicode="&#xee;" horiz-adv-x="287" 
d="M17 0v44h11q20 0 34.5 5t23.5 20t9 44v310q0 29 -8.5 44t-22.5 20t-33 5h-9v44h175v-419q0 -31 8 -46.5t23.5 -21t34.5 -5.5h11v-44h-257zM0 619q14 19 31.5 45t33.5 53t25 49h96q10 -22 25.5 -49t33 -53t30.5 -45v-13h-44q-14 14 -31 30.5t-33 34.5t-29 35
q-14 -17 -30 -35t-32.5 -34t-31.5 -31h-44v13z" />
    <glyph glyph-name="idieresis" unicode="&#xef;" horiz-adv-x="287" 
d="M17 0v44h11q20 0 34.5 5t23.5 20t9 44v310q0 29 -8.5 44t-22.5 20t-33 5h-9v44h175v-419q0 -31 8 -46.5t23.5 -21t34.5 -5.5h11v-44h-257zM216 635q-20 0 -34.5 12.5t-14.5 43.5t14.5 43.5t34.5 12.5q19 0 33.5 -12t14.5 -44q0 -31 -14.5 -43.5t-33.5 -12.5zM53 635
q-20 0 -34 12.5t-14 43.5t14 43.5t34 12.5q19 0 33.5 -12t14.5 -44q0 -31 -14.5 -43.5t-33.5 -12.5z" />
    <glyph glyph-name="eth" unicode="&#xf0;" horiz-adv-x="509" 
d="M253 -10q-67 0 -113.5 30t-71 88t-24.5 142q0 130 51.5 194t146.5 64q21 0 39.5 -4.5t35 -12.5t28.5 -19q-12 41 -32.5 79t-51.5 68l-110 -70v57l71 47q-21 17 -46.5 30t-49.5 22v56q40 -11 79 -28t77 -44l110 73v-59l-67 -47q63 -58 101 -152t38 -219q0 -99 -23.5 -165
t-70.5 -98t-117 -32zM255 44q56 0 80.5 52t24.5 154q0 68 -10 113.5t-33.5 67.5t-62.5 22q-38 0 -61.5 -22.5t-33.5 -67t-10 -113.5q0 -102 24.5 -154t81.5 -52z" />
    <glyph glyph-name="ntilde" unicode="&#xf1;" horiz-adv-x="562" 
d="M21 0v44h6q20 0 35 5t24 20.5t9 45.5v310q0 29 -8.5 43.5t-23 19t-33.5 4.5h-5v44h157l12 -79h4q22 49 54 69.5t79 20.5q68 0 105 -47t37 -149v-235q0 -31 7.5 -46.5t21.5 -20.5t32 -5h5v-44h-168v343q0 64 -17.5 100.5t-62.5 36.5q-35 0 -56 -23t-29.5 -60t-8.5 -79
v-207q0 -30 8 -44t23 -18.5t33 -4.5h5v-44h-245zM343 606q-23 0 -42 9.5t-34.5 22t-30 22t-29.5 9.5q-21 0 -30 -16.5t-11 -36.5h-47q2 32 13.5 60t33 45.5t52.5 17.5q22 0 40.5 -9.5t34.5 -22t30.5 -22t28.5 -9.5q21 0 30.5 16.5t11.5 36.5h46q-2 -32 -13.5 -60
t-32.5 -45.5t-51 -17.5z" />
    <glyph glyph-name="ograve" unicode="&#xf2;" horiz-adv-x="509" 
d="M253 -10q-97 0 -153 69t-56 210q0 140 54 209t158 69q97 0 152.5 -69t55.5 -209q0 -141 -53.5 -210t-157.5 -69zM255 44q39 0 62 25.5t33 75.5t10 124q0 112 -24 167.5t-82 55.5q-57 0 -81 -55.5t-24 -167.5q0 -111 24.5 -168t81.5 -57zM262 606q-19 14 -41 33.5
t-43.5 41.5t-38.5 42t-25 33v10h110q9 -22 23.5 -49t30.5 -53t28 -45v-13h-44z" />
    <glyph glyph-name="oacute" unicode="&#xf3;" horiz-adv-x="509" 
d="M253 -10q-97 0 -153 69t-56 210q0 140 54 209t158 69q97 0 152.5 -69t55.5 -209q0 -141 -53.5 -210t-157.5 -69zM255 44q39 0 62 25.5t33 75.5t10 124q0 112 -24 167.5t-82 55.5q-57 0 -81 -55.5t-24 -167.5q0 -111 24.5 -168t81.5 -57zM211 619q14 23 29.5 48.5t29.5 51
t22 47.5h111v-10q-8 -13 -25 -32.5t-38.5 -41t-44 -41.5t-41.5 -35h-43v13z" />
    <glyph glyph-name="ocircumflex" unicode="&#xf4;" horiz-adv-x="509" 
d="M253 -10q-97 0 -153 69t-56 210q0 140 54 209t158 69q97 0 152.5 -69t55.5 -209q0 -141 -53.5 -210t-157.5 -69zM255 44q39 0 62 25.5t33 75.5t10 124q0 112 -24 167.5t-82 55.5q-57 0 -81 -55.5t-24 -167.5q0 -111 24.5 -168t81.5 -57zM115 619q14 19 31.5 45t33.5 53
t25 49h96q10 -22 25.5 -49t33 -53t30.5 -45v-13h-44q-14 14 -31 30.5t-33 34.5t-29 35q-14 -17 -30 -35t-32.5 -34t-31.5 -31h-44v13z" />
    <glyph glyph-name="otilde" unicode="&#xf5;" horiz-adv-x="509" 
d="M253 -10q-97 0 -153 69t-56 210q0 140 54 209t158 69q97 0 152.5 -69t55.5 -209q0 -141 -53.5 -210t-157.5 -69zM255 44q39 0 62 25.5t33 75.5t10 124q0 112 -24 167.5t-82 55.5q-57 0 -81 -55.5t-24 -167.5q0 -111 24.5 -168t81.5 -57zM315 606q-23 0 -42 9.5t-34.5 22
t-30 22t-29.5 9.5q-21 0 -30 -16.5t-11 -36.5h-47q2 32 13.5 60t33 45.5t52.5 17.5q22 0 40.5 -9.5t34.5 -22t30.5 -22t28.5 -9.5q21 0 30.5 16.5t11.5 36.5h46q-2 -32 -13.5 -60t-32.5 -45.5t-51 -17.5z" />
    <glyph glyph-name="odieresis" unicode="&#xf6;" horiz-adv-x="509" 
d="M253 -10q-97 0 -153 69t-56 210q0 140 54 209t158 69q97 0 152.5 -69t55.5 -209q0 -141 -53.5 -210t-157.5 -69zM255 44q39 0 62 25.5t33 75.5t10 124q0 112 -24 167.5t-82 55.5q-57 0 -81 -55.5t-24 -167.5q0 -111 24.5 -168t81.5 -57zM333 635q-20 0 -34.5 12.5
t-14.5 43.5t14.5 43.5t34.5 12.5q19 0 33.5 -12t14.5 -44q0 -31 -14.5 -43.5t-33.5 -12.5zM170 635q-20 0 -34 12.5t-14 43.5t14 43.5t34 12.5q19 0 33.5 -12t14.5 -44q0 -31 -14.5 -43.5t-33.5 -12.5z" />
    <glyph glyph-name="divide" unicode="&#xf7;" horiz-adv-x="466" 
d="M48 327v61h369v-61h-369zM233 112q-20 0 -33.5 12t-13.5 44t13.5 43.5t33.5 11.5t33.5 -11.5t13.5 -44.5q0 -31 -14 -43t-33 -12zM233 492q-20 0 -33.5 12t-13.5 43q0 33 13.5 44.5t33.5 11.5t33.5 -11.5t13.5 -44.5q0 -31 -14 -43t-33 -12z" />
    <glyph glyph-name="oslash" unicode="&#xf8;" horiz-adv-x="509" 
d="M112 48q-33 35 -50.5 89.5t-17.5 131.5q0 140 53.5 209t158.5 69q61 0 106 -31l30 60h55l-47 -91q31 -34 47.5 -88t16.5 -128q0 -141 -53.5 -210t-157.5 -69q-30 0 -55 7t-47 21l-29 -58h-55zM255 44q39 0 62 25t33 75.5t10 123.5q0 41 -3.5 73.5t-9.5 58.5l-162 -323
q12 -17 29 -25t41 -8zM326 454q-12 20 -30 29t-42 9q-57 0 -81.5 -56t-24.5 -167q0 -43 4 -78t11 -62z" />
    <glyph glyph-name="ugrave" unicode="&#xf9;" horiz-adv-x="558" 
d="M231 -10q-72 0 -108 47t-36 149v238q0 30 -7.5 44.5t-22 19t-34.5 4.5h-3v44h170v-341q0 -45 6.5 -76t24 -46.5t48.5 -15.5q34 0 55 20t30.5 56.5t9.5 84.5v203q0 32 -8 47t-22.5 19.5t-32.5 4.5h-3v44h168v-425q0 -30 9 -44t24 -18.5t32 -4.5h5v-44h-152l-14 79h-4
q-24 -51 -57.5 -70t-77.5 -19zM268 606q-19 14 -41 33.5t-43.5 41.5t-38.5 42t-25 33v10h110q9 -22 23.5 -49t30.5 -53t28 -45v-13h-44z" />
    <glyph glyph-name="uacute" unicode="&#xfa;" horiz-adv-x="558" 
d="M231 -10q-72 0 -108 47t-36 149v238q0 30 -7.5 44.5t-22 19t-34.5 4.5h-3v44h170v-341q0 -45 6.5 -76t24 -46.5t48.5 -15.5q34 0 55 20t30.5 56.5t9.5 84.5v203q0 32 -8 47t-22.5 19.5t-32.5 4.5h-3v44h168v-425q0 -30 9 -44t24 -18.5t32 -4.5h5v-44h-152l-14 79h-4
q-24 -51 -57.5 -70t-77.5 -19zM222 619q14 23 29.5 48.5t29.5 51t22 47.5h111v-10q-8 -13 -25 -32.5t-38.5 -41t-44 -41.5t-41.5 -35h-43v13z" />
    <glyph glyph-name="ucircumflex" unicode="&#xfb;" horiz-adv-x="558" 
d="M231 -10q-72 0 -108 47t-36 149v238q0 30 -7.5 44.5t-22 19t-34.5 4.5h-3v44h170v-341q0 -45 6.5 -76t24 -46.5t48.5 -15.5q34 0 55 20t30.5 56.5t9.5 84.5v203q0 32 -8 47t-22.5 19.5t-32.5 4.5h-3v44h168v-425q0 -30 9 -44t24 -18.5t32 -4.5h5v-44h-152l-14 79h-4
q-24 -51 -57.5 -70t-77.5 -19zM135 619q14 19 31.5 45t33.5 53t25 49h96q10 -22 25.5 -49t33 -53t30.5 -45v-13h-44q-14 14 -31 30.5t-33 34.5t-29 35q-14 -17 -30 -35t-32.5 -34t-31.5 -31h-44v13z" />
    <glyph glyph-name="udieresis" unicode="&#xfc;" horiz-adv-x="558" 
d="M231 -10q-72 0 -108 47t-36 149v238q0 30 -7.5 44.5t-22 19t-34.5 4.5h-3v44h170v-341q0 -45 6.5 -76t24 -46.5t48.5 -15.5q34 0 55 20t30.5 56.5t9.5 84.5v203q0 32 -8 47t-22.5 19.5t-32.5 4.5h-3v44h168v-425q0 -30 9 -44t24 -18.5t32 -4.5h5v-44h-152l-14 79h-4
q-24 -51 -57.5 -70t-77.5 -19zM356 635q-20 0 -34.5 12.5t-14.5 43.5t14.5 43.5t34.5 12.5q19 0 33.5 -12t14.5 -44q0 -31 -14.5 -43.5t-33.5 -12.5zM193 635q-20 0 -34 12.5t-14 43.5t14 43.5t34 12.5q19 0 33.5 -12t14.5 -44q0 -31 -14.5 -43.5t-33.5 -12.5z" />
    <glyph glyph-name="yacute" unicode="&#xfd;" horiz-adv-x="490" 
d="M29 -186q43 0 74 13t52.5 37t37 57.5t27.5 76.5l-156 442q-7 22 -14.5 33t-17.5 15t-26 4h-4v44h223v-44h-3q-29 0 -40.5 -10t-11.5 -27q0 -11 3.5 -25t8.5 -32l54 -164q10 -29 17.5 -55.5t13 -49t7.5 -38.5q5 27 12.5 55.5t16.5 59.5l54 195q5 13 7.5 27t2.5 26
q0 21 -13 29t-40 9h-3v44h179v-44h-2q-16 0 -27.5 -5.5t-20.5 -21t-19 -47.5l-130 -415q-22 -73 -42 -119t-45.5 -72t-64.5 -36.5t-99 -10.5h-11v49zM200 619q14 23 29.5 48.5t29.5 51t22 47.5h111v-10q-8 -13 -25 -32.5t-38.5 -41t-44 -41.5t-41.5 -35h-43v13z" />
    <glyph glyph-name="thorn" unicode="&#xfe;" horiz-adv-x="538" 
d="M13 -240v44h9q19 0 34 5t23.5 20.5t8.5 45.5v772q0 31 -8.5 45.5t-22.5 19t-31 4.5h-7v44h172v-188q0 -21 -1 -49t-2 -50t-2 -27h2q19 46 50 73t81 27q85 0 130 -66.5t45 -211.5t-45 -212t-129 -67q-50 0 -80.5 24.5t-48.5 65.5h-4q0 -4 1 -16t1.5 -29t1 -36t0.5 -36v-90
q0 -30 8.5 -44.5t23 -19t34.5 -4.5h12v-44h-256zM295 50q51 0 73 57t22 164q0 105 -22 160t-73 55q-40 0 -62.5 -25.5t-32 -73.5t-9.5 -117q0 -71 9.5 -120t32 -74.5t62.5 -25.5z" />
    <glyph glyph-name="ydieresis" unicode="&#xff;" horiz-adv-x="490" 
d="M29 -186q43 0 74 13t52.5 37t37 57.5t27.5 76.5l-156 442q-7 22 -14.5 33t-17.5 15t-26 4h-4v44h223v-44h-3q-29 0 -40.5 -10t-11.5 -27q0 -11 3.5 -25t8.5 -32l54 -164q10 -29 17.5 -55.5t13 -49t7.5 -38.5q5 27 12.5 55.5t16.5 59.5l54 195q5 13 7.5 27t2.5 26
q0 21 -13 29t-40 9h-3v44h179v-44h-2q-16 0 -27.5 -5.5t-20.5 -21t-19 -47.5l-130 -415q-22 -73 -42 -119t-45.5 -72t-64.5 -36.5t-99 -10.5h-11v49zM346 635q-20 0 -34.5 12.5t-14.5 43.5t14.5 43.5t34.5 12.5q19 0 33.5 -12t14.5 -44q0 -31 -14.5 -43.5t-33.5 -12.5z
M183 635q-20 0 -34 12.5t-14 43.5t14 43.5t34 12.5q19 0 33.5 -12t14.5 -44q0 -31 -14.5 -43.5t-33.5 -12.5z" />
    <glyph glyph-name="Amacron" unicode="&#x100;" horiz-adv-x="623" 
d="M2 0v44h14q16 0 27 6t20.5 22.5t18.5 48.5l189 593h88l191 -620q6 -19 14 -30t20.5 -15.5t29.5 -4.5h9v-44h-256v44h22q24 0 36 10t12 30q0 7 -1 15.5t-3.5 18t-5.5 18.5l-30 103h-218l-27 -95l-4.5 -18t-4.5 -19.5t-2 -18.5q0 -20 12 -32t39 -12h25v-44h-215zM197 291
h184l-53 187q-7 28 -14.5 53.5t-13 48t-9.5 42.5l-10.5 -42t-11.5 -45t-14 -49zM186 779v63h249v-63h-249z" />
    <glyph glyph-name="amacron" unicode="&#x101;" horiz-adv-x="497" 
d="M173 -10q-37 0 -67 17.5t-47.5 53t-17.5 90.5q0 80 48 118t146 42l71 3v59q0 38 -5.5 65t-20.5 42t-46 15q-28 0 -43.5 -13.5t-21 -38t-5.5 -57.5q-44 0 -65.5 15.5t-21.5 47.5q0 33 21.5 54.5t58.5 32.5t84 11q83 0 125 -39.5t42 -133.5v-258q0 -28 5.5 -43.5t17 -22
t31.5 -6.5h2v-44h-135l-15 83h-7q-18 -27 -35.5 -48.5t-40 -33t-58.5 -11.5zM206 48q32 0 54 18.5t34.5 51t12.5 73.5v80l-48 -3q-42 -2 -67 -16.5t-35.5 -41t-10.5 -65.5q0 -30 6.5 -52t20 -33.5t33.5 -11.5zM121 614v63h249v-63h-249z" />
    <glyph glyph-name="Abreve" unicode="&#x102;" horiz-adv-x="623" 
d="M2 0v44h14q16 0 27 6t20.5 22.5t18.5 48.5l189 593h88l191 -620q6 -19 14 -30t20.5 -15.5t29.5 -4.5h9v-44h-256v44h22q24 0 36 10t12 30q0 7 -1 15.5t-3.5 18t-5.5 18.5l-30 103h-218l-27 -95l-4.5 -18t-4.5 -19.5t-2 -18.5q0 -20 12 -32t39 -12h25v-44h-215zM197 291
h184l-53 187q-7 28 -14.5 53.5t-13 48t-9.5 42.5l-10.5 -42t-11.5 -45t-14 -49zM312 771q-43 0 -71 19.5t-42 51.5t-15 69h47q7 -36 28.5 -52t52.5 -16t52 16t29 52h46q0 -37 -14 -69t-42 -51.5t-71 -19.5z" />
    <glyph glyph-name="abreve" unicode="&#x103;" horiz-adv-x="497" 
d="M173 -10q-37 0 -67 17.5t-47.5 53t-17.5 90.5q0 80 48 118t146 42l71 3v59q0 38 -5.5 65t-20.5 42t-46 15q-28 0 -43.5 -13.5t-21 -38t-5.5 -57.5q-44 0 -65.5 15.5t-21.5 47.5q0 33 21.5 54.5t58.5 32.5t84 11q83 0 125 -39.5t42 -133.5v-258q0 -28 5.5 -43.5t17 -22
t31.5 -6.5h2v-44h-135l-15 83h-7q-18 -27 -35.5 -48.5t-40 -33t-58.5 -11.5zM206 48q32 0 54 18.5t34.5 51t12.5 73.5v80l-48 -3q-42 -2 -67 -16.5t-35.5 -41t-10.5 -65.5q0 -30 6.5 -52t20 -33.5t33.5 -11.5zM240 606q-43 0 -71 19.5t-42 51.5t-15 69h47q7 -36 28.5 -52
t52.5 -16t52 16t29 52h46q0 -37 -14 -69t-42 -51.5t-71 -19.5z" />
    <glyph glyph-name="Aogonek" unicode="&#x104;" horiz-adv-x="623" 
d="M2 0v44h14q16 0 27 6t20.5 22.5t18.5 48.5l189 593h88l191 -620q6 -19 14 -30t20.5 -15.5t29.5 -4.5h9v-44h-256v44h22q24 0 36 10t12 30q0 7 -1 15.5t-3.5 18t-5.5 18.5l-30 103h-218l-27 -95l-4.5 -18t-4.5 -19.5t-2 -18.5q0 -20 12 -32t39 -12h25v-44h-215zM197 291
h184l-53 187q-7 28 -14.5 53.5t-13 48t-9.5 42.5l-10.5 -42t-11.5 -45t-14 -49zM530 -235q-55 0 -86 25t-31 80q0 33 14 59.5t36 45t46 25.5h58q-19 -7 -38 -23t-31 -40.5t-12 -56.5q0 -31 16 -45.5t42 -14.5q12 0 25.5 2.5t28.5 7.5v-51q-9 -4 -21 -7.5t-24.5 -5
t-22.5 -1.5z" />
    <glyph glyph-name="aogonek" unicode="&#x105;" horiz-adv-x="497" 
d="M173 -10q-37 0 -67 17.5t-47.5 53t-17.5 90.5q0 80 48 118t146 42l71 3v59q0 38 -5.5 65t-20.5 42t-46 15q-28 0 -43.5 -13.5t-21 -38t-5.5 -57.5q-44 0 -65.5 15.5t-21.5 47.5q0 33 21.5 54.5t58.5 32.5t84 11q83 0 125 -39.5t42 -133.5v-258q0 -28 5.5 -43.5t17 -22
t31.5 -6.5h2v-44h-135l-15 83h-7q-18 -27 -35.5 -48.5t-40 -33t-58.5 -11.5zM206 48q32 0 54 18.5t34.5 51t12.5 73.5v80l-48 -3q-42 -2 -67 -16.5t-35.5 -41t-10.5 -65.5q0 -30 6.5 -52t20 -33.5t33.5 -11.5zM349 -235q-55 0 -86 25t-31 80q0 33 14 59.5t36 45t46 25.5h58
q-19 -7 -38 -23t-31 -40.5t-12 -56.5q0 -31 16 -45.5t42 -14.5q12 0 25.5 2.5t28.5 7.5v-51q-9 -4 -21 -7.5t-24.5 -5t-22.5 -1.5z" />
    <glyph glyph-name="Cacute" unicode="&#x106;" horiz-adv-x="548" 
d="M321 -10q-90 0 -150.5 46t-91.5 128.5t-31 193.5q0 110 32 192t95 128t156 46q61 0 102 -15.5t62 -41.5t21 -57q0 -32 -23.5 -51.5t-63.5 -19.5q0 32 -10 62t-32.5 49t-62.5 19q-57 0 -92.5 -37t-51.5 -107t-16 -167q0 -96 18 -164.5t56.5 -104.5t100.5 -36q43 0 73 13
t51 34t36 45q7 -5 11 -15.5t4 -22.5q0 -18 -11 -38.5t-33.5 -38t-59 -29t-89.5 -11.5zM275 784q14 23 29.5 48.5t29.5 51t22 47.5h111v-10q-8 -13 -25 -32.5t-38.5 -41t-44 -41.5t-41.5 -35h-43v13z" />
    <glyph glyph-name="cacute" unicode="&#x107;" horiz-adv-x="436" 
d="M248 -10q-60 0 -106 27.5t-72 88.5t-26 159q0 108 26.5 169.5t72 87t101.5 25.5q48 0 84 -12.5t55 -35t19 -55.5q0 -23 -8.5 -37.5t-28.5 -21.5t-54 -7q0 32 -6 58.5t-20 42.5t-40 16q-29 0 -51 -20.5t-34 -70t-12 -138.5q0 -70 12.5 -118t38.5 -72.5t66 -24.5
q30 0 53 11t39.5 29t26.5 39q9 -6 13.5 -15.5t4.5 -23.5q0 -22 -15 -45.5t-49 -39.5t-90 -16zM189 619q14 23 29.5 48.5t29.5 51t22 47.5h111v-10q-8 -13 -25 -32.5t-38.5 -41t-44 -41.5t-41.5 -35h-43v13z" />
    <glyph glyph-name="Ccircumflex" unicode="&#x108;" horiz-adv-x="548" 
d="M321 -10q-90 0 -150.5 46t-91.5 128.5t-31 193.5q0 110 32 192t95 128t156 46q61 0 102 -15.5t62 -41.5t21 -57q0 -32 -23.5 -51.5t-63.5 -19.5q0 32 -10 62t-32.5 49t-62.5 19q-57 0 -92.5 -37t-51.5 -107t-16 -167q0 -96 18 -164.5t56.5 -104.5t100.5 -36q43 0 73 13
t51 34t36 45q7 -5 11 -15.5t4 -22.5q0 -18 -11 -38.5t-33.5 -38t-59 -29t-89.5 -11.5zM184 784q14 19 31.5 45t33.5 53t25 49h96q10 -22 25.5 -49t33 -53t30.5 -45v-13h-44q-14 14 -31 30.5t-33 34.5t-29 35q-14 -17 -30 -35t-32.5 -34t-31.5 -31h-44v13z" />
    <glyph glyph-name="ccircumflex" unicode="&#x109;" horiz-adv-x="436" 
d="M248 -10q-60 0 -106 27.5t-72 88.5t-26 159q0 108 26.5 169.5t72 87t101.5 25.5q48 0 84 -12.5t55 -35t19 -55.5q0 -23 -8.5 -37.5t-28.5 -21.5t-54 -7q0 32 -6 58.5t-20 42.5t-40 16q-29 0 -51 -20.5t-34 -70t-12 -138.5q0 -70 12.5 -118t38.5 -72.5t66 -24.5
q30 0 53 11t39.5 29t26.5 39q9 -6 13.5 -15.5t4.5 -23.5q0 -22 -15 -45.5t-49 -39.5t-90 -16zM106 619q14 19 31.5 45t33.5 53t25 49h96q10 -22 25.5 -49t33 -53t30.5 -45v-13h-44q-14 14 -31 30.5t-33 34.5t-29 35q-14 -17 -30 -35t-32.5 -34t-31.5 -31h-44v13z" />
    <glyph glyph-name="Cdotaccent" unicode="&#x10a;" horiz-adv-x="548" 
d="M321 -10q-90 0 -150.5 46t-91.5 128.5t-31 193.5q0 110 32 192t95 128t156 46q61 0 102 -15.5t62 -41.5t21 -57q0 -32 -23.5 -51.5t-63.5 -19.5q0 32 -10 62t-32.5 49t-62.5 19q-57 0 -92.5 -37t-51.5 -107t-16 -167q0 -96 18 -164.5t56.5 -104.5t100.5 -36q43 0 73 13
t51 34t36 45q7 -5 11 -15.5t4 -22.5q0 -18 -11 -38.5t-33.5 -38t-59 -29t-89.5 -11.5zM326 802q-25 0 -42 14t-17 47q0 34 17 47.5t42 13.5q24 0 42 -13.5t18 -47.5q0 -33 -18 -47t-42 -14z" />
    <glyph glyph-name="cdotaccent" unicode="&#x10b;" horiz-adv-x="436" 
d="M248 -10q-60 0 -106 27.5t-72 88.5t-26 159q0 108 26.5 169.5t72 87t101.5 25.5q48 0 84 -12.5t55 -35t19 -55.5q0 -23 -8.5 -37.5t-28.5 -21.5t-54 -7q0 32 -6 58.5t-20 42.5t-40 16q-29 0 -51 -20.5t-34 -70t-12 -138.5q0 -70 12.5 -118t38.5 -72.5t66 -24.5
q30 0 53 11t39.5 29t26.5 39q9 -6 13.5 -15.5t4.5 -23.5q0 -22 -15 -45.5t-49 -39.5t-90 -16zM245 637q-25 0 -42 14t-17 47q0 34 17 47.5t42 13.5q24 0 42 -13.5t18 -47.5q0 -33 -18 -47t-42 -14z" />
    <glyph glyph-name="Ccaron" unicode="&#x10c;" horiz-adv-x="548" 
d="M321 -10q-90 0 -150.5 46t-91.5 128.5t-31 193.5q0 110 32 192t95 128t156 46q61 0 102 -15.5t62 -41.5t21 -57q0 -32 -23.5 -51.5t-63.5 -19.5q0 32 -10 62t-32.5 49t-62.5 19q-57 0 -92.5 -37t-51.5 -107t-16 -167q0 -96 18 -164.5t56.5 -104.5t100.5 -36q43 0 73 13
t51 34t36 45q7 -5 11 -15.5t4 -22.5q0 -18 -11 -38.5t-33.5 -38t-59 -29t-89.5 -11.5zM269 771q-9 23 -25 49.5t-33.5 52.5t-31.5 45v13h44q15 -14 31.5 -30.5t33 -34t29.5 -34.5q13 17 28.5 34.5t32.5 34t32 30.5h44v-13q-13 -19 -30.5 -45t-33 -52.5t-25.5 -49.5h-96z" />
    <glyph glyph-name="ccaron" unicode="&#x10d;" horiz-adv-x="436" 
d="M248 -10q-60 0 -106 27.5t-72 88.5t-26 159q0 108 26.5 169.5t72 87t101.5 25.5q48 0 84 -12.5t55 -35t19 -55.5q0 -23 -8.5 -37.5t-28.5 -21.5t-54 -7q0 32 -6 58.5t-20 42.5t-40 16q-29 0 -51 -20.5t-34 -70t-12 -138.5q0 -70 12.5 -118t38.5 -72.5t66 -24.5
q30 0 53 11t39.5 29t26.5 39q9 -6 13.5 -15.5t4.5 -23.5q0 -22 -15 -45.5t-49 -39.5t-90 -16zM196 606q-9 23 -25 49.5t-33.5 52.5t-31.5 45v13h44q15 -14 31.5 -30.5t33 -34t29.5 -34.5q13 17 28.5 34.5t32.5 34t32 30.5h44v-13q-13 -19 -30.5 -45t-33 -52.5t-25.5 -49.5
h-96z" />
    <glyph glyph-name="Dcaron" unicode="&#x10e;" horiz-adv-x="639" 
d="M29 0v44h22q17 0 30.5 5.5t21 20.5t7.5 43v491q0 28 -8 42t-22 19t-32 5h-19v44h272q91 0 156 -41t99.5 -120t34.5 -193q0 -109 -32.5 -190t-97 -125.5t-160.5 -44.5h-272zM281 53q64 0 107 35.5t64.5 104t21.5 167.5t-21.5 166t-64.5 101.5t-106 34.5h-64v-609h63z
M250 771q-9 23 -25 49.5t-33.5 52.5t-31.5 45v13h44q15 -14 31.5 -30.5t33 -34t29.5 -34.5q13 17 28.5 34.5t32.5 34t32 30.5h44v-13q-13 -19 -30.5 -45t-33 -52.5t-25.5 -49.5h-96z" />
    <glyph glyph-name="dcaron" unicode="&#x10f;" horiz-adv-x="540" 
d="M497 613q5 22 10.5 47t10.5 51t9 49h84v-10q-7 -21 -20 -48t-27.5 -54t-27.5 -48h-39v13zM217 -10q-56 0 -94.5 29t-59 90.5t-20.5 157.5q0 97 20.5 158.5t59.5 91t96 29.5q49 0 79 -23.5t48 -61.5h5q-2 24 -2.5 52t-0.5 56v80q0 30 -10 44t-25.5 18.5t-34.5 4.5h-7v44
h179v-645q0 -29 8.5 -45t24 -21t34.5 -5h8v-44h-157l-14 88h-3q-20 -45 -51.5 -71.5t-82.5 -26.5zM243 51q58 0 81.5 57t23.5 159q0 106 -22.5 162.5t-82.5 56.5q-34 0 -55 -25.5t-30.5 -74.5t-9.5 -120q0 -108 22 -161.5t73 -53.5z" />
    <glyph glyph-name="Dcroat" unicode="&#x110;" horiz-adv-x="639" 
d="M29 0v44h22q17 0 30.5 5.5t21.5 20.5t8 43v235h-78v51h78v205q0 28 -8.5 42t-22.5 19t-32 5h-19v44h272q91 0 156 -41t99.5 -120t34.5 -193q0 -109 -32.5 -190t-97 -125.5t-160.5 -44.5h-272zM281 53q64 0 107 35.5t64.5 104t21.5 167.5t-21.5 166t-64.5 101.5t-106 34.5
h-64v-263h129v-51h-129v-295h63z" />
    <glyph glyph-name="dcroat" unicode="&#x111;" horiz-adv-x="540" 
d="M219 -10q-56 0 -95.5 28.5t-60 87.5t-20.5 150q0 92 20.5 151.5t59.5 88t96 28.5q49 0 79 -23.5t48 -61.5h5q0 3 -0.5 15.5t-1 29t-1 33.5t-0.5 28v47h-141v44h141v13q0 29 -10 43t-25.5 19t-34.5 5h-7v44h179v-124h76v-44h-76v-477q0 -29 8.5 -45t24 -21t34.5 -5h8v-44
h-157l-14 88h-3q-20 -45 -51 -71.5t-81 -26.5zM243 51q40 0 63 25t32.5 71t9.5 109q0 98 -22.5 153.5t-82.5 55.5q-34 0 -55 -24t-30.5 -71t-9.5 -115q0 -101 22 -152.5t73 -51.5z" />
    <glyph glyph-name="Emacron" unicode="&#x112;" horiz-adv-x="546" 
d="M29 0v44h20q19 0 32.5 5t21 19t7.5 40v493q0 30 -8 44.5t-22 19.5t-31 5h-20v44h452l4 -177h-52l-4 44q-2 22 -9.5 40.5t-22.5 29.5t-41 11h-138v-263h205v-51h-205v-296h160q26 0 42 11t25 29.5t12 40.5l5 44h52l-6 -177h-479zM153 779v63h249v-63h-249z" />
    <glyph glyph-name="emacron" unicode="&#x113;" horiz-adv-x="473" 
d="M253 -10q-101 0 -155 72t-54 202q0 141 52.5 212t147.5 71q89 0 139 -61.5t50 -180.5v-43h-285q2 -109 34 -160t93 -51q44 0 73.5 23.5t44.5 54.5q9 -4 16 -12.5t7 -22.5q0 -22 -17 -46t-53 -41t-93 -17zM330 315q-1 81 -20 129.5t-64 48.5t-69.5 -46t-26.5 -132h180z
M123 614v63h249v-63h-249z" />
    <glyph glyph-name="Ebreve" unicode="&#x114;" horiz-adv-x="546" 
d="M29 0v44h20q19 0 32.5 5t21 19t7.5 40v493q0 30 -8 44.5t-22 19.5t-31 5h-20v44h452l4 -177h-52l-4 44q-2 22 -9.5 40.5t-22.5 29.5t-41 11h-138v-263h205v-51h-205v-296h160q26 0 42 11t25 29.5t12 40.5l5 44h52l-6 -177h-479zM276 771q-43 0 -71 19.5t-42 51.5t-15 69
h47q7 -36 28.5 -52t52.5 -16t52 16t29 52h46q0 -37 -14 -69t-42 -51.5t-71 -19.5z" />
    <glyph glyph-name="ebreve" unicode="&#x115;" horiz-adv-x="473" 
d="M253 -10q-101 0 -155 72t-54 202q0 141 52.5 212t147.5 71q89 0 139 -61.5t50 -180.5v-43h-285q2 -109 34 -160t93 -51q44 0 73.5 23.5t44.5 54.5q9 -4 16 -12.5t7 -22.5q0 -22 -17 -46t-53 -41t-93 -17zM330 315q-1 81 -20 129.5t-64 48.5t-69.5 -46t-26.5 -132h180z
M245 606q-43 0 -71 19.5t-42 51.5t-15 69h47q7 -36 28.5 -52t52.5 -16t52 16t29 52h46q0 -37 -14 -69t-42 -51.5t-71 -19.5z" />
    <glyph glyph-name="Edotaccent" unicode="&#x116;" horiz-adv-x="546" 
d="M29 0v44h20q19 0 32.5 5t21 19t7.5 40v493q0 30 -8 44.5t-22 19.5t-31 5h-20v44h452l4 -177h-52l-4 44q-2 22 -9.5 40.5t-22.5 29.5t-41 11h-138v-263h205v-51h-205v-296h160q26 0 42 11t25 29.5t12 40.5l5 44h52l-6 -177h-479zM280 788q-25 0 -42 14t-17 47
q0 34 17 47.5t42 13.5q24 0 42 -13.5t18 -47.5q0 -33 -18 -47t-42 -14z" />
    <glyph glyph-name="edotaccent" unicode="&#x117;" horiz-adv-x="473" 
d="M253 -10q-101 0 -155 72t-54 202q0 141 52.5 212t147.5 71q89 0 139 -61.5t50 -180.5v-43h-285q2 -109 34 -160t93 -51q44 0 73.5 23.5t44.5 54.5q9 -4 16 -12.5t7 -22.5q0 -22 -17 -46t-53 -41t-93 -17zM330 315q-1 81 -20 129.5t-64 48.5t-69.5 -46t-26.5 -132h180z
M244 637q-25 0 -42 14t-17 47q0 34 17 47.5t42 13.5q24 0 42 -13.5t18 -47.5q0 -33 -18 -47t-42 -14z" />
    <glyph glyph-name="Eogonek" unicode="&#x118;" horiz-adv-x="546" 
d="M29 0v44h20q19 0 32.5 5t21 19t7.5 40v493q0 30 -8 44.5t-22 19.5t-31 5h-20v44h452l4 -177h-52l-4 44q-2 22 -9.5 40.5t-22.5 29.5t-41 11h-138v-263h205v-51h-205v-296h160q26 0 42 11t25 29.5t12 40.5l5 44h52l-6 -177h-479zM416 -240q-59 0 -90.5 26.5t-31.5 83.5
q0 31 14 58t37 46t50 26h56q-18 -6 -36.5 -21.5t-31 -38.5t-12.5 -55t17 -46.5t43 -14.5q11 0 24.5 2t29.5 6v-56q-9 -5 -22 -8.5t-25.5 -5.5t-21.5 -2z" />
    <glyph glyph-name="eogonek" unicode="&#x119;" horiz-adv-x="473" 
d="M322 -233q-56 0 -87 25t-31 80q0 39 21 70.5t49 48.5q-5 0 -10 -0.5t-11 -0.5q-100 0 -154.5 72t-54.5 202q0 141 52.5 212t147.5 71q89 0 139 -61.5t50 -180.5v-43h-285q2 -109 34 -160t91 -51q45 0 75 23t45 55q9 -5 15 -14t6 -23q0 -15 -7.5 -30.5t-21.5 -29
t-35 -23.5q-23 -16 -39 -35t-25 -41t-9 -51q0 -31 16 -45.5t42 -14.5q13 0 26 2.5t28 7.5v-51q-8 -4 -20.5 -7.5t-25 -5t-21.5 -1.5zM330 315q-1 81 -20 129.5t-64 48.5t-69.5 -46t-26.5 -132h180z" />
    <glyph glyph-name="Ecaron" unicode="&#x11a;" horiz-adv-x="546" 
d="M29 0v44h20q19 0 32.5 5t21 19t7.5 40v493q0 30 -8 44.5t-22 19.5t-31 5h-20v44h452l4 -177h-52l-4 44q-2 22 -9.5 40.5t-22.5 29.5t-41 11h-138v-263h205v-51h-205v-296h160q26 0 42 11t25 29.5t12 40.5l5 44h52l-6 -177h-479zM227 771q-9 23 -25 49.5t-33.5 52.5
t-31.5 45v13h44q15 -14 31.5 -30.5t33 -34t29.5 -34.5q13 17 28.5 34.5t32.5 34t32 30.5h44v-13q-13 -19 -30.5 -45t-33 -52.5t-25.5 -49.5h-96z" />
    <glyph glyph-name="ecaron" unicode="&#x11b;" horiz-adv-x="473" 
d="M253 -10q-101 0 -155 72t-54 202q0 141 52.5 212t147.5 71q89 0 139 -61.5t50 -180.5v-43h-285q2 -109 34 -160t93 -51q44 0 73.5 23.5t44.5 54.5q9 -4 16 -12.5t7 -22.5q0 -22 -17 -46t-53 -41t-93 -17zM330 315q-1 81 -20 129.5t-64 48.5t-69.5 -46t-26.5 -132h180z
M194 606q-9 23 -25 49.5t-33.5 52.5t-31.5 45v13h44q15 -14 31.5 -30.5t33 -34t29.5 -34.5q13 17 28.5 34.5t32.5 34t32 30.5h44v-13q-13 -19 -30.5 -45t-33 -52.5t-25.5 -49.5h-96z" />
    <glyph glyph-name="Gcircumflex" unicode="&#x11c;" horiz-adv-x="633" 
d="M353 -10q-103 0 -170.5 46t-101 128.5t-33.5 193.5q0 108 35 190.5t103.5 129t170.5 46.5q65 0 109.5 -14.5t67.5 -40t23 -57.5q0 -33 -23.5 -53t-65.5 -20q0 32 -11.5 62t-36.5 49t-66 19q-66 0 -108 -35t-61.5 -104t-19.5 -172q0 -100 19.5 -169.5t63.5 -105.5t118 -36
q20 0 40.5 2.5t37.5 8.5v161q0 29 -8 43.5t-22 19.5t-34 5h-9v44h239v-44h-6q-17 0 -28.5 -5t-18 -20.5t-6.5 -46.5v-178q-45 -23 -93 -35t-105 -12zM206 784q14 19 31.5 45t33.5 53t25 49h96q10 -22 25.5 -49t33 -53t30.5 -45v-13h-44q-14 14 -31 30.5t-33 34.5t-29 35
q-14 -17 -30 -35t-32.5 -34t-31.5 -31h-44v13z" />
    <glyph glyph-name="gcircumflex" unicode="&#x11d;" horiz-adv-x="470" 
d="M200 -238q-94 0 -141 38t-47 105q0 39 15 66t40.5 43t54.5 22q-20 9 -37.5 27.5t-17.5 51.5q0 31 18.5 53.5t47.5 41.5q-38 18 -61.5 59t-23.5 93q0 86 43 135.5t130 49.5q32 0 58 -9.5t43 -23.5q10 10 22.5 23.5t29 23t36.5 9.5q26 0 39.5 -16t13.5 -37
q0 -22 -11.5 -38.5t-38.5 -16.5q0 17 -8.5 28.5t-21.5 11.5q-11 0 -19 -3.5t-16 -10.5q17 -20 28.5 -48.5t11.5 -73.5q0 -76 -41 -125.5t-126 -49.5q-11 0 -26 1.5t-24 4.5q-12 -9 -23 -24t-11 -37t13.5 -31.5t40.5 -9.5h94q54 0 87.5 -19.5t49 -52.5t15.5 -74
q0 -87 -58 -137t-179 -50zM202 -188q57 0 90 15.5t47 42t14 59.5q0 43 -20.5 60t-59.5 17h-91q-21 0 -41 -8t-33 -28.5t-13 -58.5q0 -29 11.5 -51t35 -35t60.5 -13zM219 240q28 0 44.5 13.5t23.5 41.5t7 70q0 44 -7.5 73.5t-24 44t-44.5 14.5q-27 0 -43.5 -15t-24 -44.5
t-7.5 -73.5q0 -61 17.5 -92.5t58.5 -31.5zM85 619q14 19 31.5 45t33.5 53t25 49h96q10 -22 25.5 -49t33 -53t30.5 -45v-13h-44q-14 14 -31 30.5t-33 34.5t-29 35q-14 -17 -30 -35t-32.5 -34t-31.5 -31h-44v13z" />
    <glyph glyph-name="Gbreve" unicode="&#x11e;" horiz-adv-x="633" 
d="M353 -10q-103 0 -170.5 46t-101 128.5t-33.5 193.5q0 108 35 190.5t103.5 129t170.5 46.5q65 0 109.5 -14.5t67.5 -40t23 -57.5q0 -33 -23.5 -53t-65.5 -20q0 32 -11.5 62t-36.5 49t-66 19q-66 0 -108 -35t-61.5 -104t-19.5 -172q0 -100 19.5 -169.5t63.5 -105.5t118 -36
q20 0 40.5 2.5t37.5 8.5v161q0 29 -8 43.5t-22 19.5t-34 5h-9v44h239v-44h-6q-17 0 -28.5 -5t-18 -20.5t-6.5 -46.5v-178q-45 -23 -93 -35t-105 -12zM344 771q-43 0 -71 19.5t-42 51.5t-15 69h47q7 -36 28.5 -52t52.5 -16t52 16t29 52h46q0 -37 -14 -69t-42 -51.5t-71 -19.5
z" />
    <glyph glyph-name="gbreve" unicode="&#x11f;" horiz-adv-x="470" 
d="M200 -238q-94 0 -141 38t-47 105q0 39 15 66t40.5 43t54.5 22q-20 9 -37.5 27.5t-17.5 51.5q0 31 18.5 53.5t47.5 41.5q-38 18 -61.5 59t-23.5 93q0 86 43 135.5t130 49.5q32 0 58 -9.5t43 -23.5q10 10 22.5 23.5t29 23t36.5 9.5q26 0 39.5 -16t13.5 -37
q0 -22 -11.5 -38.5t-38.5 -16.5q0 17 -8.5 28.5t-21.5 11.5q-11 0 -19 -3.5t-16 -10.5q17 -20 28.5 -48.5t11.5 -73.5q0 -76 -41 -125.5t-126 -49.5q-11 0 -26 1.5t-24 4.5q-12 -9 -23 -24t-11 -37t13.5 -31.5t40.5 -9.5h94q54 0 87.5 -19.5t49 -52.5t15.5 -74
q0 -87 -58 -137t-179 -50zM202 -188q57 0 90 15.5t47 42t14 59.5q0 43 -20.5 60t-59.5 17h-91q-21 0 -41 -8t-33 -28.5t-13 -58.5q0 -29 11.5 -51t35 -35t60.5 -13zM219 240q28 0 44.5 13.5t23.5 41.5t7 70q0 44 -7.5 73.5t-24 44t-44.5 14.5q-27 0 -43.5 -15t-24 -44.5
t-7.5 -73.5q0 -61 17.5 -92.5t58.5 -31.5zM220 606q-43 0 -71 19.5t-42 51.5t-15 69h47q7 -36 28.5 -52t52.5 -16t52 16t29 52h46q0 -37 -14 -69t-42 -51.5t-71 -19.5z" />
    <glyph glyph-name="Gdotaccent" unicode="&#x120;" horiz-adv-x="633" 
d="M353 -10q-103 0 -170.5 46t-101 128.5t-33.5 193.5q0 108 35 190.5t103.5 129t170.5 46.5q65 0 109.5 -14.5t67.5 -40t23 -57.5q0 -33 -23.5 -53t-65.5 -20q0 32 -11.5 62t-36.5 49t-66 19q-66 0 -108 -35t-61.5 -104t-19.5 -172q0 -100 19.5 -169.5t63.5 -105.5t118 -36
q20 0 40.5 2.5t37.5 8.5v161q0 29 -8 43.5t-22 19.5t-34 5h-9v44h239v-44h-6q-17 0 -28.5 -5t-18 -20.5t-6.5 -46.5v-178q-45 -23 -93 -35t-105 -12zM348 802q-25 0 -42 14t-17 47q0 34 17 47.5t42 13.5q24 0 42 -13.5t18 -47.5q0 -33 -18 -47t-42 -14z" />
    <glyph glyph-name="gdotaccent" unicode="&#x121;" horiz-adv-x="470" 
d="M200 -238q-94 0 -141 38t-47 105q0 39 15 66t40.5 43t54.5 22q-20 9 -37.5 27.5t-17.5 51.5q0 31 18.5 53.5t47.5 41.5q-38 18 -61.5 59t-23.5 93q0 86 43 135.5t130 49.5q32 0 58 -9.5t43 -23.5q10 10 22.5 23.5t29 23t36.5 9.5q26 0 39.5 -16t13.5 -37
q0 -22 -11.5 -38.5t-38.5 -16.5q0 17 -8.5 28.5t-21.5 11.5q-11 0 -19 -3.5t-16 -10.5q17 -20 28.5 -48.5t11.5 -73.5q0 -76 -41 -125.5t-126 -49.5q-11 0 -26 1.5t-24 4.5q-12 -9 -23 -24t-11 -37t13.5 -31.5t40.5 -9.5h94q54 0 87.5 -19.5t49 -52.5t15.5 -74
q0 -87 -58 -137t-179 -50zM202 -188q57 0 90 15.5t47 42t14 59.5q0 43 -20.5 60t-59.5 17h-91q-21 0 -41 -8t-33 -28.5t-13 -58.5q0 -29 11.5 -51t35 -35t60.5 -13zM219 240q28 0 44.5 13.5t23.5 41.5t7 70q0 44 -7.5 73.5t-24 44t-44.5 14.5q-27 0 -43.5 -15t-24 -44.5
t-7.5 -73.5q0 -61 17.5 -92.5t58.5 -31.5zM219 637q-25 0 -42 14t-17 47q0 34 17 47.5t42 13.5q24 0 42 -13.5t18 -47.5q0 -33 -18 -47t-42 -14z" />
    <glyph glyph-name="uni0122" unicode="&#x122;" horiz-adv-x="633" 
d="M353 -10q-103 0 -170.5 46t-101 128.5t-33.5 193.5q0 108 35 190.5t103.5 129t170.5 46.5q65 0 109.5 -14.5t67.5 -40t23 -57.5q0 -33 -23.5 -53t-65.5 -20q0 32 -11.5 62t-36.5 49t-66 19q-66 0 -108 -35t-61.5 -104t-19.5 -172q0 -100 19.5 -169.5t63.5 -105.5t118 -36
q20 0 40.5 2.5t37.5 8.5v161q0 29 -8 43.5t-22 19.5t-34 5h-9v44h239v-44h-6q-17 0 -28.5 -5t-18 -20.5t-6.5 -46.5v-178q-45 -23 -93 -35t-105 -12zM272 -208q6 22 11.5 47t10.5 51t8 49h87v-10q-7 -21 -20 -48t-28 -54t-28 -48h-41v13z" />
    <glyph glyph-name="uni0123" unicode="&#x123;" horiz-adv-x="470" 
d="M179 616q7 21 20 48t28 54t27 48h44v-13q-5 -21 -10 -46.5l-10 -51t-9 -49.5h-90v10zM200 -238q-94 0 -141 38t-47 105q0 39 15 66t40.5 43t54.5 22q-20 9 -37.5 27.5t-17.5 51.5q0 31 18.5 53.5t47.5 41.5q-38 18 -61.5 59t-23.5 93q0 86 43 135.5t130 49.5
q32 0 58 -9.5t43 -23.5q10 10 22.5 23.5t29 23t36.5 9.5q26 0 39.5 -16t13.5 -37q0 -22 -11.5 -38.5t-38.5 -16.5q0 17 -8.5 28.5t-21.5 11.5q-11 0 -19 -3.5t-16 -10.5q17 -20 28.5 -48.5t11.5 -73.5q0 -76 -41 -125.5t-126 -49.5q-11 0 -26 1.5t-24 4.5q-12 -9 -23 -24
t-11 -37t13.5 -31.5t40.5 -9.5h94q54 0 87.5 -19.5t49 -52.5t15.5 -74q0 -87 -58 -137t-179 -50zM202 -188q57 0 90 15.5t47 42t14 59.5q0 43 -20.5 60t-59.5 17h-91q-21 0 -41 -8t-33 -28.5t-13 -58.5q0 -29 11.5 -51t35 -35t60.5 -13zM219 240q28 0 44.5 13.5t23.5 41.5
t7 70q0 44 -7.5 73.5t-24 44t-44.5 14.5q-27 0 -43.5 -15t-24 -44.5t-7.5 -73.5q0 -61 17.5 -92.5t58.5 -31.5z" />
    <glyph glyph-name="Hcircumflex" unicode="&#x124;" horiz-adv-x="690" 
d="M29 0v44h22q17 0 30.5 5.5t21 20t7.5 42.5v492q0 28 -8 42t-22.5 19t-32.5 5h-18v44h264v-44h-16q-18 0 -31 -5t-20 -19.5t-7 -42.5v-204h254v203q0 29 -7.5 43.5t-21 19.5t-31.5 5h-15v44h264v-44h-22q-17 0 -30.5 -5t-21 -19.5t-7.5 -43.5v-493q0 -27 7.5 -41t21 -19
t30.5 -5h22v-44h-264v44h15q18 0 31.5 5.5t21 20.5t7.5 43v234h-254v-235q0 -28 7 -42.5t20 -20t31 -5.5h16v-44h-264zM207 784q14 19 31.5 45t33.5 53t25 49h96q10 -22 25.5 -49t33 -53t30.5 -45v-13h-44q-14 14 -31 30.5t-33 34.5t-29 35q-14 -17 -30 -35t-32.5 -34
t-31.5 -31h-44v13z" />
    <glyph glyph-name="hcircumflex" unicode="&#x125;" horiz-adv-x="557" 
d="M16 0v44h6q19 0 34 5t24 20.5t9 45.5v535q0 29 -9.5 43t-25 18.5t-31.5 4.5h-8v44h177v-215q0 -18 -1 -36t-2 -32.5t-1 -19.5h5q11 25 28.5 45.5t42.5 32.5t60 12q71 0 108 -47t37 -149v-235q0 -31 7.5 -46.5t21.5 -20.5t33 -5h2v-44h-167v342q0 65 -18.5 101t-64.5 36
q-32 0 -52.5 -20.5t-29.5 -56.5t-9 -84v-207q0 -30 8.5 -44t23.5 -18.5t34 -4.5h2v-44h-244zM80 811q14 19 31.5 45t33.5 53t25 49h96q10 -22 25.5 -49t33 -53t30.5 -45v-13h-44q-14 14 -31 30.5t-33 34.5t-29 35q-14 -17 -30 -35t-32.5 -34t-31.5 -31h-44v13z" />
    <glyph glyph-name="Hbar" unicode="&#x126;" horiz-adv-x="691" 
d="M29 0v44h22q17 0 30.5 5.5t21 20t7.5 42.5v389h-85v47h85v56q0 28 -8 42t-22.5 19t-32.5 5h-18v44h264v-44h-16q-18 0 -31 -5t-20 -19.5t-7 -42.5v-55h254v54q0 29 -7.5 43.5t-21 19.5t-31.5 5h-15v44h264v-44h-22q-17 0 -30.5 -5t-21 -19.5t-7.5 -43.5v-54h84v-47h-84
v-392q0 -27 7.5 -41t21 -19t30.5 -5h22v-44h-264v44h15q18 0 31.5 5.5t21 20.5t7.5 43v234h-254v-235q0 -28 7 -42.5t20 -20t31 -5.5h16v-44h-264zM219 399h254v102h-254v-102z" />
    <glyph glyph-name="hbar" unicode="&#x127;" horiz-adv-x="557" 
d="M16 0v44h6q19 0 34.5 5t24 20t8.5 46v477h-76v44h76v14q0 29 -9.5 43t-24.5 18.5t-32 4.5h-8v44h177v-124h141v-44h-141v-79q0 -15 -0.5 -31.5t-1 -29t-0.5 -17.5h4q10 25 28 45t43 32t58 12q71 0 108.5 -46.5t37.5 -149.5v-212q0 -31 7 -46.5t21.5 -20.5t33.5 -5h3v-44
h-168v320q0 65 -18.5 101t-64.5 36q-32 0 -52.5 -20.5t-29.5 -56.5t-9 -84v-186q0 -29 9 -43t24 -18.5t33 -4.5h3v-44h-245z" />
    <glyph glyph-name="Itilde" unicode="&#x128;" horiz-adv-x="327" 
d="M29 0v44h22q16 0 29.5 5t21.5 19.5t8 42.5v490q0 29 -8 43.5t-21.5 20t-29.5 5.5h-22v44h270v-44h-22q-17 0 -30.5 -5.5t-21 -20t-7.5 -43.5v-489q0 -28 7.5 -42.5t21.5 -20t30 -5.5h22v-44h-270zM226 771q-23 0 -42 9.5t-34.5 22t-30 22t-29.5 9.5q-21 0 -30 -16.5
t-11 -36.5h-47q2 32 13.5 60t33 45.5t52.5 17.5q22 0 40.5 -9.5t34.5 -22t30.5 -22t28.5 -9.5q21 0 30.5 16.5t11.5 36.5h46q-2 -32 -13.5 -60t-32.5 -45.5t-51 -17.5z" />
    <glyph glyph-name="itilde" unicode="&#x129;" horiz-adv-x="287" 
d="M17 0v44h11q20 0 34.5 5t23.5 20t9 44v310q0 29 -8.5 44t-22.5 20t-33 5h-9v44h175v-419q0 -31 8 -46.5t23.5 -21t34.5 -5.5h11v-44h-257zM202 606q-23 0 -42 9.5t-34.5 22t-30 22t-29.5 9.5q-21 0 -30 -16.5t-11 -36.5h-47q2 32 13.5 60t33 45.5t52.5 17.5
q22 0 40.5 -9.5t34.5 -22t30.5 -22t28.5 -9.5q21 0 30.5 16.5t11.5 36.5h46q-2 -32 -13.5 -60t-32.5 -45.5t-51 -17.5z" />
    <glyph glyph-name="Imacron" unicode="&#x12a;" horiz-adv-x="327" 
d="M29 0v44h22q16 0 29.5 5t21.5 19.5t8 42.5v490q0 29 -8 43.5t-21.5 20t-29.5 5.5h-22v44h270v-44h-22q-17 0 -30.5 -5.5t-21 -20t-7.5 -43.5v-489q0 -28 7.5 -42.5t21.5 -20t30 -5.5h22v-44h-270zM38 779v63h249v-63h-249z" />
    <glyph glyph-name="imacron" unicode="&#x12b;" horiz-adv-x="287" 
d="M17 0v44h11q20 0 34.5 5t23.5 20t9 44v310q0 29 -8.5 44t-22.5 20t-33 5h-9v44h175v-419q0 -31 8 -46.5t23.5 -21t34.5 -5.5h11v-44h-257zM6 614v63h249v-63h-249z" />
    <glyph glyph-name="Ibreve" unicode="&#x12c;" horiz-adv-x="327" 
d="M29 0v44h22q16 0 29.5 5t21.5 19.5t8 42.5v490q0 29 -8 43.5t-21.5 20t-29.5 5.5h-22v44h270v-44h-22q-17 0 -30.5 -5.5t-21 -20t-7.5 -43.5v-489q0 -28 7.5 -42.5t21.5 -20t30 -5.5h22v-44h-270zM163 771q-43 0 -71 19.5t-42 51.5t-15 69h47q7 -36 28.5 -52t52.5 -16
t52 16t29 52h46q0 -37 -14 -69t-42 -51.5t-71 -19.5z" />
    <glyph glyph-name="ibreve" unicode="&#x12d;" horiz-adv-x="287" 
d="M17 0v44h11q20 0 34.5 5t23.5 20t9 44v310q0 29 -8.5 44t-22.5 20t-33 5h-9v44h175v-419q0 -31 8 -46.5t23.5 -21t34.5 -5.5h11v-44h-257zM136 606q-43 0 -71 19.5t-42 51.5t-15 69h47q7 -36 28.5 -52t52.5 -16t52 16t29 52h46q0 -37 -14 -69t-42 -51.5t-71 -19.5z" />
    <glyph glyph-name="Iogonek" unicode="&#x12e;" horiz-adv-x="327" 
d="M29 0v44h22q16 0 29.5 5t21.5 19.5t8 42.5v490q0 29 -8 43.5t-21.5 20t-29.5 5.5h-22v44h270v-44h-22q-17 0 -30.5 -5.5t-21 -20t-7.5 -43.5v-489q0 -28 7.5 -42.5t21.5 -20t30 -5.5h22v-44h-270zM204 -240q-59 0 -90.5 26.5t-31.5 83.5q0 31 14 58t37 46t50 26h56
q-18 -6 -36.5 -21.5t-31 -38.5t-12.5 -55t17 -46.5t43 -14.5q11 0 24.5 2t29.5 6v-56q-9 -5 -22 -8.5t-25.5 -5.5t-21.5 -2z" />
    <glyph glyph-name="iogonek" unicode="&#x12f;" horiz-adv-x="287" 
d="M17 0v44h11q20 0 34.5 5t23.5 20t9 44v310q0 29 -8.5 44t-22.5 20t-33 5h-9v44h175v-419q0 -31 8 -46.5t23.5 -21t34.5 -5.5h11v-44h-257zM142 637q-26 0 -42.5 14t-16.5 47q0 34 16.5 47.5t42.5 13.5q25 0 42.5 -13.5t17.5 -47.5q0 -33 -17.5 -47t-42.5 -14zM181 -240
q-59 0 -90.5 26.5t-31.5 83.5q0 31 14 58t37 46t50 26h56q-18 -6 -36.5 -21.5t-31 -38.5t-12.5 -55t17 -46.5t43 -14.5q11 0 24.5 2t29.5 6v-56q-9 -5 -22 -8.5t-25.5 -5.5t-21.5 -2z" />
    <glyph glyph-name="Idotaccent" unicode="&#x130;" horiz-adv-x="327" 
d="M29 0v44h22q16 0 29.5 5t21.5 19.5t8 42.5v490q0 29 -8 43.5t-21.5 20t-29.5 5.5h-22v44h270v-44h-22q-17 0 -30.5 -5.5t-21 -20t-7.5 -43.5v-489q0 -28 7.5 -42.5t21.5 -20t30 -5.5h22v-44h-270zM162 802q-25 0 -42 14t-17 47q0 34 17 47.5t42 13.5q24 0 42 -13.5
t18 -47.5q0 -33 -18 -47t-42 -14z" />
    <glyph glyph-name="dotlessi" unicode="&#x131;" horiz-adv-x="287" 
d="M17 0v44h11q20 0 34.5 5t23.5 20t9 44v310q0 29 -8.5 44t-22.5 20t-33 5h-9v44h175v-419q0 -31 8 -46.5t23.5 -21t34.5 -5.5h11v-44h-257z" />
    <glyph glyph-name="IJ" unicode="&#x132;" horiz-adv-x="652" 
d="M29 0v44h22q16 0 29.5 5t21.5 19.5t8 42.5v490q0 29 -8 43.5t-21.5 20t-29.5 5.5h-22v44h270v-44h-22q-17 0 -30.5 -5.5t-21 -20t-7.5 -43.5v-489q0 -28 7.5 -42.5t21.5 -20t30 -5.5h22v-44h-270zM316 -240v49h11q33 0 58.5 16.5t40 57t14.5 109.5v613q0 27 -8 41
t-21.5 19t-29.5 5h-21v44h269v-44h-21q-16 0 -30 -5.5t-22 -20t-8 -43.5v-608q0 -67 -17 -112t-46 -71.5t-66.5 -38t-80.5 -11.5h-22z" />
    <glyph glyph-name="ij" unicode="&#x133;" horiz-adv-x="568" 
d="M17 0v44h11q20 0 34.5 5t23.5 20t9 44v310q0 29 -8.5 44t-22.5 20t-33 5h-9v44h175v-419q0 -31 8 -46.5t23.5 -21t34.5 -5.5h11v-44h-257zM142 637q-26 0 -42.5 14t-16.5 47q0 34 16.5 47.5t42.5 13.5q25 0 42.5 -13.5t17.5 -47.5q0 -33 -17.5 -47t-42.5 -14zM279 -240
v50h5q31 0 53 16t33.5 56t11.5 111v431q0 30 -9 44.5t-24 19t-34 4.5h-6v44h175v-544q0 -89 -24.5 -140t-67 -71.5t-99.5 -20.5h-14zM429 637q-25 0 -42.5 14t-17.5 47q0 34 17.5 47.5t42.5 13.5q24 0 42 -13.5t18 -47.5q0 -33 -18 -47t-42 -14z" />
    <glyph glyph-name="Jcircumflex" unicode="&#x134;" horiz-adv-x="324" 
d="M-11 -240v49h11q33 0 58.5 16.5t40 57t14.5 109.5v613q0 27 -8 41t-21.5 19t-29.5 5h-21v44h269v-44h-21q-16 0 -30 -5.5t-22 -20t-8 -43.5v-608q0 -67 -17 -112t-46 -71.5t-66.5 -38t-80.5 -11.5h-22zM28 784q14 19 31.5 45t33.5 53t25 49h96q10 -22 25.5 -49t33 -53
t30.5 -45v-13h-44q-14 14 -31 30.5t-33 34.5t-29 35q-14 -17 -30 -35t-32.5 -34t-31.5 -31h-44v13z" />
    <glyph glyph-name="jcircumflex" unicode="&#x135;" horiz-adv-x="280" 
d="M-8 -240v50h5q31 0 53 16t33.5 56t11.5 111v431q0 30 -9 44.5t-24 19t-34 4.5h-6v44h175v-544q0 -89 -24.5 -140t-67 -71.5t-99.5 -20.5h-14zM-14 619q14 19 31.5 45t33.5 53t25 49h96q10 -22 25.5 -49t33 -53t30.5 -45v-13h-44q-14 14 -31 30.5t-33 34.5t-29 35
q-14 -17 -30 -35t-32.5 -34t-31.5 -31h-44v13z" />
    <glyph glyph-name="uni0136" unicode="&#x136;" horiz-adv-x="617" 
d="M29 0v44h21q17 0 30.5 4.5t21.5 18.5t8 42v496q0 28 -8 42t-21 18.5t-30 4.5h-22v44h267v-44h-20q-17 0 -30 -5t-20.5 -19.5t-7.5 -44.5v-279l161 229q19 25 29.5 43t15.5 31t5 23q0 14 -10.5 18.5t-35.5 4.5v43h207v-43q-21 0 -40 -10.5t-38 -31t-41 -49.5l-121 -162
l177 -293q16 -28 31.5 -45.5t31 -26.5t31.5 -9h3v-44h-33q-41 0 -68 4.5t-45.5 16t-33 30.5t-30.5 48l-135 239l-61 -76v-149q0 -30 8 -44.5t21 -19.5t31 -5h18v-44h-267zM265 -208q6 22 11.5 47t10.5 51t8 49h87v-10q-7 -21 -20 -48t-28 -54t-28 -48h-41v13z" />
    <glyph glyph-name="uni0137" unicode="&#x137;" horiz-adv-x="521" 
d="M15 0v44h9q16 0 31 5t25 20t10 45v536q0 29 -10 43t-25 18.5t-31 4.5h-9v44h177v-385q0 -13 -0.5 -33t-1.5 -40t-1.5 -34.5t-0.5 -16.5l107 140q17 21 25.5 35.5t11.5 25t3 17.5q0 13 -10.5 18.5t-32.5 5.5v43h199v-43q-15 0 -29.5 -6t-29 -18t-30 -29t-32.5 -39l-54 -73
l113 -200q23 -40 43.5 -62t45.5 -22h4v-44h-12q-42 0 -69.5 3.5t-46.5 13.5t-34.5 31t-33.5 54l-81 155l-53 -62v-84q0 -29 10 -43.5t25.5 -19t30.5 -4.5h6v-44h-249zM214 -208q6 22 11.5 47t10.5 51t8 49h87v-10q-7 -21 -20 -48t-28 -54t-28 -48h-41v13z" />
    <glyph glyph-name="kgreenlandic" unicode="&#x138;" horiz-adv-x="521" 
d="M15 0v44h9q16 0 31 5t25 20t10 46v311q0 29 -10 43t-25 18.5t-31 4.5h-9v44h177v-162q0 -13 -0.5 -34t-1.5 -41t-1.5 -34l-0.5 -14l107 140q17 21 25.5 35.5t11.5 25t3 17.5q0 13 -10.5 18.5t-32.5 5.5v43h199v-43q-20 0 -39 -11t-39 -31t-43 -50l-57 -76l114 -199
q22 -40 44.5 -61t47.5 -21h3v-44h-13q-41 0 -69 3t-47 12t-35 28.5t-33 52.5l-84 157l-49 -58v-84q0 -29 10 -43.5t25.5 -19t30.5 -4.5h6v-44h-249z" />
    <glyph glyph-name="Lacute" unicode="&#x139;" horiz-adv-x="545" 
d="M29 0v44h22q16 0 29.5 5t21.5 19.5t8 42.5v491q0 29 -8 43.5t-22 19.5t-32 5h-19v44h270v-44h-20q-19 0 -33 -5t-21 -19t-7 -41v-553h165q24 0 39 11t24 31.5t12 46.5l11 75h45l-6 -216h-479zM131 784q14 23 29.5 48.5t29.5 51t22 47.5h111v-10q-8 -13 -25 -32.5
t-38.5 -41t-44 -41.5t-41.5 -35h-43v13z" />
    <glyph glyph-name="lacute" unicode="&#x13a;" horiz-adv-x="281" 
d="M12 0v44h12q19 0 34 5.5t23 21t8 46.5v533q0 29 -9.5 43t-25 18.5t-31.5 4.5h-11v44h180v-643q0 -31 8 -46.5t23.5 -21t34.5 -5.5h10v-44h-256zM89 812q14 23 29.5 48.5t29.5 51t22 47.5h111v-10q-8 -13 -25 -32.5t-38.5 -41t-44 -41.5t-41.5 -35h-43v13z" />
    <glyph glyph-name="uni013B" unicode="&#x13b;" horiz-adv-x="545" 
d="M29 0v44h22q16 0 29.5 5t21.5 19.5t8 42.5v491q0 29 -8 43.5t-22 19.5t-32 5h-19v44h270v-44h-20q-19 0 -33 -5t-21 -19t-7 -41v-553h165q24 0 39 11t24 31.5t12 46.5l11 75h45l-6 -216h-479zM216 -208q6 22 11.5 47t10.5 51t8 49h87v-10q-7 -21 -20 -48t-28 -54t-28 -48
h-41v13z" />
    <glyph glyph-name="uni013C" unicode="&#x13c;" horiz-adv-x="281" 
d="M12 0v44h12q19 0 34 5.5t23 21t8 46.5v533q0 29 -9.5 43t-25 18.5t-31.5 4.5h-11v44h180v-643q0 -31 8 -46.5t23.5 -21t34.5 -5.5h10v-44h-256zM70 -208q6 22 11.5 47t10.5 51t8 49h87v-10q-7 -21 -20 -48t-28 -54t-28 -48h-41v13z" />
    <glyph glyph-name="Lcaron" unicode="&#x13d;" horiz-adv-x="545" 
d="M372 567q6 22 11.5 47t10.5 51t8 49h85v-10q-7 -21 -20 -48t-27.5 -54t-27.5 -48h-40v13zM29 0v44h22q16 0 29.5 5t21.5 19.5t8 42.5v491q0 29 -8 43.5t-22 19.5t-32 5h-19v44h270v-44h-20q-19 0 -33 -5t-21 -19t-7 -41v-553h165q24 0 39 11t24 31.5t12 46.5l11 75h45
l-6 -216h-479z" />
    <glyph glyph-name="lcaron" unicode="&#x13e;" horiz-adv-x="281" 
d="M239 613q5 22 10.5 47t10.5 51t8 49h85v-10q-8 -21 -20.5 -48t-27 -54t-27.5 -48h-39v13zM12 0v44h12q19 0 34 5.5t23 21t8 46.5v533q0 29 -9.5 43t-25 18.5t-31.5 4.5h-11v44h180v-643q0 -31 8 -46.5t23.5 -21t34.5 -5.5h10v-44h-256z" />
    <glyph glyph-name="Ldot" unicode="&#x13f;" horiz-adv-x="545" 
d="M29 0v44h22q16 0 29.5 5t21.5 19.5t8 42.5v491q0 29 -8 43.5t-22 19.5t-32 5h-19v44h270v-44h-20q-19 0 -33 -5t-21 -19t-7 -41v-553h165q24 0 39 11t24 31.5t12 46.5l11 75h45l-6 -216h-479zM430 320q-25 0 -42 14t-17 47q0 34 17 47.5t42 13.5q24 0 42 -13.5t18 -47.5
q0 -33 -18 -47t-42 -14z" />
    <glyph glyph-name="ldot" unicode="&#x140;" horiz-adv-x="298" 
d="M12 0v44h12q19 0 34 5.5t23 21t8 46.5v533q0 29 -9.5 43t-25 18.5t-31.5 4.5h-11v44h180v-643q0 -31 8 -46.5t23.5 -21t34.5 -5.5h10v-44h-256zM316 267q-25 0 -42 14t-17 47q0 34 17 47.5t42 13.5q24 0 42 -13.5t18 -47.5q0 -33 -18 -47t-42 -14z" />
    <glyph glyph-name="Lslash" unicode="&#x141;" horiz-adv-x="546" 
d="M29 0v44h22q17 0 30.5 5t21.5 19.5t8 42.5v174l-78 -54v56l78 54v261q0 29 -8 43.5t-22.5 19.5t-32.5 5h-19v44h270v-44h-20q-19 0 -32.5 -5t-20.5 -19t-7 -41v-200l129 90v-58l-129 -89v-296h164q24 0 39 11t24 31.5t12 46.5l11 75h45l-6 -216h-479z" />
    <glyph glyph-name="lslash" unicode="&#x142;" horiz-adv-x="288" 
d="M22 0v44h10q19 0 34 5t24 20.5t9 45.5v168l-71 -49v53l71 50v313q0 29 -10 43t-25.5 18.5t-31.5 4.5h-10v44h179v-363l77 54v-55l-77 -53v-228q0 -30 9 -45.5t24.5 -20.5t32.5 -5h11v-44h-256z" />
    <glyph glyph-name="Nacute" unicode="&#x143;" horiz-adv-x="664" 
d="M29 0v44h15q20 0 35 5t23 20t8 45v490q0 29 -8.5 43t-22.5 18.5t-32 4.5h-18v44h178l299 -547v437q0 28 -8 42t-22.5 19t-32.5 5h-17v44h218v-44h-18q-18 0 -32.5 -5.5t-22.5 -20t-8 -44.5v-600h-73l-323 581v-467q0 -30 8 -45t22 -20t33 -5h18v-44h-219zM295 784
q14 23 29.5 48.5t29.5 51t22 47.5h111v-10q-8 -13 -25 -32.5t-38.5 -41t-44 -41.5t-41.5 -35h-43v13z" />
    <glyph glyph-name="nacute" unicode="&#x144;" horiz-adv-x="562" 
d="M21 0v44h6q20 0 35 5t24 20.5t9 45.5v310q0 29 -8.5 43.5t-23 19t-33.5 4.5h-5v44h157l12 -79h4q22 49 54 69.5t79 20.5q68 0 105 -47t37 -149v-235q0 -31 7.5 -46.5t21.5 -20.5t32 -5h5v-44h-168v343q0 64 -17.5 100.5t-62.5 36.5q-35 0 -56 -23t-29.5 -60t-8.5 -79
v-207q0 -30 8 -44t23 -18.5t33 -4.5h5v-44h-245zM233 619q14 23 29.5 48.5t29.5 51t22 47.5h111v-10q-8 -13 -25 -32.5t-38.5 -41t-44 -41.5t-41.5 -35h-43v13z" />
    <glyph glyph-name="uni0145" unicode="&#x145;" horiz-adv-x="664" 
d="M29 0v44h15q20 0 35 5t23 20t8 45v490q0 29 -8.5 43t-22.5 18.5t-32 4.5h-18v44h178l299 -547v437q0 28 -8 42t-22.5 19t-32.5 5h-17v44h218v-44h-18q-18 0 -32.5 -5.5t-22.5 -20t-8 -44.5v-600h-73l-323 581v-467q0 -30 8 -45t22 -20t33 -5h18v-44h-219zM279 -208
q6 22 11.5 47t10.5 51t8 49h87v-10q-7 -21 -20 -48t-28 -54t-28 -48h-41v13z" />
    <glyph glyph-name="uni0146" unicode="&#x146;" horiz-adv-x="562" 
d="M21 0v44h6q20 0 35 5t24 20.5t9 45.5v310q0 29 -8.5 43.5t-23 19t-33.5 4.5h-5v44h157l12 -79h4q22 49 54 69.5t79 20.5q68 0 105 -47t37 -149v-235q0 -31 7.5 -46.5t21.5 -20.5t32 -5h5v-44h-168v343q0 64 -17.5 100.5t-62.5 36.5q-35 0 -56 -23t-29.5 -60t-8.5 -79
v-207q0 -30 8 -44t23 -18.5t33 -4.5h5v-44h-245zM221 -208q6 22 11.5 47t10.5 51t8 49h87v-10q-7 -21 -20 -48t-28 -54t-28 -48h-41v13z" />
    <glyph glyph-name="Ncaron" unicode="&#x147;" horiz-adv-x="664" 
d="M29 0v44h15q20 0 35 5t23 20t8 45v490q0 29 -8.5 43t-22.5 18.5t-32 4.5h-18v44h178l299 -547v437q0 28 -8 42t-22.5 19t-32.5 5h-17v44h218v-44h-18q-18 0 -32.5 -5.5t-22.5 -20t-8 -44.5v-600h-73l-323 581v-467q0 -30 8 -45t22 -20t33 -5h18v-44h-219zM300 771
q-9 23 -25 49.5t-33.5 52.5t-31.5 45v13h44q15 -14 31.5 -30.5t33 -34t29.5 -34.5q13 17 28.5 34.5t32.5 34t32 30.5h44v-13q-13 -19 -30.5 -45t-33 -52.5t-25.5 -49.5h-96z" />
    <glyph glyph-name="ncaron" unicode="&#x148;" horiz-adv-x="562" 
d="M21 0v44h6q20 0 35 5t24 20.5t9 45.5v310q0 29 -8.5 43.5t-23 19t-33.5 4.5h-5v44h157l12 -79h4q22 49 54 69.5t79 20.5q68 0 105 -47t37 -149v-235q0 -31 7.5 -46.5t21.5 -20.5t32 -5h5v-44h-168v343q0 64 -17.5 100.5t-62.5 36.5q-35 0 -56 -23t-29.5 -60t-8.5 -79
v-207q0 -30 8 -44t23 -18.5t33 -4.5h5v-44h-245zM238 606q-9 23 -25 49.5t-33.5 52.5t-31.5 45v13h44q15 -14 31.5 -30.5t33 -34t29.5 -34.5q13 17 28.5 34.5t32.5 34t32 30.5h44v-13q-13 -19 -30.5 -45t-33 -52.5t-25.5 -49.5h-96z" />
    <glyph glyph-name="napostrophe" unicode="&#x149;" horiz-adv-x="707" 
d="M166 0v44h6q20 0 35 5t24 20.5t9 45.5v310q0 29 -8.5 43.5t-23 19t-33.5 4.5h-5v44h157l12 -79h4q22 49 54 69.5t79 20.5q68 0 105 -47t37 -149v-235q0 -31 7.5 -46.5t21.5 -20.5t32 -5h5v-44h-168v343q0 64 -17.5 100.5t-62.5 36.5q-35 0 -56 -23t-29.5 -60t-8.5 -79
v-207q0 -30 8 -44t23 -18.5t33 -4.5h5v-44h-245zM8 471q27 11 44.5 24t26.5 29t9 35q0 15 -10 23t-22 15t-21.5 19.5t-9.5 37.5q0 29 17 44.5t41 15.5q31 0 51.5 -23.5t20.5 -66.5q0 -64 -33.5 -117t-113.5 -79v43z" />
    <glyph glyph-name="Eng" unicode="&#x14a;" horiz-adv-x="664" 
d="M400 -240v49h12q29 0 50 17t32.5 56.5t11.5 107.5v13l-339 578v-467q0 -30 8 -45t22 -20t33 -5h18v-44h-219v44h15q20 0 35 5t23 20t8 45v490q0 29 -8.5 43t-22.5 18.5t-32 4.5h-18v44h170l307 -544v434q0 28 -8 42t-22.5 19t-32.5 5h-17v44h218v-44h-18
q-18 0 -32.5 -5.5t-22.5 -20t-8 -44.5v-607q0 -88 -15 -139t-46 -72.5t-78 -21.5h-24z" />
    <glyph glyph-name="eng" unicode="&#x14b;" horiz-adv-x="557" 
d="M281 -240v50h5q28 0 47 16.5t29 56t10 109.5v350q0 66 -18.5 102t-62.5 36q-35 0 -55.5 -22.5t-29.5 -59.5t-9 -80v-207q0 -30 8.5 -44t23.5 -18.5t34 -4.5h3v-44h-245v44h6q20 0 35 5t24 20.5t9 45.5v310q0 29 -8.5 43.5t-23.5 19t-35 4.5h-3v44h157l12 -79h4
q23 49 54.5 69.5t78.5 20.5q68 0 105 -47t37 -149v-359q0 -89 -23 -140t-63 -71.5t-92 -20.5h-14z" />
    <glyph glyph-name="Omacron" unicode="&#x14c;" horiz-adv-x="654" 
d="M327 -10q-94 0 -156 46t-92.5 129t-30.5 194t30.5 193t93 127.5t156.5 45.5q89 0 151 -45.5t94.5 -128t32.5 -193.5t-32.5 -193.5t-94.5 -128.5t-152 -46zM327 46q60 0 95.5 37t51 107t15.5 168q0 99 -15.5 168.5t-51 106t-94.5 36.5q-88 0 -126 -81.5t-38 -229.5
q0 -98 16.5 -168t52.5 -107t94 -37zM201 779v63h249v-63h-249z" />
    <glyph glyph-name="omacron" unicode="&#x14d;" horiz-adv-x="509" 
d="M253 -10q-97 0 -153 69t-56 210q0 140 54 209t158 69q97 0 152.5 -69t55.5 -209q0 -141 -53.5 -210t-157.5 -69zM255 44q39 0 62 25.5t33 75.5t10 124q0 112 -24 167.5t-82 55.5q-57 0 -81 -55.5t-24 -167.5q0 -111 24.5 -168t81.5 -57zM128 614v63h249v-63h-249z" />
    <glyph glyph-name="Obreve" unicode="&#x14e;" horiz-adv-x="654" 
d="M327 -10q-94 0 -156 46t-92.5 129t-30.5 194t30.5 193t93 127.5t156.5 45.5q89 0 151 -45.5t94.5 -128t32.5 -193.5t-32.5 -193.5t-94.5 -128.5t-152 -46zM327 46q60 0 95.5 37t51 107t15.5 168q0 99 -15.5 168.5t-51 106t-94.5 36.5q-88 0 -126 -81.5t-38 -229.5
q0 -98 16.5 -168t52.5 -107t94 -37zM325 771q-43 0 -71 19.5t-42 51.5t-15 69h47q7 -36 28.5 -52t52.5 -16t52 16t29 52h46q0 -37 -14 -69t-42 -51.5t-71 -19.5z" />
    <glyph glyph-name="obreve" unicode="&#x14f;" horiz-adv-x="509" 
d="M253 -10q-97 0 -153 69t-56 210q0 140 54 209t158 69q97 0 152.5 -69t55.5 -209q0 -141 -53.5 -210t-157.5 -69zM255 44q39 0 62 25.5t33 75.5t10 124q0 112 -24 167.5t-82 55.5q-57 0 -81 -55.5t-24 -167.5q0 -111 24.5 -168t81.5 -57zM253 606q-43 0 -71 19.5t-42 51.5
t-15 69h47q7 -36 28.5 -52t52.5 -16t52 16t29 52h46q0 -37 -14 -69t-42 -51.5t-71 -19.5z" />
    <glyph glyph-name="Ohungarumlaut" unicode="&#x150;" horiz-adv-x="654" 
d="M327 -10q-94 0 -156 46t-92.5 129t-30.5 194t30.5 193t93 127.5t156.5 45.5q89 0 151 -45.5t94.5 -128t32.5 -193.5t-32.5 -193.5t-94.5 -128.5t-152 -46zM327 46q60 0 95.5 37t51 107t15.5 168q0 99 -15.5 168.5t-51 106t-94.5 36.5q-88 0 -126 -81.5t-38 -229.5
q0 -98 16.5 -168t52.5 -107t94 -37zM353 784q20 36 39 74.5t33 72.5h94v-10q-10 -17 -31 -45t-45.5 -56.5t-44.5 -48.5h-45v13zM195 784q19 36 38.5 74.5t33.5 72.5h94v-10q-9 -17 -31 -45t-46.5 -56.5t-43.5 -48.5h-45v13z" />
    <glyph glyph-name="ohungarumlaut" unicode="&#x151;" horiz-adv-x="509" 
d="M253 -10q-97 0 -153 69t-56 210q0 140 54 209t158 69q97 0 152.5 -69t55.5 -209q0 -141 -53.5 -210t-157.5 -69zM255 44q39 0 62 25.5t33 75.5t10 124q0 112 -24 167.5t-82 55.5q-57 0 -81 -55.5t-24 -167.5q0 -111 24.5 -168t81.5 -57zM281 619q20 36 39 74.5t33 72.5
h94v-10q-10 -17 -31 -45t-45.5 -56.5t-44.5 -48.5h-45v13zM123 619q19 36 38.5 74.5t33.5 72.5h94v-10q-9 -17 -31 -45t-46.5 -56.5t-43.5 -48.5h-45v13z" />
    <glyph glyph-name="OE" unicode="&#x152;" horiz-adv-x="846" 
d="M327 -10q-94 0 -156 46t-92.5 129t-30.5 194t30.5 193t93 127.5t156.5 45.5q21 0 46.5 -3t43.5 -8h362l4 -177h-52l-4 44q-1 23 -9 41t-23 29t-41 11h-139v-263h207v-51h-207v-296h160q27 0 43 11t25 29.5t12 40.5l6 44h51l-6 -177h-391q-18 -4 -43 -7t-46 -3zM327 46
q25 0 45.5 4t36.5 11v592q-15 8 -35 12t-46 4q-88 0 -126 -81.5t-38 -229.5q0 -98 16.5 -168t52.5 -107t94 -37z" />
    <glyph glyph-name="oe" unicode="&#x153;" horiz-adv-x="789" 
d="M253 -10q-97 0 -153 69t-56 210q0 140 53.5 209t158.5 69q51 0 90.5 -21.5t64.5 -64.5q25 43 63 64.5t88 21.5q87 0 137 -61.5t50 -180.5v-43h-285q1 -70 15 -117t42 -70.5t69 -23.5q45 0 74.5 23.5t44.5 54.5q10 -4 16.5 -12.5t6.5 -22.5q0 -22 -17.5 -46.5t-53 -41
t-91.5 -16.5q-53 0 -92.5 22t-64.5 64q-25 -43 -65 -64.5t-95 -21.5zM255 44q39 0 61.5 25.5t33 75.5t10.5 124q-1 113 -24.5 168t-81.5 55q-57 0 -81 -56t-24 -167t24.5 -168t81.5 -57zM645 315q1 54 -7.5 94t-27 62t-48.5 22q-44 0 -68.5 -46t-27.5 -132h179z" />
    <glyph glyph-name="Racute" unicode="&#x154;" horiz-adv-x="585" 
d="M29 0v44h17q17 0 31.5 4.5t23.5 18.5t9 42v495q0 29 -9 43t-23.5 18.5t-31.5 4.5h-17v44h251q81 0 132 -20.5t75 -62.5t24 -106q0 -56 -17.5 -93.5t-46.5 -60t-62 -34.5l113 -212q22 -40 41.5 -60.5t44.5 -20.5h4v-44h-19q-49 0 -81 7t-53.5 26.5t-39.5 56.5l-110 224
h-66v-205q0 -28 8 -42t22 -18.5t32 -4.5h12v-44h-264zM267 363q70 0 100 40t30 117q0 49 -13 81t-40.5 47.5t-72.5 15.5h-52v-301h48zM221 784q14 23 29.5 48.5t29.5 51t22 47.5h111v-10q-8 -13 -25 -32.5t-38.5 -41t-44 -41.5t-41.5 -35h-43v13z" />
    <glyph glyph-name="racute" unicode="&#x155;" horiz-adv-x="423" 
d="M23 0v44h3q20 0 35 5t24 20.5t9 46.5v308q0 30 -8.5 44.5t-23.5 19t-34 4.5h-3v44h151l15 -104h4q12 33 27.5 59t39.5 40.5t59 14.5q46 0 67.5 -21t21.5 -56q0 -34 -22.5 -53.5t-68.5 -19.5q0 28 -4 45.5t-13 26t-26 8.5q-20 0 -35 -19t-25 -49.5t-14.5 -66t-4.5 -67.5
v-163q0 -29 9 -43.5t23.5 -19t32.5 -4.5h24v-44h-263zM153 619q14 23 29.5 48.5t29.5 51t22 47.5h111v-10q-8 -13 -25 -32.5t-38.5 -41t-44 -41.5t-41.5 -35h-43v13z" />
    <glyph glyph-name="uni0156" unicode="&#x156;" horiz-adv-x="585" 
d="M29 0v44h17q17 0 31.5 4.5t23.5 18.5t9 42v495q0 29 -9 43t-23.5 18.5t-31.5 4.5h-17v44h251q81 0 132 -20.5t75 -62.5t24 -106q0 -56 -17.5 -93.5t-46.5 -60t-62 -34.5l113 -212q22 -40 41.5 -60.5t44.5 -20.5h4v-44h-19q-49 0 -81 7t-53.5 26.5t-39.5 56.5l-110 224
h-66v-205q0 -28 8 -42t22 -18.5t32 -4.5h12v-44h-264zM267 363q70 0 100 40t30 117q0 49 -13 81t-40.5 47.5t-72.5 15.5h-52v-301h48zM227 -208q6 22 11.5 47t10.5 51t8 49h87v-10q-7 -21 -20 -48t-28 -54t-28 -48h-41v13z" />
    <glyph glyph-name="uni0157" unicode="&#x157;" horiz-adv-x="423" 
d="M23 0v44h3q20 0 35 5t24 20.5t9 46.5v308q0 30 -8.5 44.5t-23.5 19t-34 4.5h-3v44h151l15 -104h4q12 33 27.5 59t39.5 40.5t59 14.5q46 0 67.5 -21t21.5 -56q0 -34 -22.5 -53.5t-68.5 -19.5q0 28 -4 45.5t-13 26t-26 8.5q-20 0 -35 -19t-25 -49.5t-14.5 -66t-4.5 -67.5
v-163q0 -29 9 -43.5t23.5 -19t32.5 -4.5h24v-44h-263zM78 -208q6 22 11.5 47t10.5 51t8 49h87v-10q-7 -21 -20 -48t-28 -54t-28 -48h-41v13z" />
    <glyph glyph-name="Rcaron" unicode="&#x158;" horiz-adv-x="585" 
d="M29 0v44h17q17 0 31.5 4.5t23.5 18.5t9 42v495q0 29 -9 43t-23.5 18.5t-31.5 4.5h-17v44h251q81 0 132 -20.5t75 -62.5t24 -106q0 -56 -17.5 -93.5t-46.5 -60t-62 -34.5l113 -212q22 -40 41.5 -60.5t44.5 -20.5h4v-44h-19q-49 0 -81 7t-53.5 26.5t-39.5 56.5l-110 224
h-66v-205q0 -28 8 -42t22 -18.5t32 -4.5h12v-44h-264zM267 363q70 0 100 40t30 117q0 49 -13 81t-40.5 47.5t-72.5 15.5h-52v-301h48zM222 771q-9 23 -25 49.5t-33.5 52.5t-31.5 45v13h44q15 -14 31.5 -30.5t33 -34t29.5 -34.5q13 17 28.5 34.5t32.5 34t32 30.5h44v-13
q-13 -19 -30.5 -45t-33 -52.5t-25.5 -49.5h-96z" />
    <glyph glyph-name="rcaron" unicode="&#x159;" horiz-adv-x="423" 
d="M23 0v44h3q20 0 35 5t24 20.5t9 46.5v308q0 30 -8.5 44.5t-23.5 19t-34 4.5h-3v44h151l15 -104h4q12 33 27.5 59t39.5 40.5t59 14.5q46 0 67.5 -21t21.5 -56q0 -34 -22.5 -53.5t-68.5 -19.5q0 28 -4 45.5t-13 26t-26 8.5q-20 0 -35 -19t-25 -49.5t-14.5 -66t-4.5 -67.5
v-163q0 -29 9 -43.5t23.5 -19t32.5 -4.5h24v-44h-263zM163 606q-9 23 -25 49.5t-33.5 52.5t-31.5 45v13h44q15 -14 31.5 -30.5t33 -34t29.5 -34.5q13 17 28.5 34.5t32.5 34t32 30.5h44v-13q-13 -19 -30.5 -45t-33 -52.5t-25.5 -49.5h-96z" />
    <glyph glyph-name="Sacute" unicode="&#x15a;" horiz-adv-x="478" 
d="M228 -10q-51 0 -87.5 10.5t-59.5 29.5t-33.5 44t-10.5 54q0 24 9.5 40.5t26.5 25t39 8.5q2 -48 17.5 -85t43 -57t63.5 -20q54 0 83.5 32t29.5 88q0 40 -15.5 66.5t-46.5 49t-79 46.5q-53 27 -87.5 57.5t-51.5 70.5t-17 93q0 55 26.5 96t71 63t99.5 22q56 0 94 -17
t57.5 -43t19.5 -54q0 -33 -20 -49.5t-61 -16.5q0 33 -10.5 62.5t-32.5 48t-56 18.5q-46 0 -71 -29.5t-25 -81.5q0 -35 11.5 -60.5t41.5 -48t83 -48.5q54 -26 89.5 -55.5t53.5 -67.5t18 -91q0 -64 -26.5 -108.5t-75 -68.5t-111.5 -24zM196 784q14 23 29.5 48.5t29.5 51
t22 47.5h111v-10q-8 -13 -25 -32.5t-38.5 -41t-44 -41.5t-41.5 -35h-43v13z" />
    <glyph glyph-name="sacute" unicode="&#x15b;" horiz-adv-x="397" 
d="M189 -10q-50 0 -85.5 12t-53 36t-17.5 58q0 25 9.5 40t24 21t30.5 6q0 -55 23 -89.5t72 -34.5q45 0 67 23.5t22 62.5q0 24 -9 40.5t-31 32t-60 33.5q-48 23 -78.5 45.5t-45 52t-14.5 72.5q0 71 46 108t120 37q47 0 77.5 -13t45.5 -34.5t15 -46.5q0 -27 -16.5 -43
t-49.5 -16q0 51 -21.5 78t-59.5 27q-37 0 -56 -20.5t-19 -54.5q0 -38 23.5 -59t81.5 -48q45 -21 74.5 -43t44.5 -52t15 -73q0 -74 -46 -116t-129 -42zM154 619q14 23 29.5 48.5t29.5 51t22 47.5h111v-10q-8 -13 -25 -32.5t-38.5 -41t-44 -41.5t-41.5 -35h-43v13z" />
    <glyph glyph-name="Scircumflex" unicode="&#x15c;" horiz-adv-x="478" 
d="M228 -10q-51 0 -87.5 10.5t-59.5 29.5t-33.5 44t-10.5 54q0 24 9.5 40.5t26.5 25t39 8.5q2 -48 17.5 -85t43 -57t63.5 -20q54 0 83.5 32t29.5 88q0 40 -15.5 66.5t-46.5 49t-79 46.5q-53 27 -87.5 57.5t-51.5 70.5t-17 93q0 55 26.5 96t71 63t99.5 22q56 0 94 -17
t57.5 -43t19.5 -54q0 -33 -20 -49.5t-61 -16.5q0 33 -10.5 62.5t-32.5 48t-56 18.5q-46 0 -71 -29.5t-25 -81.5q0 -35 11.5 -60.5t41.5 -48t83 -48.5q54 -26 89.5 -55.5t53.5 -67.5t18 -91q0 -64 -26.5 -108.5t-75 -68.5t-111.5 -24zM108 784q14 19 31.5 45t33.5 53t25 49
h96q10 -22 25.5 -49t33 -53t30.5 -45v-13h-44q-14 14 -31 30.5t-33 34.5t-29 35q-14 -17 -30 -35t-32.5 -34t-31.5 -31h-44v13z" />
    <glyph glyph-name="scircumflex" unicode="&#x15d;" horiz-adv-x="397" 
d="M189 -10q-50 0 -85.5 12t-53 36t-17.5 58q0 25 9.5 40t24 21t30.5 6q0 -55 23 -89.5t72 -34.5q45 0 67 23.5t22 62.5q0 24 -9 40.5t-31 32t-60 33.5q-48 23 -78.5 45.5t-45 52t-14.5 72.5q0 71 46 108t120 37q47 0 77.5 -13t45.5 -34.5t15 -46.5q0 -27 -16.5 -43
t-49.5 -16q0 51 -21.5 78t-59.5 27q-37 0 -56 -20.5t-19 -54.5q0 -38 23.5 -59t81.5 -48q45 -21 74.5 -43t44.5 -52t15 -73q0 -74 -46 -116t-129 -42zM69 619q14 19 31.5 45t33.5 53t25 49h96q10 -22 25.5 -49t33 -53t30.5 -45v-13h-44q-14 14 -31 30.5t-33 34.5t-29 35
q-14 -17 -30 -35t-32.5 -34t-31.5 -31h-44v13z" />
    <glyph glyph-name="Scedilla" unicode="&#x15e;" horiz-adv-x="478" 
d="M228 -10q-51 0 -87.5 10.5t-59.5 29.5t-33.5 44t-10.5 54q0 24 9.5 40.5t26.5 25t39 8.5q2 -48 17.5 -85t43 -57t63.5 -20q54 0 83.5 32t29.5 88q0 40 -15.5 66.5t-46.5 49t-79 46.5q-53 27 -87.5 57.5t-51.5 70.5t-17 93q0 55 26.5 96t71 63t99.5 22q56 0 94 -17
t57.5 -43t19.5 -54q0 -33 -20 -49.5t-61 -16.5q0 33 -10.5 62.5t-32.5 48t-56 18.5q-46 0 -71 -29.5t-25 -81.5q0 -35 11.5 -60.5t41.5 -48t83 -48.5q54 -26 89.5 -55.5t53.5 -67.5t18 -91q0 -64 -26.5 -108.5t-75 -68.5t-111.5 -24zM216 -235q-13 0 -33 2.5t-35 7.5v49
q15 -4 30 -6t26 -2q26 0 41 12.5t15 41.5q0 30 -18.5 42t-47.5 16l18 81h42l-9 -45q27 -2 46.5 -14t30 -31t10.5 -46q0 -53 -31.5 -80.5t-84.5 -27.5z" />
    <glyph glyph-name="scedilla" unicode="&#x15f;" horiz-adv-x="397" 
d="M189 -10q-50 0 -85.5 12t-53 36t-17.5 58q0 25 9.5 40t24 21t30.5 6q0 -55 23 -89.5t72 -34.5q45 0 67 23.5t22 62.5q0 24 -9 40.5t-31 32t-60 33.5q-48 23 -78.5 45.5t-45 52t-14.5 72.5q0 71 46 108t120 37q47 0 77.5 -13t45.5 -34.5t15 -46.5q0 -27 -16.5 -43
t-49.5 -16q0 51 -21.5 78t-59.5 27q-37 0 -56 -20.5t-19 -54.5q0 -38 23.5 -59t81.5 -48q45 -21 74.5 -43t44.5 -52t15 -73q0 -74 -46 -116t-129 -42zM169 -235q-13 0 -33 2.5t-35 7.5v49q15 -4 30 -6t26 -2q26 0 41 12.5t15 41.5q0 30 -18.5 42t-47.5 16l18 81h42l-9 -45
q27 -2 46.5 -14t30 -31t10.5 -46q0 -53 -31.5 -80.5t-84.5 -27.5z" />
    <glyph glyph-name="Scaron" unicode="&#x160;" horiz-adv-x="478" 
d="M228 -10q-51 0 -87.5 10.5t-59.5 29.5t-33.5 44t-10.5 54q0 24 9.5 40.5t26.5 25t39 8.5q2 -48 17.5 -85t43 -57t63.5 -20q54 0 83.5 32t29.5 88q0 40 -15.5 66.5t-46.5 49t-79 46.5q-53 27 -87.5 57.5t-51.5 70.5t-17 93q0 55 26.5 96t71 63t99.5 22q56 0 94 -17
t57.5 -43t19.5 -54q0 -33 -20 -49.5t-61 -16.5q0 33 -10.5 62.5t-32.5 48t-56 18.5q-46 0 -71 -29.5t-25 -81.5q0 -35 11.5 -60.5t41.5 -48t83 -48.5q54 -26 89.5 -55.5t53.5 -67.5t18 -91q0 -64 -26.5 -108.5t-75 -68.5t-111.5 -24zM197 771q-9 23 -25 49.5t-33.5 52.5
t-31.5 45v13h44q15 -14 31.5 -30.5t33 -34t29.5 -34.5q13 17 28.5 34.5t32.5 34t32 30.5h44v-13q-13 -19 -30.5 -45t-33 -52.5t-25.5 -49.5h-96z" />
    <glyph glyph-name="scaron" unicode="&#x161;" horiz-adv-x="397" 
d="M189 -10q-50 0 -85.5 12t-53 36t-17.5 58q0 25 9.5 40t24 21t30.5 6q0 -55 23 -89.5t72 -34.5q45 0 67 23.5t22 62.5q0 24 -9 40.5t-31 32t-60 33.5q-48 23 -78.5 45.5t-45 52t-14.5 72.5q0 71 46 108t120 37q47 0 77.5 -13t45.5 -34.5t15 -46.5q0 -27 -16.5 -43
t-49.5 -16q0 51 -21.5 78t-59.5 27q-37 0 -56 -20.5t-19 -54.5q0 -38 23.5 -59t81.5 -48q45 -21 74.5 -43t44.5 -52t15 -73q0 -74 -46 -116t-129 -42zM154 606q-9 23 -25 49.5t-33.5 52.5t-31.5 45v13h44q15 -14 31.5 -30.5t33 -34t29.5 -34.5q13 17 28.5 34.5t32.5 34
t32 30.5h44v-13q-13 -19 -30.5 -45t-33 -52.5t-25.5 -49.5h-96z" />
    <glyph glyph-name="uni0162" unicode="&#x162;" horiz-adv-x="541" 
d="M127 0v44h19q19 0 35 4.5t25.5 19t9.5 43.5v551h-77q-37 0 -52 -23.5t-18 -56.5l-6 -46h-49l4 178h505l4 -178h-49l-6 46q-3 33 -18 56.5t-53 23.5h-77v-548q0 -30 9 -45t25 -20t35 -5h20v-44h-286zM252 -240q-9 0 -21.5 1.5t-25 4t-23.5 5.5v53q15 -4 31 -6t28 -2
q24 0 38 14.5t14 39.5q0 29 -18.5 43t-46.5 16l19 80h43l-8 -43q29 -2 48 -14t29 -31.5t10 -46.5q0 -53 -31 -83.5t-86 -30.5z" />
    <glyph glyph-name="uni0163" unicode="&#x163;" horiz-adv-x="323" 
d="M208 -10q-63 0 -94.5 34.5t-31.5 121.5v337h-65v37q24 3 43 13t32 26q13 15 22.5 38t15.5 62h54v-123h111v-53h-111v-336q0 -51 14.5 -74.5t45.5 -23.5q17 0 31.5 2.5t28.5 5.5v-49q-14 -6 -39 -12t-57 -6zM171 -240q-9 0 -21.5 1.5t-25 4t-23.5 5.5v53q15 -4 31 -6
t28 -2q24 0 38 14.5t14 39.5q0 29 -18.5 43t-46.5 16l19 80h43l-8 -43q29 -2 48 -14t29 -31.5t10 -46.5q0 -53 -31 -83.5t-86 -30.5z" />
    <glyph glyph-name="Tcaron" unicode="&#x164;" horiz-adv-x="541" 
d="M127 0v44h19q19 0 35 4.5t25.5 19t9.5 43.5v551h-77q-37 0 -52 -23.5t-18 -56.5l-6 -46h-49l4 178h505l4 -178h-49l-6 46q-3 33 -18 56.5t-53 23.5h-77v-548q0 -30 9 -45t25 -20t35 -5h20v-44h-286zM222 771q-9 23 -25 49.5t-33.5 52.5t-31.5 45v13h44q15 -14 31.5 -30.5
t33 -34t29.5 -34.5q13 17 28.5 34.5t32.5 34t32 30.5h44v-13q-13 -19 -30.5 -45t-33 -52.5t-25.5 -49.5h-96z" />
    <glyph glyph-name="tcaron" unicode="&#x165;" horiz-adv-x="323" 
d="M240 613q6 22 11.5 47t10.5 51t8 49h85v-10q-8 -21 -20.5 -48t-27 -54t-28.5 -48h-39v13zM208 -10q-63 0 -94.5 34.5t-31.5 121.5v337h-65v37q24 3 43 13t32 26q13 15 22.5 38t15.5 62h54v-123h112v-53h-112v-336q0 -51 14.5 -74.5t45.5 -23.5q17 0 31.5 2.5t28.5 5.5
v-49q-14 -6 -39 -12t-57 -6z" />
    <glyph glyph-name="Tbar" unicode="&#x166;" horiz-adv-x="541" 
d="M130 0v44h27q16 0 29.5 4.5t21.5 19t8 43.5v222h-127v46h127v283h-77q-37 0 -52 -23.5t-18 -56.5l-5 -46h-50l4 178h505l4 -178h-49l-6 46q-1 22 -8.5 40t-22 29t-40.5 11h-77v-283h126v-46h-126v-219q0 -30 8 -45t21.5 -20t29.5 -5h26v-44h-279z" />
    <glyph glyph-name="tbar" unicode="&#x167;" horiz-adv-x="323" 
d="M23 289v45h259v-45h-259zM208 -10q-63 0 -94.5 34.5t-31.5 121.5v337h-65v37q24 3 43 13t32 26q13 15 22.5 38t15.5 62h54v-123h111v-53h-111v-336q0 -51 14.5 -74.5t45.5 -23.5q17 0 31.5 2.5t28.5 5.5v-49q-14 -6 -39 -12t-57 -6z" />
    <glyph glyph-name="Utilde" unicode="&#x168;" horiz-adv-x="626" 
d="M317 -10q-68 0 -118.5 22.5t-77.5 72.5t-27 132v387q0 29 -9 43t-24 18.5t-34 4.5h-14v44h270v-44h-13q-20 0 -35 -5t-24 -19.5t-9 -45.5v-390q0 -87 38 -122.5t99 -35.5q45 0 75 20t45 55t15 82v395q0 29 -9 43t-23.5 18.5t-34.5 4.5h-13v44h219v-44h-14q-19 0 -34 -5
t-24 -19.5t-9 -45.5v-393q0 -66 -23.5 -115t-71.5 -75.5t-120 -26.5zM392 771q-23 0 -42 9.5t-34.5 22t-30 22t-29.5 9.5q-21 0 -30 -16.5t-11 -36.5h-47q2 32 13.5 60t33 45.5t52.5 17.5q22 0 40.5 -9.5t34.5 -22t30.5 -22t28.5 -9.5q21 0 30.5 16.5t11.5 36.5h46
q-2 -32 -13.5 -60t-32.5 -45.5t-51 -17.5z" />
    <glyph glyph-name="utilde" unicode="&#x169;" horiz-adv-x="558" 
d="M231 -10q-72 0 -108 47t-36 149v238q0 30 -7.5 44.5t-22 19t-34.5 4.5h-3v44h170v-341q0 -45 6.5 -76t24 -46.5t48.5 -15.5q34 0 55 20t30.5 56.5t9.5 84.5v203q0 32 -8 47t-22.5 19.5t-32.5 4.5h-3v44h168v-425q0 -30 9 -44t24 -18.5t32 -4.5h5v-44h-152l-14 79h-4
q-24 -51 -57.5 -70t-77.5 -19zM337 606q-23 0 -42 9.5t-34.5 22t-30 22t-29.5 9.5q-21 0 -30 -16.5t-11 -36.5h-47q2 32 13.5 60t33 45.5t52.5 17.5q22 0 40.5 -9.5t34.5 -22t30.5 -22t28.5 -9.5q21 0 30.5 16.5t11.5 36.5h46q-2 -32 -13.5 -60t-32.5 -45.5t-51 -17.5z" />
    <glyph glyph-name="Umacron" unicode="&#x16a;" horiz-adv-x="626" 
d="M317 -10q-68 0 -118.5 22.5t-77.5 72.5t-27 132v387q0 29 -9 43t-24 18.5t-34 4.5h-14v44h270v-44h-13q-20 0 -35 -5t-24 -19.5t-9 -45.5v-390q0 -87 38 -122.5t99 -35.5q45 0 75 20t45 55t15 82v395q0 29 -9 43t-23.5 18.5t-34.5 4.5h-13v44h219v-44h-14q-19 0 -34 -5
t-24 -19.5t-9 -45.5v-393q0 -66 -23.5 -115t-71.5 -75.5t-120 -26.5zM209 779v63h249v-63h-249z" />
    <glyph glyph-name="umacron" unicode="&#x16b;" horiz-adv-x="558" 
d="M231 -10q-72 0 -108 47t-36 149v238q0 30 -7.5 44.5t-22 19t-34.5 4.5h-3v44h170v-341q0 -45 6.5 -76t24 -46.5t48.5 -15.5q34 0 55 20t30.5 56.5t9.5 84.5v203q0 32 -8 47t-22.5 19.5t-32.5 4.5h-3v44h168v-425q0 -30 9 -44t24 -18.5t32 -4.5h5v-44h-152l-14 79h-4
q-24 -51 -57.5 -70t-77.5 -19zM143 614v63h249v-63h-249z" />
    <glyph glyph-name="Ubreve" unicode="&#x16c;" horiz-adv-x="626" 
d="M317 -10q-68 0 -118.5 22.5t-77.5 72.5t-27 132v387q0 29 -9 43t-24 18.5t-34 4.5h-14v44h270v-44h-13q-20 0 -35 -5t-24 -19.5t-9 -45.5v-390q0 -87 38 -122.5t99 -35.5q45 0 75 20t45 55t15 82v395q0 29 -9 43t-23.5 18.5t-34.5 4.5h-13v44h219v-44h-14q-19 0 -34 -5
t-24 -19.5t-9 -45.5v-393q0 -66 -23.5 -115t-71.5 -75.5t-120 -26.5zM327 771q-43 0 -71 19.5t-42 51.5t-15 69h47q7 -36 28.5 -52t52.5 -16t52 16t29 52h46q0 -37 -14 -69t-42 -51.5t-71 -19.5z" />
    <glyph glyph-name="ubreve" unicode="&#x16d;" horiz-adv-x="558" 
d="M231 -10q-72 0 -108 47t-36 149v238q0 30 -7.5 44.5t-22 19t-34.5 4.5h-3v44h170v-341q0 -45 6.5 -76t24 -46.5t48.5 -15.5q34 0 55 20t30.5 56.5t9.5 84.5v203q0 32 -8 47t-22.5 19.5t-32.5 4.5h-3v44h168v-425q0 -30 9 -44t24 -18.5t32 -4.5h5v-44h-152l-14 79h-4
q-24 -51 -57.5 -70t-77.5 -19zM273 606q-43 0 -71 19.5t-42 51.5t-15 69h47q7 -36 28.5 -52t52.5 -16t52 16t29 52h46q0 -37 -14 -69t-42 -51.5t-71 -19.5z" />
    <glyph glyph-name="Uring" unicode="&#x16e;" horiz-adv-x="626" 
d="M317 -10q-68 0 -118.5 22.5t-77.5 72.5t-27 132v387q0 29 -9 43t-24 18.5t-34 4.5h-14v44h270v-44h-13q-20 0 -35 -5t-24 -19.5t-9 -45.5v-390q0 -87 38 -122.5t99 -35.5q45 0 75 20t45 55t15 82v395q0 29 -9 43t-23.5 18.5t-34.5 4.5h-13v44h219v-44h-14q-19 0 -34 -5
t-24 -19.5t-9 -45.5v-393q0 -66 -23.5 -115t-71.5 -75.5t-120 -26.5zM321 761q-43 0 -73 28t-30 81t30 81t73 28t73 -28t30 -81t-30 -81t-73 -28zM321 808q23 0 40 14t17 48t-16.5 48t-39.5 14q-24 0 -40.5 -14t-16.5 -48t16.5 -48t39.5 -14z" />
    <glyph glyph-name="uring" unicode="&#x16f;" horiz-adv-x="558" 
d="M231 -10q-72 0 -108 47t-36 149v238q0 30 -7.5 44.5t-22 19t-34.5 4.5h-3v44h170v-341q0 -45 6.5 -76t24 -46.5t48.5 -15.5q34 0 55 20t30.5 56.5t9.5 84.5v203q0 32 -8 47t-22.5 19.5t-32.5 4.5h-3v44h168v-425q0 -30 9 -44t24 -18.5t32 -4.5h5v-44h-152l-14 79h-4
q-24 -51 -57.5 -70t-77.5 -19zM266 596q-43 0 -73 28t-30 81t30 81t73 28t73 -28t30 -81t-30 -81t-73 -28zM266 643q23 0 40 14t17 48t-16.5 48t-39.5 14q-24 0 -40.5 -14t-16.5 -48t16.5 -48t39.5 -14z" />
    <glyph glyph-name="Uhungarumlaut" unicode="&#x170;" horiz-adv-x="626" 
d="M317 -10q-68 0 -118.5 22.5t-77.5 72.5t-27 132v387q0 29 -9 43t-24 18.5t-34 4.5h-14v44h270v-44h-13q-20 0 -35 -5t-24 -19.5t-9 -45.5v-390q0 -87 38 -122.5t99 -35.5q45 0 75 20t45 55t15 82v395q0 29 -9 43t-23.5 18.5t-34.5 4.5h-13v44h219v-44h-14q-19 0 -34 -5
t-24 -19.5t-9 -45.5v-393q0 -66 -23.5 -115t-71.5 -75.5t-120 -26.5zM360 784q20 36 39 74.5t33 72.5h94v-10q-10 -17 -31 -45t-45.5 -56.5t-44.5 -48.5h-45v13zM202 784q19 36 38.5 74.5t33.5 72.5h94v-10q-9 -17 -31 -45t-46.5 -56.5t-43.5 -48.5h-45v13z" />
    <glyph glyph-name="uhungarumlaut" unicode="&#x171;" horiz-adv-x="558" 
d="M231 -10q-72 0 -108 47t-36 149v238q0 30 -7.5 44.5t-22 19t-34.5 4.5h-3v44h170v-341q0 -45 6.5 -76t24 -46.5t48.5 -15.5q34 0 55 20t30.5 56.5t9.5 84.5v203q0 32 -8 47t-22.5 19.5t-32.5 4.5h-3v44h168v-425q0 -30 9 -44t24 -18.5t32 -4.5h5v-44h-152l-14 79h-4
q-24 -51 -57.5 -70t-77.5 -19zM303 619q20 36 39 74.5t33 72.5h94v-10q-10 -17 -31 -45t-45.5 -56.5t-44.5 -48.5h-45v13zM145 619q19 36 38.5 74.5t33.5 72.5h94v-10q-9 -17 -31 -45t-46.5 -56.5t-43.5 -48.5h-45v13z" />
    <glyph glyph-name="Uogonek" unicode="&#x172;" horiz-adv-x="614" 
d="M324 -10q-68 0 -118.5 22.5t-77.5 72.5t-27 132v387q0 29 -9 43t-24 18.5t-34 4.5h-14v44h270v-44h-13q-20 0 -35 -5t-24 -19.5t-9 -45.5v-390q0 -87 38 -122.5t99 -35.5q45 0 75 20t45 55t15 82v395q0 29 -9 43t-23.5 18.5t-34.5 4.5h-13v44h219v-44h-14q-19 0 -34 -5
t-24 -19.5t-9 -45.5v-393q0 -66 -23.5 -115t-71.5 -75.5t-120 -26.5zM360 -240q-59 0 -90.5 26.5t-31.5 83.5q0 31 14 58t37 46t50 26h56q-18 -6 -36.5 -21.5t-31 -38.5t-12.5 -55t17 -46.5t43 -14.5q11 0 24.5 2t29.5 6v-56q-9 -5 -22 -8.5t-25.5 -5.5t-21.5 -2z" />
    <glyph glyph-name="uogonek" unicode="&#x173;" horiz-adv-x="558" 
d="M231 -10q-72 0 -108 47t-36 149v238q0 30 -7.5 44.5t-22 19t-34.5 4.5h-3v44h170v-341q0 -45 6.5 -76t24 -46.5t48.5 -15.5q34 0 55 20t30.5 56.5t9.5 84.5v203q0 32 -8 47t-22.5 19.5t-32.5 4.5h-3v44h168v-425q0 -30 9 -44t24 -18.5t32 -4.5h5v-44h-152l-14 79h-4
q-24 -51 -57.5 -70t-77.5 -19zM406 -235q-55 0 -86 25t-31 80q0 33 14 59.5t36 45t46 25.5h58q-19 -7 -38 -23t-31 -40.5t-12 -56.5q0 -31 16 -45.5t42 -14.5q12 0 25.5 2.5t28.5 7.5v-51q-9 -4 -21 -7.5t-24.5 -5t-22.5 -1.5z" />
    <glyph glyph-name="Wcircumflex" unicode="&#x174;" horiz-adv-x="906" 
d="M77 617q-5 22 -13 33t-19.5 15.5t-28.5 4.5h-11v44h257v-44h-20q-26 0 -38.5 -10t-12.5 -30q0 -9 2.5 -22t4.5 -26l68 -301q7 -29 13.5 -58.5t11.5 -57.5t9 -52q6 38 15.5 80t20.5 89l106 425h71l104 -425q12 -49 22 -92.5t16 -77.5q4 24 8.5 48.5t10 51.5t12.5 59
l68 301q3 12 5.5 30t2.5 28q0 22 -14 31t-42 9h-20v44h216v-44h-16q-17 0 -29 -5.5t-20.5 -22.5t-16.5 -50l-138 -592h-96l-131 542l-131 -542h-99zM336 784q14 19 31.5 45t33.5 53t25 49h96q10 -22 25.5 -49t33 -53t30.5 -45v-13h-44q-14 14 -31 30.5t-33 34.5t-29 35
q-14 -17 -30 -35t-32.5 -34t-31.5 -31h-44v13z" />
    <glyph glyph-name="wcircumflex" unicode="&#x175;" horiz-adv-x="738" 
d="M64 439q-5 22 -13 33t-19.5 15.5t-28.5 4.5h-3v44h226v-44h-8q-26 0 -39 -8.5t-13 -33.5q0 -8 2.5 -20t4.5 -23l36 -162q5 -24 11 -52.5t10.5 -54t6.5 -41.5h3q3 16 8 39.5t12 49.5t13 48l89 299h54l83 -296q5 -16 10 -35t9 -39t8 -37.5t5 -29.5h3q3 24 10.5 59.5
t18.5 78.5l40 159q4 13 6 27.5t2 22.5q0 26 -13.5 37.5t-40.5 11.5h-5v44h186v-44h-11q-17 0 -28 -5.5t-19.5 -22t-17.5 -50.5l-110 -414h-79l-108 404l-111 -404h-78zM249 619q14 19 31.5 45t33.5 53t25 49h96q10 -22 25.5 -49t33 -53t30.5 -45v-13h-44q-14 14 -31 30.5
t-33 34.5t-29 35q-14 -17 -30 -35t-32.5 -34t-31.5 -31h-44v13z" />
    <glyph glyph-name="Ycircumflex" unicode="&#x176;" horiz-adv-x="561" 
d="M138 0v44h20q20 0 35.5 5t25 20t9.5 44v180l-158 324q-10 20 -17.5 31.5t-18 16.5t-25.5 5h-11v44h255v-44h-22q-25 0 -34.5 -10t-9.5 -24q0 -11 4.5 -26.5t10.5 -26.5l64 -134q14 -30 24 -56.5t18 -49.5q8 22 20.5 50.5t26.5 59.5l53 113q9 19 13.5 35.5t4.5 27.5
q0 23 -15 32t-41 9h-20v44h214v-44h-10q-13 0 -24 -7t-22 -23.5t-26 -46.5l-145 -300v-176q0 -31 9 -47t24.5 -21t33.5 -5h23v-44h-289zM146 784q14 19 31.5 45t33.5 53t25 49h96q10 -22 25.5 -49t33 -53t30.5 -45v-13h-44q-14 14 -31 30.5t-33 34.5t-29 35q-14 -17 -30 -35
t-32.5 -34t-31.5 -31h-44v13z" />
    <glyph glyph-name="ycircumflex" unicode="&#x177;" horiz-adv-x="490" 
d="M29 -186q43 0 74 13t52.5 37t37 57.5t27.5 76.5l-156 442q-7 22 -14.5 33t-17.5 15t-26 4h-4v44h223v-44h-3q-29 0 -40.5 -10t-11.5 -27q0 -11 3.5 -25t8.5 -32l54 -164q10 -29 17.5 -55.5t13 -49t7.5 -38.5q5 27 12.5 55.5t16.5 59.5l54 195q5 13 7.5 27t2.5 26
q0 21 -13 29t-40 9h-3v44h179v-44h-2q-16 0 -27.5 -5.5t-20.5 -21t-19 -47.5l-130 -415q-22 -73 -42 -119t-45.5 -72t-64.5 -36.5t-99 -10.5h-11v49zM116 619q14 19 31.5 45t33.5 53t25 49h96q10 -22 25.5 -49t33 -53t30.5 -45v-13h-44q-14 14 -31 30.5t-33 34.5t-29 35
q-14 -17 -30 -35t-32.5 -34t-31.5 -31h-44v13z" />
    <glyph glyph-name="Ydieresis" unicode="&#x178;" horiz-adv-x="561" 
d="M138 0v44h20q20 0 35.5 5t25 20t9.5 44v180l-158 324q-10 20 -17.5 31.5t-18 16.5t-25.5 5h-11v44h255v-44h-22q-25 0 -34.5 -10t-9.5 -24q0 -11 4.5 -26.5t10.5 -26.5l64 -134q14 -30 24 -56.5t18 -49.5q8 22 20.5 50.5t26.5 59.5l53 113q9 19 13.5 35.5t4.5 27.5
q0 23 -15 32t-41 9h-20v44h214v-44h-10q-13 0 -24 -7t-22 -23.5t-26 -46.5l-145 -300v-176q0 -31 9 -47t24.5 -21t33.5 -5h23v-44h-289zM371 800q-20 0 -34.5 12.5t-14.5 43.5t14.5 43.5t34.5 12.5q19 0 33.5 -12t14.5 -44q0 -31 -14.5 -43.5t-33.5 -12.5zM208 800
q-20 0 -34 12.5t-14 43.5t14 43.5t34 12.5q19 0 33.5 -12t14.5 -44q0 -31 -14.5 -43.5t-33.5 -12.5z" />
    <glyph glyph-name="Zacute" unicode="&#x179;" horiz-adv-x="535" 
d="M33 0v42l325 620h-182q-39 0 -53.5 -24.5t-16.5 -58.5l-5 -45h-52l5 180h429v-43l-327 -619h207q29 0 46 12t24 31.5t9 41.5l4 43h52l-4 -180h-461zM212 784q14 23 29.5 48.5t29.5 51t22 47.5h111v-10q-8 -13 -25 -32.5t-38.5 -41t-44 -41.5t-41.5 -35h-43v13z" />
    <glyph glyph-name="zacute" unicode="&#x17a;" horiz-adv-x="445" 
d="M28 0v40l254 443h-121q-34 0 -47.5 -18.5t-23.5 -58.5l-4 -15h-43l10 145h347v-41l-255 -442h146q34 0 48 21.5t21 62.5l5 28h42l-5 -165h-374zM175 619q14 23 29.5 48.5t29.5 51t22 47.5h111v-10q-8 -13 -25 -32.5t-38.5 -41t-44 -41.5t-41.5 -35h-43v13z" />
    <glyph glyph-name="Zdotaccent" unicode="&#x17b;" horiz-adv-x="535" 
d="M33 0v42l325 620h-182q-39 0 -53.5 -24.5t-16.5 -58.5l-5 -45h-52l5 180h429v-43l-327 -619h207q29 0 46 12t24 31.5t9 41.5l4 43h52l-4 -180h-461zM281 802q-25 0 -42 14t-17 47q0 34 17 47.5t42 13.5q24 0 42 -13.5t18 -47.5q0 -33 -18 -47t-42 -14z" />
    <glyph glyph-name="zdotaccent" unicode="&#x17c;" horiz-adv-x="445" 
d="M28 0v40l254 443h-121q-34 0 -47.5 -18.5t-23.5 -58.5l-4 -15h-43l10 145h347v-41l-255 -442h146q34 0 48 21.5t21 62.5l5 28h42l-5 -165h-374zM235 637q-25 0 -42 14t-17 47q0 34 17 47.5t42 13.5q24 0 42 -13.5t18 -47.5q0 -33 -18 -47t-42 -14z" />
    <glyph glyph-name="Zcaron" unicode="&#x17d;" horiz-adv-x="535" 
d="M33 0v42l325 620h-182q-39 0 -53.5 -24.5t-16.5 -58.5l-5 -45h-52l5 180h429v-43l-327 -619h207q29 0 46 12t24 31.5t9 41.5l4 43h52l-4 -180h-461zM227 771q-9 23 -25 49.5t-33.5 52.5t-31.5 45v13h44q15 -14 31.5 -30.5t33 -34t29.5 -34.5q13 17 28.5 34.5t32.5 34
t32 30.5h44v-13q-13 -19 -30.5 -45t-33 -52.5t-25.5 -49.5h-96z" />
    <glyph glyph-name="zcaron" unicode="&#x17e;" horiz-adv-x="445" 
d="M28 0v40l254 443h-121q-34 0 -47.5 -18.5t-23.5 -58.5l-4 -15h-43l10 145h347v-41l-255 -442h146q34 0 48 21.5t21 62.5l5 28h42l-5 -165h-374zM186 606q-9 23 -25 49.5t-33.5 52.5t-31.5 45v13h44q15 -14 31.5 -30.5t33 -34t29.5 -34.5q13 17 28.5 34.5t32.5 34t32 30.5
h44v-13q-13 -19 -30.5 -45t-33 -52.5t-25.5 -49.5h-96z" />
    <glyph glyph-name="longs" unicode="&#x17f;" horiz-adv-x="318" 
d="M9 0v44h15q20 0 34.5 5.5t23 21t8.5 46.5v467q0 90 43 138t123 48q49 0 76.5 -10t38.5 -26.5t11 -36.5q0 -26 -20.5 -40.5t-57.5 -14.5q0 33 -11 56.5t-41 23.5q-34 0 -47 -32.5t-13 -96.5v-476q0 -30 8.5 -46t23.5 -21.5t34 -5.5h36v-44h-285z" />
    <glyph glyph-name="uni0180" unicode="&#x180;" horiz-adv-x="540" 
d="M321 -10q-50 0 -81.5 24.5t-50.5 63.5h-6l-19 -78h-149v44h6q19 0 34.5 5t25 20.5t9.5 46.5v477h-75v44h75v13q0 29 -9.5 43t-25 18.5t-34.5 4.5h-6v44h177v-123h141v-44h-141v-31q0 -21 -0.5 -51t-1.5 -52.5t-1 -23.5h2q18 39 50 65t83 26q83 0 127.5 -64t44.5 -200
q0 -93 -21 -153.5t-60 -89.5t-94 -29zM297 52q34 0 54.5 26t30 74t9.5 112q0 100 -22 151t-73 51q-59 0 -81.5 -52.5t-22.5 -150.5q0 -102 22.5 -156.5t82.5 -54.5z" />
    <glyph glyph-name="uni0181" unicode="&#x181;" horiz-adv-x="663" 
d="M119 0v44h23q17 0 30 5t20.5 20t7.5 45v479q0 42 -14 59.5t-43 17.5q-28 0 -43 -18t-15 -52q0 -19 5 -32t13 -25q-7 -7 -16.5 -12t-22.5 -5q-28 0 -41.5 21t-13.5 51q0 39 16 64.5t48.5 38.5t83.5 13h204q116 0 174 -42.5t58 -133.5q0 -44 -14.5 -75t-39.5 -51t-57 -31
v-5q40 -7 71 -30t48.5 -61t17.5 -91q0 -98 -57.5 -146t-174.5 -48h-268zM381 52q66 0 94.5 32.5t28.5 112.5q0 51 -11.5 84.5t-38 50t-71.5 16.5h-76v-296h74zM358 400q46 0 72 14.5t37.5 44t11.5 75.5q0 73 -28.5 100.5t-94.5 27.5h-49v-262h51z" />
    <glyph glyph-name="uni0182" unicode="&#x182;" horiz-adv-x="545" 
d="M29 0v44h24q17 0 30 4.5t20.5 19t7.5 42.5v495q0 28 -8 42t-21 18.5t-30 4.5h-23v44h433l5 -182h-51l-5 47q-2 21 -9.5 38.5t-22.5 28.5t-40 11h-120v-240h65q76 0 126.5 -23.5t75 -69t24.5 -113.5q0 -64 -25 -111.5t-75.5 -73.5t-125.5 -26h-255zM219 57h50q67 0 96 37
t29 117q0 81 -29 115t-96 34h-50v-303z" />
    <glyph glyph-name="uni0183" unicode="&#x183;" horiz-adv-x="540" 
d="M321 -10q-50 0 -81.5 24.5t-50.5 63.5h-6l-19 -78h-149v44h6q19 0 34.5 5t25 20.5t9.5 46.5v532q0 30 -9.5 44.5t-25.5 19t-34 4.5h-6v44h435v-153h-44l-6 31q-4 31 -12 46.5t-22 21t-36 5.5h-138v-133v-37.5t-1 -42.5t-1.5 -34.5t-0.5 -14.5h2q19 44 50 70.5t83 26.5
q83 0 127.5 -66.5t44.5 -210.5q0 -96 -21 -158t-60 -91.5t-94 -29.5zM297 52q51 0 72.5 56t21.5 163q0 109 -22 162t-73 53q-59 0 -81.5 -54.5t-22.5 -161.5q0 -70 9 -119t32.5 -74t63.5 -25z" />
    <glyph glyph-name="uni0184" unicode="&#x184;" horiz-adv-x="533" 
d="M289 -10q-69 0 -111 24.5t-61.5 69t-19.5 105.5v412q0 31 -7.5 45.5t-21 19t-31.5 4.5h-21v44h279v-44h-29q-17 0 -31 -4.5t-22 -18.5t-8 -44v-206h57q81 0 133.5 -24.5t78 -69.5t25.5 -106q0 -63 -23 -109.5t-70 -72t-117 -25.5zM293 39q33 0 53 17.5t29 51.5t9 85
q0 83 -32.5 118.5t-104.5 35.5h-42v-163q0 -74 19.5 -109.5t68.5 -35.5z" />
    <glyph glyph-name="uni0185" unicode="&#x185;" horiz-adv-x="534" 
d="M281 -10q-50 0 -87.5 16t-62.5 49t-37.5 84t-12.5 121v388q0 30 -9.5 44.5t-25 19t-34.5 4.5h-5v44h176v-182q0 -21 -1 -50t-2 -52t-2 -27h5q18 43 49.5 70t82.5 27q81 0 126.5 -64.5t45.5 -211.5q0 -95 -23.5 -157.5t-69 -92.5t-113.5 -30zM284 41q33 0 54.5 21.5
t32.5 71.5t11 136q0 110 -22 163t-73 53q-61 0 -82.5 -56.5t-21.5 -163.5q0 -81 10 -130.5t32.5 -72t58.5 -22.5z" />
    <glyph glyph-name="uni0186" unicode="&#x186;" horiz-adv-x="544" 
d="M223 -10q-68 0 -108.5 17.5t-59 44t-18.5 52.5q0 37 21.5 57t66.5 20q0 -32 9 -63.5t32 -52t61 -20.5q54 0 88 39.5t50 109.5t16 163q0 85 -9.5 144t-28 96t-45.5 54.5t-64 17.5t-62.5 -17.5t-38 -49.5t-12.5 -73q-27 0 -44.5 8t-25.5 23t-8 35q0 27 12.5 50.5t37 41
t60.5 27.5t83 10q83 0 141 -40t89 -121t31 -203q0 -109 -31.5 -192.5t-92.5 -130.5t-150 -47z" />
    <glyph glyph-name="uni0187" unicode="&#x187;" horiz-adv-x="548" 
d="M325 -10q-91 0 -153 46t-93 128.5t-31 193.5q0 110 32 192t95 128t156 46q45 0 77 -9t54 -25v28q0 39 10 71t31 51.5t55 19.5q31 0 50 -14.5t19 -42.5q0 -13 -4 -23t-9 -16q-12 7 -22.5 11.5t-24.5 4.5q-24 0 -37.5 -17t-13.5 -67v-80q0 -39 -23.5 -58t-63.5 -19
q0 32 -10 62t-32.5 49t-62.5 19q-57 0 -92.5 -37t-51.5 -107t-16 -167q0 -96 18 -164.5t57.5 -104.5t102.5 -36q42 0 71 13t50 34t36 45q7 -5 11 -15.5t4 -22.5q0 -18 -10.5 -38.5t-33 -38t-58.5 -29t-87 -11.5z" />
    <glyph glyph-name="uni0188" unicode="&#x188;" horiz-adv-x="436" 
d="M248 -10q-60 0 -106 27.5t-72 88.5t-26 159q0 108 26.5 169.5t72 87t101.5 25.5q32 0 59 -7t47 -19v89q0 43 10 76.5t31 53.5t56 20q32 0 49.5 -14.5t17.5 -42.5q0 -13 -4 -22t-10 -16q-9 7 -19.5 11.5t-25.5 4.5q-24 0 -38.5 -17.5t-14.5 -67.5v-152q0 -23 -8.5 -37.5
t-28.5 -21.5t-54 -7q0 32 -6 58.5t-20 42.5t-40 16q-29 0 -51 -20.5t-34 -70t-12 -138.5q0 -70 12 -118t37 -72.5t64 -24.5q31 0 55 11.5t41.5 29.5t27.5 40q9 -7 13 -16.5t4 -23.5q0 -23 -16.5 -46t-50 -39.5t-87.5 -16.5z" />
    <glyph glyph-name="uni0189" unicode="&#x189;" horiz-adv-x="639" 
d="M29 0v44h22q17 0 30.5 5.5t21.5 20.5t8 43v235h-78v51h78v205q0 28 -8.5 42t-22.5 19t-32 5h-19v44h272q91 0 156 -41t99.5 -120t34.5 -193q0 -109 -32.5 -190t-97 -125.5t-160.5 -44.5h-272zM281 53q64 0 107 35.5t64.5 104t21.5 167.5t-21.5 166t-64.5 101.5t-106 34.5
h-64v-263h129v-51h-129v-295h63z" />
    <glyph glyph-name="uni018A" unicode="&#x18a;" horiz-adv-x="729" 
d="M119 0v44h21q18 0 31.5 5.5t21 20.5t7.5 43v480q0 42 -14 59.5t-43 17.5q-28 0 -43.5 -18t-15.5 -52q0 -19 5.5 -32t13.5 -25q-7 -8 -16.5 -12.5t-22.5 -4.5q-27 0 -41.5 20t-14.5 51q0 38 17 64t50 39.5t84 13.5h232q91 0 156 -41t99 -120t34 -193q0 -109 -32.5 -190
t-96.5 -125.5t-160 -44.5h-272zM371 53q64 0 107 35.5t64.5 104t21.5 167.5q0 98 -21.5 165.5t-64 102t-106.5 34.5h-65v-609h64z" />
    <glyph glyph-name="uni018B" unicode="&#x18b;" horiz-adv-x="536" 
d="M244 0q-77 0 -124.5 24.5t-70 69.5t-22.5 103q0 60 22.5 105t72.5 70t133 25h60v265h-118q-42 0 -57 -20t-19 -59l-4 -47h-51l4 178h433v-44h-19q-18 0 -32 -4.5t-22 -19.5t-8 -46v-488q0 -30 8.5 -44.5t22.5 -19t32 -4.5h18v-44h-259zM264 50h51v298h-40
q-69 0 -101 -35.5t-32 -117.5q0 -50 12.5 -82t39.5 -47.5t70 -15.5z" />
    <glyph glyph-name="uni018C" unicode="&#x18c;" horiz-adv-x="540" 
d="M218 -10q-56 0 -95 29t-59 91t-20 158q0 145 45 211.5t130 66.5q49 0 79.5 -23.5t48.5 -62.5h5q1 2 0 14t-2 30.5t-1.5 36.5t-0.5 29v141h-131q-23 0 -37.5 -7t-23 -23t-14.5 -45l-5 -27h-45v151h358v-647q0 -29 9 -44t24.5 -20t33.5 -5h8v-44h-155l-14 89h-4
q-20 -45 -51.5 -72t-82.5 -27zM243 51q59 0 82 57.5t23 159.5q0 107 -22.5 162.5t-82.5 55.5q-51 0 -73 -56t-22 -163t22.5 -161.5t72.5 -54.5z" />
    <glyph glyph-name="uni018D" unicode="&#x18d;" horiz-adv-x="509" 
d="M265 546q60 0 106 -26.5t72 -77t26 -124.5q0 -69 -23 -117.5t-62.5 -79t-90.5 -46.5q30 -24 55.5 -46t40.5 -49t15 -66q0 -45 -21.5 -77t-60.5 -49t-91 -17q-54 0 -89.5 16.5t-52.5 41t-17 47.5q0 33 19.5 48.5t52.5 15.5q0 -33 9 -61t29.5 -44t53.5 -16q41 0 62 20.5
t21 56.5q0 28 -12 48t-37.5 41t-67.5 51q-46 35 -80.5 71.5t-54 84t-19.5 112.5q0 79 28.5 133t77.5 81.5t111 27.5zM263 492q-34 1 -59 -20.5t-38 -60.5t-13 -92q0 -58 14 -98.5t37.5 -68.5t51.5 -49q28 10 53 36.5t40.5 71t15.5 109.5q0 57 -12.5 95t-35.5 57.5t-54 19.5z
" />
    <glyph glyph-name="uni018E" unicode="&#x18e;" horiz-adv-x="546" 
d="M516 0h-479l-6 177h52l5 -44q4 -22 12.5 -40.5t25 -29.5t41.5 -11h160v296h-205v51h205v263h-138q-25 0 -40.5 -11t-23 -29.5t-9.5 -40.5l-4 -44h-52l4 177h452v-44h-20q-17 0 -31 -5t-22 -19.5t-8 -44.5v-493q0 -26 7.5 -40t21 -19t31.5 -5h21v-44z" />
    <glyph glyph-name="uni018F" unicode="&#x18f;" horiz-adv-x="607" 
d="M293 -9q-67 0 -114 25t-75.5 73t-42 116t-13.5 152v25h396q-2 68 -15 120t-36 87.5t-56.5 54t-76.5 18.5q-51 0 -92.5 -21t-75.5 -53q-4 5 -6.5 12.5t-2.5 18.5q0 22 16 41t44 33.5t63.5 23t74.5 8.5q90 0 152 -44t94 -125t32 -191q0 -118 -33 -201.5t-92.5 -128
t-140.5 -44.5zM297 46q47 0 79 35t48.5 98.5t18.5 150.5h-280q0 -60 6.5 -112t22 -90.5t41 -60t64.5 -21.5z" />
    <glyph glyph-name="uni0190" unicode="&#x190;" horiz-adv-x="511" 
d="M273 -10q-49 0 -91 12t-73.5 37.5t-49 64t-17.5 90.5q0 46 13.5 78t36 53t49.5 32.5t53 15.5q-37 9 -68 29.5t-49.5 55t-18.5 85.5q0 60 24.5 100.5t72 60.5t115.5 20q49 0 85.5 -10.5t60.5 -29t36.5 -41.5t12.5 -49q0 -25 -12 -40t-32 -21t-46 -6q0 42 -9 74.5t-32 51.5
t-65 19q-37 0 -60.5 -15.5t-34 -44t-10.5 -67.5q0 -47 15 -80.5t45.5 -51t72.5 -17.5h75v-52h-76q-76 0 -112 -38.5t-36 -105.5q0 -51 17 -83.5t47 -48t70 -15.5q42 0 74.5 11.5t57 33.5t40.5 52q8 -5 13.5 -15.5t5.5 -25.5q0 -26 -22 -54t-66 -46.5t-112 -18.5z" />
    <glyph glyph-name="uni0191" unicode="&#x191;" horiz-adv-x="623" 
d="M145 -240q-49 0 -81.5 12.5t-49 36.5t-16.5 58q0 26 11.5 41t28 21t33.5 6q0 -59 16 -93t55 -34q40 0 56.5 31t16.5 86v679q0 28 -8 42.5t-21 19t-29 4.5h-23v44h451l4 -176h-51l-4 44q-2 23 -10.5 41t-23.5 28.5t-38 10.5h-140v-266h206v-51h-206v-394
q0 -61 -21.5 -103.5t-61 -65t-94.5 -22.5z" />
    <glyph glyph-name="fhook" unicode="&#x192;" horiz-adv-x="397" 
d="M110 -240q-40 0 -66 11t-39 30t-13 43q0 20 8.5 33t24.5 20t37 7q0 -27 5 -49t16 -34.5t30 -12.5q29 0 42 31t13 91v554h-78v52h78v48q0 90 41.5 138t123.5 48q47 0 73.5 -9.5t38 -25t11.5 -35.5q0 -18 -8 -31t-26 -20.5t-45 -7.5q0 19 -4.5 38t-15 31t-29.5 12
q-32 0 -45 -32t-13 -95v-59h119v-52h-119v-540q0 -62 -19 -103t-55 -61t-86 -20z" />
    <glyph glyph-name="uni0193" unicode="&#x193;" horiz-adv-x="633" 
d="M353 -10q-103 0 -170.5 46t-101 128.5t-33.5 193.5q0 108 35 190.5t103.5 129t170.5 46.5q49 0 85.5 -9.5t62.5 -25.5v26q0 41 9.5 74t30.5 52t55 19q31 0 50 -14.5t19 -43.5q0 -13 -4 -22.5t-10 -15.5q-10 7 -21 11.5t-26 4.5q-23 0 -37 -17.5t-14 -65.5v-76
q0 -24 -8.5 -43t-28 -29t-52.5 -10q0 32 -11.5 62t-36.5 49t-66 19q-66 0 -108 -35t-61.5 -104t-19.5 -172q0 -100 19.5 -169.5t63.5 -105.5t118 -36q20 0 40.5 2.5t37.5 8.5v161q0 29 -8 43.5t-22 19.5t-34 5h-9v44h239v-44h-6q-17 0 -28.5 -5t-18 -20.5t-6.5 -46.5v-178
q-45 -23 -93 -35t-105 -12z" />
    <glyph glyph-name="uni0194" unicode="&#x194;" horiz-adv-x="588" 
d="M284 -240q-32 0 -55.5 14t-35.5 44t-12 77q0 33 7.5 71t23 82t40.5 94l-178 476q-7 20 -14.5 31t-18 16t-26.5 5h-14v44h253v-44h-21q-26 0 -37 -10t-11 -30q0 -11 2.5 -23t6.5 -25l120 -336l127 334q5 12 7.5 24t2.5 21q0 26 -13 35.5t-38 9.5h-23v44h211v-44h-15
q-17 0 -27.5 -7t-19 -23.5t-21.5 -45.5l-162 -416q25 -61 39 -108.5t21 -85.5t7 -72q0 -71 -32 -111.5t-94 -40.5zM276 -182q19 0 30.5 18.5t11.5 58.5q0 30 -4.5 58.5t-13 58.5t-19.5 63q-15 -35 -24.5 -67.5t-14.5 -61t-5 -53.5q0 -42 11 -58.5t28 -16.5z" />
    <glyph glyph-name="uni0195" unicode="&#x195;" horiz-adv-x="797" 
d="M538 -9q-94 0 -138 49t-44 152v151q0 65 -17.5 100.5t-58.5 35.5q-31 0 -51 -20t-28.5 -56.5t-8.5 -84.5v-208q0 -29 8.5 -43t24 -18.5t33.5 -4.5h3v-44h-245v44h6q19 0 34 5t24 20.5t9 45.5v535q0 29 -9.5 43t-25 18.5t-31.5 4.5h-8v44h177v-213q0 -19 -1 -40.5
t-2 -36.5t0 -13h4q12 28 30 48t42.5 31t56.5 11q64 0 100 -47t36 -149v-171q0 -41 7.5 -70t25 -44t46.5 -15q30 0 47.5 15.5t25.5 46t8 74.5v235q0 30 -7.5 45t-21.5 20t-35 5h-3v44h169v-338q0 -68 -19.5 -114t-60 -69.5t-102.5 -23.5z" />
    <glyph glyph-name="uni0196" unicode="&#x196;" horiz-adv-x="328" 
d="M226 -10q-42 0 -68 15.5t-38 47.5t-12 84v463q0 31 -8 45.5t-22 19.5t-32 5h-19v44h269v-44h-18q-17 0 -31.5 -5t-23 -19.5t-8.5 -45.5v-476q0 -27 4.5 -44.5t15 -26.5t28.5 -9q9 0 17.5 1.5t15.5 4.5v-47q-9 -4 -27.5 -8.5t-42.5 -4.5z" />
    <glyph glyph-name="uni0197" unicode="&#x197;" horiz-adv-x="327" 
d="M29 0v44h22q16 0 29.5 5t21.5 19.5t8 42.5v236h-98v53h98v201q0 29 -8 43.5t-21.5 20t-29.5 5.5h-22v44h270v-44h-22q-17 0 -30.5 -5.5t-21 -20t-7.5 -43.5v-201h97v-53h-97v-235q0 -28 7.5 -42.5t21.5 -20t30 -5.5h22v-44h-270z" />
    <glyph glyph-name="uni0198" unicode="&#x198;" horiz-adv-x="614" 
d="M29 0v44h22q16 0 29.5 4.5t21.5 18.5t8 42v496q0 28 -8 42t-21 18.5t-30 4.5h-22v44h267v-44h-20q-17 0 -30 -5t-20.5 -19.5t-7.5 -44.5v-265l191 271q29 41 50 66t40.5 36.5t44.5 11.5q34 0 51 -20t17 -52q0 -19 -6.5 -33t-17 -21.5t-21.5 -7.5q-4 22 -14 36t-32 14
q-15 0 -29 -10t-31 -32l-116 -168l182 -302q17 -28 32 -46t30.5 -26.5t31.5 -8.5h3v-44h-33q-40 0 -67.5 4.5t-45.5 15t-32.5 29t-29.5 46.5l-141 251l-57 -68v-165q0 -30 8 -44.5t21 -19.5t31 -5h18v-44h-267z" />
    <glyph glyph-name="uni0199" unicode="&#x199;" horiz-adv-x="521" 
d="M15 0v44h9q16 0 31 5t25 20t10 45v459q0 66 15.5 109t50 63.5t87.5 20.5q43 0 68 -12t35 -30t10 -38q0 -15 -6.5 -28t-23 -20.5t-46.5 -7.5q0 21 -3 41t-11.5 32t-26.5 12q-26 0 -36.5 -27.5t-10.5 -94.5v-218q0 -13 -0.5 -33t-1.5 -40t-1.5 -34.5t-0.5 -16.5l107 140
q17 21 25.5 35.5t11.5 25t3 17.5q0 13 -10.5 18.5t-32.5 5.5v43h199v-43q-20 0 -39.5 -10.5t-39 -31t-42.5 -50.5l-54 -73l113 -200q23 -40 43 -62t46 -22h4v-44h-12q-42 0 -69.5 3.5t-46.5 13.5t-34.5 31t-33.5 54l-81 155l-53 -62v-84q0 -29 10 -43.5t25 -19t31 -4.5h6
v-44h-249z" />
    <glyph glyph-name="uni019A" unicode="&#x19a;" horiz-adv-x="281" 
d="M12 0v44h12q20 0 34.5 5.5t23 21t8.5 46.5v249h-86v46h86v237q0 30 -10 44t-25 18.5t-31 4.5h-12v44h180v-348h85v-46h-85v-249q0 -31 8 -46.5t23.5 -21t34.5 -5.5h10v-44h-256z" />
    <glyph glyph-name="uni019B" unicode="&#x19b;" horiz-adv-x="473" 
d="M238 518q-5 27 -10.5 49t-10.5 40l-105 -69v54l85 57q-10 22 -21 33t-23 15.5t-25 4.5q-25 0 -42 -12.5t-27 -27.5q-6 7 -10.5 18.5t-4.5 25.5q0 27 21 45.5t58 18.5q25 0 46.5 -9.5t39.5 -29.5t33 -54l108 70v-54l-89 -58q7 -18 13 -37.5t10 -41.5l72 -318
q17 -74 35 -116t37 -60t37 -18h5v-44h-17q-36 0 -60 10.5t-40 37.5t-31 77q-7 29 -14.5 62t-14 66t-11 62t-7.5 51.5t-5 33.5h-3q-4 -16 -12.5 -42t-19 -54.5t-19.5 -51.5l-103 -252h-109z" />
    <glyph glyph-name="uni019C" unicode="&#x19c;" horiz-adv-x="943" 
d="M264 -10q-53 0 -91 21.5t-58.5 68t-20.5 121.5v403q0 29 -7.5 43t-20.5 18.5t-31 4.5h-21v44h261v-44h-18q-17 0 -30 -5t-19.5 -19.5t-6.5 -45.5v-397q0 -53 10 -86t29.5 -48t49.5 -15q40 0 65.5 20t38.5 60t13 99v371q0 29 -6.5 43t-18.5 18.5t-30 4.5h-18v44h251v-44
h-18q-18 0 -30.5 -5t-18.5 -19.5t-6 -45.5v-396q0 -53 10.5 -86t31 -48.5t48.5 -15.5q40 0 66 23.5t38.5 64t12.5 92.5v366q0 31 -7.5 45.5t-21 19.5t-32.5 5h-16v44h263v-44h-20q-18 0 -32 -5t-21 -19.5t-7 -45.5v-486q0 -30 7.5 -45.5t21 -20t30.5 -4.5h21v-44h-168
l-14 90h-2q-23 -45 -56.5 -72.5t-90.5 -27.5q-38 0 -67.5 12.5t-49.5 36.5t-33 60q-15 -32 -35.5 -56.5t-50.5 -38.5t-74 -14z" />
    <glyph glyph-name="uni019D" unicode="&#x19d;" horiz-adv-x="661" 
d="M6 -240v50h8q31 0 52 15.5t31 53t10 104.5v621q0 29 -8 43t-21.5 18.5t-30.5 4.5h-21v44h170l307 -548v438q0 28 -8 42.5t-21 19t-30 4.5h-21v44h218v-44h-21q-17 0 -30.5 -5t-21.5 -20t-8 -45v-600h-65l-331 581v-609q0 -84 -16 -130.5t-46.5 -64t-73.5 -17.5h-22z" />
    <glyph glyph-name="uni019E" unicode="&#x19e;" horiz-adv-x="561" 
d="M302 -240v44h7q20 0 34 5t21.5 20.5t7.5 46.5v467q0 64 -18 100.5t-63 36.5q-35 0 -56 -23t-29.5 -59.5t-8.5 -79.5v-207q0 -30 8 -44t22.5 -18.5t33.5 -4.5h5v-44h-245v44h9q19 0 34 5t23 20.5t8 45.5v310q0 29 -8.5 43.5t-23.5 19t-34 4.5h-4v44h157l12 -79h4
q24 52 57.5 71t75.5 19q67 0 104.5 -46.5t37.5 -149.5v-478q0 -29 7.5 -44.5t21.5 -20t33 -4.5h5v-44h-238z" />
    <glyph glyph-name="uni019F" unicode="&#x19f;" horiz-adv-x="654" 
d="M327 -10q-94 0 -156 46t-92.5 129t-30.5 194t30.5 193t93 127.5t156.5 45.5q89 0 151 -45.5t94.5 -128t32.5 -193.5t-32.5 -193.5t-94.5 -128.5t-152 -46zM327 46q88 0 125 79.5t38 221.5h-326q2 -142 39.5 -221.5t123.5 -79.5zM489 399q-3 86 -20.5 146t-51.5 92t-89 32
q-81 0 -120 -71t-44 -199h325z" />
    <glyph glyph-name="Ohorn" unicode="&#x1a0;" horiz-adv-x="693" 
d="M327 -10q-94 0 -156 46t-92.5 129t-30.5 194t30.5 193t92.5 127.5t157 45.5q85 0 145 -40t93 -111q19 7 31.5 16.5t18.5 22t6 27.5q0 13 -5.5 21t-13 15t-13.5 17t-6 27q0 22 13.5 36t36.5 14q26 0 42 -19.5t16 -56.5q0 -38 -13.5 -68.5t-38 -52.5t-59.5 -36
q12 -37 18.5 -82.5t6.5 -96.5q0 -111 -32.5 -193.5t-94.5 -128.5t-152 -46zM327 46q60 0 95.5 37t51 107t15.5 168q0 99 -15.5 168.5t-51 106t-94.5 36.5q-88 0 -126 -81.5t-38 -229.5q0 -98 16.5 -168t52.5 -107t94 -37z" />
    <glyph glyph-name="ohorn" unicode="&#x1a1;" horiz-adv-x="551" 
d="M253 -10q-97 0 -153 69t-56 210q0 140 53.5 209t158.5 69q63 0 109.5 -28t71.5 -84q25 11 38.5 26.5t13.5 36.5q0 13 -6.5 21t-14 15t-13.5 17t-6 27q0 22 13.5 36t36.5 14q25 0 41.5 -19.5t16.5 -56.5t-13 -67t-36.5 -51.5t-57.5 -35.5q7 -27 10.5 -59t3.5 -70
q0 -141 -53.5 -210t-157.5 -69zM255 44q39 0 62 25.5t33 75.5t10 124q0 111 -24 167t-82 56t-81.5 -56t-23.5 -167q0 -110 24 -167.5t82 -57.5z" />
    <glyph glyph-name="uni01A2" unicode="&#x1a2;" horiz-adv-x="979" 
d="M692 -240v44h16q19 0 33 5t21.5 20.5t7.5 45.5v637q0 70 -21.5 110t-76.5 40q-53 0 -78.5 -46t-25.5 -140v-135q0 -85 -16 -150.5t-48 -110t-79 -67.5t-109 -23q-90 0 -149.5 46t-89 129t-29.5 194t29.5 193t90 127.5t149.5 45.5q54 0 95 -15.5t71.5 -44.5t50.5 -70
q19 55 59 92t103 37q59 0 99.5 -21t61.5 -69.5t21 -130.5v-629q0 -29 7.5 -44t22 -20.5t33.5 -5.5h18v-44h-267zM316 46q36 0 63.5 16.5t45.5 50t27.5 85t9.5 120.5v131q0 75 -17 124t-48 72.5t-77 23.5q-55 0 -89.5 -36.5t-50.5 -106t-16 -168.5q0 -151 36.5 -231.5
t115.5 -80.5z" />
    <glyph glyph-name="uni01A3" unicode="&#x1a3;" horiz-adv-x="766" 
d="M579 367q0 57 -14 85t-48 28q-26 0 -40.5 -18.5t-20.5 -50t-6 -70.5v-75q0 -140 -52 -208t-151 -68q-93 0 -148 68.5t-55 210.5t52.5 210t153.5 68q63 0 105.5 -27.5t66.5 -81.5h2q16 52 46.5 80.5t81.5 28.5q43 0 71.5 -19t43 -58t14.5 -102v-492q0 -31 7.5 -46.5
t21.5 -20.5t33 -5h3v-44h-167v607zM248 44q35 0 57 24.5t32 75t10 125.5q0 113 -23 168t-76 55t-76 -55.5t-23 -167.5t23.5 -168.5t75.5 -56.5z" />
    <glyph glyph-name="uni01A4" unicode="&#x1a4;" horiz-adv-x="621" 
d="M119 0v44h17q19 0 33.5 5t22.5 20t8 45v479q0 42 -14 59.5t-43 17.5q-28 0 -43.5 -18t-15.5 -52q0 -19 5.5 -32t13.5 -25q-7 -8 -16.5 -12.5t-22.5 -4.5q-27 0 -41.5 20t-14.5 51q0 38 17 64t50 39.5t84 13.5h218q113 0 166.5 -55t53.5 -155q0 -45 -12.5 -86t-41 -73
t-75.5 -50t-114 -18h-46v-168q0 -28 9 -42t23.5 -18.5t31.5 -4.5h31v-44h-284zM345 326q37 0 63 9.5t43 30.5t25 54t8 80q0 84 -29.5 124t-96.5 40h-51v-338h38z" />
    <glyph glyph-name="uni01A5" unicode="&#x1a5;" horiz-adv-x="539" 
d="M14 -240v44h8q18 0 33 5t24 20t9 46v695q0 67 16.5 110.5t50.5 64t87 20.5q42 0 67 -11t36.5 -29t11.5 -40q0 -16 -7.5 -29t-24.5 -21t-45 -8q0 26 -4 46.5t-13 32.5t-26 12q-26 0 -36 -26.5t-10 -89.5v-48q0 -29 -1 -56t-3 -50h3q19 44 48.5 71t80.5 27q85 0 130.5 -66
t45.5 -209q0 -145 -44.5 -213t-129.5 -68q-50 0 -80.5 24.5t-50.5 65.5h-4q1 -2 1.5 -13.5t1.5 -29.5t1.5 -38t0.5 -38v-90q0 -29 9 -43.5t24.5 -19t32.5 -4.5h13v-44h-256zM295 50q51 0 73.5 56t22.5 164q0 107 -22.5 161.5t-73.5 54.5q-40 0 -63 -26t-32 -74t-9 -116
q0 -71 9 -120t32.5 -74.5t62.5 -25.5z" />
    <glyph glyph-name="uni01A6" unicode="&#x1a6;" horiz-adv-x="582" 
d="M569 -120q-49 0 -81 7t-53.5 26.5t-39.5 56.5l-110 224h-66v-85q0 -28 8 -42t22 -18.5t32 -4.5h12v-44h-264v44h17q17 0 31.5 4.5t23.5 18.5t9 42v494q0 28 -7 42.5t-20.5 19.5t-31.5 5h-22v44h270v-44h-20q-19 0 -32.5 -5t-20.5 -19.5t-7 -43.5v-13h61q81 0 132 -20.5
t75 -62t24 -104.5q0 -54 -17.5 -91t-46.5 -59.5t-62 -34.5l113 -212q22 -40 41.5 -60.5t44.5 -20.5h4v-44h-19zM267 243q70 0 100 39.5t30 114.5q0 48 -13 79.5t-40.5 47t-72.5 15.5h-52v-296h48z" />
    <glyph glyph-name="uni01A7" unicode="&#x1a7;" horiz-adv-x="481" 
d="M247 -10q-69 0 -115 24.5t-68.5 68.5t-22.5 104q0 55 18.5 94t55 68.5t89.5 54.5q52 25 82 47t42.5 49t12.5 64q0 48 -23 78.5t-69 30.5q-39 0 -61 -19t-31.5 -48.5t-9.5 -62.5q-41 0 -62 16.5t-21 49.5q0 30 20 56t61 42.5t100 16.5q61 0 103 -22.5t63 -63t21 -94.5
t-17 -94.5t-52.5 -71.5t-90.5 -57q-50 -24 -80.5 -46t-44.5 -48.5t-14 -62.5q0 -60 31.5 -89.5t85.5 -29.5q43 0 76 13.5t57.5 37.5t41.5 53q9 -5 15 -16t6 -27q0 -17 -12 -37t-36 -38t-62 -29.5t-89 -11.5z" />
    <glyph glyph-name="uni01A8" unicode="&#x1a8;" horiz-adv-x="400" 
d="M204 -10q-83 0 -125 41t-42 113q0 41 14 70.5t42 52.5t70 42q44 22 69 37.5t35.5 33t10.5 44.5q0 34 -18.5 55t-54.5 21q-41 0 -62.5 -28t-21.5 -79q-33 0 -50 13.5t-17 41.5q0 26 17 48t51 36t83 14q48 0 83 -16t54 -47.5t19 -78.5q0 -42 -15 -71.5t-46 -52t-79 -46.5
q-39 -19 -61 -35t-31 -33.5t-9 -42.5q0 -36 23 -56.5t68 -20.5q35 0 62 12.5t46 32.5t31 44q6 -7 11 -17t5 -25q0 -24 -17 -48t-53 -39.5t-92 -15.5z" />
    <glyph glyph-name="uni01A9" unicode="&#x1a9;" horiz-adv-x="533" 
d="M33 0v53l190 305l-178 319v37h425l5 -178h-55l-5 46q-2 22 -11.5 40t-28 28t-48.5 10h-150l141 -262v-15l-174 -283h206q47 0 68 27t26 68l4 30h55l-5 -225h-465z" />
    <glyph glyph-name="uni01AA" unicode="&#x1aa;" horiz-adv-x="291" 
d="M241 -240q-52 0 -85.5 15.5t-49.5 52.5t-16 100v611q-8 -7 -21 -11t-28 -4q-45 0 -73.5 31t-28.5 85q0 60 34 91.5t90 31.5q65 0 97 -42t32 -130v-678q0 -55 18 -79.5t48 -24.5q16 0 28.5 2t26.5 5v-43q-11 -5 -31.5 -9t-40.5 -4zM40 577q21 0 35.5 16t14.5 48t-14.5 49
t-35.5 17q-25 0 -38 -18t-13 -48t13.5 -47t37.5 -17z" />
    <glyph glyph-name="uni01AB" unicode="&#x1ab;" horiz-adv-x="323" 
d="M212 -203q-29 0 -47 14.5t-18 42.5q0 12 4 20.5t9 15.5q9 -8 19 -12t24 -4q24 0 37 17t13 60v90h50v-89q0 -47 -9.5 -82t-29.5 -54t-52 -19zM208 -10q-63 0 -94.5 34.5t-31.5 121.5v337h-65v37q24 3 43 13t32 26q13 15 22.5 38t15.5 62h54v-123h111v-53h-111v-336
q0 -51 14.5 -74.5t45.5 -23.5q17 0 31.5 2.5t28.5 5.5v-49q-14 -6 -39 -12t-57 -6z" />
    <glyph glyph-name="uni01AC" unicode="&#x1ac;" horiz-adv-x="550" 
d="M138 0v44h24q18 0 32 4.5t23 19t9 42.5v552h-73q-21 0 -37.5 -7.5t-25.5 -22.5t-9 -40q0 -18 5 -31.5t15 -26.5q-8 -8 -17.5 -12.5t-22.5 -4.5q-26 0 -41 20t-15 56q0 39 17.5 66t51 41t82.5 14h377l4 -178h-50l-5 46q-3 33 -18 56.5t-53 23.5h-77v-548q0 -30 8.5 -45
t23.5 -20t32 -5h23v-44h-283z" />
    <glyph glyph-name="uni01AD" unicode="&#x1ad;" horiz-adv-x="323" 
d="M202 -10q-38 0 -65 15t-41 49t-14 92v337h-65v37q35 5 57 22.5t35.5 46.5t19.5 65q7 33 19 57.5t31.5 37.5t46.5 13q35 0 51 -15.5t16 -40.5q0 -14 -7.5 -24t-16.5 -16q-8 11 -17 18t-24 7q-21 0 -32.5 -17t-11.5 -55v-83h111v-53h-111v-336q0 -51 14.5 -74.5t45.5 -23.5
q17 0 31.5 2.5t28.5 5.5v-49q-14 -6 -40.5 -12t-61.5 -6z" />
    <glyph glyph-name="uni01AE" unicode="&#x1ae;" horiz-adv-x="541" 
d="M361 -240q-77 0 -111 38t-34 120v744h-77q-37 0 -52 -23.5t-18 -56.5l-5 -46h-50l4 178h505l4 -178h-49l-6 46q-2 22 -9 40t-21.5 29t-40.5 11h-77v-759q0 -47 15.5 -68t47.5 -21q15 0 27 2.5t22 5.5v-46q-11 -5 -32.5 -10.5t-42.5 -5.5z" />
    <glyph glyph-name="Uhorn" unicode="&#x1af;" horiz-adv-x="688" 
d="M319 -10q-71 0 -121 22.5t-77 72.5t-27 131v388q0 29 -7.5 43t-19.5 18.5t-28 4.5h-26v44h270v-44h-25q-16 0 -28.5 -5t-20 -19.5t-7.5 -45.5v-390q0 -86 37.5 -122t98.5 -36q45 0 75 19.5t45.5 54.5t15.5 81v397q0 29 -7.5 43t-19.5 18.5t-28 4.5h-25v44h138v-146
q26 6 44.5 15.5t29 23.5t10.5 33q0 13 -6 21t-13.5 15t-13.5 17t-6 27q0 22 13.5 36t35.5 14q26 0 42 -19.5t16 -56.5q0 -32 -10.5 -60t-30 -49.5t-48 -35.5t-63.5 -20v-323q0 -66 -23.5 -114.5t-70.5 -75t-119 -26.5z" />
    <glyph glyph-name="uhorn" unicode="&#x1b0;" horiz-adv-x="613" 
d="M231 -10q-70 0 -106.5 47t-36.5 149v238q0 29 -8 44t-22.5 19.5t-33.5 4.5h-3v44h170v-341q0 -44 7 -74.5t24 -47t48 -16.5q33 0 54.5 20t31 56.5t9.5 84.5v203q0 32 -8.5 47t-23 19.5t-32.5 4.5h-3v44h169v-110q26 6 44.5 15.5t28.5 23.5t10 33q0 13 -6 21t-13.5 15
t-13.5 17t-6 27q0 22 14 36t36 14q26 0 42 -19.5t16 -56.5q0 -32 -10.5 -60t-30.5 -49.5t-48 -35.5t-63 -20v-276q0 -30 9 -44.5t24 -18.5t32 -4h5v-44h-152l-14 79h-4q-17 -35 -38 -54.5t-45.5 -27t-52.5 -7.5z" />
    <glyph glyph-name="uni01B1" unicode="&#x1b1;" horiz-adv-x="654" 
d="M327 -10q-90 0 -152.5 45t-94.5 124.5t-32 181.5q0 56 7 100.5t17.5 78.5t21.5 57q9 21 15 38t6 27q0 13 -9.5 20.5t-39.5 7.5h-16v44h201v-44q-31 -44 -50 -97.5t-28 -112t-9 -119.5q0 -89 17 -155t52.5 -103t93.5 -37q60 0 95.5 36.5t51 103t15.5 155.5
q0 61 -8.5 119.5t-27.5 112t-50 97.5v44h200v-44h-16q-29 0 -39 -7.5t-10 -20.5q0 -10 6 -27.5t15 -37.5q11 -22 21.5 -56.5t18 -79t7.5 -100.5q0 -102 -32.5 -181.5t-94.5 -124.5t-152 -45z" />
    <glyph glyph-name="uni01B2" unicode="&#x1b2;" horiz-adv-x="617" 
d="M277 -10q-65 0 -105.5 25.5t-59 74t-18.5 116.5v398q0 29 -8 43t-21.5 18.5t-31.5 4.5h-20v44h270v-44h-19q-18 0 -32 -5t-22 -19.5t-8 -45.5v-417q0 -64 21.5 -98t64.5 -34q38 0 71.5 25t61.5 69t48.5 101.5t31.5 123.5t11 135q0 51 -11.5 83t-35.5 47t-64 15
q0 37 20 56t50 19t53 -20t36.5 -64.5t13.5 -118.5q0 -82 -14 -160.5t-40 -146t-62.5 -118t-82 -79t-98.5 -28.5z" />
    <glyph glyph-name="uni01B3" unicode="&#x1b3;" horiz-adv-x="608" 
d="M138 0v44h25q18 0 32.5 4.5t23.5 19t9 43.5v181l-158 325q-9 20 -17 31.5t-18.5 16.5t-26.5 5h-11v44h256v-44h-22q-25 0 -34.5 -10t-9.5 -24q0 -12 4.5 -27t10.5 -26l63 -135q15 -31 25.5 -57.5t17.5 -49.5q9 21 21 50t27 62l49 113q21 46 37.5 80.5t39 54t57.5 19.5
q33 0 50.5 -15.5t17.5 -40.5q0 -20 -10.5 -34t-25.5 -19q-3 14 -12.5 22.5t-24.5 8.5q-18 0 -30.5 -13.5t-25 -39t-31.5 -64.5l-110 -233v-177q0 -31 8.5 -46t23 -20t31.5 -5h27v-44h-289z" />
    <glyph glyph-name="uni01B4" unicode="&#x1b4;" horiz-adv-x="540" 
d="M29 -191q43 0 74 13t52.5 37.5t37 59.5t27.5 79l-156 442q-7 20 -14.5 30.5t-18 14.5t-23.5 4h-6v47h223v-44h-7q-25 0 -36.5 -10t-11.5 -27q0 -11 4 -26t10 -35l52 -160q10 -29 17.5 -55.5t13 -49t7.5 -38.5q6 29 13 57t15 57l53 184q14 48 29.5 83.5t38 55t56.5 19.5
q31 0 47 -17t16 -43q0 -17 -7 -28.5t-15 -17.5q-6 13 -16.5 22t-28.5 9q-28 0 -42.5 -30t-28.5 -75l-113 -364q-23 -75 -43 -122t-45.5 -73.5t-64 -37t-98.5 -10.5h-11v49z" />
    <glyph glyph-name="uni01B5" unicode="&#x1b5;" horiz-adv-x="535" 
d="M33 0v42l159 306h-117v51h146l137 263h-182q-39 0 -53.5 -24.5t-16.5 -58.5l-5 -45h-52l5 180h429v-43l-143 -272h122v-51h-151l-155 -296h207q29 0 46 12t24 31.5t9 41.5l4 43h52l-4 -180h-461z" />
    <glyph glyph-name="uni01B6" unicode="&#x1b6;" horiz-adv-x="445" 
d="M28 0v40l120 210h-88v49h119l103 184h-121q-34 0 -47.5 -18.5t-23.5 -58.5l-4 -15h-43l10 145h347v-41l-113 -196h92v-49h-123l-111 -197h146q22 0 35.5 9.5t21.5 28.5t12 46l5 28h42l-5 -165h-374z" />
    <glyph glyph-name="uni01B7" unicode="&#x1b7;" horiz-adv-x="518" 
d="M237 -10q-57 0 -96.5 11t-63 30t-33.5 41t-10 44q0 28 10.5 44.5t28.5 24.5t41 8q0 -39 12.5 -73t40 -54.5t71.5 -20.5q40 0 69 16t46 50.5t17 90.5q0 49 -16.5 82t-47.5 50t-78 17h-56v43l181 238h-163q-36 0 -50.5 -12t-18.5 -52l-2 -21h-47l6 167h371v-49l-199 -258
q54 -1 96 -14t71 -38.5t44 -63.5t15 -88q0 -74 -31.5 -121t-85.5 -69.5t-122 -22.5z" />
    <glyph glyph-name="uni01B8" unicode="&#x1b8;" horiz-adv-x="519" 
d="M276 -10q-67 0 -120 21.5t-83.5 68t-30.5 118.5q0 69 29 115t80.5 69.5t120.5 24.5l-202 260v47h371l6 -168h-49l-2 22q-1 27 -8 40.5t-21 18.5t-39 5h-161l182 -239v-42h-60q-67 0 -103.5 -37.5t-36.5 -111.5q0 -57 17 -91t47.5 -49.5t70.5 -15.5q43 0 73.5 15
t51.5 38.5t34 50.5q14 -4 24 -14.5t10 -32.5q0 -18 -12.5 -37.5t-37 -36.5t-62.5 -28t-89 -11z" />
    <glyph glyph-name="uni01B9" unicode="&#x1b9;" horiz-adv-x="481" 
d="M264 -240q-48 0 -88.5 14t-70.5 43.5t-46.5 73t-16.5 103.5q0 55 14.5 96.5t41 70t63 45t80.5 20.5l-175 256v54h343l7 -161h-44l-3 15q-5 38 -17.5 51.5t-45.5 13.5h-150l161 -242v-41h-17q-53 0 -87.5 -21.5t-51 -60.5t-16.5 -93q0 -59 15 -99.5t44 -61t69 -20.5
q35 0 60.5 12t44 33.5t30.5 48.5q16 -6 23.5 -16.5t7.5 -26.5q0 -25 -19 -49.5t-58 -41t-98 -16.5z" />
    <glyph glyph-name="uni01BA" unicode="&#x1ba;" horiz-adv-x="436" 
d="M193 -240q-35 0 -65 7t-52 21t-34.5 37.5t-12.5 55.5q0 40 15.5 64.5t47.5 39t82 22.5q44 9 70.5 23t38.5 38t12 61q0 32 -12 57.5t-40 40t-73 14.5h-18v42l132 172h-133q-23 0 -35.5 -6.5t-18.5 -20.5t-10 -38l-4 -15h-43l7 161h329v-54l-150 -187q59 -2 97 -23t56 -56
t18 -80q0 -39 -12 -68.5t-36 -50.5t-60.5 -35t-85.5 -22q-35 -6 -55.5 -15.5t-29.5 -24.5t-9 -37q0 -32 22.5 -49.5t68.5 -17.5q53 0 89.5 21.5t59.5 61.5q7 -6 11.5 -15.5t4.5 -23.5q0 -27 -20 -49.5t-58 -36.5t-94 -14z" />
    <glyph glyph-name="uni01BB" unicode="&#x1bb;" horiz-adv-x="476" 
d="M36 0v78l134 192q19 25 34 47.5t28 42.5h-168v49h198q22 45 31 83t9 85q0 42 -9.5 71.5t-28 44.5t-45.5 15q-32 0 -51 -19t-27.5 -53.5t-8.5 -80.5q-24 0 -44 7t-31.5 23t-11.5 44q0 37 19 66.5t58.5 46.5t99.5 17q90 0 138 -47t48 -130q0 -31 -6 -59t-18.5 -55.5
t-33.5 -58.5h78v-49h-114q-13 -18 -32.5 -38t-38 -42t-33.5 -47l-99 -148h201q22 0 36.5 10t23 26.5t12.5 36.5l5 22h42l-4 -180h-391z" />
    <glyph glyph-name="uni01BC" unicode="&#x1bc;" horiz-adv-x="489" 
d="M217 -10q-42 0 -76.5 10.5t-58.5 29.5t-37 44t-13 55q0 37 19.5 55t52.5 18q1 -50 13 -85t37.5 -53t65.5 -18q56 0 86.5 44t30.5 127q0 46 -10 77.5t-29.5 51t-46 28.5t-58.5 9h-90v220q0 30 -7.5 44t-21 18.5t-31.5 4.5h-11v44h386l4 -177h-45l-7 45q-3 23 -10 41
t-22 28.5t-42 10.5h-86v-225h28q63 0 109 -23.5t71 -72t25 -123.5q0 -48 -12 -85t-33.5 -64t-50.5 -44.5t-61.5 -26t-68.5 -8.5z" />
    <glyph glyph-name="uni01BD" unicode="&#x1bd;" horiz-adv-x="423" 
d="M184 -10q-48 0 -82.5 14.5t-53 40t-18.5 58.5q0 22 8 36t22.5 21t31.5 7q0 -41 9.5 -68.5t29.5 -41t48 -13.5q48 0 73 31t25 90q0 44 -14 69t-37.5 35.5t-53.5 10.5h-89v153q0 22 -4.5 34.5t-15.5 18.5t-32 6v44h330l4 -137h-41l-3 19q-3 22 -8.5 37.5t-16 23.5t-29.5 8
h-82v-159h30q50 0 87 -17t57 -52t20 -91q0 -90 -51.5 -134t-143.5 -44z" />
    <glyph glyph-name="uni01BE" unicode="&#x1be;" horiz-adv-x="396" 
d="M191 -10q-56 0 -92 15.5t-53 42t-17 58.5q0 22 9 36t24.5 21t33.5 7q0 -38 9.5 -66t30.5 -44t54 -16q43 0 64.5 22.5t21.5 61.5q0 24 -9.5 40.5t-26 29.5t-38.5 26q-28 18 -48.5 37t-31 48.5t-10.5 77.5v96h-65v37q21 1 40.5 11t32.5 27q15 18 24 40.5t15 60.5h54v-123
h112v-53h-112v-78q0 -32 6.5 -51t18.5 -31t30 -23q28 -19 48.5 -38t31.5 -45.5t11 -66.5q0 -53 -20.5 -88.5t-58.5 -53.5t-89 -18z" />
    <glyph glyph-name="uni01BF" unicode="&#x1bf;" horiz-adv-x="538" 
d="M14 -240v44h8q18 0 33 5t24 20t9 46v549q0 30 -9 44.5t-23.5 19t-31.5 4.5h-10v44h158l12 -84h4q18 41 51 67.5t85 26.5q58 0 95.5 -27t56 -75.5t18.5 -114.5q0 -57 -15 -106.5t-42 -90t-65 -71t-83.5 -50t-97.5 -25.5v-115q0 -29 9 -43.5t23.5 -19t32.5 -4.5h16v-44
h-258zM191 38q46 8 83 31t62.5 59t39.5 86.5t14 113.5q0 44 -9 80t-29.5 56.5t-55.5 20.5q-37 0 -60.5 -23t-34 -70t-10.5 -119v-235z" />
    <glyph glyph-name="uni01C0" unicode="&#x1c0;" horiz-adv-x="380" 
d="M155 0v760h70v-760h-70z" />
    <glyph glyph-name="uni01C1" unicode="&#x1c1;" horiz-adv-x="507" 
d="M292 0v760h71v-760h-71zM144 0v760h69v-760h-69z" />
    <glyph glyph-name="uni01C2" unicode="&#x1c2;" horiz-adv-x="473" 
d="M202 0v262h-159v69h159v96h-159v69h159v264h69v-264h159v-69h-159v-96h159v-69h-159v-262h-69z" />
    <glyph glyph-name="uni01C3" unicode="&#x1c3;" horiz-adv-x="304" 
d="M128 212l-34 502h120l-34 -502h-52zM154 -7q-25 0 -42 14.5t-17 52.5q0 37 17 51.5t43 14.5q23 0 41 -14.5t18 -51.5q0 -38 -18 -52.5t-42 -14.5z" />
    <glyph glyph-name="uni01C4" unicode="&#x1c4;" horiz-adv-x="1174" 
d="M29 0v44h22q17 0 30.5 5.5t21 20.5t7.5 43v491q0 28 -8 42t-22 19t-32 5h-19v44h272q91 0 156 -41t99.5 -120t34.5 -193q0 -109 -32.5 -190t-97 -125.5t-160.5 -44.5h-272zM281 53q64 0 107 35.5t64.5 104t21.5 167.5t-21.5 166t-64.5 101.5t-106 34.5h-64v-609h63z
M672 0v42l325 620h-182q-39 0 -53.5 -24.5t-16.5 -58.5l-5 -45h-52l5 180h429v-43l-327 -619h207q29 0 46 12t24 31.5t9 41.5l4 43h52l-4 -180h-461zM868 771q-9 23 -25 49.5t-33.5 52.5t-31.5 45v13h44q15 -14 31.5 -30.5t33 -34t29.5 -34.5q13 17 28.5 34.5t32.5 34
t32 30.5h44v-13q-13 -19 -30.5 -45t-33 -52.5t-25.5 -49.5h-96z" />
    <glyph glyph-name="uni01C5" unicode="&#x1c5;" horiz-adv-x="1084" 
d="M29 0v44h22q17 0 30.5 5.5t21 20.5t7.5 43v491q0 28 -8 42t-22 19t-32 5h-19v44h272q91 0 156 -41t99.5 -120t34.5 -193q0 -109 -32.5 -190t-97 -125.5t-160.5 -44.5h-272zM281 53q64 0 107 35.5t64.5 104t21.5 167.5t-21.5 166t-64.5 101.5t-106 34.5h-64v-609h63z
M667 0v40l254 443h-121q-34 0 -47.5 -18.5t-23.5 -58.5l-4 -15h-43l10 145h347v-41l-255 -442h146q34 0 48 21.5t21 62.5l5 28h42l-5 -165h-374zM824 606q-9 23 -25 49.5t-33.5 52.5t-31.5 45v13h44q15 -14 31.5 -30.5t33 -34t29.5 -34.5q13 17 28.5 34.5t32.5 34t32 30.5
h44v-13q-13 -19 -30.5 -45t-33 -52.5t-25.5 -49.5h-96z" />
    <glyph glyph-name="uni01C6" unicode="&#x1c6;" horiz-adv-x="985" 
d="M217 -10q-56 0 -94.5 29t-59 90.5t-20.5 157.5q0 97 20.5 158.5t59.5 91t95 29.5q50 0 80 -23.5t48 -61.5h5q-2 24 -2.5 52t-0.5 56v80q0 30 -10 44t-25.5 18.5t-34.5 4.5h-7v44h179v-645q0 -29 8.5 -45t24 -21t34.5 -5h8v-44h-157l-14 88h-3q-20 -45 -51.5 -71.5
t-82.5 -26.5zM243 51q58 0 81.5 57t23.5 159q0 106 -22.5 162.5t-82.5 56.5q-34 0 -55 -25.5t-30.5 -74.5t-9.5 -120q0 -108 22 -161.5t73 -53.5zM568 0v40l254 443h-121q-34 0 -47.5 -18.5t-23.5 -58.5l-4 -15h-43l10 145h347v-41l-255 -442h146q34 0 48 21.5t21 62.5l5 28
h42l-5 -165h-374zM722 606q-9 23 -25 49.5t-33.5 52.5t-31.5 45v13h44q15 -14 31.5 -30.5t33 -34t29.5 -34.5q13 17 28.5 34.5t32.5 34t32 30.5h44v-13q-13 -19 -30.5 -45t-33 -52.5t-25.5 -49.5h-96z" />
    <glyph glyph-name="uni01C7" unicode="&#x1c7;" horiz-adv-x="857" 
d="M535 -240v49h11q33 0 58.5 16.5t40 57t14.5 109.5v613q0 27 -8 41t-21.5 19t-29.5 5h-21v44h269v-44h-21q-16 0 -30 -5.5t-22 -20t-8 -43.5v-608q0 -67 -17 -112t-46 -71.5t-66.5 -38t-80.5 -11.5h-22zM29 0v44h22q16 0 29.5 5t21.5 19.5t8 42.5v491q0 29 -8 43.5
t-22 19.5t-32 5h-19v44h270v-44h-20q-19 0 -33 -5t-21 -19t-7 -41v-553h165q24 0 39 11t24 31.5t12 46.5l11 75h45l-6 -216h-479z" />
    <glyph glyph-name="uni01C8" unicode="&#x1c8;" horiz-adv-x="820" 
d="M29 0v44h22q16 0 29.5 5t21.5 19.5t8 42.5v491q0 29 -8 43.5t-22 19.5t-32 5h-19v44h270v-44h-20q-19 0 -33 -5t-21 -19t-7 -41v-553h165q24 0 39 11t24 31.5t12 46.5l11 75h45l-6 -216h-479zM537 -240v50h5q31 0 53 16t33.5 56t11.5 111v431q0 30 -9 44.5t-24 19
t-34 4.5h-6v44h175v-544q0 -89 -24.5 -140t-67 -71.5t-99.5 -20.5h-14zM687 637q-25 0 -42.5 14t-17.5 47q0 34 17.5 47.5t42.5 13.5q24 0 42 -13.5t18 -47.5q0 -33 -18 -47t-42 -14z" />
    <glyph glyph-name="uni01C9" unicode="&#x1c9;" horiz-adv-x="555" 
d="M274 -240v50h5q31 0 53 16t33.5 56t11.5 111v431q0 30 -9 44.5t-24 19t-34 4.5h-6v44h175v-544q0 -89 -24.5 -140t-67 -71.5t-99.5 -20.5h-14zM424 637q-25 0 -42.5 14t-17.5 47q0 34 17.5 47.5t42.5 13.5q24 0 42 -13.5t18 -47.5q0 -33 -18 -47t-42 -14zM12 0v44h12
q19 0 34 5.5t23 21t8 46.5v533q0 29 -9.5 43t-25 18.5t-31.5 4.5h-11v44h180v-643q0 -31 8 -46.5t23.5 -21t34.5 -5.5h10v-44h-256z" />
    <glyph glyph-name="uni01CA" unicode="&#x1ca;" horiz-adv-x="975" 
d="M653 -240v49h11q33 0 58.5 16.5t40 57t14.5 109.5v613q0 27 -8 41t-21.5 19t-29.5 5h-21v44h269v-44h-21q-16 0 -30 -5.5t-22 -20t-8 -43.5v-608q0 -67 -17 -112t-46 -71.5t-66.5 -38t-80.5 -11.5h-22zM29 0v44h15q20 0 35 5t23 20t8 45v490q0 29 -8.5 43t-22.5 18.5
t-32 4.5h-18v44h178l299 -547v437q0 28 -8 42t-22.5 19t-32.5 5h-17v44h218v-44h-18q-18 0 -32.5 -5.5t-22.5 -20t-8 -44.5v-600h-73l-323 581v-467q0 -30 8 -45t22 -20t33 -5h18v-44h-219z" />
    <glyph glyph-name="uni01CB" unicode="&#x1cb;" horiz-adv-x="939" 
d="M29 0v44h15q20 0 35 5t23 20t8 45v490q0 29 -8.5 43t-22.5 18.5t-32 4.5h-18v44h178l299 -547v437q0 28 -8 42t-22.5 19t-32.5 5h-17v44h218v-44h-18q-18 0 -32.5 -5.5t-22.5 -20t-8 -44.5v-600h-73l-323 581v-467q0 -30 8 -45t22 -20t33 -5h18v-44h-219zM656 -240v50h5
q31 0 53 16t33.5 56t11.5 111v431q0 30 -9 44.5t-24 19t-34 4.5h-6v44h175v-544q0 -89 -24.5 -140t-67 -71.5t-99.5 -20.5h-14zM806 637q-25 0 -42.5 14t-17.5 47q0 34 17.5 47.5t42.5 13.5q24 0 42 -13.5t18 -47.5q0 -33 -18 -47t-42 -14z" />
    <glyph glyph-name="uni01CC" unicode="&#x1cc;" horiz-adv-x="836" 
d="M553 -240v50h5q31 0 53 16t33.5 56t11.5 111v431q0 30 -9 44.5t-24 19t-34 4.5h-6v44h175v-544q0 -89 -24.5 -140t-67 -71.5t-99.5 -20.5h-14zM703 637q-25 0 -42.5 14t-17.5 47q0 34 17.5 47.5t42.5 13.5q24 0 42 -13.5t18 -47.5q0 -33 -18 -47t-42 -14zM23 0v44h6
q20 0 35 5t24 20.5t9 45.5v310q0 29 -8.5 43.5t-23 19t-33.5 4.5h-5v44h157l12 -79h4q22 49 54 69.5t79 20.5q68 0 105 -47t37 -149v-235q0 -31 7.5 -46.5t21.5 -20.5t32 -5h5v-44h-168v343q0 64 -17.5 100.5t-62.5 36.5q-35 0 -56 -23t-29.5 -60t-8.5 -79v-207q0 -30 8 -44
t23 -18.5t33 -4.5h5v-44h-245z" />
    <glyph glyph-name="uni01CD" unicode="&#x1cd;" horiz-adv-x="623" 
d="M2 0v44h14q16 0 27 6t20.5 22.5t18.5 48.5l189 593h88l191 -620q6 -19 14 -30t20.5 -15.5t29.5 -4.5h9v-44h-256v44h22q24 0 36 10t12 30q0 7 -1 15.5t-3.5 18t-5.5 18.5l-30 103h-218l-27 -95l-4.5 -18t-4.5 -19.5t-2 -18.5q0 -20 12 -32t39 -12h25v-44h-215zM197 291
h184l-53 187q-7 28 -14.5 53.5t-13 48t-9.5 42.5l-10.5 -42t-11.5 -45t-14 -49zM269 771q-9 23 -25 49.5t-33.5 52.5t-31.5 45v13h44q15 -14 31.5 -30.5t33 -34t29.5 -34.5q13 17 28.5 34.5t32.5 34t32 30.5h44v-13q-13 -19 -30.5 -45t-33 -52.5t-25.5 -49.5h-96z" />
    <glyph glyph-name="uni01CE" unicode="&#x1ce;" horiz-adv-x="497" 
d="M173 -10q-37 0 -67 17.5t-47.5 53t-17.5 90.5q0 80 48 118t146 42l71 3v59q0 38 -5.5 65t-20.5 42t-46 15q-28 0 -43.5 -13.5t-21 -38t-5.5 -57.5q-44 0 -65.5 15.5t-21.5 47.5q0 33 21.5 54.5t58.5 32.5t84 11q83 0 125 -39.5t42 -133.5v-258q0 -28 5.5 -43.5t17 -22
t31.5 -6.5h2v-44h-135l-15 83h-7q-18 -27 -35.5 -48.5t-40 -33t-58.5 -11.5zM206 48q32 0 54 18.5t34.5 51t12.5 73.5v80l-48 -3q-42 -2 -67 -16.5t-35.5 -41t-10.5 -65.5q0 -30 6.5 -52t20 -33.5t33.5 -11.5zM197 606q-9 23 -25 49.5t-33.5 52.5t-31.5 45v13h44
q15 -14 31.5 -30.5t33 -34t29.5 -34.5q13 17 28.5 34.5t32.5 34t32 30.5h44v-13q-13 -19 -30.5 -45t-33 -52.5t-25.5 -49.5h-96z" />
    <glyph glyph-name="uni01CF" unicode="&#x1cf;" horiz-adv-x="327" 
d="M29 0v44h22q16 0 29.5 5t21.5 19.5t8 42.5v490q0 29 -8 43.5t-21.5 20t-29.5 5.5h-22v44h270v-44h-22q-17 0 -30.5 -5.5t-21 -20t-7.5 -43.5v-489q0 -28 7.5 -42.5t21.5 -20t30 -5.5h22v-44h-270zM116 771q-9 23 -25 49.5t-33.5 52.5t-31.5 45v13h44q15 -14 31.5 -30.5
t33 -34t29.5 -34.5q13 17 28.5 34.5t32.5 34t32 30.5h44v-13q-13 -19 -30.5 -45t-33 -52.5t-25.5 -49.5h-96z" />
    <glyph glyph-name="uni01D0" unicode="&#x1d0;" horiz-adv-x="287" 
d="M88 606q-9 23 -25 49.5t-33.5 52.5t-31.5 45v13h44q15 -14 31.5 -30.5t33 -34t29.5 -34.5q13 17 28.5 34.5t32.5 34t32 30.5h44v-13q-13 -19 -30.5 -45t-33 -52.5t-25.5 -49.5h-96zM17 0v44h11q20 0 34.5 5t23.5 20t9 44v310q0 29 -8.5 44t-22.5 20t-33 5h-9v44h175v-419
q0 -31 8 -46.5t23.5 -21t34.5 -5.5h11v-44h-257z" />
    <glyph glyph-name="uni01D1" unicode="&#x1d1;" horiz-adv-x="654" 
d="M327 -10q-94 0 -156 46t-92.5 129t-30.5 194t30.5 193t93 127.5t156.5 45.5q89 0 151 -45.5t94.5 -128t32.5 -193.5t-32.5 -193.5t-94.5 -128.5t-152 -46zM327 46q60 0 95.5 37t51 107t15.5 168q0 99 -15.5 168.5t-51 106t-94.5 36.5q-88 0 -126 -81.5t-38 -229.5
q0 -98 16.5 -168t52.5 -107t94 -37zM279 771q-9 23 -25 49.5t-33.5 52.5t-31.5 45v13h44q15 -14 31.5 -30.5t33 -34t29.5 -34.5q13 17 28.5 34.5t32.5 34t32 30.5h44v-13q-13 -19 -30.5 -45t-33 -52.5t-25.5 -49.5h-96z" />
    <glyph glyph-name="uni01D2" unicode="&#x1d2;" horiz-adv-x="509" 
d="M253 -10q-97 0 -153 69t-56 210q0 140 54 209t158 69q97 0 152.5 -69t55.5 -209q0 -141 -53.5 -210t-157.5 -69zM255 44q39 0 62 25.5t33 75.5t10 124q0 112 -24 167.5t-82 55.5q-57 0 -81 -55.5t-24 -167.5q0 -111 24.5 -168t81.5 -57zM206 606q-9 23 -25 49.5
t-33.5 52.5t-31.5 45v13h44q15 -14 31.5 -30.5t33 -34t29.5 -34.5q13 17 28.5 34.5t32.5 34t32 30.5h44v-13q-13 -19 -30.5 -45t-33 -52.5t-25.5 -49.5h-96z" />
    <glyph glyph-name="uni01D3" unicode="&#x1d3;" horiz-adv-x="626" 
d="M317 -10q-68 0 -118.5 22.5t-77.5 72.5t-27 132v387q0 29 -9 43t-24 18.5t-34 4.5h-14v44h270v-44h-13q-20 0 -35 -5t-24 -19.5t-9 -45.5v-390q0 -87 38 -122.5t99 -35.5q45 0 75 20t45 55t15 82v395q0 29 -9 43t-23.5 18.5t-34.5 4.5h-13v44h219v-44h-14q-19 0 -34 -5
t-24 -19.5t-9 -45.5v-393q0 -66 -23.5 -115t-71.5 -75.5t-120 -26.5zM286 771q-9 23 -25 49.5t-33.5 52.5t-31.5 45v13h44q15 -14 31.5 -30.5t33 -34t29.5 -34.5q13 17 28.5 34.5t32.5 34t32 30.5h44v-13q-13 -19 -30.5 -45t-33 -52.5t-25.5 -49.5h-96z" />
    <glyph glyph-name="uni01D4" unicode="&#x1d4;" horiz-adv-x="558" 
d="M231 -10q-72 0 -108 47t-36 149v238q0 30 -7.5 44.5t-22 19t-34.5 4.5h-3v44h170v-341q0 -45 6.5 -76t24 -46.5t48.5 -15.5q34 0 55 20t30.5 56.5t9.5 84.5v203q0 32 -8 47t-22.5 19.5t-32.5 4.5h-3v44h168v-425q0 -30 9 -44t24 -18.5t32 -4.5h5v-44h-152l-14 79h-4
q-24 -51 -57.5 -70t-77.5 -19zM218 606q-9 23 -25 49.5t-33.5 52.5t-31.5 45v13h44q15 -14 31.5 -30.5t33 -34t29.5 -34.5q13 17 28.5 34.5t32.5 34t32 30.5h44v-13q-13 -19 -30.5 -45t-33 -52.5t-25.5 -49.5h-96z" />
    <glyph glyph-name="uni01D5" unicode="&#x1d5;" horiz-adv-x="626" 
d="M209 940v61h247v-61h-247zM247 777q-20 0 -33.5 13t-13.5 45t13.5 44t33.5 12q19 0 33 -12t14 -44t-14 -45t-33 -13zM417 777q-20 0 -33.5 13t-13.5 45t13.5 44t33.5 12q18 0 32.5 -12t14.5 -45q0 -31 -14.5 -44t-32.5 -13zM317 -10q-68 0 -118.5 22.5t-77.5 72.5
t-27 132v387q0 29 -9 43t-24 18.5t-34 4.5h-14v44h270v-44h-13q-20 0 -35 -5t-24 -19.5t-9 -45.5v-390q0 -87 38 -122.5t99 -35.5q45 0 75 20t45 55t15 82v395q0 29 -9 43t-23.5 18.5t-34.5 4.5h-13v44h219v-44h-14q-19 0 -34 -5t-24 -19.5t-9 -45.5v-393q0 -66 -23.5 -115
t-71.5 -75.5t-120 -26.5z" />
    <glyph glyph-name="uni01D6" unicode="&#x1d6;" horiz-adv-x="558" 
d="M144 775v61h247v-61h-247zM182 612q-19 0 -33 13t-14 45t14 44t33 12t33 -12t14 -44t-14 -45t-33 -13zM352 612q-20 0 -33.5 13t-13.5 45t13.5 44t33.5 12q18 0 32.5 -12t14.5 -45q0 -31 -14.5 -44t-32.5 -13zM231 -10q-72 0 -108 47t-36 149v238q0 30 -7.5 44.5t-22 19
t-34.5 4.5h-3v44h170v-341q0 -45 6.5 -76t24 -46.5t48.5 -15.5q34 0 55 20t30.5 56.5t9.5 84.5v203q0 32 -8 47t-22.5 19.5t-32.5 4.5h-3v44h168v-425q0 -30 9 -44t24 -18.5t32 -4.5h5v-44h-152l-14 79h-4q-24 -51 -57.5 -70t-77.5 -19z" />
    <glyph glyph-name="uni01D7" unicode="&#x1d7;" horiz-adv-x="626" 
d="M303 903q12 20 24 44.5t23 49t17 42.5h105v-10q-8 -12 -22.5 -30.5t-32.5 -38.5t-37 -38t-37 -31h-40v12zM247 769q-20 0 -33.5 13t-13.5 44q0 32 13.5 44.5t33.5 12.5q19 0 33 -12.5t14 -44.5q0 -31 -14 -44t-33 -13zM417 769q-20 0 -34 13t-14 44q0 32 14 44.5t34 12.5
q18 0 32.5 -12.5t14.5 -44.5t-14.5 -44.5t-32.5 -12.5zM317 -10q-68 0 -118.5 22.5t-77.5 72.5t-27 132v387q0 29 -9 43t-24 18.5t-34 4.5h-14v44h270v-44h-13q-20 0 -35 -5t-24 -19.5t-9 -45.5v-390q0 -87 38 -122.5t99 -35.5q45 0 75 20t45 55t15 82v395q0 29 -9 43
t-23.5 18.5t-34.5 4.5h-13v44h219v-44h-14q-19 0 -34 -5t-24 -19.5t-9 -45.5v-393q0 -66 -23.5 -115t-71.5 -75.5t-120 -26.5z" />
    <glyph glyph-name="uni01D8" unicode="&#x1d8;" horiz-adv-x="558" 
d="M239 738q11 20 23.5 44.5t23 49t17.5 42.5h104v-10q-8 -12 -22 -30.5t-32.5 -38.5t-37.5 -38t-37 -31h-39v12zM182 604q-20 0 -33.5 13t-13.5 44q0 32 13.5 44.5t33.5 12.5q19 0 33 -12.5t14 -44.5q0 -31 -14 -44t-33 -13zM352 604q-20 0 -33.5 13t-13.5 44
q0 32 13.5 44.5t33.5 12.5q18 0 32.5 -12.5t14.5 -44.5t-14.5 -44.5t-32.5 -12.5zM231 -10q-72 0 -108 47t-36 149v238q0 30 -7.5 44.5t-22 19t-34.5 4.5h-3v44h170v-341q0 -45 6.5 -76t24 -46.5t48.5 -15.5q34 0 55 20t30.5 56.5t9.5 84.5v203q0 32 -8 47t-22.5 19.5
t-32.5 4.5h-3v44h168v-425q0 -30 9 -44t24 -18.5t32 -4.5h5v-44h-152l-14 79h-4q-24 -51 -57.5 -70t-77.5 -19z" />
    <glyph glyph-name="uni01D9" unicode="&#x1d9;" horiz-adv-x="626" 
d="M287 907q-9 20 -24 43.5t-32.5 46t-30.5 38.5v12h42q15 -11 31 -25t31 -28.5t27 -28.5q12 14 27 28.5t31 28.5t31 25h42v-12q-13 -16 -30.5 -39t-32.5 -46t-25 -43h-87zM245 776q-18 0 -31 12t-13 42t13 42t32 12q18 0 31.5 -11.5t13.5 -42.5q0 -30 -13.5 -42t-32.5 -12z
M418 776q-19 0 -32 12t-13 42t13 42t32 12q18 0 31.5 -11.5t13.5 -42.5q0 -30 -13.5 -42t-31.5 -12zM317 -10q-68 0 -118.5 22.5t-77.5 72.5t-27 132v387q0 29 -9 43t-24 18.5t-34 4.5h-14v44h270v-44h-13q-20 0 -35 -5t-24 -19.5t-9 -45.5v-390q0 -87 38 -122.5t99 -35.5
q45 0 75 20t45 55t15 82v395q0 29 -9 43t-23.5 18.5t-34.5 4.5h-13v44h219v-44h-14q-19 0 -34 -5t-24 -19.5t-9 -45.5v-393q0 -66 -23.5 -115t-71.5 -75.5t-120 -26.5z" />
    <glyph glyph-name="uni01DA" unicode="&#x1da;" horiz-adv-x="558" 
d="M223 742q-9 20 -24.5 43.5t-32.5 46t-31 38.5v12h43q14 -11 30 -25t31 -28.5t27 -28.5q12 14 27.5 28.5t31.5 28.5t31 25h42v-12q-14 -16 -31 -39t-32.5 -46t-24.5 -43h-87zM181 611q-19 0 -31.5 12t-12.5 42t12.5 42t31.5 12q18 0 31.5 -11.5t13.5 -42.5
q0 -30 -13.5 -42t-31.5 -12zM354 611q-19 0 -32.5 12t-13.5 42t13.5 42t32.5 12q18 0 31.5 -11.5t13.5 -42.5q0 -30 -13.5 -42t-31.5 -12zM231 -10q-72 0 -108 47t-36 149v238q0 30 -7.5 44.5t-22 19t-34.5 4.5h-3v44h170v-341q0 -45 6.5 -76t24 -46.5t48.5 -15.5
q34 0 55 20t30.5 56.5t9.5 84.5v203q0 32 -8 47t-22.5 19.5t-32.5 4.5h-3v44h168v-425q0 -30 9 -44t24 -18.5t32 -4.5h5v-44h-152l-14 79h-4q-24 -51 -57.5 -70t-77.5 -19z" />
    <glyph glyph-name="uni01DB" unicode="&#x1db;" horiz-adv-x="626" 
d="M321 891q-17 13 -36.5 31t-37.5 38t-32.5 38.5t-22.5 30.5v10h104q7 -18 17.5 -42.5t23 -49t24.5 -44.5v-12h-40zM248 769q-20 0 -33.5 13t-13.5 44q0 32 13.5 44.5t33.5 12.5q19 0 33 -12.5t14 -44.5q0 -31 -14 -44t-33 -13zM417 769q-20 0 -33.5 13t-13.5 44
q0 32 13.5 44.5t33.5 12.5q19 0 33.5 -12.5t14.5 -44.5t-14.5 -44.5t-33.5 -12.5zM317 -10q-68 0 -118.5 22.5t-77.5 72.5t-27 132v387q0 29 -9 43t-24 18.5t-34 4.5h-14v44h270v-44h-13q-20 0 -35 -5t-24 -19.5t-9 -45.5v-390q0 -87 38 -122.5t99 -35.5q45 0 75 20t45 55
t15 82v395q0 29 -9 43t-23.5 18.5t-34.5 4.5h-13v44h219v-44h-14q-19 0 -34 -5t-24 -19.5t-9 -45.5v-393q0 -66 -23.5 -115t-71.5 -75.5t-120 -26.5z" />
    <glyph glyph-name="uni01DC" unicode="&#x1dc;" horiz-adv-x="558" 
d="M257 726q-18 13 -37 31t-37 38t-32.5 38.5t-22.5 30.5v10h104q7 -18 17.5 -42.5t23 -49t24.5 -44.5v-12h-40zM184 604q-20 0 -33.5 13t-13.5 44q0 32 13.5 44.5t33.5 12.5q19 0 33 -12.5t14 -44.5q0 -31 -14 -44t-33 -13zM353 604q-20 0 -33.5 13t-13.5 44
q0 32 13.5 44.5t33.5 12.5q19 0 33 -12.5t14 -44.5t-14 -44.5t-33 -12.5zM231 -10q-72 0 -108 47t-36 149v238q0 30 -7.5 44.5t-22 19t-34.5 4.5h-3v44h170v-341q0 -45 6.5 -76t24 -46.5t48.5 -15.5q34 0 55 20t30.5 56.5t9.5 84.5v203q0 32 -8 47t-22.5 19.5t-32.5 4.5h-3
v44h168v-425q0 -30 9 -44t24 -18.5t32 -4.5h5v-44h-152l-14 79h-4q-24 -51 -57.5 -70t-77.5 -19z" />
    <glyph glyph-name="uni01DD" unicode="&#x1dd;" horiz-adv-x="473" 
d="M228 -10q-88 0 -138 61.5t-50 179.5v43h284q-1 110 -32.5 161t-90.5 51q-44 0 -75 -23t-46 -55q-9 6 -14.5 15t-5.5 23q0 23 17 46.5t52.5 39t89.5 15.5q101 0 155 -72t54 -203q0 -140 -52 -211t-148 -71zM227 43q44 0 69 46.5t26 132.5h-179q1 -81 20 -130t64 -49z" />
    <glyph glyph-name="uni01DE" unicode="&#x1de;" horiz-adv-x="623" 
d="M194 940v61h247v-61h-247zM232 777q-20 0 -33.5 13t-13.5 45t13.5 44t33.5 12q19 0 33 -12t14 -44t-14 -45t-33 -13zM402 777q-20 0 -33.5 13t-13.5 45t13.5 44t33.5 12q18 0 32.5 -12t14.5 -45q0 -31 -14.5 -44t-32.5 -13zM2 0v44h14q16 0 27 6t20.5 22.5t19.5 48.5
l188 593h88l191 -620q6 -19 14 -30t20 -15.5t30 -4.5h9v-44h-256v44h22q23 0 35.5 10t12.5 30q0 7 -1.5 15.5t-3.5 18t-5 18.5l-30 103h-218l-27 -95l-4.5 -18t-4.5 -19.5t-2 -18.5q0 -20 12 -32t39 -12h25v-44h-215zM197 291h184l-53 187q-7 28 -14.5 53.5t-13 48
t-9.5 42.5q-5 -20 -10 -42t-11.5 -45t-14.5 -49z" />
    <glyph glyph-name="uni01DF" unicode="&#x1df;" horiz-adv-x="497" 
d="M119 775v61h247v-61h-247zM157 612q-20 0 -33.5 13t-13.5 45t13.5 44t33.5 12q19 0 33 -12t14 -44t-14 -45t-33 -13zM327 612q-20 0 -34 13t-14 45t14 44t34 12q18 0 32.5 -12t14.5 -45q0 -31 -14.5 -44t-32.5 -13zM173 -10q-37 0 -67 17.5t-47.5 53t-17.5 90.5
q0 80 48 118t146 42l71 3v59q0 38 -5.5 65t-20.5 42t-46 15q-28 0 -43.5 -13.5t-21 -38t-5.5 -57.5q-44 0 -65.5 15.5t-21.5 47.5q0 33 21.5 54.5t58.5 32.5t84 11q83 0 125 -39.5t42 -133.5v-258q0 -28 5.5 -43.5t17 -22t31.5 -6.5h2v-44h-135l-15 83h-7
q-18 -27 -35.5 -48.5t-40 -33t-58.5 -11.5zM206 48q32 0 54 18.5t34.5 51t12.5 73.5v80l-48 -3q-42 -2 -67 -16.5t-35.5 -41t-10.5 -65.5q0 -30 6.5 -52t20 -33.5t33.5 -11.5z" />
    <glyph glyph-name="uni01E0" unicode="&#x1e0;" horiz-adv-x="623" 
d="M191 931v62h249v-62h-249zM315 760q-21 0 -36.5 13t-15.5 45q0 33 15.5 45.5t36.5 12.5t36 -12.5t15 -45.5q0 -32 -15 -45t-36 -13zM2 0v44h14q16 0 27 6t20.5 22.5t19.5 48.5l188 593h88l191 -620q6 -19 14 -30t20 -15.5t30 -4.5h9v-44h-256v44h22q23 0 35.5 10t12.5 30
q0 7 -1.5 15.5t-3.5 18t-5 18.5l-30 103h-218l-27 -95l-4.5 -18t-4.5 -19.5t-2 -18.5q0 -20 12 -32t39 -12h25v-44h-215zM197 291h184l-53 187q-7 28 -14.5 53.5t-13 48t-9.5 42.5q-5 -20 -10 -42t-11.5 -45t-14.5 -49z" />
    <glyph glyph-name="uni01E1" unicode="&#x1e1;" horiz-adv-x="497" 
d="M117 778v62h249v-62h-249zM242 607q-22 0 -37.5 13.5t-15.5 44.5q0 33 15.5 45.5t37.5 12.5q20 0 35.5 -12.5t15.5 -45.5q0 -31 -15.5 -44.5t-35.5 -13.5zM173 -10q-37 0 -67 17.5t-47.5 53t-17.5 90.5q0 80 48 118t146 42l71 3v59q0 38 -5.5 65t-20.5 42t-46 15
q-28 0 -43.5 -13.5t-21 -38t-5.5 -57.5q-44 0 -65.5 15.5t-21.5 47.5q0 33 21.5 54.5t58.5 32.5t84 11q83 0 125 -39.5t42 -133.5v-258q0 -28 5.5 -43.5t17 -22t31.5 -6.5h2v-44h-135l-15 83h-7q-18 -27 -35.5 -48.5t-40 -33t-58.5 -11.5zM206 48q32 0 54 18.5t34.5 51
t12.5 73.5v80l-48 -3q-42 -2 -67 -16.5t-35.5 -41t-10.5 -65.5q0 -30 6.5 -52t20 -33.5t33.5 -11.5z" />
    <glyph glyph-name="uni01E2" unicode="&#x1e2;" horiz-adv-x="831" 
d="M-1 0v44h13q15 0 28 8.5t24.5 25.5t23.5 44l244 543l-62 5v44h496l4 -177h-51l-5 44q-1 22 -9 41t-23.5 29.5t-40.5 10.5h-138v-263h206v-51h-206v-296h159q27 0 43 11t25 29.5t12 40.5l6 44h51l-6 -177h-479v44h16q19 0 34 5t23 19.5t8 43.5v125h-197l-43 -101
q-6 -16 -9.5 -30t-3.5 -23q0 -20 13 -29.5t38 -9.5h18v-44h-212zM223 289h172v373h-9zM362 787v63h249v-63h-249z" />
    <glyph glyph-name="uni01E3" unicode="&#x1e3;" horiz-adv-x="734" 
d="M179 -10q-39 0 -70.5 17t-49.5 53t-18 90q0 81 48 119t146 42l71 3v59q0 36 -5 63t-20.5 43t-45.5 16q-29 0 -45 -14t-21 -38.5t-5 -56.5q-46 0 -66.5 15.5t-20.5 47.5q0 35 22 56t58.5 31.5t79.5 10.5q33 0 58.5 -7.5t45.5 -22.5t33 -39q24 33 58 51t80 18q55 0 96 -28
t63.5 -81.5t22.5 -130.5v-45h-285q1 -72 15.5 -119t42.5 -69.5t70 -22.5q41 0 70.5 22t46.5 56q9 -4 16 -13t7 -22q0 -22 -17.5 -46t-53 -41t-90.5 -17q-63 0 -107.5 30t-68.5 87q-12 -29 -33.5 -56t-53.5 -44t-74 -17zM207 48q30 0 52 18t35 50t13 76v79l-48 -3
q-42 -2 -67 -16.5t-35.5 -41t-10.5 -65.5q0 -31 7 -53t20.5 -33t33.5 -11zM590 315q0 81 -19 129.5t-65 48.5q-43 0 -68 -45t-27 -133h179zM255 622v63h249v-63h-249z" />
    <glyph glyph-name="uni01E4" unicode="&#x1e4;" horiz-adv-x="633" 
d="M353 -10q-103 0 -170.5 46t-101 128.5t-33.5 193.5q0 108 35 190.5t103.5 129t170.5 46.5q65 0 109.5 -14.5t67.5 -40t23 -57.5q0 -33 -23.5 -53t-65.5 -20q0 32 -11.5 62t-36.5 49t-66 19q-66 0 -108 -35t-61.5 -104t-19.5 -172q0 -100 19.5 -169.5t63.5 -105.5t118 -36
q20 0 40.5 2.5t37.5 8.5v96h-111v50h111v22q0 29 -8 43t-22 19t-34 5h-9v44h239v-44h-6q-17 0 -28.5 -5t-18 -20t-6.5 -46v-18h67v-50h-67v-117q-45 -23 -93 -35t-105 -12z" />
    <glyph glyph-name="uni01E5" unicode="&#x1e5;" horiz-adv-x="470" 
d="M200 -240q-94 0 -141 38t-47 107q0 38 15 65.5t40.5 43.5t54.5 22q-20 9 -37.5 27.5t-17.5 51.5q0 31 18.5 53.5t47.5 41.5q-38 18 -61.5 59t-23.5 93q0 86 43 135.5t130 49.5q32 0 58 -9.5t43 -23.5q10 10 22.5 23.5t29 23t36.5 9.5q26 0 39.5 -16t13.5 -37
q0 -22 -11.5 -38.5t-38.5 -16.5q0 17 -8.5 28.5t-21.5 11.5q-11 0 -19 -3.5t-16 -10.5q17 -20 28.5 -48.5t11.5 -73.5q0 -76 -41 -125.5t-126 -49.5q-11 0 -26.5 1.5t-23.5 4.5q-12 -10 -23 -24.5t-11 -36.5q0 -24 15 -32.5t39 -8.5h94q54 0 87 -19.5t49 -52.5t16 -75
q0 -3 -0.5 -7t-0.5 -8h44v-46h-55q-19 -60 -74.5 -93.5t-150.5 -33.5zM202 -189q65 0 97.5 21t43.5 55h-129v46h137q-1 42 -21.5 57.5t-56.5 15.5h-91q-21 0 -41 -8.5t-33 -28.5t-13 -59q0 -29 11.5 -51t35 -35t60.5 -13zM219 240q28 0 44.5 13.5t23.5 41.5t7 70
q0 44 -7.5 73.5t-24 44t-44.5 14.5q-27 0 -43.5 -15t-24 -44.5t-7.5 -73.5q0 -61 17.5 -92.5t58.5 -31.5z" />
    <glyph glyph-name="Gcaron" unicode="&#x1e6;" horiz-adv-x="633" 
d="M353 -10q-103 0 -170.5 46t-101 128.5t-33.5 193.5q0 108 35 190.5t103.5 129t170.5 46.5q65 0 109.5 -14.5t67.5 -40t23 -57.5q0 -33 -23.5 -53t-65.5 -20q0 32 -11.5 62t-36.5 49t-66 19q-66 0 -108 -35t-61.5 -104t-19.5 -172q0 -100 19.5 -169.5t63.5 -105.5t118 -36
q20 0 40.5 2.5t37.5 8.5v161q0 29 -8 43.5t-22 19.5t-34 5h-9v44h239v-44h-6q-17 0 -28.5 -5t-18 -20.5t-6.5 -46.5v-178q-45 -23 -93 -35t-105 -12zM302 771q-9 23 -25 49.5t-33.5 52.5t-31.5 45v13h44q15 -14 31.5 -30.5t33 -34t29.5 -34.5q13 17 28.5 34.5t32.5 34
t32 30.5h44v-13q-13 -19 -30.5 -45t-33 -52.5t-25.5 -49.5h-96z" />
    <glyph glyph-name="gcaron" unicode="&#x1e7;" horiz-adv-x="470" 
d="M200 -238q-94 0 -141 38t-47 105q0 39 15 66t40.5 43t54.5 22q-20 9 -37.5 27.5t-17.5 51.5q0 31 18.5 53.5t47.5 41.5q-38 18 -61.5 59t-23.5 93q0 86 43 135.5t130 49.5q32 0 58 -9.5t43 -23.5q10 10 22.5 23.5t29 23t36.5 9.5q26 0 39.5 -16t13.5 -37
q0 -22 -11.5 -38.5t-38.5 -16.5q0 17 -8.5 28.5t-21.5 11.5q-11 0 -19 -3.5t-16 -10.5q17 -20 28.5 -48.5t11.5 -73.5q0 -76 -41 -125.5t-126 -49.5q-11 0 -26 1.5t-24 4.5q-12 -9 -23 -24t-11 -37t13.5 -31.5t40.5 -9.5h94q54 0 87.5 -19.5t49 -52.5t15.5 -74
q0 -87 -58 -137t-179 -50zM202 -188q57 0 90 15.5t47 42t14 59.5q0 43 -20.5 60t-59.5 17h-91q-21 0 -41 -8t-33 -28.5t-13 -58.5q0 -29 11.5 -51t35 -35t60.5 -13zM219 240q28 0 44.5 13.5t23.5 41.5t7 70q0 44 -7.5 73.5t-24 44t-44.5 14.5q-27 0 -43.5 -15t-24 -44.5
t-7.5 -73.5q0 -61 17.5 -92.5t58.5 -31.5zM175 606q-9 23 -25 49.5t-33.5 52.5t-31.5 45v13h44q15 -14 31.5 -30.5t33 -34t29.5 -34.5q13 17 28.5 34.5t32.5 34t32 30.5h44v-13q-13 -19 -30.5 -45t-33 -52.5t-25.5 -49.5h-96z" />
    <glyph glyph-name="uni01E8" unicode="&#x1e8;" horiz-adv-x="614" 
d="M29 0v44h21q17 0 30.5 4.5t21.5 18.5t8 42v496q0 28 -8 42t-21 18.5t-30 4.5h-22v44h267v-44h-20q-17 0 -30 -5t-20.5 -19.5t-7.5 -44.5v-279l161 229q19 25 29.5 43t15.5 31t5 23q0 14 -10.5 18.5t-35.5 4.5v43h207v-43q-21 0 -40 -10.5t-38 -31t-41 -49.5l-121 -162
l177 -293q16 -28 31.5 -45.5t31 -26.5t31.5 -9h3v-44h-33q-41 0 -68 4.5t-45.5 16t-33 30.5t-30.5 48l-135 239l-61 -76v-149q0 -30 8 -44.5t21 -19.5t31 -5h18v-44h-267zM284 771q-9 23 -25 49.5t-33.5 52.5t-31.5 45v13h44q15 -14 31.5 -30.5t33 -34t29.5 -34.5
q13 17 28.5 34.5t32.5 34t32 30.5h44v-13q-13 -19 -30.5 -45t-33 -52.5t-25.5 -49.5h-96z" />
    <glyph glyph-name="uni01E9" unicode="&#x1e9;" horiz-adv-x="521" 
d="M15 0v44h9q16 0 31 5t25 20t10 45v536q0 29 -10 43t-25 18.5t-31 4.5h-9v44h177v-385q0 -13 -0.5 -33t-1.5 -40t-1.5 -34.5t-0.5 -16.5l107 140q17 21 25.5 35.5t11.5 25t3 17.5q0 13 -10.5 18.5t-32.5 5.5v43h199v-43q-15 0 -29.5 -6t-29 -18t-30 -29t-32.5 -39l-54 -73
l113 -200q23 -40 43.5 -62t45.5 -22h4v-44h-12q-42 0 -69.5 3.5t-46.5 13.5t-34.5 31t-33.5 54l-81 155l-53 -62v-84q0 -29 10 -43.5t25.5 -19t30.5 -4.5h6v-44h-249zM219 796q-9 23 -25 49.5t-33.5 52.5t-31.5 45v13h44q15 -14 31.5 -30.5t33 -34t29.5 -34.5
q13 17 28.5 34.5t32.5 34t32 30.5h44v-13q-13 -19 -30.5 -45t-33 -52.5t-25.5 -49.5h-96z" />
    <glyph glyph-name="uni01EA" unicode="&#x1ea;" horiz-adv-x="654" 
d="M327 -10q-94 0 -156 46t-92.5 129t-30.5 194t30.5 193t93 127.5t156.5 45.5q89 0 151 -45.5t94.5 -128t32.5 -193.5t-32.5 -193.5t-94.5 -128.5t-152 -46zM327 46q60 0 95.5 37t51 107t15.5 168q0 99 -15.5 168.5t-51 106t-94.5 36.5q-88 0 -126 -81.5t-38 -229.5
q0 -98 16.5 -168t52.5 -107t94 -37zM354 -240q-59 0 -90.5 26.5t-31.5 83.5q0 31 14 58t37 46t50 26h56q-18 -6 -36.5 -21.5t-31 -38.5t-12.5 -55t17 -46.5t43 -14.5q11 0 24.5 2t29.5 6v-56q-9 -5 -22 -8.5t-25.5 -5.5t-21.5 -2z" />
    <glyph glyph-name="uni01EB" unicode="&#x1eb;" horiz-adv-x="509" 
d="M253 -10q-97 0 -153 69t-56 210q0 140 54 209t158 69q97 0 152.5 -69t55.5 -209q0 -141 -53.5 -210t-157.5 -69zM255 44q39 0 62 25.5t33 75.5t10 124q0 112 -24 167.5t-82 55.5q-57 0 -81 -55.5t-24 -167.5q0 -111 24.5 -168t81.5 -57zM270 -240q-59 0 -90.5 26.5
t-31.5 83.5q0 31 14 58t37 46t50 26h56q-18 -6 -36.5 -21.5t-31 -38.5t-12.5 -55t17 -46.5t43 -14.5q11 0 24.5 2t29.5 6v-56q-9 -5 -22 -8.5t-25.5 -5.5t-21.5 -2z" />
    <glyph glyph-name="uni01EC" unicode="&#x1ec;" horiz-adv-x="654" 
d="M327 -10q-94 0 -156 46t-92.5 129t-30.5 194t30.5 193t93 127.5t156.5 45.5q89 0 151 -45.5t94.5 -128t32.5 -193.5t-32.5 -193.5t-94.5 -128.5t-152 -46zM327 46q60 0 95.5 37t51 107t15.5 168q0 99 -15.5 168.5t-51 106t-94.5 36.5q-88 0 -126 -81.5t-38 -229.5
q0 -98 16.5 -168t52.5 -107t94 -37zM348 -240q-59 0 -90.5 26.5t-31.5 83.5q0 31 14 58t37 46t50 26h56q-18 -6 -36.5 -21.5t-31 -38.5t-12.5 -55t17 -46.5t43 -14.5q11 0 24.5 2t29.5 6v-56q-9 -5 -22 -8.5t-25.5 -5.5t-21.5 -2zM205 790v63h249v-63h-249z" />
    <glyph glyph-name="uni01ED" unicode="&#x1ed;" horiz-adv-x="509" 
d="M253 -10q-97 0 -153 69t-56 210q0 140 54 209t158 69q97 0 152.5 -69t55.5 -209q0 -141 -53.5 -210t-157.5 -69zM255 44q39 0 62 25.5t33 75.5t10 124q0 112 -24 167.5t-82 55.5q-57 0 -81 -55.5t-24 -167.5q0 -111 24.5 -168t81.5 -57zM128 614v63h249v-63h-249z
M270 -235q-55 0 -86 25t-31 80q0 33 14 59.5t36 45t46 25.5h58q-19 -7 -38 -23t-31 -40.5t-12 -56.5q0 -31 16 -45.5t42 -14.5q12 0 25.5 2.5t28.5 7.5v-51q-9 -4 -21 -7.5t-24.5 -5t-22.5 -1.5z" />
    <glyph glyph-name="uni01EE" unicode="&#x1ee;" horiz-adv-x="518" 
d="M213 771q-9 23 -25 49.5t-33.5 52.5t-31.5 45v13h44q15 -14 31.5 -30.5t33 -34t29.5 -34.5q13 17 28.5 34.5t32.5 34t32 30.5h44v-13q-13 -19 -30.5 -45t-33 -52.5t-25.5 -49.5h-96zM237 -10q-57 0 -96.5 11t-63 30t-33.5 41t-10 44q0 28 10.5 44.5t28.5 24.5t41 8
q0 -39 12.5 -73t40 -54.5t71.5 -20.5q40 0 69 16t46 50.5t17 90.5q0 49 -16.5 82t-47.5 50t-78 17h-56v43l181 238h-163q-36 0 -50.5 -12t-18.5 -52l-2 -21h-47l6 167h371v-49l-199 -258q54 -1 96 -14t71 -38.5t44 -63.5t15 -88q0 -74 -31.5 -121t-85.5 -69.5t-122 -22.5z
" />
    <glyph glyph-name="uni01EF" unicode="&#x1ef;" horiz-adv-x="463" 
d="M183 606q-9 23 -25 49.5t-33.5 52.5t-31.5 45v13h44q15 -14 31.5 -30.5t33 -34t29.5 -34.5q13 17 28.5 34.5t32.5 34t32 30.5h44v-13q-13 -19 -30.5 -45t-33 -52.5t-25.5 -49.5h-96zM201 -240q-68 0 -106 17.5t-54 43.5t-16 49q0 30 17 47t57 17q0 -31 9 -59.5t31 -46.5
t59 -18t65.5 18.5t44.5 59.5t16 108q0 87 -39.5 130t-117.5 43h-20v40l174 246h-164q-30 0 -40.5 -13.5t-18.5 -50.5l-4 -18h-40l8 163h348v-53l-186 -260q43 -3 79.5 -16.5t64.5 -39.5t44 -67t16 -99q0 -65 -18.5 -111t-50.5 -74.5t-72.5 -42t-85.5 -13.5z" />
    <glyph glyph-name="uni01F0" unicode="&#x1f0;" horiz-adv-x="280" 
d="M-8 -240v50h5q31 0 53 16t33.5 56t11.5 111v431q0 30 -9 44.5t-24 19t-34 4.5h-6v44h175v-544q0 -89 -24.5 -140t-67 -71.5t-99.5 -20.5h-14zM79 606q-9 23 -25 49.5t-33.5 52.5t-31.5 45v13h44q15 -14 31.5 -30.5t33 -34t29.5 -34.5q13 17 28.5 34.5t32.5 34t32 30.5h44
v-13q-13 -19 -30.5 -45t-33 -52.5t-25.5 -49.5h-96z" />
    <glyph glyph-name="uni01F1" unicode="&#x1f1;" horiz-adv-x="1174" 
d="M29 0v44h22q17 0 30.5 5.5t21 20.5t7.5 43v491q0 28 -8 42t-22 19t-32 5h-19v44h272q91 0 156 -41t99.5 -120t34.5 -193q0 -109 -32.5 -190t-97 -125.5t-160.5 -44.5h-272zM281 53q64 0 107 35.5t64.5 104t21.5 167.5t-21.5 166t-64.5 101.5t-106 34.5h-64v-609h63z
M672 0v42l325 620h-182q-39 0 -53.5 -24.5t-16.5 -58.5l-5 -45h-52l5 180h429v-43l-327 -619h207q29 0 46 12t24 31.5t9 41.5l4 43h52l-4 -180h-461z" />
    <glyph glyph-name="uni01F2" unicode="&#x1f2;" horiz-adv-x="1084" 
d="M29 0v44h22q17 0 30.5 5.5t21 20.5t7.5 43v491q0 28 -8 42t-22 19t-32 5h-19v44h272q91 0 156 -41t99.5 -120t34.5 -193q0 -109 -32.5 -190t-97 -125.5t-160.5 -44.5h-272zM281 53q64 0 107 35.5t64.5 104t21.5 167.5t-21.5 166t-64.5 101.5t-106 34.5h-64v-609h63z
M667 0v40l254 443h-121q-34 0 -47.5 -18.5t-23.5 -58.5l-4 -15h-43l10 145h347v-41l-255 -442h146q34 0 48 21.5t21 62.5l5 28h42l-5 -165h-374z" />
    <glyph glyph-name="uni01F3" unicode="&#x1f3;" horiz-adv-x="985" 
d="M217 -10q-56 0 -94.5 29t-59 90.5t-20.5 157.5q0 97 20.5 158.5t59.5 91t95 29.5q50 0 80 -23.5t48 -61.5h5q-2 24 -2.5 52t-0.5 56v80q0 30 -10 44t-25.5 18.5t-34.5 4.5h-7v44h179v-645q0 -29 8.5 -45t24 -21t34.5 -5h8v-44h-157l-14 88h-3q-20 -45 -51.5 -71.5
t-82.5 -26.5zM243 51q58 0 81.5 57t23.5 159q0 106 -22.5 162.5t-82.5 56.5q-34 0 -55 -25.5t-30.5 -74.5t-9.5 -120q0 -108 22 -161.5t73 -53.5zM568 0v40l254 443h-121q-34 0 -47.5 -18.5t-23.5 -58.5l-4 -15h-43l10 145h347v-41l-255 -442h146q34 0 48 21.5t21 62.5l5 28
h42l-5 -165h-374z" />
    <glyph glyph-name="uni01F4" unicode="&#x1f4;" horiz-adv-x="633" 
d="M353 -10q-103 0 -170.5 46t-101 128.5t-33.5 193.5q0 108 35 190.5t103.5 129t170.5 46.5q65 0 109.5 -14.5t67.5 -40t23 -57.5q0 -33 -23.5 -53t-65.5 -20q0 32 -11.5 62t-36.5 49t-66 19q-66 0 -108 -35t-61.5 -104t-19.5 -172q0 -100 19.5 -169.5t63.5 -105.5t118 -36
q20 0 40.5 2.5t37.5 8.5v161q0 29 -8 43.5t-22 19.5t-34 5h-9v44h239v-44h-6q-17 0 -28.5 -5t-18 -20.5t-6.5 -46.5v-178q-45 -23 -93 -35t-105 -12zM281 795q14 23 29.5 48.5t29.5 51t22 47.5h111v-10q-8 -13 -25 -32.5t-38.5 -41t-44 -41.5t-41.5 -35h-43v13z" />
    </font>
</defs>
</svg>
