<svg viewBox="0 0 216 52" xmlns="http://www.w3.org/2000/svg" xmlns:xlink="http://www.w3.org/1999/xlink" width="216.000000" height="52.000000" fill="none" customFrame="#000000">
	<g id="logo">
		<path id="OJJO" d="M36.9431 49.785Q32.0105 52 26.0832 52Q20.2407 52 15.3441 49.848L15.344 49.8479L15.3439 49.8479Q11.0869 47.9769 7.54471 44.4793Q3.9929 40.9051 2.11317 36.6007L2.1131 36.6006Q0 31.7617 0 26Q0 20.1541 2.1753 15.2789L2.17535 15.2788Q4.05122 11.0746 7.54471 7.59229Q11.1513 3.99724 15.4989 2.1045Q20.3329 0 26.0832 0Q31.9175 0 36.7882 2.16654Q41.0354 4.05574 44.5497 7.59229Q48.1407 11.138 50.0386 15.432L50.0387 15.4323Q52.1663 20.246 52.1663 26Q52.1663 31.6705 50.1 36.4473L50.1 36.4474Q48.1992 40.8416 44.5497 44.4793Q41.0995 47.9185 36.9431 49.785ZM189.917 52C197.198 52 203.354 49.4931 208.383 44.4793C213.461 39.4178 216 33.258 216 26C216 18.742 213.461 12.6061 208.383 7.59229C203.354 2.53076 197.198 0 189.917 0Q184.167 0 179.333 2.10453Q174.985 3.99727 171.378 7.59229C166.349 12.6061 163.834 18.742 163.834 26C163.834 33.258 166.349 39.4178 171.378 44.4793C176.456 49.4931 182.636 52 189.917 52ZM64.0375 42.832C67.0074 48.944 72.3965 52 80.2047 52Q86.4258 52 90.8393 49.1755L90.8399 49.1751Q91.7786 48.5743 92.6355 47.8457C95.8929 45.0285 97.5216 41.0413 97.5216 35.8843L97.5216 0.93113L89.2584 0.93113L89.2584 35.8843C89.2584 38.4628 88.468 40.4683 86.8872 41.9008C85.3543 43.2856 83.1507 43.978 80.2766 43.978C75.8216 43.978 72.7797 42.2112 71.151 38.6777L64.0375 42.832ZM128.664 52C120.856 52 115.467 48.944 112.497 42.832L119.611 38.6777C121.239 42.2112 124.281 43.978 128.736 43.978C131.61 43.978 133.814 43.2856 135.347 41.9008C136.928 40.4683 137.718 38.4628 137.718 35.8843L137.718 0.93113L145.981 0.93113L145.981 35.8843C145.981 41.0413 144.353 45.0285 141.095 47.8457C137.838 50.6152 133.694 52 128.664 52ZM13.3649 38.8926Q15.5987 41.0883 18.2745 42.336Q21.796 43.978 26.0832 43.978Q30.4521 43.978 34.0018 42.2727L34.0019 42.2726Q36.5822 41.0331 38.7295 38.8926Q40.8148 36.814 42.0595 34.3165L42.0597 34.3162Q43.9031 30.6175 43.9031 26Q43.9031 21.3068 41.9987 17.5891L41.9986 17.5889Q40.7642 15.179 38.7295 13.1791Q36.5158 10.9413 33.842 9.67454L33.8416 9.67435L33.8415 9.67431Q30.3537 8.02204 26.0832 8.02204Q21.8937 8.02204 18.4353 9.61219L18.4353 9.61221Q15.6656 10.8857 13.3649 13.1791Q11.4277 15.1101 10.2261 17.4233Q8.26326 21.2018 8.26326 26Q8.26326 30.722 10.1643 34.4832Q11.3775 36.8835 13.3649 38.8926ZM189.917 43.978C184.887 43.978 180.648 42.2828 177.199 38.8926C173.798 35.4545 172.097 31.157 172.097 26C172.097 20.843 173.798 16.5693 177.199 13.1791C180.648 9.74105 184.887 8.02204 189.917 8.02204C194.947 8.02204 199.162 9.74105 202.563 13.1791C206.012 16.5693 207.737 20.843 207.737 26C207.737 31.157 206.012 35.4545 202.563 38.8926C199.162 42.2828 194.947 43.978 189.917 43.978Z" fill="rgb(255,255,255)" fill-rule="evenodd" />
		<path id="Vector" d="M36.1308 23.933L36.1248 23.8808C36.1137 23.8155 36.0939 23.7524 36.0658 23.6938L33.1246 18.4231C33.1246 18.4231 32.7495 17.9064 32.6604 17.9064L20.1267 17.9064L16.3574 23.515L16.3128 23.5666L16.3068 23.5909C16.2749 23.6479 16.2488 23.7085 16.2288 23.7718L16.2135 23.8219C16.17 23.9824 16.1721 24.1538 16.2195 24.3129L16.2371 24.3692C16.2608 24.4359 16.2901 24.4968 16.3244 24.5511L25.4373 37.4018L25.4559 37.4313C25.5027 37.4984 25.5598 37.5579 25.6295 37.6121L25.6824 37.6488C25.7344 37.685 25.7887 37.7139 25.8676 37.746L25.9191 37.7651C26.0083 37.7904 26.0858 37.8023 26.1615 37.8023C26.238 37.8023 26.3128 37.7909 26.4135 37.762L26.4753 37.7377C26.5356 37.7139 26.5899 37.6845 26.6554 37.6395L26.6962 37.6111C26.7663 37.5558 26.8225 37.4958 26.8536 37.4488L35.9781 24.5847C36.0588 24.4649 36.1114 24.3246 36.1313 24.1764L36.1382 24.1098L36.1419 24.0571L36.1308 23.933ZM31.238 23.5909L32.5369 20.9745L33.8348 23.5909L31.238 23.5909ZM30.4591 25.1413L33.5405 25.1413L28.4045 32.3839L30.4591 25.1413ZM29.6969 22.8065L27.821 19.9735L31.103 19.9735L29.6969 22.8065ZM23.6882 25.1413L28.6362 25.1413L26.1615 33.8629L23.6882 25.1413ZM24.1788 23.5909L26.1615 20.5957L28.1441 23.5909L24.1788 23.5909ZM22.7825 22.5718L21.9228 19.9735L24.5024 19.9735L22.7825 22.5718ZM23.9193 32.3844L18.7829 25.1413L21.8647 25.1413L23.9193 32.3844ZM20.4354 20.9926L21.2956 23.5909L18.7156 23.5909L20.4354 20.9926Z" fill="rgb(255,255,255)" fill-rule="nonzero" />
		<path id="Vector" d="M199.799 23.933L199.793 23.8808C199.782 23.8155 199.762 23.7524 199.734 23.6938L196.793 18.4231C196.793 18.4231 196.418 17.9064 196.329 17.9064L183.795 17.9064L180.026 23.515L179.981 23.5666L179.975 23.5909C179.943 23.6479 179.917 23.7085 179.897 23.7718L179.882 23.8219C179.839 23.9824 179.841 24.1538 179.888 24.3129L179.906 24.3692C179.929 24.4359 179.959 24.4968 179.993 24.5511L189.106 37.4018L189.124 37.4313C189.171 37.4984 189.228 37.5579 189.298 37.6121L189.351 37.6488C189.403 37.685 189.457 37.7139 189.536 37.746L189.588 37.7651C189.677 37.7904 189.754 37.8023 189.83 37.8023C189.907 37.8023 189.981 37.7909 190.082 37.762L190.144 37.7377C190.204 37.7139 190.258 37.6845 190.324 37.6395L190.365 37.6111C190.435 37.5558 190.491 37.4958 190.522 37.4488L199.647 24.5847C199.727 24.4649 199.78 24.3246 199.8 24.1764L199.807 24.1098L199.81 24.0571L199.799 23.933ZM194.906 23.5909L196.205 20.9745L197.503 23.5909L194.906 23.5909ZM194.128 25.1413L197.209 25.1413L192.073 32.3839L194.128 25.1413ZM193.365 22.8065L191.489 19.9735L194.771 19.9735L193.365 22.8065ZM187.357 25.1413L192.305 25.1413L189.83 33.8629L187.357 25.1413ZM187.847 23.5909L189.83 20.5957L191.813 23.5909L187.847 23.5909ZM186.451 22.5718L185.591 19.9735L188.171 19.9735L186.451 22.5718ZM187.588 32.3844L182.451 25.1413L185.533 25.1413L187.588 32.3844ZM184.104 20.9926L184.964 23.5909L182.384 23.5909L184.104 20.9926Z" fill="rgb(255,255,255)" fill-rule="nonzero" />
	</g>
</svg>
